<svg xmlns="http://www.w3.org/2000/svg" width="128" height="128" viewBox="0 0 128 128"><path fill="#081a2f" d="m53.5 14.19 2.28.17c3.14.9 4.25 2.02 6.22 4.64 1.08 2.8 1.72 5.69 2.38 8.63l.61 2.63q.67 2.84 1.32 5.69 1.09 4.77 2.2 9.52l.77 3.32 1.57 6.66a229 229 0 0 1 3.1 15.14 151 151 0 0 1 1.14 7.16c.37 2.03.37 2.03 1.91 5.25 2.29.86 4.46 1.22 6.88 1.58C86 85 86 85 87.99 86.76a29 29 0 0 1 2.2 8.12l.48 3.05c.89 8.2.89 8.2-1.48 11.88-3.53 3.53-6.63 3.33-11.4 3.39l-3.89.04-4.2.04h-2.14q-5.61.06-11.23.07-4.64.03-9.27.08-5.61.08-11.22.09-2.13 0-4.26.04c-12.5.2-12.5.2-16.46-2.93-3.07-3.8-2.73-6.08-2.44-10.77 1.19-10.54 1.19-10.54 4.51-14.42C20.66 83.67 23.16 83.7 27 84l.39-3.5c.53-4.2 1.36-8.3 2.32-12.41l.5-2.21 1.06-4.61 1.58-6.9C40.94 19.06 40.94 19.06 45 15c2.93-1.01 5.43-1.1 8.5-.81"/><path fill="#091527" d="m35 46 1 3h3v4l4 1 1-3-1 5-5-2-.15 1.76-.23 2.36-.21 2.33C37 63 37 63 36.02 65.88c-1.44 4.39-1.88 8.82-2.46 13.39L33 82l-2 1a24 24 0 0 0 0 10c7.85 6.57 19.28 5.59 29 5 4.88-.95 8.86-2.24 13-5l.5-2.5.5-2.5 3-2v-3q2.16.34 4.31.75l2.43.42C86.66 85.24 87.49 86.3 89 89c.73 2.8.73 2.8 1.19 5.88l.48 3.05c.89 8.21.89 8.21-1.48 11.88-3.53 3.53-6.63 3.33-11.4 3.38l-3.89.05-4.2.03-2.14.02q-5.61.04-11.23.06-4.64.02-9.27.08-5.61.08-11.22.08l-4.26.05c-12.5.2-12.5.2-16.46-2.93-3.07-3.8-2.73-6.08-2.44-10.77 1.19-10.54 1.19-10.54 4.51-14.42C20.66 83.66 23.16 83.7 27 84l.28-3.03c.86-6.93 2.66-13.69 4.28-20.47l1-4.23z"/><path fill="#0d192a" d="M111.06 21.31c2.5 2.18 3.84 3.83 4.21 7.17-.02 9-.98 17.72-2.24 26.6q-.52 3.66-.99 7.32l-.66 4.7-.28 2.18c-.62 4.18-1.47 7.37-4.1 10.72-3.79 1.12-6.06 1.31-9.82.06-5.63-5.3-5.14-16.43-6.04-23.79l-.82-6.4c-2.42-19.16-2.42-19.16-.14-24.8 5.44-6.2 13.41-6.96 20.88-3.76"/><path fill="#03142a" d="M76 83q2.41.34 4.81.75l2.71.42c3.11 1.04 3.92 1.97 5.48 4.83.73 2.8.73 2.8 1.19 5.88l.48 3.05c.89 8.21.89 8.21-1.48 11.88-3.53 3.53-6.63 3.33-11.42 3.37l-3.89.04-4.22.02-2.14.01-11.24.05q-5.8.02-11.6.08-4.46.04-8.93.04-2.14 0-4.28.03-2.99.03-5.98.02l-3.44.02c-3.73-.6-5.4-1.84-8.05-4.49-.56-2.54-.56-2.54-.44-5.19l.07-2.67L14 99l2-1v5c6.69 2.46 13.17 2.29 20.23 2.27h3.84l8.02-.01q5.13-.01 10.26.01h9.82l3.71.01 3.45-.02 3.03-.01c2.74-.26 4.39-.67 6.64-2.25.39-3.04.39-3.04.25-6.62l-.11-3.61L85 90l-7-2 .25 3.25C78 95 78 95 76.38 97.38 73.56 99.3 71.37 99.69 68 100l2-1a61 61 0 0 0 2.94-8.19C74 88 74 88 77 86z"/><path fill="#f5f4e5" d="M108 25c2 2 2 2 2.24 4.36-.08 7.66-.68 15.16-1.62 22.76l-.38 3.34q-.58 4.78-1.24 9.54l-.37 3-.42 2.74-.34 2.43C105 75 105 75 102.55 75.89L100 76c-2.32-2.32-2.3-2.93-2.56-6.08l-.23-2.5-.21-2.67a266 266 0 0 0-2.12-18.25c-.9-6.07-1.79-12.39-.88-18.5 3.81-5.06 8.42-3.97 14-3"/><path fill="#f2f1e5" d="M23.63 87.88 26 88q-.05 1.38-.08 2.81C26 94 26 94 27 97c1.93 1 1.93 1 5 2q.93.4 1.88.78c11.9 4.45 25.8 3.38 37.65-.62 2.44-1.14 3.85-2 5.47-4.16.69-3.69.69-3.69 1-7 4.75.88 4.75.88 7 2 .59 2.83.59 2.83.94 6.38l.4 3.52L86 103c-3.6 2.78-6.31 3.38-10.8 3.39l-3.45.02-3.72-.02q-1.89.03-3.84.02l-8.01-.02q-5.14-.02-10.26.02l-9.83-.02q-1.82.03-3.7.02c-10.46-.07-10.46-.07-15.39-3.41q.43-3.19.88-6.37l.49-3.6c.79-3.75 1.3-4.97 5.25-5.16"/><path fill="#f3f1e1" d="m31 83 2.05.62 5.37 1.63a222 222 0 0 1 4.51 1.33C53.05 88.64 62.51 86.53 72 83q.66 2.4 1.25 4.81l.7 2.71L74 93c-5.52 5.64-14.11 6.21-21.56 6.31-7.35-.17-13.3-1.01-20.06-3.81C30 93 30 93 29.86 90.52A66 66 0 0 1 31 83"/><path fill="#f2f0e0" d="m38 54 2.5.99c3.93 1.13 7.51 1.27 11.56 1.2h2.11A47 47 0 0 0 65 55c1.52 3.93 2.91 7.65 3.19 11.88-1.59 2.83-3.51 3.66-6.55 4.62-8.95 1.7-17.27.96-25.64-2.5l.44-5.25.24-2.95c.27-2.36.67-4.52 1.32-6.8"/><path fill="#081326" d="M106 83c3.09 1.92 5.38 3.42 6.74 6.9.75 3.96.41 5.79-1.43 9.48-3.05 3.46-4.64 4.4-9.19 5-3.96-.48-6.02-1.91-9.12-4.38-2.51-3.77-2.53-5.53-2-10 1.75-3.08 4.09-5.33 6.94-7.44 3.09-.84 4.99-.48 8.06.44"/><path fill="#efefe0" d="m47 19 4.44-.12 2.49-.08L56 19l1 2-4 2 4-1a64 64 0 0 1 4 17c-5.68 2.61-10.99 2.01-17 1l-1-1a54 54 0 0 1 4-20"/><path fill="#d7d7cd" d="M78 88c4.75.88 4.75.88 7 2 .59 2.84.59 2.84.94 6.38l.4 3.52L86 103c-3.63 2.82-6.36 3.37-10.89 3.34h-3.52l-3.77-.05-3.88-.01q-5.09-.02-10.17-.07-5.2-.05-10.4-.06L23 106v-1l40-1-2-2 2.74-.77 3.57-1.04 3.55-1.02c2.93-1.09 4.36-1.65 6.14-4.17.69-3.69.69-3.69 1-7"/><path fill="#162031" d="M26 88h1v5h2l1-2 1.75 1.88c6.61 6.24 15.82 5.39 24.43 5.35 5.21-.32 9.9-1.51 14.82-3.23l-1 4h-2v2c-5.55 1.86-10.48 2.35-16.31 2.31l-2.54-.01C41.1 103.16 33.6 101.95 27 97c-2.15-3.22-2.29-4.28-2-8z"/><path fill="#182333" d="m40 33 2 1 .81 2.5L44 39c2.62.81 2.62.81 5 1l-3 1v8h-2l-1 5-4-1v-4h-3c-.46-6.5.67-10.42 4-16"/><path fill="#efeee2" d="M106 88c2 2 2 2 2.31 4.94C108 96 108 96 106.94 97.88c-3.01 1.74-5.55 1.43-8.94 1.12-2-2-2-2-2.31-5.44C96 90 96 90 97.06 88c3.13-1.62 5.61-.79 8.94 0"/><path fill="#081226" d="m48.63 14.88 3.38.11-1 3q1.96.52 4 1l-3.82-.08c-2.21.27-2.21.27-4.18 1.09-1.81 2.98-2.36 6.16-3 9.56l-.62 2.74Q42.65 35.63 42 39h-1v-5c-1 1-1 1-2 4l-2-1c5.77-21.92 5.77-21.92 11.62-22.12"/><path fill="#020e1d" d="M89 28c1.94.25 1.94.25 4 1 1.09 3.03 1.13 5.93 1.12 9.12l.01 2.64C94 43 94 43 93 45c-.4 5.73.18 11.34 1 17l-2 1-1.5-13.56-.43-3.87-.41-3.76-.38-3.45c-.29-3.47-.33-6.88-.28-10.36"/><path fill="#e6e5e0" d="M35 70c2.01.72 2.01.72 4 2 .21 2.09.21 2.09-.19 4.5l-.35 2.41C38 81 38 81 37 83l-5-1 .94-4.88.52-2.74C34 72 34 72 35 70"/><path fill="#e7e7e6" d="m41 40 4 1-.44 4.81-.24 2.71C44 51 44 51 43 54l-4-1z"/><path fill="#040c19" d="M17 86v3l.5 1.75c.7 3.15.68 6.04.5 9.25l-2 3-1-4-1 9h-1c-.23-6.8-.31-13.5 2-20z"/></svg>