<svg xmlns="http://www.w3.org/2000/svg" width="128" height="128" viewBox="0 0 128 128"><path fill="#08182e" d="M84 12h4l12 25v75H70V39zM22 29h49l11 13v70H15V43zM13 58h15v54H13zM92 50l25 24v38H78V73z"/><path fill="#fcf9e4" d="M86 22 80 35h15zM80 40h15v29H80zM26 36h42l8 8v64H62V87c0-12-7-20-18-20s-18 8-18 20v21h-7V47h57v-4H26zM93 60l17 17v31H84V77zM18 64h8v44h-8z"/><path fill="#08182e" d="M24 29h45v5H24zM18 43h58v5H18zM13 59h17v7H13zM83 50c0-5 3-8 4-8s4 3 4 8v10h-8zM88 79c0-8 5-13 10-13s10 5 10 13v17H88zM31 88c0-13 5-22 13-22s13 9 13 22v24H31z"/><path fill="#b2b0aa" d="M29 31h35v3H29zM31 43h9v4h-9zM45 43h15v4H45zM64 44h8v4h-8zM27 55h13v5H27zM47 55h14v5H47zM66 56h9v5H66zM22 69h11v5H22zM59 69h16v5H59zM21 82h7v5h-7zM61 82h14v5H61zM21 96h8v5h-8zM62 96h13v5H62zM84 96h11v5H84zM100 96h10v5h-10zM84 84h8v5h-8zM103 84h8v5h-8zM81 61h13v5H81z"/><path fill="#fcf9e4" d="M86 21h2v11h-2z"/></svg>