<svg xmlns="http://www.w3.org/2000/svg" width="128" height="128" viewBox="0 0 128 128"><path fill="#0e192b" d="M58 17a25 25 0 0 1 3.94 3.62L64 22.8l2 2.2 1.85 2.02C72 31.69 72 31.69 72 34h2v2l3-1.06c1.94-.28 1.94-.28 4 .06 3.19 2.57 5.52 5.77 8 9l2.29 2.72C97 53.57 97 53.57 97 57a230 230 0 0 1-19.31-4l-2.03-.5a49 49 0 0 1-8.47-2.77c-4.92-1.13-9.07.26-13.88 1.52l-2.87.7C43.45 53.7 43.45 53.7 40 56l1.86.38q4.26.89 8.52 1.81l2.92.59C61.19 60.5 69.4 62.84 75 69l2.62-1.88C83.18 63.63 88.42 62.05 95 63c7.51 2.23 13.36 5.21 17.81 11.81 3.61 6.91 3.44 15.24 1.56 22.69-2.62 6.02-7.9 10.73-13.69 13.68-3.32 1.02-6.21 1.05-9.68 1.01l-3.62-.02C84 112 84 112 81.63 111.49a38 38 0 0 0-8.03-.51l-3.19.06-3.43.07-7.22.1q-5.68.06-11.36.19-5.49.11-10.98.15l-3.41.1c-6.48.03-10.4-.72-15.4-4.97C14.7 102.59 13.3 99.77 13 94c1.02-5.23 4.89-7.97 9-11a97 97 0 0 1 8.94-4.38l2.36-1.07Q36.14 76.26 39 75l-1.63-.46a580 580 0 0 1-7.43-2.16l-2.57-.72C21.66 69.94 16.82 67.74 13 63c-.69-3.93-.42-6.06 1.19-9.69C16 51 16 51 18.36 49.21c2.84-2.38 4.67-4.79 6.76-7.83 2.22-3.22 3.61-5.2 6.88-7.38l2.56.12L37 34a75 75 0 0 0 2-4c1.3-1.63 1.3-1.63 2.75-3.2l1.59-1.72L45 23.31l1.66-1.8C52.42 15.32 52.42 15.32 58 17m5.44 73.5L62 92c.75 1.94.75 1.94 2 4l4 1-2-8c-1 0-1 0-2.56 1.5"/><path fill="#e6e4d5" d="m32 50-2.44 2.19C26.98 55.03 26.32 56.27 26 60c1-1 1-1 1.25-2.94C28 55 28 55 30.56 53.75L33 53v5l5.08 1.27 4.37 1.1q5 1.26 10 2.42C65.13 65.73 65.13 65.73 69 69c1.41 3.49 1.62 5.5.17 9.02-2.56 4.47-5.63 7.5-9.81 10.46C58 90 58 90 57.58 92.48 58 95 58 95 59.47 96.66l2.03 1.4 2.21 1.53a62 62 0 0 0 8.33 4.26c2.76 1.62 4.73 3.88 6.96 6.15q-10.19.3-20.39.44-3.45.06-6.92.16c-21.67.64-21.67.64-28.14-4.44-3.09-3.22-5.35-5.99-6.11-10.47.7-4.59 1.95-5.39 5.4-8.19 4.52-3.13 9.62-5.1 14.66-7.24l2.49-1.11 2.26-.96C44 77 44 77 44.75 74.87L45 73a75 75 0 0 0-14.56-4.88c-9.92-2.5-9.92-2.5-13.44-7.12-.31-3-.31-3 1-6 4.12-3.89 8.29-6.77 14-5"/><path fill="#0a1629" d="M58 17a25 25 0 0 1 3.94 3.62L64 22.8l2 2.2 1.85 2.02C72 31.69 72 31.69 72 34h2v2l3-1.06c1.94-.28 1.94-.28 4 .06 3.19 2.57 5.52 5.77 8 9l2.29 2.72C97 53.57 97 53.57 97 57a230 230 0 0 1-19.31-4l-2.03-.5a59 59 0 0 1-8.6-2.75c-4.31-1.06-7.54-.01-11.75 1.19C47.36 53.12 47.36 53.12 44 52c1.69-3.39 2.88-4.93 6.12-7 2.88-2 2.88-2 3.82-4.38.07-2.99-.33-5.69-.94-8.62l4-2 1.25 1.44C60 33 60 33 61.89 33.36c2.78.84 3.73 2.16 5.55 4.39A119 119 0 0 0 76 47l1.69-1.25L80 45c2.62 1.81 2.62 1.81 5 4l2 1-8-10-2 3c-3.62-1.5-5.63-3.56-8.19-6.5l-2.35-2.68L64 31l-5.06-5.62L55 21c-6.12 4.95-13.43 10.87-17 18l-2.19-.31c-3.46.38-3.93 1.21-6.12 3.81Q28.32 44.23 27 46l2 3-2.15 1.1c-7.48 4.09-7.48 4.09-9.29 8.02C18 61 18 61 19.86 62.98c4.36 2.8 8.85 3.87 13.83 5.14l5.7 1.51 2.53.66C44 71 44 71 46 73c-.17 2-.17 2-1 4a79 79 0 0 1-7.56 3.94q-2.2 1.03-4.39 2.1l-2.13 1.01C26.6 86.18 22.43 88.57 19 92c-.44 3.91-.47 6.21 1.56 9.62 6.96 6.79 11.25 8.12 20.84 8.09l3.27.04q5.13.06 10.27.06l6.98.08q8.55.1 17.08.11v1q-11.31.23-22.63.33l-7.7.12q-5.53.1-11.08.14l-3.45.09c-6.52 0-10.51-.72-15.54-5-3.89-4.09-5.3-6.91-5.6-12.68 1.02-5.23 4.89-7.97 9-11a97 97 0 0 1 8.94-4.38l2.36-1.07Q36.14 76.26 39 75l-1.63-.46a580 580 0 0 1-7.43-2.16l-2.57-.72C21.66 69.94 16.82 67.74 13 63c-.69-3.93-.42-6.06 1.19-9.69C16 51 16 51 18.36 49.21c2.84-2.38 4.67-4.79 6.76-7.83 2.22-3.22 3.61-5.2 6.88-7.38l2.56.12L37 34a75 75 0 0 0 2-4c1.3-1.63 1.3-1.63 2.75-3.2l1.59-1.72L45 23.31l1.66-1.8C52.42 15.32 52.42 15.32 58 17"/><path fill="#f6f4e4" d="M99.43 68.58c4.76 2.03 7.84 5.33 10.5 9.72 2.45 6.18 1.93 12.8.07 19.08-3.2 4.2-7.23 8.24-12 10.62-8 .84-14.7.96-21.22-4.14a26 26 0 0 1-7.05-18.67c.6-4.9 2.6-8.67 6.25-12 7.35-5.6 14.23-6.81 23.45-4.61"/><path fill="#f1efe5" d="M54 20c4.16 3.45 8.04 6.94 11.62 11l2.3 2.59q2.55 2.95 5.02 5.97C75 42 75 42 77 43l1-4a40 40 0 0 1 9 9v2a93 93 0 0 1-9-4l-2 2-6-5.88-1.73-1.68A149 149 0 0 1 64 36v-2l-2.25-.38A24 24 0 0 1 55 31c-.83 3.12-1.05 4.83-.19 8 .19 3 .19 3-1.87 5.56C47.76 48.37 41.05 50.05 35 52l-2-4 4.88-2.5 2.74-1.41C43 43 43 43 45 43v-4l-2.44 1.81A35 35 0 0 1 30 46l-3-1a43 43 0 0 1 6-7c2.88.06 2.88.06 5 1l.8-1.77a26 26 0 0 1 4.46-5.9l1.89-2.01 1.97-2.07 2-2.11z"/><path fill="#0f192d" d="M105 67c5.09 3.06 8.12 7.42 10 13 .89 7.19 1.31 14.91-2.6 21.29-3.96 4.83-8.35 8.86-14.4 10.71-3.37.27-3.37.27-7 .25l-3.62.02c-3.27-.26-5.53-.65-8.38-2.27v-3l3.95.14 5.17.11 2.6.1c5.64.09 8.82-.56 13.28-4.35 4.75-4.61 6.18-8.64 6.38-15.19-.07-5.22-.48-8.93-3.63-13.16a27 27 0 0 0-16.19-7.27C87 67 87 67 85 65.44L84 64c7.74-2.58 13.95-.5 21 3"/><path fill="#0f1c2e" d="M102.22 77.98C104 79 104 79 104.97 80.83 105 83 105 83 103.6 84.86l-2.1 1.89a84 84 0 0 0-9.76 10.88C90 99 90 99 87.57 98.95c-3.03-1.12-4.67-2.48-6.94-4.76l-2.15-2.09C77 90 77 90 77.15 87.82c1.13-2.41 2.43-2.88 4.85-3.82l5 5c4.69-1.93 7.44-5.52 10.78-9.2C100 78 100 78 102.22 77.98"/><path fill="#edebde" d="m32 50-2.44 2.19C26.98 55.03 26.32 56.27 26 60c1-1 1-1 1.25-2.94C28 55 28 55 30.56 53.75L33 53v5l7 2-1 4h-5l-1 4c-5.86-.59-10.07-2.02-14.94-5.31C17 61 17 61 16.88 58.12c1.55-4.3 4.19-5.96 8.12-8.12 3.13-1.04 3.99-.93 7 0"/><path fill="#0d1827" d="M43 39h2v4c-1.64 1.2-1.64 1.2-3.81 2.12A45 45 0 0 0 34 49l2 2c2.38-.46 2.38-.46 5.12-1.38l2.76-.89L46 48c-1.4 4.32-2.1 5.07-6 8l19 4v1c-9.14-.85-9.14-.85-13.56-1.62L43 59l-1 1c-4.03.26-5.56.29-9-2-.19-2.62-.19-2.62 0-5l-5 3 1 5-4-1c.48-4.31 1.75-6.17 5-9l-4-5 3.21-1.02 4.17-1.36 2.11-.67c5.28-1.72 5.28-1.72 7.51-3.95"/><path fill="#1f232c" d="M43 39h2v4c-1.64 1.2-1.64 1.2-3.81 2.12A45 45 0 0 0 34 49l1 4-7 3 1 5-4-1c.48-4.31 1.75-6.17 5-9l-4-5 3.21-1.02 4.17-1.36 2.11-.67c5.28-1.72 5.28-1.72 7.51-3.95"/><path fill="#162134" d="M69 90c2.65 1.33 2.75 2.52 3.81 5.25A24.5 24.5 0 0 0 80 105l2 2h-3l-1 2-2.19-1.88c-2.81-2.12-2.81-2.12-5.5-3C68 103 68 103 66.69 99.88L66 97h2z"/><path fill="#101a2f" d="m46 25 1 3c-1.36 1.94-1.36 1.94-3.31 4A52 52 0 0 0 38 39c-3.12-.31-3.12-.31-6-1l1-3 5-2c2.24-1.95 2.24-1.95 4.31-4.12l2.12-2.2z"/><path fill="#ababa6" d="m33 63 9 1c1.12 4.75 1.12 4.75 0 7l-9-2z"/><path fill="#030f23" d="m101 65-1 2c-4.49 1.5-8.45.88-13 0-2-1.56-2-1.56-3-3 5.96-1.99 11.25-1.3 17 1"/><path fill="#040e1f" d="M112 76c2.57 2.61 3 3.95 3.29 7.67q-.03 2.04-.1 4.08l-.04 2.11q-.06 2.58-.15 5.14c-2.51-1.89-2.98-2.88-3.55-6.03l-.2-3.47-.23-3.47C111 79 111 79 112 76"/><path fill="#172334" d="m48.95 58.9 2.24.47 2.27.47Q56.24 60.4 59 61l-2 3c-2.9-.07-2.9-.07-6.38-.69l-3.46-.57A24 24 0 0 1 40 60c3.56-2.37 4.9-1.92 8.95-1.1"/><path fill="#030a19" d="m37 34-1.94.75L33 36l-.5 2.06L32 40l-1.75.38c-3.61 1-5.01 3.7-7.25 6.62 0-3.76 1.06-4.73 3.38-7.62l1.89-2.42C31.05 33.8 32.94 33.89 37 34"/><path fill="#050e1b" d="m79 107 7 1v2l12 1v1l-6.69.12-3.76.08c-3.38-.19-5.62-.51-8.55-2.2z"/><path fill="#81827f" d="m31 48 3 1c.69 2.06.69 2.06 1 4l-7 3 1 5-4-1c.49-4.38 1.83-6.03 5-9z"/></svg>