<?xml version="1.0" encoding="UTF-8"?>
<!-- Generator: visioncortex VTracer 0.6.12 -->
<svg version="1.1" xmlns="http://www.w3.org/2000/svg" width="128" height="128" viewBox="0 0 128 128" preserveAspectRatio="xMidYMid meet">
<path d="M0 0 C2.03 1.6 2.03 1.6 3.94 3.62 C4.28 3.98 4.28 3.98 6 5.8 C6.66 6.52 7.32 7.25 8 8 C8.3 8.33 8.3 8.33 9.85 10.02 C14 14.69 14 14.69 14 17 C14.66 17 15.32 17 16 17 C16 17.66 16 18.32 16 19 C16.5 18.82 16.5 18.82 19 17.94 C20.94 17.66 20.94 17.66 23 18 C26.19 20.57 28.52 23.77 31 27 C31.38 27.45 31.38 27.45 33.29 29.72 C39 36.57 39 36.57 39 40 C32.49 38.95 26.08 37.6 19.69 36 C19.02 35.83 18.35 35.67 17.66 35.5 C14.71 34.75 11.97 33.99 9.19 32.73 C4.27 31.6 0.12 32.99 -4.69 34.25 C-5.16 34.37 -5.16 34.37 -7.56 34.95 C-14.55 36.7 -14.55 36.7 -18 39 C-17.39 39.13 -16.77 39.25 -16.14 39.38 C-13.3 39.97 -10.46 40.58 -7.62 41.19 C-6.66 41.38 -5.69 41.58 -4.7 41.78 C3.19 43.5 11.4 45.84 17 52 C17.43 51.69 17.43 51.69 19.62 50.12 C25.18 46.63 30.42 45.05 37 46 C44.51 48.23 50.36 51.21 54.81 57.81 C58.42 64.72 58.25 73.05 56.37 80.5 C53.75 86.52 48.47 91.23 42.68 94.18 C39.36 95.2 36.47 95.23 33 95.19 C31.8 95.18 30.61 95.17 29.38 95.17 C26 95 26 95 23.63 94.49 C20.87 93.98 18.41 93.92 15.6 93.98 C15.07 93.99 15.07 93.99 12.41 94.04 C11.28 94.06 10.15 94.09 8.98 94.11 C6.57 94.15 4.16 94.18 1.76 94.21 C-2.03 94.25 -5.81 94.31 -9.6 94.4 C-13.26 94.48 -16.92 94.52 -20.58 94.55 C-21.14 94.57 -21.14 94.57 -23.99 94.65 C-30.47 94.68 -34.39 93.93 -39.39 89.68 C-43.3 85.59 -44.7 82.77 -45 77 C-43.98 71.77 -40.11 69.03 -36 66 C-33.1 64.35 -30.12 62.97 -27.06 61.62 C-26.28 61.27 -25.5 60.92 -24.7 60.55 C-22.81 59.69 -20.9 58.84 -19 58 C-19.27 57.92 -19.27 57.92 -20.63 57.54 C-23.12 56.84 -25.59 56.11 -28.06 55.38 C-28.91 55.14 -29.76 54.9 -30.63 54.66 C-36.34 52.94 -41.18 50.74 -45 46 C-45.69 42.07 -45.42 39.94 -43.81 36.31 C-42 34 -42 34 -39.64 32.21 C-36.8 29.83 -34.97 27.42 -32.88 24.38 C-30.66 21.16 -29.27 19.18 -26 17 C-25.15 17.04 -24.31 17.08 -23.44 17.12 C-22.63 17.08 -21.83 17.04 -21 17 C-20.29 15.69 -19.63 14.35 -19 13 C-17.7 11.37 -17.7 11.37 -16.25 9.8 C-15.99 9.52 -15.99 9.52 -14.66 8.08 C-14.11 7.49 -13.56 6.91 -13 6.31 C-12.45 5.72 -11.91 5.13 -11.34 4.51 C-5.58 -1.68 -5.58 -1.68 0 0 Z M5.44 73.5 C4.96 74 4.49 74.49 4 75 C4.75 76.94 4.75 76.94 6 79 C7.32 79.33 8.64 79.66 10 80 C9.34 77.36 8.68 74.72 8 72 C7 72 7 72 5.44 73.5 Z " fill="#0E192B" transform="translate(58,17)"/>
<path d="M0 0 C-0.4 0.36 -0.4 0.36 -2.44 2.19 C-5.02 5.03 -5.68 6.27 -6 10 C-5 9 -5 9 -4.75 7.06 C-4 5 -4 5 -1.44 3.75 C-0.63 3.5 0.17 3.26 1 3 C1 4.65 1 6.3 1 8 C2.69 8.42 4.39 8.85 6.08 9.27 C7.54 9.63 8.99 10 10.45 10.37 C13.78 11.2 17.11 12.02 20.45 12.79 C33.13 15.73 33.13 15.73 37 19 C38.41 22.49 38.62 24.5 37.17 28.02 C34.61 32.49 31.54 35.52 27.36 38.48 C26 40 26 40 25.58 42.48 C26 45 26 45 27.47 46.66 C28.14 47.12 28.81 47.59 29.5 48.06 C29.86 48.32 29.86 48.32 31.71 49.59 C34.4 51.24 37.14 52.62 40.04 53.85 C42.8 55.47 44.77 57.73 47 60 C40.21 60.2 33.41 60.34 26.61 60.44 C24.31 60.48 22 60.53 19.69 60.6 C-1.98 61.24 -1.98 61.24 -8.45 56.16 C-11.54 52.94 -13.8 50.17 -14.56 45.69 C-13.86 41.1 -12.61 40.3 -9.16 37.5 C-4.64 34.37 0.46 32.4 5.5 30.26 C6.32 29.89 7.14 29.53 7.99 29.15 C8.74 28.83 9.48 28.51 10.25 28.19 C12 27 12 27 12.75 24.87 C12.83 24.25 12.92 23.63 13 23 C8.18 20.8 3.62 19.33 -1.56 18.12 C-11.48 15.62 -11.48 15.62 -15 11 C-15.31 8 -15.31 8 -14 5 C-9.88 1.11 -5.71 -1.77 0 0 Z " fill="#E6E4D5" transform="translate(32,50)"/>
<path d="M0 0 C2.03 1.6 2.03 1.6 3.94 3.62 C4.28 3.98 4.28 3.98 6 5.8 C6.66 6.52 7.32 7.25 8 8 C8.3 8.33 8.3 8.33 9.85 10.02 C14 14.69 14 14.69 14 17 C14.66 17 15.32 17 16 17 C16 17.66 16 18.32 16 19 C16.5 18.82 16.5 18.82 19 17.94 C20.94 17.66 20.94 17.66 23 18 C26.19 20.57 28.52 23.77 31 27 C31.38 27.45 31.38 27.45 33.29 29.72 C39 36.57 39 36.57 39 40 C32.49 38.95 26.08 37.6 19.69 36 C19.02 35.83 18.35 35.67 17.66 35.5 C14.69 34.74 11.89 33.95 9.06 32.75 C4.75 31.69 1.52 32.74 -2.69 33.94 C-10.64 36.12 -10.64 36.12 -14 35 C-12.31 31.61 -11.12 30.07 -7.88 28 C-5 26 -5 26 -4.06 23.62 C-3.99 20.63 -4.39 17.93 -5 15 C-3.68 14.34 -2.36 13.68 -1 13 C-0.59 13.47 -0.17 13.95 0.25 14.44 C2 16 2 16 3.89 16.36 C6.67 17.2 7.62 18.52 9.44 20.75 C12.16 24.01 14.95 27.04 18 30 C18.56 29.59 19.11 29.17 19.69 28.75 C20.45 28.5 21.21 28.25 22 28 C24.62 29.81 24.62 29.81 27 32 C27.66 32.33 28.32 32.66 29 33 C26.36 29.7 23.72 26.4 21 23 C20.67 23.49 20.67 23.49 19 26 C15.38 24.5 13.37 22.44 10.81 19.5 C10.04 18.62 9.26 17.73 8.46 16.82 C7.65 15.89 6.84 14.96 6 14 C4.32 12.12 2.63 10.25 0.94 8.38 C-0.38 6.92 -1.69 5.46 -3 4 C-9.12 8.95 -16.43 14.87 -20 22 C-20.72 21.9 -21.44 21.79 -22.19 21.69 C-25.65 22.07 -26.12 22.9 -28.31 25.5 C-29.22 26.66 -30.12 27.82 -31 29 C-30.34 29.99 -29.68 30.98 -29 32 C-29.71 32.36 -30.42 32.73 -31.15 33.1 C-38.63 37.19 -38.63 37.19 -40.44 41.12 C-40 44 -40 44 -38.14 45.98 C-33.78 48.78 -29.29 49.85 -24.31 51.12 C-22.41 51.62 -20.51 52.12 -18.61 52.63 C-17.78 52.85 -16.94 53.06 -16.08 53.29 C-14 54 -14 54 -12 56 C-12.17 58 -12.17 58 -13 60 C-15.52 61.49 -17.91 62.73 -20.56 63.94 C-22.03 64.63 -23.49 65.33 -24.95 66.04 C-25.65 66.37 -26.35 66.71 -27.08 67.05 C-31.4 69.18 -35.57 71.57 -39 75 C-39.44 78.91 -39.47 81.21 -37.44 84.62 C-30.48 91.41 -26.19 92.74 -16.6 92.71 C-15.52 92.72 -14.44 92.74 -13.33 92.75 C-9.91 92.8 -6.49 92.8 -3.06 92.81 C-0.73 92.84 1.6 92.86 3.92 92.89 C9.62 92.95 15.31 92.99 21 93 C21 93.33 21 93.66 21 94 C13.46 94.15 5.91 94.26 -1.63 94.33 C-4.2 94.36 -6.76 94.4 -9.33 94.45 C-13.02 94.53 -16.71 94.56 -20.41 94.59 C-20.98 94.6 -20.98 94.6 -23.86 94.68 C-30.38 94.68 -34.37 93.96 -39.4 89.68 C-43.29 85.59 -44.7 82.77 -45 77 C-43.98 71.77 -40.11 69.03 -36 66 C-33.1 64.35 -30.12 62.97 -27.06 61.62 C-26.28 61.27 -25.5 60.92 -24.7 60.55 C-22.81 59.69 -20.9 58.84 -19 58 C-19.27 57.92 -19.27 57.92 -20.63 57.54 C-23.12 56.84 -25.59 56.11 -28.06 55.38 C-28.91 55.14 -29.76 54.9 -30.63 54.66 C-36.34 52.94 -41.18 50.74 -45 46 C-45.69 42.07 -45.42 39.94 -43.81 36.31 C-42 34 -42 34 -39.64 32.21 C-36.8 29.83 -34.97 27.42 -32.88 24.38 C-30.66 21.16 -29.27 19.18 -26 17 C-25.15 17.04 -24.31 17.08 -23.44 17.12 C-22.63 17.08 -21.83 17.04 -21 17 C-20.29 15.69 -19.63 14.35 -19 13 C-17.7 11.37 -17.7 11.37 -16.25 9.8 C-15.99 9.52 -15.99 9.52 -14.66 8.08 C-14.11 7.49 -13.56 6.91 -13 6.31 C-12.45 5.72 -11.91 5.13 -11.34 4.51 C-5.58 -1.68 -5.58 -1.68 0 0 Z " fill="#0A1629" transform="translate(58,17)"/>
<path d="M0 0 C4.76 2.03 7.84 5.33 10.51 9.72 C12.95 15.9 12.43 22.52 10.57 28.8 C7.37 33 3.34 37.04 -1.43 39.42 C-9.43 40.26 -16.13 40.38 -22.65 35.28 C-27.48 30.23 -29.84 23.55 -29.7 16.61 C-29.09 11.71 -27.09 7.94 -23.45 4.62 C-16.1 -0.98 -9.22 -2.2 0 0 Z " fill="#F6F4E4" transform="translate(99.42578125,68.578125)"/>
<path d="M0 0 C4.16 3.45 8.04 6.94 11.62 11 C12.38 11.85 13.14 12.71 13.92 13.59 C15.62 15.56 17.29 17.55 18.94 19.56 C21 22 21 22 23 23 C23.33 21.68 23.66 20.36 24 19 C27.57 21.68 30.41 24.36 33 28 C33 28.66 33 29.32 33 30 C29.92 28.8 26.94 27.52 24 26 C23.34 26.66 22.68 27.32 22 28 C19.99 26.05 18 24.09 16 22.12 C15.43 21.57 14.86 21.01 14.27 20.44 C12.81 19 11.4 17.5 10 16 C10 15.34 10 14.68 10 14 C9.26 13.88 8.52 13.75 7.75 13.62 C5.2 13.05 3.27 12.26 1 11 C0.17 14.12 -0.05 15.83 0.81 19 C1 22 1 22 -1.06 24.56 C-6.24 28.37 -12.95 30.05 -19 32 C-19.66 30.68 -20.32 29.36 -21 28 C-19.38 27.16 -17.75 26.33 -16.12 25.5 C-15.22 25.04 -14.32 24.57 -13.38 24.09 C-11 23 -11 23 -9 23 C-9 21.68 -9 20.36 -9 19 C-9.4 19.3 -9.4 19.3 -11.44 20.81 C-15.27 23.37 -19.48 25.08 -24 26 C-24.99 25.67 -25.98 25.34 -27 25 C-25.17 22.47 -23.33 20.09 -21 18 C-18.12 18.06 -18.12 18.06 -16 19 C-15.74 18.42 -15.47 17.83 -15.2 17.23 C-13.94 14.89 -12.57 13.25 -10.74 11.33 C-10.12 10.66 -9.49 10 -8.85 9.32 C-8.2 8.63 -7.55 7.95 -6.88 7.25 C-6.22 6.55 -5.56 5.86 -4.88 5.14 C-3.26 3.42 -1.63 1.71 0 0 Z " fill="#F1EFE5" transform="translate(54,20)"/>
<path d="M0 0 C5.09 3.06 8.12 7.42 10 13 C10.89 20.19 11.31 27.91 7.4 34.29 C3.44 39.12 -0.95 43.15 -7 45 C-10.37 45.27 -10.37 45.27 -14 45.25 C-15.2 45.26 -16.39 45.26 -17.62 45.27 C-20.89 45.01 -23.15 44.62 -26 43 C-26 42.01 -26 41.02 -26 40 C-24.7 40.05 -23.4 40.09 -22.05 40.14 C-20.33 40.18 -18.6 40.21 -16.88 40.25 C-16.45 40.27 -16.45 40.27 -14.28 40.35 C-8.64 40.44 -5.46 39.79 -1 36 C3.75 31.39 5.18 27.36 5.38 20.81 C5.31 15.59 4.9 11.88 1.75 7.65 C-2.76 3.39 -8.29 0.98 -14.44 0.38 C-18 0 -18 0 -20 -1.56 C-20.33 -2.04 -20.66 -2.51 -21 -3 C-13.26 -5.58 -7.05 -3.5 0 0 Z " fill="#0F192D" transform="translate(105,67)"/>
<path d="M0 0 C1.78 1.02 1.78 1.02 2.75 2.85 C2.78 5.02 2.78 5.02 1.38 6.88 C0.68 7.5 -0.01 8.13 -0.72 8.77 C-4.37 12.16 -7.46 15.69 -10.48 19.65 C-12.22 21.02 -12.22 21.02 -14.65 20.97 C-17.68 19.85 -19.32 18.49 -21.59 16.21 C-22.3 15.52 -23.01 14.83 -23.74 14.12 C-25.22 12.02 -25.22 12.02 -25.07 9.84 C-23.94 7.43 -22.64 6.96 -20.22 6.02 C-18.57 7.67 -16.92 9.32 -15.22 11.02 C-10.53 9.09 -7.78 5.5 -4.44 1.82 C-2.22 0.02 -2.22 0.02 0 0 Z " fill="#0F1C2E" transform="translate(102.21875,77.98046875)"/>
<path d="M0 0 C-0.4 0.36 -0.4 0.36 -2.44 2.19 C-5.02 5.03 -5.68 6.27 -6 10 C-5 9 -5 9 -4.75 7.06 C-4 5 -4 5 -1.44 3.75 C-0.63 3.5 0.17 3.26 1 3 C1 4.65 1 6.3 1 8 C3.31 8.66 5.62 9.32 8 10 C7.67 11.32 7.34 12.64 7 14 C5.35 14 3.7 14 2 14 C1.67 15.32 1.34 16.64 1 18 C-4.86 17.41 -9.07 15.98 -13.94 12.69 C-15 11 -15 11 -15.12 8.12 C-13.57 3.82 -10.93 2.16 -7 0 C-3.87 -1.04 -3.01 -0.93 0 0 Z " fill="#EDEBDE" transform="translate(32,50)"/>
<path d="M0 0 C0.66 0 1.32 0 2 0 C2 1.32 2 2.64 2 4 C0.36 5.2 0.36 5.2 -1.81 6.12 C-4.45 7.29 -6.57 8.38 -9 10 C-8.34 10.66 -7.68 11.32 -7 12 C-4.62 11.54 -4.62 11.54 -1.88 10.62 C-0.96 10.33 -0.05 10.03 0.88 9.73 C1.58 9.49 2.28 9.25 3 9 C1.6 13.32 0.9 14.07 -3 17 C3.27 18.32 9.54 19.64 16 21 C16 21.33 16 21.66 16 22 C6.86 21.15 6.86 21.15 2.44 20.38 C1.63 20.25 0.83 20.13 0 20 C-0.33 20.33 -0.66 20.66 -1 21 C-5.03 21.26 -6.56 21.29 -10 19 C-10.19 16.38 -10.19 16.38 -10 14 C-10.83 14.5 -10.83 14.5 -15 17 C-14.67 18.65 -14.34 20.3 -14 22 C-15.32 21.67 -16.64 21.34 -18 21 C-17.52 16.69 -16.25 14.83 -13 12 C-14.32 10.35 -15.64 8.7 -17 7 C-15.94 6.66 -14.88 6.32 -13.79 5.98 C-12.4 5.53 -11.01 5.08 -9.62 4.62 C-8.93 4.4 -8.23 4.18 -7.51 3.95 C-2.23 2.23 -2.23 2.23 0 0 Z " fill="#0D1827" transform="translate(43,39)"/>
<path d="M0 0 C0.66 0 1.32 0 2 0 C2 1.32 2 2.64 2 4 C0.36 5.2 0.36 5.2 -1.81 6.12 C-4.45 7.29 -6.57 8.38 -9 10 C-8.67 11.32 -8.34 12.64 -8 14 C-9.16 14.5 -9.16 14.5 -15 17 C-14.67 18.65 -14.34 20.3 -14 22 C-15.32 21.67 -16.64 21.34 -18 21 C-17.52 16.69 -16.25 14.83 -13 12 C-14.32 10.35 -15.64 8.7 -17 7 C-15.94 6.66 -14.88 6.32 -13.79 5.98 C-12.4 5.53 -11.01 5.08 -9.62 4.62 C-8.93 4.4 -8.23 4.18 -7.51 3.95 C-2.23 2.23 -2.23 2.23 0 0 Z " fill="#1F232C" transform="translate(43,39)"/>
<path d="M0 0 C2.65 1.33 2.75 2.52 3.81 5.25 C5.57 9.39 7.57 12.02 11 15 C11.66 15.66 12.32 16.32 13 17 C12.01 17 11.02 17 10 17 C9.67 17.66 9.34 18.32 9 19 C8.28 18.38 7.56 17.76 6.81 17.12 C4 15 4 15 1.31 14.12 C-1 13 -1 13 -2.31 9.88 C-2.54 8.93 -2.77 7.98 -3 7 C-2.34 7 -1.68 7 -1 7 C-0.67 4.69 -0.34 2.38 0 0 Z " fill="#162134" transform="translate(69,90)"/>
<path d="M0 0 C0.33 0.99 0.66 1.98 1 3 C-0.36 4.94 -0.36 4.94 -2.31 7 C-4.46 9.3 -6.25 11.37 -8 14 C-11.12 13.69 -11.12 13.69 -14 13 C-13.67 12.01 -13.34 11.02 -13 10 C-11.34 9.33 -9.67 8.66 -8 8 C-5.76 6.05 -5.76 6.05 -3.69 3.88 C-3.34 3.51 -3.34 3.51 -1.57 1.68 C-1.05 1.13 -0.54 0.57 0 0 Z " fill="#101A2F" transform="translate(46,25)"/>
<path d="M0 0 C2.97 0.33 5.94 0.66 9 1 C10.12 5.75 10.12 5.75 9 8 C7.52 7.67 7.52 7.67 0 6 C0 4.02 0 2.04 0 0 Z " fill="#ABABA6" transform="translate(33,63)"/>
<path d="M0 0 C-0.33 0.66 -0.66 1.32 -1 2 C-5.49 3.5 -9.45 2.88 -14 2 C-16 0.44 -16 0.44 -17 -1 C-11.04 -2.99 -5.75 -2.3 0 0 Z " fill="#030F23" transform="translate(101,65)"/>
<path d="M0 0 C2.57 2.61 3 3.95 3.29 7.67 C3.27 9.03 3.24 10.39 3.19 11.75 C3.17 12.45 3.16 13.14 3.15 13.86 C3.11 15.58 3.06 17.29 3 19 C0.49 17.11 0.02 16.12 -0.55 12.97 C-0.61 11.82 -0.68 10.68 -0.75 9.5 C-0.83 8.36 -0.9 7.21 -0.98 6.03 C-1 3 -1 3 0 0 Z " fill="#040E1F" transform="translate(112,76)"/>
<path d="M0 0 C0.74 0.16 1.48 0.32 2.24 0.48 C2.99 0.64 3.74 0.79 4.51 0.95 C6.36 1.32 8.2 1.71 10.05 2.11 C9.72 2.6 9.72 2.6 8.05 5.11 C5.15 5.04 5.15 5.04 1.67 4.42 C1.1 4.33 1.1 4.33 -1.79 3.85 C-4.5 3.21 -6.55 2.5 -8.95 1.11 C-5.39 -1.26 -4.05 -0.81 0 0 Z " fill="#172334" transform="translate(48.951171875,58.890625)"/>
<path d="M0 0 C-0.64 0.25 -1.28 0.49 -1.94 0.75 C-2.62 1.16 -3.3 1.58 -4 2 C-4.16 2.68 -4.33 3.36 -4.5 4.06 C-4.66 4.7 -4.83 5.34 -5 6 C-5.29 6.06 -5.29 6.06 -6.75 6.38 C-10.36 7.38 -11.76 10.08 -14 13 C-14 9.24 -12.94 8.27 -10.62 5.38 C-10 4.58 -9.37 3.78 -8.73 2.96 C-5.95 -0.2 -4.06 -0.11 0 0 Z " fill="#030A19" transform="translate(37,34)"/>
<path d="M0 0 C2.31 0.33 4.62 0.66 7 1 C7 1.66 7 2.32 7 3 C10.96 3.33 14.92 3.66 19 4 C19 4.33 19 4.66 19 5 C16.77 5.05 14.54 5.09 12.31 5.12 C11.69 5.14 11.69 5.14 8.55 5.2 C5.17 5.01 2.93 4.69 0 3 C0 2.01 0 1.02 0 0 Z " fill="#050E1B" transform="translate(79,107)"/>
<path d="M0 0 C0.99 0.33 1.98 0.66 3 1 C3.69 3.06 3.69 3.06 4 5 C2.84 5.49 2.84 5.49 -3 8 C-2.67 9.65 -2.34 11.3 -2 13 C-3.32 12.67 -4.64 12.34 -6 12 C-5.51 7.62 -4.17 5.97 -1 3 C-0.67 2.01 -0.34 1.02 0 0 Z " fill="#81827F" transform="translate(31,48)"/>
</svg>
