<?xml version="1.0" encoding="UTF-8"?>
<!-- Generator: visioncortex VTracer 0.6.12 -->
<svg version="1.1" xmlns="http://www.w3.org/2000/svg" width="128" height="128" viewBox="0 0 128 128" preserveAspectRatio="xMidYMid meet">
<path d="M0 0 C0.75 0.06 1.51 0.11 2.28 0.17 C5.42 1.08 6.53 2.19 8.5 4.81 C9.58 7.62 10.22 10.5 10.88 13.44 C11.08 14.3 11.28 15.17 11.49 16.07 C11.94 17.96 12.38 19.86 12.81 21.76 C13.53 24.94 14.27 28.11 15.01 31.28 C15.27 32.38 15.52 33.47 15.78 34.6 C16.3 36.82 16.82 39.04 17.35 41.26 C18.52 46.29 19.62 51.3 20.45 56.4 C20.53 56.82 20.53 56.82 20.9 58.94 C21.17 60.47 21.4 62.01 21.59 63.56 C21.96 65.59 21.96 65.59 23.5 68.81 C25.79 69.67 27.96 70.03 30.38 70.39 C32.5 70.81 32.5 70.81 34.49 72.57 C35.71 75.29 36.25 77.74 36.69 80.69 C36.85 81.7 37 82.7 37.17 83.74 C38.06 91.95 38.06 91.95 35.69 95.62 C32.16 99.15 29.06 98.95 24.29 99.01 C23.01 99.02 21.72 99.04 20.4 99.05 C19 99.07 17.6 99.08 16.2 99.09 C15.49 99.09 14.79 99.1 14.06 99.1 C10.32 99.13 6.57 99.15 2.83 99.16 C-0.26 99.18 -3.35 99.2 -6.44 99.24 C-10.18 99.29 -13.92 99.32 -17.66 99.33 C-19.08 99.33 -20.5 99.35 -21.92 99.37 C-34.42 99.57 -34.42 99.57 -38.38 96.44 C-41.45 92.64 -41.11 90.36 -40.82 85.67 C-39.63 75.13 -39.63 75.13 -36.31 71.25 C-32.84 69.48 -30.34 69.51 -26.5 69.81 C-26.37 68.66 -26.24 67.5 -26.11 66.31 C-25.58 62.11 -24.75 58.02 -23.79 53.9 C-23.63 53.17 -23.46 52.44 -23.29 51.69 C-22.94 50.15 -22.58 48.62 -22.23 47.08 C-21.69 44.78 -21.17 42.48 -20.65 40.18 C-12.56 4.87 -12.56 4.87 -8.5 0.81 C-5.57 -0.2 -3.07 -0.28 0 0 Z " fill="#081A2F" transform="translate(53.5,14.1875)"/>
<path d="M0 0 C0.33 0.99 0.66 1.98 1 3 C1.99 3 2.98 3 4 3 C4 4.32 4 5.64 4 7 C5.32 7.33 6.64 7.66 8 8 C8.33 7.01 8.66 6.02 9 5 C8.67 6.65 8.34 8.3 8 10 C6.35 9.34 4.7 8.68 3 8 C2.95 8.58 2.9 9.16 2.85 9.76 C2.78 10.54 2.7 11.32 2.62 12.12 C2.56 12.89 2.49 13.66 2.41 14.45 C2 17 2 17 1.02 19.88 C-0.42 24.27 -0.86 28.7 -1.44 33.27 C-1.62 34.17 -1.81 35.07 -2 36 C-2.33 36.16 -2.33 36.16 -4 37 C-4.7 40.41 -4.71 43.59 -4 47 C3.85 53.57 15.28 52.59 25 52 C29.88 51.05 33.86 49.76 38 47 C38.16 46.17 38.33 45.35 38.5 44.5 C38.66 43.67 38.83 42.85 39 42 C39.99 41.34 40.98 40.68 42 40 C42 39.01 42 38.02 42 37 C43.44 37.23 44.88 37.48 46.31 37.75 C47.11 37.89 47.91 38.03 48.74 38.17 C51.66 39.24 52.49 40.3 54 43 C54.73 45.8 54.73 45.8 55.19 48.88 C55.35 49.88 55.5 50.89 55.67 51.93 C56.56 60.14 56.56 60.14 54.19 63.81 C50.66 67.34 47.56 67.14 42.79 67.19 C41.51 67.21 40.22 67.22 38.9 67.24 C37.5 67.25 36.1 67.26 34.7 67.27 C33.99 67.28 33.29 67.28 32.56 67.29 C28.82 67.32 25.07 67.34 21.33 67.35 C18.24 67.36 15.15 67.39 12.06 67.43 C8.32 67.48 4.58 67.51 0.84 67.51 C-0.58 67.52 -2 67.54 -3.42 67.56 C-15.92 67.76 -15.92 67.76 -19.88 64.63 C-22.95 60.83 -22.61 58.55 -22.32 53.86 C-21.13 43.32 -21.13 43.32 -17.81 39.44 C-14.34 37.66 -11.84 37.7 -8 38 C-7.91 37 -7.82 36 -7.72 34.97 C-6.86 28.04 -5.06 21.28 -3.44 14.5 C-3.1 13.09 -2.77 11.68 -2.44 10.27 C-1.63 6.85 -0.82 3.42 0 0 Z " fill="#091527" transform="translate(35,46)"/>
<path d="M0 0 C2.5 2.18 3.84 3.83 4.21 7.17 C4.19 16.16 3.23 24.89 1.97 33.77 C1.62 36.21 1.3 38.65 0.98 41.09 C0.76 42.65 0.54 44.22 0.32 45.78 C0.23 46.5 0.14 47.22 0.04 47.97 C-0.58 52.15 -1.43 55.34 -4.06 58.69 C-7.85 59.81 -10.12 60 -13.88 58.75 C-19.51 53.44 -19.02 42.32 -19.92 34.96 C-20.19 32.82 -20.46 30.69 -20.74 28.55 C-23.16 9.4 -23.16 9.4 -20.88 3.75 C-15.44 -2.44 -7.47 -3.2 0 0 Z " fill="#0D192A" transform="translate(111.0625,21.3125)"/>
<path d="M0 0 C1.61 0.23 3.21 0.48 4.81 0.75 C5.71 0.89 6.6 1.03 7.52 1.17 C10.63 2.21 11.44 3.14 13 6 C13.73 8.8 13.73 8.8 14.19 11.88 C14.35 12.88 14.5 13.89 14.67 14.93 C15.56 23.14 15.56 23.14 13.19 26.81 C9.66 30.34 6.56 30.14 1.77 30.18 C0.49 30.19 -0.8 30.2 -2.12 30.22 C-3.53 30.22 -4.93 30.23 -6.34 30.24 C-6.69 30.24 -6.69 30.24 -8.48 30.25 C-12.23 30.27 -15.98 30.29 -19.72 30.3 C-23.59 30.31 -27.45 30.34 -31.32 30.38 C-34.3 30.41 -37.27 30.41 -40.25 30.42 C-41.68 30.42 -43.1 30.43 -44.53 30.45 C-46.52 30.48 -48.52 30.47 -50.51 30.47 C-51.65 30.48 -52.78 30.48 -53.95 30.49 C-57.68 29.89 -59.35 28.65 -62 26 C-62.56 23.46 -62.56 23.46 -62.44 20.81 C-62.42 19.93 -62.39 19.05 -62.37 18.14 C-62.25 17.44 -62.13 16.73 -62 16 C-61.34 15.67 -60.68 15.34 -60 15 C-60 16.65 -60 18.3 -60 20 C-53.31 22.46 -46.83 22.29 -39.77 22.27 C-38.5 22.27 -37.23 22.27 -35.93 22.27 C-33.26 22.27 -30.58 22.27 -27.91 22.26 C-24.49 22.25 -21.07 22.26 -17.65 22.27 C-14.38 22.28 -11.11 22.27 -7.83 22.27 C-7.22 22.27 -7.22 22.27 -4.12 22.28 C-2.98 22.27 -1.84 22.27 -0.67 22.26 C0.33 22.26 1.33 22.26 2.36 22.25 C5.1 21.99 6.75 21.58 9 20 C9.39 16.96 9.39 16.96 9.25 13.38 C9.21 12.19 9.18 11 9.14 9.77 C9.09 8.86 9.05 7.94 9 7 C6.69 6.34 4.38 5.68 2 5 C2.08 6.07 2.17 7.14 2.25 8.25 C2 12 2 12 0.38 14.38 C-2.44 16.3 -4.63 16.69 -8 17 C-7.34 16.67 -6.68 16.34 -6 16 C-4.77 13.32 -3.9 10.64 -3.06 7.81 C-2 5 -2 5 1 3 C0.84 2.5 0.84 2.5 0 0 Z " fill="#03142A" transform="translate(76,83)"/>
<path d="M0 0 C2 2 2 2 2.24 4.36 C2.16 12.02 1.56 19.52 0.62 27.12 C0.5 28.23 0.37 29.33 0.24 30.46 C-0.14 33.65 -0.56 36.82 -1 40 C-1.12 40.99 -1.25 41.98 -1.37 43 C-1.51 43.9 -1.65 44.81 -1.79 45.74 C-1.9 46.54 -2.01 47.34 -2.13 48.17 C-3 50 -3 50 -5.45 50.89 C-5.87 50.91 -5.87 50.91 -8 51 C-10.32 48.68 -10.3 48.07 -10.56 44.92 C-10.64 44.1 -10.71 43.27 -10.79 42.42 C-10.86 41.54 -10.93 40.66 -11 39.75 C-11.54 33.63 -12.16 27.57 -13.12 21.5 C-14.02 15.43 -14.91 9.11 -14 3 C-10.19 -2.06 -5.58 -0.97 0 0 Z " fill="#F5F4E5" transform="translate(108,25)"/>
<path d="M0 0 C0.78 0.04 1.57 0.08 2.38 0.12 C2.35 1.05 2.33 1.98 2.31 2.94 C2.38 6.12 2.38 6.12 3.38 9.12 C5.31 10.12 5.31 10.12 8.38 11.12 C9 11.39 9.62 11.65 10.26 11.91 C22.16 16.36 36.06 15.28 47.91 11.29 C50.35 10.14 51.76 9.28 53.38 7.12 C54.06 3.44 54.06 3.44 54.38 0.12 C59.12 1 59.12 1 61.38 2.12 C61.96 4.96 61.96 4.96 62.31 8.5 C62.45 9.66 62.58 10.83 62.71 12.02 C62.6 13.05 62.49 14.07 62.38 15.12 C58.78 17.9 56.06 18.5 51.58 18.51 C51.01 18.52 51.01 18.52 48.12 18.54 C46.9 18.54 45.67 18.53 44.41 18.52 C43.14 18.53 41.88 18.53 40.57 18.53 C37.9 18.53 35.22 18.53 32.55 18.52 C29.13 18.5 25.71 18.51 22.3 18.53 C19.02 18.54 15.75 18.53 12.47 18.52 C11.25 18.53 10.03 18.54 8.77 18.54 C-1.7 18.46 -1.7 18.46 -6.62 15.12 C-6.34 13 -6.05 10.87 -5.75 8.75 C-5.59 7.57 -5.43 6.38 -5.26 5.16 C-4.47 1.4 -3.95 0.19 0 0 Z " fill="#F2F1E5" transform="translate(23.625,87.875)"/>
<path d="M0 0 C0.68 0.2 1.35 0.41 2.05 0.62 C2.94 0.89 3.83 1.16 4.75 1.44 C5.63 1.7 6.51 1.97 7.42 2.25 C8.27 2.49 9.12 2.74 10 3 C10.64 3.19 11.27 3.38 11.93 3.58 C22.05 5.64 31.51 3.53 41 0 C41.44 1.6 41.85 3.2 42.25 4.81 C42.37 5.26 42.37 5.26 42.95 7.52 C42.97 8.34 42.98 9.16 43 10 C37.48 15.64 28.89 16.21 21.44 16.31 C14.09 16.14 8.14 15.3 1.38 12.5 C-1 10 -1 10 -1.14 7.52 C-0.9 4.96 -0.53 2.51 0 0 Z " fill="#F3F1E1" transform="translate(31,83)"/>
<path d="M0 0 C0.82 0.33 1.65 0.65 2.5 0.99 C6.43 2.12 10.01 2.26 14.06 2.19 C14.41 2.19 14.41 2.19 16.17 2.19 C19.89 2.15 23.37 1.88 27 1 C28.52 4.93 29.91 8.65 30.19 12.88 C28.6 15.71 26.68 16.54 23.64 17.5 C14.69 19.2 6.37 18.46 -2 15 C-1.86 13.25 -1.71 11.5 -1.56 9.75 C-1.48 8.78 -1.4 7.8 -1.32 6.8 C-1.05 4.44 -0.65 2.28 0 0 Z " fill="#F2F0E0" transform="translate(38,54)"/>
<path d="M0 0 C3.09 1.92 5.38 3.42 6.74 6.9 C7.49 10.86 7.15 12.69 5.31 16.38 C2.26 19.84 0.67 20.78 -3.88 21.38 C-7.84 20.9 -9.9 19.47 -13 17 C-15.51 13.23 -15.53 11.47 -15 7 C-13.25 3.92 -10.91 1.67 -8.06 -0.44 C-4.97 -1.28 -3.07 -0.92 0 0 Z " fill="#081326" transform="translate(106,83)"/>
<path d="M0 0 C1.48 -0.05 2.96 -0.09 4.44 -0.12 C5.26 -0.15 6.08 -0.17 6.93 -0.2 C7.62 -0.13 8.3 -0.07 9 0 C9.33 0.66 9.66 1.32 10 2 C9.34 2.33 9.34 2.33 6 4 C7.32 3.67 8.64 3.34 10 3 C12.1 8.69 13.45 13.95 14 20 C8.32 22.61 3.01 22.01 -3 21 C-3.33 20.67 -3.66 20.34 -4 20 C-3.95 12.93 -2.57 6.55 0 0 Z " fill="#EFEFE0" transform="translate(47,19)"/>
<path d="M0 0 C4.75 0.88 4.75 0.88 7 2 C7.59 4.84 7.59 4.84 7.94 8.38 C8 8.96 8 8.96 8.34 11.9 C8.23 12.92 8.12 13.95 8 15 C4.37 17.82 1.64 18.37 -2.89 18.34 C-4.05 18.34 -5.21 18.34 -6.41 18.34 C-7.65 18.32 -8.9 18.31 -10.18 18.29 C-10.82 18.29 -10.82 18.29 -14.06 18.28 C-17.45 18.27 -20.84 18.24 -24.23 18.21 C-27.7 18.18 -31.16 18.16 -34.63 18.15 C-41.42 18.11 -48.21 18.06 -55 18 C-55 17.67 -55 17.34 -55 17 C-41.8 16.67 -28.6 16.34 -15 16 C-15.66 15.34 -16.32 14.68 -17 14 C-16.1 13.75 -15.19 13.49 -14.26 13.23 C-13.08 12.89 -11.9 12.54 -10.69 12.19 C-9.52 11.85 -8.34 11.51 -7.14 11.17 C-4.21 10.08 -2.78 9.52 -1 7 C-0.31 3.31 -0.31 3.31 0 0 Z " fill="#D7D7CD" transform="translate(78,88)"/>
<path d="M0 0 C0.33 0 0.66 0 1 0 C1 1.65 1 3.3 1 5 C1.66 5 2.32 5 3 5 C3.33 4.34 3.66 3.68 4 3 C4.29 3.31 4.29 3.31 5.75 4.88 C12.36 11.12 21.57 10.27 30.18 10.23 C35.39 9.91 40.08 8.72 45 7 C44.67 8.32 44.34 9.64 44 11 C43.34 11 42.68 11 42 11 C42 11.66 42 12.32 42 13 C36.45 14.86 31.52 15.35 25.69 15.31 C24.85 15.31 24.01 15.31 23.15 15.3 C15.1 15.16 7.6 13.95 1 9 C-1.15 5.78 -1.29 4.72 -1 1 C-0.67 0.67 -0.34 0.34 0 0 Z " fill="#162031" transform="translate(26,88)"/>
<path d="M0 0 C0.66 0.33 1.32 0.66 2 1 C2.27 1.83 2.54 2.65 2.81 3.5 C3.01 3.91 3.01 3.91 4 6 C6.62 6.81 6.62 6.81 9 7 C8.01 7.33 7.02 7.66 6 8 C6 10.64 6 13.28 6 16 C5.34 16 4.68 16 4 16 C3.67 17.65 3.34 19.3 3 21 C1.68 20.67 0.36 20.34 -1 20 C-1 18.68 -1 17.36 -1 16 C-1.99 16 -2.98 16 -4 16 C-4.46 9.5 -3.33 5.58 0 0 Z " fill="#182333" transform="translate(40,33)"/>
<path d="M0 0 C2 2 2 2 2.31 4.94 C2 8 2 8 0.94 9.88 C-2.07 11.62 -4.61 11.31 -8 11 C-10 9 -10 9 -10.31 5.56 C-10 2 -10 2 -8.94 0 C-5.81 -1.62 -3.33 -0.79 0 0 Z " fill="#EFEEE2" transform="translate(106,88)"/>
<path d="M0 0 C0.56 0.02 0.56 0.02 3.38 0.12 C3.05 1.12 2.72 2.11 2.38 3.12 C3.7 3.45 5.02 3.79 6.38 4.12 C5.12 4.09 3.86 4.06 2.56 4.03 C0.35 4.3 0.35 4.3 -1.62 5.12 C-3.43 8.11 -3.98 11.29 -4.62 14.69 C-4.83 15.59 -5.03 16.49 -5.24 17.42 C-5.73 19.65 -6.19 21.88 -6.62 24.12 C-6.95 24.12 -7.28 24.12 -7.62 24.12 C-7.62 22.48 -7.62 20.83 -7.62 19.12 C-8.62 20.12 -8.62 20.12 -9.62 23.12 C-10.28 22.8 -10.95 22.47 -11.62 22.12 C-5.85 0.2 -5.85 0.2 0 0 Z " fill="#081226" transform="translate(48.625,14.875)"/>
<path d="M0 0 C1.94 0.25 1.94 0.25 4 1 C5.09 4.03 5.13 6.93 5.12 10.12 C5.13 10.99 5.13 11.86 5.13 12.76 C5 15 5 15 4 17 C3.6 22.73 4.18 28.34 5 34 C4.67 34.16 4.67 34.16 3 35 C2.49 30.48 2 25.96 1.5 21.44 C1.36 20.16 1.21 18.88 1.07 17.57 C0.93 16.33 0.8 15.09 0.66 13.81 C0.53 12.67 0.4 11.54 0.28 10.36 C-0.01 6.89 -0.05 3.48 0 0 Z " fill="#020E1D" transform="translate(89,28)"/>
<path d="M0 0 C2.01 0.72 2.01 0.72 4 2 C4.21 4.09 4.21 4.09 3.81 6.5 C3.7 7.29 3.58 8.09 3.46 8.91 C3 11 3 11 2 13 C0.35 12.67 -1.3 12.34 -3 12 C-2.69 10.37 -2.38 8.75 -2.06 7.12 C-1.89 6.22 -1.71 5.32 -1.54 4.38 C-1 2 -1 2 0 0 Z " fill="#E6E5E0" transform="translate(35,70)"/>
<path d="M0 0 C1.32 0.33 2.64 0.66 4 1 C3.86 2.6 3.71 4.21 3.56 5.81 C3.48 6.71 3.4 7.6 3.32 8.52 C3 11 3 11 2 14 C0.68 13.67 -0.64 13.34 -2 13 C-1.34 8.71 -0.68 4.42 0 0 Z " fill="#E7E7E6" transform="translate(41,40)"/>
<path d="M0 0 C0 0.99 0 1.98 0 3 C0.16 3.58 0.33 4.16 0.5 4.75 C1.2 7.9 1.18 10.79 1 14 C0.67 14.5 0.67 14.5 -1 17 C-1.33 15.68 -1.66 14.36 -2 13 C-2.33 15.97 -2.66 18.94 -3 22 C-3.33 22 -3.66 22 -4 22 C-4.23 15.2 -4.31 8.5 -2 2 C-1.34 1.34 -0.68 0.68 0 0 Z " fill="#040C19" transform="translate(17,86)"/>
<path d="M0 0 C0.66 0 1.32 0 2 0 C2.33 0.99 2.66 1.98 3 3 C3.66 2.34 4.32 1.68 5 1 C4.67 3.64 4.34 6.28 4 9 C2.35 9.33 0.7 9.66 -1 10 C-0.67 6.7 -0.34 3.4 0 0 Z " fill="#121F31" transform="translate(105,69)"/>
</svg>
