<?xml version="1.0" encoding="UTF-8"?>
<!-- Generator: visioncortex VTracer 0.6.12 -->
<svg version="1.1" xmlns="http://www.w3.org/2000/svg" width="128" height="128" viewBox="0 0 128 128" preserveAspectRatio="xMidYMid meet">
<path d="M0 0 C5.64 2.92 5.64 2.92 7 7 C7.89 7 8.77 7 9.69 6.99 C18.03 6.97 26.38 6.96 34.72 6.95 C39.01 6.94 43.3 6.94 47.59 6.92 C51.73 6.91 55.86 6.91 60 6.91 C61.58 6.9 63.16 6.9 64.75 6.89 C66.95 6.89 69.16 6.89 71.37 6.89 C72.63 6.88 73.89 6.88 75.18 6.88 C78 7 78 7 79 8 C79.13 10.68 79.19 13.32 79.19 16 C79.2 16.75 79.21 17.5 79.22 18.27 C79.23 20.18 79.12 22.09 79 24 C76.12 25.44 73.65 25.12 70.44 25.11 C69.77 25.11 69.09 25.11 68.4 25.11 C66.17 25.11 63.94 25.11 61.71 25.1 C60.17 25.1 58.62 25.09 57.08 25.09 C53.01 25.09 48.94 25.08 44.88 25.07 C40.73 25.06 36.58 25.05 32.43 25.05 C24.29 25.04 16.14 25.02 8 25 C8 34.24 8 43.48 8 53 C8.99 53.16 8.99 53.16 14 54 C14.03 55.98 14.05 57.96 14.06 59.94 C14.07 61.04 14.09 62.14 14.1 63.28 C14 66 14 66 13 67 C10.43 67.11 7.89 67.16 5.32 67.17 C4.93 67.17 4.93 67.17 2.98 67.18 C1.35 67.18 -0.29 67.19 -1.92 67.19 C-4.42 67.19 -6.93 67.21 -9.43 67.22 C-11.02 67.23 -12.6 67.23 -14.18 67.23 C-14.94 67.24 -15.69 67.24 -16.46 67.25 C-21.77 67.23 -21.77 67.23 -24 65 C-24.08 62.94 -24.08 62.94 -23.81 60.56 C-23.77 60.17 -23.77 60.17 -23.58 58.19 C-22.9 55.61 -22.14 54.59 -20 53 C-19.01 53 -18.02 53 -17 53 C-17.01 52.44 -17.02 51.87 -17.03 51.29 C-17.14 45.42 -17.22 39.55 -17.27 33.68 C-17.3 31.49 -17.33 29.3 -17.38 27.11 C-17.44 23.95 -17.47 20.8 -17.49 17.65 C-17.51 16.67 -17.54 15.7 -17.57 14.69 C-17.57 10.21 -17.51 7 -14.66 3.4 C-10.27 -0.56 -5.67 -0.72 0 0 Z " fill="#08172C" transform="translate(36,27)"/>
<path d="M0 0 C3.48 2.29 6.58 4.98 8.56 8.69 C8.37 12.86 6.85 14.88 4 17.81 C0.56 21.37 0.56 21.37 0.56 24.69 C2.28 26.63 2.28 26.63 4.5 28.69 C8.46 32.37 8.46 32.37 9.56 35.69 C7.52 40.25 4.62 42.93 0.56 45.69 C-3.85 45.48 -5.8 43.78 -8.75 40.62 C-9.45 39.89 -10.14 39.16 -10.86 38.4 C-11.38 37.84 -11.9 37.27 -12.44 36.69 C-16.46 38.43 -18.7 40.98 -21.56 44.23 C-23.44 45.69 -23.44 45.69 -25.89 46.12 C-30.74 45.29 -33.63 41.52 -36.44 37.69 C-36.94 34.69 -36.94 34.69 -35.44 31.69 C-32.94 28.83 -30.26 26.22 -27.44 23.69 C-28.84 20.44 -30.48 18.57 -33.12 16.25 C-36.39 13.03 -36.39 13.03 -36.81 10.19 C-34.73 6.39 -32.03 3.14 -28.44 0.69 C-26 0.21 -26 0.21 -23.44 0.69 C-20.98 2.66 -20.98 2.66 -18.62 5.19 C-17.83 6.02 -17.04 6.86 -16.23 7.72 C-15.64 8.37 -15.05 9.02 -14.44 9.69 C-14.21 9.49 -14.21 9.49 -13.08 8.52 C-11.83 7.44 -10.57 6.36 -9.31 5.3 C-7.77 3.97 -6.28 2.59 -4.81 1.19 C-2.44 -0.31 -2.44 -0.31 0 0 Z " fill="#F2F1E1" transform="translate(92.4375,55.3125)"/>
<path d="M0 0 C3.48 2.29 6.58 4.98 8.56 8.69 C8.37 12.86 6.85 14.88 4 17.81 C0.56 21.37 0.56 21.37 0.56 24.69 C2.28 26.63 2.28 26.63 4.5 28.69 C8.46 32.37 8.46 32.37 9.56 35.69 C7.52 40.25 4.62 42.93 0.56 45.69 C-3.85 45.48 -5.8 43.78 -8.75 40.62 C-9.45 39.89 -10.14 39.16 -10.86 38.4 C-11.38 37.84 -11.9 37.27 -12.44 36.69 C-16.46 38.43 -18.7 40.98 -21.56 44.23 C-23.44 45.69 -23.44 45.69 -25.89 46.12 C-30.74 45.29 -33.63 41.52 -36.44 37.69 C-36.94 34.69 -36.94 34.69 -35.44 31.69 C-32.94 28.83 -30.26 26.22 -27.44 23.69 C-28.84 20.44 -30.48 18.57 -33.12 16.25 C-36.39 13.03 -36.39 13.03 -36.81 10.19 C-34.73 6.39 -32.03 3.14 -28.44 0.69 C-26 0.21 -26 0.21 -23.44 0.69 C-20.98 2.66 -20.98 2.66 -18.62 5.19 C-17.83 6.02 -17.04 6.86 -16.23 7.72 C-15.64 8.37 -15.05 9.02 -14.44 9.69 C-14.21 9.49 -14.21 9.49 -13.08 8.52 C-11.83 7.44 -10.57 6.36 -9.31 5.3 C-7.77 3.97 -6.28 2.59 -4.81 1.19 C-2.44 -0.31 -2.44 -0.31 0 0 Z M-30.12 7.19 C-30.89 8.01 -31.65 8.84 -32.44 9.69 C-30.59 14.07 -27.5 16.57 -24.02 19.69 C-22.44 21.69 -22.44 21.69 -22.41 23.64 C-23.82 26.46 -25.73 28.26 -28 30.44 C-28.83 31.24 -29.65 32.04 -30.5 32.86 C-31.14 33.46 -31.78 34.07 -32.44 34.69 C-31.08 37.55 -29.79 39.55 -27.44 41.69 C-23.76 40.15 -21.45 37.91 -18.69 35.06 C-17.89 34.25 -17.09 33.43 -16.27 32.59 C-15.66 31.96 -15.06 31.33 -14.44 30.69 C-10.25 34.2 -6.24 37.77 -2.44 41.69 C0.45 40.39 2.43 39.03 4.56 36.69 C2.66 32.23 -0.58 29.31 -3.95 25.91 C-4.2 25.54 -4.2 25.54 -5.44 23.69 C-4.54 20.14 -1.89 17.93 0.69 15.44 C1.41 14.73 2.14 14.02 2.88 13.3 C3.44 12.77 3.99 12.23 4.56 11.69 C3.2 8.83 1.92 6.83 -0.44 4.69 C-5.45 6.81 -9.43 10.18 -12.44 14.69 C-16.79 12.84 -19.37 9.79 -22.54 6.37 C-25.8 3.48 -27.08 4.35 -30.12 7.19 Z " fill="#081226" transform="translate(92.4375,55.3125)"/>
<path d="M0 0 C0.33 0 0.66 0 1 0 C1 3.63 1 7.26 1 11 C4.63 11 8.26 11 12 11 C12.99 7.37 13.98 3.74 15 0 C15.66 0.33 16.32 0.66 17 1 C17.24 2.94 17.24 2.94 17.23 5.52 C17.23 6.48 17.23 7.44 17.23 8.43 C17.22 9.48 17.21 10.52 17.2 11.6 C17.19 12.66 17.19 13.73 17.19 14.82 C17.18 18.24 17.15 21.65 17.12 25.06 C17.11 27.37 17.11 29.68 17.1 31.99 C17.08 37.66 17.04 43.33 17 49 C11.39 49 5.78 49 0 49 C0 32.83 0 16.66 0 0 Z " fill="#F5F3E3" transform="translate(23,35)"/>
<path d="M0 0 C23.43 0 46.86 0 71 0 C71 5 71 5 69.54 6.7 C69.22 6.93 69.22 6.93 67.62 8.12 C65.09 10.06 63.82 11.26 62 14 C59.84 14.29 59.84 14.29 57.38 14.19 C56.56 14.16 55.74 14.13 54.9 14.11 C54.27 14.07 53.65 14.04 53 14 C53 14.99 53 15.98 53 17 C47.06 17 41.12 17 35 17 C34 12 34 12 35 9.58 C35.26 9.19 35.26 9.19 36.56 7.25 C37.06 6.47 37.56 5.69 38.07 4.89 C40 3 40 3 46 2 C30.82 1.67 15.64 1.34 0 1 C0 0.67 0 0.34 0 0 Z " fill="#111F30" transform="translate(43,34)"/>
<path d="M0 0 C0 17.16 0 34.32 0 52 C7.26 52.33 14.52 52.66 22 53 C22 53.33 22 53.66 22 54 C12.1 54 2.2 54 -8 54 C-8 54.99 -8 55.98 -8 57 C2.23 57 12.46 57 23 57 C23.66 54.03 24.32 51.06 25 48 C25.33 48 25.66 48 26 48 C26.03 49.98 26.05 51.96 26.06 53.94 C26.07 55.04 26.09 56.14 26.1 57.28 C26 60 26 60 25 61 C22.43 61.11 19.89 61.16 17.32 61.17 C16.93 61.17 16.93 61.17 14.98 61.18 C13.35 61.18 11.71 61.19 10.08 61.19 C7.58 61.19 5.07 61.21 2.57 61.22 C0.98 61.23 -0.6 61.23 -2.18 61.23 C-2.94 61.24 -3.69 61.24 -4.46 61.25 C-9.77 61.23 -9.77 61.23 -12 59 C-12.08 56.94 -12.08 56.94 -11.81 54.56 C-11.77 54.17 -11.77 54.17 -11.58 52.19 C-10.9 49.61 -10.14 48.59 -8 47 C-7.01 47 -6.02 47 -5 47 C-5 31.82 -5 16.64 -5 1 C-2 0 -2 0 0 0 Z " fill="#000C1D" transform="translate(24,33)"/>
<path d="M0 0 C8.91 0 17.82 0 27 0 C26.67 0.66 26.34 1.32 26 2 C25.52 1.97 25.52 1.97 23.06 1.81 C22.05 1.87 21.04 1.94 20 2 C18.88 4.13 18.88 4.13 18 7 C16.7 9.02 15.38 11.03 14 13 C16.97 13 19.94 13 23 13 C23 13.33 23 13.66 23 14 C20.36 14 17.72 14 15 14 C15 14.66 15 15.32 15 16 C20.94 16 26.88 16 33 16 C33 15.01 33 14.02 33 13 C33.59 12.99 34.18 12.97 34.79 12.96 C39.18 12.69 41.39 12.5 44.88 9.62 C45.23 9.19 45.23 9.19 47 7 C47.56 6.48 48.11 5.97 48.69 5.44 C50.21 3.77 51.02 2.03 52 0 C52.05 2.65 52.09 5.29 52.12 7.94 C52.14 8.69 52.16 9.45 52.18 10.22 C52.19 12.15 52.1 14.08 52 16 C49.12 17.44 46.65 17.12 43.44 17.11 C42.77 17.11 42.09 17.11 41.4 17.11 C39.17 17.11 36.94 17.11 34.71 17.1 C33.17 17.1 31.62 17.09 30.08 17.09 C26.01 17.09 21.94 17.08 17.88 17.07 C13.73 17.06 9.58 17.05 5.43 17.05 C-2.71 17.04 -10.86 17.02 -19 17 C-19 26.24 -19 35.48 -19 45 C-17.68 45.33 -16.36 45.66 -15 46 C-16.65 46 -18.3 46 -20 46 C-20 36.1 -20 26.2 -20 16 C-16.53 15.84 -16.53 15.84 1 15 C0.01 14.84 0.01 14.84 -5 14 C-5 13.67 -5 13.34 -5 13 C-4.43 13.04 -3.86 13.09 -3.28 13.13 C-0.56 13.12 1.43 12.92 4 12 C6.86 8.96 8.95 5.62 11 2 C7.37 2 3.74 2 0 2 C0 1.34 0 0.68 0 0 Z " fill="#010A1C" transform="translate(63,35)"/>
<path d="M0 0 C8.91 0 17.82 0 27 0 C26.67 0.66 26.34 1.32 26 2 C25.52 1.97 25.52 1.97 23.06 1.81 C22.05 1.87 21.04 1.94 20 2 C18.88 4.12 18.88 4.12 18 7 C16.7 9.02 15.38 11.03 14 13 C16.97 13 19.94 13 23 13 C23 13.33 23 13.66 23 14 C20.36 14 17.72 14 15 14 C15 14.66 15 15.32 15 16 C10.38 16 5.76 16 1 16 C1 15.67 1 15.34 1 15 C0.01 14.84 0.01 14.84 -5 14 C-5 13.67 -5 13.34 -5 13 C-4.43 13.04 -3.86 13.09 -3.28 13.13 C-0.56 13.12 1.43 12.92 4 12 C6.86 8.96 8.95 5.62 11 2 C7.37 2 3.74 2 0 2 C0 1.34 0 0.68 0 0 Z " fill="#05162B" transform="translate(63,35)"/>
<path d="M0 0 C0.77 -0.02 1.55 -0.04 2.34 -0.06 C4.5 0.44 4.5 0.44 6.36 2.11 C7.91 5.28 7.3 6.8 6.25 10.12 C5.96 11.1 5.66 12.07 5.36 13.07 C4.5 15.44 4.5 15.44 3.5 16.44 C-0.38 16.58 -3.76 16.48 -7.5 15.44 C-7.58 13.5 -7.64 11.56 -7.69 9.62 C-7.72 8.55 -7.76 7.47 -7.79 6.36 C-7.5 3.44 -7.5 3.44 -6.27 1.58 C-4.05 0.15 -2.63 0 0 0 Z " fill="#F0EFE3" transform="translate(31.5,30.5625)"/>
<path d="M0 0 C0.66 0 1.32 0 2 0 C1.67 16.83 1.34 33.66 1 51 C-2.38 46.5 -2.38 46.5 -2.37 42.45 C-2.38 41.55 -2.38 40.66 -2.39 39.74 C-2.38 38.78 -2.37 37.82 -2.36 36.84 C-2.36 35.85 -2.36 34.86 -2.36 33.84 C-2.36 31.75 -2.35 29.67 -2.34 27.58 C-2.31 24.38 -2.32 21.18 -2.32 17.98 C-2.32 15.95 -2.31 13.92 -2.3 11.9 C-2.3 10.94 -2.3 9.98 -2.3 8.98 C-2.29 8.1 -2.28 7.21 -2.27 6.29 C-2.27 5.51 -2.27 4.73 -2.26 3.92 C-2 2 -2 2 0 0 Z " fill="#0B1830" transform="translate(22,33)"/>
<path d="M0 0 C0.68 0.06 1.35 0.12 2.05 0.18 C1.07 1.66 0.09 3.13 -0.89 4.61 C-1.44 5.44 -1.98 6.26 -2.54 7.11 C-3.95 9.18 -3.95 9.18 -4.95 10.18 C-6.47 10.25 -7.99 10.26 -9.52 10.24 C-10.34 10.23 -11.17 10.22 -12.02 10.21 C-12.66 10.2 -13.3 10.19 -13.95 10.18 C-11.16 2.02 -8.57 -0.43 0 0 Z " fill="#ECEBE0" transform="translate(90.953125,37.82421875)"/>
<path d="M0 0 C1.42 0.08 2.84 0.18 4.25 0.31 C2.87 4.34 1.44 7.45 -1.75 10.31 C-4.79 10.73 -7.7 10.61 -10.75 10.31 C-8.68 4.27 -6.86 0 0 0 Z " fill="#EDECE0" transform="translate(68.75,37.6875)"/>
<path d="M0 0 C3.06 0.31 3.06 0.31 5 1.44 C6.6 4.26 5.86 6.26 5.06 9.31 C4.06 10.31 4.06 10.31 0.62 10.56 C-0.55 10.48 -1.73 10.4 -2.94 10.31 C-5.09 7.09 -5.32 6.05 -4.94 2.31 C-2.94 0.31 -2.94 0.31 0 0 Z " fill="#414855" transform="translate(30.9375,36.6875)"/>
<path d="M0 0 C10.23 0 20.46 0 31 0 C31 0.99 31 1.98 31 3 C20.77 3 10.54 3 0 3 C0 2.01 0 1.02 0 0 Z " fill="#D3D4CD" transform="translate(16,87)"/>
<path d="M0 0 C1.42 0.08 2.84 0.18 4.25 0.31 C3.44 1.79 2.63 3.27 1.81 4.75 C1.36 5.57 0.91 6.4 0.44 7.25 C-0.75 9.31 -0.75 9.31 -1.75 10.31 C-3.27 10.38 -4.79 10.4 -6.31 10.38 C-7.14 10.37 -7.97 10.36 -8.82 10.35 C-9.45 10.34 -10.09 10.32 -10.75 10.31 C-8.68 4.27 -6.86 0 0 0 Z " fill="#EBEADE" transform="translate(106.75,37.6875)"/>
<path d="M0 0 C3.3 0 6.6 0 10 0 C8.63 3.99 6.95 6.96 4 10 C2.68 10 1.36 10 0 10 C0 6.7 0 3.4 0 0 Z " fill="#EEEDE2" transform="translate(44,38)"/>
<path d="M0 0 C0.33 0.99 0.66 1.98 1 3 C11.23 3 21.46 3 32 3 C32 3.33 32 3.66 32 4 C26.06 4.33 20.12 4.66 14 5 C14 5.33 14 5.66 14 6 C9.38 6 4.76 6 0 6 C0 4.02 0 2.04 0 0 Z " fill="#132435" transform="translate(14,87)"/>
<path d="M0 0 C0.66 0.33 1.32 0.66 2 1 C1.12 6.88 1.12 6.88 0 8 C-2.33 8.04 -4.67 8.04 -7 8 C-6.67 6.68 -6.34 5.36 -6 4 C-5.01 4 -4.02 4 -3 4 C-2.34 3.01 -1.68 2.02 -1 1 C-0.67 0.67 -0.34 0.34 0 0 Z " fill="#131C2C" transform="translate(35,39)"/>
</svg>
