<svg xmlns="http://www.w3.org/2000/svg" width="128" height="128" viewBox="0 0 128 128"><path fill="#08172c" d="M36 27c5.64 2.92 5.64 2.92 7 7l2.69-.01 25.03-.04 12.87-.03L96 33.91l4.75-.02h6.62l3.81-.01C114 34 114 34 115 35q.2 4 .19 8l.03 2.27A84 84 0 0 1 115 51c-2.88 1.44-5.35 1.12-8.56 1.11h-2.04l-6.69-.01-4.63-.01-12.2-.02-12.45-.02L44 52v28l6 1 .06 5.94.04 3.34C50 93 50 93 49 94q-3.84.16-7.68.17l-2.34.01-4.9.01-7.51.03-4.75.01-2.28.02c-5.31-.02-5.31-.02-7.54-2.25-.08-2.06-.08-2.06.19-4.44l.23-2.37c.68-2.58 1.44-3.6 3.58-5.19h3a2779 2779 0 0 1-.27-19.32q-.04-3.29-.11-6.57a748 748 0 0 1-.11-9.46l-.08-2.96c0-4.48.06-7.69 2.91-11.29 4.39-3.96 8.99-4.12 14.66-3.4"/><path fill="#f2f1e1" d="M92.44 55.31c3.48 2.3 6.58 4.98 8.56 8.7-.2 4.16-1.71 6.18-4.56 9.11C93 76.68 93 76.68 93 80a39 39 0 0 0 3.94 4c3.96 3.68 3.96 3.68 5.06 7-2.04 4.56-4.94 7.24-9 10-4.41-.2-6.36-1.9-9.31-5.07l-2.11-2.22-1.58-1.7c-4.02 1.73-6.26 4.28-9.12 7.53C69 101 69 101 66.55 101.44 61.7 100.6 58.8 96.83 56 93c-.5-3-.5-3 1-6a93 93 0 0 1 8-8c-1.4-3.25-3.04-5.12-5.68-7.44-3.27-3.22-3.27-3.22-3.7-6.06A27 27 0 0 1 64 56c2.44-.48 2.44-.48 5 0a30 30 0 0 1 4.82 4.5l2.39 2.53L78 65l1.36-1.17q1.87-1.62 3.77-3.22 2.3-2 4.5-4.1C90 55 90 55 92.43 55.3"/><path fill="#081226" d="M92.44 55.31c3.48 2.3 6.58 4.98 8.56 8.7-.2 4.16-1.71 6.18-4.56 9.11C93 76.68 93 76.68 93 80a39 39 0 0 0 3.94 4c3.96 3.68 3.96 3.68 5.06 7-2.04 4.56-4.94 7.24-9 10-4.41-.2-6.36-1.9-9.31-5.07l-2.11-2.22-1.58-1.7c-4.02 1.73-6.26 4.28-9.12 7.53C69 101 69 101 66.55 101.44 61.7 100.6 58.8 96.83 56 93c-.5-3-.5-3 1-6a93 93 0 0 1 8-8c-1.4-3.25-3.04-5.12-5.68-7.44-3.27-3.22-3.27-3.22-3.7-6.06A27 27 0 0 1 64 56c2.44-.48 2.44-.48 5 0a30 30 0 0 1 4.82 4.5l2.39 2.53L78 65l1.36-1.17q1.87-1.62 3.77-3.22 2.3-2 4.5-4.1C90 55 90 55 92.43 55.3m-30.12 7.2Q61.17 63.71 60 65c1.85 4.37 4.94 6.87 8.42 10 1.58 2 1.58 2 1.6 3.94-1.4 2.82-3.31 4.62-5.58 6.8l-2.5 2.42L60 90a20 20 0 0 0 5 7c3.68-1.54 5.99-3.78 8.75-6.63q1.2-1.2 2.42-2.47L78 86c4.19 3.51 8.2 7.08 12 11a19.4 19.4 0 0 0 7-5c-1.9-4.46-5.14-7.38-8.51-10.78L86.99 79c.9-3.55 3.56-5.76 6.14-8.25l2.19-2.14q.82-.8 1.68-1.6c-1.36-2.87-2.64-4.87-5-7a26.7 26.7 0 0 0-12 10c-4.35-1.86-6.93-4.9-10.1-8.33-3.26-2.89-4.54-2.02-7.58.82"/><path fill="#f5f3e3" d="M23 35h1v11h11l3-11 2 1c.24 1.94.24 1.94.23 4.52v2.91l-.03 3.17-.01 3.22q-.02 5.13-.07 10.24l-.02 6.93L40 84H23z"/><path fill="#111f30" d="M43 34h71c0 5 0 5-1.46 6.7l-1.92 1.42A21 21 0 0 0 105 48c-2.16.29-2.16.29-4.62.19l-2.48-.08L96 48v3H78c-1-5-1-5 0-7.42l1.56-2.33 1.51-2.36C83 37 83 37 89 36l-46-1z"/><path fill="#000c1d" d="M24 33v52l22 1v1H16v3h31l2-9h1l.06 5.94.04 3.34C50 93 50 93 49 94q-3.84.16-7.68.17l-2.34.01-4.9.01-7.51.03-4.75.01-2.28.02c-5.31-.02-5.31-.02-7.54-2.25-.08-2.06-.08-2.06.19-4.44l.23-2.37c.68-2.58 1.44-3.6 3.58-5.19h3V34c3-1 3-1 5-1"/><path fill="#010a1c" d="M63 35h27l-1 2-2.94-.19L83 37c-1.12 2.13-1.12 2.13-2 5q-1.94 3.04-4 6h9v1h-8v2h18v-3l1.79-.04c4.39-.27 6.6-.46 10.09-3.34L110 42l1.69-1.56c1.52-1.67 2.33-3.41 3.31-5.44l.12 7.94.06 2.28c.01 1.93-.08 3.86-.18 5.78-2.88 1.44-5.35 1.12-8.56 1.11h-2.04l-6.69-.01-4.63-.01-12.2-.02-12.45-.02L44 52v28l4 1h-5V51l21-1-6-1v-1l1.72.13c2.72-.01 4.71-.21 7.28-1.13 2.86-3.04 4.95-6.38 7-10H63z"/><path fill="#05162b" d="M63 35h27l-1 2-2.94-.19L83 37c-1.12 2.12-1.12 2.12-2 5q-1.94 3.04-4 6h9v1h-8v2H64v-1l-6-1v-1l1.72.13c2.72-.01 4.71-.21 7.28-1.13 2.86-3.04 4.95-6.38 7-10H63z"/><path fill="#f0efe3" d="m31.5 30.56 2.34-.06c2.16.5 2.16.5 4.02 2.17 1.55 3.17.94 4.7-.11 8.01l-.89 2.95C36 46 36 46 35 47c-3.88.14-7.26.04-11-1q-.12-2.91-.19-5.82l-.1-3.26C24 34 24 34 25.23 32.14c2.22-1.43 3.64-1.58 6.27-1.58"/><path fill="#0b1830" d="M22 33h2l-1 51c-3.38-4.5-3.38-4.5-3.37-8.55l-.02-2.71.03-2.9v-3l.02-6.26q.03-4.8.02-9.6l.02-6.08v-2.92l.03-2.69.01-2.37C20 35 20 35 22 33"/><path fill="#ecebe0" d="M90.95 37.82 93 38l-2.94 4.43-1.65 2.5C87.01 47 87.01 47 86.01 48q-2.29.1-4.58.06l-2.5-.03L77 48c2.8-8.16 5.38-10.6 13.95-10.18"/><path fill="#edece0" d="M68.75 37.69q2.13.12 4.25.3c-1.38 4.04-2.81 7.15-6 10-3.04.43-5.95.3-9 0 2.07-6.03 3.89-10.3 10.75-10.3"/><path fill="#414855" d="M30.94 36.69c3.06.3 3.06.3 5 1.44 1.6 2.82.86 4.82.06 7.87-1 1-1 1-4.44 1.25L28 47c-2.15-3.22-2.38-4.26-2-8 2-2 2-2 4.94-2.31"/><path fill="#d3d4cd" d="M16 87h31v3H16z"/><path fill="#ebeade" d="M106.75 37.69q2.13.12 4.25.3l-2.44 4.45-1.37 2.5C106 47 106 47 105 48q-2.28.1-4.56.07l-2.51-.03L96 48c2.07-6.04 3.89-10.31 10.75-10.31"/><path fill="#eeede2" d="M44 38h10a25 25 0 0 1-6 10h-4z"/><path fill="#132435" d="m14 87 1 3h31v1l-18 1v1H14z"/><path fill="#131c2c" d="m35 39 2 1c-.88 5.88-.88 5.88-2 7q-3.5.06-7 0l1-4h3l2-3z"/></svg>