<?xml version="1.0" encoding="UTF-8"?>
<!-- Generator: visioncortex VTracer 0.6.12 -->
<svg version="1.1" xmlns="http://www.w3.org/2000/svg" width="128" height="128" viewBox="0 0 128 128" preserveAspectRatio="xMidYMid meet">
<path d="M0 0 C1.35 2.71 1.07 5.01 1 8 C-0.32 8 -1.64 8 -3 8 C-3 6.68 -3 5.36 -3 4 C-4.1 4.6 -5.2 5.19 -6.33 5.8 C-11.29 8.29 -16.4 9.7 -21.75 11.12 C-23.6 11.62 -25.45 12.13 -27.3 12.63 C-28.1 12.85 -28.91 13.06 -29.75 13.29 C-31.98 13.99 -33.94 14.9 -36 16 C-32.75 18.17 -30.82 18.54 -27 19.15 C-25.8 19.35 -24.6 19.55 -23.37 19.76 C-20.87 20.16 -18.36 20.57 -15.86 20.97 C-3.52 23.04 8.71 25.33 17 35.44 C18.35 38.9 18.45 41.31 18 45 C14.92 50.54 14.92 50.54 12 52 C9.91 52.09 7.81 52.12 5.71 52.11 C5.07 52.11 4.43 52.11 3.76 52.11 C1.63 52.11 -0.5 52.11 -2.63 52.1 C-4.11 52.1 -5.59 52.09 -7.06 52.09 C-10.95 52.09 -14.84 52.08 -18.73 52.07 C-22.7 52.06 -26.67 52.05 -30.64 52.05 C-38.42 52.04 -46.21 52.02 -54 52 C-52.73 48.19 -51.44 47.85 -48 45.94 C-43.1 43.2 -43.1 43.2 -42 41 C-42.91 40.71 -43.81 40.42 -44.75 40.12 C-62.95 33.99 -62.95 33.99 -68 26 C-69.33 21.61 -69.48 18.09 -67.62 13.88 C-58.24 3.6 -45.68 -1.46 -31.88 -2.88 C-31.24 -2.9 -31.24 -2.9 -28 -3 C-28 -2.34 -28 -1.68 -28 -1 C-23.04 -1.65 -18.21 -2.57 -13.33 -3.7 C-8.48 -4.33 -4.33 -2.04 0 0 Z " fill="#E0DFD2" transform="translate(83,63)"/>
<path d="M0 0 C0 0.66 0 1.32 0 2 C0.66 2.66 1.32 3.32 2 4 C0.83 4.23 -0.34 4.46 -1.55 4.7 C-28.47 10.2 -28.47 10.2 -35 20 C-35.5 23.38 -35.5 23.38 -35 27 C-30.93 31.75 -25.73 33.54 -19.99 35.8 C-10.32 39.68 -10.32 39.68 -8 42 C-7.69 44.36 -7.69 44.36 -8 47 C-9.75 48.8 -9.75 48.8 -12 50.31 C-12.74 50.82 -13.48 51.34 -14.25 51.86 C-14.83 52.24 -15.41 52.61 -16 53 C-8.67 53.13 -1.34 53.21 6 53.27 C8.49 53.3 10.99 53.33 13.48 53.38 C17.07 53.44 20.65 53.47 24.23 53.49 C24.79 53.5 24.79 53.5 27.62 53.57 C35.36 53.57 35.36 53.57 38.7 50.6 C40.74 46.53 40.65 44.54 40 40 C31.49 31.81 18.77 30.09 7.56 28.38 C5.12 28 2.69 27.61 0.25 27.21 C-0.28 27.13 -0.28 27.13 -2.95 26.72 C-6.3 25.93 -8.99 24.64 -12 23 C-11.67 21.35 -11.34 19.7 -11 18 C-10.42 18.31 -9.85 18.62 -9.26 18.94 C-7.1 19.95 -5.22 20.52 -2.89 21.01 C-2.5 21.09 -2.5 21.09 -0.51 21.51 C2.87 22.17 6.26 22.79 9.65 23.39 C36.66 28.27 36.66 28.27 45 38.44 C46.35 41.9 46.45 44.31 46 48 C42.92 53.54 42.92 53.54 40 55 C37.91 55.09 35.81 55.12 33.71 55.11 C33.07 55.11 32.43 55.11 31.76 55.11 C29.63 55.11 27.5 55.11 25.37 55.1 C23.89 55.1 22.41 55.09 20.94 55.09 C17.05 55.09 13.16 55.08 9.27 55.07 C5.3 55.06 1.33 55.05 -2.64 55.05 C-10.42 55.04 -18.21 55.02 -26 55 C-24.73 51.19 -23.44 50.85 -20 48.94 C-15.1 46.2 -15.1 46.2 -14 44 C-14.91 43.71 -15.81 43.42 -16.75 43.12 C-34.95 36.99 -34.95 36.99 -40 29 C-41.33 24.61 -41.48 21.09 -39.62 16.88 C-29.94 6.26 -14.59 -0.42 0 0 Z " fill="#0E182A" transform="translate(55,60)"/>
<path d="M0 0 C0.99 0.33 1.98 0.66 3 1 C4.17 3.55 4.17 3.55 5.19 6.75 C5.53 7.8 5.88 8.84 6.23 9.92 C6.94 12.77 7.16 15.08 7 18 C7.33 18.05 7.33 18.05 8.98 18.33 C14.07 19.26 18.55 20.19 23 23 C23 23.66 23 24.32 23 25 C20.71 25.84 18.42 26.67 16.12 27.5 C15.47 27.74 14.82 27.98 14.15 28.22 C9.23 30 9.23 30 7 30 C6.92 30.93 6.84 31.86 6.75 32.81 C6.02 38.13 3.93 43.03 2 48 C1.34 48 0.68 48 0 48 C-2.33 42.02 -4.43 36.42 -5 30 C-5.71 29.88 -6.41 29.76 -7.14 29.63 C-10.16 28.97 -12.92 28.02 -15.81 26.94 C-16.79 26.58 -17.76 26.21 -18.77 25.84 C-19.51 25.56 -20.24 25.29 -21 25 C-21 24.01 -21 23.02 -21 22 C-20.48 21.88 -20.48 21.88 -17.82 21.26 C-6.94 18.4 -6.94 18.4 -4.44 14.69 C-3.75 12.12 -3.36 9.63 -3 7 C-2.19 4.8 -2.19 4.8 -1.31 2.88 C-1.1 2.4 -1.1 2.4 0 0 Z " fill="#0C162A" transform="translate(83,13)"/>
<path d="M0 0 C0 0.66 0 1.32 0 2 C0.66 2.66 1.32 3.32 2 4 C0.83 4.23 -0.34 4.46 -1.55 4.7 C-28.47 10.2 -28.47 10.2 -35 20 C-35.5 23.38 -35.5 23.38 -35 27 C-30.14 32.69 -22.74 35.09 -16 38 C-16.33 39.32 -16.66 40.64 -17 42 C-25.36 40.22 -32.89 37.66 -38.69 31.08 C-40.9 27.57 -41.21 24.09 -41 20 C-38.19 13.62 -32.29 8.8 -25.91 6.12 C-8.8 -0.25 -8.8 -0.25 0 0 Z " fill="#091325" transform="translate(55,60)"/>
<path d="M0 0 C1.35 2.71 1.07 5.01 1 8 C-0.32 8 -1.64 8 -3 8 C-3 6.68 -3 5.36 -3 4 C-3.55 4.3 -3.55 4.3 -6.31 5.81 C-13.44 9.35 -21.12 12.3 -29 10 C-30.94 8.56 -30.94 8.56 -32 7 C-32 6.34 -32 5.68 -32 5 C-31.29 4.81 -30.58 4.61 -29.85 4.41 C-28.93 4.15 -28.01 3.89 -27.06 3.62 C-26.6 3.5 -26.6 3.5 -24.29 2.85 C-22 2 -22 2 -21 0 C-21.99 -0.33 -22.98 -0.66 -24 -1 C-21.92 -1.53 -19.84 -2.05 -17.75 -2.56 C-16.59 -2.85 -15.43 -3.14 -14.23 -3.44 C-8.77 -4.39 -4.96 -2.34 0 0 Z " fill="#A8A8A0" transform="translate(83,63)"/>
<path d="M0 0 C-1.65 1.65 -3.3 3.3 -5 5 C-4.37 5.14 -3.75 5.27 -3.1 5.41 C-0.56 6.08 1.67 6.78 4 8 C5.8 11.96 6 14.66 6 19 C6.66 19 7.32 19 8 19 C8.33 17.02 8.66 15.04 9 13 C9.66 13.33 10.32 13.66 11 14 C11.66 13.34 12.32 12.68 13 12 C12.35 18 10.14 23.4 8 29 C7.34 29 6.68 29 6 29 C3.67 23.02 1.57 17.42 1 11 C0.29 10.88 -0.41 10.76 -1.14 10.63 C-4.16 9.97 -6.92 9.02 -9.81 7.94 C-10.79 7.58 -11.76 7.21 -12.77 6.84 C-13.51 6.56 -14.24 6.29 -15 6 C-15 5.01 -15 4.02 -15 3 C-12.88 2.3 -10.75 1.62 -8.62 0.94 C-8.03 0.75 -8.03 0.75 -5.04 -0.22 C-2 -1 -2 -1 0 0 Z " fill="#071123" transform="translate(77,32)"/>
<path d="M0 0 C0.66 0 1.32 0 2 0 C2.04 0.7 2.08 1.4 2.12 2.12 C2.45 5.01 2.82 7.34 4 10 C6.93 11.52 9.73 11.85 13 12 C12.67 12.66 12.34 13.32 12 14 C11.44 14.07 11.44 14.07 8.62 14.44 C5 16 5 16 3.87 18.57 C3.13 21.37 2.5 24.15 2 27 C1.34 27 0.68 27 0 27 C-0.04 26.23 -0.08 25.46 -0.12 24.66 C-0.45 21.53 -0.82 18.92 -2 16 C-4.42 14.73 -6.29 14.46 -9 14.25 C-9.66 14.16 -10.32 14.08 -11 14 C-11.33 13.34 -11.66 12.68 -12 12 C-11.3 11.97 -10.6 11.94 -9.88 11.91 C-6.95 11.61 -4.68 11.26 -2 10 C-0.46 6.73 -0.15 3.58 0 0 Z " fill="#E9E8DE" transform="translate(83,24)"/>
<path d="M0 0 C5.75 1.75 5.75 1.75 8 4 C8 5.65 8 7.3 8 9 C5.36 10.98 2.72 12.96 0 15 C16.83 15.33 33.66 15.66 51 16 C51 16.33 51 16.66 51 17 C30.87 17 10.74 17 -10 17 C-8.73 13.19 -7.44 12.85 -4 10.94 C0.9 8.2 0.9 8.2 2 6 C1.01 5.34 0.02 4.68 -1 4 C-0.67 2.68 -0.34 1.36 0 0 Z " fill="#272F3B" transform="translate(39,98)"/>
<path d="M0 0 C1.65 0.33 3.3 0.66 5 1 C4.67 3.97 4.34 6.94 4 10 C1.62 10.62 1.62 10.62 -1 11 C-1.66 10.34 -2.32 9.68 -3 9 C-2.56 5.83 -1.23 2.94 0 0 Z " fill="#B7B7B2" transform="translate(108,36)"/>
<path d="M0 0 C0.69 3.56 0.69 3.56 1 7 C-2.66 7.75 -5.42 8.24 -9 7 C-8.69 6.4 -8.38 5.8 -8.06 5.19 C-7 3 -7 3 -6 0 C-3 -1 -3 -1 0 0 Z " fill="#B6B7B0" transform="translate(106,51)"/>
<path d="M0 0 C0.66 0.33 1.32 0.66 2 1 C2.49 5.13 2.19 7.58 0.44 11.38 C-2.63 14.67 -4.59 14.83 -9 15 C-7.38 12.96 -5.71 10.96 -4 9 C-3.34 9 -2.68 9 -2 9 C-1.34 6.03 -0.68 3.06 0 0 Z " fill="#04101F" transform="translate(99,100)"/>
<path d="M0 0 C3.42 1.14 4.15 2 6 5 C6 5.99 6 6.98 6 8 C4.35 8.33 2.7 8.66 1 9 C-2 4.38 -2 4.38 -2 1 C-1.34 0.67 -0.68 0.34 0 0 Z " fill="#A4A59D" transform="translate(58,46)"/>
<path d="M0 0 C2.14 -0.01 2.14 -0.01 4.81 0.31 C5.25 0.36 5.25 0.36 7.46 0.61 C9.69 0.95 11.82 1.41 14 2 C13.67 2.99 13.34 3.98 13 5 C8.03 4.59 3.55 4.2 -1 2 C-0.67 1.34 -0.34 0.68 0 0 Z " fill="#232736" transform="translate(46,91)"/>
<path d="M0 0 C0.66 0.33 1.32 0.66 2 1 C2 2.32 2 3.64 2 5 C-1.12 7.4 -4.19 7.17 -8 7 C-6.88 3.65 -6.49 3.38 -3.56 1.75 C-2.39 1.17 -1.21 0.59 0 0 Z " fill="#040E1A" transform="translate(37,108)"/>
<path d="M0 0 C-0.96 1.13 -1.92 2.25 -2.88 3.38 C-3.41 4 -3.94 4.63 -4.49 5.27 C-5.61 6.56 -6.79 7.79 -8 9 C-8.62 6.19 -8.62 6.19 -9 3 C-7 0 -7 0 -5.06 -0.75 C-3 -1 -3 -1 0 0 Z " fill="#131E33" transform="translate(95,39)"/>
<path d="M0 0 C0.33 0.99 0.66 1.98 1 3 C-2.23 5.15 -3.28 5.2 -7 5 C-6.69 2.56 -6.69 2.56 -6 0 C-3 -1 -3 -1 0 0 Z " fill="#A5A6A0" transform="translate(95,60)"/>
<path d="M0 0 C0.83 0.16 0.83 0.16 5 1 C5 2.65 5 4.3 5 6 C3.06 6.56 3.06 6.56 1 7 C0 6 0 6 -0.06 2.94 C-0.04 1.97 -0.02 1 0 0 Z " fill="#9FA09B" transform="translate(54,36)"/>
</svg>
