<svg xmlns="http://www.w3.org/2000/svg" width="128" height="128" viewBox="0 0 128 128">
  <path fill="#0e1530" fill-rule="evenodd" d="M83 14 79 29 76 32 62 36 76 41 79 44 79 47 83 59 84 59 89 42 104 37 104 36 91 32 89 30 85 16zM53 61 47 61 29 67 25 70 23 70 15 79 14 82 15 87 21 94 29 98 37 100 42 104 39 108 29 113 37 113 45 109 50 104 46 99 40 96 32 94 24 91 18 85 18 81 27 72 42 66 53 63zM83 22 85 23 87 33 97 36 95 38 87 40 84 51 82 50 80 40 70 37 71 35 77 34 80 32zM43 79 44 83 76 89 91 95 96 100 97 103 95 109 91 113 95 113 98 110 100 102 98 98 92 92 75 86 48 82 45 79zM45 92 47 93 55 94 56 95 58 95 59 94 58 93 56 93 55 92 51 92 50 91 46 91zM73 107 69 107 63 112 62 112 68 112zM65 97 67 99 68 99 70 101 70 102 74 102 74 101 71 98 67 96zM45 71 41 71 35 74 37 75 43 72 45 72zM62 67 61 66 59 66 58 67 51 68 51 69 52 70 53 69 56 69 57 68 60 68zM31 77 30 77 28 79 28 83 30 83 31 82 30 81 32 78zM31 87 38 90 40 89 34 86 32 86zM75 63 71 63 67 65 68 66 69 65 75 64z"/>
  <path fill="#fcf9e4" fill-rule="evenodd" d="M81 63 72 60 44 66 28 72 20 79 19 85 23 90 33 95 43 98 49 102 49 106 44 111 38 113 61 113 60 112 69 105 73 105 74 108 68 113 90 113 95 106 95 101 90 96 73 90 45 85 41 81 46 76 73 68 78 65 81 66 82 70zM83 25 81 33 78 35 72 36 79 38 81 40 83 48 84 48 86 39 94 36 88 35 85 32 84 25zM44 91 48 89 49 90 52 90 53 91 57 91 61 94 59 96 54 96 53 95 49 95 48 94 46 94 44 92zM63 97 65 95 68 95 72 97 75 100 75 103 74 104 70 104 69 102zM63 66 63 67 61 69 55 70 54 71 51 71 49 69 50 67 56 66 57 65 60 65 61 64zM47 71 46 73 39 75 36 77 34 75 34 73 35 72 42 70 43 69 45 69zM30 86 33 84 36 86 40 87 41 89 39 91 36 91 35 90 33 90 30 87zM77 63 77 64 74 66 71 66 70 67 67 67 66 66 66 64 69 62 72 62 74 61zM32 76 34 78 32 80 32 83 31 84 28 84 26 82 26 80 30 76zM108 37 108 40 106 44 107 45 110 45 110 43 111 42 111 37zM104 51 101 52 98 57 100 57 101 56 104 57 105 56 104 54zM58 47 57 49 58 51 60 53 61 53 62 52 59 47zM93 60 89 61 89 64 90 63 92 63 93 62zM56 37 54 38 55 39 54 40 55 41 57 40 57 38z"/>
  <path fill="#9aa3b2" d="M108 36 113 37 112 43 110 45 107 45 106 43zM104 51 107 50 109 53 106 57 102 56zM56 37 60 37 61 42 56 43 54 41zM93 60 97 58 99 61 95 64 91 64z"/>
</svg>
