<svg xmlns="http://www.w3.org/2000/svg" width="128" height="128" viewBox="0 0 128 128"><path fill="#e0dfd2" d="M83 63c1.35 2.71 1.07 5.01 1 8h-4v-4l-3.33 1.8c-4.96 2.49-10.07 3.9-15.42 5.32l-5.55 1.51-2.45.66c-2.23.7-4.19 1.61-6.25 2.71 3.25 2.17 5.18 2.54 9 3.15l3.63.61 7.51 1.21c12.34 2.07 24.57 4.36 32.86 14.47 1.35 3.46 1.45 5.87 1 9.56-3.08 5.54-3.08 5.54-6 7q-3.14.13-6.29.11h-1.95l-6.39-.01-4.43-.01-11.67-.02-11.91-.02L29 115c1.27-3.81 2.56-4.15 6-6.06 4.9-2.74 4.9-2.74 6-4.94l-2.75-.88C20.05 96.99 20.05 96.99 15 89c-1.33-4.39-1.48-7.91.38-12.12 9.38-10.28 21.94-15.34 35.74-16.76L55 60v2c4.96-.65 9.79-1.57 14.67-2.7 4.85-.63 9 1.66 13.33 3.7"/><path fill="#0e182a" d="M55 60v2l2 2-3.55.7C26.53 70.2 26.53 70.2 20 80c-.5 3.38-.5 3.38 0 7 4.07 4.75 9.27 6.54 15.01 8.8 9.67 3.88 9.67 3.88 11.99 6.2.31 2.36.31 2.36 0 5-1.75 1.8-1.75 1.8-4 3.31l-2.25 1.55L39 113q11 .19 22 .27 3.74.04 7.48.11 5.38.08 10.75.11l3.39.08c7.74 0 7.74 0 11.08-2.97 2.04-4.07 1.95-6.06 1.3-10.6-8.51-8.19-21.23-9.91-32.44-11.62q-3.65-.57-7.31-1.17l-3.2-.49C48.7 85.93 46.01 84.64 43 83l1-5 1.74.94a27 27 0 0 0 6.37 2.07l2.38.5q5.07.98 10.16 1.88c27.01 4.88 27.01 4.88 35.35 15.05 1.35 3.46 1.45 5.87 1 9.56-3.08 5.54-3.08 5.54-6 7q-3.14.13-6.29.11h-1.95l-6.39-.01-4.43-.01-11.67-.02-11.91-.02L29 115c1.27-3.81 2.56-4.15 6-6.06 4.9-2.74 4.9-2.74 6-4.94l-2.75-.88C20.05 96.99 20.05 96.99 15 89c-1.33-4.39-1.48-7.91.38-12.12C25.06 66.26 40.41 59.58 55 60"/><path fill="#0c162a" d="m83 13 3 1a34 34 0 0 1 2.19 5.75l1.04 3.17c.71 2.85.93 5.16.77 8.08l1.98.33c5.09.93 9.57 1.86 14.02 4.67v2l-6.88 2.5-1.97.72C92.23 43 92.23 43 90 43l-.25 2.81C89.02 51.13 86.93 56.03 85 61h-2c-2.33-5.98-4.43-11.58-5-18l-2.14-.37a63 63 0 0 1-8.67-2.69l-2.96-1.1L62 38v-3l3.18-.74c10.88-2.86 10.88-2.86 13.38-6.57A61 61 0 0 0 80 20c.81-2.2.81-2.2 1.69-4.12z"/><path fill="#091325" d="M55 60v2l2 2-3.55.7C26.53 70.2 26.53 70.2 20 80c-.5 3.38-.5 3.38 0 7 4.86 5.69 12.26 8.09 19 11l-1 4c-8.36-1.78-15.89-4.34-21.69-10.92C14.1 87.57 13.79 84.09 14 80c2.81-6.38 8.71-11.2 15.09-13.88C46.2 59.75 46.2 59.75 55 60"/><path fill="#a8a8a0" d="M83 63c1.35 2.71 1.07 5.01 1 8h-4v-4l-3.31 1.81C69.56 72.35 61.88 75.3 54 73c-1.94-1.44-1.94-1.44-3-3v-2l2.15-.59 2.79-.79 2.77-.77C61 65 61 65 62 63l-3-1q3.12-.8 6.25-1.56l3.52-.88c5.46-.95 9.27 1.1 14.23 3.44"/><path fill="#071123" d="m77 32-5 5 1.9.41c2.54.67 4.77 1.37 7.1 2.59 1.8 3.96 2 6.66 2 11h2l1-6 2 1 2-2c-.65 6-2.86 11.4-5 17h-2c-2.33-5.98-4.43-11.58-5-18l-2.14-.37a63 63 0 0 1-8.67-2.69l-2.96-1.1L62 38v-3q3.18-1.05 6.38-2.06l3.58-1.16C75 31 75 31 77 32"/><path fill="#e9e8de" d="M83 24h2l.12 2.12c.33 2.89.7 5.22 1.88 7.88 2.93 1.52 5.73 1.85 9 2l-1 2-3.38.44C88 40 88 40 86.87 42.57c-.74 2.8-1.37 5.58-1.87 8.43h-2l-.12-2.34c-.33-3.13-.7-5.74-1.88-8.66-2.42-1.27-4.29-1.54-7-1.75L72 38l-1-2 2.12-.09c2.93-.3 5.2-.65 7.88-1.91 1.54-3.27 1.85-6.42 2-10"/><path fill="#272f3b" d="M39 98c5.75 1.75 5.75 1.75 8 4v5l-8 6 51 1v1H29c1.27-3.81 2.56-4.15 6-6.06 4.9-2.74 4.9-2.74 6-4.94l-3-2z"/><path fill="#b7b7b2" d="m108 36 5 1-1 9c-2.38.62-2.38.62-5 1l-2-2c.44-3.17 1.77-6.06 3-9"/><path fill="#b6b7b0" d="M106 51c.69 3.56.69 3.56 1 7-3.66.75-6.42 1.24-10 0l.94-1.81C99 54 99 54 100 51c3-1 3-1 6 0"/><path fill="#04101f" d="m99 100 2 1c.49 4.13.19 6.58-1.56 10.38-3.07 3.29-5.03 3.45-9.44 3.62q2.43-3.06 5-6h2z"/><path fill="#a4a59d" d="M58 46c3.42 1.14 4.15 2 6 5v3l-5 1c-3-4.62-3-4.62-3-8z"/><path fill="#232736" d="M46 91c2.14-.01 2.14-.01 4.81.31l2.65.3c2.23.34 4.36.8 6.54 1.39l-1 3c-4.97-.41-9.45-.8-14-3z"/><path fill="#040e1a" d="m37 108 2 1v4c-3.12 2.4-6.19 2.17-10 2 1.12-3.35 1.51-3.62 4.44-5.25z"/><path fill="#131e33" d="m95 39-2.88 3.38-1.61 1.89A73 73 0 0 1 87 48c-.62-2.81-.62-2.81-1-6 2-3 2-3 3.94-3.75C92 38 92 38 95 39"/><path fill="#a5a6a0" d="m95 60 1 3c-3.23 2.15-4.28 2.2-8 2 .31-2.44.31-2.44 1-5 3-1 3-1 6 0"/><path fill="#9fa09b" d="m54 36 5 1v5c-1.94.56-1.94.56-4 1-1-1-1-1-1.06-4.06z"/></svg>