<?xml version="1.0" encoding="UTF-8"?>
<!-- Generator: visioncortex VTracer 0.6.12 -->
<svg version="1.1" xmlns="http://www.w3.org/2000/svg" width="128" height="128" viewBox="0 0 128 128" preserveAspectRatio="xMidYMid meet">
<path d="M0 0 C4.55 0.91 6.16 3.37 8.9 6.94 C9.38 7.54 9.86 8.13 10.36 8.74 C12.41 11.3 14.33 13.9 16.15 16.63 C16.69 16.32 17.22 16.01 17.78 15.69 C22.83 13.43 22.83 13.43 26.15 13.63 C29.08 16.17 31.04 19.41 33.15 22.63 C33.36 22.95 33.36 22.95 34.42 24.55 C37.28 28.87 40.07 33.22 42.85 37.59 C44.03 39.44 45.23 41.27 46.45 43.1 C47.09 44.08 47.74 45.06 48.4 46.07 C48.96 46.91 49.53 47.76 50.11 48.62 C50.45 49.29 50.8 49.95 51.15 50.63 C50.99 50.96 50.99 50.96 50.15 52.63 C45.91 51.32 42.12 49.61 38.15 47.63 C36.83 47.27 35.49 46.93 34.15 46.63 C34.13 47.28 34.1 47.93 34.07 48.61 C33.7 54.4 33.07 58.11 29.15 62.63 C27.76 63.74 26.36 64.84 24.96 65.94 C21.74 68.62 20.58 70.32 20.09 74.5 C19.99 76.81 19.99 76.81 20.15 78.63 C20.48 78.96 20.81 79.29 21.15 79.63 C21.69 83.54 21.45 85.19 19.21 88.5 C15.65 90.98 13.58 91.43 9.32 91.18 C6.85 90.55 5.77 89.84 4.03 88 C2.15 84.63 2.15 84.63 2.34 81.44 C2.61 80.51 2.88 79.59 3.15 78.63 C3.15 76.94 3.13 75.26 3.05 73.58 C2.86 68.44 3.13 64.98 6.15 60.63 C8.25 58.78 10.37 57.03 12.61 55.34 C13.12 54.78 13.63 54.21 14.15 53.63 C13.89 51.42 13.89 51.42 13.15 49.63 C11.83 49.63 10.51 49.63 9.15 49.63 C8.49 51.61 7.83 53.59 7.15 55.63 C4.9 55.68 2.65 55.72 0.4 55.75 C-0.85 55.78 -2.1 55.8 -3.39 55.82 C-6.58 55.64 -8.21 55.32 -10.85 53.63 C-10.85 54.62 -10.85 55.61 -10.85 56.63 C-13.35 57.82 -13.35 57.82 -15.85 58.63 C-15.09 59.02 -14.33 59.4 -13.55 59.8 C-12.55 60.32 -11.56 60.84 -10.54 61.38 C-9.55 61.89 -8.56 62.4 -7.55 62.93 C-4.86 64.62 -3.46 65.91 -1.85 68.63 C-1.28 72.33 -1.66 74.24 -3.29 77.63 C-7.21 82.22 -11.44 86.35 -17.7 86.86 C-20.82 86.62 -23.83 86.18 -26.91 85.63 C-27.43 85.55 -27.43 85.55 -30.05 85.16 C-35.74 84.29 -41.29 83.12 -46.85 81.63 C-46.85 80.97 -46.85 80.31 -46.85 79.63 C-45.01 78.67 -45.01 78.67 -42.47 77.68 C-41.57 77.33 -40.67 76.97 -39.74 76.61 C-39.26 76.43 -39.26 76.43 -36.85 75.5 C-35.89 75.13 -34.94 74.76 -33.96 74.38 C-31.59 73.45 -29.22 72.54 -26.85 71.63 C-27.57 71.29 -28.3 70.94 -29.05 70.59 C-38.7 66 -38.7 66 -40.85 62.63 C-40.85 59.57 -40.85 59.57 -39.85 56.63 C-37.79 54.75 -37.79 54.75 -35.85 53.63 C-41.2 54.2 -46.53 54.84 -51.85 55.63 C-51.23 52.67 -50.3 50.44 -48.73 47.86 C-48.29 47.15 -47.86 46.43 -47.41 45.69 C-47.17 45.31 -47.17 45.31 -45.97 43.38 C-45.49 42.59 -45 41.81 -44.5 40.99 C-41.05 35.46 -37.54 29.98 -33.91 24.57 C-33.46 23.88 -33.01 23.2 -32.55 22.49 C-29.36 17.82 -29.36 17.82 -26.8 16.88 C-24.85 16.63 -24.85 16.63 -23.14 17.62 C-21.71 18.96 -20.28 20.29 -18.85 21.63 C-18.28 20.87 -17.71 20.11 -17.12 19.32 C-15.94 17.73 -14.74 16.14 -13.55 14.55 C-11.62 12.01 -9.73 9.45 -7.9 6.83 C-7.61 6.42 -7.61 6.42 -6.16 4.38 C-5.66 3.65 -5.16 2.92 -4.65 2.18 C-2.85 0.63 -2.85 0.63 0 0 Z " fill="#0B1B2F" transform="translate(64.84765625,18.37109375)"/>
<path d="M0 0 C-0.33 0.17 -0.33 0.17 -2 1 C-2 2.32 -2 3.64 -2 5 C-4.5 6.25 -4.5 6.25 -7 7 C-6.62 7.19 -6.62 7.19 -4.7 8.17 C-4.2 8.43 -4.2 8.43 -1.69 9.75 C-0.7 10.26 0.28 10.77 1.3 11.3 C3.99 12.99 5.39 14.28 7 17 C7.56 20.7 7.18 22.61 5.56 26 C2.16 29.98 -1.15 32.91 -6 35 C-10.32 35.29 -14.32 34.64 -18.56 33.88 C-19.67 33.7 -20.77 33.53 -21.91 33.36 C-24.61 32.94 -27.31 32.48 -30 32 C-30 31.34 -30 30.68 -30 30 C-26.63 28.28 -23.24 26.7 -19.78 25.19 C-14.21 22.59 -14.21 22.59 -13 19.24 C-13 18.87 -13 18.87 -13 17 C-13.84 16.69 -14.69 16.37 -15.55 16.05 C-16.65 15.62 -17.75 15.19 -18.88 14.75 C-19.97 14.33 -21.06 13.91 -22.18 13.48 C-25.15 11.92 -25.95 11.12 -27 8 C-23.04 4.33 -19.23 2.92 -14.06 1.75 C-13.72 1.66 -13.72 1.66 -11.97 1.23 C-7.91 0.26 -4.17 -0.18 0 0 Z " fill="#F0EEE0" transform="translate(56,70)"/>
<path d="M0 0 C3.88 1.75 3.88 1.75 5 4 C5.13 5.87 5.13 5.87 5.12 8 C5.13 8.35 5.13 8.35 5.13 10.12 C5 12 5 12 4 14 C4.12 15.95 4.12 15.95 4.44 18.12 C4.62 19.4 4.81 20.68 5 22 C1.91 20.8 -1.05 19.5 -4 18 C-3.92 18.69 -3.84 19.38 -3.75 20.09 C-3.28 27.18 -4.5 30.81 -9.08 36.22 C-10.97 37.97 -12.64 38.99 -15 40 C-15 37.36 -15 34.72 -15 32 C-15.64 32.51 -16.28 33.01 -16.93 33.53 C-17.35 33.86 -17.35 33.86 -19.44 35.5 C-19.85 35.82 -19.85 35.82 -21.93 37.47 C-24 39 -24 39 -25 39 C-25 36.69 -25 34.38 -25 32 C-25.74 32.6 -26.47 33.21 -27.23 33.83 C-28.21 34.63 -29.18 35.43 -30.19 36.25 C-31.15 37.04 -32.11 37.83 -33.11 38.64 C-34.06 39.42 -35.02 40.2 -36 41 C-36.45 41.39 -36.45 41.39 -38.74 43.36 C-39.48 43.9 -40.23 44.44 -41 45 C-41.66 44.67 -42.32 44.34 -43 44 C-40.92 40.62 -38.83 37.25 -36.75 33.88 C-36.16 32.92 -35.58 31.97 -34.97 30.99 C-32.06 26.27 -29.12 21.59 -26 17 C-22.13 18.87 -22.13 18.87 -21 20 C-20.96 22 -20.96 24 -21 26 C-17.33 22.47 -14.13 18.76 -11.06 14.69 C-10.63 14.12 -10.2 13.55 -9.75 12.97 C-8.5 11.32 -7.25 9.66 -6 8 C-5.35 7.13 -4.69 6.27 -4.02 5.38 C-2.68 3.59 -1.34 1.79 0 0 Z " fill="#F3F2E5" transform="translate(64,23)"/>
<path d="M0 0 C3.48 2.52 5.26 5.17 6.21 9.36 C6.54 12.99 6.3 15.35 4.33 18.47 C1.73 21.52 -0.92 23.99 -4.14 26.38 C-6.91 28.82 -7.02 30.65 -7.27 34.25 C-10.24 34.25 -13.21 34.25 -16.27 34.25 C-16.82 30.47 -17.03 28.38 -14.85 25.15 C-12.33 22.28 -9.78 19.68 -6.83 17.25 C-4.35 14.07 -5.01 11.21 -5.27 7.25 C-6.71 7.06 -8.14 6.87 -9.58 6.69 C-10.38 6.59 -11.18 6.48 -12.01 6.38 C-14.27 6.25 -14.27 6.25 -17.27 7.25 C-17.48 8.1 -17.68 8.95 -17.89 9.82 C-18.35 10.62 -18.8 11.43 -19.27 12.25 C-22.3 12.72 -25.22 12.54 -28.27 12.25 C-28.02 7.14 -26.32 4.37 -22.93 0.73 C-16.65 -4.86 -6.88 -3.94 0 0 Z " fill="#F3F1E2" transform="translate(88.26953125,57.74609375)"/>
<path d="M0 0 C4.55 0.91 6.16 3.37 8.9 6.94 C9.38 7.54 9.86 8.13 10.36 8.74 C12.41 11.3 14.33 13.9 16.15 16.63 C16.69 16.32 17.22 16.01 17.78 15.69 C22.83 13.43 22.83 13.43 26.15 13.63 C28.94 16.32 31.02 19.41 33.15 22.63 C33.59 23.25 34.03 23.86 34.48 24.5 C37.15 28.29 37.15 28.29 37.15 30.63 C36.49 30.63 35.83 30.63 35.15 30.63 C34.82 31.29 34.49 31.95 34.15 32.63 C33.61 31.87 33.07 31.11 32.51 30.33 C31.79 29.33 31.08 28.34 30.34 27.32 C29.63 26.33 28.92 25.34 28.2 24.33 C26.61 22.23 25.08 20.41 23.15 18.63 C21.5 20.28 19.85 21.93 18.15 23.63 C15 22.26 13.1 20.75 10.9 18.13 C10.64 17.82 10.64 17.82 9.32 16.29 C8.15 14.63 8.15 14.63 8.15 12.63 C7.49 12.63 6.83 12.63 6.15 12.63 C5.82 13.62 5.49 14.61 5.15 15.63 C4.97 14.99 4.79 14.35 4.6 13.7 C4.35 12.87 4.1 12.04 3.84 11.19 C3.6 10.37 3.35 9.54 3.1 8.7 C2.79 8.01 2.48 7.33 2.15 6.63 C1.16 6.3 0.17 5.97 -0.85 5.63 C-1.63 6.68 -2.42 7.73 -3.23 8.81 C-5.93 12.42 -8.64 16.03 -11.35 19.63 C-12.61 21.32 -13.87 23.01 -15.13 24.7 C-15.74 25.5 -16.35 26.3 -16.97 27.13 C-17.49 27.82 -18.01 28.51 -18.54 29.22 C-18.97 29.69 -19.4 30.15 -19.85 30.63 C-20.51 30.63 -21.17 30.63 -21.85 30.63 C-22.12 29.52 -22.38 28.4 -22.66 27.25 C-23.85 23.63 -23.85 23.63 -26.85 21.63 C-27.1 22.33 -27.35 23.03 -27.61 23.75 C-29 26.98 -30.68 29.75 -32.6 32.69 C-33.25 33.71 -33.91 34.74 -34.58 35.79 C-37.48 39.42 -40.72 41.57 -44.85 43.63 C-42.71 37.83 -39.37 33.01 -35.97 27.88 C-35.35 26.91 -34.72 25.94 -34.08 24.94 C-33.47 24.02 -32.86 23.09 -32.23 22.14 C-31.68 21.3 -31.12 20.46 -30.56 19.59 C-28.66 17.41 -27.7 16.86 -24.85 16.63 C-22.51 17.99 -20.84 19.77 -18.85 21.63 C-18.28 20.87 -17.71 20.11 -17.12 19.32 C-15.94 17.73 -14.74 16.14 -13.55 14.55 C-11.62 12.01 -9.73 9.45 -7.9 6.83 C-7.61 6.42 -7.61 6.42 -6.16 4.38 C-5.66 3.65 -5.16 2.92 -4.65 2.18 C-2.85 0.63 -2.85 0.63 0 0 Z " fill="#081226" transform="translate(64.84765625,18.37109375)"/>
<path d="M0 0 C0.66 0.33 1.32 0.66 2 1 C2.33 7.53 1.41 13.03 -3 18 C-4.39 19.11 -5.79 20.21 -7.19 21.31 C-10.41 23.99 -11.57 25.69 -12.06 29.88 C-12.16 32.18 -12.16 32.18 -12 34 C-11.84 34.16 -11.84 34.16 -11 35 C-10.47 38.91 -10.71 40.56 -12.94 43.88 C-16.5 46.35 -18.57 46.8 -22.84 46.55 C-25.3 45.92 -26.39 45.21 -28.12 43.38 C-30 40 -30 40 -29.81 36.81 C-29.54 35.88 -29.28 34.96 -29 34 C-29 32.32 -29.02 30.63 -29.11 28.95 C-29.34 22.53 -28.28 18.48 -23.81 13.62 C-23.21 13.09 -22.62 12.55 -22 12 C-21.34 12.33 -20.68 12.66 -20 13 C-20.42 13.37 -20.42 13.37 -22.56 15.25 C-23.37 16.16 -24.17 17.06 -25 18 C-24.75 19.88 -24.75 19.88 -24 22 C-24.27 24.34 -24.6 26.68 -25 29 C-22.03 29 -19.06 29 -16 29 C-16.09 28.1 -16.17 27.19 -16.26 26.26 C-16 23 -16 23 -14.21 20.77 C-13.42 20.12 -12.63 19.48 -11.81 18.81 C-11.04 18.16 -10.26 17.51 -9.46 16.83 C-7.05 15.04 -4.59 13.51 -2 12 C-0.26 10.26 -0.63 7.81 -0.44 5.44 C-0.35 4.43 -0.27 3.41 -0.18 2.37 C-0.15 1.98 -0.15 1.98 0 0 Z " fill="#081629" transform="translate(97,63)"/>
<path d="M0 0 C2.64 0 5.28 0 8 0 C8.81 1.75 8.81 1.75 9 4 C7.35 5.36 5.69 6.69 4 8 C4.33 8.99 4.66 9.98 5 11 C8.05 12.37 11.16 13.43 14.31 14.52 C17 16 17 16 18.19 18.41 C18 21 18 21 15.96 23.11 C2.37 31.81 2.37 31.81 -4.81 30.88 C-5.86 30.59 -6.92 30.3 -8 30 C-8 29.34 -8 28.68 -8 28 C-6.16 27.04 -6.16 27.04 -3.62 26.05 C-2.72 25.7 -1.82 25.35 -0.89 24.98 C0.06 24.62 1.02 24.25 2 23.88 C2.95 23.5 3.91 23.13 4.89 22.75 C7.26 21.82 9.63 20.91 12 20 C11.64 19.83 11.64 19.83 9.8 18.96 C0.14 14.37 0.14 14.37 -2 11 C-2 7.94 -2 7.94 -1 5 C1.06 3.12 1.06 3.12 3 2 C2.01 1.34 1.02 0.68 0 0 Z " fill="#0A1525" transform="translate(26,70)"/>
<path d="M0 0 C0 0.99 0 1.98 0 3 C-2.5 4.19 -2.5 4.19 -5 5 C-4.62 5.19 -4.62 5.19 -2.7 6.17 C-2.2 6.43 -2.2 6.43 0.31 7.75 C1.3 8.26 2.28 8.77 3.3 9.3 C5.99 10.99 7.39 12.28 9 15 C9.56 18.7 9.18 20.61 7.56 24 C4.17 27.97 0.88 31.01 -4 33 C-7.79 33.19 -11.29 32.76 -15 32 C-15 31.67 -15 31.34 -15 31 C-14.44 30.93 -13.89 30.85 -13.31 30.77 C-7.01 29.69 -2.67 27.39 2 23 C3.55 19.91 3.74 18.42 3 15 C-0.12 12.84 -3.52 11.46 -7 10 C-8.21 9.41 -9.42 8.81 -10.62 8.19 C-11.41 7.8 -12.19 7.4 -13 7 C-12.5 5.19 -12.5 5.19 -11 3 C-7.4 1.14 -4.06 0 0 0 Z " fill="#101B2A" transform="translate(54,72)"/>
<path d="M0 0 C3.57 2.68 6.32 5.43 9 9 C11.96 7.63 14.41 5.98 17 4 C21.63 10.11 25.83 16 29 23 C25.76 21.95 23.42 20.64 20.88 18.44 C18 16 18 16 15 15 C14.67 16.32 14.34 17.64 14 19 C10.12 15.84 6.47 12.6 3.06 8.94 C2.48 8.31 1.89 7.68 1.29 7.03 C-0.3 4.52 -0.25 2.91 0 0 Z " fill="#EFEEE3" transform="translate(72,32)"/>
<path d="M0 0 C3 0.25 3 0.25 5 2.25 C4.44 6.81 4.44 6.81 3 8.25 C-0.5 8.38 -0.5 8.38 -4 8.25 C-5 7.25 -5 7.25 -5.19 4.81 C-4.9 0.92 -3.81 0.32 0 0 Z " fill="#EEECDE" transform="translate(77,96.75)"/>
<path d="M0 0 C1.91 0.23 1.91 0.23 3.91 2.23 C3.54 4.36 3.54 4.36 2.91 6.23 C2.66 5.57 2.42 4.91 2.16 4.23 C1.75 3.57 1.34 2.91 0.91 2.23 C-0.41 2.23 -1.73 2.23 -3.09 2.23 C-3.75 4.21 -4.41 6.19 -5.09 8.23 C-9.71 8.23 -14.33 8.23 -19.09 8.23 C-16.09 5.23 -16.09 5.23 -14.05 4.94 C-12.06 5.04 -10.08 5.13 -8.09 5.23 C-7.95 4.59 -7.8 3.95 -7.65 3.29 C-6.5 -0.92 -3.96 0.08 0 0 Z " fill="#040F20" transform="translate(77.08984375,65.76953125)"/>
<path d="M0 0 C0 0.99 0 1.98 0 3 C0.33 3.99 0.66 4.98 1 6 C-5.47 9.95 -9.59 10.4 -17 9 C-17 8.67 -17 8.34 -17 8 C-16.72 7.96 -16.72 7.96 -15.31 7.77 C-8.91 6.67 -4.88 4.23 0 0 Z " fill="#1B2331" transform="translate(56,95)"/>
<path d="M0 0 C0.66 0.33 1.32 0.66 2 1 C1.15 1.74 0.31 2.48 -0.56 3.25 C-0.96 3.7 -0.96 3.7 -3 6 C-2.75 7.88 -2.75 7.88 -2 10 C-2.27 12.34 -2.6 14.68 -3 17 C-3.66 15.68 -4.32 14.36 -5 13 C-5.33 14.98 -5.66 16.96 -6 19 C-6.33 19 -6.66 19 -7 19 C-7.35 13.2 -7.28 9.03 -4 4 C-1.81 1.62 -1.81 1.62 0 0 Z " fill="#030C1A" transform="translate(75,75)"/>
<path d="M0 0 C3.58 2.69 6.29 5.44 9 9 C9.66 9.66 10.32 10.32 11 11 C10.01 11 9.02 11 8 11 C7.67 11.66 7.34 12.32 7 13 C5.82 11.79 4.66 10.55 3.5 9.31 C2.85 8.63 2.2 7.94 1.53 7.24 C-0.28 4.59 -0.31 3.14 0 0 Z " fill="#E2E1E1" transform="translate(72,32)"/>
<path d="M0 0 C2 1 2 1 4 4 C2.72 5.2 1.42 6.38 0.12 7.56 C-0.59 8.22 -1.31 8.89 -2.05 9.57 C-2.7 10.04 -3.34 10.51 -4 11 C-4.66 10.67 -5.32 10.34 -6 10 C-4.02 6.7 -2.04 3.4 0 0 Z " fill="#E2E3E0" transform="translate(27,57)"/>
<path d="M0 0 C0.66 0 1.32 0 2 0 C2 0.66 2 1.32 2 2 C3.32 1.67 4.64 1.34 6 1 C6 4.93 4.61 6.16 2 9 C1.34 9 0.68 9 0 9 C0 6.03 0 3.06 0 0 Z " fill="#131E31" transform="translate(43,40)"/>
</svg>
