<svg xmlns="http://www.w3.org/2000/svg" width="128" height="128" viewBox="0 0 128 128"><path fill="#0b1b2f" d="M64.85 18.37c4.55.91 6.16 3.37 8.9 6.94l1.46 1.8a110 110 0 0 1 5.79 7.9l1.63-.95C87.68 31.8 87.68 31.8 91 32c2.93 2.54 4.89 5.78 7 9l1.27 1.92q4.28 6.48 8.43 13.04 1.77 2.77 3.6 5.51l1.95 2.97 1.7 2.55L116 69l-1 2a78 78 0 0 1-12-5q-1.98-.55-4-1l-.08 1.98c-.37 5.8-1 9.5-4.92 14.02l-4.2 3.31c-3.21 2.68-4.37 4.38-4.86 8.56-.1 2.31-.1 2.31.06 4.13l1 1c.54 3.91.3 5.56-1.94 8.87-3.56 2.48-5.63 2.93-9.9 2.68-2.46-.63-3.54-1.34-5.28-3.18C67 103 67 103 67.18 99.81l.82-2.8q.01-2.55-.1-5.06c-.2-5.14.08-8.6 3.1-12.95 2.1-1.85 4.22-3.6 6.46-5.29l1.54-1.7c-.26-2.22-.26-2.22-1-4h-4l-2 6-6.75.11-3.8.07c-3.18-.18-4.81-.5-7.45-2.19v3c-2.5 1.2-2.5 1.2-5 2q1.13.59 2.3 1.17l3 1.58 3 1.55c2.69 1.7 4.09 2.98 5.7 5.7.57 3.7.19 5.61-1.44 9-3.92 4.6-8.15 8.72-14.41 9.23a92 92 0 0 1-9.21-1.23l-3.14-.47A155 155 0 0 1 18 100v-2c1.84-.96 1.84-.96 4.38-1.95l2.73-1.07 2.89-1.1 2.89-1.13q3.56-1.39 7.1-2.75l-2.2-1.04C26.16 84.37 26.16 84.37 24 81c0-3.06 0-3.06 1-6 2.07-1.88 2.07-1.88 4-3a390 390 0 0 0-16 2 23 23 0 0 1 3.13-7.77l1.32-2.17 1.44-2.3 1.47-2.4a588 588 0 0 1 10.59-16.42l1.36-2.08c3.19-4.67 3.19-4.67 5.75-5.6C40 35 40 35 41.7 35.98L46 40l1.73-2.3 3.57-4.78q2.9-3.8 5.65-7.72l1.74-2.45 1.5-2.2C62 19 62 19 64.86 18.37"/><path fill="#f0eee0" d="m56 70-2 1v4c-2.5 1.25-2.5 1.25-5 2l2.3 1.17 3.01 1.58 2.99 1.55c2.69 1.69 4.09 2.98 5.7 5.7.56 3.7.18 5.61-1.44 9-3.4 3.98-6.71 6.91-11.56 9-4.32.29-8.32-.36-12.56-1.12l-3.35-.52q-4.05-.64-8.09-1.36v-2a186 186 0 0 1 10.22-4.81c5.57-2.6 5.57-2.6 6.78-5.95V87l-2.55-.95-3.33-1.3-3.3-1.27C30.85 81.92 30.05 81.12 29 78c3.96-3.67 7.77-5.08 12.94-6.25l2.09-.52A42 42 0 0 1 56 70"/><path fill="#f3f2e5" d="M64 23c3.88 1.75 3.88 1.75 5 4 .13 1.87.13 1.87.12 4l.01 2.12C69 35 69 35 68 37c.12 1.95.12 1.95.44 4.12L69 45a98 98 0 0 1-9-4l.25 2.09c.47 7.09-.75 10.72-5.33 16.13A19 19 0 0 1 49 63v-8l-1.93 1.53-2.51 1.97-2.49 1.97C40 62 40 62 39 62v-7l-2.23 1.83-2.96 2.42-2.92 2.39L28 64l-2.74 2.36L23 68l-2-1 6.25-10.12 1.78-2.89c2.91-4.72 5.85-9.4 8.97-13.99 3.87 1.87 3.87 1.87 5 3q.06 3 0 6a94 94 0 0 0 9.94-11.31l1.31-1.72L58 31l1.98-2.62z"/><path fill="#f3f1e2" d="M88.27 57.75c3.48 2.52 5.26 5.17 6.21 9.36.33 3.63.09 5.99-1.88 9.1a50 50 0 0 1-8.47 7.92C81.36 86.57 81.25 88.4 81 92h-9c-.55-3.78-.76-5.87 1.42-9.1a69 69 0 0 1 8.02-7.9c2.48-3.18 1.82-6.04 1.56-10q-2.16-.3-4.31-.56l-2.43-.31C74 64 74 64 71 65l-.62 2.57L69 70c-3.03.47-5.95.29-9 0 .25-5.11 1.95-7.88 5.34-11.52 6.28-5.6 16.05-4.67 22.93-.73"/><path fill="#081226" d="M64.85 18.37c4.55.91 6.16 3.37 8.9 6.94l1.46 1.8a110 110 0 0 1 5.79 7.9l1.63-.95C87.68 31.8 87.68 31.8 91 32c2.79 2.7 4.87 5.78 7 9l1.33 1.87C102 46.67 102 46.67 102 49h-2l-1 2-1.64-2.3-2.17-3-2.14-3A42 42 0 0 0 88 37l-5 5a18 18 0 0 1-7.25-5.5l-1.58-1.84C73 33 73 33 73 31h-2l-1 3-.55-1.93-.76-2.5-.74-2.5L67 25l-3-1-2.38 3.18L53.5 38l-3.78 5.07-1.84 2.43-1.57 2.1L45 49h-2l-.81-3.38C40.99 42 40.99 42 37.99 40l-.75 2.12a58 58 0 0 1-5 8.94l-1.97 3.1C27.37 57.8 24.13 59.94 20 62c2.14-5.8 5.48-10.62 8.88-15.75l1.89-2.94 1.85-2.8 1.67-2.55c1.9-2.18 2.86-2.73 5.7-2.96 2.35 1.36 4.02 3.14 6 5l1.74-2.3 3.57-4.78q2.9-3.8 5.65-7.72l1.74-2.45 1.5-2.2C62 19 62 19 64.86 18.37"/><path fill="#081629" d="m97 63 2 1c.33 6.53-.59 12.03-5 17l-4.19 3.31c-3.22 2.68-4.38 4.38-4.87 8.57-.1 2.3-.1 2.3.06 4.12l1 1c.53 3.91.29 5.56-1.94 8.88-3.56 2.47-5.63 2.92-9.9 2.67-2.46-.63-3.55-1.34-5.28-3.17C67 103 67 103 67.19 99.81L68 97q.01-2.53-.11-5.05c-.23-6.42.83-10.47 5.3-15.33L75 75l2 1-2.56 2.25L72 81a13 13 0 0 0 1 4q-.4 3.52-1 7h9l-.26-2.74C81 86 81 86 82.79 83.77l2.4-1.96 2.35-1.98A79 79 0 0 1 95 75c1.74-1.74 1.37-4.19 1.56-6.56l.26-3.07z"/><path fill="#0a1525" d="M26 70h8c.81 1.75.81 1.75 1 4a214 214 0 0 1-5 4l1 3c3.05 1.37 6.16 2.43 9.31 3.52C43 86 43 86 44.19 88.41 44 91 44 91 41.96 93.11c-13.59 8.7-13.59 8.7-20.77 7.77L18 100v-2c1.84-.96 1.84-.96 4.38-1.95l2.73-1.07 2.89-1.1 2.89-1.13Q34.45 91.36 38 90l-2.2-1.04C26.14 84.37 26.14 84.37 24 81c0-3.06 0-3.06 1-6 2.06-1.88 2.06-1.88 4-3z"/><path fill="#101b2a" d="M54 72v3c-2.5 1.19-2.5 1.19-5 2l2.3 1.17 3.01 1.58 2.99 1.55c2.69 1.69 4.09 2.98 5.7 5.7.56 3.7.18 5.61-1.44 9-3.39 3.97-6.68 7.01-11.56 9-3.79.19-7.29-.24-11-1v-1l1.69-.23c6.3-1.08 10.64-3.38 15.31-7.77 1.55-3.09 1.74-4.58 1-8-3.12-2.16-6.52-3.54-10-5q-1.82-.88-3.62-1.81L41 79c.5-1.81.5-1.81 2-4 3.6-1.86 6.94-3 11-3"/><path fill="#efeee3" d="M72 32a43 43 0 0 1 9 9 42 42 0 0 0 8-5c4.63 6.11 8.83 12 12 19a22 22 0 0 1-8.12-4.56C90 48 90 48 87 47l-1 4c-3.88-3.16-7.53-6.4-10.94-10.06l-1.77-1.91C71.7 36.52 71.75 34.91 72 32"/><path fill="#eeecde" d="M77 96.75C80 97 80 97 82 99c-.56 4.56-.56 4.56-2 6-3.5.13-3.5.13-7 0-1-1-1-1-1.19-3.44.29-3.89 1.38-4.49 5.19-4.81"/><path fill="#040f20" d="M77.09 65.77C79 66 79 66 81 68c-.37 2.13-.37 2.13-1 4l-.75-2L78 68h-4l-2 6H58c3-3 3-3 5.04-3.29L69 71l.44-1.94c1.15-4.21 3.69-3.21 7.65-3.29"/><path fill="#1b2331" d="M56 95v3l1 3c-6.47 3.95-10.59 4.4-18 3v-1l1.69-.23c6.4-1.1 10.43-3.54 15.31-7.77"/><path fill="#030c1a" d="m75 75 2 1-2.56 2.25L72 81a13 13 0 0 0 1 4q-.4 3.52-1 7l-2-4-1 6h-1c-.35-5.8-.28-9.97 3-15 2.19-2.38 2.19-2.38 4-4"/><path fill="#e2e1e1" d="M72 32a44 44 0 0 1 9 9l2 2h-3l-1 2q-1.77-1.82-3.5-3.69l-1.97-2.07c-1.81-2.65-1.84-4.1-1.53-7.24"/><path fill="#e2e3e0" d="M27 57c2 1 2 1 4 4q-1.93 1.8-3.88 3.56l-2.17 2.01L23 68l-2-1z"/><path fill="#131e31" d="M43 40h2v2l4-1c0 3.93-1.39 5.16-4 8h-2z"/></svg>