<svg xmlns="http://www.w3.org/2000/svg" width="128" height="128" viewBox="0 0 128 128"><path fill="#f5f3e3" d="M84.06 18.63C93 25.88 99 33.52 100.37 45.2 101.03 62.6 90.07 78.53 80 92l3.14.9 6.17 1.88c4.65 1.45 7.14 3.03 9.7 7.21.07 3.44-.66 4.63-3 7.13-14.46 9.03-37.2 7.79-53.26 4.62-4.65-1.22-8.1-2.6-11.75-5.75l-1.94-1.44C28 105 28 105 27.94 102.57c1.5-3.6 3.6-5.05 7.06-6.56a149 149 0 0 1 12-3 77 77 0 0 0-5.19-9l-3.8-6-1.89-2.92c-6.35-10.33-11-21.31-8.65-33.53 2.74-10.7 9.23-19.11 18.64-24.83 11.8-6.2 26.96-5.74 37.95 1.9"/><path fill="#091527" d="M84.06 18.63C93 25.88 99 33.52 100.37 45.2 101.03 62.6 90.07 78.53 80 92l3.14.9 6.17 1.88c4.65 1.45 7.14 3.03 9.7 7.21.07 3.44-.66 4.63-3 7.13-14.46 9.03-37.2 7.79-53.26 4.62-4.65-1.22-8.1-2.6-11.75-5.75l-1.94-1.44C28 105 28 105 27.94 102.57c1.5-3.6 3.6-5.05 7.06-6.56a149 149 0 0 1 12-3 77 77 0 0 0-5.19-9l-3.8-6-1.89-2.92c-6.35-10.33-11-21.31-8.65-33.53 2.74-10.7 9.23-19.11 18.64-24.83 11.8-6.2 26.96-5.74 37.95 1.9M38.17 28.99C32.05 36.63 31.21 44.44 32 54a42 42 0 0 0 3 9l1.18 2.73C40.14 74.22 45.4 81.54 51 89l1.38 1.84 4.06 5.4 1.25 1.67A24 24 0 0 0 64 104c13.84-14.23 31.24-35.25 31.31-55.93-.22-10.2-2.76-15.34-9.76-22.8-6.86-6.1-14.54-8.6-23.58-8.47-9.94.68-17.12 4.91-23.8 12.18"/><path fill="#09192f" d="M75.62 31.34c4.15 2.9 6.63 5.9 8.38 10.66 1 6.4 1.21 12.77-2 18.56-3.38 4.52-8.05 6.96-13 9.44-6.65.78-11.79.48-17.28-3.5-4.9-4.27-8.19-8.77-9.13-15.34-.2-6.56.34-10.56 4.77-15.55 8.38-8.26 17.83-10 28.26-4.27"/><path fill="#091427" d="M84.06 18.63c7.9 6.4 13.87 13.2 15.94 23.37.28 4.36.25 8.65 0 13l-1-2-3-1c-.63-2.23-.63-2.23-1-5.06C93.41 37.18 90.6 30.7 83 24c-8.65-5.4-16.53-7.23-26.63-5.59a34 34 0 0 0-20.44 14.85c-3.75 6.98-3.99 15.4-2.47 23.08.71 2.3 1.56 4.45 2.54 6.66l1.18 2.73c3.16 6.77 7.05 12.7 11.57 18.63C52 88.69 52 88.69 52 92l-2-1v3c-3-1-3-1-3.99-2.75l-1-2.25a283 283 0 0 0-3.2-5l-3.8-6-1.89-2.92c-6.35-10.33-11-21.31-8.65-33.53 2.74-10.7 9.23-19.11 18.64-24.83 11.8-6.2 26.96-5.74 37.95 1.9"/><path fill="#f0eee0" d="M53 98c2.21 2.21 4.02 4.59 5.94 7.07C61 107 61 107 63.48 107.59c3.6-.84 4.64-2.74 6.83-5.65 4.08-4.79 4.08-4.79 6.77-5.45 2.11.28 3.92.8 5.92 1.51l4.31.94C91 100 91 100 94 102c-.3 1.9-.3 1.9-1 4-14.88 7.74-36.74 6.66-52.52 2.3-3.69-1.26-5.27-1.98-7.48-5.3 2.54-3.12 5.03-3.81 8.88-4.75l3.11-.8c3.16-.47 5.01-.54 8.01.55"/><path fill="#eeecde" d="M63 37c2.9 2.4 3.5 4.31 4 8h10c-2 4-2 4-4.14 5.43L71 52c-.17 2.48-.17 2.48.25 5.19l.39 2.73L72 62l-3.12-2.12c-3.03-1.75-3.53-1.95-7.13-1.19L59 60l-3 1 .21-1.79c.44-6.41.44-6.41-1.55-8.85A97 97 0 0 0 50 47v-2h10l.94-3.44C62 38 62 38 63 37"/><path fill="#152030" d="M95 44h1l.59 6.15L97 52l2 1a26 26 0 0 1-5 17c-2.75 1.5-2.75 1.5-5 2l-1-2q1.08-2.38 2.31-4.69c3.33-6.95 4-13.7 4.69-21.31"/><path fill="#152130" d="m87 108-1 4h-2v2H74v-2c-2-1.12-2-1.12-4-2l7.38-1 2.11-.29c5.28-.71 5.28-.71 7.51-.71"/><path fill="#010b1a" d="M28 39h1v7l2-1c1.22 6.36 1.22 6.36.19 9.31C30 56 30 56 28 58a38.4 38.4 0 0 1 0-19"/><path fill="#111e31" d="m31 37 3 1-2 13-3-1c-1.67-4.36-.48-7.72 1-12z"/></svg>