<?xml version="1.0" encoding="UTF-8"?>
<!-- Generator: visioncortex VTracer 0.6.12 -->
<svg version="1.1" xmlns="http://www.w3.org/2000/svg" width="128" height="128" viewBox="0 0 128 128" preserveAspectRatio="xMidYMid meet">
<path d="M0 0 C8.94 7.26 14.94 14.89 16.31 26.58 C16.97 43.98 6.01 59.91 -4.06 73.38 C-3.03 73.68 -1.99 73.98 -0.92 74.29 C0.45 74.72 1.82 75.14 3.19 75.56 C3.53 75.66 3.53 75.66 5.25 76.16 C9.9 77.62 12.39 79.2 14.94 83.38 C15.02 86.82 14.29 88 11.94 90.5 C-2.51 99.53 -25.25 98.29 -41.31 95.12 C-45.96 93.91 -49.42 92.52 -53.06 89.38 C-53.7 88.9 -54.34 88.43 -55 87.94 C-56.06 86.38 -56.06 86.38 -56.12 83.94 C-54.63 80.33 -52.53 78.89 -49.06 77.38 C-45.1 76.19 -41.11 75.24 -37.06 74.38 C-38.57 71.21 -40.34 68.31 -42.25 65.38 C-43.52 63.38 -44.79 61.38 -46.06 59.38 C-46.68 58.41 -47.3 57.44 -47.94 56.45 C-54.29 46.12 -58.94 35.14 -56.59 22.92 C-53.85 12.23 -47.36 3.81 -37.95 -1.91 C-26.15 -8.11 -10.99 -7.65 0 0 Z " fill="#F5F3E3" transform="translate(84.0625,18.625)"/>
<path d="M0 0 C8.94 7.26 14.94 14.89 16.31 26.58 C16.97 43.98 6.01 59.91 -4.06 73.38 C-3.03 73.68 -1.99 73.98 -0.92 74.29 C0.45 74.72 1.82 75.14 3.19 75.56 C3.53 75.66 3.53 75.66 5.25 76.16 C9.9 77.62 12.39 79.2 14.94 83.38 C15.02 86.82 14.29 88 11.94 90.5 C-2.51 99.53 -25.25 98.29 -41.31 95.12 C-45.96 93.91 -49.42 92.52 -53.06 89.38 C-53.7 88.9 -54.34 88.43 -55 87.94 C-56.06 86.38 -56.06 86.38 -56.12 83.94 C-54.63 80.33 -52.53 78.89 -49.06 77.38 C-45.1 76.19 -41.11 75.24 -37.06 74.38 C-38.57 71.21 -40.34 68.31 -42.25 65.38 C-43.52 63.38 -44.79 61.38 -46.06 59.38 C-46.68 58.41 -47.3 57.44 -47.94 56.45 C-54.29 46.12 -58.94 35.14 -56.59 22.92 C-53.85 12.23 -47.36 3.81 -37.95 -1.91 C-26.15 -8.11 -10.99 -7.65 0 0 Z M-45.89 10.36 C-52.01 18 -52.85 25.81 -52.06 35.38 C-51.43 38.57 -50.38 41.4 -49.06 44.38 C-48.67 45.28 -48.28 46.18 -47.88 47.11 C-43.92 55.6 -38.67 62.92 -33.06 70.38 C-32.61 70.99 -32.15 71.6 -31.68 72.23 C-30.34 74.03 -28.98 75.83 -27.62 77.62 C-27.42 77.9 -27.42 77.9 -26.37 79.29 C-24.39 81.87 -22.8 83.55 -20.06 85.38 C-6.22 71.14 11.18 50.13 11.25 29.44 C11.03 19.25 8.49 14.1 1.49 6.65 C-5.37 0.54 -13.05 -1.96 -22.09 -1.83 C-32.03 -1.14 -39.21 3.09 -45.89 10.36 Z " fill="#091527" transform="translate(84.0625,18.625)"/>
<path d="M0 0 C4.15 2.89 6.63 5.9 8.38 10.66 C9.38 17.05 9.59 23.43 6.38 29.22 C3 33.74 -1.67 36.18 -6.62 38.66 C-13.27 39.44 -18.41 39.14 -23.9 35.15 C-28.81 30.89 -32.09 26.39 -33.03 19.82 C-33.23 13.26 -32.69 9.26 -28.26 4.27 C-19.88 -3.99 -10.43 -5.73 0 0 Z " fill="#09192F" transform="translate(75.62109375,31.34375)"/>
<path d="M0 0 C7.89 6.41 13.87 13.2 15.94 23.38 C16.22 27.73 16.19 32.02 15.94 36.38 C15.61 35.72 15.28 35.05 14.94 34.38 C14.44 34.21 14.44 34.21 11.94 33.38 C11.31 31.15 11.31 31.15 10.94 28.31 C9.35 18.55 6.54 12.07 -1.06 5.38 C-9.71 -0.01 -17.59 -1.84 -27.69 -0.2 C-36.26 1.99 -43.35 7.18 -48.13 14.64 C-51.88 21.62 -52.12 30.05 -50.6 37.73 C-49.89 40.03 -49.04 42.17 -48.06 44.38 C-47.67 45.28 -47.28 46.18 -46.88 47.11 C-43.72 53.88 -39.83 59.81 -35.31 65.74 C-32.06 70.07 -32.06 70.07 -32.06 73.38 C-32.72 73.05 -33.38 72.72 -34.06 72.38 C-34.06 73.36 -34.06 74.36 -34.06 75.38 C-37.06 74.38 -37.06 74.38 -38.05 72.62 C-38.38 71.88 -38.72 71.14 -39.06 70.38 C-40.11 68.7 -41.17 67.03 -42.25 65.38 C-43.52 63.38 -44.79 61.38 -46.06 59.38 C-46.68 58.41 -47.3 57.44 -47.94 56.45 C-54.29 46.12 -58.94 35.14 -56.59 22.92 C-53.85 12.23 -47.36 3.81 -37.95 -1.91 C-26.15 -8.11 -10.99 -7.65 0 0 Z " fill="#091427" transform="translate(84.0625,18.625)"/>
<path d="M0 0 C2.21 2.21 4.02 4.59 5.94 7.07 C8 9 8 9 10.48 9.59 C14.08 8.75 15.12 6.85 17.31 3.94 C21.39 -0.85 21.39 -0.85 24.08 -1.51 C26.19 -1.23 28 -0.71 30 0 C31.44 0.32 32.87 0.63 34.31 0.94 C38 2 38 2 41 4 C40.7 5.9 40.7 5.9 40 8 C25.12 15.74 3.26 14.66 -12.52 10.3 C-16.21 9.04 -17.79 8.32 -20 5 C-17.46 1.88 -14.97 1.19 -11.12 0.25 C-10.1 -0.01 -9.07 -0.28 -8.01 -0.55 C-4.85 -1.02 -3 -1.09 0 0 Z " fill="#F0EEE0" transform="translate(53,98)"/>
<path d="M0 0 C2.9 2.4 3.5 4.31 4 8 C7.3 8 10.6 8 14 8 C12 12 12 12 9.86 13.43 C9.25 13.95 8.63 14.46 8 15 C7.83 17.48 7.83 17.48 8.25 20.19 C8.38 21.09 8.51 21.99 8.64 22.92 C8.76 23.61 8.88 24.29 9 25 C7.97 24.3 6.94 23.6 5.88 22.88 C2.85 21.13 2.35 20.93 -1.25 21.69 C-1.7 21.9 -1.7 21.9 -4 23 C-4.99 23.33 -5.98 23.66 -7 24 C-6.93 23.41 -6.86 22.82 -6.79 22.21 C-6.35 15.8 -6.35 15.8 -8.34 13.36 C-9.85 12.18 -11.42 11.09 -13 10 C-13 9.34 -13 8.68 -13 8 C-9.7 8 -6.4 8 -3 8 C-2.69 6.87 -2.38 5.73 -2.06 4.56 C-1 1 -1 1 0 0 Z " fill="#EEECDE" transform="translate(63,37)"/>
<path d="M0 0 C0.33 0 0.66 0 1 0 C1.2 2.05 1.39 4.1 1.59 6.15 C1.72 6.76 1.86 7.37 2 8 C2.66 8.33 3.32 8.66 4 9 C4.4 15.02 2.59 21.17 -1 26 C-3.75 27.5 -3.75 27.5 -6 28 C-6.33 27.34 -6.66 26.68 -7 26 C-6.29 24.41 -5.5 22.85 -4.69 21.31 C-1.36 14.36 -0.69 7.61 0 0 Z " fill="#152030" transform="translate(95,44)"/>
<path d="M0 0 C-0.33 1.32 -0.66 2.64 -1 4 C-1.66 4 -2.32 4 -3 4 C-3 4.66 -3 5.32 -3 6 C-6.3 6 -9.6 6 -13 6 C-13 5.34 -13 4.68 -13 4 C-15 2.88 -15 2.88 -17 2 C-14.54 1.67 -12.08 1.33 -9.62 1 C-8.93 0.9 -8.23 0.81 -7.51 0.71 C-2.23 0 -2.23 0 0 0 Z " fill="#152130" transform="translate(87,108)"/>
<path d="M0 0 C0.33 0 0.66 0 1 0 C1 2.31 1 4.62 1 7 C1.66 6.67 2.32 6.34 3 6 C4.22 12.36 4.22 12.36 3.19 15.31 C2 17 2 17 0 19 C-1.59 12.82 -1.59 6.18 0 0 Z " fill="#010B1A" transform="translate(28,39)"/>
<path d="M0 0 C0.99 0.33 1.98 0.66 3 1 C2.34 5.29 1.68 9.58 1 14 C0.01 13.67 -0.98 13.34 -2 13 C-3.67 8.64 -2.48 5.28 -1 1 C-0.67 0.67 -0.34 0.34 0 0 Z " fill="#111E31" transform="translate(31,37)"/>
</svg>
