<svg xmlns="http://www.w3.org/2000/svg" width="128" height="128" viewBox="0 0 128 128"><path fill="#0e1c2f" d="M107 13c2.38 1.8 3.65 3.23 4.88 5.94.17 2.84-.64 4.5-1.88 7.06-1.98 1.99-1.98 1.99-4.19 3.88-2.17 2.05-2.17 2.05-3.81 4.12 0 4 0 4 1 7l3.31-.06C110 41 110 41 113 42c2.46 3.69 2.31 5.64 2 10l-2 3 2 5c.21 2.84.33 5.57.34 8.41l.02 2.43.01 5.07q.01 3.87.08 7.74l.01 4.94.04 2.33c-.03 3.7-.38 5.89-2.33 9.07-2.96 2.74-4.76 2.59-8.73 2.45l-3.44-.07c-3-.37-3-.37-6-2.37-.19-3.13-.19-3.13 0-6q-10.62-.47-21.23-.56-3.6-.06-7.2-.23C45.5 92.3 45.5 92.3 37.5 99.08a114 114 0 0 0-8.93 9.94c-2.4 2.91-3.22 3.86-6.87 5.13-3.66-.2-6.11-1.56-8.7-4.15-.52-7.87-.52-7.87 3-12l-1-3q-.16-4.12-.17-8.25l-.01-2.44-.01-5.12-.03-7.83-.01-4.98-.02-2.36c.01-3.82.09-6.79 2.25-10.02l-2-2c-.57-5.11-.57-5.11 0-8 2.93-2.84 4.74-2.99 8.81-3.19L27 41l.37-2.18a37 37 0 0 1 2.75-7.88l1.14-2.54a16.2 16.2 0 0 1 10.94-6.76q3.71-.18 7.42-.1h2.75q2.86.01 5.72.05 4.35.04 8.71.04l5.58.03 2.6.01c3.88.06 7.25.27 10.95 1.47L89 24c2.8-1.96 2.8-1.96 5.31-4.81 6.16-6.84 6.16-6.84 12.69-6.19"/><path fill="#0b1a2c" d="m103.06 40.77 2.38.04 2.37.02C110 41 110 41 113 42c2.46 3.69 2.3 5.64 2 10l-2 3 2 5c.2 2.84.33 5.57.34 8.41l.02 2.43v5.07l.09 7.74v4.94q.04 1.15.06 2.33c-.04 3.7-.4 5.89-2.34 9.07-2.95 2.74-4.76 2.59-8.73 2.45l-3.44-.07c-3-.37-3-.37-6-2.37-.2-3.12-.2-3.12 0-6q-11.03.14-22.05.32l-7.51.1-10.77.17-3.4.03-3.15.06-2.78.04C43 95 43 95 40 97l-2-2 34-34 1 3a71 71 0 0 1-5.31 6.19l-1.55 1.69A101 101 0 0 1 62 76h-2v2l2.17-.05 9.7-.14 3.42-.07 3.27-.03 3-.05L84 78l2 3 1.6-.49c2.92-.62 5.62-.64 8.59-.63l3.23-.01C102 80 102 80 103 81v7H88v-2l-15.75.37-5.37.13-7.7.18-2.42.05c-5.64.16-5.64.16-6.76 1.27h59c0-27.9 0-27.9-7.95-40.2C100 46 100 46 99 43c2-2 2-2 4.06-2.23"/><path fill="#f6f4e5" d="M96 40h2a109 109 0 0 1 3.38 6.19A64 64 0 0 0 109 58c1.67 5.02 1.23 10.25 1.25 15.5l.06 3.5.02 3.34.03 3.07C110 86 110 86 108.83 87.64c-2.56 1.9-4.33 1.72-7.49 1.7h-3.52l-3.8-.05-3.89-.01q-5.11-.02-10.22-.07l-10.44-.06Q59.24 89.09 49 89l2-3a70 70 0 0 1 8.29-.29l2.48.01q3.93.03 7.85.09l5.33.04L88 86v2l1.64-.99c2.87-1.23 5.01-1.21 8.11-1.13l2.98.05L103 86l-1-5q-2.87-.04-5.75-.06l-3.23-.04c-2.55.08-4.6.35-7.02 1.1l-2-3c-2.43-.43-2.43-.43-5.45-.51l-3.26-.11-3.41-.07-3.45-.1L60 78v-2q2.11-1.76 4.25-3.47a45 45 0 0 0 4.87-5.09l1.78-2.04q1.72-1.95 3.39-3.93c8.47-9.97 8.47-9.97 14.15-11.24 2.95.02 5.67.22 8.56.77l-.47-2.15-.59-2.79-.6-2.77L95 41z"/><path fill="#f5f3e5" d="M43.35 26.63 46 26.6l2.85.03h2.93q3.07 0 6.14.03 4.7.03 9.4 0l5.97.03h2.85l2.64.03h2.33C83 27 83 27 85 29c-2.37 2.37-2.82 2.25-6.03 2.26l-2.52.02h-2.73l-5.68.06-8.98.04q-4.32.02-8.65.08l-2.72-.01c-6.2.1-6.2.1-8.7 2.4L38 36l-1.37 2.95A558 558 0 0 1 34 45.32C33 48 33 48 33 50l30 1a337 337 0 0 1-15.4 16.87q-1.47 1.5-2.91 3.04c-9.1 9.59-9.1 9.59-14.31 10.13L27 81c-1 2.06-1 2.06-1 4h3c-.7 2-.7 2-2 4-2.44.44-2.44.44-5 0-2.25-1.66-2.92-2.55-3.4-5.34v-2.74l-.01-3.02.04-3.15-.04-3.1c.03-7.87 1.32-13.14 6.1-19.52 3.54-5.1 6-10.62 8.5-16.28l.98-2.15.85-1.94c2.13-3.82 3.94-5.13 8.33-5.13"/><path fill="#f0efe2" d="M103.87 17.66 106 18c.9 2.08.9 2.08 1 5-1.82 2.62-4.15 4.67-6.5 6.82l-3.72 3.52-1.93 1.83a80 80 0 0 0-4.88 5.35c-6.52 7.59-13.9 14.46-21.01 21.5-13.13 13.02-13.13 13.02-18.1 18.88-4.22 4.78-8.74 9.29-13.22 13.82l-3.54 3.6a642 642 0 0 1-5.17 5.28l-1.58 1.64c-2.4 2.4-3.8 3.7-7.22 4.1L18 109c-.75-2.21-.75-2.21-1-5 1.6-2.27 1.6-2.27 4.03-4.58l2.65-2.57 2.82-2.66 5.4-5.21 2.46-2.31c2.07-2.1 3.99-4.2 5.9-6.43 3.97-4.56 8.2-8.8 12.49-13.05l2.48-2.46L65.62 54.4l7.63-7.58 2.35-2.32c4.12-4.11 8.08-8.3 11.87-12.72 2.46-2.85 5.04-5.58 7.66-8.28l1.5-1.62c2.4-2.45 3.78-3.8 7.24-4.22"/><path fill="#09182d" d="m72 61 1 3a73 73 0 0 1-5.31 6.19l-1.56 1.69A100 100 0 0 1 62 76h-2v2l2.17-.05 9.71-.14 3.41-.07 3.26-.03 3.02-.05L84 78l2 3 1.61-.49c2.91-.62 5.61-.64 8.58-.63l3.23-.01C102 80 102 80 103 81v7H88v-2l-38 1c0-4 0-4 2.02-6.47l2.79-2.73 1.48-1.47L61 71.75l3.18-3.13Q68.08 64.8 72 61"/><path fill="#ecebdf" d="m20 61 3 4 1.2-1.51C26 62 26 62 28.3 61.82c9.29 1.1 9.29 1.1 12.7 4.18 1 2.5 1 2.5 1 5-1.31 1.56-1.31 1.56-3 3q-1.02 2-2 4c-2.34 2.34-2.9 2.23-6.06 2.38L27 81c-1 2.06-1 2.06-1 4h3c-.69 2-.69 2-2 4-2.44.44-2.44.44-5 0-1.64-1.2-1.64-1.2-3-3-.36-2.42-.36-2.42-.33-5.25l.02-3.09.06-3.22.02-3.23c.08-7.9.08-7.9 1.23-10.21"/><path fill="#050f21" d="m49.77 21.57 2.77.01q2.9.01 5.77.06 4.43.06 8.84.07l5.62.05 2.67.02 2.48.04 2.18.03C82 22 82 22 85 23l-1 3-3.77.04-13.9.22-6 .08-8.65.14-2.71.02c-4.75.12-8.2.3-11.97 3.5-1.23 1.88-1.23 1.88-2.1 3.97l-.98 2.28-.98 2.37a241 241 0 0 1-1.97 4.66l-.86 2.1C29 47 29 47 26.88 47.72L25 48v-3h-5v-4h7l.37-2.19a37 37 0 0 1 2.76-7.88l1.13-2.53c4.77-6.58 11-6.98 18.5-6.83"/><path fill="#101b2d" d="m103.06 40.77 2.38.04 2.37.02C110 41 110 41 113 42c2.46 3.69 2.3 5.64 2 10l-2 3c-.12 2.69-.12 2.69 0 5l-4 1-1.7-3a209 209 0 0 0-6.25-10.2C100 46 100 46 99 43c2-2 2-2 4.06-2.23"/><path fill="#0d1d30" d="M104 62c1 1 1 1 1.13 2.81l-.01 2.19.01 2.19C105 71 105 71 104 72q-3.75.15-7.5.12l-2.13.02c-5.24-.01-5.24-.01-6.37-1.14-.31-2.38-.31-2.38 0-5 4.6-4.6 9.88-4.2 16-4"/><path fill="#0d1e32" d="M28.2 61.92c9.35.97 9.35.97 12.8 4.08.88 2.63.88 2.63 1 5-1.98 1.98-5.73 1.19-8.43 1.19l-2.11.04c-1.82 0-3.64-.11-5.46-.23-2-2-2-2-2.25-5 .3-3.5.75-4.94 4.46-5.08"/><path fill="#bebfba" d="m96.06 79.88 3.3-.02C102 80 102 80 103 81v7H88v-2H52v-1l3.2-.05q5.85-.08 11.7-.22l5.07-.08 7.27-.14 2.31-.02c2.12-.05 2.12-.05 5.45-.5l1-3c2.74-1.36 5-1.12 8.06-1.11"/><path fill="#0a162a" d="M17 42c2.12.38 2.12.38 4 1l-1 2h5v3l3 1-1.46 2.05-1.92 2.7-1.89 2.67A47 47 0 0 0 19 63c-1.89-3.19-2-5.35-2-9l-2-2c-.27-1.88-.27-1.88-.25-4l-.02-2.12C15 44 15 44 17 42"/><path fill="#030d1e" d="m34 97 1 2-1 2 2 1q-2.54 2.74-5.12 5.44L29.44 109c-3.31 3.42-5.65 4.89-10.44 5-2.33-1.14-4.17-2.17-6-4-.24-7.52-.24-7.52 1-10l2 1-.62 2.75c-.39 3.36-.18 4.49 1.62 7.25 5.02-1.47 7.8-4.45 11.31-8.12l1.67-1.71Q32 99.09 34 97"/><path fill="#030c1e" d="M16 57c1.48 1.13 1.48 1.13 3 3 .34 2.73.34 2.73.29 5.98l-.03 3.53-.07 3.68-.04 3.71q-.06 4.56-.15 9.1h-1l-1-12-1 21h-1l-.05-15.75-.03-5.37-.02-7.69-.01-2.44q.01-2.87.11-5.75z"/><path fill="#242a38" d="m90 80 5.94-.06 3.34-.04C102 80 102 80 103 81q.06 2.5 0 5-2.4.16-4.81.25l-2.71.14C93 86 93 86 91.18 84.11 90 82 90 82 90 80"/><path fill="#e6e7e2" d="M39 27c2.12.38 2.12.38 4 1l-.99 1.5A77 77 0 0 0 35 43l-3-1v2h-2c1.72-6.09 4.48-12.48 9-17"/><path fill="#e3e4de" d="m85 51 1 2c-5.51 8.62-14.74 15.83-22 23 0-4.12 2.18-5.74 4.88-8.56l1.48-1.59C75.13 60.79 80.04 55.87 85 51"/><path fill="#030c1e" d="M103 41c6.62-.12 6.62-.12 10 1 2.45 3.68 2.4 5.65 2 10l-3 2-.52-1.71-.73-2.23-.7-2.21C109 46 109 46 106.89 45.25L105 45v-2zm9 6 1 3v-3z"/><path fill="#fcfbf3" d="M43 27c2.8-.45 2.8-.45 6.32-.39l3.81.04 3.99.1 4.02.05q4.93.08 9.86.2v1l-12 1v1l-18 1z"/><path fill="#596372" d="M101 41c2.62.38 2.62.38 5 1l-1 3 5 1v4l-4-1v-2h-2l-1 2c-2.25-2.05-3-3.01-4-6z"/><path fill="#686f7c" d="M17 42c2.06.44 2.06.44 4 1l-1 2h5c-.75 2.5-.75 2.5-2 5-4 0-4 0-7-1q-.06-3 0-6z"/><path fill="#e5e6e4" d="M96 40h2a24 24 0 0 1 2.12 3.88l1.08 2.17C102 48 102 48 102 50h-5l-1.06-4.44-.6-2.49L95 41z"/></svg>