<?xml version="1.0" encoding="UTF-8"?>
<!-- Generator: visioncortex VTracer 0.6.12 -->
<svg version="1.1" xmlns="http://www.w3.org/2000/svg" width="128" height="128" viewBox="0 0 128 128" preserveAspectRatio="xMidYMid meet">
<path d="M0 0 C2.38 1.8 3.65 3.23 4.88 5.94 C5.05 8.78 4.24 10.44 3 13 C1.02 14.99 1.02 14.99 -1.19 16.88 C-3.36 18.93 -3.36 18.93 -5 21 C-5 25 -5 25 -4 28 C-2.91 27.98 -1.81 27.96 -0.69 27.94 C3 28 3 28 6 29 C8.46 32.69 8.31 34.64 8 39 C7.34 39.99 6.68 40.98 6 42 C6.66 43.67 7.33 45.34 8 47 C8.21 49.84 8.33 52.57 8.34 55.41 C8.34 55.81 8.34 55.81 8.36 57.84 C8.37 59.53 8.37 61.22 8.37 62.91 C8.37 65.49 8.41 68.07 8.45 70.65 C8.46 72.3 8.46 73.95 8.46 75.59 C8.48 76.36 8.49 77.13 8.5 77.92 C8.47 81.62 8.12 83.81 6.17 86.99 C3.21 89.73 1.41 89.58 -2.56 89.44 C-3.13 89.43 -3.13 89.43 -6 89.37 C-9 89 -9 89 -12 87 C-12.19 83.87 -12.19 83.87 -12 81 C-19.08 80.68 -26.15 80.51 -33.23 80.44 C-35.63 80.4 -38.03 80.32 -40.43 80.21 C-61.5 79.3 -61.5 79.3 -69.5 86.08 C-72.73 89.21 -75.59 92.54 -78.43 96.02 C-80.83 98.93 -81.65 99.88 -85.3 101.15 C-88.96 100.95 -91.41 99.59 -94 97 C-94.52 89.13 -94.52 89.13 -91 85 C-91.33 84.01 -91.66 83.02 -92 82 C-92.11 79.24 -92.16 76.51 -92.17 73.75 C-92.17 72.95 -92.17 72.14 -92.18 71.31 C-92.18 69.6 -92.19 67.89 -92.19 66.19 C-92.19 63.58 -92.21 60.97 -92.22 58.36 C-92.23 56.7 -92.23 55.04 -92.23 53.38 C-92.24 52.6 -92.24 51.82 -92.25 51.02 C-92.24 47.2 -92.16 44.23 -90 41 C-90.66 40.34 -91.32 39.68 -92 39 C-92.57 33.89 -92.57 33.89 -92 31 C-89.07 28.16 -87.26 28.01 -83.19 27.81 C-82.14 27.87 -81.08 27.94 -80 28 C-79.88 27.28 -79.76 26.56 -79.63 25.82 C-78.99 22.96 -78.11 20.58 -76.88 17.94 C-76.5 17.1 -76.13 16.26 -75.74 15.4 C-72.99 11.61 -69.4 9.39 -64.8 8.64 C-62.32 8.51 -59.86 8.5 -57.38 8.54 C-56.47 8.54 -55.56 8.54 -54.63 8.54 C-52.72 8.55 -50.82 8.56 -48.91 8.59 C-46.01 8.62 -43.11 8.63 -40.2 8.63 C-38.34 8.64 -36.48 8.65 -34.62 8.66 C-33.76 8.67 -32.9 8.67 -32.02 8.67 C-28.14 8.73 -24.77 8.94 -21.07 10.14 C-20.06 10.43 -19.04 10.71 -18 11 C-15.2 9.04 -15.2 9.04 -12.69 6.19 C-6.53 -0.65 -6.53 -0.65 0 0 Z " fill="#0E1C2F" transform="translate(107,13)"/>
<path d="M0 0 C0.79 0.01 1.57 0.03 2.38 0.04 C3.16 0.05 3.94 0.06 4.75 0.06 C6.94 0.23 6.94 0.23 9.94 1.23 C12.4 4.92 12.25 6.87 11.94 11.23 C11.28 12.22 10.62 13.21 9.94 14.23 C10.6 15.9 11.27 17.57 11.94 19.23 C12.15 22.07 12.27 24.8 12.28 27.64 C12.28 28.04 12.28 28.04 12.3 30.07 C12.31 31.76 12.31 33.45 12.31 35.14 C12.32 37.72 12.35 40.3 12.39 42.88 C12.4 44.53 12.4 46.18 12.4 47.82 C12.42 48.59 12.43 49.36 12.45 50.15 C12.41 53.85 12.06 56.04 10.11 59.22 C7.16 61.96 5.35 61.81 1.38 61.67 C0.24 61.65 -0.89 61.62 -2.06 61.6 C-5.06 61.23 -5.06 61.23 -8.06 59.23 C-8.25 56.11 -8.25 56.11 -8.06 53.23 C-15.41 53.32 -22.76 53.43 -30.11 53.55 C-32.61 53.59 -35.11 53.62 -37.62 53.65 C-41.21 53.7 -44.8 53.76 -48.39 53.82 C-49.51 53.83 -50.63 53.84 -51.79 53.85 C-52.31 53.86 -52.31 53.86 -54.94 53.91 C-55.86 53.92 -56.78 53.94 -57.72 53.95 C-60.06 54.23 -60.06 54.23 -63.06 56.23 C-63.72 55.57 -64.38 54.91 -65.06 54.23 C-53.84 43.01 -42.62 31.79 -31.06 20.23 C-30.89 20.73 -30.89 20.73 -30.06 23.23 C-31.76 25.45 -33.44 27.41 -35.37 29.42 C-35.88 29.98 -36.4 30.54 -36.92 31.11 C-38.25 32.53 -39.65 33.89 -41.06 35.23 C-41.72 35.23 -42.38 35.23 -43.06 35.23 C-43.06 35.89 -43.06 36.55 -43.06 37.23 C-42.34 37.21 -41.63 37.2 -40.89 37.18 C-37.65 37.12 -34.42 37.08 -31.18 37.04 C-30.62 37.03 -30.62 37.03 -27.77 36.97 C-27.23 36.96 -27.23 36.96 -24.5 36.94 C-24.01 36.93 -24.01 36.93 -21.49 36.89 C-21.09 36.95 -21.09 36.95 -19.06 37.23 C-18.4 38.22 -17.74 39.21 -17.06 40.23 C-16.53 40.07 -15.99 39.91 -15.45 39.74 C-12.54 39.12 -9.84 39.1 -6.87 39.11 C-6.34 39.1 -6.34 39.1 -3.64 39.1 C-1.06 39.23 -1.06 39.23 -0.06 40.23 C-0.06 42.54 -0.06 44.85 -0.06 47.23 C-5.01 47.23 -9.96 47.23 -15.06 47.23 C-15.06 46.57 -15.06 45.91 -15.06 45.23 C-20.31 45.35 -25.56 45.47 -30.81 45.6 C-32.6 45.65 -34.39 45.69 -36.18 45.73 C-38.74 45.79 -41.3 45.85 -43.87 45.91 C-44.67 45.93 -45.48 45.95 -46.3 45.96 C-51.94 46.12 -51.94 46.12 -53.06 47.23 C-33.59 47.23 -14.12 47.23 5.94 47.23 C5.94 19.33 5.94 19.33 -2.01 7.03 C-3.06 5.23 -3.06 5.23 -4.06 2.23 C-2.06 0.23 -2.06 0.23 0 0 Z " fill="#0B1A2C" transform="translate(103.05859375,40.76953125)"/>
<path d="M0 0 C0.66 0 1.32 0 2 0 C3.2 2.02 4.31 4.09 5.38 6.19 C7.6 10.55 9.92 14.21 13 18 C14.67 23.02 14.23 28.25 14.25 33.5 C14.27 34.65 14.29 35.81 14.31 37 C14.32 37.55 14.32 37.55 14.33 40.34 C14.34 41.36 14.35 42.37 14.36 43.41 C14 46 14 46 12.83 47.64 C10.27 49.54 8.5 49.36 5.34 49.34 C4.17 49.34 3.01 49.34 1.82 49.34 C0.56 49.32 -0.69 49.31 -1.98 49.29 C-3.26 49.29 -4.55 49.28 -5.87 49.28 C-9.28 49.27 -12.68 49.24 -16.09 49.21 C-19.57 49.18 -23.05 49.16 -26.53 49.15 C-33.35 49.11 -40.18 49.06 -47 49 C-46.34 48.01 -45.68 47.02 -45 46 C-42.16 45.73 -39.55 45.65 -36.71 45.71 C-35.89 45.71 -35.07 45.72 -34.23 45.72 C-31.61 45.74 -28.99 45.77 -26.38 45.81 C-24.6 45.83 -22.83 45.84 -21.05 45.85 C-16.7 45.89 -12.35 45.94 -8 46 C-8 46.66 -8 47.32 -8 48 C-7.73 47.84 -7.73 47.84 -6.36 47.01 C-3.49 45.78 -1.35 45.8 1.75 45.88 C2.24 45.88 2.24 45.88 4.73 45.93 C5.48 45.95 6.23 45.98 7 46 C6.67 44.35 6.34 42.7 6 41 C4.08 40.97 2.17 40.95 0.25 40.94 C-0.82 40.93 -1.88 40.91 -2.98 40.9 C-5.53 40.98 -7.58 41.25 -10 42 C-10.66 41.01 -11.32 40.02 -12 39 C-14.43 38.57 -14.43 38.57 -17.45 38.49 C-18.52 38.45 -19.6 38.42 -20.71 38.38 C-21.83 38.36 -22.96 38.34 -24.12 38.31 C-25.26 38.28 -26.4 38.24 -27.57 38.21 C-30.38 38.13 -33.19 38.06 -36 38 C-36 37.34 -36 36.68 -36 36 C-34.59 34.83 -33.18 33.67 -31.75 32.53 C-29.93 30.94 -28.43 29.28 -26.88 27.44 C-26.29 26.77 -25.7 26.09 -25.1 25.4 C-23.96 24.1 -22.82 22.79 -21.71 21.47 C-13.24 11.5 -13.24 11.5 -7.56 10.23 C-4.61 10.25 -1.89 10.45 1 11 C0.84 10.29 0.69 9.58 0.53 8.85 C0.43 8.39 0.43 8.39 -0.06 6.06 C-0.16 5.6 -0.16 5.6 -0.66 3.29 C-0.77 2.53 -0.88 1.78 -1 1 C-0.67 0.67 -0.34 0.34 0 0 Z " fill="#F6F4E5" transform="translate(96,40)"/>
<path d="M0 0 C0.44 -0 0.44 -0 2.65 -0.02 C3.12 -0.01 3.12 -0.01 5.5 0.01 C5.98 0.01 5.98 0.01 8.43 0.01 C10.48 0.01 12.52 0.02 14.57 0.04 C17.71 0.06 20.84 0.06 23.98 0.05 C25.97 0.06 27.95 0.06 29.94 0.07 C30.88 0.07 31.82 0.07 32.79 0.07 C33.67 0.08 34.54 0.09 35.43 0.1 C35.82 0.1 35.82 0.1 37.76 0.11 C39.65 0.37 39.65 0.37 41.65 2.37 C39.28 4.74 38.83 4.62 35.62 4.63 C35.2 4.63 35.2 4.63 33.1 4.65 C32.2 4.65 31.3 4.65 30.37 4.65 C28.48 4.67 26.59 4.69 24.69 4.71 C21.7 4.73 18.71 4.75 15.71 4.75 C12.83 4.76 9.95 4.8 7.06 4.83 C6.61 4.83 6.61 4.83 4.34 4.82 C-1.85 4.92 -1.85 4.92 -4.35 7.22 C-4.68 7.93 -5.01 8.64 -5.35 9.37 C-5.81 10.34 -6.26 11.32 -6.73 12.32 C-7.16 13.37 -7.59 14.42 -8.04 15.5 C-8.47 16.55 -8.91 17.61 -9.36 18.69 C-10.35 21.37 -10.35 21.37 -10.35 23.37 C-5.4 23.54 -5.4 23.54 19.65 24.37 C14.67 30.19 9.59 35.78 4.24 41.24 C3.26 42.25 2.29 43.26 1.33 44.28 C-7.76 53.87 -7.76 53.87 -12.98 54.41 C-14.09 54.4 -15.2 54.38 -16.35 54.37 C-17.35 56.43 -17.35 56.43 -17.35 58.37 C-16.36 58.37 -15.37 58.37 -14.35 58.37 C-15.04 60.37 -15.04 60.37 -16.35 62.37 C-18.79 62.81 -18.79 62.81 -21.35 62.37 C-23.6 60.71 -24.27 59.82 -24.74 57.03 C-24.74 56.13 -24.74 55.22 -24.75 54.29 C-24.75 53.3 -24.75 52.3 -24.76 51.27 C-24.75 50.23 -24.73 49.19 -24.72 48.12 C-24.73 47.1 -24.75 46.07 -24.76 45.02 C-24.73 37.15 -23.44 31.88 -18.66 25.5 C-15.12 20.4 -12.66 14.88 -10.15 9.22 C-9.83 8.51 -9.51 7.8 -9.18 7.07 C-8.9 6.43 -8.62 5.79 -8.33 5.13 C-6.2 1.31 -4.39 -0 0 0 Z " fill="#F5F3E5" transform="translate(43.347900390625,26.627685546875)"/>
<path d="M0 0 C0.7 0.11 1.41 0.23 2.13 0.34 C3.04 2.42 3.04 2.42 3.13 5.34 C1.31 7.96 -1.02 10.01 -3.37 12.16 C-4.61 13.33 -5.85 14.5 -7.09 15.68 C-7.72 16.28 -8.36 16.89 -9.02 17.51 C-10.75 19.23 -12.33 20.99 -13.9 22.86 C-20.42 30.45 -27.79 37.32 -34.91 44.36 C-48.04 57.38 -48.04 57.38 -53.01 63.24 C-57.23 68.02 -61.75 72.53 -66.23 77.06 C-67.41 78.26 -68.59 79.46 -69.77 80.67 C-71.48 82.44 -73.21 84.19 -74.94 85.94 C-75.2 86.21 -75.2 86.21 -76.52 87.58 C-78.92 89.98 -80.31 91.28 -83.74 91.68 C-84.44 91.57 -85.14 91.46 -85.87 91.34 C-86.62 89.13 -86.62 89.13 -86.87 86.34 C-85.26 84.07 -85.26 84.07 -82.84 81.76 C-81.96 80.91 -81.09 80.06 -80.19 79.19 C-79.26 78.31 -78.33 77.43 -77.37 76.53 C-75.56 74.8 -73.76 73.06 -71.96 71.32 C-71.56 70.94 -71.56 70.94 -69.51 69.01 C-67.44 66.92 -65.52 64.81 -63.6 62.58 C-59.64 58.02 -55.41 53.78 -51.12 49.53 C-50.3 48.72 -49.48 47.9 -48.64 47.07 C-45.18 43.62 -41.71 40.18 -38.25 36.74 C-35.7 34.22 -33.16 31.69 -30.62 29.16 C-29.84 28.39 -29.07 27.63 -28.27 26.84 C-24.15 22.73 -20.19 18.54 -16.4 14.12 C-13.94 11.27 -11.36 8.54 -8.74 5.84 C-8.24 5.31 -7.74 4.77 -7.23 4.22 C-4.84 1.77 -3.46 0.42 0 0 Z " fill="#F0EFE2" transform="translate(103.8671875,17.65625)"/>
<path d="M0 0 C0.33 0.99 0.66 1.98 1 3 C-0.7 5.22 -2.39 7.18 -4.31 9.19 C-4.82 9.75 -5.34 10.31 -5.87 10.88 C-7.2 12.3 -8.59 13.66 -10 15 C-10.66 15 -11.32 15 -12 15 C-12 15.66 -12 16.32 -12 17 C-11.28 16.98 -10.57 16.97 -9.83 16.95 C-6.59 16.89 -3.36 16.85 -0.12 16.81 C1 16.79 2.13 16.76 3.29 16.74 C4.37 16.73 5.45 16.72 6.55 16.71 C7.05 16.7 7.05 16.7 9.57 16.66 C10.37 16.77 11.17 16.88 12 17 C12.66 17.99 13.32 18.98 14 20 C14.53 19.84 15.06 19.68 15.61 19.51 C18.52 18.89 21.22 18.87 24.19 18.88 C24.72 18.87 24.72 18.87 27.42 18.87 C30 19 30 19 31 20 C31 22.31 31 24.62 31 27 C26.05 27 21.1 27 16 27 C16 26.34 16 25.68 16 25 C9.73 25.16 9.73 25.16 -22 26 C-22 22 -22 22 -19.98 19.53 C-19.06 18.63 -18.14 17.72 -17.19 16.8 C-16.7 16.31 -16.21 15.83 -15.71 15.33 C-14.15 13.8 -12.57 12.27 -11 10.75 C-9.94 9.71 -8.88 8.67 -7.82 7.62 C-5.22 5.07 -2.62 2.53 0 0 Z " fill="#09182D" transform="translate(72,61)"/>
<path d="M0 0 C0.99 1.32 1.98 2.64 3 4 C3.39 3.5 3.79 3 4.2 2.49 C6 1 6 1 8.3 0.82 C17.59 1.92 17.59 1.92 21 5 C22 7.5 22 7.5 22 10 C20.69 11.56 20.69 11.56 19 13 C18.32 14.33 17.65 15.66 17 17 C14.66 19.34 14.1 19.23 10.94 19.38 C9.64 19.58 8.34 19.79 7 20 C6 22.06 6 22.06 6 24 C6.99 24 7.98 24 9 24 C8.31 26 8.31 26 7 28 C4.56 28.44 4.56 28.44 2 28 C0.36 26.8 0.36 26.8 -1 25 C-1.36 22.58 -1.36 22.58 -1.33 19.75 C-1.32 18.73 -1.32 17.71 -1.31 16.66 C-1.29 15.6 -1.27 14.53 -1.25 13.44 C-1.24 12.37 -1.24 11.3 -1.23 10.21 C-1.15 2.31 -1.15 2.31 0 0 Z " fill="#ECEBDF" transform="translate(20,61)"/>
<path d="M0 0 C0.92 0 1.83 0.01 2.77 0.01 C4.7 0.02 6.62 0.04 8.54 0.07 C11.49 0.11 14.44 0.13 17.38 0.14 C19.26 0.16 21.13 0.17 23 0.19 C23.88 0.19 24.76 0.2 25.67 0.21 C26.49 0.22 27.31 0.24 28.15 0.25 C28.51 0.25 28.51 0.25 30.33 0.28 C32.23 0.43 32.23 0.43 35.23 1.43 C34.9 2.42 34.57 3.41 34.23 4.43 C32.99 4.44 31.74 4.45 30.46 4.47 C25.83 4.53 21.2 4.61 16.56 4.69 C14.56 4.72 12.56 4.75 10.56 4.77 C7.67 4.81 4.79 4.86 1.91 4.91 C1.02 4.92 0.12 4.93 -0.8 4.93 C-5.55 5.05 -8.99 5.22 -12.77 8.43 C-14 10.31 -14 10.31 -14.86 12.4 C-15.19 13.16 -15.52 13.91 -15.85 14.68 C-16.18 15.46 -16.5 16.25 -16.83 17.05 C-17.47 18.61 -18.13 20.17 -18.8 21.71 C-19.08 22.4 -19.37 23.09 -19.66 23.8 C-20.77 25.43 -20.77 25.43 -22.89 26.16 C-23.2 26.2 -23.2 26.2 -24.77 26.43 C-24.77 25.44 -24.77 24.45 -24.77 23.43 C-26.42 23.43 -28.07 23.43 -29.77 23.43 C-29.77 22.11 -29.77 20.79 -29.77 19.43 C-27.46 19.43 -25.15 19.43 -22.77 19.43 C-22.64 18.71 -22.52 17.98 -22.4 17.24 C-21.76 14.39 -20.88 12.01 -19.64 9.36 C-19.27 8.53 -18.89 7.69 -18.51 6.83 C-13.74 0.25 -7.5 -0.15 0 0 Z " fill="#050F21" transform="translate(49.765625,21.57421875)"/>
<path d="M0 0 C0.79 0.01 1.57 0.03 2.38 0.04 C2.77 0.05 2.77 0.05 4.75 0.06 C6.94 0.23 6.94 0.23 9.94 1.23 C12.4 4.92 12.25 6.87 11.94 11.23 C11.61 11.73 11.61 11.73 9.94 14.23 C9.82 16.92 9.82 16.92 9.94 19.23 C8.62 19.56 7.3 19.89 5.94 20.23 C5.38 19.24 4.83 18.25 4.25 17.23 C2.28 13.76 0.16 10.39 -2.01 7.03 C-3.06 5.23 -3.06 5.23 -4.06 2.23 C-2.06 0.23 -2.06 0.23 0 0 Z " fill="#101B2D" transform="translate(103.05859375,40.76953125)"/>
<path d="M0 0 C1 1 1 1 1.13 2.81 C1.13 3.53 1.13 4.26 1.12 5 C1.13 5.36 1.13 5.36 1.13 7.19 C1 9 1 9 0 10 C-2.51 10.1 -4.99 10.14 -7.5 10.12 C-8.2 10.13 -8.91 10.13 -9.63 10.14 C-14.87 10.13 -14.87 10.13 -16 9 C-16.31 6.62 -16.31 6.62 -16 4 C-11.4 -0.6 -6.12 -0.2 0 0 Z " fill="#0D1D30" transform="translate(104,62)"/>
<path d="M0 0 C9.34 0.97 9.34 0.97 12.79 4.08 C13.67 6.71 13.67 6.71 13.79 9.08 C11.81 11.06 8.06 10.27 5.36 10.27 C5.01 10.28 5.01 10.28 3.25 10.31 C1.43 10.31 -0.39 10.2 -2.21 10.08 C-4.21 8.08 -4.21 8.08 -4.46 5.08 C-4.16 1.58 -3.71 0.14 0 0 Z " fill="#0D1E32" transform="translate(28.20703125,61.91796875)"/>
<path d="M0 0 C0.54 -0 0.54 -0 3.29 -0.01 C5.94 0.12 5.94 0.12 6.94 1.12 C6.94 3.44 6.94 5.75 6.94 8.12 C1.99 8.12 -2.96 8.12 -8.06 8.12 C-8.06 7.47 -8.06 6.81 -8.06 6.12 C-19.94 6.12 -31.82 6.12 -44.06 6.12 C-44.06 5.8 -44.06 5.47 -44.06 5.12 C-43.01 5.11 -41.95 5.1 -40.87 5.08 C-36.96 5.02 -33.06 4.95 -29.16 4.86 C-27.47 4.83 -25.78 4.8 -24.09 4.78 C-21.67 4.75 -19.24 4.69 -16.82 4.64 C-16.44 4.63 -16.44 4.63 -14.51 4.62 C-12.39 4.56 -12.39 4.56 -9.06 4.12 C-8.73 3.14 -8.4 2.14 -8.06 1.12 C-5.32 -0.25 -3.06 -0.01 0 0 Z " fill="#BEBFBA" transform="translate(96.0625,79.875)"/>
<path d="M0 0 C2.12 0.38 2.12 0.38 4 1 C3.67 1.66 3.34 2.32 3 3 C4.65 3 6.3 3 8 3 C8 3.99 8 4.98 8 6 C8.99 6.33 9.98 6.66 11 7 C10.52 7.68 10.04 8.35 9.54 9.05 C8.91 9.94 8.28 10.83 7.62 11.75 C7 12.63 6.37 13.51 5.73 14.42 C4.29 16.57 3.09 18.65 2 21 C0.11 17.81 0 15.65 0 12 C-0.66 11.34 -1.32 10.68 -2 10 C-2.27 8.12 -2.27 8.12 -2.25 6 C-2.26 5.3 -2.26 4.6 -2.27 3.88 C-2 2 -2 2 0 0 Z " fill="#0A162A" transform="translate(17,42)"/>
<path d="M0 0 C0.33 0.66 0.66 1.32 1 2 C0.67 2.66 0.34 3.32 0 4 C0.66 4.33 1.32 4.66 2 5 C0.31 6.83 -1.4 8.64 -3.12 10.44 C-3.6 10.95 -4.07 11.47 -4.56 12 C-7.87 15.42 -10.21 16.89 -15 17 C-17.33 15.86 -19.17 14.83 -21 13 C-21.24 5.48 -21.24 5.48 -20 3 C-19.34 3.33 -18.68 3.66 -18 4 C-18.21 4.91 -18.41 5.81 -18.62 6.75 C-19.01 10.11 -18.8 11.24 -17 14 C-11.98 12.53 -9.2 9.55 -5.69 5.88 C-5.14 5.31 -4.59 4.75 -4.02 4.17 C-2.67 2.79 -1.34 1.39 0 0 Z " fill="#030D1E" transform="translate(34,97)"/>
<path d="M0 0 C1.48 1.13 1.48 1.13 3 3 C3.34 5.73 3.34 5.73 3.29 8.98 C3.28 10.14 3.27 11.31 3.26 12.51 C3.24 13.72 3.21 14.94 3.19 16.19 C3.17 17.41 3.16 18.64 3.15 19.9 C3.11 22.94 3.06 25.97 3 29 C2.67 29 2.34 29 2 29 C1.67 25.04 1.34 21.08 1 17 C0.67 23.93 0.34 30.86 0 38 C-0.33 38 -0.66 38 -1 38 C-1.02 32.75 -1.04 27.5 -1.05 22.25 C-1.06 20.46 -1.07 18.67 -1.08 16.88 C-1.09 14.32 -1.09 11.76 -1.1 9.19 C-1.1 8.39 -1.11 7.58 -1.11 6.75 C-1.11 4.84 -1.06 2.92 -1 1 C-0.67 0.67 -0.34 0.34 0 0 Z " fill="#030C1E" transform="translate(16,57)"/>
<path d="M0 0 C1.98 -0.03 3.96 -0.05 5.94 -0.06 C7.04 -0.07 8.14 -0.09 9.28 -0.1 C12 0 12 0 13 1 C13.04 2.67 13.04 4.33 13 6 C11.4 6.11 9.79 6.19 8.19 6.25 C7.29 6.3 6.4 6.34 5.48 6.39 C3 6 3 6 1.18 4.11 C0 2 0 2 0 0 Z " fill="#242A38" transform="translate(90,80)"/>
<path d="M0 0 C2.12 0.38 2.12 0.38 4 1 C3.67 1.5 3.35 1.99 3.01 2.5 C0.19 6.89 -2.08 11.16 -4 16 C-4.99 15.67 -5.98 15.34 -7 15 C-7 15.66 -7 16.32 -7 17 C-7.66 17 -8.32 17 -9 17 C-7.28 10.91 -4.52 4.52 0 0 Z " fill="#E6E7E2" transform="translate(39,27)"/>
<path d="M0 0 C0.33 0.66 0.66 1.32 1 2 C-4.51 10.62 -13.74 17.83 -21 25 C-21 20.88 -18.82 19.26 -16.12 16.44 C-15.63 15.91 -15.14 15.39 -14.64 14.85 C-9.87 9.79 -4.96 4.87 0 0 Z " fill="#E3E4DE" transform="translate(85,51)"/>
<path d="M0 0 C6.62 -0.12 6.62 -0.12 10 1 C12.45 4.68 12.4 6.65 12 11 C11.01 11.66 10.02 12.32 9 13 C8.91 12.72 8.91 12.72 8.48 11.29 C8.24 10.55 8 9.82 7.75 9.06 C7.52 8.33 7.29 7.6 7.05 6.85 C6 5 6 5 3.89 4.25 C3.27 4.16 2.64 4.08 2 4 C2 3.34 2 2.68 2 2 C1.34 1.34 0.68 0.68 0 0 Z M9 6 C9.33 6.99 9.66 7.98 10 9 C10 8.01 10 7.02 10 6 C9.67 6 9.34 6 9 6 Z " fill="#030C1E" transform="translate(103,41)"/>
<path d="M0 0 C2.8 -0.45 2.8 -0.45 6.32 -0.39 C6.95 -0.38 6.95 -0.38 10.13 -0.35 C11.45 -0.32 12.77 -0.28 14.12 -0.25 C15.46 -0.23 16.8 -0.21 18.14 -0.2 C21.43 -0.15 24.71 -0.08 28 0 C28 0.33 28 0.66 28 1 C26.02 1.16 26.02 1.16 16 2 C16 2.33 16 2.66 16 3 C10.06 3.33 4.12 3.66 -2 4 C-1.34 2.68 -0.68 1.36 0 0 Z " fill="#FCFBF3" transform="translate(43,27)"/>
<path d="M0 0 C2.62 0.38 2.62 0.38 5 1 C4.67 1.99 4.34 2.98 4 4 C5.65 4.33 7.3 4.66 9 5 C9 6.32 9 7.64 9 9 C7.68 8.67 6.36 8.34 5 8 C5 7.34 5 6.68 5 6 C4.34 6 3.68 6 3 6 C2.67 6.66 2.34 7.32 2 8 C-0.25 5.95 -1 4.99 -2 2 C-1.34 1.34 -0.68 0.68 0 0 Z " fill="#596372" transform="translate(101,41)"/>
<path d="M0 0 C2.06 0.44 2.06 0.44 4 1 C3.67 1.66 3.34 2.32 3 3 C4.65 3 6.3 3 8 3 C7.25 5.5 7.25 5.5 6 8 C2 8 2 8 -1 7 C-1.04 5 -1.04 3 -1 1 C-0.67 0.67 -0.34 0.34 0 0 Z " fill="#686F7C" transform="translate(17,42)"/>
<path d="M0 0 C0.66 0 1.32 0 2 0 C3.07 1.68 3.07 1.68 4.12 3.88 C4.48 4.59 4.83 5.31 5.2 6.05 C6 8 6 8 6 10 C4.35 10 2.7 10 1 10 C0.64 8.52 0.29 7.04 -0.06 5.56 C-0.26 4.74 -0.46 3.92 -0.66 3.07 C-0.72 2.73 -0.72 2.73 -1 1 C-0.67 0.67 -0.34 0.34 0 0 Z " fill="#E5E6E4" transform="translate(96,40)"/>
</svg>
