<svg xmlns="http://www.w3.org/2000/svg" width="128" height="128" viewBox="0 0 128 128"><path fill="#07172c" d="M64 24c2.32.06 2.32.06 5 1a34 34 0 0 1 3.94 6l2.08 3.6L77 38q1.5 2.23 3.06 4.44c3.36 4.87 5.66 10.22 8.03 15.62C90 61 90 61 92.92 61.91c4.63 1.63 5.74 4.8 7.89 9.03l1.27 2.39q2 3.81 3.92 7.67l1.33 2.64q1.92 3.86 3.79 7.74l1.19 2.42 1.07 2.29.95 2C115 100 115 100 115 104H28v-2H13c1.12-6.74 1.12-6.74 3-9.96l1.24-2.16 1.32-2.26a287 287 0 0 0 10.66-20.23C31.41 62.87 33.65 58.77 37 55c3.31.06 3.31.06 6 1l1.58-3.23C49.82 42.36 55.68 32.32 64 24"/><path fill="#f3f1e3" d="M64 29h2q.42 4.71.75 9.44L67 41.1c.43 6.6-.81 11.13-4 16.9h5c2.61 5.88 2.18 11.71 2 18-3.02-2.76-5.24-5.2-7.19-8.81L61 64h-2a87 87 0 0 0-3.62 5.5l-1.92 3.09L52 75l5-1 1.5 3.75.84 2.11C60 82 60 82 60 86l2.81-2.06L66 82c4.44 1.48 6.07 4.73 8.75 8.44l1.57 2.1 1.48 2.02 1.35 1.85L80 98l-1 2-1.79-1.02q-2.44-1.38-4.9-2.71a155 155 0 0 1-5-2.89L65 93q-3.08 2.4-6 5l-3-1c-.95-2.07-.95-2.07-1.69-4.56l-.76-2.51L53 88c-5.98 3.25-11.47 7.04-17 11l-1-2c1.11-2.54 1.11-2.54 2.75-5.62C40.2 86.65 42.26 82.03 44 77c-4.17 3.47-8.05 6.93-11.5 11.12-3.23 3.82-6.85 6.92-11.5 8.88l-2-1 7.15-13.93 2.44-4.74 3.5-6.82 1.09-2.14A85 85 0 0 1 38 60a56 56 0 0 1 7 4l.78-2.53A109 109 0 0 1 64 29"/><path fill="#091225" d="M63 30a24 24 0 0 1-4.75 8.5c-3.67 4.82-6.12 10.01-8.63 15.5l-1.36 2.93L45 64a56 56 0 0 1-7-4l-.82 2.13c-2.2 5.35-4.88 10.46-7.49 15.62l-1.73 3.52-1.7 3.34-1.53 3.06C23 90 23 90 20.3 90.84L18 91c1.94-6.21 4.8-11.7 7.81-17.44l1.58-3.06Q29.64 66.21 32 62l1.29-2.32c1.22-1.97 1.22-1.97 3.71-4.68 3.31.06 3.31.06 6 1l1.72-3.4C56.32 30 56.32 30 63 30"/><path fill="#ecebe1" d="M71 40c7.26 6.93 12.02 15.83 16 25v2l3.09-.74C94 67 94 67 95.72 69.22c1.74 3.16 3.28 6.37 4.78 9.66l1.66 3.41c2.86 6 2.86 6 3.84 8.71l-1 2-4.75-5.62-1.34-1.59a63 63 0 0 1-5.93-8.13C91 75 91 75 88.57 74.61c-3.14-.75-3.42-1.44-5.14-4.07q-1.3-2.16-2.55-4.35l-2.58-4.33-1.2-2.07C76 58 76 58 74.27 55.94c-1.91-2.91-2.05-5.76-2.46-9.19l-.48-3.83z"/><path fill="#909393" d="M76 71c7.63 7.47 14.28 15.39 19 25l-1.75-.88q-2.09-1.04-4.21-1.99C82.11 89.59 80.36 84.11 78 77l-1.13-3.38z"/></svg>