<svg xmlns="http://www.w3.org/2000/svg" width="128" height="128" viewBox="0 0 128 128"><path fill="#01162f" d="M13 99L13 101L28 100L29 102L114 102L114 100L95 63L92 63L91 62L90 63L88 61L79 43L77 41L76 38L72 33L71 30L69 28L67 24L64 24L56 34L56 35L53 38L44 56L42 58L39 55L38 55L35 58Z"/><path fill="#fcfae6" d="M65 29L54 43L46 61L43 64L38 60L19 97L28 91L43 76L44 77L43 83L39 88L35 98L51 86L57 97L66 91L79 99L78 96L67 82L65 82L60 86L56 74L52 76L51 75L59 62L63 65L69 75L69 66L67 58L62 57L66 48ZM71 39L74 55L88 75L90 73L105 91L93 67L86 66L77 47ZM77 72L83 87L94 95Z"/></svg>
