<?xml version="1.0" encoding="UTF-8"?>
<!-- Generator: visioncortex VTracer 0.6.12 -->
<svg version="1.1" xmlns="http://www.w3.org/2000/svg" width="128" height="128" viewBox="0 0 128 128" preserveAspectRatio="xMidYMid meet">
<path d="M0 0 C2.32 0.06 2.32 0.06 5 1 C7.03 3.63 7.03 3.63 8.94 7 C9.63 8.2 10.33 9.4 11.02 10.6 C11.35 11.16 11.35 11.16 13 14 C14.01 15.49 15.02 16.97 16.06 18.44 C19.42 23.31 21.72 28.66 24.09 34.06 C26 37 26 37 28.92 37.91 C33.55 39.54 34.66 42.71 36.81 46.94 C37.23 47.73 37.65 48.52 38.08 49.33 C39.42 51.87 40.71 54.43 42 57 C42.44 57.87 42.88 58.75 43.33 59.64 C44.61 62.21 45.87 64.79 47.12 67.38 C47.52 68.18 47.91 68.98 48.31 69.8 C48.66 70.56 49.02 71.31 49.38 72.09 C49.7 72.75 50.01 73.41 50.33 74.09 C51 76 51 76 51 80 C22.29 80 -6.42 80 -36 80 C-36 79.34 -36 78.68 -36 78 C-40.95 78 -45.9 78 -51 78 C-49.88 71.26 -49.88 71.26 -48 68.04 C-47.59 67.33 -47.18 66.62 -46.76 65.88 C-46.54 65.51 -46.54 65.51 -45.44 63.62 C-41.63 56.99 -38.05 50.3 -34.78 43.39 C-32.59 38.87 -30.35 34.77 -27 31 C-23.69 31.06 -23.69 31.06 -21 32 C-20.48 30.94 -19.96 29.87 -19.42 28.77 C-14.18 18.36 -8.32 8.32 0 0 Z " fill="#07172C" transform="translate(64,24)"/>
<path d="M0 0 C0.66 0 1.32 0 2 0 C2.29 3.14 2.52 6.29 2.75 9.44 C2.83 10.32 2.91 11.19 3 12.1 C3.43 18.7 2.19 23.23 -1 29 C0.65 29 2.3 29 4 29 C6.61 34.88 6.18 40.71 6 47 C2.98 44.24 0.76 41.8 -1.19 38.19 C-1.79 37.14 -2.38 36.08 -3 35 C-3.66 35 -4.32 35 -5 35 C-6.28 36.78 -7.48 38.63 -8.62 40.5 C-9.26 41.52 -9.89 42.54 -10.54 43.59 C-11.02 44.39 -11.5 45.18 -12 46 C-11.17 45.84 -11.17 45.84 -7 45 C-6.49 46.25 -5.99 47.5 -5.5 48.75 C-5.22 49.45 -4.94 50.14 -4.66 50.86 C-4 53 -4 53 -4 57 C-3.54 56.66 -3.54 56.66 -1.19 54.94 C-0.14 54.3 0.92 53.66 2 53 C6.44 54.48 8.07 57.73 10.75 61.44 C11.01 61.78 11.01 61.78 12.32 63.54 C12.81 64.21 13.3 64.87 13.8 65.56 C14.24 66.17 14.69 66.78 15.15 67.41 C15.43 67.94 15.71 68.46 16 69 C15.67 69.66 15.34 70.32 15 71 C14.7 70.83 14.7 70.83 13.21 69.98 C11.58 69.06 9.95 68.16 8.31 67.27 C6.62 66.34 4.96 65.37 3.31 64.38 C2.93 64.31 2.93 64.31 1 64 C-1.05 65.6 -3.06 67.27 -5 69 C-5.99 68.67 -6.98 68.34 -8 68 C-8.95 65.93 -8.95 65.93 -9.69 63.44 C-9.81 63.02 -9.81 63.02 -10.45 60.93 C-10.63 60.3 -10.81 59.66 -11 59 C-16.98 62.25 -22.47 66.04 -28 70 C-28.16 69.67 -28.16 69.67 -29 68 C-27.89 65.46 -27.89 65.46 -26.25 62.38 C-23.8 57.65 -21.74 53.03 -20 48 C-24.17 51.47 -28.05 54.93 -31.5 59.12 C-34.73 62.94 -38.35 66.04 -43 68 C-43.66 67.67 -44.32 67.34 -45 67 C-42.62 62.35 -40.23 57.71 -37.85 53.07 C-37.04 51.49 -36.22 49.91 -35.41 48.33 C-34.25 46.05 -33.08 43.78 -31.91 41.51 C-31.55 40.81 -31.19 40.1 -30.82 39.37 C-29.33 36.47 -27.81 33.72 -26 31 C-23.51 32.2 -21.32 33.45 -19 35 C-18.74 34.17 -18.49 33.33 -18.22 32.47 C-14.16 20.92 -7.8 9.45 0 0 Z " fill="#F3F1E3" transform="translate(64,29)"/>
<path d="M0 0 C-1.06 3.38 -2.55 5.79 -4.75 8.5 C-8.42 13.32 -10.87 18.51 -13.38 24 C-13.82 24.97 -14.27 25.93 -14.74 26.93 C-15.83 29.28 -16.92 31.64 -18 34 C-20.49 32.8 -22.68 31.55 -25 30 C-25.27 30.7 -25.54 31.41 -25.82 32.13 C-28.02 37.48 -30.7 42.59 -33.31 47.75 C-33.88 48.91 -34.45 50.07 -35.04 51.27 C-35.6 52.37 -36.16 53.47 -36.74 54.61 C-37.24 55.62 -37.75 56.63 -38.27 57.67 C-40 60 -40 60 -42.7 60.84 C-43.46 60.89 -44.22 60.94 -45 61 C-43.06 54.79 -40.2 49.3 -37.19 43.56 C-36.67 42.55 -36.14 41.54 -35.61 40.5 C-34.11 37.64 -32.58 34.81 -31 32 C-30.57 31.24 -30.15 30.47 -29.71 29.68 C-28.49 27.71 -28.49 27.71 -26 25 C-22.69 25.06 -22.69 25.06 -20 26 C-19.43 24.88 -18.86 23.75 -18.28 22.6 C-6.68 0 -6.68 0 0 0 Z " fill="#091225" transform="translate(63,30)"/>
<path d="M0 0 C7.26 6.93 12.02 15.83 16 25 C16 25.66 16 26.32 16 27 C17.02 26.76 18.04 26.51 19.09 26.26 C23 27 23 27 24.72 29.22 C26.46 32.38 28 35.59 29.5 38.88 C29.77 39.44 29.77 39.44 31.16 42.29 C34.02 48.29 34.02 48.29 35 51 C34.84 51.33 34.84 51.33 34 53 C32.41 51.13 30.83 49.25 29.25 47.38 C28.81 46.85 28.36 46.33 27.91 45.79 C25.68 43.14 23.79 40.65 21.98 37.66 C20 35 20 35 17.57 34.61 C14.43 33.86 14.15 33.17 12.43 30.54 C11.56 29.1 10.71 27.65 9.88 26.19 C9.02 24.74 8.16 23.3 7.3 21.86 C6.91 21.17 6.51 20.49 6.1 19.79 C5 18 5 18 3.27 15.94 C1.36 13.03 1.22 10.18 0.81 6.75 C0.65 5.49 0.5 4.22 0.33 2.92 C0.22 1.96 0.11 0.99 0 0 Z " fill="#ECEBE1" transform="translate(71,40)"/>
<path d="M0 0 C7.63 7.47 14.28 15.39 19 25 C18.42 24.71 17.84 24.42 17.25 24.12 C15.86 23.43 14.45 22.76 13.04 22.13 C6.11 18.59 4.36 13.11 2 6 C1.81 5.44 1.81 5.44 0.87 2.62 C0.58 1.76 0.29 0.89 0 0 Z " fill="#909393" transform="translate(76,71)"/>
</svg>
