<svg xmlns="http://www.w3.org/2000/svg" width="128" height="128" viewBox="0 0 128 128"><path fill="#2e628b" d="M107 49h2c1.07 1.83 1.07 1.83 2.12 4.25l1.08 2.39C113 58 113 58 113 62q.47 2 1 4v2q.47 2 1 4h-6c1 3 1 3 3.06 4.31C114 78 114 78 114.62 80.94 114 84 114 84 111.75 86.25 107.01 89 101.34 89.34 96 90l3 2c-.08 2.93-.5 4.46-2.5 6.62-9.58 5.27-19.8 5.59-30.48 5.62q-3.08.02-6.15.07c-10.52.09-22.53-.1-30.87-7.31l-2-3 3-4-2.45-.48C16.25 87.05 16.25 87.05 13 82c-.06-2.62-.06-2.62 1-5 2.06-1.69 2.06-1.69 4-3v-2h-5l1-2.25C15 67 15 67 15 63c.54-4.13 1.91-7.4 4-11h2c3.28 4.66 4.46 8.21 4.73 13.89.3 2.38 1.1 4.03 2.27 6.11h-6c1 1 1 1 4.56 1.06L30 73v-3c6.34-1.15 12.57-1.1 19-1v-2c2.93-1.46 5.53-1.13 8.8-1.13l2.04-.01 4.28.01 6.52-.01 4.16.01h3.82c2.93.11 5.54.45 8.38 1.13v3l2.67.4 3.52.54 3.48.52q3.11.5 6.19 1.17L105 73l1-1-7-1 2-5 1.06-2.75C103 61 103 61 104 60l-2-2 3.03-5.27A89 89 0 0 0 107 49"/><path fill="#06182d" d="M63.6 23.13c4.22 1.53 7.2 4.74 10.42 7.76l2.1 1.92q.98.89 1.95 1.84C80 36 80 36 84 36l3-2c3.71.05 5 1 7.82 3.47q1.45 1.5 2.87 3.03c5.12 5.4 5.12 5.4 7.31 6.5l-1 4-4-1v4h2l-1 1.75C100 58 100 58 100 62l-1 2c-7.03-.83-14-1.9-21-3v-4c-6.16-1.82-11.6-2.24-18-2l3.5 1.88A23 23 0 0 1 67 59v2l-1.77.17q-3.99.37-7.98.77l-2.79.26-2.7.27-2.47.23A47 47 0 0 0 43 64l1 3-16 1 1-4h-2c1-3 1-3 2-4l-3-1-.88-3.5L24 52c-2.63-.94-2.63-.94-5-1 0-2 0-2 1.57-3.58l4.35-3.66C27 42 27 42 29.5 39.5c3.21-1.92 4.97-1.16 8.52-.47C40 39 40 39 41.64 37.82q1.5-1.65 2.94-3.35C46 33 46 33 48.81 32.13c4.31-1.53 6.77-4.32 9.94-7.55C61 23 61 23 63.6 23.13"/><path fill="#04152e" d="M107 49h2c1.07 1.83 1.07 1.83 2.12 4.25l1.08 2.39C113 58 113 58 113 62q.47 2 1 4v2q.47 2 1 4h-6c1 3 1 3 3.06 4.31C114 78 114 78 114.62 80.94 114 84 114 84 111.25 86.31c-4.89 2.54-8.48 2.81-14 2.75l-3.55-.02L91 89v-2l3.68-.77 4.76-1.04 2.43-.5c2.07-.47 4.1-1.07 6.13-1.69l1-3c-7.53-3.4-14.82-4.26-23-4v1l-4.44.12-2.49.08L77 77l-1-2h2v-3h2v-2l-25 1v2H35v3l-2.48.37-3.27.51-3.23.49A22 22 0 0 0 19 80l1 3q3.49 1.53 7 3v2c-4.85-.12-8.1-.35-12.12-3.25C13 82 13 82 12.94 79.38c1.24-2.78 2.58-3.7 5.06-5.38v-2h-5l1-2.25C15 67 15 67 15 63c.54-4.13 1.91-7.4 4-11h2c3.28 4.66 4.46 8.21 4.73 13.89.3 2.38 1.1 4.03 2.27 6.11h-6c1 1 1 1 4.56 1.06L30 73v-3c6.34-1.15 12.57-1.1 19-1v-2c2.93-1.46 5.53-1.13 8.8-1.13l2.04-.01 4.28.01 6.52-.01 4.16.01h3.82c2.93.11 5.54.45 8.38 1.13v3l2.67.4 3.52.54 3.48.52q3.11.5 6.19 1.17L105 73l1-1-7-1 2-5 1.06-2.75C103 61 103 61 104 60l-2-2 3.03-5.27A89 89 0 0 0 107 49"/><path fill="#f0f0e1" d="M54 70h26v2h-2l-1 4h8v-1l4.75-.12 2.67-.08c2.72.21 4.32.69 6.58 2.2v2l-30 1c3.86 1.29 7.56 1.37 11.6 1.62L83 82l1 2-6 2 2.5.88L83 88v2c-3.16.94-5.97 1.11-9.25 1.06l-2.7-.02L69 91l1 2 3.5.44L77 94l1 3c-8.6 2.65-16.98 3.99-26 3l-1-2 12-3-3.43-.4-4.45-.54-2.26-.26c-5.63-.69-5.63-.69-7.86-1.8v-2c7.44-2.02 14.32-2.21 22-2v-2l-1.79-.08a1075 1075 0 0 1-10.84-.48l-2.7-.12-2.49-.11C47 85 47 85 44 84l1-3c2-.44 2-.44 4.44-.56 4.35-.23 4.35-.23 6.56-2.44h3v-2H36v-2c3.76-1.25 7.27-1.11 11.19-1.06l2.27.01L55 73z"/><path fill="#33668f" d="m35 73 4 1h-3v2h23v2a88 88 0 0 1-4 2v1l-2.15.15-2.79.23-2.77.21L45 82l-1 2 23 2v2l-22 2v2l3.87.37 5.01.51 2.55.23 2.44.26 2.25.22C63 94 63 94 65 96l-2.59.37-3.35.51-3.34.49L53 98l-1 2q-3.32-.39-6.62-.81l-3.73-.46A27 27 0 0 1 32 95v-2l6-2v-2l-2.12.11-2.76.08-2.74.1L28 89l-2-3-3.62-1.44L19 83v-4c5.55-2.77 9.86-3.33 16-3z"/><path fill="#0c1527" d="M63.6 23.13c4.22 1.53 7.2 4.74 10.42 7.76l2.1 1.92q.98.89 1.95 1.84C80 36 80 36 84 36l3-2c3.71.05 5 1 7.82 3.47q1.45 1.5 2.87 3.03c5.12 5.4 5.12 5.4 7.31 6.5l-1 4c-4.9-1.4-6.92-4.05-10-8-2-2.5-2-2.5-4-4-2.5.63-2.5.63-5 2l-4 2-1.43-1.46-1.88-1.91c-.3-.32-.3-.32-1.87-1.9C74 36 74 36 71 34l-4 2-3-9-2.27 1.9-2.98 2.48q-1.46 1.2-2.95 2.46a38 38 0 0 1-8.86 5.04C44.55 40.26 43.37 41.62 42 44l1 3c-2.63-.47-3.93-.94-6-2.7L35 43c-4.24.96-6.64 4.58-9 8-.3 3.38-.3 3.38 0 6h-1l-.19-2.44-.8-2.56c-2.57-.81-2.57-.81-5-1 0-2 0-2 1.56-3.58l4.35-3.66C27 42 27 42 29.5 39.5c3.21-1.92 4.97-1.16 8.52-.47C40 39 40 39 41.64 37.82q1.5-1.65 2.94-3.35C46 33 46 33 48.81 32.13c4.31-1.53 6.77-4.32 9.94-7.55C61 23 61 23 63.6 23.13"/><path fill="#eeede1" d="M64 27c3 6.12 3 6.12 3 10l-2.02.9L63 39c-.17 2.16-.17 2.16.25 4.62l.39 2.48L64 48l-3.19-1.94C55.36 43 55.36 43 52 43c-2.62 1.87-2.62 1.87-5 4l-3 1-1 2 1.69.62c3.24 1.93 4.99 4.42 7.31 7.38-4.78-1.33-8.9-2.7-12.88-5.75L36 50c-4 1.33-5.35 3.81-8 7h-2c-1-3-1-3-1-7 2.33-3.06 5.06-5.53 8-8l10 5-2-4c5.39-5.9 5.39-5.9 8.38-6.41 3.57-.81 5.2-2.63 7.81-5.15C61.8 27 61.8 27 64 27"/><path fill="#011023" d="M19 52h2c3.28 4.66 4.46 8.21 4.73 13.89.3 2.38 1.1 4.03 2.27 6.11h-6c1 1 1 1 4.56 1.06L30 73v-3c5.57-1.01 10.87-1.02 16.52-.84L49 69l1-2v3H40v3h-5v3l-2.48.37-3.27.51-3.23.49A22 22 0 0 0 19 80l1 3q3.49 1.53 7 3v2c-4.85-.12-8.1-.35-12.12-3.25C13 82 13 82 12.94 79.38c1.24-2.78 2.58-3.7 5.06-5.38v-2h-5l1-2.25C15 67 15 67 15 63c.54-4.13 1.91-7.4 4-11"/><path fill="#03142a" d="M38 89v2l-6 2c4.47 5.76 14.75 5.79 21.56 6.69C67.69 100.94 81.57 99.64 95 95l-3-4c1.81-.62 1.81-.62 4-1l3 2c-.08 2.93-.5 4.46-2.5 6.62-9.58 5.27-19.8 5.59-30.48 5.62q-3.08.02-6.15.07c-10.52.09-22.53-.1-30.87-7.31l-2-3c3.12-4.61 5.55-5.15 11-5"/><path fill="#07182c" d="m90 46 12 8-1 1.75C100 58 100 58 100 62l-1 2c-7.03-.83-14.01-1.9-21-3v-4l-8-2c2.64-3.13 4.46-4.82 8.38-6.12 5 .17 6.83 1.95 10.62 5.12l-.62-1.75c-.47-2.77.19-3.9 1.62-6.25"/><path fill="#efeee4" d="M70 33a54 54 0 0 1 11 9l1.69-.88L85 40l2.35-1.36L90 38c2.42 1.82 2.42 1.82 4.75 4.56l2.36 2.69C99 48 99 48 100 53l-10-6c-1.21 3.62-.54 4.64 1 8-2.69-.97-4.73-1.76-6.88-3.69-3.17-1.96-5.59-1.06-9.12-.31l4-7-1.69-.69C74.3 41.6 72.25 39.63 70 37z"/><path fill="#011124" d="M107 49h2c1.07 1.83 1.07 1.83 2.12 4.25l1.08 2.39C113 58 113 58 113 62q.47 2 1 4v2q.47 2 1 4h-6l-1 3-3-1 1-2-7-1 2-5 1.06-2.75C103 61 103 61 104 60l-2-2 3.03-5.27A89 89 0 0 0 107 49"/><path fill="#0d1a2f" d="M50 67h30v2c-2.52 1.26-4.41 1.21-7.23 1.32l-3.12.12-6.57.25L55 71v2H40v-3h10z"/><path fill="#010d1d" d="m51 66 12.97-.05 4.41-.03 6.35-.02 3.86-.01c2.95.09 5.55.42 8.41 1.11v3l2.67.4 3.52.54 3.48.52q4.18.67 8.33 1.54v1l-18-2v2h-8l1-4-2-1h2v-2H51z"/><path fill="#020b1b" d="M48 100c7.72-.16 15.32.33 23 1v1h14v1a68 68 0 0 1-13.16 1.13l-2.01.01-4.2-.01-6.38.01-4.09-.01h-3.73A61 61 0 0 1 42 103v-1l6-1z"/><path fill="#e1e1de" d="M70 33c8.2 5.15 8.2 5.15 11 9 .01 2.94-.48 5.47-2 8-2.1.73-2.1.73-4 1l4-7-1.69-.69C74.3 41.6 72.25 39.63 70 37z"/><path fill="#031124" d="m108 85 2 2c-4.46 1.72-8.1 2.22-12.88 2.12l-3.49-.05L91 89v-2l6.81-1.56 3.83-.88C105 84 105 84 108 85"/><path fill="#f8f7ed" d="m43.01 72.9 2.3.01 2.38.03 2.41.01L56 73v3H36v-2c2.71-.9 4.24-1.12 7.01-1.1"/><path fill="#c3cdcf" d="m85 75 4.75-.12 2.67-.08c2.72.21 4.32.69 6.58 2.2v2c-6.43.1-12.66.15-19-1v-1l5-1z"/><path fill="#7490a7" d="m35 73 4 1h-3v2h23v2a35 35 0 0 1-7 3v-2c-3.71-1.24-7.31-1.36-11.19-1.56l-2.27-.13L33 77l2-1z"/><path fill="#26384c" d="M55 67h25v2c-2.5 1.25-4.21 1.11-7.01 1.1L70 70.09l-3.12-.03-3.16-.01L56 70z"/><path fill="#143250" d="m78 72 1 2c2.68.28 5.3.09 8 0v-2l4.44-.12 2.49-.08L96 72l1 2-11 2v1l-4.44.12-2.49.08L77 77l-1-2h2z"/><path fill="#42607b" d="M82 98c-4.2 4.2-12.42 3.06-18.06 3.06L58 101v-1q4.03-.8 8.06-1.56l2.28-.46c4.89-.91 8.78-.96 13.66.02"/></svg>