<?xml version="1.0" encoding="UTF-8"?>
<!-- Generator: visioncortex VTracer 0.6.12 -->
<svg version="1.1" xmlns="http://www.w3.org/2000/svg" width="128" height="128" viewBox="0 0 128 128" preserveAspectRatio="xMidYMid meet">
<path d="M0 0 C0.66 0 1.32 0 2 0 C3.07 1.83 3.07 1.83 4.12 4.25 C4.48 5.04 4.83 5.83 5.2 6.64 C6 9 6 9 6 13 C6.31 14.34 6.65 15.67 7 17 C7 17.66 7 18.32 7 19 C7.31 20.34 7.65 21.67 8 23 C6.02 23 4.04 23 2 23 C3 26 3 26 5.06 27.31 C7 29 7 29 7.62 31.94 C7 35 7 35 4.75 37.25 C0.01 40 -5.66 40.34 -11 41 C-10.5 41.33 -10.5 41.33 -8 43 C-8.08 45.93 -8.5 47.46 -10.5 49.62 C-20.08 54.89 -30.3 55.21 -40.98 55.24 C-43.03 55.25 -45.08 55.28 -47.13 55.31 C-57.65 55.4 -69.66 55.21 -78 48 C-78.66 47.01 -79.32 46.02 -80 45 C-79.01 43.68 -78.02 42.36 -77 41 C-77.4 40.92 -77.4 40.92 -79.45 40.52 C-90.75 38.05 -90.75 38.05 -94 33 C-94.06 30.38 -94.06 30.38 -93 28 C-90.94 26.31 -90.94 26.31 -89 25 C-89 24.34 -89 23.68 -89 23 C-90.65 23 -92.3 23 -94 23 C-93.67 22.26 -93.34 21.52 -93 20.75 C-92 18 -92 18 -92 14 C-91.46 9.87 -90.09 6.6 -88 3 C-87.34 3 -86.68 3 -86 3 C-82.72 7.66 -81.54 11.21 -81.27 16.89 C-80.97 19.27 -80.17 20.92 -79 23 C-80.98 23 -82.96 23 -85 23 C-84 24 -84 24 -80.44 24.06 C-79.87 24.05 -79.87 24.05 -77 24 C-77 23.01 -77 22.02 -77 21 C-70.66 19.85 -64.43 19.9 -58 20 C-58 19.34 -58 18.68 -58 18 C-55.07 16.54 -52.47 16.87 -49.2 16.87 C-48.53 16.87 -47.85 16.87 -47.16 16.86 C-45.73 16.86 -44.31 16.87 -42.88 16.87 C-40.71 16.87 -38.53 16.87 -36.36 16.86 C-34.97 16.86 -33.59 16.87 -32.2 16.87 C-31.57 16.87 -31.57 16.87 -28.38 16.87 C-25.45 16.98 -22.84 17.32 -20 18 C-20 18.99 -20 19.98 -20 21 C-19.12 21.13 -18.24 21.27 -17.33 21.4 C-16.17 21.58 -15.01 21.76 -13.81 21.94 C-12.66 22.11 -11.52 22.29 -10.33 22.46 C-8.26 22.8 -6.19 23.18 -4.14 23.63 C-3.43 23.75 -2.73 23.87 -2 24 C-1.84 23.84 -1.84 23.84 -1 23 C-3.31 22.67 -5.62 22.34 -8 22 C-7.33 20.33 -6.67 18.67 -6 17 C-5.65 16.09 -5.3 15.19 -4.94 14.25 C-4 12 -4 12 -3 11 C-3.33 10.67 -3.33 10.67 -5 9 C-3.99 7.24 -2.98 5.48 -1.97 3.73 C-1.28 2.5 -0.63 1.26 0 0 Z " fill="#2E628B" transform="translate(107,49)"/>
<path d="M0 0 C4.22 1.53 7.19 4.74 10.42 7.76 C11.11 8.39 11.81 9.03 12.52 9.68 C13.17 10.29 13.81 10.89 14.47 11.52 C16.4 12.87 16.4 12.87 20.4 12.87 C21.39 12.21 22.38 11.55 23.4 10.87 C27.11 10.92 28.4 11.87 31.22 14.34 C32.19 15.34 33.14 16.35 34.09 17.37 C39.21 22.78 39.21 22.78 41.4 23.87 C41.07 25.19 40.74 26.51 40.4 27.87 C39.08 27.54 37.76 27.21 36.4 26.87 C36.4 28.19 36.4 29.51 36.4 30.87 C37.06 30.87 37.72 30.87 38.4 30.87 C38.07 31.45 37.74 32.03 37.4 32.62 C36.4 34.87 36.4 34.87 36.4 38.87 C36.23 39.2 36.23 39.2 35.4 40.87 C28.37 40.04 21.39 38.97 14.4 37.87 C14.4 36.55 14.4 35.23 14.4 33.87 C8.24 32.05 2.8 31.63 -3.6 31.87 C-2.45 32.49 -1.29 33.11 -0.1 33.75 C1.87 34.8 1.87 34.8 3.4 35.87 C3.4 36.53 3.4 37.19 3.4 37.87 C2.81 37.93 2.23 37.98 1.63 38.04 C-1.03 38.29 -3.69 38.55 -6.35 38.81 C-6.81 38.85 -6.81 38.85 -9.14 39.07 C-9.59 39.12 -9.59 39.12 -11.84 39.34 C-12.65 39.41 -13.47 39.49 -14.31 39.57 C-16.47 39.85 -18.5 40.3 -20.6 40.87 C-20.27 41.86 -19.94 42.85 -19.6 43.87 C-22.24 44.04 -22.24 44.04 -35.6 44.87 C-35.27 43.55 -34.94 42.23 -34.6 40.87 C-35.26 40.87 -35.92 40.87 -36.6 40.87 C-35.6 37.87 -35.6 37.87 -34.6 36.87 C-35.59 36.54 -36.58 36.21 -37.6 35.87 C-37.89 34.72 -38.18 33.56 -38.48 32.37 C-38.85 31.22 -39.22 30.06 -39.6 28.87 C-42.23 27.93 -42.23 27.93 -44.6 27.87 C-44.6 25.87 -44.6 25.87 -43.03 24.29 C-41.58 23.06 -40.13 21.84 -38.68 20.63 C-36.6 18.87 -36.6 18.87 -34.1 16.37 C-30.89 14.45 -29.13 15.21 -25.58 15.9 C-23.6 15.87 -23.6 15.87 -21.96 14.69 C-20.96 13.59 -19.98 12.48 -19.02 11.34 C-17.6 9.87 -17.6 9.87 -14.79 9 C-10.48 7.47 -8.02 4.68 -4.85 1.45 C-2.6 -0.13 -2.6 -0.13 0 0 Z " fill="#06182D" transform="translate(63.6015625,23.12890625)"/>
<path d="M0 0 C0.66 0 1.32 0 2 0 C3.07 1.83 3.07 1.83 4.12 4.25 C4.48 5.04 4.83 5.83 5.2 6.64 C6 9 6 9 6 13 C6.31 14.34 6.65 15.67 7 17 C7 17.66 7 18.32 7 19 C7.31 20.34 7.65 21.67 8 23 C6.02 23 4.04 23 2 23 C3 26 3 26 5.06 27.31 C7 29 7 29 7.62 31.94 C7 35 7 35 4.25 37.31 C-0.64 39.85 -4.23 40.12 -9.75 40.06 C-10.92 40.05 -12.09 40.04 -13.3 40.04 C-14.19 40.02 -15.08 40.01 -16 40 C-16 39.34 -16 38.68 -16 38 C-14.78 37.75 -13.57 37.49 -12.32 37.23 C-10.73 36.88 -9.15 36.54 -7.56 36.19 C-6.76 36.02 -5.96 35.86 -5.13 35.69 C-3.06 35.22 -1.03 34.62 1 34 C1.33 33.01 1.66 32.02 2 31 C-5.53 27.6 -12.82 26.74 -21 27 C-21 27.33 -21 27.66 -21 28 C-22.48 28.05 -23.96 28.09 -25.44 28.12 C-26.26 28.15 -27.08 28.17 -27.93 28.2 C-28.62 28.13 -29.3 28.07 -30 28 C-30.16 27.67 -30.16 27.67 -31 26 C-30.34 26 -29.68 26 -29 26 C-29 25.01 -29 24.02 -29 23 C-28.34 23 -27.68 23 -27 23 C-27 22.34 -27 21.68 -27 21 C-31.12 21.16 -31.12 21.16 -52 22 C-52 22.66 -52 23.32 -52 24 C-58.6 24 -65.2 24 -72 24 C-72 24.99 -72 25.98 -72 27 C-72.82 27.12 -73.64 27.24 -74.48 27.37 C-75.56 27.53 -76.64 27.7 -77.75 27.88 C-78.28 27.96 -78.28 27.96 -80.98 28.37 C-83.68 28.93 -85.64 29.63 -88 31 C-87.67 31.99 -87.34 32.98 -87 34 C-84.68 35.02 -82.34 36.02 -80 37 C-80 37.66 -80 38.32 -80 39 C-84.85 38.88 -88.1 38.65 -92.12 35.75 C-94 33 -94 33 -94.06 30.38 C-92.82 27.6 -91.48 26.68 -89 25 C-89 24.34 -89 23.68 -89 23 C-90.65 23 -92.3 23 -94 23 C-93.67 22.26 -93.34 21.52 -93 20.75 C-92 18 -92 18 -92 14 C-91.46 9.87 -90.09 6.6 -88 3 C-87.34 3 -86.68 3 -86 3 C-82.72 7.66 -81.54 11.21 -81.27 16.89 C-80.97 19.27 -80.17 20.92 -79 23 C-80.98 23 -82.96 23 -85 23 C-84 24 -84 24 -80.44 24.06 C-79.87 24.05 -79.87 24.05 -77 24 C-77 23.01 -77 22.02 -77 21 C-70.66 19.85 -64.43 19.9 -58 20 C-58 19.34 -58 18.68 -58 18 C-55.07 16.54 -52.47 16.87 -49.2 16.87 C-48.53 16.87 -47.85 16.87 -47.16 16.86 C-45.73 16.86 -44.31 16.87 -42.88 16.87 C-40.71 16.87 -38.53 16.87 -36.36 16.86 C-34.97 16.86 -33.59 16.87 -32.2 16.87 C-31.57 16.87 -31.57 16.87 -28.38 16.87 C-25.45 16.98 -22.84 17.32 -20 18 C-20 18.99 -20 19.98 -20 21 C-19.12 21.13 -18.24 21.27 -17.33 21.4 C-16.17 21.58 -15.01 21.76 -13.81 21.94 C-12.66 22.11 -11.52 22.29 -10.33 22.46 C-8.26 22.8 -6.19 23.18 -4.14 23.63 C-3.43 23.75 -2.73 23.87 -2 24 C-1.84 23.84 -1.84 23.84 -1 23 C-3.31 22.67 -5.62 22.34 -8 22 C-7.33 20.33 -6.67 18.67 -6 17 C-5.65 16.09 -5.3 15.19 -4.94 14.25 C-4 12 -4 12 -3 11 C-3.33 10.67 -3.33 10.67 -5 9 C-3.99 7.24 -2.98 5.48 -1.97 3.73 C-1.28 2.5 -0.63 1.26 0 0 Z " fill="#04152E" transform="translate(107,49)"/>
<path d="M0 0 C8.58 0 17.16 0 26 0 C26 0.66 26 1.32 26 2 C25.34 2 24.68 2 24 2 C23.67 3.32 23.34 4.64 23 6 C25.64 6 28.28 6 31 6 C31 5.67 31 5.34 31 5 C32.58 4.95 34.17 4.91 35.75 4.88 C36.19 4.86 36.19 4.86 38.42 4.8 C41.14 5.01 42.74 5.49 45 7 C45 7.66 45 8.32 45 9 C35.1 9.33 25.2 9.66 15 10 C18.86 11.29 22.56 11.37 26.6 11.62 C27.39 11.75 28.18 11.87 29 12 C29.16 12.33 29.16 12.33 30 14 C28.02 14.66 26.04 15.32 24 16 C24.83 16.29 25.65 16.58 26.5 16.88 C27.33 17.25 28.15 17.62 29 18 C29 18.66 29 19.32 29 20 C25.84 20.94 23.03 21.11 19.75 21.06 C18.86 21.05 17.97 21.04 17.05 21.04 C16.37 21.02 15.7 21.01 15 21 C15.16 21.33 15.16 21.33 16 23 C17.16 23.14 18.31 23.29 19.5 23.44 C20.66 23.62 21.81 23.81 23 24 C23.16 24.5 23.16 24.5 24 27 C15.4 29.65 7.02 30.99 -2 30 C-2.33 29.34 -2.66 28.68 -3 28 C0.96 27.01 4.92 26.02 9 25 C7.87 24.87 6.74 24.73 5.57 24.6 C4.09 24.42 2.61 24.24 1.12 24.06 C0.38 23.98 -0.37 23.89 -1.14 23.8 C-6.77 23.11 -6.77 23.11 -9 22 C-9 21.34 -9 20.68 -9 20 C-1.56 17.98 5.32 17.79 13 18 C13 17.34 13 16.68 13 16 C12.41 15.97 11.82 15.95 11.21 15.92 C8.54 15.81 5.86 15.69 3.19 15.56 C2.26 15.52 1.33 15.48 0.37 15.44 C-0.52 15.4 -1.41 15.36 -2.33 15.32 C-3.15 15.28 -3.98 15.24 -4.82 15.21 C-7 15 -7 15 -10 14 C-9.67 13.01 -9.34 12.02 -9 11 C-7 10.56 -7 10.56 -4.56 10.44 C-0.21 10.21 -0.21 10.21 2 8 C2.99 8 3.98 8 5 8 C5 7.34 5 6.68 5 6 C-2.59 6 -10.18 6 -18 6 C-18 5.34 -18 4.68 -18 4 C-14.24 2.75 -10.73 2.89 -6.81 2.94 C-6.06 2.94 -5.31 2.95 -4.54 2.95 C-2.69 2.96 -0.85 2.98 1 3 C0.67 2.01 0.34 1.02 0 0 Z " fill="#F0F0E1" transform="translate(54,70)"/>
<path d="M0 0 C1.32 0.33 2.64 0.66 4 1 C3.01 1 2.02 1 1 1 C1 1.66 1 2.32 1 3 C8.59 3 16.18 3 24 3 C24 3.66 24 4.32 24 5 C22.68 5.7 21.35 6.37 20 7 C20 7.33 20 7.66 20 8 C19.64 8.02 19.64 8.02 17.85 8.15 C16.93 8.22 16.01 8.3 15.06 8.38 C14.15 8.44 13.23 8.51 12.29 8.59 C11.53 8.72 10.78 8.86 10 9 C9.67 9.66 9.34 10.32 9 11 C12.8 11.33 12.8 11.33 32 13 C32 13.66 32 14.32 32 15 C24.74 15.66 17.48 16.32 10 17 C10 17.66 10 18.32 10 19 C11.28 19.12 12.55 19.24 13.87 19.37 C15.54 19.54 17.21 19.71 18.88 19.88 C19.3 19.91 19.3 19.91 21.43 20.11 C22.23 20.2 23.04 20.28 23.87 20.37 C24.24 20.4 24.24 20.4 26.12 20.59 C28 21 28 21 30 23 C29.15 23.12 28.29 23.24 27.41 23.37 C26.31 23.53 25.2 23.7 24.06 23.88 C22.96 24.04 21.86 24.2 20.72 24.37 C19.82 24.58 18.93 24.78 18 25 C17.67 25.66 17.34 26.32 17 27 C14.79 26.74 12.58 26.47 10.38 26.19 C9.15 26.04 7.92 25.89 6.65 25.73 C2.95 24.99 0.21 23.96 -3 22 C-3 21.34 -3 20.68 -3 20 C-1.02 19.34 0.96 18.68 3 18 C3 17.34 3 16.68 3 16 C2.3 16.03 1.6 16.07 0.88 16.11 C-0.03 16.13 -0.94 16.16 -1.88 16.19 C-2.78 16.22 -3.68 16.26 -4.62 16.29 C-5.01 16.24 -5.01 16.24 -7 16 C-7.66 15.01 -8.32 14.02 -9 13 C-10.2 12.53 -11.39 12.05 -12.62 11.56 C-13.74 11.05 -14.85 10.53 -16 10 C-16 8.68 -16 7.36 -16 6 C-10.45 3.23 -6.14 2.67 0 3 C0 2.01 0 1.02 0 0 Z " fill="#33668F" transform="translate(35,73)"/>
<path d="M0 0 C4.22 1.53 7.19 4.74 10.42 7.76 C11.11 8.39 11.81 9.03 12.52 9.68 C13.17 10.29 13.81 10.89 14.47 11.52 C16.4 12.87 16.4 12.87 20.4 12.87 C21.39 12.21 22.38 11.55 23.4 10.87 C27.11 10.92 28.4 11.87 31.22 14.34 C32.19 15.34 33.14 16.35 34.09 17.37 C39.21 22.78 39.21 22.78 41.4 23.87 C41.07 25.19 40.74 26.51 40.4 27.87 C35.49 26.47 33.48 23.82 30.4 19.87 C28.4 17.37 28.4 17.37 26.4 15.87 C23.9 16.5 23.9 16.5 21.4 17.87 C20.07 18.54 18.73 19.21 17.4 19.87 C16.93 19.39 16.46 18.91 15.97 18.41 C15.35 17.78 14.73 17.15 14.09 16.5 C13.78 16.18 13.78 16.18 12.22 14.6 C10.4 12.87 10.4 12.87 7.4 10.87 C6.74 11.2 6.74 11.2 3.4 12.87 C2.41 9.9 1.42 6.93 0.4 3.87 C-0.35 4.5 -1.1 5.12 -1.87 5.77 C-2.85 6.59 -3.84 7.4 -4.85 8.25 C-5.83 9.06 -6.8 9.87 -7.8 10.71 C-10.68 12.94 -13.35 14.34 -16.66 15.75 C-19.05 17.13 -20.23 18.49 -21.6 20.87 C-21.27 21.86 -20.94 22.85 -20.6 23.87 C-23.23 23.4 -24.53 22.93 -26.6 21.18 C-27.26 20.75 -27.92 20.32 -28.6 19.87 C-32.84 20.83 -35.24 24.45 -37.6 27.87 C-37.91 31.25 -37.91 31.25 -37.6 33.87 C-37.93 33.87 -38.26 33.87 -38.6 33.87 C-38.63 33.47 -38.63 33.47 -38.79 31.43 C-39.06 30.59 -39.33 29.74 -39.6 28.87 C-42.16 28.06 -42.16 28.06 -44.6 27.87 C-44.6 25.87 -44.6 25.87 -43.03 24.29 C-41.58 23.06 -40.13 21.84 -38.68 20.63 C-36.6 18.87 -36.6 18.87 -34.1 16.37 C-30.89 14.45 -29.13 15.21 -25.58 15.9 C-23.6 15.87 -23.6 15.87 -21.96 14.69 C-20.96 13.59 -19.98 12.48 -19.02 11.34 C-17.6 9.87 -17.6 9.87 -14.79 9 C-10.48 7.47 -8.02 4.68 -4.85 1.45 C-2.6 -0.13 -2.6 -0.13 0 0 Z " fill="#0C1527" transform="translate(63.6015625,23.12890625)"/>
<path d="M0 0 C3 6.12 3 6.12 3 10 C2.33 10.3 1.67 10.59 0.98 10.9 C0.33 11.26 -0.33 11.63 -1 12 C-1.17 14.16 -1.17 14.16 -0.75 16.62 C-0.69 17.03 -0.69 17.03 -0.36 19.1 C-0.24 19.73 -0.12 20.35 0 21 C-1.05 20.36 -2.1 19.72 -3.19 19.06 C-8.64 16 -8.64 16 -12 16 C-14.62 17.87 -14.62 17.87 -17 20 C-17.99 20.33 -18.98 20.66 -20 21 C-20.33 21.66 -20.66 22.32 -21 23 C-20.72 23.1 -20.72 23.1 -19.31 23.62 C-16.07 25.55 -14.32 28.04 -12 31 C-16.78 29.67 -20.9 28.3 -24.88 25.25 C-25.91 24.51 -26.94 23.77 -28 23 C-32 24.33 -33.35 26.81 -36 30 C-36.66 30 -37.32 30 -38 30 C-39 27 -39 27 -39 23 C-36.67 19.94 -33.94 17.47 -31 15 C-29.33 15.83 -29.33 15.83 -21 20 C-21.66 18.68 -22.32 17.36 -23 16 C-17.61 10.1 -17.61 10.1 -14.62 9.59 C-11.05 8.78 -9.42 6.96 -6.81 4.44 C-2.2 0 -2.2 0 0 0 Z " fill="#EEEDE1" transform="translate(64,27)"/>
<path d="M0 0 C0.66 0 1.32 0 2 0 C5.28 4.66 6.46 8.21 6.73 13.89 C7.03 16.27 7.83 17.92 9 20 C7.02 20 5.04 20 3 20 C4 21 4 21 7.56 21.06 C8.13 21.05 8.13 21.05 11 21 C11 20.01 11 19.02 11 18 C16.57 16.99 21.87 16.98 27.52 17.16 C27.93 17.13 27.93 17.13 30 17 C30.33 16.34 30.66 15.68 31 15 C31 15.99 31 16.98 31 18 C27.7 18 24.4 18 21 18 C21 18.99 21 19.98 21 21 C19.35 21 17.7 21 16 21 C16 21.99 16 22.98 16 24 C15.18 24.12 14.36 24.24 13.52 24.37 C12.44 24.53 11.36 24.7 10.25 24.88 C9.72 24.96 9.72 24.96 7.02 25.37 C4.32 25.93 2.36 26.63 0 28 C0.33 28.99 0.66 29.98 1 31 C3.32 32.02 5.66 33.02 8 34 C8 34.66 8 35.32 8 36 C3.15 35.88 -0.1 35.65 -4.12 32.75 C-6 30 -6 30 -6.06 27.38 C-4.82 24.6 -3.48 23.68 -1 22 C-1 21.34 -1 20.68 -1 20 C-2.65 20 -4.3 20 -6 20 C-5.67 19.26 -5.34 18.52 -5 17.75 C-4 15 -4 15 -4 11 C-3.46 6.87 -2.09 3.6 0 0 Z " fill="#011023" transform="translate(19,52)"/>
<path d="M0 0 C0 0.66 0 1.32 0 2 C-1.98 2.66 -3.96 3.32 -6 4 C-1.53 9.76 8.75 9.79 15.56 10.69 C29.69 11.94 43.57 10.64 57 6 C56.01 4.68 55.02 3.36 54 2 C55.81 1.38 55.81 1.38 58 1 C58.99 1.66 59.98 2.32 61 3 C60.92 5.93 60.5 7.46 58.5 9.62 C48.92 14.89 38.7 15.21 28.02 15.24 C25.97 15.25 23.92 15.28 21.87 15.31 C11.35 15.4 -0.66 15.21 -9 8 C-9.66 7.01 -10.32 6.02 -11 5 C-7.88 0.39 -5.45 -0.15 0 0 Z " fill="#03142A" transform="translate(38,89)"/>
<path d="M0 0 C4 2.67 8 5.33 12 8 C11.67 8.58 11.34 9.16 11 9.75 C10 12 10 12 10 16 C9.67 16.66 9.34 17.32 9 18 C1.97 17.17 -5.01 16.1 -12 15 C-12 13.68 -12 12.36 -12 11 C-14.64 10.34 -17.28 9.68 -20 9 C-17.36 5.87 -15.54 4.18 -11.62 2.88 C-6.62 3.05 -4.79 4.83 -1 8 C-1.21 7.42 -1.41 6.84 -1.62 6.25 C-2.09 3.48 -1.43 2.35 0 0 Z " fill="#07182C" transform="translate(90,46)"/>
<path d="M0 0 C4.2 2.64 7.57 5.36 11 9 C11.56 8.71 12.11 8.42 12.69 8.12 C13.45 7.75 14.21 7.38 15 7 C15.77 6.55 16.55 6.11 17.35 5.64 C18.22 5.43 19.1 5.22 20 5 C22.42 6.82 22.42 6.82 24.75 9.56 C25.53 10.45 26.31 11.34 27.11 12.25 C29 15 29 15 30 20 C26.7 18.02 23.4 16.04 20 14 C18.79 17.62 19.46 18.64 21 22 C18.31 21.03 16.27 20.24 14.12 18.31 C10.95 16.35 8.53 17.25 5 18 C6.32 15.69 7.64 13.38 9 11 C8.44 10.77 7.89 10.55 7.31 10.31 C4.3 8.6 2.25 6.63 0 4 C0 2.68 0 1.36 0 0 Z " fill="#EFEEE4" transform="translate(70,33)"/>
<path d="M0 0 C0.66 0 1.32 0 2 0 C3.07 1.83 3.07 1.83 4.12 4.25 C4.48 5.04 4.83 5.83 5.2 6.64 C6 9 6 9 6 13 C6.31 14.34 6.65 15.67 7 17 C7 17.66 7 18.32 7 19 C7.31 20.34 7.65 21.67 8 23 C6.02 23 4.04 23 2 23 C1.67 23.99 1.34 24.98 1 26 C0.01 25.67 -0.98 25.34 -2 25 C-1.67 24.34 -1.34 23.68 -1 23 C-3.31 22.67 -5.62 22.34 -8 22 C-7.33 20.33 -6.67 18.67 -6 17 C-5.65 16.09 -5.3 15.19 -4.94 14.25 C-4 12 -4 12 -3 11 C-3.66 10.34 -4.32 9.68 -5 9 C-3.99 7.24 -2.98 5.48 -1.97 3.73 C-1.28 2.5 -0.63 1.26 0 0 Z " fill="#011124" transform="translate(107,49)"/>
<path d="M0 0 C9.9 0 19.8 0 30 0 C30 0.66 30 1.32 30 2 C27.48 3.26 25.59 3.21 22.77 3.32 C21.74 3.36 20.71 3.4 19.65 3.44 C18.57 3.48 17.49 3.52 16.38 3.56 C15.29 3.61 14.2 3.65 13.08 3.69 C10.39 3.8 7.69 3.9 5 4 C5 4.66 5 5.32 5 6 C0.05 6 -4.9 6 -10 6 C-10 5.01 -10 4.02 -10 3 C-6.7 3 -3.4 3 0 3 C0 2.01 0 1.02 0 0 Z " fill="#0D1A2F" transform="translate(50,67)"/>
<path d="M0 0 C4.32 -0.02 8.65 -0.04 12.97 -0.05 C14.44 -0.06 15.91 -0.07 17.38 -0.08 C19.5 -0.09 21.61 -0.09 23.73 -0.1 C24.37 -0.1 24.37 -0.1 27.59 -0.11 C30.54 -0.02 33.14 0.31 36 1 C36 1.99 36 2.98 36 4 C36.88 4.13 37.76 4.27 38.67 4.4 C39.83 4.58 40.99 4.76 42.19 4.94 C43.34 5.11 44.48 5.29 45.67 5.46 C48.46 5.91 51.23 6.42 54 7 C54 7.33 54 7.66 54 8 C48 7.33 42 6.67 36 6 C36 6.66 36 7.32 36 8 C33.36 8 30.72 8 28 8 C28.33 6.68 28.66 5.36 29 4 C28.34 3.67 27.68 3.34 27 3 C27.66 3 28.32 3 29 3 C29 2.34 29 1.68 29 1 C19.43 1 9.86 1 0 1 C0 0.67 0 0.34 0 0 Z " fill="#010D1D" transform="translate(51,66)"/>
<path d="M0 0 C7.72 -0.16 15.32 0.33 23 1 C23 1.33 23 1.66 23 2 C27.62 2 32.24 2 37 2 C37 2.33 37 2.66 37 3 C32.56 3.85 28.36 4.13 23.84 4.13 C23.51 4.13 23.51 4.13 21.83 4.14 C20.43 4.14 19.03 4.13 17.63 4.13 C15.51 4.13 13.38 4.13 11.25 4.14 C9.89 4.14 8.52 4.13 7.16 4.13 C6.54 4.13 6.54 4.13 3.43 4.13 C0.2 4.01 -2.83 3.61 -6 3 C-6 2.67 -6 2.34 -6 2 C-4.02 1.67 -2.04 1.34 0 1 C0 0.67 0 0.34 0 0 Z " fill="#020B1B" transform="translate(48,100)"/>
<path d="M0 0 C8.2 5.15 8.2 5.15 11 9 C11.01 11.94 10.52 14.47 9 17 C6.9 17.73 6.9 17.73 5 18 C6.32 15.69 7.64 13.38 9 11 C8.44 10.77 7.89 10.55 7.31 10.31 C4.3 8.6 2.25 6.63 0 4 C0 2.68 0 1.36 0 0 Z " fill="#E1E1DE" transform="translate(70,33)"/>
<path d="M0 0 C0.66 0.66 1.32 1.32 2 2 C-2.46 3.72 -6.1 4.22 -10.88 4.12 C-12.03 4.11 -13.18 4.09 -14.37 4.07 C-15.24 4.05 -16.1 4.02 -17 4 C-17 3.34 -17 2.68 -17 2 C-14.73 1.47 -12.46 0.95 -10.19 0.44 C-9.56 0.29 -9.56 0.29 -6.36 -0.44 C-3 -1 -3 -1 0 0 Z " fill="#031124" transform="translate(108,85)"/>
<path d="M0 0 C0.38 0 0.38 0 2.29 0.01 C2.69 0.01 2.69 0.01 4.68 0.04 C5.47 0.04 6.27 0.04 7.09 0.05 C9.06 0.06 11.02 0.08 12.99 0.1 C12.99 1.09 12.99 2.08 12.99 3.1 C6.39 3.1 -0.21 3.1 -7.01 3.1 C-7.01 2.44 -7.01 1.78 -7.01 1.1 C-4.3 0.2 -2.77 -0.02 0 0 Z " fill="#F8F7ED" transform="translate(43.01171875,72.90234375)"/>
<path d="M0 0 C1.58 -0.05 3.17 -0.09 4.75 -0.12 C5.63 -0.15 6.51 -0.17 7.42 -0.2 C10.14 0.01 11.74 0.49 14 2 C14 2.66 14 3.32 14 4 C7.57 4.1 1.34 4.15 -5 3 C-5 2.67 -5 2.34 -5 2 C-3.35 1.67 -1.7 1.34 0 1 C0 0.67 0 0.34 0 0 Z " fill="#C3CDCF" transform="translate(85,75)"/>
<path d="M0 0 C1.32 0.33 2.64 0.66 4 1 C3.01 1 2.02 1 1 1 C1 1.66 1 2.32 1 3 C8.59 3 16.18 3 24 3 C24 3.66 24 4.32 24 5 C21.71 6.34 19.52 7.16 17 8 C17 7.34 17 6.68 17 6 C13.29 4.76 9.69 4.64 5.81 4.44 C5.06 4.39 4.31 4.35 3.54 4.31 C1.69 4.2 -0.15 4.1 -2 4 C-1.34 3.67 -0.68 3.34 0 3 C0 2.01 0 1.02 0 0 Z " fill="#7490A7" transform="translate(35,73)"/>
<path d="M0 0 C8.25 0 16.5 0 25 0 C25 0.66 25 1.32 25 2 C22.5 3.25 20.79 3.11 17.99 3.1 C17.01 3.09 16.02 3.09 15 3.09 C13.97 3.08 12.94 3.07 11.88 3.06 C11.35 3.06 11.35 3.06 8.72 3.05 C6.15 3.04 3.57 3.02 1 3 C0.67 2.01 0.34 1.02 0 0 Z " fill="#26384C" transform="translate(55,67)"/>
<path d="M0 0 C0.33 0.66 0.66 1.32 1 2 C3.68 2.28 6.3 2.09 9 2 C9 1.34 9 0.68 9 0 C10.48 -0.05 11.96 -0.09 13.44 -0.12 C14.26 -0.15 15.08 -0.17 15.93 -0.2 C16.62 -0.13 17.3 -0.07 18 0 C18.33 0.66 18.66 1.32 19 2 C17.19 2.33 17.19 2.33 8 4 C8 4.33 8 4.66 8 5 C6.52 5.05 5.04 5.09 3.56 5.12 C2.74 5.15 1.92 5.17 1.07 5.2 C0.38 5.13 -0.3 5.07 -1 5 C-1.33 4.34 -1.66 3.68 -2 3 C-1.34 3 -0.68 3 0 3 C0 2.01 0 1.02 0 0 Z " fill="#143250" transform="translate(78,72)"/>
<path d="M0 0 C-4.2 4.2 -12.42 3.06 -18.06 3.06 C-20.04 3.05 -22.02 3.03 -24 3 C-24 2.67 -24 2.34 -24 2 C-21.31 1.47 -18.63 0.95 -15.94 0.44 C-15.19 0.29 -14.43 0.13 -13.66 -0.02 C-8.77 -0.93 -4.88 -0.98 0 0 Z " fill="#42607B" transform="translate(82,98)"/>
</svg>
