<?xml version="1.0" encoding="UTF-8"?>
<!-- Generator: visioncortex VTracer 0.6.12 -->
<svg version="1.1" xmlns="http://www.w3.org/2000/svg" width="128" height="128" viewBox="0 0 128 128" preserveAspectRatio="xMidYMid meet">
<path d="M0 0 C0.58 0.82 1.16 1.65 1.75 2.5 C4.33 5.37 4.73 5.31 8.38 5.5 C8.77 5.52 8.77 5.52 10.77 5.62 C13.37 6.06 14.23 6.79 16.06 8.62 C19 11 19 11 22.44 10.81 C23.1 10.67 23.77 10.53 24.45 10.38 C29.08 9.69 33.84 10.15 38.51 10.36 C42.64 9.94 43.93 8.66 47 6 C49.32 5.57 49.32 5.57 51.56 5.56 C55.72 5.29 55.72 5.29 58.38 2.5 C58.91 1.68 59.45 0.85 60 0 C63.1 -1.03 65.31 -1.13 68.56 -1.12 C69.53 -1.13 70.5 -1.13 71.5 -1.13 C74 -1 74 -1 76 0 C76.2 2.64 76.26 5.17 76.24 7.81 C76.24 8.63 76.25 9.44 76.25 10.29 C76.25 13 76.24 15.72 76.23 18.44 C76.23 20.32 76.23 22.2 76.23 24.08 C76.23 28.02 76.22 31.96 76.21 35.91 C76.19 40.98 76.18 46.04 76.19 51.11 C76.19 55 76.18 58.88 76.17 62.76 C76.17 64.63 76.17 66.5 76.17 68.37 C76.16 70.98 76.16 73.58 76.15 76.19 C76.15 76.97 76.15 77.75 76.15 78.56 C76.11 83.89 76.11 83.89 75 85 C72.33 85.14 69.68 85.04 67 85 C66.97 85.38 66.97 85.38 66.81 87.31 C66 90 66 90 63.94 91.81 C59.29 93.69 55.03 93.45 50.19 92.38 C48 92 48 92 45 94 C43.06 94.23 43.06 94.23 41 94.19 C40.32 94.18 39.64 94.17 38.94 94.17 C37 94 37 94 34 93 C33.67 93.16 33.67 93.16 32 94 C26.56 94.38 21.38 93.77 16 93 C15.67 93.16 15.67 93.16 14 94 C11.72 93.95 11.72 93.95 9.06 93.69 C8.19 93.61 7.31 93.53 6.41 93.45 C4 93 4 93 1 91 C-1.01 91.28 -3.01 91.62 -5 92 C-8.95 92.36 -12.23 92.33 -15.94 90.75 C-18 89 -18 89 -18.38 86.94 C-18.48 86.62 -18.48 86.62 -19 85 C-21.31 84.27 -23.65 83.6 -26 83 C-26.13 71.57 -25.94 60.17 -25.56 48.75 C-25.52 47.5 -25.48 46.25 -25.44 44.97 C-24.88 28.88 -24.88 28.88 -22 26 C-21.71 23.82 -21.71 23.82 -21.66 21.13 C-21.63 20.16 -21.6 19.2 -21.57 18.2 C-21.54 17.18 -21.52 16.17 -21.5 15.12 C-21.46 13.13 -21.4 11.13 -21.34 9.13 C-21.33 8.24 -21.31 7.36 -21.29 6.44 C-20.98 3.82 -20.48 2.18 -19 0 C-15.92 -0.64 -15.92 -0.64 -12.19 -0.81 C-11.58 -0.85 -11.58 -0.85 -8.48 -1.02 C-5.43 -1 -2.91 -0.9 0 0 Z " fill="#0D1B2E" transform="translate(39,17)"/>
<path d="M0 0 C0.97 -0 1.94 -0.01 2.94 -0.01 C5.44 0.12 5.44 0.12 7.44 1.12 C7.63 3.76 7.7 6.29 7.68 8.93 C7.68 9.75 7.68 10.57 7.69 11.41 C7.69 14.13 7.68 16.85 7.67 19.56 C7.67 21.44 7.67 23.32 7.67 25.2 C7.67 29.15 7.66 33.09 7.64 37.03 C7.63 42.1 7.62 47.17 7.62 52.24 C7.62 56.12 7.62 60 7.61 63.89 C7.61 65.75 7.61 67.62 7.6 69.49 C7.6 72.1 7.59 74.71 7.58 77.32 C7.58 78.1 7.58 78.88 7.58 79.68 C7.55 85.01 7.55 85.01 6.44 86.12 C3.77 86.27 1.11 86.17 -1.56 86.12 C-1.59 86.51 -1.59 86.51 -1.75 88.44 C-2.56 91.13 -2.56 91.13 -4.62 92.94 C-9.27 94.82 -13.53 94.58 -18.38 93.5 C-20.56 93.12 -20.56 93.12 -23.56 95.12 C-25.5 95.36 -25.5 95.36 -27.56 95.31 C-28.24 95.31 -28.92 95.3 -29.62 95.29 C-31.56 95.12 -31.56 95.12 -34.56 94.12 C-34.89 94.29 -34.89 94.29 -36.56 95.12 C-42 95.5 -47.18 94.89 -52.56 94.12 C-52.89 94.29 -52.89 94.29 -54.56 95.12 C-56.84 95.07 -56.84 95.07 -59.5 94.81 C-60.38 94.73 -61.25 94.66 -62.15 94.57 C-64.56 94.12 -64.56 94.12 -67.56 92.12 C-69.57 92.41 -71.57 92.75 -73.56 93.12 C-78.69 93.59 -82.33 93.3 -86.56 90.12 C-86.23 88.81 -85.9 87.48 -85.56 86.12 C-85.05 86.45 -84.53 86.78 -84 87.12 C-80.75 88.46 -78.04 88.32 -74.56 88.12 C-74.23 87.96 -74.23 87.96 -72.56 87.12 C-66.37 86.9 -66.37 86.9 -63.38 87.75 C-61.56 88.12 -61.56 88.12 -59.56 87.12 C-57 85.85 -56.26 86.35 -53.56 87.12 C-49.94 87.31 -49.94 87.31 -46.56 87.12 C-45.9 86.47 -45.24 85.81 -44.56 85.12 C-41.44 85 -41.44 85 -38.56 85.12 C-38.56 85.78 -38.56 86.44 -38.56 87.12 C-39.72 87.29 -39.72 87.29 -45.56 88.12 C-45.23 88.78 -44.9 89.44 -44.56 90.12 C-40.97 90.34 -37.73 90.15 -34.19 89.56 C-33.75 89.49 -33.75 89.49 -31.56 89.12 C-31.23 89.45 -30.9 89.78 -30.56 90.12 C-27.23 89.73 -23.97 89.21 -20.69 88.5 C-17.11 88.07 -14.05 88.48 -10.52 89.07 C-10.19 89.08 -10.19 89.08 -8.56 89.12 C-7.9 88.47 -7.24 87.81 -6.56 87.12 C-7.68 87 -8.79 86.88 -9.94 86.75 C-13.56 86.12 -13.56 86.12 -15.56 84.12 C-18.62 83.94 -18.62 83.94 -21.56 84.12 C-21.89 84.45 -22.22 84.78 -22.56 85.12 C-24.56 85.17 -26.56 85.17 -28.56 85.12 C-28.16 84.67 -27.77 84.21 -27.36 83.73 C-24.65 80.6 -21.98 77.49 -19.56 74.12 C-22.17 73.4 -23.99 72.97 -26.62 73.69 C-28.56 75.13 -28.56 75.13 -30.5 78.25 C-31.18 79.2 -31.86 80.15 -32.56 81.12 C-35.06 81.44 -35.06 81.44 -37.56 81.12 C-38.91 81.42 -40.24 81.73 -41.56 82.12 C-39.69 78.25 -39.69 78.25 -38.56 77.12 C-36.9 77.08 -35.23 77.08 -33.56 77.12 C-33.57 76.22 -33.57 75.31 -33.58 74.38 C-33.73 43.91 -33.73 43.91 -33.12 33.31 C-33.09 32.62 -33.05 31.92 -33.01 31.2 C-32.8 28.08 -32.46 25.13 -31.56 22.12 C-30.9 22.12 -30.24 22.12 -29.56 22.12 C-28.44 20.12 -28.44 20.12 -27.56 18.12 C-26.9 18.45 -26.24 18.78 -25.56 19.12 C-25.24 21.81 -25.24 21.81 -25.15 25.35 C-25.13 25.98 -25.13 25.98 -25.03 29.17 C-25 30.51 -24.97 31.85 -24.94 33.19 C-24.9 34.53 -24.86 35.88 -24.82 37.22 C-24.73 40.52 -24.64 43.82 -24.56 47.12 C-24.31 45.89 -24.07 44.65 -23.81 43.38 C-22.84 39.37 -22.84 39.37 -20.54 37.32 C-17.2 33.62 -17.38 28.89 -16.88 24.06 C-16.64 22.07 -16.41 20.08 -16.18 18.09 C-16.13 17.65 -16.13 17.65 -15.89 15.42 C-15.56 13.13 -15.56 13.13 -14.56 10.12 C-15.82 10.12 -17.08 10.12 -18.38 10.12 C-20.77 10.12 -23.17 10.12 -25.56 10.12 C-22.83 7.39 -20.78 6.95 -17.06 6.75 C-12.85 6.43 -12.85 6.43 -10.19 3.62 C-9.65 2.8 -9.11 1.98 -8.56 1.12 C-5.46 0.09 -3.25 -0.01 0 0 Z " fill="#0A1A2D" transform="translate(107.5625,15.875)"/>
<path d="M0 0 C0.89 0.01 1.79 0.01 2.71 0.02 C3.63 0.04 4.56 0.05 5.52 0.07 C6.46 0.08 7.4 0.09 8.37 0.1 C10.69 0.12 13.01 0.15 15.33 0.2 C15.01 0.8 14.7 1.4 14.37 2.02 C12.08 6.82 12.12 12.27 11.83 17.51 C11.79 18.24 11.74 18.98 11.7 19.73 C11.43 24.63 11.31 29.51 11.27 34.41 C11.25 37.41 11.21 40.42 11.17 43.42 C11.15 44.94 11.15 46.45 11.15 47.97 C11.16 50.12 11.14 52.26 11.1 54.41 C11.1 55.67 11.09 56.93 11.09 58.22 C10.84 59.2 10.59 60.19 10.33 61.2 C7.41 62.43 7.41 62.43 4.33 63.2 C3.67 64.19 3.01 65.18 2.33 66.2 C2.61 66.03 2.61 66.03 4.02 65.2 C6.33 64.2 6.33 64.2 8.77 64.51 C9.62 64.4 10.46 64.3 11.33 64.2 C12.52 62.68 12.52 62.68 13.71 60.76 C15.76 57.54 16.09 57.27 20.02 56.07 C21.11 56.11 22.21 56.15 23.33 56.2 C23.99 57.19 24.65 58.18 25.33 59.2 C24.21 60.51 23.09 61.82 21.96 63.13 C21.33 63.86 20.7 64.59 20.06 65.35 C18.33 67.2 18.33 67.2 16.33 68.2 C18 68.24 19.67 68.24 21.33 68.2 C21.66 67.87 21.99 67.54 22.33 67.2 C25.27 67.01 25.27 67.01 28.33 67.2 C28.99 67.86 29.65 68.52 30.33 69.2 C32.65 69.6 34.99 69.94 37.33 70.2 C37.33 71.19 37.33 72.18 37.33 73.2 C33.72 75 29.42 73.68 25.5 73.25 C22.28 73.19 21.02 73.59 18.33 75.2 C15.58 75.41 13.35 75.2 10.64 74.63 C8.33 74.2 8.33 74.2 6.33 75.2 C4 75.24 1.66 75.24 -0.67 75.2 C-1 74.21 -1.33 73.22 -1.67 72.2 C0.64 71.87 2.95 71.54 5.33 71.2 C5.33 70.54 5.33 69.88 5.33 69.2 C-1.54 71.07 -1.54 71.07 -2.67 72.2 C-8.85 72.43 -8.85 72.43 -11.86 71.57 C-13.67 71.2 -13.67 71.2 -15.67 72.2 C-18.23 73.47 -18.97 72.97 -21.67 72.2 C-28.22 71.97 -28.22 71.97 -30.67 73.2 C-35.93 73.6 -39.12 72.86 -43.67 70.2 C-42.98 68.2 -42.98 68.2 -41.67 66.2 C-39.05 65.85 -37.09 66.08 -34.54 66.76 C-32.67 67.2 -32.67 67.2 -29.67 66.2 C-29.67 65.21 -29.67 64.22 -29.67 63.2 C-22.92 64.07 -22.92 64.07 -20.67 65.2 C-21.33 64.21 -21.99 63.22 -22.67 62.2 C-22.29 60.01 -22.29 60.01 -21.67 58.2 C-19.5 58.7 -17.67 59.2 -15.67 60.2 C-15.65 59.63 -15.64 59.07 -15.62 58.5 C-15.29 46.73 -14.61 35.03 -13.36 23.32 C-13.25 22.25 -13.14 21.17 -13.04 20.07 C-12.3 13.68 -11.18 7.7 -7.67 2.2 C-4.46 0.06 -3.67 -0.05 0 0 Z " fill="#E9EAE0" transform="translate(63.66796875,31.8046875)"/>
<path d="M0 0 C-1.21 3.72 -2.51 7.38 -4 11 C-3.34 11.33 -2.68 11.66 -2 12 C-2.53 17.35 -4.47 21.36 -7 26 C-6.38 25.5 -5.76 25.01 -5.12 24.5 C-3 23 -3 23 -1 23 C-0.92 24.75 -0.86 26.5 -0.81 28.25 C-0.8 28.74 -0.8 28.74 -0.71 31.2 C-1.04 34.41 -1.93 35.59 -4 38 C-4.69 40.25 -4.69 40.25 -5 42 C-4.34 41.84 -4.34 41.84 -1 41 C-0.88 44.9 -0.81 48.79 -0.75 52.69 C-0.73 53.24 -0.73 53.24 -0.65 56.03 C-0.55 64.26 -0.55 64.26 -2.88 68.09 C-3.58 68.72 -4.28 69.35 -5 70 C-5.7 70.93 -6.4 71.86 -7.12 72.81 C-7.43 73.17 -7.43 73.17 -9 75 C-9.66 75 -10.32 75 -11 75 C-11 55 -11 55 -10.5 52.44 C-9.85 47.94 -9.92 43.53 -10 39 C-10.43 39.76 -10.87 40.53 -11.31 41.31 C-12.74 43.58 -14.03 45.22 -16 47 C-15.34 46.84 -15.34 46.84 -12 46 C-12.41 54.19 -12.91 62.04 -15 70 C-15.91 69.2 -16.81 68.39 -17.75 67.56 C-20.1 65.59 -21.87 64.36 -25 64 C-25.14 58.35 -24.63 52.96 -23.81 47.38 C-23.71 46.54 -23.61 45.71 -23.51 44.85 C-22.57 38.53 -22.57 38.53 -19.48 35.69 C-15.5 31.38 -15.9 26.31 -15.5 20.62 C-14.53 6.91 -14.53 6.91 -9 1 C-5.8 -0.07 -3.34 -0.07 0 0 Z " fill="#F3F1E2" transform="translate(110,20)"/>
<path d="M0 0 C0.58 0.82 1.16 1.65 1.75 2.5 C4.34 5.37 4.95 5.38 8.62 5.69 C9.4 5.71 10.18 5.74 10.98 5.76 C13 6 13 6 15 8 C11.56 10.29 10.01 10.18 6 10 C6.16 10.66 6.16 10.66 7 14 C6.01 14.33 5.02 14.66 4 15 C3.73 14.29 3.46 13.58 3.18 12.85 C1.71 9.71 0.44 7.47 -2 5 C-6.7 3.81 -11.17 3.78 -16 4 C-15.98 4.72 -15.96 5.43 -15.94 6.17 C-15.85 9.41 -15.8 12.64 -15.75 15.88 C-15.73 16.44 -15.73 16.44 -15.65 19.29 C-15.64 20.37 -15.62 21.45 -15.61 22.55 C-15.59 23.55 -15.57 24.54 -15.55 25.57 C-15.7 26.37 -15.85 27.17 -16 28 C-17.33 28.67 -18.67 29.33 -20 30 C-20.41 32.38 -20.41 32.38 -20.28 35.34 C-20.23 36.4 -20.19 37.47 -20.14 38.56 C-20.07 39.67 -20.01 40.79 -19.94 41.94 C-19.9 43.05 -19.86 44.16 -19.81 45.3 C-19.4 53.55 -19.4 53.55 -17.46 55.72 C-16.98 56.14 -16.5 56.56 -16 57 C-16 57.66 -16 58.32 -16 59 C-15.38 59.21 -14.76 59.41 -14.12 59.62 C-12 61 -12 61 -10.81 64.75 C-10.52 66.16 -10.25 67.58 -10 69 C-9.79 70.16 -9.59 71.31 -9.38 72.5 C-9.25 73.33 -9.13 74.15 -9 75 C-8.22 74.77 -7.43 74.55 -6.62 74.31 C-5.76 74.21 -4.89 74.11 -4 74 C-3.34 74.99 -2.68 75.98 -2 77 C-2.99 77.99 -3.98 78.98 -5 80 C-4.84 80.33 -4.84 80.33 -4 82 C-6.33 82.38 -8.66 82.71 -11 83 C-11.33 82.67 -11.66 82.34 -12 82 C-14.44 81.81 -14.44 81.81 -17 82 C-17.33 82.33 -17.33 82.33 -19 84 C-22.06 84.19 -22.06 84.19 -25 84 C-26.75 82.25 -26.13 79.96 -26.14 77.63 C-26.13 76.84 -26.13 76.06 -26.12 75.25 C-26.12 74.43 -26.12 73.61 -26.12 72.77 C-26.06 64.76 -25.82 56.76 -25.56 48.75 C-25.52 47.5 -25.48 46.25 -25.44 44.97 C-24.88 28.88 -24.88 28.88 -22 26 C-21.71 23.82 -21.71 23.82 -21.66 21.13 C-21.63 20.16 -21.6 19.2 -21.57 18.2 C-21.54 17.18 -21.52 16.17 -21.5 15.12 C-21.46 13.13 -21.4 11.13 -21.34 9.13 C-21.33 8.24 -21.31 7.36 -21.29 6.44 C-20.98 3.82 -20.48 2.18 -19 0 C-15.92 -0.64 -15.92 -0.64 -12.19 -0.81 C-11.58 -0.85 -11.58 -0.85 -8.48 -1.02 C-5.43 -1 -2.91 -0.9 0 0 Z " fill="#06172B" transform="translate(39,17)"/>
<path d="M0 0 C4.29 0 8.58 0 13 0 C13.33 7.26 13.66 14.52 14 22 C10 20 10 20 9 19 C9 24.61 9 30.22 9 36 C7.68 35.34 6.36 34.68 5 34 C5.51 40.5 5.51 40.5 7.97 43 C11.09 47.61 10.93 52.35 11.25 57.81 C11.33 58.89 11.4 59.96 11.48 61.07 C11.67 63.71 11.84 66.35 12 69 C11.17 69.33 11.17 69.33 7 71 C5.49 67.09 4.09 63.4 3.12 59.31 C1.81 55.44 0.05 53.66 -3 51 C-5.54 48.46 -4.23 41.48 -4.25 38.06 C-4.27 36.94 -4.29 35.82 -4.31 34.66 C-4.32 33.59 -4.32 32.51 -4.33 31.41 C-4.34 30.42 -4.35 29.43 -4.36 28.41 C-4.24 27.62 -4.12 26.82 -4 26 C-3.01 25.34 -2.02 24.68 -1 24 C-0.57 21.57 -0.57 21.57 -0.49 18.55 C-0.47 18.02 -0.47 18.02 -0.38 15.29 C-0.36 14.17 -0.34 13.04 -0.31 11.88 C-0.28 10.74 -0.24 9.6 -0.21 8.43 C-0.13 5.62 -0.06 2.81 0 0 Z " fill="#F4F2E4" transform="translate(23,21)"/>
<path d="M0 0 C1.6 -0.08 3.21 -0.14 4.81 -0.19 C5.26 -0.2 5.26 -0.2 7.52 -0.29 C10.49 0.06 11.02 0.89 13 3 C14.79 2.83 16.58 2.63 18.35 2.32 C23.04 1.75 27.79 2.04 32.51 2.16 C36 2 36 2 38.52 0.93 C41.92 -0.35 44.49 0.31 48 1 C47.69 3.85 47.38 6.71 47.06 9.56 C46.98 10.36 46.89 11.16 46.8 11.99 C46.62 13.57 46.44 15.16 46.26 16.75 C46.02 18.8 45.8 20.86 45.59 22.93 C44.92 26.42 43.6 27.54 41.21 30.05 C38.52 34.39 38.5 40.01 38 45 C37.67 45 37.34 45 37 45 C36.84 39.22 36.84 39.22 36 10 C35.01 10.99 34.02 11.98 33 13 C32.34 13 31.68 13 31 13 C31.66 11.35 32.32 9.7 33 8 C29.94 7.89 26.88 7.81 23.81 7.75 C22.95 7.72 22.08 7.68 21.19 7.65 C16.92 7.58 14.68 7.56 11.02 9.95 C10.35 10.63 9.69 11.3 9 12 C6.88 13 6.88 13 5 13 C1.76 10.01 1 6.17 0 2 C0 1.34 0 0.68 0 0 Z " fill="#1D2535" transform="translate(45,25)"/>
<path d="M0 0 C0.58 0.82 1.16 1.65 1.75 2.5 C4.34 5.37 4.95 5.38 8.62 5.69 C9.4 5.71 10.18 5.74 10.98 5.76 C13 6 13 6 15 8 C11.56 10.29 10.01 10.18 6 10 C6.33 11.32 6.66 12.64 7 14 C6.01 14.33 5.02 14.66 4 15 C3.73 14.29 3.46 13.58 3.18 12.85 C1.71 9.71 0.44 7.47 -2 5 C-6.7 3.81 -11.17 3.78 -16 4 C-15.98 4.72 -15.96 5.43 -15.94 6.17 C-15.85 9.41 -15.8 12.64 -15.75 15.88 C-15.73 16.44 -15.73 16.44 -15.65 19.29 C-15.64 20.37 -15.62 21.45 -15.61 22.55 C-15.59 23.55 -15.57 24.54 -15.55 25.57 C-15.7 26.37 -15.85 27.17 -16 28 C-17.31 28.71 -18.65 29.38 -20 30 C-20.45 31.88 -20.45 31.88 -20.39 34.13 C-20.38 34.54 -20.38 34.54 -20.35 36.57 C-20.32 37.42 -20.28 38.26 -20.25 39.12 C-20.23 39.97 -20.21 40.82 -20.2 41.7 C-20.15 43.8 -20.08 45.9 -20 48 C-20.99 48 -21.98 48 -23 48 C-23.33 53.28 -23.66 58.56 -24 64 C-24.33 64 -24.66 64 -25 64 C-25.02 60 -25.04 56 -25.05 51.99 C-25.06 50.64 -25.07 49.28 -25.08 47.92 C-25.09 45.95 -25.09 43.99 -25.1 42.03 C-25.1 40.85 -25.11 39.67 -25.11 38.46 C-24.8 28.8 -24.8 28.8 -22 26 C-21.71 23.82 -21.71 23.82 -21.66 21.13 C-21.64 20.65 -21.64 20.65 -21.57 18.2 C-21.54 17.18 -21.52 16.17 -21.5 15.12 C-21.46 13.13 -21.4 11.13 -21.34 9.13 C-21.33 8.24 -21.31 7.36 -21.29 6.44 C-20.98 3.82 -20.48 2.18 -19 0 C-15.92 -0.64 -15.92 -0.64 -12.19 -0.81 C-11.58 -0.85 -11.58 -0.85 -8.48 -1.02 C-5.43 -1 -2.91 -0.9 0 0 Z " fill="#04152C" transform="translate(39,17)"/>
<path d="M0 0 C0 3.55 -0.59 4.06 -2.88 6.62 C-3.41 7.24 -3.94 7.85 -4.49 8.48 C-6 10 -6 10 -8 11 C-6.33 11.04 -4.67 11.04 -3 11 C-2.67 10.67 -2.34 10.34 -2 10 C0.94 9.81 0.94 9.81 4 10 C4.66 10.66 5.32 11.32 6 12 C8.32 12.4 10.66 12.74 13 13 C13 13.99 13 14.98 13 16 C9.39 17.81 5.09 16.49 1.16 16.06 C-2.05 16 -3.31 16.39 -6 18 C-8.75 18.21 -10.98 18 -13.69 17.44 C-16 17 -16 17 -18 18 C-20.33 18.04 -22.67 18.04 -25 18 C-25.33 17.01 -25.66 16.02 -26 15 C-24.84 14.84 -24.84 14.84 -19 14 C-19 13.01 -19 12.02 -19 11 C-19.99 10.67 -20.98 10.34 -22 10 C-20.31 8.5 -20.31 8.5 -18 7 C-17.2 7.08 -16.39 7.16 -15.56 7.25 C-13 7 -13 7 -11.68 5.49 C-10.82 4.22 -10 2.94 -9.21 1.63 C-6.65 -1.82 -3.69 -0.9 0 0 Z " fill="#EDECE1" transform="translate(88,89)"/>
<path d="M0 0 C0.33 0.66 0.66 1.32 1 2 C2.32 1.67 3.64 1.34 5 1 C5.12 4.9 5.19 8.79 5.25 12.69 C5.27 13.24 5.27 13.24 5.35 16.03 C5.45 24.26 5.45 24.26 3.12 28.09 C2.77 28.41 2.77 28.41 1 30 C0.3 30.93 -0.4 31.86 -1.12 32.81 C-1.74 33.53 -2.36 34.26 -3 35 C-3.66 35 -4.32 35 -5 35 C-5 14.39 -5 14.39 -4.19 9 C-4.04 7.95 -3.89 6.9 -3.73 5.81 C-2.98 2.91 -2.32 1.83 0 0 Z " fill="#929593" transform="translate(104,60)"/>
<path d="M0 0 C4.64 3.64 6.59 8.42 8 14 C8.45 19.06 8.38 24.05 8.25 29.12 C8.23 30.48 8.21 31.83 8.2 33.18 C8.15 36.45 8.08 39.73 8 43 C6.29 39.77 5.67 37.21 5.25 33.56 C4.6 29.59 4.03 27.39 0.88 24.81 C-0.07 24.21 -1.02 23.62 -2 23 C-1.67 22.34 -1.34 21.68 -1 21 C-0.34 21.33 0.32 21.66 1 22 C0.84 20.97 0.67 19.94 0.5 18.88 C-0.3 12.61 -0.08 6.3 0 0 Z " fill="#676A6E" transform="translate(36,21)"/>
<path d="M0 0 C1.94 0.75 1.94 0.75 4 2 C4.93 4.76 5.17 7.44 5.32 10.34 C5.36 11.17 5.4 12 5.44 12.86 C5.46 13.29 5.46 13.29 5.56 15.5 C5.6 16.39 5.65 17.28 5.69 18.2 C5.99 24.8 6.12 31.39 6 38 C5.34 37.67 4.68 37.34 4 37 C3.39 34.77 2.89 32.52 2.44 30.25 C2.19 29.02 1.94 27.79 1.68 26.52 C1.46 25.36 1.23 24.2 1 23 C0.81 22.22 0.61 21.44 0.41 20.63 C-0.21 16.65 -0.1 12.71 -0.06 8.69 C-0.06 7.85 -0.05 7.02 -0.05 6.15 C-0.04 4.1 -0.02 2.05 0 0 Z " fill="#878A8B" transform="translate(35,46)"/>
<path d="M0 0 C0.26 0.17 0.26 0.17 1.56 1 C4.81 2.33 7.52 2.19 11 2 C11.66 1.67 12.32 1.34 13 1 C17.83 0.72 21.5 1.24 26 3 C26 3.66 26 4.32 26 5 C27.65 5 29.3 5 31 5 C30.34 5.66 29.68 6.32 29 7 C29.66 7.66 30.32 8.32 31 9 C29.4 8.89 27.79 8.76 26.19 8.62 C25.74 8.59 25.74 8.59 23.48 8.41 C21 8 21 8 18 6 C15.99 6.28 13.99 6.62 12 7 C6.88 7.46 3.23 7.17 -1 4 C-0.67 2.68 -0.34 1.36 0 0 Z " fill="#060F22" transform="translate(22,102)"/>
<path d="M0 0 C0.95 0.04 1.9 0.08 2.88 0.12 C2.88 0.78 2.88 1.44 2.88 2.12 C0.56 2.45 -1.75 2.78 -4.12 3.12 C-3.8 3.78 -3.47 4.44 -3.12 5.12 C-0.06 5.75 -0.06 5.75 2.88 6.12 C2.88 7.11 2.88 8.11 2.88 9.12 C-3.39 9.12 -9.66 9.12 -16.12 9.12 C-15.8 8.47 -15.47 7.81 -15.12 7.12 C-16.12 6.8 -17.1 6.47 -18.12 6.12 C-18.12 5.47 -18.12 4.81 -18.12 4.12 C-18.78 3.8 -19.45 3.47 -20.12 3.12 C-16.65 1.02 -16.65 1.02 -14.31 1.5 C-13.95 1.6 -13.95 1.6 -12.12 2.12 C-8.5 2.31 -8.5 2.31 -5.12 2.12 C-3.12 0.12 -3.12 0.12 0 0 Z " fill="#1E2B3F" transform="translate(66.125,100.875)"/>
<path d="M0 0 C1.09 0.08 2.19 0.16 3.31 0.25 C2.65 3.55 1.99 6.85 1.31 10.25 C0.65 10.25 -0.01 10.25 -0.69 10.25 C-1.68 13.55 -2.67 16.85 -3.69 20.25 C-4.35 20.25 -5.01 20.25 -5.69 20.25 C-6.79 16.93 -6.89 14.31 -6.94 10.81 C-6.95 10.25 -6.95 10.25 -7.02 7.38 C-6.47 2.21 -5.25 0.36 0 0 Z " fill="#F3F2E5" transform="translate(89.6875,27.75)"/>
<path d="M0 0 C0.58 0.82 1.16 1.65 1.75 2.5 C4.34 5.37 4.95 5.38 8.62 5.69 C9.4 5.71 10.18 5.74 10.98 5.76 C13 6 13 6 15 8 C11.56 10.29 10.01 10.18 6 10 C6.33 11.32 6.66 12.64 7 14 C6.01 14.33 5.02 14.66 4 15 C3.58 14.29 3.16 13.58 2.72 12.85 C2.17 11.93 1.63 11.01 1.06 10.06 C0.52 9.15 -0.03 8.23 -0.59 7.29 C-2 5 -2 5 -3 4 C-6.3 3.75 -9.59 3.62 -12.9 3.48 C-16.13 2.98 -17.09 2.57 -19 0 C-16.77 -0.2 -14.54 -0.38 -12.31 -0.56 C-11.69 -0.61 -11.69 -0.61 -8.55 -0.88 C-5.41 -0.99 -2.98 -0.95 0 0 Z " fill="#020C21" transform="translate(39,17)"/>
<path d="M0 0 C0.33 0 0.66 0 1 0 C1.06 3.79 1.09 7.58 1.12 11.38 C1.14 12.46 1.16 13.54 1.18 14.65 C1.18 15.68 1.19 16.71 1.2 17.77 C1.21 18.73 1.22 19.68 1.23 20.66 C1 23 1 23 -1 25 C-1.2 26.95 -1.2 26.95 -1.12 29.12 C-1.1 29.76 -1.1 29.76 -1 33 C-0.67 30.69 -0.34 28.38 0 26 C0.33 26 0.66 26 1 26 C1 31.94 1 37.88 1 44 C0.01 44 -0.98 44 -2 44 C-2.33 49.28 -2.66 54.56 -3 60 C-3.33 60 -3.66 60 -4 60 C-4.02 56 -4.04 52 -4.05 47.99 C-4.06 46.64 -4.07 45.28 -4.08 43.92 C-4.09 41.95 -4.09 39.99 -4.1 38.03 C-4.1 36.85 -4.11 35.67 -4.11 34.46 C-3.8 24.8 -3.8 24.8 -1 22 C-0.68 19.75 -0.68 19.75 -0.59 16.99 C-0.55 16.01 -0.51 15.02 -0.47 14 C-0.44 12.97 -0.41 11.94 -0.38 10.88 C-0.34 9.83 -0.3 8.79 -0.26 7.72 C-0.16 5.15 -0.08 2.57 0 0 Z " fill="#010A15" transform="translate(18,21)"/>
<path d="M0 0 C1.76 5.32 0.47 10.72 -1 16 C-1.83 16.97 -2.65 17.94 -3.5 18.94 C-7.36 23.67 -7.41 29.05 -8 35 C-8.33 35 -8.66 35 -9 35 C-9 26.75 -9 18.5 -9 10 C-8.34 10 -7.68 10 -7 10 C-7 10.99 -7 11.98 -7 13 C-6.34 13 -5.68 13 -5 13 C-4.94 12.45 -4.94 12.45 -4.62 9.69 C-4 6 -4 6 -2 3 C-1.34 3 -0.68 3 0 3 C0 2.01 0 1.02 0 0 Z " fill="#8E908E" transform="translate(91,35)"/>
<path d="M0 0 C3.45 -0.47 6.58 -0.73 10 0 C12.11 2.41 13.09 4.95 14 8 C8.19 13 8.19 13 5 13 C1.76 10.01 1 6.17 0 2 C0 1.34 0 0.68 0 0 Z " fill="#4F5764" transform="translate(45,25)"/>
<path d="M0 0 C0.66 0 1.32 0 2 0 C2.23 10.58 1.85 20.55 0 31 C-0.66 31 -1.32 31 -2 31 C-2.06 27.71 -2.09 24.42 -2.12 21.12 C-2.14 20.21 -2.16 19.29 -2.18 18.34 C-2.22 11.99 -1.49 6.17 0 0 Z " fill="#35373E" transform="translate(57,59)"/>
<path d="M0 0 C5.61 0 11.22 0 17 0 C16.67 0.99 16.34 1.98 16 3 C11.71 3 7.42 3 3 3 C3 10.92 3 18.84 3 27 C2.67 27 2.34 27 2 27 C1.67 23.04 1.34 19.08 1 15 C0.67 15 0.34 15 0 15 C0 10.05 0 5.1 0 0 Z " fill="#233244" transform="translate(20,18)"/>
<path d="M0 0 C0.33 0 0.66 0 1 0 C1.22 6.73 0.95 12.54 -1 19 C-0.67 19 -0.34 19 0 19 C0 21.64 0 24.28 0 27 C-0.33 27 -0.66 27 -1 27 C-1.33 25.35 -1.66 23.7 -2 22 C-2.33 22 -2.66 22 -3 22 C-3 17.71 -3 13.42 -3 9 C-3.66 9.33 -3.66 9.33 -7 11 C-6.12 8.5 -6.12 8.5 -5 6 C-4.34 6 -3.68 6 -3 6 C-2.28 4.35 -1.62 2.69 -1 1 C-0.67 0.67 -0.34 0.34 0 0 Z " fill="#3D4148" transform="translate(100,58)"/>
<path d="M0 0 C0 0.66 0 1.32 0 2 C-1.48 2.16 -1.48 2.16 -9 3 C-9 3.33 -9 3.66 -9 4 C-18.89 6.66 -18.89 6.66 -24 5 C-24.33 4.01 -24.66 3.02 -25 2 C-20.58 -2.42 -5.96 -0.07 0 0 Z " fill="#040D1E" transform="translate(82,27)"/>
<path d="M0 0 C4.49 4.49 7.12 7.85 7.38 14.25 C7.25 15.49 7.13 16.73 7 18 C6.01 18.66 5.02 19.32 4 20 C2.19 18.19 2.62 15.39 2.44 12.94 C2.35 11.83 2.27 10.73 2.18 9.59 C2.15 9.16 2.15 9.16 2 7 C1.67 9.31 1.34 11.62 1 14 C0.67 14 0.34 14 0 14 C0 9.38 0 4.76 0 0 Z " fill="#898C8E" transform="translate(36,21)"/>
<path d="M0 0 C0.66 0 1.32 0 2 0 C1.69 1.2 1.38 2.39 1.06 3.62 C-0.17 9.07 -0.46 14.5 -0.75 20.06 C-1 23 -1 23 -2 25 C-2.66 25 -3.32 25 -4 25 C-4.63 6.94 -4.63 6.94 0 0 Z " fill="#2B2F33" transform="translate(70,35)"/>
<path d="M0 0 C4.88 3.62 4.88 3.62 6 7 C6.13 9.67 6.04 12.32 6 15 C1.77 12.36 1.77 12.36 0 10 C-0.53 6.61 -0.36 3.4 0 0 Z " fill="#EFEEE6" transform="translate(19,75)"/>
<path d="M0 0 C0.8 0.2 1.6 0.41 2.42 0.62 C3.03 0.78 3.63 0.95 4.25 1.12 C3.26 2.11 2.27 3.11 1.25 4.12 C2.57 4.78 3.89 5.44 5.25 6.12 C1.95 6.45 -1.35 6.78 -4.75 7.12 C-4.42 6.47 -4.09 5.81 -3.75 5.12 C-4.74 4.8 -5.73 4.47 -6.75 4.12 C-6.75 3.47 -6.75 2.81 -6.75 2.12 C-7.41 1.8 -8.07 1.47 -8.75 1.12 C-5.46 -0.91 -3.71 -0.98 0 0 Z " fill="#353C43" transform="translate(54.75,102.875)"/>
<path d="M0 0 C1.65 0 3.3 0 5 0 C5 0.66 5 1.32 5 2 C5.32 2.11 5.32 2.11 6.94 2.69 C9 4 9 4 9.88 7.25 C10 11.06 9.45 13.51 8 17 C7.34 16.67 6.68 16.34 6 16 C6.03 14.02 6.07 12.05 6.12 10.07 C5.92 6.73 4.33 4.33 2 2 C1.67 4.64 1.34 7.28 1 10 C0.67 10 0.34 10 0 10 C0 6.7 0 3.4 0 0 Z " fill="#383B40" transform="translate(18,74)"/>
<path d="M0 0 C0.33 0 0.66 0 1 0 C1.08 2.79 1.14 5.58 1.19 8.38 C1.21 9.17 1.24 9.96 1.26 10.78 C1.29 12.86 1.15 14.93 1 17 C0.5 17.33 0.5 17.33 -2 19 C-2.05 16.21 -2.09 13.42 -2.12 10.62 C-2.14 9.83 -2.16 9.04 -2.18 8.22 C-2.19 6.15 -2.1 4.07 -2 2 C-1.34 1.34 -0.68 0.68 0 0 Z " fill="#4D7894" transform="translate(67,72)"/>
<path d="M0 0 C-0.33 5.94 -0.66 11.88 -1 18 C-1.33 18 -1.66 18 -2 18 C-2.33 15.03 -2.66 12.06 -3 9 C-3.33 10.65 -3.66 12.3 -4 14 C-4.33 14 -4.66 14 -5 14 C-5.08 12.23 -5.14 10.46 -5.19 8.69 C-5.22 7.7 -5.26 6.72 -5.29 5.7 C-5 3 -5 3 -3.61 1.14 C-2 0 -2 0 0 0 Z " fill="#F9F9F2" transform="translate(75,38)"/>
<path d="M0 0 C0.66 0.33 1.32 0.66 2 1 C1.85 1.38 1.85 1.38 1.06 3.31 C-0.13 7.45 -0.47 11.33 -0.75 15.61 C-1 18 -1 18 -2 20 C-2.66 20 -3.32 20 -4 20 C-4.3 12.78 -4.13 6.19 0 0 Z " fill="#2D2E30" transform="translate(61,36)"/>
<path d="M0 0 C0.98 0.02 1.97 0.04 2.98 0.05 C3.36 0.07 3.36 0.07 5.25 0.12 C4.75 0.6 4.26 1.07 3.75 1.56 C2.25 3.12 2.25 3.12 2.25 4.12 C-1.42 4.12 -5.08 4.12 -8.75 4.12 C-9.25 4.45 -9.25 4.45 -11.75 6.12 C-10.81 3.78 -10.17 2.4 -8.03 1 C-5.22 -0.08 -3 -0.07 0 0 Z " fill="#010A19" transform="translate(107.75,15.875)"/>
</svg>
