<svg xmlns="http://www.w3.org/2000/svg" width="128" height="128" viewBox="0 0 128 128">
  <path fill="#0d1b2e" d="M20 17h19l6 7 9 1 7-3 23 1 6-5h17l5 6-2 15 3 4-4 18 3 4-2 31-9 9-12-1-9 7-12-2-8 3-12-4-9 3-13-4-6-5-8-1-4-7 1-16-3-8 2-16-2-7 4-11-1-13z"/>
  <path fill="#3a6f9f" d="M103 22h5l-4 18 4-2-4 20 4-1-2 36-6 7 1-21-5 7 1-26-5 7 2-30zM19 72l8 9 4 19-12-5zM37 104l13-4 10 5 11-4 12 3 11-6 8 3-9 7-12-1-11 4-11-3-12 2z"/>
  <path fill="#929593" d="M36 23l9 10 3 56-8-10-1-21-5-6 1-17 5 4zM52 31l7-3-4 61-7-8 1-22-4 3 1-18zM84 28l8-5-7 59-7 9 2-33-4 6 1-25zM99 25l6-4-5 25 5-5-5 25 3-2-2 26-7 6 1-20-5 7 2-24z"/>
  <path fill="#fcf9e4" d="M23 22h13l4 64-8-7-2-18-8-7 4-8-5-4 2-8zM94 22h10l-4 13 5-4-6 18 5-4-6 20 4-3-2 25-9 8 1-22-6 8 2-23-5 6 4-26z"/>
  <path fill="#fcf9e4" d="M55 32c3-3 8-4 13-3l-7 62h-11l2-36zM69 31h8l-3 59-10 1zM79 32h8l-5 56-7 5 2-39z"/>
  <path fill="#0d1b2e" d="M28 28l8 8v12l-6-5 3 20-7-6 1-17-4-4zM37 57l7 10v17l-6-8zM46 33l5-1-5 47-5-10 1-22z"/>
  <path fill="#929593" d="M63 34h2l-4 55h-2zM74 33h2l-3 56h-2zM84 35h2l-3 47-3 4 1-29z"/>
  <path fill="#0d1b2e" d="M95 29l-3 17 8-8-5 18 6-5-4 18-6 9 1-20-6 9 2-24z"/>
  <path fill="#fcf9e4" d="M26 91c6 0 7 5 12 5 4 0 5-5 10-5 4 0 5 5 9 5s5-6 10-6c4 0 5 5 9 5 5 0 6-7 11-7 4 0 5 5 9 5 3 0 5-3 8-3l4 5c-5 1-7 5-13 5-5 0-6-4-9-4-4 0-6 7-12 7-5 0-6-4-9-4-4 0-5 6-10 6-6 0-7-4-11-4-3 0-5 4-10 4-6 0-8-5-13-6z"/>
  <path fill="#0d1b2e" d="M30 94l8 4 7-4 6 5 8-5 7 4 8-5 7 3 7-5 6 3-6 5-7-2-8 6-8-3-7 4-8-3-7 3-8-4-7 2-7-4z"/>
  <path fill="#fcf9e4" d="M28 100c4 0 6 3 9 3 4 0 5-4 9-4s5 4 9 4 5-4 9-4 5 3 9 3 6-5 10-5c5 0 6 4 10 4 3 0 5-2 8-2l-5 6c-5 1-8-2-12-2s-5 5-11 5c-5 0-6-3-9-3-4 0-5 4-10 4s-7-3-10-3-4 3-9 3c-4 0-7-2-10-4z"/>
</svg>
