<svg xmlns="http://www.w3.org/2000/svg" width="128" height="128" viewBox="0 0 128 128"><path fill="#0d1b2e" d="m39 17 1.75 2.5c2.58 2.87 2.98 2.81 6.63 3l2.39.12c2.6.44 3.46 1.17 5.29 3C58 28 58 28 61.44 27.81l2.01-.43c4.63-.69 9.39-.23 14.06-.02 4.13-.42 5.42-1.7 8.49-4.36 2.32-.43 2.32-.43 4.56-.44 4.16-.27 4.16-.27 6.82-3.06L99 17c3.1-1.03 5.31-1.13 8.56-1.12l2.94-.01C113 16 113 16 115 17c.2 2.64.26 5.17.24 7.81l.01 2.48-.02 8.15v5.64l-.02 11.83q-.03 7.6-.02 15.2l-.02 11.65v5.61l-.02 7.82v2.37c-.04 5.33-.04 5.33-1.15 6.44-2.67.14-5.32.04-8 0l-.19 2.31c-.81 2.69-.81 2.69-2.87 4.5-4.65 1.88-8.91 1.64-13.75.57C87 109 87 109 84 111c-1.94.23-1.94.23-4 .19l-2.06-.02C76 111 76 111 73 110l-2 1c-5.44.38-10.62-.23-16-1l-2 1c-2.28-.05-2.28-.05-4.94-.31l-2.65-.24C43 110 43 110 40 108q-3.02.43-6 1c-3.95.36-7.23.33-10.94-1.25C21 106 21 106 20.62 103.94L20 102q-3.47-1.1-7-2a767 767 0 0 1 .44-34.25l.12-3.78c.56-16.09.56-16.09 3.44-18.97.29-2.18.29-2.18.34-4.87l.09-2.93.07-3.08q.06-2.99.16-5.99l.05-2.69A12.7 12.7 0 0 1 20 17c3.08-.64 3.08-.64 6.81-.81l3.71-.21c3.05.02 5.57.12 8.48 1.02"/><path fill="#0a1a2d" d="m107.56 15.88 2.94-.02C113 16 113 16 115 17a97 97 0 0 1 .24 7.8l.01 2.48q0 4.1-.02 8.16v5.64q0 5.92-.03 11.83l-.02 15.2v11.66l-.02 5.6-.02 7.82v2.37c-.03 5.33-.03 5.33-1.14 6.44-2.67.14-5.33.05-8 0l-.19 2.31c-.8 2.7-.8 2.7-2.87 4.5-4.65 1.88-8.9 1.64-13.76.56C87 109 87 109 84 111c-1.94.23-1.94.23-4 .19l-2.06-.02C76 111 76 111 73 110l-2 1c-5.44.38-10.62-.23-16-1l-2 1c-2.28-.06-2.28-.06-4.94-.31l-2.65-.25c-2.4-.44-2.4-.44-5.4-2.44q-3.03.43-6 1c-5.14.47-8.78.17-13-3l1-4 1.55 1c3.25 1.33 5.96 1.2 9.44 1l2-1c6.2-.22 6.2-.22 9.18.63C46 104 46 104 48 103c2.56-1.28 3.3-.78 6 0 3.62.19 3.62.19 7 0l2-2c3.12-.12 3.12-.12 6 0v2l-7 1 1 2c3.6.22 6.83.03 10.37-.56L76 105l1 1q4.98-.59 9.87-1.62c3.58-.44 6.64-.02 10.17.56L99 105l2-2-3.38-.37C94 102 94 102 92 100c-3.06-.19-3.06-.19-6 0l-1 1q-3 .07-6 0 .6-.68 1.2-1.4c2.71-3.12 5.38-6.23 7.8-9.6-2.6-.72-4.43-1.16-7.06-.44C79 91 79 91 77.06 94.13L75 97c-2.5.31-2.5.31-5 0-1.35.3-2.68.6-4 1 1.87-3.87 1.87-3.87 3-5q2.5-.07 5 0l-.02-2.75c-.15-30.47-.15-30.47.46-41.06l.11-2.11C74.76 43.96 75.1 41 76 38h2c1.12-2 1.12-2 2-4l2 1c.32 2.69.32 2.69.41 6.23l.12 3.82.1 4.02.11 4.02q.15 4.95.26 9.9l.75-3.73c.97-4.02.97-4.02 3.27-6.06 3.34-3.7 3.16-8.44 3.66-13.26l.7-5.97.3-2.67C92 29 92 29 93 26H82c2.73-2.73 4.78-3.18 8.5-3.37 4.21-.32 4.21-.32 6.87-3.13L99 17c3.1-1.04 5.31-1.13 8.56-1.12"/><path fill="#e9eae0" d="m63.67 31.8 2.7.02 2.82.05 2.85.03q3.48.03 6.96.1l-.96 1.82c-2.3 4.8-2.25 10.25-2.54 15.5l-.13 2.21q-.4 7.34-.43 14.68-.03 4.5-.1 9.01-.02 2.27-.02 4.55 0 3.23-.05 6.44l-.01 3.81L74 93c-2.92 1.23-2.92 1.23-6 2l-2 3 1.69-1c2.3-1 2.3-1 4.75-.69l2.56-.3c1.19-1.53 1.19-1.53 2.38-3.45 2.05-3.22 2.38-3.49 6.3-4.69L87 88l2 3-5.27 6.15C82 99 82 99 80 100q2.5.06 5 0l1-1c2.94-.19 2.94-.19 6 0l2 2q3.48.6 7 1v3c-3.61 1.8-7.91.48-11.83.05-3.22-.06-4.48.34-7.17 1.95-2.75.21-4.98 0-7.7-.57C72 106 72 106 70 107q-3.5.06-7 0l-1-3 7-1v-2c-6.87 1.87-6.87 1.87-8 3-6.18.23-6.18.23-9.2-.63C50 103 50 103 48 104c-2.56 1.27-3.3.77-6 0-6.55-.23-6.55-.23-9 1-5.26.4-8.45-.34-13-3 .69-2 .69-2 2-4 2.62-.35 4.58-.12 7.13.56C31 99 31 99 34 98v-3c6.75.87 6.75.87 9 2l-2-3c.38-2.19.38-2.19 1-4 2.17.5 4 1 6 2l.05-1.7a450 450 0 0 1 2.26-35.18l.32-3.25C51.37 45.48 52.49 39.5 56 34c3.2-2.14 4-2.25 7.67-2.2"/><path fill="#f3f1e2" d="M110 20a154 154 0 0 1-4 11l2 1c-.53 5.35-2.47 9.36-5 14l1.88-1.5C107 43 107 43 109 43q.12 2.63.19 5.25l.1 2.95c-.33 3.21-1.22 4.39-3.29 6.8-.69 2.25-.69 2.25-1 4l4-1q.17 5.84.25 11.69l.1 3.34c.1 8.23.1 8.23-2.23 12.06L105 90l-2.12 2.81L101 95h-2c0-20 0-20 .5-22.56.65-4.5.58-8.91.5-13.44l-1.31 2.31A25 25 0 0 1 94 67l4-1c-.41 8.19-.91 16.04-3 24l-2.75-2.44C89.9 85.59 88.13 84.36 85 84a96 96 0 0 1 1.19-16.62l.3-2.53c.94-6.32.94-6.32 4.03-9.16 3.98-4.31 3.58-9.38 3.98-15.07.97-13.71.97-13.71 6.5-19.62 3.2-1.07 5.66-1.07 9-1"/><path fill="#06172b" d="m39 17 1.75 2.5c2.59 2.87 3.2 2.88 6.87 3.19l2.36.07C52 23 52 23 54 25c-3.44 2.29-4.99 2.18-9 2l1 4-3 1-.82-2.15C40.71 26.71 39.44 24.47 37 22c-4.7-1.19-9.17-1.22-14-1l.06 2.17q.13 4.86.19 9.71l.1 3.41.04 3.26.06 3.02L23 45l-4 2c-.41 2.38-.41 2.38-.28 5.34l.14 3.22.2 3.38.13 3.36c.41 8.25.41 8.25 2.35 10.42L23 74v2l1.88.62C27 78 27 78 28.19 81.75q.43 2.12.81 4.25l.62 3.5L30 92l2.38-.69L35 91l2 3-3 3 1 2q-3.5.57-7 1l-1-1c-2.44-.19-2.44-.19-5 0l-2 2c-3.06.19-3.06.19-6 0-1.75-1.75-1.13-4.04-1.14-6.37l.02-2.38v-2.48c.06-8.01.3-16.01.56-24.02l.12-3.78c.56-16.09.56-16.09 3.44-18.97.29-2.18.29-2.18.34-4.87l.09-2.93.07-3.08q.06-2.99.16-5.99l.05-2.69A12.7 12.7 0 0 1 20 17c3.08-.64 3.08-.64 6.81-.81l3.71-.21c3.05.02 5.57.12 8.48 1.02"/><path fill="#f4f2e4" d="M23 21h13l1 22c-4-2-4-2-5-3v17l-4-2c.51 6.5.51 6.5 2.97 9 3.12 4.61 2.96 9.35 3.28 14.81l.23 3.26q.28 3.96.52 7.93l-5 2a89 89 0 0 1-3.88-11.69C24.81 76.44 23.05 74.66 20 72c-2.54-2.54-1.23-9.52-1.25-12.94l-.06-3.4-.02-3.25-.03-3L19 47l3-2c.43-2.43.43-2.43.51-5.45l.11-3.26.07-3.41.1-3.45z"/><path fill="#1d2535" d="M45 25q2.4-.12 4.81-.19l2.71-.1c2.97.35 3.5 1.18 5.48 3.29 1.79-.17 3.58-.37 5.35-.68 4.69-.57 9.44-.28 14.16-.16C81 27 81 27 83.52 25.93c3.4-1.28 5.97-.62 9.48.07l-.94 8.56-.26 2.43-.54 4.76q-.36 3.07-.67 6.18c-.67 3.49-1.99 4.61-4.38 7.12C83.52 59.39 83.5 65.01 83 70h-1l-1-35-3 3h-2l2-5q-4.59-.16-9.19-.25l-2.62-.1c-4.27-.07-6.51-.09-10.17 2.3L54 37c-2.12 1-2.12 1-4 1-3.24-2.99-4-6.83-5-11z"/><path fill="#04152c" d="m39 17 1.75 2.5c2.59 2.87 3.2 2.88 6.87 3.19l2.36.07C52 23 52 23 54 25c-3.44 2.29-4.99 2.18-9 2l1 4-3 1-.82-2.15C40.71 26.71 39.44 24.47 37 22c-4.7-1.19-9.17-1.22-14-1l.06 2.17q.13 4.86.19 9.71l.1 3.41.04 3.26.06 3.02L23 45a68 68 0 0 1-4 2c-.45 1.88-.45 1.88-.39 4.13l.04 2.44.1 2.55.05 2.58q.08 3.15.2 6.3h-3l-1 16h-1l-.05-12.01-.03-4.07-.02-5.89-.01-3.57C14.2 45.8 14.2 45.8 17 43c.29-2.18.29-2.18.34-4.87l.09-2.93.07-3.08q.06-2.99.16-5.99l.05-2.69A12.7 12.7 0 0 1 20 17c3.08-.64 3.08-.64 6.81-.81l3.71-.21c3.05.02 5.57.12 8.48 1.02"/><path fill="#edece1" d="M88 89c0 3.55-.59 4.06-2.88 6.62l-1.61 1.86C82 99 82 99 80 100q2.5.06 5 0l1-1c2.94-.19 2.94-.19 6 0l2 2q3.48.6 7 1v3c-3.61 1.81-7.91.49-11.84.06-3.21-.06-4.47.33-7.16 1.94-2.75.21-4.98 0-7.69-.56C72 106 72 106 70 107q-3.5.06-7 0l-1-3 7-1v-3l-3-1c1.69-1.5 1.69-1.5 4-3l2.44.25C75 96 75 96 76.32 94.49a87 87 0 0 0 2.47-3.86C81.35 87.18 84.31 88.1 88 89"/><path fill="#929593" d="m104 60 1 2 4-1q.17 5.84.25 11.69l.1 3.34c.1 8.23.1 8.23-2.23 12.06L105 90l-2.12 2.81L101 95h-2c0-20.61 0-20.61.81-26l.46-3.19c.75-2.9 1.41-3.98 3.73-5.81"/><path fill="#676a6e" d="M36 21c4.64 3.64 6.59 8.42 8 14 .45 5.06.38 10.05.25 15.12l-.05 4.06q-.08 4.91-.2 9.82c-1.71-3.23-2.33-5.79-2.75-9.44-.65-3.97-1.22-6.17-4.37-8.75L34 44l1-2 2 1-.5-3.12c-.8-6.27-.58-12.58-.5-18.88"/><path fill="#878a8b" d="M35 46c1.94.75 1.94.75 4 2 .93 2.76 1.17 5.44 1.32 8.34l.12 2.52.12 2.64.13 2.7q.47 9.9.31 19.8l-2-1a97 97 0 0 1-1.56-6.75l-.76-3.73L36 69l-.59-2.37c-.62-3.98-.51-7.92-.47-11.94l.01-2.54z"/><path fill="#060f22" d="m22 102 1.56 1c3.25 1.33 5.96 1.19 9.44 1l2-1c4.83-.28 8.5.24 13 2v2h5l-2 2 2 2q-2.4-.17-4.81-.38l-2.71-.21C43 110 43 110 40 108q-3.02.43-6 1c-5.12.46-8.77.17-13-3z"/><path fill="#1e2b3f" d="M66.13 100.88 69 101v2l-7 1 1 2c3.06.63 3.06.63 6 1v3H50l1-2-3-1v-2l-2-1c3.47-2.1 3.47-2.1 5.8-1.62l2.2.62c3.62.19 3.62.19 7 0 2-2 2-2 5.12-2.12"/><path fill="#f3f2e5" d="m89.69 27.75 3.3.25-2 10h-2l-3 10h-2c-1.1-3.32-1.2-5.94-1.24-9.44l-.08-3.43c.55-5.17 1.77-7.02 7.02-7.38"/><path fill="#020c21" d="m39 17 1.75 2.5c2.59 2.87 3.2 2.88 6.87 3.19l2.36.07C52 23 52 23 54 25c-3.44 2.29-4.99 2.18-9 2l1 4-3 1-1.28-2.15-1.66-2.79-1.65-2.77C37 22 37 22 36 21c-3.3-.25-6.59-.38-9.9-.52-3.23-.5-4.19-.91-6.1-3.48q3.34-.3 6.69-.56l3.76-.32c3.14-.11 5.57-.07 8.55.88"/><path fill="#010a15" d="M18 21h1q.08 5.68.12 11.38l.06 3.27.02 3.12.03 2.89C19 44 19 44 17 46c-.2 1.95-.2 1.95-.12 4.12L17 54l1-7h1v18h-3l-1 16h-1l-.05-12.01-.03-4.07-.02-5.89-.01-3.57C14.2 45.8 14.2 45.8 17 43c.32-2.25.32-2.25.41-5.01l.12-2.99.09-3.12.12-3.16z"/><path fill="#8e908e" d="M91 35c1.76 5.32.47 10.72-1 16l-2.5 2.94C83.64 58.67 83.59 64.05 83 70h-1V45h2v3h2l.38-3.31C87 41 87 41 89 38h2z"/><path fill="#4f5764" d="M45 25c3.45-.47 6.58-.73 10 0 2.11 2.41 3.09 4.95 4 8-5.81 5-5.81 5-9 5-3.24-2.99-4-6.83-5-11z"/><path fill="#35373e" d="M57 59h2c.23 10.58-.15 20.55-2 31h-2q-.08-4.93-.12-9.88l-.06-2.78A74 74 0 0 1 57 59"/><path fill="#233244" d="M20 18h17l-1 3H23v24h-1l-1-12h-1z"/><path fill="#3d4148" d="M100 58h1c.22 6.73-.05 12.54-2 19h1v8h-1l-1-5h-1V67l-4 2c.88-2.5.88-2.5 2-5h2a90 90 0 0 0 2-5z"/><path fill="#040d1e" d="M82 27v2l-9 1v1c-9.89 2.66-9.89 2.66-15 1l-1-3c4.42-4.42 19.04-2.07 25-2"/><path fill="#898c8e" d="M36 21c4.49 4.49 7.12 7.85 7.38 14.25L43 39l-3 2c-1.81-1.81-1.38-4.61-1.56-7.06l-.26-3.35L38 28l-1 7h-1z"/><path fill="#2b2f33" d="M70 35h2l-.94 3.62c-1.23 5.45-1.52 10.88-1.81 16.44C69 58 69 58 68 60h-2c-.63-18.06-.63-18.06 4-25"/><path fill="#efeee6" d="M19 75c4.88 3.62 4.88 3.62 6 7 .13 2.67.04 5.32 0 8-4.23-2.64-4.23-2.64-6-5-.53-3.39-.36-6.6 0-10"/><path fill="#353c43" d="m54.75 102.88 2.42.62 1.83.5-3 3 4 2-10 1 1-2-3-1v-2l-2-1c3.29-2.03 5.04-2.1 8.75-1.12"/><path fill="#383b40" d="M18 74h5v2l1.94.69C27 78 27 78 27.88 81.25 28 85.06 27.45 87.51 26 91l-2-1q.05-2.97.12-5.93c-.2-3.34-1.79-5.74-4.12-8.07l-1 8h-1z"/><path fill="#4d7894" d="M67 72h1q.12 4.18.19 8.38l.07 2.4A72 72 0 0 1 68 89l-3 2q-.07-4.18-.12-8.38l-.06-2.4c-.01-2.07.08-4.15.18-6.22z"/><path fill="#f9f9f2" d="m75 38-1 18h-1l-1-9-1 5h-1a314 314 0 0 1-.19-5.31l-.1-2.99C70 41 70 41 71.39 39.14 73 38 73 38 75 38"/><path fill="#2d2e30" d="m61 36 2 1-.94 2.31c-1.19 4.14-1.53 8.02-1.81 12.3C60 54 60 54 59 56h-2c-.3-7.22-.13-13.81 4-20"/><path fill="#010a19" d="m107.75 15.88 2.98.04c.38.03.38.03 2.27.07l-1.5 1.44C110 19 110 19 110 20H99c-.5.32-.5.32-3 2 .94-2.34 1.58-3.73 3.72-5.12 2.81-1.08 5.03-1.07 8.03-1"/></svg>