<?xml version="1.0" encoding="UTF-8"?>
<!-- Generator: visioncortex VTracer 0.6.12 -->
<svg version="1.1" xmlns="http://www.w3.org/2000/svg" width="128" height="128" viewBox="0 0 128 128" preserveAspectRatio="xMidYMid meet">
<path d="M0 0 C0.75 -0 1.49 -0.01 2.26 -0.01 C4.31 0.12 4.31 0.12 7.31 1.12 C6.1 4.56 4.93 6.62 2.31 9.12 C1.98 10.12 1.65 11.11 1.31 12.12 C2.3 11.96 2.3 11.96 7.31 11.12 C6.26 14.2 5.26 16.19 3.12 18.69 C2.53 19.49 1.93 20.3 1.31 21.12 C1.7 23.28 1.7 23.28 2.31 25.12 C1.49 25.63 0.67 26.14 -0.17 26.66 C-1.25 27.35 -2.33 28.04 -3.44 28.75 C-4.5 29.42 -5.57 30.1 -6.67 30.79 C-9.87 33.26 -11.54 35.74 -13.69 39.12 C-14.35 39.12 -15.01 39.12 -15.69 39.12 C-16.02 40.45 -16.35 41.77 -16.69 43.12 C-16.03 43.12 -15.37 43.12 -14.69 43.12 C-14.69 42.47 -14.69 41.8 -14.69 41.12 C-11.6 40.12 -9.52 39.75 -6.51 41.1 C-4.45 42.35 -2.51 43.55 -0.69 45.12 C-0.69 45.78 -0.69 46.44 -0.69 47.12 C1.29 47.45 3.27 47.78 5.31 48.12 C5.31 48.78 5.31 49.44 5.31 50.12 C6.96 50.45 8.61 50.78 10.31 51.12 C11.3 56.92 11.5 62.56 11.5 68.44 C11.51 69.34 11.52 70.25 11.54 71.18 C11.54 72.05 11.54 72.91 11.54 73.8 C11.55 74.58 11.55 75.37 11.56 76.17 C11.31 78.12 11.31 78.12 9.31 80.12 C7.99 80.12 6.67 80.12 5.31 80.12 C5.31 80.78 5.31 81.44 5.31 82.12 C3.66 82.82 1.99 83.48 0.31 84.12 C-1.04 85.11 -2.37 86.1 -3.69 87.12 C-6.62 88.83 -9.31 89.68 -12.69 90.12 C-13.35 89.8 -14.01 89.47 -14.69 89.12 C-14.69 88.47 -14.69 87.81 -14.69 87.12 C-15.49 87.02 -16.3 86.92 -17.12 86.81 C-17.97 86.59 -18.82 86.36 -19.69 86.12 C-20.02 85.14 -20.35 84.14 -20.69 83.12 C-21.18 83.29 -21.18 83.29 -23.69 84.12 C-24.18 83.96 -24.18 83.96 -26.69 83.12 C-26.52 84.28 -26.52 84.28 -25.69 90.12 C-30.25 90.42 -34.82 90.67 -39.39 90.88 C-40.94 90.96 -42.48 91.05 -44.03 91.15 C-55.34 91.89 -64.72 91.04 -74.69 85.12 C-77.24 82.4 -78.52 80.66 -79.62 77.09 C-80.96 73.38 -82.72 72.09 -85.81 69.69 C-90.6 65.6 -90.6 65.6 -91.38 61.25 C-90.69 58.13 -90.69 58.13 -89.69 55.12 C-89.69 54.17 -89.69 53.22 -89.69 52.23 C-89.69 43.36 -89.69 43.36 -86.8 39.79 C-83.63 37.3 -80.66 35.49 -76.89 34.07 C-76.16 33.76 -75.44 33.45 -74.69 33.12 C-74.69 32.47 -74.69 31.8 -74.69 31.12 C-77 31.12 -79.31 31.12 -81.69 31.12 C-81.69 30.14 -81.69 29.14 -81.69 28.12 C-78.38 24.98 -75.03 23.22 -70.81 21.56 C-69.76 21.14 -68.72 20.72 -67.64 20.29 C-66.66 19.9 -65.69 19.52 -64.69 19.12 C-58.01 16.49 -58.01 16.49 -56.41 14.67 C-50.48 9.35 -38.97 8.66 -31.31 7.71 C-28.3 7.04 -26.32 5.71 -23.69 4.12 C-20.57 3.21 -20.57 3.21 -17.25 2.5 C-16.16 2.26 -15.07 2.02 -13.94 1.77 C-9.27 0.84 -4.77 -0.02 0 0 Z M-27.69 81.12 C-26.69 83.12 -26.69 83.12 -26.69 83.12 Z " fill="#08182E" transform="translate(103.6875,17.875)"/>
<path d="M0 0 C-2.3 3.45 -3.22 3.68 -7 5.06 C-23.48 11.66 -37.04 21.12 -49.87 33.31 C-52 35 -52 35 -55 35 C-55.23 36.01 -55.45 37.02 -55.69 38.06 C-56.95 42.47 -59.06 45.49 -62 49 C-62.99 49 -63.98 49 -65 49 C-65 53.95 -65 58.9 -65 64 C-66.32 63.34 -67.64 62.68 -69 62 C-68.77 68.33 -67.37 71.32 -63.37 76.17 C-61.72 78.38 -61.17 80.26 -61 83 C-63.02 82.39 -65.01 81.71 -67 81 C-67.34 80.88 -67.34 80.88 -69.07 80.29 C-72.36 78.96 -74.47 78.06 -76.11 74.81 C-76.88 72.38 -76.88 72.38 -77.43 70.02 C-78 68 -78 68 -80 66 C-81.18 56.57 -76.2 48.65 -70.82 41.27 C-68.41 38.26 -65.83 35.62 -63 33 C-63.58 33.29 -64.16 33.58 -64.75 33.88 C-67 35 -67 35 -69.12 35.81 C-71.69 37.44 -71.95 39.18 -73 42 C-74.94 44.81 -74.94 44.81 -77 47 C-77.99 47 -78.98 47 -80 47 C-80.06 47.64 -80.12 48.28 -80.18 48.94 C-80.67 53.98 -81.24 58.99 -82 64 C-85.06 62.56 -85.06 62.56 -88 60 C-88.71 55.39 -87.47 51.29 -84.94 47.44 C-84.3 46.63 -83.66 45.83 -83 45 C-83.5 45.16 -83.5 45.16 -86 46 C-86.3 43.26 -86.3 43.26 -86 40 C-83.95 37.77 -83.95 37.77 -81.25 35.81 C-80.37 35.16 -79.49 34.51 -78.58 33.83 C-78.15 33.53 -78.15 33.53 -76 32 C-74.66 31 -73.33 30 -72 29 C-73.98 28.01 -75.96 27.02 -78 26 C-75.29 22.59 -71.57 21.43 -67.62 19.94 C-66.97 19.68 -66.31 19.43 -65.62 19.16 C-62.81 18.07 -60 17 -57.15 16 C-55 15 -55 15 -53 12 C-50.94 11.23 -50.94 11.23 -48.42 10.68 C-47.51 10.48 -46.59 10.27 -45.65 10.06 C-44.69 9.85 -43.74 9.65 -42.75 9.44 C-35.71 7.88 -28.95 6.23 -22.25 3.5 C-14.95 0.75 -7.77 -0.29 0 0 Z " fill="#F2F1E2" transform="translate(105,22)"/>
<path d="M0 0 C0.99 0.33 1.98 0.66 3 1 C3 5.62 3 10.24 3 15 C3.66 15 4.32 15 5 15 C6.04 16.64 7.04 18.31 8 20 C8.66 20.66 9.32 21.32 10 22 C8.68 23.32 7.36 24.64 6 26 C6.35 25.82 6.35 25.82 8.12 24.94 C12.3 23.57 15.35 24.35 19.38 25.94 C19.64 26.11 19.64 26.11 21 27 C21 27.66 21 28.32 21 29 C17.9 31.54 16.43 32.03 12.38 31.75 C9 31 9 31 6 30 C6 30.99 6 31.98 6 33 C8 34.19 8 34.19 10 35 C9.01 35.66 8.02 36.32 7 37 C6.67 37.99 6.34 38.98 6 40 C7.98 39.01 9.96 38.02 12 37 C12 38.98 12 40.96 12 43 C12.66 43 13.32 43 14 43 C14 41.76 14 40.53 14 39.25 C14.25 37.05 14.25 37.05 15 35 C17.47 33.1 20.07 32.01 23 31 C23.08 32.44 23.14 33.87 23.19 35.31 C23.2 35.71 23.2 35.71 23.29 37.74 C23 40 23 40 21.61 41.79 C20 43 20 43 18 43 C18 43.99 18 44.98 18 46 C19.65 45.34 21.3 44.68 23 44 C23 45.65 23 47.3 23 49 C23.99 49 24.98 49 26 49 C26 47.35 26 45.7 26 44 C27.98 44.66 29.96 45.32 32 46 C31.2 45.2 30.39 44.39 29.56 43.56 C26 40 26 40 25.9 37.93 C25.91 37.11 25.93 36.29 25.94 35.44 C25.95 34.61 25.96 33.78 25.96 32.93 C25.98 32.3 25.99 31.66 26 31 C29.93 32.31 32.4 33.75 35 37 C35.38 38.66 35.73 40.32 36 42 C36.33 42.16 36.33 42.16 38 43 C38 41.35 38 39.7 38 38 C39.65 38.33 41.3 38.66 43 39 C43.16 38.67 43.16 38.67 44 37 C42.68 36.34 41.36 35.68 40 35 C40.99 33.68 41.98 32.36 43 31 C42.32 31.11 41.65 31.21 40.95 31.32 C40.06 31.44 39.17 31.56 38.25 31.69 C37.37 31.82 36.49 31.94 35.58 32.07 C32.42 31.98 31.23 31.19 29 29 C29 28.34 29 27.68 29 27 C30.88 25.25 30.88 25.25 34 24 C37.42 24.34 40.68 25.1 44 26 C42.68 24.35 41.36 22.7 40 21 C41.32 19.68 42.64 18.36 44 17 C43.01 17.16 43.01 17.16 38 18 C38 16.68 38 15.36 38 14 C37.01 14 36.02 14 35 14 C34.96 15.07 34.92 16.14 34.88 17.25 C34 21 34 21 31.06 23.44 C28 25 28 25 26 25 C25.28 18.13 25.28 18.13 27.34 14.91 C28.83 13.2 30.35 11.57 32 10 C30.02 10.66 28.04 11.32 26 12 C26 10.35 26 8.7 26 7 C25.17 6.84 25.17 6.84 21 6 C21 5.34 21 4.68 21 4 C24.09 3 26.17 2.63 29.18 3.98 C31.24 5.23 33.17 6.43 35 8 C35 8.66 35 9.32 35 10 C36.98 10.33 38.96 10.66 41 11 C41 11.66 41 12.32 41 13 C41.83 13.16 41.83 13.16 46 14 C46.99 19.8 47.18 25.44 47.19 31.31 C47.2 32.22 47.21 33.12 47.22 34.06 C47.23 34.92 47.23 35.79 47.23 36.68 C47.23 37.46 47.24 38.24 47.24 39.05 C47 41 47 41 45 43 C43.68 43 42.36 43 41 43 C41 43.66 41 44.32 41 45 C39.34 45.69 37.67 46.35 36 47 C34.65 47.98 33.32 48.98 32 50 C29.06 51.71 26.37 52.56 23 53 C22.67 52.84 22.67 52.84 21 52 C21 51.34 21 50.68 21 50 C20.2 49.9 19.39 49.79 18.56 49.69 C18.14 49.57 18.14 49.57 16 49 C15.67 48.01 15.34 47.02 15 46 C14.5 46.16 14.5 46.16 12 47 C11.5 46.84 11.5 46.84 9 46 C9 47.65 9 49.3 9 51 C4.83 48.91 2.32 46.28 -0.57 42.72 C-2.93 39.89 -5.09 37.94 -8.19 35.88 C-9.12 35.26 -10.04 34.64 -11 34 C-11 33.67 -11 33.34 -11 33 C-9.02 33 -7.04 33 -5 33 C-6.56 30.19 -7.79 28.17 -10.31 26.12 C-10.87 25.42 -11.43 24.72 -12 24 C-11.31 20.75 -11.31 20.75 -10 17 C-9.85 15.54 -9.72 14.09 -9.62 12.62 C-9.42 11.43 -9.21 10.23 -9 9 C-7.67 8.66 -6.33 8.33 -5 8 C-3.52 6.15 -3.52 6.15 -2.25 3.94 C-1.82 3.2 -1.39 2.47 -0.95 1.71 C-0.64 1.15 -0.32 0.58 0 0 Z M8 44 C9 46 9 46 9 46 Z " fill="#0F1E32" transform="translate(68,55)"/>
<path d="M0 0 C0 0.99 0 1.98 0 3 C0.66 3 1.32 3 2 3 C2 3.66 2 4.32 2 5 C-2.25 7.69 -6.59 9.78 -11.56 10.56 C-12.37 10.71 -13.17 10.85 -14 11 C-14.14 11.62 -14.28 12.24 -14.42 12.88 C-15 15 -15 15 -16.67 16.31 C-17.36 16.68 -18.04 17.05 -18.75 17.44 C-22.39 19.55 -25.13 21.88 -28 25 C-28.66 25.66 -29.32 26.32 -30 27 C-30.99 27 -31.98 27 -33 27 C-33.11 27.45 -33.11 27.45 -33.69 29.75 C-35.19 33.47 -36.63 34.89 -40 37 C-40.66 36.67 -41.32 36.34 -42 36 C-41.96 37.18 -41.92 38.35 -41.88 39.56 C-41.83 42.85 -42.16 44.41 -43.38 47.62 C-43.58 48.74 -43.79 49.85 -44 51 C-42.68 52.85 -41.26 54.13 -39.48 55.54 C-37.71 57.29 -37.4 58.58 -37 61 C-38.98 61 -40.96 61 -43 61 C-42.49 61.27 -41.98 61.54 -41.46 61.81 C-36.65 64.55 -33.59 67.33 -30.52 71.94 C-28.59 74.56 -26.34 76.74 -24 79 C-28.39 79.23 -32.79 79.37 -37.19 79.5 C-37.81 79.53 -37.81 79.53 -40.96 79.7 C-49.97 79.9 -49.97 79.9 -52.93 77.32 C-54.27 75.24 -55.19 73.33 -56 71 C-56.12 70.66 -56.12 70.66 -56.74 68.92 C-59.47 60.36 -58.8 50.51 -54.74 42.53 C-51.67 37.19 -48.26 32.45 -44 28 C-43.34 28 -42.68 28 -42 28 C-41.67 28.66 -41.34 29.32 -41 30 C-40.84 28.99 -40.67 27.98 -40.5 26.94 C-37.68 17.41 -25.12 11.74 -17 7 C-4.04 0 -4.04 0 0 0 Z " fill="#F3F2E4" transform="translate(101,28)"/>
<path d="M0 0 C-0.25 1.91 -0.25 1.91 -1 4 C-2.71 4.87 -2.71 4.87 -4.94 5.44 C-15.5 8.58 -24.19 14.55 -33 21 C-33.39 21.28 -33.39 21.28 -35.35 22.67 C-38.72 25.25 -39.92 26.69 -40.94 30.88 C-40.96 31.91 -40.98 32.94 -41 34 C-41.33 33.84 -41.33 33.84 -43 33 C-43 32.34 -43 31.68 -43 31 C-46.82 33.79 -49.23 36.47 -51.69 40.5 C-52.27 41.44 -52.85 42.38 -53.45 43.34 C-58.32 51.69 -59.33 60.71 -57.25 70.19 C-56.84 71.46 -56.42 72.73 -56 74 C-55.8 74.61 -55.8 74.61 -54.81 77.71 C-53.74 79.54 -53.74 79.54 -52 81 C-47.24 81.91 -42.58 81.65 -37.75 81.44 C-36.43 81.41 -35.12 81.37 -33.76 81.34 C-30.5 81.26 -27.25 81.14 -24 81 C-24 81.66 -24 82.32 -24 83 C-28.57 83.3 -33.13 83.55 -37.7 83.76 C-39.25 83.83 -40.8 83.92 -42.34 84.03 C-53.65 84.76 -63.03 83.92 -73 78 C-75.55 75.28 -76.84 73.53 -77.93 69.96 C-79.27 66.25 -81.03 64.96 -84.12 62.56 C-88.92 58.47 -88.92 58.47 -89.69 54.12 C-89 51 -89 51 -88 48 C-88 47.05 -88 46.09 -88 45.11 C-88 36.24 -88 36.24 -85.11 32.66 C-81.94 30.18 -78.98 28.37 -75.2 26.95 C-74.48 26.64 -73.75 26.32 -73 26 C-73 25.34 -73 24.68 -73 24 C-71.35 24.33 -69.7 24.66 -68 25 C-71.73 28.97 -75.72 32.06 -80.21 35.16 C-82 37 -82 37 -82.26 39.72 C-82.18 40.47 -82.09 41.22 -82 42 C-81.01 42 -80.02 42 -79 42 C-79.64 42.8 -80.28 43.61 -80.94 44.44 C-83.42 48.18 -84.68 52.51 -84 57 C-82 58.77 -82 58.77 -80 60 C-79.82 58.86 -79.64 57.71 -79.45 56.54 C-79.2 55.04 -78.94 53.55 -78.69 52.06 C-78.57 51.31 -78.45 50.55 -78.33 49.78 C-77.99 47.83 -77.5 45.91 -77 44 C-76.5 43.84 -76.5 43.84 -74 43 C-71.76 40.56 -70.2 38.59 -69.12 35.44 C-67.52 31.97 -65.32 30.76 -62 29 C-61.01 29.33 -60.02 29.66 -59 30 C-59.51 30.46 -60.02 30.92 -60.54 31.4 C-68.6 39.04 -75.26 48.49 -76.38 59.81 C-76 63 -76 63 -74.56 64.44 C-72.58 66.42 -72.82 67.32 -72.69 70.06 C-72.46 71.36 -72.23 72.66 -72 74 C-69.44 75.25 -69.44 75.25 -66 76 C-64.52 76.67 -63.07 77.38 -61.62 78.12 C-60.94 78.48 -60.25 78.83 -59.54 79.2 C-59.03 79.46 -58.52 79.73 -58 80 C-61.44 72.62 -61.44 72.62 -64.19 69.56 C-66.77 65.91 -66.81 62.38 -67 58 C-65.35 58.99 -63.7 59.98 -62 61 C-62.33 56.05 -62.66 51.1 -63 46 C-61.35 45.34 -59.7 44.68 -58 44 C-55.6 40.98 -54.15 38.51 -53.06 34.81 C-51.7 31.21 -50.26 30.92 -47 29 C-45.32 27.49 -43.68 25.95 -42.06 24.38 C-32.79 15.85 -13.05 0 0 0 Z " fill="#131D2E" transform="translate(102,25)"/>
<path d="M0 0 C0.99 0 1.98 0 3 0 C3 1.65 3 3.3 3 5 C3.99 4.34 4.98 3.68 6 3 C6.99 3 7.98 3 9 3 C7.32 6.74 7.32 6.74 5.44 8.25 C3.07 11.13 3.3 14.34 3 18 C9.51 14.99 9.51 14.99 10.91 12.18 C11.44 10.25 11.44 10.25 12 7 C12.99 7 13.98 7 15 7 C15 8.32 15 9.64 15 11 C16.98 10.67 18.96 10.34 21 10 C20 13 20 13 18 15 C18.99 15.66 19.98 16.32 21 17 C21 17.66 21 18.32 21 19 C20.34 18.9 19.67 18.81 18.99 18.71 C10.22 17.61 10.22 17.61 6 20 C7.38 22.06 7.38 22.06 10 24 C13.4 24.06 16.66 23.59 20 23 C20 23.99 20 24.98 20 26 C19.34 26.66 18.68 27.32 18 28 C18.99 28.66 19.98 29.32 21 30 C20.84 30.5 20.84 30.5 20 33 C18.68 32.67 17.36 32.34 16 32 C15.67 33.32 15.34 34.64 15 36 C14.5 35.84 14.5 35.84 12 35 C11.75 33.91 11.5 32.81 11.25 31.69 C9.93 27.8 9.7 27.42 6.38 25.56 C5.26 25.05 4.15 24.53 3 24 C3.07 27.07 3.27 30.01 4 33 C6.56 35.44 6.56 35.44 9 37 C9 37.66 9 38.32 9 39 C6.83 38.49 5 38 3 37 C3 38.65 3 40.3 3 42 C2.01 42 1.02 42 0 42 C-0.33 40.68 -0.66 39.36 -1 38 C-1.66 38.16 -1.66 38.16 -5 39 C-5 38.01 -5 37.02 -5 36 C-4.67 35.8 -4.67 35.8 -3 34.81 C-1 33 -1 33 -0.73 31.03 C-0.75 29.02 -0.87 27.01 -1 25 C-1.78 25.5 -2.57 25.99 -3.38 26.5 C-6 28 -6 28 -8 28 C-8.33 30.64 -8.66 33.28 -9 36 C-9.66 36 -10.32 36 -11 36 C-11.33 34.35 -11.66 32.7 -12 31 C-13.65 31.66 -15.3 32.32 -17 33 C-16.62 31.06 -16.62 31.06 -16 29 C-15.34 28.67 -14.68 28.34 -14 28 C-14.99 27.34 -15.98 26.68 -17 26 C-17 25.01 -17 24.02 -17 23 C-16.34 23.1 -15.67 23.19 -14.99 23.29 C-5.85 24.44 -5.85 24.44 -2 22 C-2 21.34 -2 20.68 -2 20 C-7.32 17.68 -11.44 18.09 -17 19 C-16.63 18.22 -16.26 17.43 -15.88 16.62 C-15.59 15.76 -15.3 14.89 -15 14 C-15.66 13.34 -16.32 12.68 -17 12 C-17 11.01 -17 10.02 -17 9 C-16.17 9.33 -16.17 9.33 -12 11 C-11.67 9.35 -11.34 7.7 -11 6 C-10.34 6 -9.68 6 -9 6 C-8.81 7.24 -8.63 8.47 -8.44 9.75 C-7.81 12.39 -7.41 13.66 -5.31 15.42 C-3.38 16.5 -3.38 16.5 0 18 C-0.13 14.95 -0.33 11.98 -1 9 C-3.06 7.12 -3.06 7.12 -5 6 C-5 5.01 -5 4.02 -5 3 C-3.68 3.33 -2.36 3.66 -1 4 C-0.67 2.68 -0.34 1.36 0 0 Z " fill="#E7E7E1" transform="translate(91,62)"/>
<path d="M0 0 C2.5 1.18 4.67 2.49 7 4 C7 4.66 7 5.32 7 6 C7.99 6.17 7.99 6.17 13 7 C13 7.66 13 8.32 13 9 C13.83 9.16 13.83 9.16 18 10 C18.99 15.8 19.18 21.44 19.19 27.31 C19.2 28.22 19.21 29.12 19.22 30.06 C19.23 30.92 19.23 31.79 19.23 32.68 C19.23 33.46 19.24 34.24 19.24 35.05 C19 37 19 37 17 39 C15.68 39 14.36 39 13 39 C13 39.66 13 40.32 13 41 C11.34 41.69 9.67 42.35 8 43 C6.65 43.98 5.32 44.98 4 46 C1.06 47.71 -1.63 48.56 -5 49 C-5.66 48.67 -6.32 48.34 -7 48 C-7 47.34 -7 46.68 -7 46 C-7.8 45.9 -8.61 45.79 -9.44 45.69 C-10.28 45.46 -11.13 45.23 -12 45 C-12.17 44.5 -12.17 44.5 -13 42 C-12.34 41.34 -11.68 40.68 -11 40 C-11 40.66 -11 41.32 -11 42 C-9.02 41.34 -7.04 40.68 -5 40 C-5 41.65 -5 43.3 -5 45 C-4.01 45 -3.02 45 -2 45 C-2 43.35 -2 41.7 -2 40 C-0.02 40.66 1.96 41.32 4 42 C3.2 41.2 2.39 40.39 1.56 39.56 C-2 36 -2 36 -2.1 33.93 C-2.09 33.11 -2.07 32.29 -2.06 31.44 C-2.05 30.61 -2.04 29.78 -2.04 28.93 C-2.02 28.3 -2.01 27.66 -2 27 C1.93 28.31 4.4 29.75 7 33 C7.38 34.66 7.73 36.32 8 38 C8.66 38.33 9.32 38.66 10 39 C10 37.35 10 35.7 10 34 C11.65 34.33 13.3 34.66 15 35 C15.33 34.34 15.66 33.68 16 33 C14.68 32.34 13.36 31.68 12 31 C12.99 29.68 13.98 28.36 15 27 C14.32 27.11 13.65 27.21 12.95 27.32 C12.06 27.44 11.17 27.56 10.25 27.69 C9.37 27.82 8.49 27.94 7.58 28.07 C4.42 27.98 3.23 27.19 1 25 C1 24.34 1 23.68 1 23 C2.88 21.25 2.88 21.25 6 20 C9.42 20.34 12.68 21.1 16 22 C14.68 20.35 13.36 18.7 12 17 C13.32 15.68 14.64 14.36 16 13 C14.02 13.33 12.04 13.66 10 14 C10 12.68 10 11.36 10 10 C9.01 10 8.02 10 7 10 C6.96 11.07 6.92 12.14 6.88 13.25 C6 17 6 17 3.06 19.44 C0 21 0 21 -2 21 C-2.72 14.13 -2.72 14.13 -0.66 10.91 C0.83 9.2 2.35 7.57 4 6 C2.02 6.66 0.04 7.32 -2 8 C-2 6.35 -2 4.7 -2 3 C-3.65 2.67 -5.3 2.34 -7 2 C-7 1.34 -7 0.68 -7 0 C-4.2 -1.4 -3 -0.87 0 0 Z " fill="#0D172B" transform="translate(96,59)"/>
<path d="M0 0 C0.75 -0 1.49 -0.01 2.26 -0.01 C4.31 0.12 4.31 0.12 7.31 1.12 C6.11 4.55 4.98 6.68 2.31 9.12 C1.65 10.12 0.99 11.11 0.31 12.12 C-0.68 12.45 -1.67 12.79 -2.69 13.12 C-0.81 6.25 -0.81 6.25 0.31 5.12 C-20.65 6.09 -20.65 6.09 -25.69 11.12 C-27.96 11.78 -27.96 11.78 -30.77 12.34 C-31.79 12.55 -32.8 12.76 -33.84 12.98 C-34.91 13.19 -35.97 13.41 -37.06 13.62 C-39.15 14.05 -41.25 14.47 -43.34 14.91 C-44.27 15.09 -45.2 15.28 -46.15 15.47 C-48.59 16.1 -50.56 16.78 -52.69 18.12 C-52.69 18.78 -52.69 19.45 -52.69 20.12 C-54.37 20.96 -54.37 20.96 -56.7 21.78 C-57.54 22.08 -58.38 22.38 -59.25 22.69 C-59.69 22.85 -59.69 22.85 -61.94 23.62 C-63.67 24.24 -65.41 24.85 -67.14 25.47 C-67.92 25.74 -68.69 26.01 -69.49 26.29 C-71.64 27.11 -73.65 28.06 -75.69 29.12 C-75.36 29.78 -75.03 30.45 -74.69 31.12 C-77 31.12 -79.31 31.12 -81.69 31.12 C-81.69 30.14 -81.69 29.14 -81.69 28.12 C-78.38 24.98 -75.03 23.22 -70.81 21.56 C-69.76 21.14 -68.72 20.72 -67.64 20.29 C-66.66 19.9 -65.69 19.52 -64.69 19.12 C-58.01 16.49 -58.01 16.49 -56.41 14.67 C-50.48 9.35 -38.97 8.66 -31.31 7.71 C-28.3 7.04 -26.32 5.71 -23.69 4.12 C-20.57 3.21 -20.57 3.21 -17.25 2.5 C-16.16 2.26 -15.07 2.02 -13.94 1.77 C-9.27 0.84 -4.77 -0.02 0 0 Z " fill="#081225" transform="translate(103.6875,17.875)"/>
<path d="M0 0 C0.66 0.66 1.32 1.32 2 2 C1.68 2.17 1.68 2.17 0.07 3.02 C-0.76 3.47 -1.59 3.92 -2.44 4.38 C-3.26 4.82 -4.08 5.26 -4.93 5.71 C-7 7 -7 7 -8 9 C-9.88 9.91 -11.77 10.82 -13.66 11.71 C-17.79 13.98 -21.37 17.01 -25 20 C-26 17 -26 17 -26 13 C-26.64 13.4 -27.28 13.79 -27.94 14.2 C-34.92 18.16 -34.92 18.16 -38.22 17.66 C-40.12 16.81 -40.12 16.81 -43 15 C-40.29 11.59 -36.57 10.43 -32.62 8.94 C-31.97 8.68 -31.3 8.43 -30.62 8.16 C-27.81 7.07 -25 6 -22.15 5 C-20 4 -20 4 -18 1 C-15.14 -0.02 -15.14 -0.02 -11.69 -0.81 C-10.56 -1.09 -9.43 -1.36 -8.26 -1.64 C-4.73 -2.03 -3.09 -1.68 0 0 Z " fill="#C0C4C3" transform="translate(70,33)"/>
<path d="M0 0 C-0.25 1.91 -0.25 1.91 -1 4 C-2.71 4.87 -2.71 4.87 -4.94 5.44 C-15.5 8.58 -24.19 14.55 -33 21 C-33.39 21.28 -33.39 21.28 -35.35 22.67 C-38.72 25.25 -39.92 26.69 -40.94 30.88 C-40.96 31.91 -40.98 32.94 -41 34 C-41.66 33.67 -42.32 33.34 -43 33 C-43 32.34 -43 31.68 -43 31 C-46.82 33.79 -49.23 36.47 -51.69 40.5 C-52.27 41.44 -52.85 42.38 -53.45 43.34 C-57.45 50.2 -58.16 55.94 -58.06 63.88 C-58.06 64.22 -58.06 64.22 -58.05 65.96 C-58.04 67.64 -58.02 69.32 -58 71 C-62.79 67.58 -62.79 67.58 -64 66 C-63.67 63.8 -63.67 63.8 -63 61 C-63.07 57.75 -63.17 54.51 -63.39 51.26 C-63.45 49.3 -63.45 49.3 -63 46 C-60.62 44.71 -60.62 44.71 -58 44 C-55.6 40.98 -54.15 38.51 -53.06 34.81 C-51.7 31.21 -50.26 30.92 -47 29 C-45.32 27.49 -43.68 25.95 -42.06 24.38 C-32.79 15.85 -13.05 0 0 0 Z " fill="#314E6E" transform="translate(102,25)"/>
<path d="M0 0 C0.99 0 1.98 0 3 0 C3 1.32 3 2.64 3 4 C4.98 3.67 6.96 3.34 9 3 C8 6 8 6 6 8 C6.99 8.66 7.98 9.32 9 10 C9 10.66 9 11.32 9 12 C8.34 11.9 7.67 11.81 6.99 11.71 C-1.78 10.61 -1.78 10.61 -6 13 C-4.62 15.06 -4.62 15.06 -2 17 C1.4 17.06 4.66 16.59 8 16 C8 16.99 8 17.98 8 19 C7.34 19.66 6.68 20.32 6 21 C6.99 21.66 7.98 22.32 9 23 C8.67 23.99 8.34 24.98 8 26 C6.68 25.67 5.36 25.34 4 25 C3.67 26.32 3.34 27.64 3 29 C2.01 28.67 1.02 28.34 0 28 C-0.27 26.91 -0.54 25.81 -0.81 24.69 C-2 21 -2 21 -5.19 19 C-6.12 18.34 -7.04 17.68 -8 17 C-8.19 13.44 -8.19 13.44 -7 10 C-5.34 8.98 -3.68 7.98 -2 7 C-0.69 3.31 -0.69 3.31 0 0 Z " fill="#E0E0D9" transform="translate(103,69)"/>
<path d="M0 0 C-2.38 3.56 -3.82 3.98 -7.75 5.5 C-14.55 8.2 -14.55 8.2 -17.62 9.81 C-20 11 -20 11 -22 11 C-22 10.34 -22 9.68 -22 9 C-22.99 8.67 -23.98 8.34 -25 8 C-25 6.68 -25 5.36 -25 4 C-22.34 3.32 -19.67 2.66 -17 2 C-16.26 1.81 -15.51 1.62 -14.75 1.42 C-9.7 0.19 -5.2 -0.19 0 0 Z " fill="#DEE0D7" transform="translate(105,22)"/>
<path d="M0 0 C1.65 0.33 3.3 0.66 5 1 C1.27 4.97 -2.72 8.06 -7.21 11.16 C-9 13 -9 13 -9.26 15.72 C-9.22 16.1 -9.22 16.1 -9 18 C-8.01 18 -7.02 18 -6 18 C-6.62 18.91 -7.24 19.81 -7.88 20.75 C-9.44 23.15 -10.8 25.41 -12 28 C-13.61 22.5 -14.54 15.35 -12.09 10.02 C-9.36 6.6 -5.76 4.17 -2 2 C-1.34 2 -0.68 2 0 2 C0 1.34 0 0.68 0 0 Z " fill="#0E192C" transform="translate(29,49)"/>
<path d="M0 0 C0.99 0.33 1.98 0.66 3 1 C2.49 1.46 1.98 1.92 1.46 2.4 C-7.71 11.09 -13.68 21.32 -15 34 C-15.66 33.67 -16.32 33.34 -17 33 C-17.43 27.03 -17.07 20.67 -15 15 C-14.01 14.67 -13.02 14.34 -12 14 C-9.76 11.56 -8.2 9.59 -7.12 6.44 C-5.52 2.97 -3.32 1.76 0 0 Z " fill="#2C4E6F" transform="translate(40,54)"/>
<path d="M0 0 C0.33 0 0.66 0 1 0 C0.59 15.14 0.59 15.14 -4 20 C-4.66 20.33 -5.32 20.66 -6 21 C-6.11 18.58 -6.19 16.17 -6.25 13.75 C-6.28 13.07 -6.32 12.39 -6.35 11.68 C-6.42 8.17 -6.27 6.35 -4.11 3.52 C-2 2 -2 2 0 2 C0 1.34 0 0.68 0 0 Z " fill="#7B8B93" transform="translate(76,49)"/>
<path d="M0 0 C0 0.66 0 1.32 0 2 C0.66 2.33 1.32 2.66 2 3 C1.01 3 0.02 3 -1 3 C-1.04 4.07 -1.08 5.14 -1.12 6.25 C-2 10 -2 10 -4.94 12.44 C-8 14 -8 14 -10 14 C-10.84 7.07 -10.84 7.07 -8.55 4.13 C-3.84 0 -3.84 0 0 0 Z " fill="#122033" transform="translate(104,66)"/>
<path d="M0 0 C0.99 0.33 1.98 0.66 3 1 C3.2 3 3.39 5 3.55 7 C4.26 10.15 6.41 11.28 9 13 C9 13.66 9 14.32 9 15 C6.83 14.49 5 14 3 13 C3 14.65 3 16.3 3 18 C2.01 18 1.02 18 0 18 C-0.33 16.68 -0.66 15.36 -1 14 C-2.32 14.33 -3.64 14.66 -5 15 C-5 14.01 -5 13.02 -5 12 C-4.68 11.81 -4.68 11.81 -3.06 10.88 C-0.12 8.2 -0.35 5.71 -0.08 1.86 C-0.05 1.25 -0.03 0.63 0 0 Z " fill="#E5E5DE" transform="translate(91,86)"/>
<path d="M0 0 C-0.5 2.44 -0.5 2.44 -2 5 C-4.68 6 -7.16 6.21 -10 6 C-12.5 4.69 -12.5 4.69 -14 3 C-14 2.34 -14 1.68 -14 1 C-9.39 -3.17 -5.42 -1.64 0 0 Z " fill="#0F1D2F" transform="translate(111,81)"/>
<path d="M0 0 C0.33 0 0.66 0 1 0 C1.18 5.1 1.25 9.28 -1 14 C-3.12 15.25 -3.12 15.25 -5 16 C-5 16.66 -5 17.32 -5 18 C-5.66 18 -6.32 18 -7 18 C-6 10.57 -6 10.57 -5 7 C-5.66 6.67 -6.32 6.34 -7 6 C-6.03 5.57 -5.06 5.13 -4.06 4.69 C-1 3 -1 3 0 0 Z " fill="#5E7788" transform="translate(87,39)"/>
<path d="M0 0 C-0.25 1.91 -0.25 1.91 -1 4 C-2.71 4.87 -2.71 4.87 -4.94 5.44 C-10.31 7 -15.05 9.41 -20 12 C-21.33 12.67 -22.66 13.34 -24 14 C-24.66 13.34 -25.32 12.68 -26 12 C-22.56 10.18 -19.13 8.37 -15.69 6.56 C-14.71 6.05 -13.73 5.53 -12.73 5 C-11.79 4.5 -10.85 4.01 -9.89 3.5 C-9.45 3.28 -9.45 3.28 -7.27 2.12 C-4.81 0.91 -2.77 0 0 0 Z " fill="#3E5E86" transform="translate(102,25)"/>
<path d="M0 0 C0.33 0.66 0.66 1.32 1 2 C2.98 1.34 4.96 0.68 7 0 C7 1.65 7 3.3 7 5 C8.65 4.34 10.3 3.68 12 3 C12.33 4.32 12.66 5.64 13 7 C10 9 10 9 7.31 8.62 C6.55 8.42 5.79 8.21 5 8 C5 7.34 5 6.68 5 6 C4.2 5.9 3.39 5.79 2.56 5.69 C1.72 5.46 0.87 5.23 0 5 C-0.33 4.01 -0.66 3.02 -1 2 C-0.67 1.34 -0.34 0.68 0 0 Z " fill="#060E20" transform="translate(84,99)"/>
<path d="M0 0 C-2.22 5.76 -4.67 7.38 -10 10 C-9.67 7.36 -9.34 4.72 -9 2 C-9.66 1.67 -10.32 1.34 -11 1 C-6.93 -1.04 -4.41 -1.03 0 0 Z " fill="#54768F" transform="translate(100,37)"/>
<path d="M0 0 C0.66 0 1.32 0 2 0 C2 1.32 2 2.64 2 4 C2.66 4 3.32 4 4 4 C4.12 6.38 4.12 6.38 4 9 C3.34 9.66 2.68 10.32 2 11 C1.6 13.32 1.26 15.66 1 18 C0.67 18 0.34 18 0 18 C0 15.36 0 12.72 0 10 C-1.65 10.33 -3.3 10.66 -5 11 C-4.07 8.97 -3.07 6.97 -2 5 C-1.34 5 -0.68 5 0 5 C0 3.35 0 1.7 0 0 Z " fill="#F9F7EA" transform="translate(92,76)"/>
<path d="M0 0 C-0.95 2.37 -1.65 3.75 -3.75 5.25 C-6.64 6.21 -8.98 6.26 -12 6 C-12.66 5.34 -13.32 4.68 -14 4 C-12.42 3.13 -10.84 2.28 -9.25 1.44 C-8.37 0.96 -7.49 0.49 -6.58 -0 C-3.79 -1.08 -2.73 -1.07 0 0 Z " fill="#ECEDE5" transform="translate(41,43)"/>
<path d="M0 0 C4.6 1.49 7.5 3.75 11 7 C11 7.66 11 8.32 11 9 C8.36 9.33 5.72 9.66 3 10 C0 3.38 0 3.38 0 0 Z " fill="#6E8BA0" transform="translate(50,93)"/>
<path d="M0 0 C0.99 0.33 1.98 0.66 3 1 C2.34 5.95 1.68 10.9 1 16 C0.34 16 -0.32 16 -1 16 C-1 18.31 -1 20.62 -1 23 C-1.33 23 -1.66 23 -2 23 C-2.05 20.42 -2.09 17.83 -2.12 15.25 C-2.14 14.52 -2.16 13.79 -2.18 13.04 C-2.21 9.11 -2.01 6.38 0 3 C0 2.01 0 1.02 0 0 Z " fill="#09152A" transform="translate(68,55)"/>
<path d="M0 0 C0.66 0.33 1.32 0.66 2 1 C2 1.99 2 2.98 2 4 C0.38 5.39 -1.29 6.72 -3 8 C-4.35 9.31 -5.69 10.64 -7 12 C-8.12 7.25 -8.12 7.25 -7 5 C-5.34 3.98 -3.68 2.98 -2 2 C-1.34 1.34 -0.68 0.68 0 0 Z " fill="#284B71" transform="translate(57,52)"/>
<path d="M0 0 C0.33 0 0.66 0 1 0 C1 2.64 1 5.28 1 8 C1.66 8 2.32 8 3 8 C3.33 10.97 3.66 13.94 4 17 C-0.21 13.99 -0.21 13.99 -2 12 C-1.94 9.62 -1.94 9.62 -1 7 C-0.66 4.67 -0.32 2.34 0 0 Z " fill="#557D97" transform="translate(40,79)"/>
<path d="M0 0 C0.66 0 1.32 0 2 0 C1.96 0.95 1.92 1.9 1.88 2.88 C2 6 2 6 4 8 C3.98 10.16 3.98 10.16 3.62 12.62 C3.51 13.44 3.4 14.26 3.29 15.1 C3.19 15.73 3.1 16.35 3 17 C2.34 17 1.68 17 1 17 C0.77 14.95 0.54 12.9 0.32 10.85 C0 9 0 9 -1 8 C-1.12 4.5 -1.12 4.5 -1 1 C-0.67 0.67 -0.34 0.34 0 0 Z " fill="#192945" transform="translate(40,70)"/>
<path d="M0 0 C0.66 0.33 1.32 0.66 2 1 C1.51 1.41 1.02 1.82 0.52 2.25 C-1.32 4.37 -1.36 5.25 -1.29 8.01 C-1.28 8.77 -1.27 9.53 -1.26 10.31 C-1.24 11.09 -1.21 11.88 -1.19 12.69 C-1.17 13.48 -1.16 14.28 -1.15 15.1 C-1.11 17.07 -1.06 19.03 -1 21 C-1.66 20.67 -2.32 20.34 -3 20 C-3.33 21.98 -3.66 23.96 -4 26 C-4.33 26 -4.66 26 -5 26 C-5.12 19.38 -5.12 19.38 -4 16 C-3.77 12.68 -3.62 9.36 -3.48 6.03 C-2.98 2.85 -2.53 1.89 0 0 Z " fill="#010A18" transform="translate(18,57)"/>
<path d="M0 0 C0.33 0 0.66 0 1 0 C1.05 1.92 1.09 3.83 1.12 5.75 C1.15 6.82 1.17 7.88 1.2 8.98 C1 11.92 0.53 13.52 -1 16 C-2.03 12.92 -2.17 10.67 -2.19 7.44 C-2.2 6.47 -2.22 5.5 -2.23 4.5 C-2 2 -2 2 0 0 Z " fill="#3D6A8E" transform="translate(65,63)"/>
<path d="M0 0 C0.66 0.33 1.32 0.66 2 1 C0.32 4.74 0.32 4.74 -1.56 6.25 C-3.93 9.13 -3.7 12.34 -4 16 C-4.66 14.68 -5.32 13.36 -6 12 C-6.66 12.66 -7.32 13.32 -8 14 C-8 11.69 -8 9.38 -8 7 C-7.42 6.96 -6.84 6.92 -6.25 6.88 C-2.87 5.56 -1.81 3.03 0 0 Z " fill="#293549" transform="translate(67,57)"/>
</svg>
