<svg xmlns="http://www.w3.org/2000/svg" width="128" height="128" viewBox="0 0 128 128"><path fill="#08182e" d="m103.69 17.88 2.26-.02C108 18 108 18 111 19c-1.21 3.43-2.38 5.5-5 8l-1 3 6-1a20 20 0 0 1-4.2 7.56L105 39c.39 2.16.39 2.16 1 4l-2.48 1.53-3.27 2.1-3.23 2.03c-3.2 2.48-4.87 4.96-7.02 8.34h-2l-1 4h2v-2c3.09-1 5.17-1.37 8.18-.02A42 42 0 0 1 103 63v2l6 1v2l5 1c.99 5.8 1.19 11.44 1.19 17.31q0 1.34.04 2.75v2.61l.02 2.38C115 96 115 96 113 98h-4v2q-2.48 1.05-5 2-2.02 1.46-4 3a22.5 22.5 0 0 1-9 3l-2-1v-2l-2.43-.31q-1.27-.33-2.57-.7l-1-3c-.5.18-.5.18-3 1l-3-1 1 7q-6.84.45-13.7.77-2.33.1-4.64.27c-11.31.73-20.7-.11-30.66-6.03-2.55-2.72-3.83-4.47-4.93-8.03-1.34-3.72-3.1-5-6.2-7.4-4.78-4.1-4.78-4.1-5.56-8.44C13 76 13 76 14 73v-2.9c0-8.86 0-8.86 2.89-12.43a36 36 0 0 1 9.9-5.73q1.1-.45 2.2-.95v-2h-7v-3c3.32-3.13 6.67-4.9 10.89-6.55l3.17-1.27Q37.5 37.57 39 37c6.68-2.64 6.68-2.64 8.28-4.45 5.93-5.32 17.44-6.01 25.1-6.96 3-.68 4.99-2 7.62-3.6 3.12-.9 3.12-.9 6.44-1.61l3.3-.73c4.68-.93 9.18-1.8 13.95-1.77M75.99 99l1 2Z"/><path fill="#f2f1e2" d="M105 22c-2.3 3.45-3.22 3.68-7 5.06-16.48 6.6-30.04 16.06-42.87 28.25C53 57 53 57 50 57l-.69 3.06C48.05 64.47 45.94 67.49 43 71h-3v15l-4-2c.23 6.33 1.63 9.32 5.63 14.17 1.65 2.21 2.2 4.09 2.37 6.83q-3.02-.92-6-2l-2.07-.71c-3.29-1.33-5.4-2.23-7.04-5.48-.77-2.43-.77-2.43-1.32-4.79C27 90 27 90 25 88c-1.18-9.43 3.8-17.35 9.18-24.73A76 76 0 0 1 42 55l-1.75.88C38 57 38 57 35.88 57.81 33.31 59.44 33.05 61.18 32 64c-1.94 2.81-1.94 2.81-4 5h-3l-.18 1.94A282 282 0 0 1 23 86c-3.06-1.44-3.06-1.44-6-4-.71-4.61.53-8.71 3.06-12.56L22 67l-3 1c-.3-2.74-.3-2.74 0-6 2.05-2.23 2.05-2.23 4.75-4.19l2.67-1.98L29 54l4-3-6-3c2.71-3.41 6.43-4.57 10.38-6.06l2-.78q4.2-1.65 8.47-3.16C50 37 50 37 52 34c2.06-.77 2.06-.77 4.58-1.32l2.77-.62 2.9-.62c7.04-1.56 13.8-3.21 20.5-5.94A56 56 0 0 1 105 22"/><path fill="#0f1e32" d="m68 55 3 1v14h2q1.56 2.46 3 5l2 2-4 4 2.12-1.06c4.18-1.37 7.23-.59 11.26 1L89 82v2c-3.1 2.54-4.57 3.03-8.62 2.75C77 86 77 86 74 85v3c2 1.19 2 1.19 4 2l-3 2-1 3 6-3v6h2v-3.75c.25-2.2.25-2.2 1-4.25 2.47-1.9 5.07-2.99 8-4a207 207 0 0 1 .19 4.31l.1 2.43C91 95 91 95 89.61 96.79 88 98 88 98 86 98v3l5-2v5h3v-5l6 2-2.44-2.44C94 95 94 95 93.9 92.93l.04-2.49.02-2.51L94 86c3.93 1.31 6.4 2.75 9 6q.58 2.48 1 5l2 1v-5l5 1 1-2-4-2 3-4-2.05.32-2.7.37-2.67.38c-3.16-.09-4.35-.88-6.58-3.07v-2c1.88-1.75 1.88-1.75 5-3 3.42.34 6.68 1.1 10 2l-4-5 4-4-6 1v-4h-3l-.12 3.25C102 76 102 76 99.06 78.44 96 80 96 80 94 80c-.72-6.87-.72-6.87 1.34-10.09A72 72 0 0 1 100 65l-6 2v-5l-5-1v-2c3.09-1 5.17-1.37 8.18-.02A42 42 0 0 1 103 63v2l6 1v2l5 1c.99 5.8 1.18 11.44 1.19 17.31l.03 2.75.01 2.62.01 2.37C115 96 115 96 113 98h-4v2q-2.5 1.03-5 2-2.02 1.47-4 3a23 23 0 0 1-9 3l-2-1v-2l-2.44-.31L84 104l-1-3-3 1-3-1v5c-4.17-2.09-6.68-4.72-9.57-8.28a33 33 0 0 0-7.62-6.84L57 89v-1h6c-1.56-2.81-2.79-4.83-5.31-6.88L56 79c.69-3.25.69-3.25 2-7q.23-2.18.38-4.38L59 64l4-1c1.48-1.85 1.48-1.85 2.75-4.06l1.3-2.23zm8 44 1 2Z"/><path fill="#f3f2e4" d="M101 28v3h2v2c-4.25 2.69-8.59 4.78-13.56 5.56L87 39l-.42 1.88C86 43 86 43 84.33 44.31l-2.08 1.13A38 38 0 0 0 73 53l-2 2h-3l-.69 2.75c-1.5 3.72-2.94 5.14-6.31 7.25l-2-1 .12 3.56c.05 3.29-.28 4.85-1.5 8.06L57 79a22 22 0 0 0 4.52 4.54C63.29 85.29 63.6 86.58 64 89h-6l1.54.81a29.5 29.5 0 0 1 10.94 10.13c1.93 2.62 4.18 4.8 6.52 7.06a579 579 0 0 1-13.19.5l-3.77.2c-9.01.2-9.01.2-11.97-2.38A28 28 0 0 1 45 99l-.74-2.08a35.5 35.5 0 0 1 2-26.39A74 74 0 0 1 57 56h2l1 2 .5-3.06C63.32 45.41 75.88 39.74 84 35c12.96-7 12.96-7 17-7"/><path fill="#131d2e" d="M102 25c-.25 1.91-.25 1.91-1 4-1.71.87-1.71.87-3.94 1.44C86.5 33.58 77.81 39.55 69 46l-2.35 1.67c-3.37 2.58-4.57 4.02-5.59 8.21L61 59l-2-1v-2a30 30 0 0 0-8.69 9.5l-1.76 2.84c-4.87 8.35-5.88 17.37-3.8 26.85L46 99l1.19 3.71c1.07 1.83 1.07 1.83 2.81 3.29 4.76.91 9.42.65 14.25.44l3.99-.1q4.89-.12 9.76-.34v2q-6.85.45-13.7.76-2.33.1-4.64.27c-11.31.73-20.69-.11-30.66-6.03-2.55-2.72-3.84-4.47-4.93-8.04-1.34-3.71-3.1-5-6.19-7.4-4.8-4.09-4.8-4.09-5.57-8.44C13 76 13 76 14 73v-2.89c0-8.87 0-8.87 2.89-12.45a36 36 0 0 1 9.91-5.71L29 51v-2l5 1c-3.73 3.97-7.72 7.06-12.21 10.16C20 62 20 62 19.74 64.72L20 67h3l-1.94 2.44C18.58 73.18 17.32 77.51 18 82c2 1.77 2 1.77 4 3l.55-3.46.76-4.48.36-2.28c.34-1.95.83-3.87 1.33-5.78l3-1c2.24-2.44 3.8-4.41 4.88-7.56 1.6-3.47 3.8-4.68 7.12-6.44l3 1-1.54 1.4c-8.06 7.64-14.72 17.09-15.84 28.41C26 88 26 88 27.44 89.44c1.98 1.98 1.74 2.88 1.87 5.62L30 99c2.56 1.25 2.56 1.25 6 2q2.21 1 4.38 2.12l2.08 1.08 1.54.8c-3.44-7.38-3.44-7.38-6.19-10.44C35.23 90.91 35.19 87.38 35 83l5 3-1-15 5-2c2.4-3.02 3.85-5.49 4.94-9.19 1.36-3.6 2.8-3.89 6.06-5.81q2.52-2.26 4.94-4.62C69.21 40.85 88.95 25 102 25"/><path fill="#e7e7e1" d="M91 62h3v5l3-2h3c-1.68 3.74-1.68 3.74-3.56 5.25C94.07 73.13 94.3 76.34 94 80c6.51-3.01 6.51-3.01 7.91-5.82.53-1.93.53-1.93 1.09-5.18h3v4l6-1c-1 3-1 3-3 5l3 2v2l-2.01-.29c-8.77-1.1-8.77-1.1-12.99 1.29 1.38 2.06 1.38 2.06 4 4 3.4.06 6.66-.41 10-1v3l-2 2 3 2-1 3-4-1-1 4-3-1-.75-3.31c-1.32-3.89-1.55-4.27-4.87-6.13L94 86c.07 3.07.27 6.01 1 9 2.56 2.44 2.56 2.44 5 4v2c-2.17-.51-4-1-6-2v5h-3l-1-4-4 1v-3l2-1.19c2-1.81 2-1.81 2.27-3.78-.02-2.01-.14-4.02-.27-6.03l-2.38 1.5C85 90 85 90 83 90l-1 8h-2l-1-5-5 2c.38-1.94.38-1.94 1-4l2-1-3-2v-3l2.01.29C85.15 86.44 85.15 86.44 89 84v-2c-5.32-2.32-9.44-1.91-15-1l1.12-2.38L76 76l-2-2v-3l5 2 1-5h2l.56 3.75c.63 2.64 1.03 3.91 3.13 5.67C87.62 78.5 87.62 78.5 91 80a50 50 0 0 0-1-9c-2.06-1.88-2.06-1.88-4-3v-3l4 1z"/><path fill="#0d172b" d="M96 59a59 59 0 0 1 7 4v2l6 1v2l5 1c.99 5.8 1.18 11.44 1.19 17.31l.03 2.75.01 2.62.01 2.37C115 96 115 96 113 98h-4v2q-2.5 1.03-5 2-2.02 1.47-4 3a23 23 0 0 1-9 3l-2-1v-2l-2.44-.31L84 104l-1-3 2-2v2l6-2v5h3v-5l6 2-2.44-2.44C94 95 94 95 93.9 92.93l.04-2.49.02-2.51L94 86c3.93 1.31 6.4 2.75 9 6q.58 2.48 1 5l2 1v-5l5 1 1-2-4-2 3-4-2.05.32-2.7.37-2.67.38c-3.16-.09-4.35-.88-6.58-3.07v-2c1.88-1.75 1.88-1.75 5-3 3.42.34 6.68 1.1 10 2l-4-5 4-4-6 1v-4h-3l-.12 3.25C102 76 102 76 99.06 78.44 96 80 96 80 94 80c-.72-6.87-.72-6.87 1.34-10.09A72 72 0 0 1 100 65l-6 2v-5l-5-1v-2c2.8-1.4 4-.87 7 0"/><path fill="#081225" d="m103.69 17.88 2.26-.02C108 18 108 18 111 19c-1.2 3.43-2.33 5.56-5 8l-2 3q-1.48.48-3 1c1.88-6.87 1.88-6.87 3-8-20.96.96-20.96.96-26 6-2.27.66-2.27.66-5.08 1.21l-3.07.64-3.22.64-6.28 1.3-2.81.55A22 22 0 0 0 51 36v2c-1.68.84-1.68.84-4.01 1.66l-2.55.9-2.7.94-5.2 1.84-2.34.82A59 59 0 0 0 28 47l1 2h-7v-3c3.3-3.14 6.66-4.9 10.88-6.56l3.17-1.27Q37.5 37.57 39 37c6.68-2.64 6.68-2.64 8.28-4.45 5.93-5.32 17.44-6.01 25.1-6.96 3-.68 4.99-2 7.62-3.6 3.12-.9 3.12-.9 6.44-1.61l3.3-.73c4.68-.93 9.18-1.8 13.95-1.77"/><path fill="#c0c4c3" d="m70 33 2 2-1.93 1.02-2.51 1.36-2.49 1.33C63 40 63 40 62 42q-2.82 1.37-5.66 2.71C52.21 46.98 48.63 50.01 45 53c-1-3-1-3-1-7l-1.94 1.2c-6.98 3.96-6.98 3.96-10.28 3.46-1.9-.85-1.9-.85-4.78-2.66 2.71-3.41 6.43-4.57 10.38-6.06l2-.78q4.2-1.65 8.47-3.16C50 37 50 37 52 34c2.86-1.02 2.86-1.02 6.31-1.81l3.43-.83c3.53-.39 5.17-.04 8.26 1.64"/><path fill="#314e6e" d="M102 25c-.25 1.91-.25 1.91-1 4-1.71.87-1.71.87-3.94 1.44C86.5 33.58 77.81 39.55 69 46l-2.35 1.67c-3.37 2.58-4.57 4.02-5.59 8.21L61 59l-2-1v-2a30 30 0 0 0-8.69 9.5l-1.76 2.84c-4 6.86-4.71 12.6-4.61 20.54l.01 2.08L44 96c-4.79-3.42-4.79-3.42-6-5 .33-2.2.33-2.2 1-5-.07-3.25-.17-6.49-.39-9.74-.06-1.96-.06-1.96.39-5.26 2.38-1.29 2.38-1.29 5-2 2.4-3.02 3.85-5.49 4.94-9.19 1.36-3.6 2.8-3.89 6.06-5.81q2.52-2.26 4.94-4.62C69.21 40.85 88.95 25 102 25"/><path fill="#e0e0d9" d="M103 69h3v4l6-1c-1 3-1 3-3 5l3 2v2l-2.01-.29c-8.77-1.1-8.77-1.1-12.99 1.29 1.38 2.06 1.38 2.06 4 4 3.4.06 6.66-.41 10-1v3l-2 2 3 2-1 3-4-1-1 4-3-1-.81-3.31C101 90 101 90 97.81 88L95 86c-.19-3.56-.19-3.56 1-7q2.48-1.53 5-3c1.31-3.69 1.31-3.69 2-7"/><path fill="#dee0d7" d="M105 22c-2.38 3.56-3.82 3.98-7.75 5.5-6.8 2.7-6.8 2.7-9.87 4.31C85 33 85 33 83 33v-2l-3-1v-4l8-2 2.25-.58A52 52 0 0 1 105 22"/><path fill="#0e192c" d="m29 49 5 1c-3.73 3.97-7.72 7.06-12.21 10.16C20 62 20 62 19.74 64.72L20 67h3l-1.88 2.75A57 57 0 0 0 17 77c-1.61-5.5-2.54-12.65-.09-17.98C19.64 55.6 23.24 53.17 27 51h2z"/><path fill="#2c4e6f" d="m40 54 3 1-1.54 1.4C32.29 65.09 26.32 75.32 25 88l-2-1c-.43-5.97-.07-12.33 2-18l3-1c2.24-2.44 3.8-4.41 4.88-7.56 1.6-3.47 3.8-4.68 7.12-6.44"/><path fill="#7b8b93" d="M76 49h1c-.41 15.14-.41 15.14-5 20l-2 1q-.16-3.62-.25-7.25l-.1-2.07c-.07-3.51.08-5.33 2.24-8.16C74 51 74 51 76 51z"/><path fill="#122033" d="M104 66v2l2 1h-3l-.12 3.25C102 76 102 76 99.06 78.44 96 80 96 80 94 80c-.84-6.93-.84-6.93 1.45-9.87C100.16 66 100.16 66 104 66"/><path fill="#e5e5de" d="m91 86 3 1q.3 3 .55 6c.71 3.15 2.86 4.28 5.45 6v2c-2.17-.51-4-1-6-2v5h-3l-1-4-4 1v-3l1.94-1.12c2.94-2.68 2.71-5.17 2.98-9.02z"/><path fill="#0f1d2f" d="M111 81c-.5 2.44-.5 2.44-2 5-2.68 1-5.16 1.21-8 1-2.5-1.31-2.5-1.31-4-3v-2c4.61-4.17 8.58-2.64 14-1"/><path fill="#5e7788" d="M87 39h1c.18 5.1.25 9.28-2 14-2.12 1.25-2.12 1.25-4 2v2h-2c1-7.43 1-7.43 2-11l-2-1 2.94-1.31C86 42 86 42 87 39"/><path fill="#3e5e86" d="M102 25c-.25 1.91-.25 1.91-1 4-1.71.87-1.71.87-3.94 1.44C91.69 32 86.95 34.41 82 37l-4 2-2-2 10.31-5.44L89.27 30l2.84-1.5c.44-.22.44-.22 2.62-1.38C97.19 25.91 99.23 25 102 25"/><path fill="#060e20" d="m84 99 1 2 6-2v5l5-2 1 4c-3 2-3 2-5.69 1.62L89 107v-2l-2.44-.31L84 104l-1-3z"/><path fill="#54768f" d="M100 37c-2.22 5.76-4.67 7.38-10 10l1-8-2-1c4.07-2.04 6.59-2.03 11-1"/><path fill="#f9f7ea" d="M92 76h2v4h2c.12 2.38.12 2.38 0 5l-2 2q-.6 3.48-1 7h-1v-8l-5 1a99 99 0 0 1 3-6h2z"/><path fill="#ecede5" d="M41 43c-.95 2.37-1.65 3.75-3.75 5.25-2.89.96-5.23 1.01-8.25.75l-2-2q2.37-1.3 4.75-2.56L34.42 43c2.79-1.08 3.85-1.07 6.58 0"/><path fill="#6e8ba0" d="M50 93c4.6 1.49 7.5 3.75 11 7v2l-8 1c-3-6.62-3-6.62-3-10"/><path fill="#09152a" d="m68 55 3 1-2 15h-2v7h-1q-.07-3.87-.12-7.75l-.06-2.21c-.03-3.93.17-6.66 2.18-10.04z"/><path fill="#284b71" d="m57 52 2 1v3a96 96 0 0 1-5 4 168 168 0 0 0-4 4c-1.12-4.75-1.12-4.75 0-7q2.48-1.53 5-3z"/><path fill="#557d97" d="M40 79h1v8h2l1 9c-4.21-3.01-4.21-3.01-6-5 .06-2.38.06-2.38 1-5q.52-3.5 1-7"/><path fill="#192945" d="M40 70h2l-.12 2.88C42 76 42 76 44 78c-.02 2.16-.02 2.16-.38 4.62l-.33 2.48L43 87h-2l-.68-6.15C40 79 40 79 39 78c-.12-3.5-.12-3.5 0-7z"/><path fill="#010a18" d="m18 57 2 1-1.48 1.25c-1.84 2.12-1.88 3-1.81 5.76l.03 2.3.07 2.38.04 2.41q.06 2.95.15 5.9l-2-1-1 6h-1c-.12-6.62-.12-6.62 1-10q.33-4.98.52-9.97c.5-3.18.95-4.14 3.48-6.03"/><path fill="#3d6a8e" d="M65 63h1l.12 5.75.08 3.23c-.2 2.94-.67 4.54-2.2 7.02-1.03-3.08-1.17-5.33-1.19-8.56l-.04-2.94C63 65 63 65 65 63"/><path fill="#293549" d="m67 57 2 1c-1.68 3.74-1.68 3.74-3.56 5.25C63.07 66.13 63.3 69.34 63 73l-2-4-2 2v-7l1.75-.12c3.38-1.32 4.44-3.85 6.25-6.88"/></svg>