<?xml version="1.0" encoding="UTF-8"?>
<!-- Generator: visioncortex VTracer 0.6.12 -->
<svg version="1.1" xmlns="http://www.w3.org/2000/svg" width="128" height="128" viewBox="0 0 128 128" preserveAspectRatio="xMidYMid meet">
<path d="M0 0 C0.99 0.33 1.98 0.66 3 1 C3.38 2.56 3.76 4.13 4.13 5.69 C5.75 10 8.66 13.6 11.32 17.33 C13 20 13 20 13 23 C12.34 23 11.68 23 11 23 C11.06 24.46 11.15 25.92 11.25 27.38 C11.3 28.19 11.34 29 11.39 29.84 C11.49 30.19 11.49 30.19 12 32 C13.31 32.71 14.65 33.36 16 34 C18.22 35.99 20.23 38.18 22.25 40.38 C22.8 40.95 23.36 41.53 23.93 42.12 C24.45 42.69 24.98 43.25 25.52 43.84 C25.99 44.35 26.47 44.86 26.96 45.38 C28 47 28 47 28 51 C27.34 51 26.68 51 26 51 C26 55.29 26 59.58 26 64 C27.32 64 28.64 64 30 64 C30.03 68.48 30.05 72.96 30.06 77.44 C30.07 78.72 30.08 80 30.09 81.31 C30.09 82.53 30.09 83.74 30.1 85 C30.1 86.12 30.11 87.25 30.11 88.41 C30 91 30 91 29 92 C27.35 92.11 25.7 92.16 24.05 92.18 C23 92.19 21.94 92.2 20.86 92.22 C19.71 92.22 18.56 92.23 17.38 92.24 C16.21 92.25 15.04 92.25 13.83 92.26 C11.35 92.28 8.87 92.29 6.39 92.3 C2.58 92.31 -1.23 92.36 -5.03 92.4 C-7.44 92.41 -9.84 92.42 -12.25 92.43 C-13.39 92.44 -14.54 92.46 -15.72 92.48 C-16.78 92.48 -17.83 92.47 -18.92 92.47 C-19.86 92.48 -20.79 92.48 -21.75 92.49 C-24 92 -24 92 -25.31 90.13 C-26.17 87.47 -26.18 85.3 -26.09 82.5 C-26.07 81.45 -26.05 80.4 -26.03 79.31 C-25.97 77.1 -25.9 74.9 -25.83 72.69 C-25.82 71.64 -25.8 70.58 -25.78 69.5 C-25.75 68.54 -25.72 67.58 -25.69 66.59 C-26.06 63.51 -26.78 62.16 -29 60 C-32.5 60 -32.5 60 -36 61 C-39.84 64.84 -40.13 68.74 -40.14 74.01 C-40.13 74.39 -40.13 74.39 -40.12 76.31 C-40.13 77.06 -40.13 77.81 -40.14 78.58 C-40.13 82.84 -39.72 86.79 -39 91 C-40 92 -40 92 -42.96 92.11 C-44.25 92.11 -45.55 92.1 -46.88 92.1 C-47.22 92.1 -47.22 92.1 -48.96 92.09 C-51.16 92.09 -53.36 92.08 -55.56 92.06 C-57.05 92.06 -58.54 92.05 -60.03 92.05 C-63.69 92.04 -67.34 92.02 -71 92 C-71.56 90.06 -71.56 90.06 -72 88 C-71.84 87.84 -71.84 87.84 -71 87 C-70.84 84.41 -70.74 81.84 -70.68 79.25 C-70.66 78.47 -70.64 77.7 -70.62 76.9 C-70.56 74.41 -70.5 71.92 -70.44 69.44 C-70.39 67.76 -70.35 66.07 -70.31 64.39 C-70.2 60.26 -70.1 56.13 -70 52 C-70.66 52 -71.32 52 -72 52 C-71.73 47.44 -69.78 45.29 -66.77 42.14 C-64.43 40.63 -62.72 40.8 -60 41 C-60.14 39.42 -60.29 37.83 -60.44 36.25 C-60.52 35.37 -60.6 34.49 -60.68 33.58 C-61 31 -61 31 -61.8 29.1 C-61.87 28.41 -61.93 27.71 -62 27 C-58.17 22.5 -53.28 19.49 -47.51 18.24 C-43.77 17.96 -40.13 17.96 -36.38 18.06 C-35.12 18.04 -33.86 18.02 -32.56 17.99 C-23.8 18.09 -19.25 19.97 -13 26 C-12.01 26.66 -11.02 27.32 -10 28 C-10 27.26 -10 26.52 -10 25.75 C-10 20.3 -9.6 17.85 -6.62 13.25 C-6 12.27 -5.37 11.28 -4.73 10.27 C-4.44 9.89 -4.44 9.89 -3 8 C-2.34 8 -1.68 8 -1 8 C-1.02 6.87 -1.04 5.73 -1.06 4.56 C-1 1 -1 1 0 0 Z M-11 32 C-11 33.65 -11 35.3 -11 37 C-10.34 37 -9.68 37 -9 37 C-9 35.35 -9 33.7 -9 32 C-9.66 32 -10.32 32 -11 32 Z " fill="#08182E" transform="translate(85,18)"/>
<path d="M0 0 C0.33 0 0.66 0 1 0 C1 3.63 1 7.26 1 11 C1.66 11 2.32 11 3 11 C3 10.34 3 9.68 3 9 C7.41 10.65 10.14 14 13.25 17.38 C13.8 17.95 14.36 18.53 14.93 19.12 C15.19 19.41 15.19 19.41 16.52 20.84 C16.99 21.35 17.47 21.86 17.96 22.38 C19 24 19 24 19 28 C18.34 28 17.68 28 17 28 C17 32.29 17 36.58 17 41 C18.32 41 19.64 41 21 41 C21.03 45.48 21.05 49.96 21.06 54.44 C21.07 55.72 21.08 57 21.09 58.31 C21.09 59.53 21.09 60.74 21.1 62 C21.1 63.12 21.11 64.25 21.11 65.41 C21 68 21 68 20 69 C18.35 69.11 16.7 69.16 15.05 69.18 C14 69.19 12.94 69.2 11.86 69.22 C10.71 69.22 9.56 69.23 8.38 69.24 C7.21 69.25 6.04 69.25 4.83 69.26 C2.35 69.28 -0.13 69.29 -2.61 69.3 C-6.42 69.31 -10.23 69.36 -14.03 69.4 C-16.44 69.41 -18.84 69.42 -21.25 69.43 C-22.39 69.44 -23.54 69.46 -24.72 69.48 C-25.78 69.48 -26.83 69.47 -27.92 69.47 C-28.86 69.48 -29.79 69.48 -30.75 69.49 C-33 69 -33 69 -34.31 67.13 C-35.17 64.47 -35.18 62.3 -35.09 59.5 C-35.07 58.45 -35.05 57.4 -35.03 56.31 C-34.97 54.1 -34.9 51.9 -34.83 49.69 C-34.82 48.64 -34.8 47.58 -34.78 46.5 C-34.75 45.54 -34.72 44.58 -34.69 43.59 C-35.06 40.51 -35.78 39.16 -38 37 C-41.5 37 -41.5 37 -45 38 C-48.84 41.84 -49.13 45.74 -49.14 51.01 C-49.13 51.39 -49.13 51.39 -49.12 53.31 C-49.13 54.06 -49.13 54.81 -49.14 55.58 C-49.13 59.84 -48.72 63.79 -48 68 C-49 69 -49 69 -51.96 69.11 C-53.25 69.11 -54.55 69.1 -55.88 69.1 C-56.22 69.1 -56.22 69.1 -57.96 69.09 C-60.16 69.09 -62.36 69.08 -64.56 69.06 C-66.05 69.06 -67.54 69.05 -69.03 69.05 C-72.69 69.04 -76.34 69.02 -80 69 C-80.56 67.06 -80.56 67.06 -81 65 C-80.84 64.84 -80.84 64.84 -80 64 C-79.84 61.41 -79.74 58.84 -79.68 56.25 C-79.66 55.47 -79.64 54.7 -79.62 53.9 C-79.56 51.41 -79.5 48.92 -79.44 46.44 C-79.39 44.76 -79.35 43.07 -79.31 41.39 C-79.2 37.26 -79.1 33.13 -79 29 C-79.66 29 -80.32 29 -81 29 C-80.65 25.76 -80.44 24.38 -77.94 22.19 C-77.3 21.8 -76.66 21.4 -76 21 C-75.67 22.32 -75.34 23.64 -75 25 C-75.66 25 -76.32 25 -77 25 C-76.67 25.66 -76.34 26.32 -76 27 C-69.69 27.34 -69.69 27.34 -67 26 C-67 34.58 -67 43.16 -67 52 C-65.35 52 -63.7 52 -62 52 C-62.66 52.16 -62.66 52.16 -66 53 C-66 54.98 -66 56.96 -66 59 C-65.01 59.33 -64.02 59.66 -63 60 C-63.99 60 -64.98 60 -66 60 C-66 61.65 -66 63.3 -66 65 C-63.36 65 -60.72 65 -58 65 C-58 63.35 -58 61.7 -58 60 C-59.32 59.67 -60.64 59.34 -62 59 C-60.68 59 -59.36 59 -58 59 C-58.02 58.39 -58.02 58.39 -58.11 55.27 C-58.13 53.64 -58.16 52.01 -58.19 50.38 C-58.21 49.57 -58.24 48.76 -58.26 47.93 C-58.34 41.64 -57.11 37.59 -53.06 32.62 C-48.2 30.05 -43.37 30.12 -38 31 C-34.71 33.44 -33.25 35.62 -31 39 C-30.77 41.18 -30.77 41.18 -30.8 43.67 C-30.81 44.56 -30.82 45.45 -30.82 46.37 C-30.84 47.3 -30.86 48.23 -30.88 49.19 C-30.88 50.13 -30.89 51.07 -30.9 52.04 C-30.93 54.36 -30.96 56.68 -31 59 C-29.68 59.33 -28.36 59.66 -27 60 C-28.32 60 -29.64 60 -31 60 C-31 61.65 -31 63.3 -31 65 C-28.03 65 -25.06 65 -22 65 C-22 63.35 -22 61.7 -22 60 C-22.99 59.67 -23.98 59.34 -25 59 C-24.01 59 -23.02 59 -22 59 C-22 57.02 -22 55.04 -22 53 C-20 55 -20 55 -19.8 57.38 C-19.87 59.92 -19.93 62.46 -20 65 C-16.04 65 -12.08 65 -8 65 C-8 63.68 -8 62.36 -8 61 C-7.01 61 -6.02 61 -5 61 C-5 62.32 -5 63.64 -5 65 C-3.35 65 -1.7 65 0 65 C0 63.68 0 62.36 0 61 C0.5 61.16 0.5 61.16 3 62 C3 62.99 3 63.98 3 65 C5.97 65 8.94 65 12 65 C12 63.35 12 61.7 12 60 C10.02 60 8.04 60 6 60 C6.33 58.68 6.66 57.36 7 56 C7 56.99 7 57.98 7 59 C8.65 59 10.3 59 12 59 C12 56.36 12 53.72 12 51 C9.03 51 6.06 51 3 51 C3 52.32 3 53.64 3 55 C2.34 54.67 1.68 54.34 1 54 C1.33 52.68 1.66 51.36 2 50 C0.35 50 -1.3 50 -3 50 C-3 49.67 -3 49.34 -3 49 C2.28 49 7.56 49 13 49 C12.97 45.21 12.9 41.42 12.81 37.62 C12.81 36.54 12.8 35.46 12.79 34.35 C12.78 33.84 12.78 33.84 12.71 31.23 C12.69 30.27 12.68 29.32 12.66 28.34 C12.44 27.57 12.22 26.8 12 26 C9.53 24.83 9.53 24.83 7 24 C5.75 21.56 5.75 21.56 5 19 C4.84 18.51 4.84 18.51 4 16 C1.69 17.65 -0.62 19.3 -3 21 C-3.16 20.67 -3.16 20.67 -4 19 C-5.98 20.98 -7.96 22.96 -10 25 C-10.66 24.67 -11.32 24.34 -12 24 C-10.38 22.33 -8.75 20.66 -7.12 19 C-6.22 18.07 -5.32 17.14 -4.38 16.19 C-2 14 -2 14 0 14 C0 9.38 0 4.76 0 0 Z " fill="#06172E" transform="translate(94,41)"/>
<path d="M0 0 C2.97 0 5.94 0 9 0 C9 0.99 9 1.98 9 3 C10.32 3 11.64 3 13 3 C13 2.01 13 1.02 13 0 C15.31 0 17.62 0 20 0 C20 0.99 20 1.98 20 3 C21.32 3 22.64 3 24 3 C24 2.01 24 1.02 24 0 C25.98 0 27.96 0 30 0 C30 0.99 30 1.98 30 3 C31.32 3 32.64 3 34 3 C34 2.01 34 1.02 34 0 C36.31 0 38.62 0 41 0 C41 3.3 41 6.6 41 10 C39.02 10 37.04 10 35 10 C35 10.99 35 11.98 35 13 C38.63 13 42.26 13 46 13 C46 27.52 46 42.04 46 57 C43.03 57 40.06 57 37 57 C37 56.62 37 56.62 36.97 54.71 C36.92 51.26 36.83 47.82 36.75 44.38 C36.74 43.19 36.72 42 36.71 40.77 C36.4 29.71 36.4 29.71 32 25 C27.82 22.91 22.55 23.56 18 24 C13.76 26.29 12.5 28.53 11 33 C10.68 35.77 10.68 35.77 10.59 38.74 C10.55 39.8 10.51 40.87 10.47 41.97 C10.44 43.07 10.41 44.18 10.38 45.31 C10.34 46.43 10.3 47.56 10.26 48.71 C10.16 51.48 10.08 54.24 10 57 C7.36 57 4.72 57 2 57 C2.01 56.15 2.02 55.29 2.04 54.41 C2.04 53.31 2.05 52.2 2.06 51.06 C2.07 49.96 2.09 48.86 2.1 47.72 C2 45 2 45 1 44 C0.84 42.15 0.75 40.29 0.68 38.43 C0.64 37.31 0.6 36.18 0.56 35.03 C0.52 33.84 0.48 32.66 0.44 31.44 C0.42 30.84 0.42 30.84 0.31 27.84 C0.2 24.89 0.1 21.95 0 19 C-0.33 19.33 -0.66 19.66 -1 20 C-3.33 20.04 -5.67 20.04 -8 20 C-8.33 19.01 -8.66 18.02 -9 17 C-8.34 17 -7.68 17 -7 17 C-7.09 16.6 -7.09 16.6 -7.56 14.56 C-7.71 13.72 -7.85 12.87 -8 12 C-6.03 10.03 -2.65 10.34 0 10 C0 6.7 0 3.4 0 0 Z " fill="#E6E4D7" transform="translate(26,49)"/>
<path d="M0 0 C0.33 0 0.66 0 1 0 C1 3.63 1 7.26 1 11 C1.66 11 2.32 11 3 11 C3 10.34 3 9.68 3 9 C7.41 10.65 10.14 14 13.25 17.38 C13.53 17.66 13.53 17.66 14.93 19.12 C15.19 19.41 15.19 19.41 16.52 20.84 C16.99 21.35 17.47 21.86 17.96 22.38 C19 24 19 24 19 28 C18.34 28 17.68 28 17 28 C17 32.29 17 36.58 17 41 C18.32 41 19.64 41 21 41 C21.03 45.48 21.05 49.96 21.06 54.44 C21.07 55.72 21.08 57 21.09 58.31 C21.09 59.53 21.09 60.74 21.1 62 C21.1 63.12 21.11 64.25 21.11 65.41 C21 68 21 68 20 69 C18.35 69.11 16.7 69.16 15.05 69.18 C14 69.19 12.94 69.2 11.86 69.22 C10.71 69.22 9.56 69.23 8.38 69.24 C7.21 69.25 6.04 69.25 4.83 69.26 C2.35 69.28 -0.13 69.29 -2.61 69.3 C-6.42 69.31 -10.23 69.36 -14.03 69.4 C-16.44 69.41 -18.84 69.42 -21.25 69.43 C-21.82 69.43 -21.82 69.43 -24.72 69.48 C-25.78 69.48 -26.83 69.47 -27.92 69.47 C-28.86 69.48 -29.79 69.48 -30.75 69.49 C-33 69 -33 69 -34.31 67.13 C-35.17 64.48 -35.18 62.32 -35.09 59.54 C-35.07 58.49 -35.05 57.44 -35.03 56.36 C-34.97 54.17 -34.9 51.97 -34.83 49.78 C-34.82 48.73 -34.8 47.68 -34.78 46.6 C-34.75 45.64 -34.72 44.69 -34.69 43.71 C-35.06 40.5 -36.18 38.63 -38 36 C-36.19 35.25 -36.19 35.25 -34 35 C-31.25 37.86 -30.63 39.85 -30.71 43.77 C-30.72 44.66 -30.73 45.54 -30.74 46.46 C-30.76 47.38 -30.79 48.3 -30.81 49.25 C-30.83 50.19 -30.84 51.12 -30.85 52.09 C-30.89 54.39 -30.94 56.7 -31 59 C-29.68 59.33 -28.36 59.66 -27 60 C-28.32 60 -29.64 60 -31 60 C-31 61.65 -31 63.3 -31 65 C-28.03 65 -25.06 65 -22 65 C-22 63.35 -22 61.7 -22 60 C-22.99 59.67 -23.98 59.34 -25 59 C-24.01 59 -23.02 59 -22 59 C-22 57.02 -22 55.04 -22 53 C-20 55 -20 55 -19.8 57.38 C-19.87 59.92 -19.93 62.46 -20 65 C-16.04 65 -12.08 65 -8 65 C-8 63.68 -8 62.36 -8 61 C-7.01 61 -6.02 61 -5 61 C-5 62.32 -5 63.64 -5 65 C-3.35 65 -1.7 65 0 65 C0 63.68 0 62.36 0 61 C0.99 61.33 1.98 61.66 3 62 C3 62.99 3 63.98 3 65 C5.97 65 8.94 65 12 65 C12 63.35 12 61.7 12 60 C10.02 60 8.04 60 6 60 C6.33 58.68 6.66 57.36 7 56 C7 56.99 7 57.98 7 59 C8.65 59 10.3 59 12 59 C12 56.36 12 53.72 12 51 C9.03 51 6.06 51 3 51 C3 52.32 3 53.64 3 55 C2.67 54.84 2.67 54.84 1 54 C1.33 52.68 1.66 51.36 2 50 C0.35 50 -1.3 50 -3 50 C-3 49.67 -3 49.34 -3 49 C2.28 49 7.56 49 13 49 C12.97 45.21 12.9 41.42 12.81 37.62 C12.81 36.54 12.8 35.46 12.79 34.35 C12.77 33.32 12.74 32.29 12.71 31.23 C12.69 30.27 12.68 29.32 12.66 28.34 C12.44 27.57 12.22 26.8 12 26 C9.53 24.83 9.53 24.83 7 24 C5.75 21.56 5.75 21.56 5 19 C4.84 18.51 4.84 18.51 4 16 C1.69 17.65 -0.62 19.3 -3 21 C-3.16 20.67 -3.16 20.67 -4 19 C-5.98 20.98 -7.96 22.96 -10 25 C-10.66 24.67 -11.32 24.34 -12 24 C-10.38 22.33 -8.75 20.66 -7.12 19 C-6.22 18.07 -5.32 17.14 -4.38 16.19 C-2 14 -2 14 0 14 C0 9.38 0 4.76 0 0 Z " fill="#04162B" transform="translate(94,41)"/>
<path d="M0 0 C0.66 0 1.32 0 2 0 C2 3.3 2 6.6 2 10 C3.3 9.96 4.6 9.92 5.94 9.88 C8.15 9.8 8.15 9.8 10 10 C10.33 10.66 10.66 11.32 11 12 C11.33 11.34 11.66 10.68 12 10 C14.68 9.72 17.3 9.91 20 10 C20 11.32 20 12.64 20 14 C19.01 14.66 18.02 15.32 17 16 C17.99 16.33 18.98 16.66 20 17 C20.69 19.56 20.69 19.56 21 22 C22.65 22 24.3 22 26 22 C26.33 20.35 26.66 18.7 27 17 C27.66 17.33 28.32 17.66 29 18 C28.84 18.83 28.84 18.83 28 23 C27.34 23.03 26.67 23.05 25.99 23.08 C20.53 23.43 16.82 23.7 13 28 C11.24 31.66 10.72 34.7 10.59 38.74 C10.55 39.8 10.51 40.87 10.47 41.97 C10.44 43.07 10.41 44.18 10.38 45.31 C10.34 46.43 10.3 47.56 10.26 48.71 C10.16 51.48 10.08 54.24 10 57 C7.36 57 4.72 57 2 57 C2.01 56.15 2.02 55.29 2.04 54.41 C2.04 53.31 2.05 52.2 2.06 51.06 C2.07 49.96 2.09 48.86 2.1 47.72 C2 45 2 45 1 44 C0.84 42.15 0.75 40.29 0.68 38.43 C0.64 37.31 0.6 36.18 0.56 35.03 C0.52 33.84 0.48 32.66 0.44 31.44 C0.42 30.84 0.42 30.84 0.31 27.84 C0.2 24.89 0.1 21.95 0 19 C-0.33 19.33 -0.66 19.66 -1 20 C-3.33 20.04 -5.67 20.04 -8 20 C-8.33 19.01 -8.66 18.02 -9 17 C-8.34 17 -7.68 17 -7 17 C-7.09 16.6 -7.09 16.6 -7.56 14.56 C-7.71 13.72 -7.85 12.87 -8 12 C-6.03 10.03 -2.65 10.34 0 10 C0 6.7 0 3.4 0 0 Z " fill="#B2B0AA" transform="translate(26,49)"/>
<path d="M0 0 C2.74 2.95 3 3.77 3 8 C3.8 8.14 4.61 8.29 5.44 8.44 C8 9 8 9 9 10 C9.09 11.63 9.11 13.27 9.1 14.91 C9.09 15.9 9.09 16.89 9.09 17.91 C9.08 18.95 9.07 19.99 9.06 21.06 C9.06 22.11 9.05 23.15 9.05 24.23 C9.04 26.82 9.02 29.41 9 32 C2.4 32 -4.2 32 -11 32 C-12.45 10.35 -12.45 10.35 -9.07 5.47 C-3.52 0 -3.52 0 0 0 Z " fill="#F4F2E3" transform="translate(98,57)"/>
<path d="M0 0 C2.97 0 5.94 0 9 0 C8.98 1 8.95 2 8.93 3.03 C8.91 4.32 8.89 5.61 8.88 6.94 C8.85 8.23 8.83 9.51 8.8 10.84 C8.87 11.88 8.93 12.93 9 14 C9.66 14.33 10.32 14.66 11 15 C10.67 15.66 10.34 16.32 10 17 C10.66 17 11.32 17 12 17 C12 16.01 12 15.02 12 14 C14.97 14 17.94 14 21 14 C21.33 15.32 21.66 16.64 22 18 C22 16.68 22 15.36 22 14 C24.97 14 27.94 14 31 14 C31 16.64 31 19.28 31 22 C30.2 21.98 29.39 21.96 28.56 21.94 C26 22 26 22 25 23 C26.98 23 28.96 23 31 23 C31 24.65 31 26.3 31 28 C28.03 28 25.06 28 22 28 C21.67 27.01 21.34 26.02 21 25 C20.34 24.67 19.68 24.34 19 24 C19 25.32 19 26.64 19 28 C17.35 28 15.7 28 14 28 C14 26.68 14 25.36 14 24 C13.01 24 12.02 24 11 24 C11 25.32 11 26.64 11 28 C7.37 28 3.74 28 0 28 C0 26.35 0 24.7 0 23 C1.98 23 3.96 23 6 23 C5 22 5 22 2.44 21.94 C1.63 21.96 0.83 21.98 0 22 C0 19.36 0 16.72 0 14 C1.32 14 2.64 14 4 14 C4 13.34 4 12.68 4 12 C2.68 12 1.36 12 0 12 C0 10.68 0 9.36 0 8 C1.65 8 3.3 8 5 8 C3.35 7.67 1.7 7.34 0 7 C0 4.69 0 2.38 0 0 Z " fill="#8F9392" transform="translate(75,78)"/>
<path d="M0 0 C3.63 0 7.26 0 11 0 C11 14.52 11 29.04 11 44 C8.03 44 5.06 44 2 44 C1.98 43.24 1.96 42.48 1.94 41.69 C1.84 38.23 1.73 34.77 1.62 31.31 C1.59 30.11 1.56 28.92 1.53 27.68 C1.49 26.52 1.45 25.37 1.41 24.18 C1.38 23.11 1.35 22.05 1.32 20.95 C1 18 1 18 -0.12 15.27 C-0.41 14.52 -0.7 13.77 -1 13 C0.44 10.56 0.44 10.56 3 9 C6.75 9.75 6.75 9.75 10 11 C10 7.7 10 4.4 10 1 C9.01 1 8.02 1 7 1 C7 2.65 7 4.3 7 6 C5.02 6 3.04 6 1 6 C1 6.66 1 7.32 1 8 C-0.68 7.37 -2.35 6.7 -4 6 C-4 5.67 -4 5.34 -4 5 C-1.03 5 1.94 5 5 5 C5 3.68 5 2.36 5 1 C3.35 1 1.7 1 0 1 C0 0.67 0 0.34 0 0 Z " fill="#E9E7DC" transform="translate(61,62)"/>
<path d="M0 0 C0.66 0 1.32 0 2 0 C2 3.3 2 6.6 2 10 C4.31 10 6.62 10 9 10 C9 11.32 9 12.64 9 14 C6.69 14 4.38 14 2 14 C2 21.26 2 28.52 2 36 C4.64 36 7.28 36 10 36 C10 42.93 10 49.86 10 57 C7.36 57 4.72 57 2 57 C2.01 56.15 2.02 55.29 2.04 54.41 C2.04 53.31 2.05 52.2 2.06 51.06 C2.07 49.96 2.09 48.86 2.1 47.72 C2 45 2 45 1 44 C0.84 42.15 0.75 40.29 0.68 38.43 C0.64 37.31 0.6 36.18 0.56 35.03 C0.52 33.84 0.48 32.66 0.44 31.44 C0.42 30.84 0.42 30.84 0.31 27.84 C0.2 24.89 0.1 21.95 0 19 C-0.33 19.33 -0.66 19.66 -1 20 C-3.33 20.04 -5.67 20.04 -8 20 C-8.33 19.01 -8.66 18.02 -9 17 C-8.34 17 -7.68 17 -7 17 C-7.09 16.6 -7.09 16.6 -7.56 14.56 C-7.71 13.72 -7.85 12.87 -8 12 C-6.03 10.03 -2.65 10.34 0 10 C0 6.7 0 3.4 0 0 Z " fill="#2E3746" transform="translate(26,49)"/>
<path d="M0 0 C4.62 0 9.24 0 14 0 C15.41 11.74 15.41 11.74 12.85 15.84 C9.66 19.7 5.99 22.98 2 26 C1.34 26 0.68 26 0 26 C0 17.42 0 8.84 0 0 Z " fill="#D5D5CB" transform="translate(79,41)"/>
<path d="M0 0 C0.66 1.32 1.32 2.64 2 4 C1.34 4 0.68 4 0 4 C0.33 4.66 0.66 5.32 1 6 C7.31 6.34 7.31 6.34 10 5 C10 13.58 10 22.16 10 31 C9.34 31 8.68 31 8 31 C8 23.41 8 15.82 8 8 C5.69 8 3.38 8 1 8 C1 19.88 1 31.76 1 44 C2.98 44 4.96 44 7 44 C7 44.66 7 45.32 7 46 C8.18 45.98 9.36 45.95 10.58 45.93 C12.14 45.91 13.69 45.89 15.25 45.88 C16.03 45.86 16.8 45.84 17.61 45.82 C17.98 45.82 17.98 45.82 19.89 45.8 C20.58 45.79 21.27 45.78 21.99 45.77 C24 46 24 46 28 48 C17.77 48 7.54 48 -3 48 C-3.33 46.68 -3.66 45.36 -4 44 C-3.84 43.84 -3.84 43.84 -3 43 C-2.84 40.41 -2.74 37.84 -2.68 35.25 C-2.66 34.47 -2.64 33.7 -2.62 32.9 C-2.56 30.41 -2.5 27.92 -2.44 25.44 C-2.39 23.76 -2.35 22.07 -2.31 20.39 C-2.2 16.26 -2.1 12.13 -2 8 C-2.66 8 -3.32 8 -4 8 C-3.5 4.31 -2.9 2.4 0 0 Z " fill="#040C1E" transform="translate(17,62)"/>
<path d="M0 0 C2.31 0 4.62 0 7 0 C7.02 4.16 7.04 8.33 7.05 12.49 C7.06 13.9 7.07 15.32 7.08 16.73 C7.09 18.77 7.09 20.81 7.1 22.85 C7.1 24.08 7.11 25.3 7.11 26.56 C7.01 29.8 6.61 32.82 6 36 C4.02 36 2.04 36 0 36 C0 24.12 0 12.24 0 0 Z " fill="#F9F7E8" transform="translate(18,70)"/>
<path d="M0 0 C3 1 3 1 4 3 C4.6 2.77 5.21 2.54 5.83 2.3 C6.19 2.25 6.19 2.25 8 2 C9.48 3.33 9.48 3.33 10.75 5.25 C11.18 5.87 11.61 6.5 12.05 7.14 C13 9 13 9 13 12 C12.34 12 11.68 12 11 12 C11.33 15.63 11.66 19.26 12 23 C11.34 23 10.68 23 10 23 C9.34 23.99 8.68 24.98 8 26 C8 21.38 8 16.76 8 12 C3.38 12 -1.24 12 -6 12 C-6.33 13.98 -6.66 15.96 -7 18 C-7.33 18 -7.66 18 -8 18 C-8.64 14.98 -9.13 12.09 -9 9 C-6.81 7.31 -6.81 7.31 -4 6 C-1.69 2.81 -1.69 2.81 0 0 Z " fill="#010F21" transform="translate(85,29)"/>
<path d="M0 0 C2.17 1.3 2.17 1.3 4 4 C4.49 7.43 4.38 10.79 4.25 14.25 C4.23 15.19 4.21 16.12 4.2 17.09 C4.15 19.39 4.08 21.7 4 24 C5.32 24.33 6.64 24.66 8 25 C6.68 25 5.36 25 4 25 C4 26.65 4 28.3 4 30 C4.64 29.98 5.28 29.95 5.93 29.93 C6.76 29.91 7.59 29.89 8.44 29.88 C8.85 29.86 8.85 29.86 10.93 29.8 C11.62 29.87 12.3 29.93 13 30 C13.33 30.66 13.66 31.32 14 32 C17.05 32.25 20.01 32.37 23.07 32.41 C23.98 32.43 24.88 32.45 25.82 32.47 C28.73 32.53 31.65 32.58 34.56 32.62 C36.53 32.66 38.5 32.7 40.47 32.74 C45.32 32.84 50.16 32.92 55 33 C55 33.33 55 33.66 55 34 C47.49 34.1 39.98 34.17 32.47 34.22 C29.91 34.24 27.35 34.27 24.79 34.3 C21.13 34.35 17.46 34.37 13.79 34.39 C13.21 34.4 13.21 34.4 10.31 34.45 C9.25 34.45 8.19 34.45 7.09 34.45 C6.16 34.46 5.22 34.47 4.25 34.48 C2 34 2 34 0.69 32.13 C-0.17 29.48 -0.18 27.32 -0.09 24.54 C-0.07 23.49 -0.05 22.44 -0.03 21.36 C0.03 19.17 0.1 16.97 0.17 14.78 C0.18 13.73 0.2 12.68 0.22 11.6 C0.25 10.64 0.28 9.69 0.31 8.71 C-0.06 5.5 -1.18 3.63 -3 1 C-2.01 0.67 -1.02 0.34 0 0 Z " fill="#020C19" transform="translate(59,76)"/>
<path d="M0 0 C0.99 0.33 1.98 0.66 3 1 C3.73 3.31 4.39 5.65 5 8 C5.33 8.5 5.33 8.5 7 11 C6.62 13.19 6.62 13.19 6 15 C5.01 14.67 4.02 14.34 3 14 C2.67 13.34 2.34 12.68 2 12 C1.34 12 0.68 12 0 12 C-0.62 12.95 -1.24 13.9 -1.88 14.88 C-3.88 17.82 -4.75 18.84 -8 20 C-7.67 21.98 -7.34 23.96 -7 26 C-6.67 26 -6.34 26 -6 26 C-6 33.59 -6 41.18 -6 49 C-6.33 49 -6.66 49 -7 49 C-7.33 45.04 -7.66 41.08 -8 37 C-8.33 37 -8.66 37 -9 37 C-8.96 36.2 -8.92 35.39 -8.88 34.56 C-8.9 34.14 -8.9 34.14 -9 32 C-9.66 31.67 -10.32 31.34 -11 31 C-10.74 29.05 -10.48 27.09 -10.22 25.14 C-10 23 -10 23 -10 19 C-8.54 16.2 -8.54 16.2 -6.62 13.25 C-6.31 12.76 -6.31 12.76 -4.73 10.27 C-4.16 9.52 -3.59 8.77 -3 8 C-2.34 8 -1.68 8 -1 8 C-1.02 6.87 -1.04 5.73 -1.06 4.56 C-1 1 -1 1 0 0 Z " fill="#071328" transform="translate(85,18)"/>
<path d="M0 0 C3.63 0 7.26 0 11 0 C11 5.61 11 11.22 11 17 C8.69 17.66 6.38 18.32 4 19 C3.06 21.12 3.06 21.12 3 23 C4.65 23 6.3 23 8 23 C8 23.66 8 24.32 8 25 C6.35 25 4.7 25 3 25 C3 29.29 3 33.58 3 38 C2.67 38 2.34 38 2 38 C1.98 37.42 1.96 36.84 1.94 36.24 C1.84 33.6 1.73 30.96 1.62 28.31 C1.59 27.4 1.56 26.49 1.53 25.55 C1.33 20.87 0.88 17.33 -1 13 C0.44 10.56 0.44 10.56 3 9 C6.75 9.75 6.75 9.75 10 11 C10 7.7 10 4.4 10 1 C9.01 1 8.02 1 7 1 C7 2.65 7 4.3 7 6 C5.02 6 3.04 6 1 6 C1 6.66 1 7.32 1 8 C-0.68 7.37 -2.35 6.7 -4 6 C-4 5.67 -4 5.34 -4 5 C-1.03 5 1.94 5 5 5 C5 3.68 5 2.36 5 1 C3.35 1 1.7 1 0 1 C0 0.67 0 0.34 0 0 Z " fill="#8B8C8A" transform="translate(61,62)"/>
<path d="M0 0 C2.31 0 4.62 0 7 0 C8 1 8 1 8.11 2.86 C8.11 3.65 8.1 4.44 8.1 5.25 C8.09 6.11 8.09 6.96 8.09 7.84 C8.08 8.74 8.07 9.64 8.06 10.56 C8.06 11.46 8.05 12.37 8.05 13.29 C8.04 15.53 8.02 17.76 8 20 C5.36 20 2.72 20 0 20 C0 13.4 0 6.8 0 0 Z " fill="#EBEADC" transform="translate(28,86)"/>
<path d="M0 0 C0.66 0.99 1.32 1.98 2 3 C1.67 3.33 1.34 3.66 1 4 C6.28 4.66 11.56 5.32 17 6 C16.67 6.66 16.34 7.32 16 8 C12.44 8.12 12.44 8.12 9 8 C9 9.32 9 10.64 9 12 C7.68 12 6.36 12 5 12 C5 11.01 5 10.02 5 9 C2.03 9 -0.94 9 -4 9 C-3.92 9.71 -3.83 10.42 -3.75 11.15 C-3.64 12.07 -3.54 12.99 -3.44 13.94 C-3.33 14.85 -3.23 15.77 -3.12 16.71 C-3.08 17.47 -3.04 18.22 -3 19 C-4 20 -4 20 -7.06 20.06 C-8.03 20.04 -9 20.02 -10 20 C-10 19.67 -10 19.34 -10 19 C-8.35 19 -6.7 19 -5 19 C-5.14 17.42 -5.29 15.83 -5.44 14.25 C-5.52 13.37 -5.6 12.49 -5.68 11.58 C-6 9 -6 9 -6.75 6.84 C-6.83 6.24 -6.91 5.63 -7 5 C-5.57 3.52 -5.57 3.52 -3.56 2.25 C-2.9 1.82 -2.25 1.39 -1.57 0.95 C-1.05 0.64 -0.53 0.32 0 0 Z " fill="#031021" transform="translate(30,40)"/>
<path d="M0 0 C1.28 -0.01 2.56 -0.01 3.88 -0.02 C4.55 -0.01 5.21 0 5.9 0.01 C7.93 0.03 9.96 0.01 11.99 -0.02 C12.63 -0.01 12.63 -0.01 15.88 0 C16.46 0 16.46 0 19.43 0.01 C22.37 0.53 22.37 0.53 25.37 4.53 C17.45 4.53 9.53 4.53 1.37 4.53 C1.37 4.2 1.37 3.87 1.37 3.53 C-7.2 3.39 -7.2 3.39 -10.63 4.53 C-7.34 0.45 -5.16 0.02 0 0 Z " fill="#738289" transform="translate(40.62890625,40.46875)"/>
<path d="M0 0 C0.99 0 1.98 0 3 0 C3 3.3 3 6.6 3 10 C0.33 10 -2.33 10 -5 10 C-5.6 10.39 -6.2 10.78 -6.81 11.19 C-9 12 -9 12 -11.75 10.94 C-14 9 -14 9 -14.31 6.31 C-14.21 5.55 -14.11 4.79 -14 4 C-8.25 5.88 -8.25 5.88 -6 7 C-6 6.34 -6 5.68 -6 5 C-4.02 5 -2.04 5 0 5 C0 3.35 0 1.7 0 0 Z " fill="#F1EFE2" transform="translate(68,63)"/>
<path d="M0 0 C0.66 0.66 1.32 1.32 2 2 C2.33 1.34 2.66 0.68 3 0 C5.68 -0.28 8.3 -0.09 11 0 C11 1.32 11 2.64 11 4 C10.01 4.66 9.02 5.32 8 6 C8.99 6.33 9.98 6.66 11 7 C11.69 9.56 11.69 9.56 12 12 C13.65 12 15.3 12 17 12 C17.33 10.35 17.66 8.7 18 7 C18.66 7.33 19.32 7.66 20 8 C19.67 9.65 19.34 11.3 19 13 C17.72 13.08 16.44 13.16 15.12 13.25 C14.41 13.3 13.69 13.34 12.95 13.39 C12.3 13.26 11.66 13.13 11 13 C10.69 12.35 10.38 11.7 10.06 11.03 C9.71 10.36 9.36 9.69 9 9 C6.62 8.39 6.62 8.39 3.88 8.25 C2.96 8.19 2.05 8.14 1.12 8.08 C0.42 8.05 -0.28 8.03 -1 8 C-0.67 5.36 -0.34 2.72 0 0 Z " fill="#9B9A94" transform="translate(35,59)"/>
<path d="M0 0 C0.33 0 0.66 0 1 0 C1 7.26 1 14.52 1 22 C7.6 22 14.2 22 21 22 C21 22.33 21 22.66 21 23 C17.37 23.33 13.74 23.66 10 24 C10 24.33 10 24.66 10 25 C7.03 25 4.06 25 1 25 C1 25.99 1 26.98 1 28 C0.34 28 -0.32 28 -1 28 C-2.13 24.61 -2.13 21.95 -2.12 18.38 C-2.13 17.79 -2.13 17.79 -2.13 14.84 C-2 12 -2 12 -1 11 C-0.77 9.15 -0.59 7.3 -0.44 5.44 C-0.35 4.43 -0.27 3.41 -0.18 2.37 C-0.12 1.59 -0.06 0.81 0 0 Z " fill="#393F4A" transform="translate(86,67)"/>
<path d="M0 0 C2.31 0 4.62 0 7 0 C7 0.33 7 0.66 7 1 C5.02 1 3.04 1 1 1 C1 3.31 1 5.62 1 8 C2.32 8 3.64 8 5 8 C5 8.66 5 9.32 5 10 C3.68 10 2.36 10 1 10 C1 11.32 1 12.64 1 14 C1.66 14 2.32 14 3 14 C3 14.66 3 15.32 3 16 C2.34 16 1.68 16 1 16 C1 17.32 1 18.64 1 20 C1.99 20.33 2.98 20.66 4 21 C3.01 21 2.02 21 1 21 C1 23.97 1 26.94 1 30 C2.65 30 4.3 30 6 30 C6 31.98 6 33.96 6 36 C4.02 36 2.04 36 0 36 C0 24.12 0 12.24 0 0 Z " fill="#AFB2AC" transform="translate(18,70)"/>
<path d="M0 0 C0.33 0 0.66 0 1 0 C1 9.57 1 19.14 1 29 C-0.98 29 -2.96 29 -5 29 C-5 26.03 -5 23.06 -5 20 C-3.35 19.67 -1.7 19.34 0 19 C0 17.68 0 16.36 0 15 C-0.66 14.67 -1.32 14.34 -2 14 C-1.67 13.67 -1.34 13.34 -1 13 C-0.77 10.82 -0.59 8.63 -0.44 6.44 C-0.35 5.24 -0.27 4.04 -0.18 2.81 C-0.12 1.88 -0.06 0.95 0 0 Z " fill="#C1C3BC" transform="translate(24,71)"/>
<path d="M0 0 C0.33 1.32 0.66 2.64 1 4 C-0.32 3.67 -1.64 3.34 -3 3 C-2.01 2.01 -1.02 1.02 0 0 Z M-5 6 C-5.33 9.63 -5.66 13.26 -6 17 C-8.97 17 -11.94 17 -15 17 C-14.01 13.02 -13.69 12.58 -11 10 C-11 9.34 -11 8.68 -11 8 C-6.67 6 -6.67 6 -5 6 Z " fill="#505A64" transform="translate(90,59)"/>
<path d="M0 0 C2.97 0 5.94 0 9 0 C9 4.29 9 8.58 9 13 C8.67 11.68 8.34 10.36 8 9 C5.36 9 2.72 9 0 9 C0 8.67 0 8.34 0 8 C1.65 8 3.3 8 5 8 C3.35 7.67 1.7 7.34 0 7 C0 4.69 0 2.38 0 0 Z " fill="#86888A" transform="translate(75,78)"/>
<path d="M0 0 C0.66 0 1.32 0 2 0 C2.33 0.99 2.66 1.98 3 3 C6.56 3.69 6.56 3.69 10 4 C7 6 7 6 5 6 C5.33 6.99 5.66 7.98 6 9 C5.67 9.99 5.34 10.98 5 12 C3.35 12 1.7 12 0 12 C-0.08 11.2 -0.16 10.39 -0.25 9.56 C-0.5 8.72 -0.74 7.87 -1 7 C-2.88 6.31 -2.88 6.31 -5 6 C-5.99 5.34 -6.98 4.68 -8 4 C-6.87 3.9 -5.73 3.79 -4.56 3.69 C-3.39 3.46 -2.21 3.23 -1 3 C-0.67 2.01 -0.34 1.02 0 0 Z " fill="#F9F7EB" transform="translate(47,59)"/>
<path d="M0 0 C2.64 0 5.28 0 8 0 C8.12 0.62 8.25 1.24 8.38 1.88 C9 4 9 4 11 6 C10.67 6.66 10.34 7.32 10 8 C6.53 9.16 3.64 9.07 0 9 C0 7.68 0 6.36 0 5 C1.32 5 2.64 5 4 5 C4 4.34 4 3.68 4 3 C2.68 3 1.36 3 0 3 C0 2.01 0 1.02 0 0 Z " fill="#9C9E9C" transform="translate(75,87)"/>
<path d="M0 0 C1.65 0.33 3.3 0.66 5 1 C5 4.63 5 8.26 5 12 C3.02 12 1.04 12 -1 12 C-1.03 10.19 -1.05 8.38 -1.06 6.56 C-1.07 5.55 -1.09 4.54 -1.1 3.5 C-1 1 -1 1 0 0 Z " fill="#1F283A" transform="translate(95,71)"/>
<path d="M0 0 C4.09 -0.05 8.19 -0.09 12.28 -0.11 C13.67 -0.12 15.07 -0.13 16.46 -0.15 C18.46 -0.18 20.46 -0.19 22.46 -0.2 C23.06 -0.2 23.06 -0.2 26.11 -0.23 C29 0 29 0 31 2 C28.23 2.92 26.62 3.12 23.77 3.1 C22.97 3.09 22.16 3.09 21.34 3.09 C20.92 3.08 20.92 3.08 18.81 3.06 C18.39 3.06 18.39 3.06 16.25 3.05 C14.17 3.04 12.08 3.02 10 3 C10 2.34 10 1.68 10 1 C6.7 1 3.4 1 0 1 C0 0.67 0 0.34 0 0 Z " fill="#010A17" transform="translate(34,37)"/>
<path d="M0 0 C4.03 1.34 4.88 3.42 7 7 C7 7.66 7 8.32 7 9 C3.04 9 -0.92 9 -5 9 C-3.47 5.19 -2.47 3.03 0 0 Z " fill="#B6B6B2" transform="translate(85,29)"/>
<path d="M0 0 C2.31 0 4.62 0 7 0 C6.67 0.16 6.67 0.16 5 1 C5 1.99 5 2.98 5 4 C5.99 4.33 6.98 4.66 8 5 C7.67 6.65 7.34 8.3 7 10 C4.69 10 2.38 10 0 10 C0 6.7 0 3.4 0 0 Z " fill="#ECECE1" transform="translate(28,63)"/>
<path d="M0 0 C3.63 0 7.26 0 11 0 C11 3.96 11 7.92 11 12 C10.29 12.06 10.29 12.06 6.69 12.38 C3.19 12.68 2.04 12.98 -1 15 C0.15 12.53 1.05 10.95 3 9 C6.62 9.88 6.62 9.88 10 11 C10 7.7 10 4.4 10 1 C9.01 1 8.02 1 7 1 C7 2.65 7 4.3 7 6 C5.02 6 3.04 6 1 6 C1 6.66 1 7.32 1 8 C-0.68 7.37 -2.35 6.7 -4 6 C-4 5.67 -4 5.34 -4 5 C-1.03 5 1.94 5 5 5 C5 3.68 5 2.36 5 1 C3.35 1 1.7 1 0 1 C0 0.67 0 0.34 0 0 Z " fill="#858586" transform="translate(61,62)"/>
<path d="M0 0 C0.99 0.33 1.98 0.66 3 1 C3 1.66 3 2.32 3 3 C1 4.12 1 4.12 -1 5 C-0.67 6.98 -0.34 8.96 0 11 C0.33 11 0.66 11 1 11 C1 18.59 1 26.18 1 34 C0.67 34 0.34 34 0 34 C-0.33 30.04 -0.66 26.08 -1 22 C-1.33 22 -1.66 22 -2 22 C-1.96 21.2 -1.92 20.39 -1.88 19.56 C-1.92 18.72 -1.96 17.87 -2 17 C-2.66 16.67 -3.32 16.34 -4 16 C-3.74 14.05 -3.48 12.09 -3.22 10.14 C-3 8 -3 8 -3 4 C-1.5 1.75 -1.5 1.75 0 0 Z " fill="#040C17" transform="translate(78,33)"/>
<path d="M0 0 C2.07 -0.2 2.07 -0.2 4.56 -0.12 C4.98 -0.12 4.98 -0.12 7.07 -0.07 C7.7 -0.05 8.34 -0.02 9 0 C9 0.33 9 0.66 9 1 C11.31 1.33 13.62 1.66 16 2 C16 2.99 16 3.98 16 5 C17.98 5 19.96 5 22 5 C22 5.33 22 5.66 22 6 C20.02 6 18.04 6 16 6 C16 6.99 16 7.98 16 9 C14.68 9 13.36 9 12 9 C12 8.01 12 7.02 12 6 C9.69 6 7.38 6 5 6 C5 5.67 5 5.34 5 5 C6.16 4.84 6.16 4.84 12 4 C7.71 3.34 3.42 2.68 -1 2 C-0.67 1.34 -0.34 0.68 0 0 Z " fill="#323E4C" transform="translate(34,43)"/>
<path d="M0 0 C2.31 0 4.62 0 7 0 C5.68 0.33 4.36 0.66 3 1 C3 2.98 3 4.96 3 7 C3.99 7.33 4.98 7.66 6 8 C5.01 8 4.02 8 3 8 C2.88 10.94 2.88 10.94 3 14 C3.66 14.33 4.32 14.66 5 15 C3.02 15 1.04 15 -1 15 C-1.09 9.85 -0.85 5.08 0 0 Z " fill="#192536" transform="translate(25,93)"/>
<path d="M0 0 C0.66 0 1.32 0 2 0 C2 0.66 2 1.32 2 2 C5.96 2 9.92 2 14 2 C14.33 2.99 14.66 3.98 15 5 C10.38 5 5.76 5 1 5 C0.67 6.98 0.34 8.96 0 11 C-0.33 11 -0.66 11 -1 11 C-1.22 9.54 -1.43 8.08 -1.62 6.62 C-1.74 5.81 -1.86 5 -1.98 4.16 C-1.98 3.45 -1.99 2.74 -2 2 C-1.34 1.34 -0.68 0.68 0 0 Z " fill="#101F35" transform="translate(78,36)"/>
<path d="M0 0 C5.13 -0.1 9.95 -0.04 15 1 C14.67 1.66 14.34 2.32 14 3 C10.44 3.12 10.44 3.12 7 3 C7 4.32 7 5.64 7 7 C5.68 7 4.36 7 3 7 C3 6.01 3 5.02 3 4 C0.69 4 -1.62 4 -4 4 C-4 3.67 -4 3.34 -4 3 C-2.02 2.67 -0.04 2.34 2 2 C1.34 1.34 0.68 0.68 0 0 Z " fill="#142135" transform="translate(32,45)"/>
<path d="M0 0 C1.07 0.01 2.14 0.03 3.24 0.04 C4.35 0.07 5.46 0.11 6.61 0.14 C7.74 0.16 8.86 0.18 10.02 0.2 C12.8 0.24 15.58 0.31 18.36 0.39 C18.36 0.72 18.36 1.05 18.36 1.39 C16.38 1.56 16.38 1.56 6.36 2.39 C6.36 3.05 6.36 3.71 6.36 4.39 C5.86 4.23 5.37 4.06 4.86 3.89 C0.1 2.94 -5 2.84 -9.64 4.39 C-6.55 0.68 -4.8 -0.1 0 0 Z " fill="#CED0CB" transform="translate(39.640625,40.609375)"/>
<path d="M0 0 C1.69 1.81 1.69 1.81 3 4 C2.67 4.99 2.34 5.98 2 7 C-0.33 7 -2.67 7 -5 7 C-6.7 8.29 -8.37 9.63 -10 11 C-10 8 -10 8 -8.32 5.96 C-7.96 5.6 -7.96 5.6 -6.12 3.81 C-5.77 3.45 -5.77 3.45 -3.95 1.64 C-2 0 -2 0 0 0 Z " fill="#DEDDD2" transform="translate(98,57)"/>
<path d="M0 0 C0.33 0 0.66 0 1 0 C1 1.65 1 3.3 1 5 C1.99 5 2.98 5 4 5 C4.33 6.32 4.66 7.64 5 9 C1.37 9 -2.26 9 -6 9 C-6 7.35 -6 5.7 -6 4 C-4.02 4 -2.04 4 0 4 C0 2.68 0 1.36 0 0 Z " fill="#848889" transform="translate(81,97)"/>
<path d="M0 0 C0.33 0.99 0.66 1.98 1 3 C2.32 3 3.64 3 5 3 C5 3.66 5 4.32 5 5 C3.68 5 2.36 5 1 5 C1 7.64 1 10.28 1 13 C2.65 13 4.3 13 6 13 C6.33 12.01 6.66 11.02 7 10 C7 11.32 7 12.64 7 14 C5.02 14 3.04 14 1 14 C1 15.65 1 17.3 1 19 C0.67 19 0.34 19 0 19 C-0.33 15.04 -0.66 11.08 -1 7 C-2.98 7 -4.96 7 -7 7 C-7 6.67 -7 6.34 -7 6 C-5.02 6 -3.04 6 -1 6 C-1.02 5.2 -1.04 4.39 -1.06 3.56 C-1 1 -1 1 0 0 Z " fill="#192532" transform="translate(74,87)"/>
<path d="M0 0 C0.99 0 1.98 0 3 0 C3 1.32 3 2.64 3 4 C4.65 4 6.3 4 8 4 C8 2.68 8 1.36 8 0 C8.99 0.33 9.98 0.66 11 1 C11 2.32 11 3.64 11 5 C11.66 5.33 12.32 5.66 13 6 C9.69 7.1 7.75 6.93 4.31 6.56 C3.32 6.46 2.32 6.36 1.3 6.25 C0.54 6.17 -0.22 6.09 -1 6 C-0.67 4.02 -0.34 2.04 0 0 Z " fill="#0F2034" transform="translate(86,102)"/>
<path d="M0 0 C2 3 2 3 2 5 C-0.25 6.75 -0.25 6.75 -3 8 C-5.31 7.5 -5.31 7.5 -7 6 C-7.25 3.38 -7.25 3.38 -7 1 C-3.62 0.31 -3.62 0.31 0 0 Z " fill="#F0EEDC" transform="translate(44,67)"/>
<path d="M0 0 C2.97 0 5.94 0 9 0 C9 1.65 9 3.3 9 5 C6.03 5 3.06 5 0 5 C0 3.35 0 1.7 0 0 Z " fill="#CFCFC9" transform="translate(63,101)"/>
<path d="M0 0 C2.69 -0.31 2.69 -0.31 5 0 C5 1.98 5 3.96 5 6 C2.69 6.62 2.69 6.62 0 7 C-0.99 6.34 -1.98 5.68 -3 5 C-1.81 2.5 -1.81 2.5 0 0 Z " fill="#E1DFCF" transform="translate(67,94)"/>
<path d="M0 0 C2.64 0 5.28 0 8 0 C8 1.65 8 3.3 8 5 C5.36 5 2.72 5 0 5 C0 3.35 0 1.7 0 0 Z " fill="#E4E4E0" transform="translate(28,101)"/>
<path d="M0 0 C1.65 0 3.3 0 5 0 C5 2.64 5 5.28 5 8 C3.35 8 1.7 8 0 8 C0 5.36 0 2.72 0 0 Z " fill="#F8F7E9" transform="translate(19,92)"/>
<path d="M0 0 C5.75 -0.12 5.75 -0.12 8 1 C8 2.32 8 3.64 8 5 C5.36 5 2.72 5 0 5 C0 3.35 0 1.7 0 0 Z " fill="#F8F5E6" transform="translate(28,80)"/>
<path d="M0 0 C2.02 0.07 4.04 0.13 6.05 0.2 C6.05 1.52 6.05 2.84 6.05 4.2 C5.06 4.2 4.07 4.2 3.05 4.2 C2.72 3.54 2.39 2.88 2.05 2.2 C1.72 3.19 1.39 4.18 1.05 5.2 C-1.01 5.88 -1.01 5.88 -2.95 6.2 C-3.57 4.32 -3.57 4.32 -3.95 2.2 C-1.95 0.2 -1.95 0.2 0 0 Z " fill="#F3F0E3" transform="translate(64.9453125,73.8046875)"/>
</svg>
