<svg xmlns="http://www.w3.org/2000/svg" width="128" height="128" viewBox="0 0 128 128"><path fill="#08182e" d="m85 18 3 1 1.13 4.69c1.62 4.31 4.53 7.91 7.19 11.64C98 38 98 38 98 41h-2q.1 2.19.25 4.38l.14 2.46L97 50q1.97 1.05 4 2c2.22 1.99 4.23 4.18 6.25 6.38l1.68 1.74 1.59 1.72 1.44 1.54C113 65 113 65 113 69h-2v13h4l.06 13.44.03 3.87.01 3.69.01 3.41C115 109 115 109 114 110q-2.48.16-4.95.18l-3.19.04-3.48.02-3.55.02-7.44.04q-5.72.03-11.42.1l-7.22.03-3.47.05-3.2-.01-2.83.02C61 110 61 110 59.69 108.13c-.86-2.66-.87-4.83-.78-7.63l.06-3.19.2-6.62.05-3.19.09-2.91c-.37-3.08-1.09-4.43-3.31-6.59-3.5 0-3.5 0-7 1-3.84 3.84-4.13 7.74-4.14 13.01l.02 2.3-.02 2.27A73 73 0 0 0 46 109c-1 1-1 1-3.96 1.11l-3.92-.01-2.08-.01-6.6-.03-4.47-.01L14 110c-.56-1.94-.56-1.94-1-4l1-1q.24-3.87.32-7.75l.06-2.35.18-7.46.13-5.05L15 70h-2c.27-4.56 2.22-6.71 5.23-9.86C20.57 58.63 22.28 58.8 25 59l-.68-7.42C24 49 24 49 23.2 47.1L23 45a26 26 0 0 1 14.49-8.76c3.74-.28 7.38-.28 11.13-.18l3.82-.07c8.76.1 13.31 1.98 19.56 8.01l3 2v-2.25c0-5.45.4-7.9 3.38-12.5l1.89-2.98L82 26h2l-.06-3.44C84 19 84 19 85 18M74 50v5h2v-5z"/><path fill="#06172e" d="M94 41h1v11h2v-2c4.41 1.65 7.14 5 10.25 8.38l1.68 1.74 1.59 1.72 1.44 1.54C113 65 113 65 113 69h-2v13h4l.06 13.44.03 3.87.01 3.69.01 3.41C115 109 115 109 114 110q-2.48.16-4.95.18l-3.19.04-3.48.02-3.55.02-7.44.04q-5.72.03-11.42.1l-7.22.03-3.47.05-3.2-.01-2.83.02C61 110 61 110 59.69 108.13c-.86-2.66-.87-4.83-.78-7.63l.06-3.19.2-6.62.05-3.19.09-2.91c-.37-3.08-1.09-4.43-3.31-6.59-3.5 0-3.5 0-7 1-3.84 3.84-4.13 7.74-4.14 13.01l.02 2.3-.02 2.27A73 73 0 0 0 46 109c-1 1-1 1-3.96 1.11l-3.92-.01-2.08-.01-6.6-.03-4.47-.01L14 110c-.56-1.94-.56-1.94-1-4l1-1q.24-3.87.32-7.75l.06-2.35.18-7.46.13-5.05L15 70h-2c.35-3.24.56-4.62 3.06-6.81L18 62l1 4h-2l1 2c6.31.34 6.31.34 9-1v26h5l-4 1v6l3 1h-3v5h8v-5l-4-1h4l-.11-3.73-.08-4.89-.07-2.45c-.08-6.29 1.15-10.34 5.2-15.31C45.8 71.05 50.63 71.12 56 72c3.29 2.44 4.75 4.62 7 8 .23 2.18.23 2.18.2 4.67l-.02 2.7-.06 2.82-.02 2.85L63 100l4 1h-4v5h9v-5l-3-1h3v-6c2 2 2 2 2.2 4.38L74 106h12v-4h3v4h5v-4l3 1v3h9v-5h-6l1-4v3h5v-8h-9v4l-2-1 1-4h-5v-1h16q-.05-5.68-.19-11.38l-.02-3.27-.08-3.12-.05-2.89L106 67c-2.47-1.17-2.47-1.17-5-2-1.25-2.44-1.25-2.44-2-5l-1-3-7 5-1-2-6 6-2-1 4.88-5 2.74-2.81C92 55 92 55 94 55z"/><path fill="#e6e4d7" d="M26 49h9v3h4v-3h7v3h4v-3h6v3h4v-3h7v10h-6v3h11v44h-9l-.03-2.29q-.09-5.17-.22-10.33l-.04-3.61C62.4 78.71 62.4 78.71 58 74c-4.18-2.09-9.45-1.44-14-1-4.24 2.29-5.5 4.53-7 9-.32 2.77-.32 2.77-.41 5.74l-.12 3.23-.09 3.34-.12 3.4q-.15 4.15-.26 8.29h-8l.04-2.59.02-3.35.04-3.34C28 94 28 94 27 93q-.23-2.78-.32-5.57l-.12-3.4-.12-3.59-.13-3.6L26 68l-1 1q-3.5.06-7 0l-1-3h2l-.56-2.44L18 61c1.97-1.97 5.35-1.66 8-2z"/><path fill="#04162b" d="M94 41h1v11h2v-2c4.41 1.65 7.14 5 10.25 8.38l1.68 1.74 1.59 1.72 1.44 1.54C113 65 113 65 113 69h-2v13h4l.06 13.44.03 3.87.01 3.69.01 3.41C115 109 115 109 114 110q-2.48.16-4.95.18l-3.19.04-3.48.02-3.55.02-7.44.04q-5.72.03-11.42.1l-7.22.03-3.47.05-3.2-.01-2.83.02C61 110 61 110 59.69 108.13c-.86-2.65-.87-4.81-.78-7.59l.06-3.18.2-6.58.05-3.18.09-2.89C58.94 81.5 57.82 79.63 56 77c1.81-.75 1.81-.75 4-1 2.75 2.86 3.37 4.85 3.29 8.77l-.03 2.69-.07 2.79-.04 2.84q-.06 3.46-.15 6.91l4 1h-4v5h9v-5l-3-1h3v-6c2 2 2 2 2.2 4.38L74 106h12v-4h3v4h5v-4l3 1v3h9v-5h-6l1-4v3h5v-8h-9v4l-2-1 1-4h-5v-1h16q-.05-5.68-.19-11.38l-.02-3.27-.08-3.12-.05-2.89L106 67c-2.47-1.17-2.47-1.17-5-2-1.25-2.44-1.25-2.44-2-5l-1-3-7 5-1-2-6 6-2-1 4.88-5 2.74-2.81C92 55 92 55 94 55z"/><path fill="#b2b0aa" d="M26 49h2v10l3.94-.12c2.21-.08 2.21-.08 4.06.12l1 2 1-2c2.68-.28 5.3-.09 8 0v4l-3 2 3 1c.69 2.56.69 2.56 1 5h5l1-5 2 1-1 5-2.01.08c-5.46.35-9.17.62-12.99 4.92-1.76 3.66-2.28 6.7-2.41 10.74l-.12 3.23-.09 3.34-.12 3.4q-.15 4.15-.26 8.29h-8l.04-2.59.02-3.35.04-3.34C28 94 28 94 27 93q-.23-2.78-.32-5.57l-.12-3.4-.12-3.59-.13-3.6L26 68l-1 1q-3.5.06-7 0l-1-3h2l-.56-2.44L18 61c1.97-1.97 5.35-1.66 8-2z"/><path fill="#f4f2e3" d="M98 57c2.74 2.95 3 3.77 3 8l2.44.44C106 66 106 66 107 67q.13 2.45.1 4.91l-.01 3-.03 3.15-.01 3.17L107 89H87c-1.45-21.65-1.45-21.65 1.93-26.53C94.48 57 94.48 57 98 57"/><path fill="#8f9392" d="M75 78h9l-.07 3.03-.05 3.91-.08 3.9L84 92l2 1-1 2h2v-3h9l1 4v-4h9v8l-2.44-.06C101 100 101 100 100 101h6v5h-9l-1-3-2-1v4h-5v-4h-3v4H75v-5h6c-1-1-1-1-3.56-1.06L75 100v-8h4v-2h-4v-4h5l-5-1z"/><path fill="#e9e7dc" d="M61 62h11v44h-9l-.06-2.31-.32-10.38-.09-3.63-.12-3.5-.09-3.23C62 80 62 80 60.88 77.27L60 75c1.44-2.44 1.44-2.44 4-4 3.75.75 3.75.75 7 2V63h-3v5h-6v2q-2.52-.95-5-2v-1h9v-4h-5z"/><path fill="#2e3746" d="M26 49h2v10h7v4h-7v22h8v21h-8l.04-2.59.02-3.35.04-3.34C28 94 28 94 27 93q-.23-2.78-.32-5.57l-.12-3.4-.12-3.59-.13-3.6L26 68l-1 1q-3.5.06-7 0l-1-3h2l-.56-2.44L18 61c1.97-1.97 5.35-1.66 8-2z"/><path fill="#d5d5cb" d="M79 41h14c1.41 11.74 1.41 11.74-1.15 15.84A64 64 0 0 1 81 67h-2z"/><path fill="#040c1e" d="m17 62 2 4h-2l1 2c6.31.34 6.31.34 9-1v26h-2V70h-7v36h6v2l3.58-.07 4.67-.05 2.36-.06 2.28-.02 2.1-.03C41 108 41 108 45 110H14l-1-4 1-1q.24-3.87.32-7.75l.06-2.35.18-7.46.13-5.05L15 70h-2c.5-3.69 1.1-5.6 4-8"/><path fill="#f9f7e8" d="M18 70h7l.05 12.49.03 4.24.02 6.12.01 3.71c-.1 3.24-.5 6.26-1.11 9.44h-6z"/><path fill="#010f21" d="M85 29c3 1 3 1 4 3l1.83-.7L93 31c1.48 1.33 1.48 1.33 2.75 3.25l1.3 1.89C98 38 98 38 98 41h-2l1 11h-2l-2 3V41H79l-1 6h-1a36 36 0 0 1-1-9c2.19-1.69 2.19-1.69 5-3 2.31-3.19 2.31-3.19 4-6"/><path fill="#020c19" d="M59 76c2.17 1.3 2.17 1.3 4 4 .49 3.43.38 6.79.25 10.25l-.05 2.84q-.08 3.46-.2 6.91l4 1h-4v5l1.93-.07 2.51-.05 2.49-.08 2.07.2 1 2c3.05.25 6.01.37 9.07.41l2.75.06q4.37.09 8.74.15l5.91.12L114 109v1q-11.27.15-22.53.22l-7.68.08q-5.5.07-11 .09l-3.48.06h-3.22l-2.84.03C61 110 61 110 59.69 108.13c-.86-2.65-.87-4.81-.78-7.59l.06-3.18.2-6.58.05-3.18.09-2.89C58.94 81.5 57.82 79.63 56 77z"/><path fill="#071328" d="m85 18 3 1q1.09 3.47 2 7l2 3c-.38 2.19-.38 2.19-1 4l-3-1-1-2h-2l-1.88 2.88c-2 2.94-2.87 3.96-6.12 5.12l1 6h1v23h-1l-1-12h-1l.12-2.44L76 50l-2-1 .78-5.86C75 41 75 41 75 37c1.46-2.8 1.46-2.8 3.38-5.75l1.89-2.98L82 26h2l-.06-3.44C84 19 84 19 85 18"/><path fill="#8b8c8a" d="M61 62h11v17l-7 2c-.94 2.12-.94 2.12-1 4h5v2h-5v13h-1l-.06-1.76-.32-7.93-.09-2.76c-.2-4.68-.65-8.22-2.53-12.55 1.44-2.44 1.44-2.44 4-4 3.75.75 3.75.75 7 2V63h-3v5h-6v2q-2.52-.95-5-2v-1h9v-4h-5z"/><path fill="#ebeadc" d="M28 86h7c1 1 1 1 1.11 2.86l-.01 2.39-.01 2.59-.03 2.72-.01 2.73L36 106h-8z"/><path fill="#031021" d="m30 40 2 3-1 1 16 2-1 2c-3.56.12-3.56.12-7 0v4h-4v-3h-9l.25 2.15.31 2.79.32 2.77L27 59c-1 1-1 1-4.06 1.06L20 60v-1h5l-.44-4.75-.24-2.67C24 49 24 49 23.25 46.84L23 45c1.43-1.48 1.43-1.48 3.44-2.75l1.99-1.3z"/><path fill="#738289" d="m40.63 40.47 3.88-.02 2.02.03q3.04.02 6.09-.03l3.89.02h3.55C63 41 63 41 66 45H42v-1c-8.57-.14-8.57-.14-12 1 3.29-4.08 5.47-4.51 10.63-4.53"/><path fill="#f1efe2" d="M68 63h3v10h-8l-1.81 1.19C59 75 59 75 56.25 73.94 54 72 54 72 53.69 69.31L54 67c5.75 1.88 5.75 1.88 8 3v-2h6z"/><path fill="#9b9a94" d="m35 59 2 2 1-2c2.68-.28 5.3-.09 8 0v4l-3 2 3 1c.69 2.56.69 2.56 1 5h5l1-5 2 1-1 5-3.88.25-2.17.14L46 72l-.94-1.97L44 68c-2.38-.61-2.38-.61-5.12-.75l-2.76-.17L34 67z"/><path fill="#393f4a" d="M86 67h1v22h20v1l-11 1v1h-9v3h-2c-1.13-3.39-1.13-6.05-1.12-9.62l-.01-3.54C84 79 84 79 85 78q.34-2.77.56-5.56l.26-3.07z"/><path fill="#afb2ac" d="M18 70h7v1h-6v7h4v2h-4v4h2v2h-2v4l3 1h-3v9h5v6h-6z"/><path fill="#c1c3bc" d="M24 71h1v29h-6v-9l5-1v-4l-2-1 1-1q.34-3.27.56-6.56l.26-3.63z"/><path fill="#505a64" d="m90 59 1 4-4-1zm-5 6-1 11h-9c.99-3.98 1.31-4.42 4-7v-2c4.33-2 4.33-2 6-2"/><path fill="#86888a" d="M75 78h9v13l-1-4h-8v-1h5l-5-1z"/><path fill="#f9f7eb" d="M47 59h2l1 3c3.56.69 3.56.69 7 1-3 2-3 2-5 2l1 3-1 3h-5l-.25-2.44L46 66c-1.88-.69-1.88-.69-4-1l-3-2 3.44-.31L46 62z"/><path fill="#9c9e9c" d="M75 87h8l.38 1.88C84 91 84 91 86 93l-1 2c-3.47 1.16-6.36 1.07-10 1v-4h4v-2h-4z"/><path fill="#1f283a" d="m95 71 5 1v11h-6q-.05-2.71-.06-5.44l-.04-3.06C94 72 94 72 95 71"/><path fill="#010a17" d="M34 37q6.14-.08 12.28-.11l4.18-.04q3-.04 6-.05l3.65-.03C63 37 63 37 65 39a19 19 0 0 1-7.23 1.1l-2.43-.01-2.53-.03-2.56-.01L44 40v-2H34z"/><path fill="#b6b6b2" d="M85 29c4.03 1.34 4.88 3.42 7 7v2H80c1.53-3.81 2.53-5.97 5-9"/><path fill="#ecece1" d="M28 63h7l-2 1v3l3 1-1 5h-7z"/><path fill="#858586" d="M61 62h11v12l-4.31.38c-3.5.3-4.65.6-7.69 2.62 1.15-2.47 2.05-4.05 4-6 3.62.88 3.62.88 7 2V63h-3v5h-6v2q-2.52-.95-5-2v-1h9v-4h-5z"/><path fill="#040c17" d="m78 33 3 1v2c-2 1.12-2 1.12-4 2l1 6h1v23h-1l-1-12h-1l.12-2.44L76 50l-2-1 .78-5.86C75 41 75 41 75 37c1.5-2.25 1.5-2.25 3-4"/><path fill="#323e4c" d="M34 43c2.07-.2 2.07-.2 4.56-.12l2.51.05L43 43v1l7 1v3h6v1h-6v3h-4v-3h-7v-1l7-1-13-2z"/><path fill="#192536" d="M25 93h7l-4 1v6l3 1h-3c-.12 2.94-.12 2.94 0 6l2 1h-6a80 80 0 0 1 1-15"/><path fill="#101f35" d="M78 36h2v2h12l1 3H79l-1 6h-1a220 220 0 0 1-.62-4.38l-.36-2.46L76 38z"/><path fill="#142135" d="M32 45c5.13-.1 9.95-.04 15 1l-1 2c-3.56.12-3.56.12-7 0v4h-4v-3h-7v-1l6-1z"/><path fill="#ced0cb" d="m39.64 40.6 3.24.05 3.37.1 3.41.06q4.17.06 8.34.19v1l-12 1v2l-1.5-.5c-4.76-.95-9.86-1.05-14.5.5 3.1-3.71 4.84-4.5 9.64-4.4"/><path fill="#deddd2" d="M98 57c1.69 1.81 1.69 1.81 3 4l-1 3h-7q-2.55 1.94-5 4c0-3 0-3 1.68-5.04l2.2-2.15 2.17-2.17C96 57 96 57 98 57"/><path fill="#848889" d="M81 97h1v5h3l1 4H75v-5h6z"/><path fill="#192532" d="m74 87 1 3h4v2h-4v8h5l1-3v4h-6v5h-1l-1-12h-6v-1h6l-.06-2.44C73 88 73 88 74 87"/><path fill="#0f2034" d="M86 102h3v4h5v-4l3 1v4l2 1c-3.31 1.1-5.25.93-8.69.56l-3.01-.31L85 108z"/><path fill="#f0eedc" d="M44 67c2 3 2 3 2 5-2.25 1.75-2.25 1.75-5 3-2.31-.5-2.31-.5-4-2-.25-2.62-.25-2.62 0-5 3.38-.69 3.38-.69 7-1"/><path fill="#cfcfc9" d="M63 101h9v5h-9z"/><path fill="#e1dfcf" d="M67 94c2.69-.31 2.69-.31 5 0v6c-2.31.62-2.31.62-5 1l-3-2c1.19-2.5 1.19-2.5 3-5"/><path fill="#e4e4e0" d="M28 101h8v5h-8z"/><path fill="#f8f7e9" d="M19 92h5v8h-5z"/><path fill="#f8f5e6" d="M28 80c5.75-.12 5.75-.12 8 1v4h-8z"/><path fill="#f3f0e3" d="M64.95 73.8 71 74v4h-3l-1-2-1 3c-2.06.68-2.06.68-4 1-.62-1.88-.62-1.88-1-4 2-2 2-2 3.95-2.2"/></svg>