<?xml version="1.0" encoding="UTF-8"?>
<!-- Generator: visioncortex VTracer 0.6.12 -->
<svg version="1.1" xmlns="http://www.w3.org/2000/svg" width="128" height="128" viewBox="0 0 128 128" preserveAspectRatio="xMidYMid meet">
<path d="M0 0 C0.39 0 0.39 0 2.36 0.02 C3.2 0.02 4.05 0.02 4.92 0.03 C5.81 0.03 6.7 0.04 7.61 0.05 C8.5 0.06 9.38 0.06 10.29 0.06 C11.94 0.07 13.58 0.08 15.22 0.1 C17.2 0.11 19.15 0.11 21.13 0.01 C30.35 -0.32 30.35 -0.32 34.17 3.11 C35.06 8.31 35.13 12.68 32.17 17.11 C31.86 19.38 31.86 19.38 31.76 22 C31.72 22.94 31.68 23.88 31.64 24.84 C31.61 25.82 31.58 26.79 31.55 27.8 C31.51 28.79 31.47 29.78 31.43 30.8 C31.34 33.23 31.25 35.67 31.17 38.11 C32.82 38.11 34.47 38.11 36.17 38.11 C36.11 37.33 36.05 36.55 35.99 35.74 C36.02 35.31 36.02 35.31 36.17 33.11 C39.46 30.93 40.4 30.92 44.17 31.11 C45.16 31.11 46.15 31.11 47.17 31.11 C48.65 31.22 50.13 31.34 51.61 31.49 C52.37 31.56 53.14 31.63 53.92 31.7 C56.32 32.14 58.02 32.99 60.17 34.11 C62.17 34.47 64.17 34.8 66.17 35.11 C67.96 36.9 67.33 39.59 67.35 42.01 C67.36 42.61 67.36 42.61 67.42 45.65 C67.46 48.2 67.5 50.75 67.52 53.3 C67.54 54.51 67.57 55.71 67.6 56.95 C67.61 58.06 67.63 59.17 67.64 60.31 C68.17 63.11 68.17 63.11 70.13 64.72 C70.8 65.18 71.48 65.64 72.17 66.11 C73.01 68.18 73.01 68.18 73.47 70.53 C73.65 71.37 73.82 72.21 74 73.08 C74.08 73.52 74.08 73.52 74.49 75.74 C74.67 76.62 74.85 77.51 75.04 78.42 C75.97 83.15 75.97 83.15 76.17 85.11 C75.17 86.11 75.17 86.11 73.44 86.24 C72.68 86.24 71.93 86.23 71.14 86.23 C70.28 86.24 69.41 86.24 68.51 86.24 C67.55 86.23 66.59 86.23 65.61 86.23 C64.6 86.23 63.6 86.23 62.56 86.23 C59.22 86.23 55.88 86.22 52.55 86.21 C50.24 86.21 47.93 86.21 45.62 86.21 C39.53 86.2 33.45 86.19 27.36 86.18 C21.15 86.17 14.95 86.17 8.74 86.16 C-3.45 86.15 -15.64 86.13 -27.83 86.11 C-27.48 85.3 -27.14 84.48 -26.79 83.63 C-26.34 82.56 -25.89 81.48 -25.43 80.37 C-24.99 79.31 -24.54 78.24 -24.08 77.14 C-23.35 75.38 -22.62 73.61 -21.9 71.84 C-20.78 69.12 -19.93 67.22 -17.83 65.11 C-17.52 62.7 -17.52 62.7 -17.45 59.7 C-17.41 58.63 -17.38 57.56 -17.34 56.46 C-17.32 55.33 -17.29 54.21 -17.26 53.05 C-17.2 50.83 -17.14 48.61 -17.07 46.39 C-17.05 45.4 -17.02 44.42 -17 43.4 C-16.83 41.11 -16.83 41.11 -15.83 40.11 C-13.3 40.04 -10.79 40.02 -8.26 40.05 C-7.55 40.06 -6.84 40.06 -6.11 40.06 C-4.35 40.08 -2.59 40.09 -0.83 40.11 C-0.96 36.13 -1.11 32.16 -1.26 28.18 C-1.3 27.04 -1.34 25.9 -1.38 24.73 C-1.42 23.65 -1.47 22.57 -1.51 21.46 C-1.55 20.46 -1.58 19.46 -1.62 18.43 C-1.83 16.11 -1.83 16.11 -2.83 15.11 C-2.93 12.78 -2.96 10.45 -2.95 8.11 C-2.95 7.47 -2.95 7.47 -2.96 4.24 C-2.79 0.17 -2.79 0.17 0 0 Z " fill="#0D1D32" transform="translate(39.825927734375,20.886474609375)"/>
<path d="M0 0 C2.62 -0.25 2.62 -0.25 5 0 C5 1.32 5 2.64 5 4 C6.65 4 8.3 4 10 4 C10 2.68 10 1.36 10 0 C11.65 0 13.3 0 15 0 C15 1.32 15 2.64 15 4 C16.98 4 18.96 4 21 4 C21 2.68 21 1.36 21 0 C22.32 0 23.64 0 25 0 C25 3.3 25 6.6 25 10 C17.74 10 10.48 10 3 10 C3 10.99 3 11.98 3 13 C9.6 13 16.2 13 23 13 C23 24.22 23 35.44 23 47 C20.36 47 17.72 47 15 47 C14.67 45.35 14.34 43.7 14 42 C13.34 42 12.68 42 12 42 C11.67 43.65 11.34 45.3 11 47 C8.03 47 5.06 47 2 47 C1.67 45.02 1.34 43.04 1 41 C0.34 41 -0.32 41 -1 41 C-1 43.97 -1 46.94 -1 50 C2.96 50 6.92 50 11 50 C11.46 55.03 11.79 58.73 8.75 62.94 C4.52 67.35 -1.18 67.54 -7 68 C-7 68.99 -7 69.98 -7 71 C-6.44 70.67 -5.89 70.34 -5.31 70 C-2.7 68.87 -0.82 68.84 2 69 C0.93 71.92 0.22 73.78 -2 76 C-2.6 76.08 -3.2 76.17 -3.81 76.25 C-6 77 -6 77 -8.09 80.02 C-9.68 82 -10.51 82.88 -13 83.49 C-15.3 83.59 -17.52 83.52 -19.81 83.38 C-20.6 83.35 -21.39 83.32 -22.2 83.29 C-24.14 83.22 -26.07 83.12 -28 83 C-26.77 80.04 -25.54 77.08 -24.3 74.13 C-23.55 72.33 -22.81 70.52 -22.07 68.71 C-20.95 66 -20.1 64.1 -18 62 C-17.7 59.59 -17.7 59.59 -17.62 56.59 C-17.59 55.52 -17.55 54.45 -17.52 53.34 C-17.49 52.22 -17.46 51.09 -17.44 49.94 C-17.38 47.72 -17.31 45.5 -17.25 43.28 C-17.22 42.29 -17.2 41.3 -17.17 40.28 C-17 38 -17 38 -16 37 C-13.47 36.93 -10.97 36.91 -8.44 36.94 C-7.73 36.94 -7.02 36.95 -6.28 36.95 C-4.52 36.96 -2.76 36.98 -1 37 C-1.04 36.02 -1.08 35.04 -1.12 34.03 C-1.27 30.4 -1.41 26.76 -1.54 23.12 C-1.6 21.55 -1.66 19.97 -1.72 18.4 C-1.82 16.14 -1.9 13.87 -1.98 11.61 C-2.01 10.91 -2.04 10.21 -2.07 9.48 C-2.19 5.85 -2.25 2.98 0 0 Z " fill="#192334" transform="translate(40,24)"/>
<path d="M0 0 C0.39 0 0.39 0 2.36 0.02 C3.2 0.02 4.05 0.02 4.92 0.03 C5.81 0.03 6.7 0.04 7.61 0.05 C8.5 0.06 9.38 0.06 10.29 0.06 C11.94 0.07 13.58 0.08 15.22 0.1 C17.2 0.11 19.15 0.11 21.13 0.01 C30.35 -0.32 30.35 -0.32 34.17 3.11 C35.06 8.31 35.13 12.68 32.17 17.11 C31.86 19.38 31.86 19.38 31.76 22 C31.72 22.94 31.68 23.88 31.64 24.84 C31.61 25.82 31.58 26.79 31.55 27.8 C31.51 28.79 31.47 29.78 31.43 30.8 C31.34 33.23 31.25 35.67 31.17 38.11 C32.82 38.11 34.47 38.11 36.17 38.11 C36.11 37.33 36.05 36.55 35.99 35.74 C36.02 35.31 36.02 35.31 36.17 33.11 C39.46 30.93 40.4 30.92 44.17 31.11 C45.16 31.11 46.15 31.11 47.17 31.11 C48.65 31.22 50.13 31.34 51.61 31.49 C52.37 31.56 53.14 31.63 53.92 31.7 C56.32 32.14 58.02 32.99 60.17 34.11 C62.17 34.47 64.17 34.8 66.17 35.11 C67.96 36.9 67.33 39.59 67.35 42.01 C67.36 42.61 67.36 42.61 67.42 45.65 C67.46 48.2 67.5 50.75 67.52 53.3 C67.54 54.51 67.57 55.71 67.6 56.95 C67.61 58.06 67.63 59.17 67.64 60.31 C68.17 63.11 68.17 63.11 70.13 64.72 C70.81 65.18 71.48 65.64 72.17 66.11 C73 68.2 73 68.2 73.44 70.56 C73.52 70.94 73.52 70.94 73.9 72.88 C73.99 73.36 73.99 73.36 74.42 75.8 C74.71 77.34 74.71 77.34 76.17 85.11 C67.59 85.11 59.01 85.11 50.17 85.11 C49.84 83.79 49.51 82.47 49.17 81.11 C47.4 79.77 47.4 79.77 45.24 78.61 C41.97 76.86 40.58 75.58 39.17 72.11 C44.14 70.03 44.82 69.97 50.17 72.11 C50.17 59.9 50.17 47.69 50.17 35.11 C49.18 35.11 48.19 35.11 47.17 35.11 C47.17 36.43 47.17 37.75 47.17 39.11 C45.85 39.11 44.53 39.11 43.17 39.11 C43.17 37.79 43.17 36.47 43.17 35.11 C42.18 35.11 41.19 35.11 40.17 35.11 C40.17 37.09 40.17 39.07 40.17 41.11 C35.88 41.11 31.59 41.11 27.17 41.11 C27.17 48.37 27.17 55.63 27.17 63.11 C26.84 63.11 26.51 63.11 26.17 63.11 C26.01 60.97 26.01 60.97 25.17 50.11 C24.84 50.28 24.84 50.28 23.17 51.11 C23.17 39.56 23.17 28.01 23.17 16.11 C16.57 16.11 9.97 16.11 3.17 16.11 C3.17 15.12 3.17 14.13 3.17 13.11 C10.43 13.11 17.69 13.11 25.17 13.11 C25.17 9.81 25.17 6.51 25.17 3.11 C23.85 3.11 22.53 3.11 21.17 3.11 C21.17 4.43 21.17 5.75 21.17 7.11 C19.19 7.11 17.21 7.11 15.17 7.11 C15.17 5.79 15.17 4.47 15.17 3.11 C13.52 3.11 11.87 3.11 10.17 3.11 C10.17 4.43 10.17 5.75 10.17 7.11 C8.52 7.11 6.87 7.11 5.17 7.11 C5.17 5.79 5.17 4.47 5.17 3.11 C3.52 3.11 1.87 3.11 0.17 3.11 C0.19 3.46 0.19 3.46 0.28 5.23 C0.31 6.14 0.33 7.05 0.36 7.99 C0.4 8.89 0.43 9.8 0.47 10.73 C0.37 11.52 0.27 12.3 0.17 13.11 C-0.32 13.44 -0.32 13.44 -2.83 15.11 C-2.85 12.8 -2.87 10.49 -2.89 8.18 C-2.9 6.89 -2.91 5.6 -2.92 4.27 C-2.8 0.17 -2.8 0.17 0 0 Z " fill="#18283B" transform="translate(39.825927734375,20.886474609375)"/>
<path d="M0 0 C0.39 0 0.39 0 2.36 0.02 C3.2 0.02 4.05 0.02 4.92 0.03 C5.81 0.03 6.7 0.04 7.61 0.05 C8.5 0.06 9.38 0.06 10.29 0.06 C11.94 0.07 13.58 0.08 15.22 0.1 C17.2 0.11 19.15 0.11 21.13 0.01 C30.35 -0.32 30.35 -0.32 34.17 3.11 C35.06 8.31 35.13 12.68 32.17 17.11 C31.86 19.38 31.86 19.38 31.76 22 C31.72 22.94 31.68 23.88 31.64 24.84 C31.61 25.82 31.58 26.79 31.55 27.8 C31.51 28.79 31.47 29.78 31.43 30.8 C31.34 33.23 31.25 35.67 31.17 38.11 C32.82 38.11 34.47 38.11 36.17 38.11 C36.11 37.33 36.05 36.55 35.99 35.74 C36.02 35.31 36.02 35.31 36.17 33.11 C39.46 30.93 40.4 30.92 44.17 31.11 C45.16 31.11 46.15 31.11 47.17 31.11 C48.7 31.22 50.22 31.34 51.74 31.49 C52.52 31.56 53.31 31.63 54.12 31.7 C56.17 32.11 56.17 32.11 58.17 34.11 C57.35 34.28 57.35 34.28 53.17 35.11 C53.18 35.95 53.18 36.79 53.19 37.65 C53.21 40.79 53.22 43.93 53.23 47.06 C53.24 49.08 53.25 51.09 53.26 53.1 C53.28 59.54 53.2 65.76 52.17 72.11 C51.84 72.11 51.51 72.11 51.17 72.11 C51.18 71 51.18 69.88 51.19 68.73 C51.21 64.61 51.22 60.48 51.23 56.36 C51.23 54.57 51.24 52.78 51.25 51 C51.26 48.43 51.27 45.87 51.27 43.3 C51.28 42.5 51.28 41.7 51.29 40.87 C51.29 38.95 51.24 37.03 51.17 35.11 C50.84 34.78 50.51 34.45 50.17 34.11 C49.18 34.11 48.19 34.11 47.17 34.11 C47.17 35.76 47.17 37.41 47.17 39.11 C45.85 39.11 44.53 39.11 43.17 39.11 C43.17 37.79 43.17 36.47 43.17 35.11 C42.18 35.11 41.19 35.11 40.17 35.11 C40.17 37.09 40.17 39.07 40.17 41.11 C35.88 41.11 31.59 41.11 27.17 41.11 C27.17 48.37 27.17 55.63 27.17 63.11 C26.84 63.11 26.51 63.11 26.17 63.11 C26.01 60.97 26.01 60.97 25.17 50.11 C24.84 50.28 24.84 50.28 23.17 51.11 C23.17 39.56 23.17 28.01 23.17 16.11 C16.57 16.11 9.97 16.11 3.17 16.11 C3.17 15.12 3.17 14.13 3.17 13.11 C10.43 13.11 17.69 13.11 25.17 13.11 C25.17 9.81 25.17 6.51 25.17 3.11 C23.85 3.11 22.53 3.11 21.17 3.11 C21.17 4.43 21.17 5.75 21.17 7.11 C19.19 7.11 17.21 7.11 15.17 7.11 C15.17 5.79 15.17 4.47 15.17 3.11 C13.52 3.11 11.87 3.11 10.17 3.11 C10.17 4.43 10.17 5.75 10.17 7.11 C8.52 7.11 6.87 7.11 5.17 7.11 C5.17 5.79 5.17 4.47 5.17 3.11 C3.52 3.11 1.87 3.11 0.17 3.11 C0.19 3.46 0.19 3.46 0.28 5.23 C0.31 6.14 0.33 7.05 0.36 7.99 C0.4 8.89 0.43 9.8 0.47 10.73 C0.37 11.52 0.27 12.3 0.17 13.11 C-0.32 13.44 -0.32 13.44 -2.83 15.11 C-2.85 12.8 -2.87 10.49 -2.89 8.18 C-2.9 6.89 -2.91 5.6 -2.92 4.27 C-2.8 0.17 -2.8 0.17 0 0 Z " fill="#0B192D" transform="translate(39.825927734375,20.886474609375)"/>
<path d="M0 0 C0.99 0 1.98 0 3 0 C3 1.32 3 2.64 3 4 C4.32 4 5.64 4 7 4 C7 2.68 7 1.36 7 0 C7.99 0 8.98 0 10 0 C10 12.21 10 24.42 10 37 C5 36 5 36 2 34 C1.36 33.94 1.36 33.94 -1.88 33.62 C-5.95 33.22 -7.99 31.83 -11 29 C-11.66 28.67 -12.32 28.34 -13 28 C-13.23 25.87 -13.23 25.87 -13.2 23.09 C-13.19 22.1 -13.18 21.11 -13.18 20.09 C-13.16 19.05 -13.14 18.01 -13.12 16.94 C-13.12 15.89 -13.11 14.85 -13.1 13.77 C-13.07 11.18 -13.04 8.59 -13 6 C-8.71 6 -4.42 6 0 6 C0 4.02 0 2.04 0 0 Z " fill="#E4E3D6" transform="translate(80,56)"/>
<path d="M0 0 C6.6 0 13.2 0 20 0 C20 11.22 20 22.44 20 34 C17.36 34 14.72 34 12 34 C11.67 32.35 11.34 30.7 11 29 C10.34 29 9.68 29 9 29 C8.67 30.65 8.34 32.3 8 34 C5.36 34 2.72 34 0 34 C0 22.78 0 11.56 0 0 Z " fill="#FAF8E8" transform="translate(43,37)"/>
<path d="M0 0 C0.99 0 1.98 0 3 0 C3 1.32 3 2.64 3 4 C3.99 4 4.98 4 6 4 C6 2.68 6 1.36 6 0 C6.66 0 7.32 0 8 0 C8 1.32 8 2.64 8 4 C8.99 4 9.98 4 11 4 C11 2.68 11 1.36 11 0 C11.66 0 12.32 0 13 0 C13 2.97 13 5.94 13 9 C16.96 9 20.92 9 25 9 C25.46 14.01 25.76 17.76 22.81 22 C18.89 26.08 14.13 25.97 8.73 26.22 C7.83 26.15 6.93 26.08 6 26 C5.67 25.34 5.34 24.68 5 24 C3.35 23.67 1.7 23.34 0 23 C0 15.41 0 7.82 0 0 Z " fill="#EBE9DB" transform="translate(26,65)"/>
<path d="M0 0 C0.33 0.66 0.66 1.32 1 2 C5.48 3.26 5.48 3.26 8 2 C8.33 3.98 8.66 5.96 9 8 C9.56 7.67 10.11 7.34 10.69 7 C13.3 5.87 15.18 5.84 18 6 C16.93 8.92 16.22 10.78 14 13 C13.7 13.04 13.7 13.04 12.19 13.25 C10 14 10 14 7.91 17.02 C6.32 19 5.49 19.88 3 20.49 C0.7 20.59 -1.52 20.52 -3.81 20.38 C-4.21 20.36 -4.21 20.36 -6.2 20.29 C-8.14 20.22 -10.07 20.12 -12 20 C-11.08 17.63 -10.08 15.3 -9 13 C-8.13 12.69 -7.27 12.38 -6.38 12.06 C-5.59 11.71 -4.81 11.36 -4 11 C-3.38 7.06 -3.38 7.06 -3.25 4.91 C-3 3 -3 3 -1.44 1 C-0.96 0.67 -0.49 0.34 0 0 Z " fill="#212E3E" transform="translate(24,87)"/>
<path d="M0 0 C0.66 0 1.32 0 2 0 C2.1 0.64 2.21 1.28 2.31 1.94 C2.54 2.62 2.77 3.3 3 4 C3.99 4.33 4.98 4.66 6 5 C6 3.68 6 2.36 6 1 C6.99 1.33 7.98 1.66 9 2 C9 11.57 9 21.14 9 31 C9.99 31.33 10.98 31.66 12 32 C13.19 35.06 13.19 35.06 14 38 C8.62 35.43 3.8 32.68 0 28 C-1.21 23.11 -0.96 18.5 -0.62 13.5 C-0.58 12.2 -0.53 10.9 -0.49 9.56 C-0.37 6.37 -0.21 3.19 0 0 Z " fill="#656E73" transform="translate(94,57)"/>
<path d="M0 0 C1.65 0 3.3 0 5 0 C5 1.32 5 2.64 5 4 C6.65 4 8.3 4 10 4 C10 2.68 10 1.36 10 0 C11.65 0 13.3 0 15 0 C15 1.32 15 2.64 15 4 C16.98 4 18.96 4 21 4 C21 2.68 21 1.36 21 0 C22.32 0 23.64 0 25 0 C25 3.3 25 6.6 25 10 C16.75 10 8.5 10 0 10 C0 6.7 0 3.4 0 0 Z " fill="#E2E2D8" transform="translate(40,24)"/>
<path d="M0 0 C3 1 3 1 4.38 3.12 C5.28 7.28 4.11 9.39 2 13 C-0.31 14.06 -0.31 14.06 -3 15 C-3.92 16.02 -4.82 17.06 -5.69 18.12 C-7.71 20.31 -8.62 20.94 -11.61 21.39 C-14.1 21.38 -16.52 21.26 -19 21 C-16.9 18.09 -15.21 16.13 -12.12 14.25 C-8.49 11.63 -6.71 8.9 -4.39 5.12 C-3.06 3.09 -1.93 1.48 0 0 Z " fill="#F0EEDF" transform="translate(52,86)"/>
<path d="M0 0 C2.03 0.05 2.03 0.05 4.5 0.31 C5.31 0.39 6.13 0.47 6.97 0.55 C7.3 0.62 7.3 0.62 9 1 C9.33 1.66 9.66 2.32 10 3 C7.36 3 4.72 3 2 3 C2 10.92 2 18.84 2 27 C3.65 27 5.3 27 7 27 C6.34 28.32 5.68 29.64 5 31 C5 30.34 5 29.68 5 29 C4.2 29.02 3.39 29.04 2.56 29.06 C0 29 0 29 -1 28 C-2 30 -2 30 -2.25 33.5 C-2.5 34.66 -2.75 35.81 -3 37 C-5.55 38.22 -5.55 38.22 -8 39 C-7.58 37.23 -7.13 35.46 -6.69 33.69 C-6.44 32.7 -6.2 31.72 -5.95 30.7 C-5 28 -5 28 -3.47 26.68 C-1.4 24.31 -1.59 22.6 -1.52 19.49 C-1.51 18.96 -1.51 18.96 -1.43 16.25 C-1.41 15.14 -1.39 14.02 -1.38 12.88 C-1.32 10.66 -1.27 8.45 -1.21 6.24 C-1.19 5.26 -1.18 4.28 -1.16 3.27 C-1 1 -1 1 0 0 Z " fill="#050F20" transform="translate(24,61)"/>
<path d="M0 0 C0.66 0 1.32 0 2 0 C2.1 0.64 2.21 1.28 2.31 1.94 C2.54 2.62 2.77 3.3 3 4 C3.99 4.33 4.98 4.66 6 5 C6 3.68 6 2.36 6 1 C6.99 1.33 7.98 1.66 9 2 C9 11.57 9 21.14 9 31 C8.67 31 8.34 31 8 31 C8 26.38 8 21.76 8 17 C7.34 17 6.68 17 6 17 C5.88 16.2 5.75 15.39 5.62 14.56 C5.42 13.72 5.21 12.87 5 12 C4.34 11.67 3.68 11.34 3 11 C2.34 16.28 1.68 21.56 1 27 C0.67 27 0.34 27 0 27 C0 18.09 0 9.18 0 0 Z " fill="#7B8183" transform="translate(94,57)"/>
<path d="M0 0 C0.85 0.04 1.69 0.08 2.56 0.12 C3.55 0.12 4.54 0.12 5.56 0.12 C7.08 0.23 8.61 0.35 10.12 0.5 C10.52 0.53 10.52 0.53 12.5 0.71 C14.56 1.12 14.56 1.12 16.56 3.12 C14.91 3.45 13.26 3.78 11.56 4.12 C11.57 4.54 11.57 4.54 11.58 6.66 C11.6 9.8 11.61 12.94 11.62 16.08 C11.62 18.09 11.64 20.1 11.65 22.11 C11.67 28.55 11.59 34.77 10.56 41.12 C10.23 41.12 9.9 41.12 9.56 41.12 C9.57 40.01 9.57 38.89 9.58 37.74 C9.6 33.62 9.61 29.5 9.62 25.37 C9.62 23.58 9.63 21.8 9.64 20.01 C9.65 17.44 9.66 14.88 9.66 12.32 C9.67 11.51 9.67 10.71 9.68 9.88 C9.68 7.96 9.62 6.04 9.56 4.12 C9.23 3.8 8.9 3.47 8.56 3.12 C7.57 3.12 6.58 3.12 5.56 3.12 C5.56 4.77 5.56 6.42 5.56 8.12 C4.24 8.12 2.92 8.12 1.56 8.12 C1.56 6.48 1.56 4.83 1.56 3.12 C0.57 2.96 0.57 2.96 -4.44 2.12 C-2.44 0.12 -2.44 0.12 0 0 Z " fill="#030D1F" transform="translate(81.4375,51.875)"/>
<path d="M0 0 C-1.07 2.92 -1.78 4.78 -4 7 C-4.6 7.08 -5.2 7.17 -5.81 7.25 C-8 8 -8 8 -10.06 11.06 C-11.91 13.51 -12.67 13.95 -15.77 14.39 C-18.53 14.38 -21.25 14.26 -24 14 C-21.78 11.52 -20.03 10.01 -17 8.56 C-13.65 6.82 -12.32 4.92 -10 2 C-6.57 0.15 -3.86 -0.22 0 0 Z " fill="#E2E2D4" transform="translate(42,93)"/>
<path d="M0 0 C3.14 0 4.4 0.35 7 2 C8 5 8 5 6.44 8.19 C4.21 10.78 3.02 11 -0.45 11.39 C-3.99 11.38 -7.48 11.26 -11 11 C-5.91 4.3 -5.91 4.3 -2.12 3.06 C-1.42 3.04 -0.72 3.02 0 3 C0 2.01 0 1.02 0 0 Z " fill="#6B6F71" transform="translate(54,96)"/>
<path d="M0 0 C1.32 0 2.64 0 4 0 C4.33 9.24 4.66 18.48 5 28 C4.34 28 3.68 28 3 28 C2.34 28.99 1.68 29.98 1 31 C0.67 20.77 0.34 10.54 0 0 Z " fill="#000C24" transform="translate(103,57)"/>
<path d="M0 0 C1.91 0.23 1.91 0.23 3.91 2.23 C3.58 2.4 3.58 2.4 1.91 3.23 C1.68 6.1 1.68 6.1 1.71 9.89 C1.72 10.56 1.72 11.22 1.72 11.9 C1.73 14.03 1.76 16.16 1.79 18.29 C1.8 19.73 1.8 21.17 1.81 22.62 C1.83 26.15 1.87 29.69 1.91 33.23 C1.58 33.23 1.25 33.23 0.91 33.23 C0.89 32.36 0.87 31.48 0.85 30.58 C0.77 27.35 0.69 24.12 0.59 20.9 C0.55 19.5 0.52 18.1 0.49 16.7 C0.44 14.69 0.38 12.68 0.32 10.67 C0.29 9.46 0.26 8.25 0.23 7.01 C0.12 6.09 0.02 5.17 -0.09 4.23 C-0.75 3.9 -1.41 3.57 -2.09 3.23 C-2.09 4.55 -2.09 5.87 -2.09 7.23 C-4.03 7.04 -4.03 7.04 -6.09 6.23 C-6.9 3.73 -6.9 3.73 -7.09 1.23 C-5.19 -0.66 -2.52 0.05 0 0 Z " fill="#121C2D" transform="translate(102.08984375,54.76953125)"/>
<path d="M0 0 C1.65 0.33 3.3 0.66 5 1 C5 4.63 5 8.26 5 12 C3.02 12 1.04 12 -1 12 C-1.03 10.19 -1.05 8.38 -1.06 6.56 C-1.07 5.55 -1.09 4.54 -1.1 3.5 C-1 1 -1 1 0 0 Z " fill="#232C3B" transform="translate(51,43)"/>
<path d="M0 0 C8.4 1.99 12.03 7.22 17 14 C16.67 14.16 16.67 14.16 15 15 C9.73 12.34 5.67 9.33 3 4 C2.01 3.34 1.02 2.68 0 2 C0 1.34 0 0.68 0 0 Z " fill="#7B7E81" transform="translate(60,86)"/>
<path d="M0 0 C0.33 0 0.66 0 1 0 C1.33 11.22 1.66 22.44 2 34 C4.64 34.33 7.28 34.66 10 35 C10 35.33 10 35.66 10 36 C6.37 36 2.74 36 -1 36 C-0.67 24.12 -0.34 12.24 0 0 Z " fill="#01061A" transform="translate(41,37)"/>
<path d="M0 0 C0.33 0 0.66 0 1 0 C1.19 1.48 1.38 2.96 1.56 4.44 C1.67 5.26 1.77 6.08 1.88 6.93 C1.92 7.62 1.96 8.3 2 9 C1.67 9.33 1.34 9.66 1 10 C1.66 10.66 2.32 11.32 3 12 C1.5 13.24 0.01 14.47 -1.49 15.71 C-2.71 16.75 -3.87 17.87 -5 19 C-5.66 19 -6.32 19 -7 19 C-7 18.34 -7 17.68 -7 17 C-7.66 16.67 -8.32 16.34 -9 16 C-8.01 16 -7.02 16 -6 16 C-5 14.19 -5 14.19 -4 12 C-3.5 11.56 -3 11.11 -2.48 10.66 C-0.58 8.53 -0.52 7.13 -0.31 4.31 C-0.25 3.5 -0.18 2.7 -0.11 1.86 C-0.08 1.25 -0.04 0.63 0 0 Z " fill="#222936" transform="translate(51,74)"/>
<path d="M0 0 C0.4 -0.01 0.4 -0.01 2.43 -0.04 C4.56 0.19 4.56 0.19 6.56 2.19 C5.57 2.19 4.58 2.19 3.56 2.19 C3.23 2.52 2.9 2.85 2.56 3.19 C0.9 3.23 -0.77 3.23 -2.44 3.19 C-2.42 3.54 -2.42 3.54 -2.33 5.3 C-2.3 6.21 -2.28 7.12 -2.25 8.06 C-2.22 8.97 -2.18 9.87 -2.14 10.8 C-2.24 11.59 -2.34 12.38 -2.44 13.19 C-2.93 13.52 -2.93 13.52 -5.44 15.19 C-5.46 12.88 -5.48 10.56 -5.5 8.25 C-5.51 6.96 -5.52 5.67 -5.54 4.35 C-5.39 -0.39 -4.32 0.03 0 0 Z " fill="#020B1B" transform="translate(42.4375,20.8125)"/>
<path d="M0 0 C-0.33 0.33 -0.66 0.66 -1 1 C-1.16 3.74 -1.26 6.45 -1.32 9.19 C-1.34 10.01 -1.36 10.83 -1.38 11.68 C-1.44 14.3 -1.5 16.93 -1.56 19.56 C-1.61 21.34 -1.65 23.12 -1.69 24.9 C-1.8 29.26 -1.9 33.63 -2 38 C-2.33 38 -2.66 38 -3 38 C-3 25.79 -3 13.58 -3 1 C-3.99 0.67 -4.98 0.34 -6 0 C-3 -1 -3 -1 0 0 Z " fill="#484C51" transform="translate(93,55)"/>
</svg>
