<svg xmlns="http://www.w3.org/2000/svg" width="128" height="128" viewBox="0 0 128 128"><path fill="#04162c" d="M46 13h3v4h4v3l-4 1c2.45 7.54 6.4 13.31 10.97 19.73l1.61 2.32 1.48 2.08L64 47l-1 3h-2v13l3.49-.05c4.28 0 8.45.35 12.7.86l2.07.22c6.27.75 10.06 2.78 14.05 7.59 3.28 3.92 6.7 7.67 10.19 11.4C105 85 105 85 105 88l-2 1c-.31 2.88-.51 5.67-.62 8.56l-.12 2.45q-.14 2.99-.26 5.99l1.81-.56C106 105 106 105 109 106a31 31 0 0 1 4 6l-1 3H15v-4h2l.88-1.94L19 107l4-1V88h-2c.18-1.77.18-1.77 1-4q2.5-1.9 5.06-3.75c4.15-3.91 5.25-6.39 5.64-12.1.24-14.71.24-14.71-1.3-20.34-.4-1.81-.4-1.81.79-4L34 41.44a222 222 0 0 0 9.62-13.99A19 19 0 0 0 46 21l-5-1 1-3h4z"/><path fill="#f4f2e2" d="M46.86 69.23c2.55.91 4.12 2.14 6.18 3.9L55.3 75l2.32 2 4.6 3.86 2.05 1.74A14 14 0 0 0 68 85c.23 2.5.23 2.5.2 5.77l-.03 3.55q-.01 1.84-.05 3.73l-.02 3.74L68 111H53l-.08-3.4-.17-4.42-.04-2.23c-.25-5.47-.25-5.47-2.6-7.94-2.63-1.26-4.23-1.46-7.1-1-1.62 1-1.62 1-3 3-.39 2.78-.6 5.37-.7 8.17l-.1 2.27q-.13 2.78-.2 5.55H28c-2.1-24.05-2.1-24.05 2.74-30.52 3.1-3.3 6.52-5.92 10.25-8.48l2.17-1.88C45 69 45 69 46.87 69.23"/><path fill="#111e32" d="M46 13h3v4h4v3l-4 1c2.14 6.58 5.24 11.73 9.19 17.38q1.65 2.37 3.29 4.77l1.47 2.1C64 47 64 47 64 49l-5 1-1 14-7-1a76 76 0 0 0 11.13 11.32A42 42 0 0 1 68 81a31 31 0 0 1-7.97-5.33l-2.23-1.92-4.6-4.05-2.23-1.9-2.02-1.77C47 65 47 65 45.13 65.51 42.29 67.5 39.66 69.78 37 72V49h3v-3l-6-1c2-2 2-2 5-3 2.03-3.05 2.24-3.91 2.44-7.38.35-3.95 1.29-6.31 3.56-9.62.69-2.31.69-2.31 1-4l-5-1 1-3h4z"/><path fill="#041121" d="M41 31c1.02 3.07 1.38 4.81 1 8-1.81 2.81-1.81 2.81-4 5h-3l2.5.81L40 46v3h-3l1 22 3-2 1 3a156 156 0 0 1-4.49 3.57c-4.51 3.57-7.91 6.82-9.23 12.58-.81 7.62-.63 15.21-.28 22.85h11l-.14-3.36-.11-4.39-.1-2.21c-.07-3.59.03-5.61 2.2-8.53 2.61-1.83 4.02-2.02 7.15-1.51l1 2h-4v2h2c1.51 3.02 1.18 6.13 1.19 9.44l.03 2.06c.02 3.73-.1 5.32-2.22 8.5-3.07.34-3.07.34-6.98.29l-2.07-.01-6.57-.09-4.46-.04L15 115v-4h2l.88-1.94L19 107l4-1V88h-2c.18-1.77.18-1.77 1-4q2.5-1.9 5.06-3.75c4.15-3.91 5.25-6.39 5.64-12.1.24-14.78.24-14.78-1.31-20.33C31 46 31 46 32.33 43.6l1.92-2.54C36.7 37.79 38.95 34.54 41 31"/><path fill="#a9aaa6" d="m72 87 7.38-.06 2.25-.03c5.59-.02 10.72.52 16.37 1.09v23H72z"/><path fill="#f5f3e6" d="M57 49v14h-6a76 76 0 0 0 11.13 11.32A42 42 0 0 1 68 81a31 31 0 0 1-7.97-5.33l-2.23-1.92-4.6-4.05-2.23-1.9-2.02-1.77C47 65 47 65 45.13 65.51 42.29 67.5 39.66 69.78 37 72V49c7.5-1.53 12.74-2.51 20 0"/><path fill="#121d2c" d="m48 91 1 2h-4v2h2c1.51 3.02 1.18 6.13 1.19 9.44l.03 2.06c.02 3.73-.1 5.32-2.22 8.5-3.07.34-3.07.34-6.98.29l-2.07-.01-6.57-.09-4.46-.04L15 115v-4l2 1-1 2h12v-3h11l-.14-3.36-.11-4.39-.1-2.21c-.07-3.59.03-5.61 2.2-8.53 2.61-1.83 4.02-2.02 7.15-1.51"/><path fill="#1b2235" d="M45 64c3.61 1.58 6.36 3.8 9.38 6.31l2.93 2.43q2.32 1.94 4.6 3.93C64.51 78.94 66.5 80.6 70 81v2c-1.6 1.45-1.6 1.45-4 2a52 52 0 0 1-6.44-5.12l-3.37-3.01-1.63-1.48A85 85 0 0 0 48 70c-2.12.25-2.12.25-4 1h-3c.56-3.27 1.5-4.83 4-7"/><path fill="#e7e6dc" d="M37 49h7l2 2-1.94.5C42 53 42 53 41.51 54.91A114 114 0 0 0 41 61h5l-2 2v3l-7 6z"/><path fill="#19293c" d="M74.63 85.88 78 86v1h-6v25h18v2H67q.46-.98 1-2 .17-2.69.23-5.37.06-1.6.1-3.23.1-3.4.17-6.8l.11-3.22.07-2.98c.53-4.17 1.88-4.39 5.94-4.53"/><path fill="#102033" d="M27 86h1v28H16c1.88-5.88 1.88-5.88 3-7q3-.06 6 0v-7h1z"/><path fill="#ecede3" d="M46 30c2.86 2.86 2.8 5.79 3.44 9.69C50 42 50 42 52 44a80 80 0 0 1-15 1l3.38-5.81 1.89-3.27Q44.06 32.91 46 30"/><path fill="#808283" d="m51 48 6 1v14h-6z"/><path fill="#010d20" d="M46 13h3v4h4v3l-1.94.25L49 21q-.53 2-1 4c-2.06 1.75-2.06 1.75-4 3l2-7-5-1 1-3h4z"/><path fill="#939595" d="m47 95-1 16h-4q-.12-2.87-.19-5.75l-.1-3.23C42.05 98.47 42.94 95 47 95"/><path fill="#071426" d="m78 92 4 1v11h-5q-.04-2.71-.06-5.44l-.04-3.06C77 93 77 93 78 92"/><path fill="#272f3a" d="M43 51c2 .5 2 .5 4 2 .38 2.75.18 5.21 0 8h-6c-.2-6.05-.2-6.05 0-8z"/><path fill="#fbf9ed" d="M38 49h6l2 2-1.94.5C42 53 42 53 41.62 54.88l-.18 2.18L41 61l-3 1z"/><path fill="#060e1f" d="M41 31c1.02 3.07 1.38 4.81 1 8-1.98 3.23-3.08 4.73-6.75 5.81L33 45c1.54-3.2 3.29-6.22 5.12-9.25l1.64-2.7z"/><path fill="#051226" d="m90 92 3 1v11h-4q-.05-2.71-.06-5.44l-.04-3.06C89 93 89 93 90 92"/><path fill="#9fa09b" d="m48 38 .88 1.88C50 42 50 42 52 44a80 80 0 0 1-15 1c1.56-2.56 1.56-2.56 4-5 3.75.19 3.75.19 7 1z"/><path fill="#a5a5a2" d="M51 65c6.33 4.39 11.67 9.45 17 15-4.34 0-6.45-2.64-9.56-5.38l-1.79-1.53A128 128 0 0 1 50 67z"/><path fill="#020f1b" d="m15 111 2 1-1 2h12v-3h5l-1 2 10 1v1H15z"/><path fill="#18212d" d="M44 77h4v8l-5-1z"/></svg>