<?xml version="1.0" encoding="UTF-8"?>
<!-- Generator: visioncortex VTracer 0.6.12 -->
<svg version="1.1" xmlns="http://www.w3.org/2000/svg" width="128" height="128" viewBox="0 0 128 128" preserveAspectRatio="xMidYMid meet">
<path d="M0 0 C0.99 0 1.98 0 3 0 C3 1.32 3 2.64 3 4 C4.32 4 5.64 4 7 4 C7 4.99 7 5.98 7 7 C5.68 7.33 4.36 7.66 3 8 C5.45 15.54 9.4 21.31 13.97 27.73 C14.5 28.49 15.03 29.26 15.58 30.05 C16.07 30.74 16.56 31.43 17.06 32.13 C17.37 32.75 17.68 33.37 18 34 C17.67 34.99 17.34 35.98 17 37 C16.34 37 15.68 37 15 37 C15 41.29 15 45.58 15 50 C16.15 49.98 17.3 49.97 18.49 49.95 C22.77 49.95 26.94 50.3 31.19 50.81 C31.87 50.88 32.56 50.95 33.26 51.03 C39.53 51.78 43.32 53.81 47.31 58.62 C50.59 62.54 54.01 66.29 57.5 70.02 C59 72 59 72 59 75 C58.67 75.16 58.67 75.16 57 76 C56.69 78.88 56.49 81.67 56.38 84.56 C56.34 85.37 56.3 86.18 56.26 87.01 C56.16 89 56.08 91 56 93 C56.6 92.81 57.2 92.63 57.81 92.44 C60 92 60 92 63 93 C65.25 95.87 65.25 95.87 67 99 C66.84 99.5 66.84 99.5 66 102 C33.99 102 1.98 102 -31 102 C-31 100.68 -31 99.36 -31 98 C-30.34 98 -29.68 98 -29 98 C-28.71 97.36 -28.42 96.72 -28.12 96.06 C-27.75 95.38 -27.38 94.7 -27 94 C-26.34 93.84 -26.34 93.84 -23 93 C-23 87.06 -23 81.12 -23 75 C-23.66 75 -24.32 75 -25 75 C-24.82 73.23 -24.82 73.23 -24 71 C-22.33 69.73 -20.64 68.48 -18.94 67.25 C-14.79 63.34 -13.69 60.86 -13.3 55.15 C-13.06 40.44 -13.06 40.44 -14.6 34.81 C-15 33 -15 33 -13.81 30.81 C-13.21 30.03 -12.62 29.24 -12 28.44 C-9.26 24.73 -6.63 21 -4.12 17.12 C-3.55 16.24 -2.98 15.36 -2.38 14.45 C-1.13 12.24 -0.45 10.48 0 8 C-0.83 7.84 -0.83 7.84 -5 7 C-4.67 6.01 -4.34 5.02 -4 4 C-2.68 4 -1.36 4 0 4 C0 2.68 0 1.36 0 0 Z " fill="#04162C" transform="translate(46,13)"/>
<path d="M0 0 C2.55 0.91 4.12 2.14 6.18 3.89 C6.55 4.2 6.55 4.2 8.44 5.78 C9.2 6.44 9.97 7.09 10.76 7.77 C12.3 9.06 13.83 10.35 15.36 11.64 C16.04 12.22 16.72 12.79 17.41 13.38 C19.14 14.77 19.14 14.77 21.14 15.77 C21.37 18.27 21.37 18.27 21.33 21.55 C21.33 22.72 21.32 23.89 21.31 25.1 C21.3 26.33 21.28 27.56 21.26 28.83 C21.25 30.06 21.25 31.3 21.24 32.57 C21.21 35.64 21.18 38.7 21.14 41.77 C16.19 41.77 11.24 41.77 6.14 41.77 C6.11 40.65 6.09 39.52 6.06 38.37 C6 36.9 5.95 35.43 5.89 33.95 C5.87 33.21 5.86 32.48 5.85 31.72 C5.6 26.25 5.6 26.25 3.25 23.78 C0.62 22.52 -0.98 22.32 -3.86 22.77 C-5.47 23.78 -5.47 23.78 -6.86 25.77 C-7.24 28.56 -7.46 31.15 -7.55 33.95 C-7.58 34.7 -7.62 35.45 -7.65 36.22 C-7.74 38.07 -7.8 39.92 -7.86 41.77 C-11.49 41.77 -15.12 41.77 -18.86 41.77 C-20.96 17.72 -20.96 17.72 -16.11 11.25 C-13.01 7.94 -9.59 5.33 -5.86 2.77 C-5.5 2.46 -5.5 2.46 -3.69 0.89 C-1.86 -0.23 -1.86 -0.23 0 0 Z " fill="#F4F2E2" transform="translate(46.86181640625,69.234619140625)"/>
<path d="M0 0 C0.99 0 1.98 0 3 0 C3 1.32 3 2.64 3 4 C4.32 4 5.64 4 7 4 C7 4.99 7 5.98 7 7 C5.68 7.33 4.36 7.66 3 8 C5.14 14.58 8.24 19.73 12.19 25.38 C13.29 26.96 14.39 28.55 15.48 30.15 C15.96 30.84 16.45 31.53 16.95 32.25 C18 34 18 34 18 36 C17.17 36.16 17.17 36.16 13 37 C12.67 41.62 12.34 46.24 12 51 C10.84 50.84 10.84 50.84 5 50 C8.36 54.31 11.97 57.78 16.13 61.32 C18.38 63.34 20.22 65.55 22 68 C18.9 66.6 16.58 64.92 14.03 62.67 C13.3 62.04 12.56 61.4 11.8 60.75 C10.26 59.41 8.73 58.06 7.2 56.7 C6.46 56.07 5.73 55.44 4.97 54.8 C4.3 54.21 3.64 53.63 2.95 53.03 C1 52 1 52 -0.87 52.51 C-3.71 54.5 -6.34 56.78 -9 59 C-9 51.41 -9 43.82 -9 36 C-8.01 36 -7.02 36 -6 36 C-6 35.01 -6 34.02 -6 33 C-7.98 32.67 -9.96 32.34 -12 32 C-10 30 -10 30 -7 29 C-4.97 25.95 -4.76 25.09 -4.56 21.62 C-4.21 17.67 -3.27 15.31 -1 12 C-0.31 9.69 -0.31 9.69 0 8 C-1.65 7.67 -3.3 7.34 -5 7 C-4.67 6.01 -4.34 5.02 -4 4 C-2.68 4 -1.36 4 0 4 C0 2.68 0 1.36 0 0 Z " fill="#111E32" transform="translate(46,13)"/>
<path d="M0 0 C1.02 3.07 1.38 4.81 1 8 C-0.81 10.81 -0.81 10.81 -3 13 C-3.99 13 -4.98 13 -6 13 C-5.17 13.27 -4.35 13.54 -3.5 13.81 C-2.67 14.2 -1.85 14.6 -1 15 C-1 15.99 -1 16.98 -1 18 C-1.99 18 -2.98 18 -4 18 C-3.67 25.26 -3.34 32.52 -3 40 C-2.01 39.34 -1.02 38.68 0 38 C0.33 38.99 0.66 39.98 1 41 C-0.48 42.21 -1.96 43.41 -3.49 44.57 C-8 48.14 -11.4 51.39 -12.72 57.15 C-13.53 64.77 -13.35 72.36 -13 80 C-9.37 80 -5.74 80 -2 80 C-2.05 78.89 -2.09 77.78 -2.14 76.64 C-2.18 75.18 -2.21 73.71 -2.25 72.25 C-2.28 71.52 -2.32 70.79 -2.35 70.04 C-2.42 66.45 -2.32 64.43 -0.15 61.51 C2.46 59.68 3.87 59.49 7 60 C7.33 60.66 7.66 61.32 8 62 C6.68 62 5.36 62 4 62 C4 62.66 4 63.32 4 64 C4.66 64 5.32 64 6 64 C7.51 67.02 7.18 70.13 7.19 73.44 C7.2 74.12 7.21 74.8 7.22 75.5 C7.24 79.23 7.12 80.82 5 84 C1.93 84.34 1.93 84.34 -1.98 84.29 C-2.32 84.29 -2.32 84.29 -4.05 84.28 C-6.24 84.26 -8.43 84.23 -10.62 84.19 C-12.11 84.17 -13.59 84.16 -15.08 84.15 C-18.72 84.11 -22.36 84.06 -26 84 C-26 82.68 -26 81.36 -26 80 C-25.34 80 -24.68 80 -24 80 C-23.71 79.36 -23.42 78.72 -23.12 78.06 C-22.75 77.38 -22.38 76.7 -22 76 C-21.34 75.84 -21.34 75.84 -18 75 C-18 69.06 -18 63.12 -18 57 C-18.66 57 -19.32 57 -20 57 C-19.82 55.23 -19.82 55.23 -19 53 C-17.33 51.73 -15.64 50.48 -13.94 49.25 C-9.79 45.34 -8.69 42.86 -8.3 37.15 C-8.06 22.37 -8.06 22.37 -9.61 16.82 C-10 15 -10 15 -8.67 12.6 C-8.04 11.76 -7.4 10.92 -6.75 10.06 C-4.3 6.79 -2.05 3.54 0 0 Z " fill="#041121" transform="translate(41,31)"/>
<path d="M0 0 C2.43 -0.02 4.87 -0.04 7.38 -0.06 C7.75 -0.07 7.75 -0.07 9.63 -0.09 C15.22 -0.11 20.35 0.43 26 1 C26 8.59 26 16.18 26 24 C17.42 24 8.84 24 0 24 C0 16.08 0 8.16 0 0 Z " fill="#A9AAA6" transform="translate(72,87)"/>
<path d="M0 0 C0 4.62 0 9.24 0 14 C-1.98 14 -3.96 14 -6 14 C-2.64 18.31 0.97 21.78 5.13 25.32 C7.38 27.34 9.22 29.55 11 32 C7.9 30.6 5.58 28.92 3.03 26.67 C2.3 26.04 1.56 25.4 0.8 24.75 C-0.74 23.41 -2.27 22.06 -3.8 20.7 C-4.17 20.39 -4.17 20.39 -6.03 18.8 C-6.7 18.21 -7.36 17.63 -8.05 17.03 C-10 16 -10 16 -11.87 16.51 C-14.71 18.5 -17.34 20.78 -20 23 C-20 15.41 -20 7.82 -20 0 C-12.5 -1.53 -7.26 -2.51 0 0 Z " fill="#F5F3E6" transform="translate(57,49)"/>
<path d="M0 0 C0.16 0.33 0.16 0.33 1 2 C-0.32 2 -1.64 2 -3 2 C-3 2.66 -3 3.32 -3 4 C-2.34 4 -1.68 4 -1 4 C0.51 7.02 0.18 10.13 0.19 13.44 C0.2 14.12 0.21 14.8 0.22 15.5 C0.24 19.23 0.12 20.82 -2 24 C-5.07 24.34 -5.07 24.34 -8.98 24.29 C-9.66 24.29 -10.35 24.28 -11.05 24.28 C-13.24 24.26 -15.43 24.23 -17.62 24.19 C-19.11 24.17 -20.59 24.16 -22.08 24.15 C-25.72 24.11 -29.36 24.06 -33 24 C-33 22.68 -33 21.36 -33 20 C-32.34 20.33 -31.68 20.66 -31 21 C-31.33 21.66 -31.66 22.32 -32 23 C-28.04 23 -24.08 23 -20 23 C-20 22.01 -20 21.02 -20 20 C-16.37 20 -12.74 20 -9 20 C-9.05 18.89 -9.09 17.78 -9.14 16.64 C-9.18 15.18 -9.21 13.71 -9.25 12.25 C-9.28 11.52 -9.32 10.79 -9.35 10.04 C-9.42 6.45 -9.32 4.43 -7.15 1.51 C-4.54 -0.32 -3.13 -0.51 0 0 Z " fill="#121D2C" transform="translate(48,91)"/>
<path d="M0 0 C3.61 1.58 6.36 3.8 9.38 6.31 C9.86 6.71 9.86 6.71 12.31 8.74 C13.85 10.04 15.39 11.34 16.91 12.67 C19.51 14.94 21.5 16.6 25 17 C25 17.66 25 18.32 25 19 C23.4 20.45 23.4 20.45 21 21 C18.6 19.38 16.67 17.83 14.56 15.88 C13.44 14.87 12.32 13.87 11.19 12.87 C10.65 12.38 10.11 11.9 9.56 11.39 C7.44 9.49 5.3 7.68 3 6 C0.88 6.25 0.88 6.25 -1 7 C-1.99 7 -2.98 7 -4 7 C-3.44 3.73 -2.5 2.17 0 0 Z " fill="#1B2235" transform="translate(45,64)"/>
<path d="M0 0 C2.31 0 4.62 0 7 0 C7.66 0.66 8.32 1.32 9 2 C8.36 2.16 7.72 2.33 7.06 2.5 C5 4 5 4 4.51 5.91 C4.27 7.94 4.13 9.97 4 12 C5.65 12 7.3 12 9 12 C8.34 12.66 7.68 13.32 7 14 C7 14.99 7 15.98 7 17 C4.69 18.98 2.38 20.96 0 23 C0 15.41 0 7.82 0 0 Z " fill="#E7E6DC" transform="translate(37,49)"/>
<path d="M0 0 C0.56 0.02 0.56 0.02 3.38 0.12 C3.38 0.45 3.38 0.78 3.38 1.12 C1.39 1.12 -0.58 1.12 -2.62 1.12 C-2.62 9.38 -2.62 17.62 -2.62 26.12 C3.31 26.12 9.25 26.12 15.38 26.12 C15.38 26.78 15.38 27.44 15.38 28.12 C7.78 28.12 0.19 28.12 -7.62 28.12 C-7.3 27.47 -6.97 26.81 -6.62 26.12 C-6.5 24.34 -6.42 22.54 -6.38 20.75 C-6.35 19.68 -6.31 18.62 -6.28 17.52 C-6.22 15.26 -6.16 12.99 -6.11 10.73 C-6.07 9.67 -6.04 8.6 -6 7.5 C-5.98 6.52 -5.95 5.54 -5.93 4.52 C-5.4 0.36 -4.06 0.14 0 0 Z " fill="#19293C" transform="translate(74.625,85.875)"/>
<path d="M0 0 C0.33 0 0.66 0 1 0 C1 9.24 1 18.48 1 28 C-2.96 28 -6.92 28 -11 28 C-9.12 22.12 -9.12 22.12 -8 21 C-6 20.96 -4 20.96 -2 21 C-2 18.69 -2 16.38 -2 14 C-1.67 14 -1.34 14 -1 14 C-0.67 9.38 -0.34 4.76 0 0 Z " fill="#102033" transform="translate(27,86)"/>
<path d="M0 0 C2.86 2.86 2.8 5.79 3.44 9.69 C4 12 4 12 6 14 C0.92 14.85 -3.85 15.09 -9 15 C-7.88 13.06 -6.75 11.12 -5.62 9.19 C-5.31 8.65 -5.31 8.65 -3.73 5.92 C-2.54 3.91 -1.29 1.94 0 0 Z " fill="#ECEDE3" transform="translate(46,30)"/>
<path d="M0 0 C0.99 0.16 0.99 0.16 6 1 C6 5.62 6 10.24 6 15 C4.02 15 2.04 15 0 15 C0 10.05 0 5.1 0 0 Z " fill="#808283" transform="translate(51,48)"/>
<path d="M0 0 C0.99 0 1.98 0 3 0 C3 1.32 3 2.64 3 4 C4.32 4 5.64 4 7 4 C7 4.99 7 5.98 7 7 C6.36 7.08 5.72 7.16 5.06 7.25 C4.38 7.5 3.7 7.75 3 8 C2.65 9.33 2.31 10.66 2 12 C-0.06 13.75 -0.06 13.75 -2 15 C-1.34 12.69 -0.68 10.38 0 8 C-1.65 7.67 -3.3 7.34 -5 7 C-4.67 6.01 -4.34 5.02 -4 4 C-2.68 4 -1.36 4 0 4 C0 2.68 0 1.36 0 0 Z " fill="#010D20" transform="translate(46,13)"/>
<path d="M0 0 C-0.33 5.28 -0.66 10.56 -1 16 C-2.32 16 -3.64 16 -5 16 C-5.08 14.08 -5.14 12.17 -5.19 10.25 C-5.22 9.18 -5.26 8.12 -5.29 7.02 C-4.95 3.47 -4.06 0 0 0 Z " fill="#939595" transform="translate(47,95)"/>
<path d="M0 0 C0.66 0.17 0.66 0.17 4 1 C4 4.63 4 8.26 4 12 C2.35 12 0.7 12 -1 12 C-1.03 10.19 -1.05 8.38 -1.06 6.56 C-1.07 5.55 -1.09 4.54 -1.1 3.5 C-1 1 -1 1 0 0 Z " fill="#071426" transform="translate(78,92)"/>
<path d="M0 0 C2 0.5 2 0.5 4 2 C4.38 4.75 4.18 7.21 4 10 C2.02 10 0.04 10 -2 10 C-2.2 3.95 -2.2 3.95 -2 2 C-1.34 1.34 -0.68 0.68 0 0 Z " fill="#272F3A" transform="translate(43,51)"/>
<path d="M0 0 C1.98 0 3.96 0 6 0 C6.66 0.66 7.32 1.32 8 2 C7.36 2.16 6.72 2.33 6.06 2.5 C4 4 4 4 3.62 5.88 C3.56 6.6 3.5 7.32 3.44 8.06 C3.37 8.71 3.37 8.71 3 12 C2.01 12.33 1.02 12.66 0 13 C0 8.71 0 4.42 0 0 Z " fill="#FBF9ED" transform="translate(38,49)"/>
<path d="M0 0 C1.02 3.07 1.38 4.81 1 8 C-0.98 11.23 -2.08 12.73 -5.75 13.81 C-6.49 13.87 -7.23 13.94 -8 14 C-6.46 10.8 -4.71 7.78 -2.88 4.75 C-2.34 3.86 -1.8 2.97 -1.24 2.05 C-1.04 1.71 -1.04 1.71 0 0 Z " fill="#060E1F" transform="translate(41,31)"/>
<path d="M0 0 C0.99 0.33 1.98 0.66 3 1 C3 4.63 3 8.26 3 12 C1.68 12 0.36 12 -1 12 C-1.03 10.19 -1.05 8.38 -1.06 6.56 C-1.07 5.55 -1.09 4.54 -1.1 3.5 C-1 1 -1 1 0 0 Z " fill="#051226" transform="translate(90,92)"/>
<path d="M0 0 C0.29 0.62 0.58 1.24 0.88 1.88 C2 4 2 4 4 6 C-1.08 6.85 -5.85 7.09 -11 7 C-9.44 4.44 -9.44 4.44 -7 2 C-3.25 2.19 -3.25 2.19 0 3 C0 2.01 0 1.02 0 0 Z " fill="#9FA09B" transform="translate(48,38)"/>
<path d="M0 0 C6.33 4.39 11.67 9.45 17 15 C12.66 15 10.55 12.36 7.44 9.62 C6.85 9.12 6.26 8.61 5.65 8.09 C3.37 6.11 1.13 4.13 -1 2 C-0.67 1.34 -0.34 0.68 0 0 Z " fill="#A5A5A2" transform="translate(51,65)"/>
<path d="M0 0 C0.33 0.17 0.33 0.17 2 1 C1.67 1.66 1.34 2.32 1 3 C4.96 3 8.92 3 13 3 C13 2.01 13 1.02 13 0 C14.65 0 16.3 0 18 0 C17.67 0.66 17.34 1.32 17 2 C20.3 2.33 23.6 2.66 27 3 C27 3.33 27 3.66 27 4 C18.09 4 9.18 4 0 4 C0 2.68 0 1.36 0 0 Z " fill="#020F1B" transform="translate(15,111)"/>
<path d="M0 0 C1.32 0 2.64 0 4 0 C4 2.64 4 5.28 4 8 C2.35 7.67 0.7 7.34 -1 7 C-0.67 4.69 -0.34 2.38 0 0 Z " fill="#18212D" transform="translate(44,77)"/>
</svg>
