<svg xmlns="http://www.w3.org/2000/svg" width="128" height="128" viewBox="0 0 128 128"><path fill="#0f1e31" d="M55.5 17.91c3.14 1.36 4.64 3.03 6.8 5.65l2.13 2.5L66 28a24 24 0 0 0 5.94-3.69c2.06-1.3 2.06-1.3 4.3-1.33 4.18 1.54 6.26 4.55 9 7.95l1.65 1.96c3.92 4.71 3.92 4.71 5.1 7.11q1.74-.3 3.5-.63c2.19-.07 2.19-.07 4.5.63 3.59 3.61 6.25 7.75 9 12 .64.9 1.27 1.77 1.9 2.7 4.1 5.83 4.1 5.83 4.1 9.3h-7l3.48 1.82c2.45 1.74 3.39 2.61 4.1 5.56.12 2.83.04 5.6-.13 8.43l-.1 2.97q-.12 3.61-.34 7.22l-5 1v3l-6-1-1 3h-7l-1 3h-7l-1 3h-7l-1 4h-8l-1 4c-12.37.11-24.7 0-37.05-.65l-2.71-.14-2.62-.13c-3.51-.1-7.01.02-10.52.2-2.1-.28-2.1-.28-3.94-1.6L12 106c1-3 1-3 2.93-4.17l2.38-1.02 2.37-1.04C22 99 22 99 26 99v-2l7-2c0-4 0-4-2-7-.46-3.26-.38-6.53-.37-9.82l-.01-2.84A64 64 0 0 1 35 53h-8c1.62-5.35 5.08-9.27 8.5-13.57l1.9-2.39 3.8-4.79q2.42-3.05 4.77-6.14l2.59-3.3 2.26-2.92C53 18 53 18 55.5 17.91M44 101.01l7.88.61 2.26.2c1.95.14 3.9.16 5.86.18l2-2q-3.65-.34-7.31-.63l-2.1-.19c-3.84-.3-5.28-.39-8.6 1.82m-11 4c3.87 1.27 7.54 1.17 11.56 1.17l2.37.04c2.03.01 4.05-.1 6.07-.22l2-2q-4.66-.34-9.31-.63l-2.67-.19-2.57-.16-2.36-.16c-2.1.14-2.1.14-5.1 2.14"/><path fill="#edebdf" d="M54 23c3.67 1.5 5.69 3.64 8.25 6.62l2.14 2.48L66 34c2.6-1.2 4.03-2.04 6-4.19 2-1.81 2-1.81 3.94-1.93 3.17 1.73 4.87 4.26 7.06 7.12l2-2c5.88 4.75 5.88 4.75 7 7l3.5-.62c2.18-.07 2.18-.07 4.5.62 3.58 3.62 6.24 7.76 9 12l1.9 2.7c4.1 5.84 4.1 5.84 4.1 9.3h-7l3.47 1.82c2.45 1.75 3.39 2.61 4.11 5.56.11 2.84.03 5.6-.14 8.43l-.1 2.97q-.12 3.61-.34 7.22h-1a75 75 0 0 1-2-21l-1 3c-3.9-.75-6.17-2.08-10-4l-1 15h-1l-.11-3.65-.2-4.73-.07-2.4c-.1-2.08-.35-4.15-.62-6.22l-3-2v18h-1l.12-3.44L94 75l-2-1h2q-.17-2.47-.38-4.94l-.21-2.77L93 64l-2-1v-2l-3.31-.81C84.11 59.04 83.37 58.58 81 56l-6-3-1 27-16.18.05-5.51.03-7.9.02-2.5.01Q38.96 80.1 36 80c-1.62-1.62-1.25-3.32-1.31-5.56.04-5.19.9-9.93 2.12-14.94l.5-2.1c.93-3.56 1.64-6.21 4.69-8.4l4-2-11 1a205 205 0 0 1 13.22-18.3A77 77 0 0 1 54 23"/><path fill="#09182d" d="M54 23c3.67 1.5 5.69 3.64 8.25 6.62l2.14 2.48L66 34c2.6-1.2 4.03-2.04 6-4.19 2-1.81 2-1.81 3.94-1.93 3.17 1.73 4.87 4.26 7.06 7.12l2-2c5.88 4.75 5.88 4.75 7 7l3.5-.62c2.18-.07 2.18-.07 4.5.62 3.58 3.62 6.24 7.76 9 12l1.9 2.7c4.1 5.84 4.1 5.84 4.1 9.3h-7l3.47 1.82c2.45 1.75 3.39 2.61 4.11 5.56.11 2.84.03 5.6-.14 8.43l-.1 2.97q-.12 3.61-.34 7.22h-1a75 75 0 0 1-2-21l-2.6-.28c-3.86-.82-6.4-2.22-9.75-4.28l-1.76-1.07Q95.12 61.7 92.38 60l-5.54-3.37-5-3.06A23 23 0 0 0 75 51l-3-2c-2.48-.41-2.48-.41-5.19-.62l-2.73-.23L62 48v-3l10-1c-1-1-1-1-2.86-1.11l-2.39.01-2.59.01-2.72.03-2.73.01L52 43l-2 6-4-1v-1l-11 1a205 205 0 0 1 13.22-18.3A77 77 0 0 1 54 23"/><path fill="#081224" d="M55.5 17.91c3.14 1.36 4.64 3.03 6.8 5.65l2.13 2.5L66 28a24 24 0 0 0 5.94-3.69c2.06-1.3 2.06-1.3 4.45-1.13 3.13.98 4.4 2.18 6.55 4.63l1.9 2.08L86 32c-.81 2.26-.81 2.26-2 4-2.91-2.22-4.95-3.93-7-7-4.25.47-6.2 2.96-9 6-3.67-1.5-5.7-3.64-8.25-6.63L57.6 25.9 56 24c-3.41 1.43-5.17 3.11-7.42 6.02l-1.86 2.4-1.91 2.51-1.94 2.5C38.14 43.58 38.14 43.58 37 47l1.87-.29q1.19-.15 2.44-.34l2.43-.35C46 46 46 46 49 48l-3.81 1.06c-3.42 1.3-4.05 1.72-6.06 5A59 59 0 0 0 38 58l-.61 2.3c-1.53 6.52-1.4 11.74-1.4 18.7l38 1c-.05-10.69-.05-10.69-.08-14.03l-.01-2.67-.01-2.72c.1-2.62.53-5.03 1.1-7.58 2.49.55 2.49.55 5 2 .5 3.25.5 3.25.32 7.12L80.18 66 80 69h-2v12l5.86-.2C86 81 86 81 90 83H77l-1 3-2 3-2-1 2-6H35l1 7-1 2-3-1c-4.1-8.2-1.46-22.84 1-31.32q.95-2.85 2-5.68h-8c1.62-5.35 5.08-9.27 8.5-13.57l1.9-2.39 3.8-4.79q2.42-3.05 4.77-6.14l2.59-3.3 2.26-2.92C53 18 53 18 55.5 17.91"/><path fill="#f0efe5" d="M54 23c3.67 1.5 5.69 3.64 8.25 6.62l2.14 2.48L66 34c2.6-1.2 4.03-2.04 6-4.19L74 28c4.01.43 5.64 2.53 8.16 5.56l1.46 1.82A121 121 0 0 1 91 45l3.31-.68L98 44a27 27 0 0 1 5 5.81l1.23 1.7A37 37 0 0 1 107 56l-1 2-1.69-1.57C98 50.98 98 50.98 94.87 51.04l-1.99.52L89 52a30 30 0 0 1-5.07-5.82c-3.35-3.78-6.59-5.89-11.59-6.51q-4.51-.13-9.03.02l-3.12.03c-8.97.13-8.97.13-12.19 1.28l-.37 1.95L47 45c-2.72 1.05-2.72 1.05-6.06 1.75l-3.35.73L35 48c3.6-5.74 7.57-11.12 11.75-16.44l1.47-1.86A77 77 0 0 1 54 23"/><path fill="#ecebe4" d="M58.83 41.68h2.67l2.67-.04h2.55l2.34-.01L71 42l2 3H62v3l2.04-.1 2.71-.1q1.31-.03 2.67-.1c3.08.36 4.17 1.42 6.58 3.3l2.34.44c2.86.6 4.7 1.55 7.17 3.07l2.55 1.55 2.63 1.63 2.56 1.57 5.13 3.15a304 304 0 0 0 8.26 4.86l2.53 1.45L111 70v2c-3.9-.75-6.17-2.08-10-4l-1 15h-1l-.12-3.65-.19-4.72-.07-2.41c-.1-2.08-.35-4.15-.62-6.22l-3-2v18h-1l.12-3.44L94 75l-2-1h2l-.38-4.94-.2-2.77c-.08-.38-.08-.38-.42-2.3l-2-1v-2l-3.3-.8c-3.59-1.15-4.33-1.61-6.7-4.2a153 153 0 0 0-6-3l-.19 2.03L73.01 75l-2-2-2 1-.82-2.37C67 69 67 69 64 67c-2.27-.32-2.27-.32-4.89-.41l-2.84-.12-2.96-.1-10.3-.37v-1l2.27-.07 10.16-.37 3.58-.11q1.68-.08 3.41-.13l3.16-.11C68 64 68 64 69 63V53l-26-1 1-2c3.06-.62 3.06-.62 6-1l-.13-2.37c.28-5.74 4.41-4.91 8.96-4.95"/><path fill="#0a1c30" d="m49.73 51.67 3.38.02 3.52.06 3.55.01c8.67.08 8.67.08 9.82 1.24q.14 2.5.13 5v2.75C70 63 70 63 69 64q-3.22.13-6.44.1H58.6l-4.17-.04h-4.18L40 64q.14-2.16.32-4.3.07-1.2.17-2.44c1.2-5.3 4.25-5.64 9.24-5.59"/><path fill="#a3a3a0" d="m80 55 4 2v2l2.38.44C89 60 89 60 91 61v2l3 1v18l-16-1V69h2z"/><path fill="#0a1426" d="m91 97-3 2-1 3h-7l-1 4h-8l-1 4a611 611 0 0 1-37.06-.64Q23.99 108.9 15 109c1-2 1-2 3.5-2.88L22 105q3.55-1.56 7.05-3.2C31 101 31 101 33 101v4h23v-3h9c-3.12 2.52-6.38 4.27-10 6 4.8-.61 8.53-2.65 12.75-4.88C83.74 94.95 83.74 94.95 91 97"/><path fill="#e4e3d8" d="M35 82h39v5c-2.52 2.52-4.08 2.25-7.51 2.28l-2.27-.01h-2.33l-4.88-.01q-3.75-.01-7.49.01h-4.74l-2.27.01c-5.28-.05-5.28-.05-7.51-2.28z"/><path fill="#cbccc9" d="m44.19 49.31 1.8.7-2 2c-2 3-2 3-4 12h28v1l-23 1q.5.97 1 2c.37 6.46.37 6.46-2 10 4.96.15 4.96.15 30 1v1l-16.17.04-5.51.02-7.9.03-2.5.01q-2.95-.01-5.91-.1c-1.62-1.63-1.25-3.33-1.31-5.58.04-5.18.9-9.92 2.12-14.93l.5-2.1c2.28-8.75 2.28-8.75 6.88-8.09"/><path fill="#6e7174" d="m100 67 11 5-1-3h2q.33 3.9.62 7.81l.2 2.24c.41 5.61.41 5.61-1.82 8.95-2.82.29-2.82.29-6.12.19l-3.33-.08L99 88v-3l5-1-4-1z"/><path fill="#f9f8ed" d="M72 57c2.51 3.77 2.03 6.39 1.62 10.69l-.17 2.12L73 75l-2-2-2 1-.81-2.38C67 69 67 69 64 67c-2.27-.32-2.27-.32-4.89-.41l-2.84-.12-2.96-.09-2.99-.12L43 66v-1h2.25q5.03-.03 10.06-.12h3.54c3.16-.07 6.06-.18 9.15-.88 2.23-2.99 2.23-2.99 3-6z"/><path fill="#192130" d="m57.2 38.8 2.97.02 3.08.05 3.12.03q3.82.03 7.63.1c-.72 1.97-.72 1.97-2 4-2.07.45-2.07.45-4.57.4q-1.34-.04-2.72-.05a244 244 0 0 0-5.7-.16q-3.52-.06-7-.19l-2 6c-3.37-.6-5.39-1.85-8-4h5l.24-1.88C48 41 48 41 49.72 39.87c2.65-1.02 4.64-1.1 7.48-1.07"/><path fill="#091326" d="M34 92c3.4 1.13 4.05 2.13 6 5l-12.21 4.57-2.08.78-4.24 1.58c-5.24 1.96-5.24 1.96-7.47 3.07l-2-1c1-3 1-3 2.93-4.17l2.38-1.02 2.37-1.04C22 99 22 99 26 99v-2l3.44-.81L33 95z"/><path fill="#1a2533" d="M75 53c2.48.55 2.48.55 5 2 .49 3.26.49 3.26.31 7.12l-.13 3.89L80 69h-2v11h-1V68h-2l-1 4-.06-6.69-.04-3.76c.09-3.01.39-5.63 1.1-8.55"/><path fill="#a4a6a6" d="M58.83 41.68h2.67l2.67-.04h2.55l2.34-.01L71 42l2 3H62l-1 3-1-4c-1.45 1.45-1.56 3.04-2 5h-8c-.13-2.37-.13-2.37 0-5 2.83-2.83 4.97-2.3 8.83-2.32"/><path fill="#051020" d="M103 62c2.07-.2 2.07-.2 4.56-.12l2.51.05L112 62l-4 2 3.47 1.82c2.45 1.75 3.39 2.61 4.11 5.56.11 2.84.03 5.6-.14 8.43l-.1 2.97q-.12 3.61-.34 7.22h-1a75 75 0 0 1-2-21l-2.75-.25c-3.65-.84-4.88-1.93-7.25-4.75z"/><path fill="#d2d0cd" d="M99 63a215 215 0 0 1 6.31 3.5l3.24 1.84L111 70v2c-3.9-.75-6.17-2.08-10-4l-1 15h-1l-.11-3.65-.27-7.13c-.1-2.08-.35-4.15-.62-6.22l-3-2v18h-1l.12-3.44L94 75l-2-1h2q-.17-2.44-.38-4.88l-.21-2.74C93 64 93 64 91 62c3.74-1.25 4.51-.65 8 1"/><path fill="#172436" d="M81 58c5 1 5 1 6 2q.1 2.78.06 5.56l-.02 3.07L87 71l-6-1z"/><path fill="#0e192e" d="M33 101v3h-2v2h3v2c-6.38.82-12.57 1.12-19 1 1-2 1-2 3.5-2.88L22 105q3.55-1.56 7.05-3.2C31 101 31 101 33 101"/><path fill="#8e9293" d="m78 83 18 2v3H78z"/><path fill="#010915" d="m31 104 1.95.46c3.95.7 7.86.9 11.86 1.1l2.39.13 5.8.31-3 1v2l3 1-21-1 2-1v-2h-3z"/><path fill="#54595f" d="M110 69h2q.33 3.9.62 7.81l.2 2.24c.41 5.61.41 5.61-1.82 8.95-2.82.29-2.82.29-6.12.19l-3.33-.08L99 88v-3l12-1z"/><path fill="#3f424d" d="M40 68c4.56.56 4.56.56 6 2 .19 2.44.19 2.44 0 5l-2 2c-4.56-.56-4.56-.56-6-2-.19-2.44-.19-2.44 0-5z"/><path fill="#111d2d" d="m89 62 5 2c.49 2.38.49 2.38.31 5.12l-.13 2.76L94 74l-5-1z"/><path fill="#d2d1cd" d="m78 99-3.39 1.68-4.42 2.2-2.24 1.1-2.16 1.07-1.98.99C62 107 62 107 59 109c-2.69.12-2.69.12-5 0 2.77-3.41 6.59-4.87 10.5-6.62l2.05-.95c7.9-3.61 7.9-3.61 11.45-2.43"/><path fill="#e0dfde" d="m78 51 5.19 2.81 2.92 1.58L89 57l2.86 1.57L94 60v2c-5.27-.9-9.32-2.01-13-6a167 167 0 0 0-4-3z"/><path fill="#1f2333" d="M63 69q2.5-.06 5 0c1 1 1 1 1.19 3.44C69 75 69 75 67 77c-2.5.25-2.5.25-5 0-2-2-2-2-2.12-4.62L60 70h2v4h4v-4z"/><path fill="#cbcdc6" d="m39 99-9.75 4-2.79 1.16-2.69 1.09-2.48 1.02C19 107 19 107 15 107c1.84-3.67 6.62-4.34 10.31-5.69l2.63-1.01 2.55-.94 2.33-.86c2.44-.56 3.84-.3 6.18.5"/><path fill="#606b77" d="M34 88h3v2h8v4c-2.71 1.35-5.01 1.07-8 1v-2h-2z"/></svg>