<?xml version="1.0" encoding="UTF-8"?>
<!-- Generator: visioncortex VTracer 0.6.12 -->
<svg version="1.1" xmlns="http://www.w3.org/2000/svg" width="128" height="128" viewBox="0 0 128 128" preserveAspectRatio="xMidYMid meet">
<path d="M0 0 C3.13 1.36 4.63 3.03 6.8 5.65 C7.5 6.47 8.2 7.3 8.92 8.15 C9.18 8.47 9.18 8.47 10.49 10.09 C12.76 9.01 14.52 8.06 16.43 6.4 C18.49 5.09 18.49 5.09 20.73 5.07 C24.91 6.61 26.99 9.62 29.74 13.02 C30.28 13.67 30.83 14.32 31.38 14.98 C35.3 19.69 35.3 19.69 36.49 22.09 C37.65 21.88 38.8 21.67 39.99 21.46 C42.17 21.39 42.17 21.39 44.49 22.09 C48.07 25.7 50.73 29.84 53.49 34.09 C54.12 34.98 54.75 35.86 55.39 36.78 C59.49 42.62 59.49 42.62 59.49 46.09 C57.18 46.09 54.87 46.09 52.49 46.09 C53.64 46.69 54.78 47.29 55.96 47.91 C58.41 49.65 59.35 50.52 60.07 53.47 C60.18 56.3 60.1 59.06 59.93 61.9 C59.9 62.88 59.87 63.86 59.83 64.87 C59.75 67.28 59.64 69.68 59.49 72.09 C57.84 72.42 56.19 72.75 54.49 73.09 C54.49 74.08 54.49 75.07 54.49 76.09 C52.51 75.76 50.53 75.43 48.49 75.09 C48.33 75.58 48.33 75.58 47.49 78.09 C45.18 78.09 42.87 78.09 40.49 78.09 C40.33 78.58 40.33 78.58 39.49 81.09 C37.18 81.09 34.87 81.09 32.49 81.09 C32.33 81.58 32.33 81.58 31.49 84.09 C29.18 84.09 26.87 84.09 24.49 84.09 C24.33 84.75 24.33 84.75 23.49 88.09 C20.85 88.09 18.21 88.09 15.49 88.09 C15.33 88.75 15.33 88.75 14.49 92.09 C2.12 92.2 -10.21 92.08 -22.56 91.44 C-23.01 91.42 -23.01 91.42 -25.27 91.3 C-26.14 91.26 -27 91.21 -27.89 91.17 C-31.4 91.06 -34.9 91.19 -38.41 91.36 C-40.51 91.09 -40.51 91.09 -42.35 89.76 C-42.54 89.49 -42.54 89.49 -43.51 88.09 C-42.51 85.09 -42.51 85.09 -40.58 83.92 C-39.79 83.58 -39.01 83.25 -38.2 82.9 C-37.42 82.55 -36.64 82.21 -35.83 81.86 C-33.51 81.09 -33.51 81.09 -29.51 81.09 C-29.51 80.43 -29.51 79.77 -29.51 79.09 C-28.35 78.76 -28.35 78.76 -22.51 77.09 C-22.51 73.09 -22.51 73.09 -24.51 70.09 C-24.97 66.83 -24.89 63.56 -24.88 60.27 C-24.88 59.34 -24.89 58.4 -24.89 57.43 C-24.77 49.44 -23.33 42.6 -20.51 35.09 C-23.15 35.09 -25.79 35.09 -28.51 35.09 C-26.89 29.74 -23.43 25.82 -20.01 21.52 C-19.38 20.73 -18.76 19.94 -18.11 19.13 C-16.84 17.53 -15.57 15.94 -14.3 14.34 C-12.69 12.31 -11.11 10.26 -9.54 8.2 C-8.67 7.1 -7.81 6 -6.95 4.9 C-6.2 3.94 -5.46 2.97 -4.69 1.98 C-2.51 0.09 -2.51 0.09 0 0 Z M-11.51 83.09 C-8.88 83.31 -6.26 83.51 -3.63 83.71 C-3.26 83.74 -3.26 83.74 -1.37 83.91 C0.58 84.05 2.54 84.07 4.49 84.09 C5.15 83.43 5.81 82.77 6.49 82.09 C4.06 81.86 1.62 81.66 -0.82 81.46 C-1.51 81.4 -2.2 81.33 -2.91 81.27 C-6.76 80.97 -8.2 80.88 -11.51 83.09 Z M-22.51 87.09 C-18.64 88.37 -14.97 88.27 -10.95 88.27 C-10.16 88.29 -9.38 88.3 -8.58 88.31 C-6.55 88.32 -4.53 88.21 -2.51 88.09 C-1.85 87.43 -1.19 86.77 -0.51 86.09 C-3.61 85.86 -6.72 85.66 -9.82 85.46 C-10.7 85.4 -11.58 85.33 -12.49 85.27 C-13.34 85.21 -14.19 85.16 -15.06 85.11 C-15.84 85.06 -16.62 85 -17.42 84.95 C-19.51 85.09 -19.51 85.09 -22.51 87.09 Z " fill="#0F1E31" transform="translate(55.5078125,17.9140625)"/>
<path d="M0 0 C3.67 1.5 5.69 3.64 8.25 6.62 C8.96 7.44 9.66 8.26 10.39 9.1 C10.92 9.73 11.45 10.35 12 11 C14.6 9.8 16.03 8.96 18 6.81 C20 5 20 5 21.94 4.88 C25.11 6.61 26.81 9.14 29 12 C29.66 11.34 30.32 10.68 31 10 C36.88 14.75 36.88 14.75 38 17 C39.16 16.79 40.31 16.59 41.5 16.38 C43.68 16.31 43.68 16.31 46 17 C49.58 20.62 52.24 24.76 55 29 C55.31 29.44 55.31 29.44 56.9 31.7 C61 37.54 61 37.54 61 41 C58.69 41 56.38 41 54 41 C55.15 41.6 56.29 42.2 57.47 42.82 C59.92 44.57 60.86 45.43 61.58 48.38 C61.69 51.22 61.61 53.98 61.44 56.81 C61.41 57.79 61.37 58.77 61.34 59.78 C61.26 62.19 61.14 64.59 61 67 C60.67 67 60.34 67 60 67 C58.28 59.91 57.75 53.29 58 46 C57.67 46.99 57.34 47.98 57 49 C53.1 48.25 50.83 46.92 47 45 C46.67 49.95 46.34 54.9 46 60 C45.67 60 45.34 60 45 60 C44.98 59.4 44.98 59.4 44.89 56.35 C44.82 54.78 44.75 53.2 44.69 51.62 C44.68 51.23 44.68 51.23 44.62 49.22 C44.52 47.14 44.27 45.07 44 43 C43.01 42.34 42.02 41.68 41 41 C41 46.94 41 52.88 41 59 C40.67 59 40.34 59 40 59 C40.04 57.87 40.08 56.73 40.12 55.56 C40.08 54.39 40.04 53.21 40 52 C39.67 51.84 39.67 51.84 38 51 C38.66 51 39.32 51 40 51 C39.89 49.35 39.76 47.71 39.62 46.06 C39.59 45.6 39.59 45.6 39.41 43.29 C39.35 42.91 39.35 42.91 39 41 C38.67 40.84 38.67 40.84 37 40 C37 39.34 37 38.68 37 38 C35.91 37.73 34.81 37.46 33.69 37.19 C30.11 36.04 29.37 35.58 27 33 C25.02 32.01 23.04 31.02 21 30 C20.67 38.91 20.34 47.82 20 57 C14.61 57.02 9.21 57.04 3.82 57.05 C1.98 57.06 0.15 57.07 -1.69 57.08 C-4.32 57.09 -6.96 57.09 -9.59 57.1 C-10 57.1 -10 57.1 -12.09 57.11 C-14.06 57.11 -16.03 57.06 -18 57 C-19.62 55.38 -19.25 53.68 -19.31 51.44 C-19.27 46.25 -18.41 41.51 -17.19 36.5 C-17.02 35.81 -16.86 35.11 -16.69 34.4 C-15.76 30.84 -15.05 28.19 -12 26 C-10.68 25.34 -9.36 24.68 -8 24 C-11.63 24.33 -15.26 24.66 -19 25 C-15.35 19.28 -11.44 13.89 -7.25 8.56 C-6.77 7.95 -6.28 7.33 -5.78 6.7 C-3.93 4.37 -2.11 2.11 0 0 Z " fill="#EDEBDF" transform="translate(54,23)"/>
<path d="M0 0 C3.67 1.5 5.69 3.64 8.25 6.62 C8.96 7.44 9.66 8.26 10.39 9.1 C10.92 9.73 11.45 10.35 12 11 C14.6 9.8 16.03 8.96 18 6.81 C20 5 20 5 21.94 4.88 C25.11 6.61 26.81 9.14 29 12 C29.66 11.34 30.32 10.68 31 10 C36.88 14.75 36.88 14.75 38 17 C39.16 16.79 40.31 16.59 41.5 16.38 C43.68 16.31 43.68 16.31 46 17 C49.58 20.62 52.24 24.76 55 29 C55.31 29.44 55.31 29.44 56.9 31.7 C61 37.54 61 37.54 61 41 C58.69 41 56.38 41 54 41 C55.15 41.6 56.29 42.2 57.47 42.82 C59.92 44.57 60.86 45.43 61.58 48.38 C61.69 51.22 61.61 53.98 61.44 56.81 C61.41 57.79 61.37 58.77 61.34 59.78 C61.26 62.19 61.14 64.59 61 67 C60.67 67 60.34 67 60 67 C58.28 59.91 57.75 53.29 58 46 C57.57 45.95 57.57 45.95 55.4 45.72 C51.54 44.9 49 43.5 45.65 41.44 C45.07 41.09 44.49 40.73 43.89 40.37 C42.04 39.26 40.21 38.13 38.38 37 C36.53 35.87 34.69 34.75 32.84 33.63 C31.17 32.61 29.5 31.59 27.84 30.57 C25.42 29.23 23.64 28.59 21 28 C20.01 27.34 19.02 26.68 18 26 C15.52 25.59 15.52 25.59 12.81 25.38 C11.91 25.3 11.01 25.23 10.08 25.15 C9.39 25.1 8.71 25.05 8 25 C8 24.01 8 23.02 8 22 C11.3 21.67 14.6 21.34 18 21 C17 20 17 20 15.14 19.89 C14.35 19.89 13.56 19.9 12.75 19.9 C12.32 19.9 12.32 19.9 10.16 19.91 C9.26 19.92 8.36 19.93 7.44 19.94 C6.99 19.94 6.99 19.94 4.71 19.95 C2.47 19.96 0.24 19.98 -2 20 C-2.66 21.98 -3.32 23.96 -4 26 C-5.32 25.67 -6.64 25.34 -8 25 C-8 24.67 -8 24.34 -8 24 C-11.63 24.33 -15.26 24.66 -19 25 C-15.35 19.28 -11.44 13.89 -7.25 8.56 C-6.77 7.95 -6.28 7.33 -5.78 6.7 C-3.93 4.37 -2.11 2.11 0 0 Z " fill="#09182D" transform="translate(54,23)"/>
<path d="M0 0 C3.13 1.36 4.63 3.03 6.8 5.65 C7.5 6.47 8.2 7.3 8.92 8.15 C9.18 8.47 9.18 8.47 10.49 10.09 C12.76 9.01 14.52 8.06 16.43 6.4 C18.49 5.09 18.49 5.09 20.88 5.27 C24.01 6.25 25.28 7.45 27.43 9.9 C28.06 10.59 28.69 11.27 29.33 11.98 C29.71 12.68 30.1 13.37 30.49 14.09 C29.68 16.35 29.68 16.35 28.49 18.09 C25.58 15.87 23.54 14.16 21.49 11.09 C17.24 11.56 15.29 14.05 12.49 17.09 C8.82 15.58 6.8 13.45 4.24 10.46 C3.54 9.64 2.83 8.83 2.1 7.98 C1.57 7.36 1.04 6.73 0.49 6.09 C-2.92 7.52 -4.68 9.2 -6.93 12.11 C-7.23 12.51 -7.23 12.51 -8.79 14.51 C-9.42 15.34 -10.05 16.17 -10.7 17.02 C-11.02 17.44 -11.02 17.44 -12.64 19.52 C-17.37 25.67 -17.37 25.67 -18.51 29.09 C-17.89 28.99 -17.28 28.9 -16.64 28.8 C-15.84 28.69 -15.03 28.58 -14.2 28.46 C-13.8 28.4 -13.8 28.4 -11.77 28.11 C-9.51 28.09 -9.51 28.09 -6.51 30.09 C-7.77 30.44 -9.02 30.79 -10.32 31.15 C-13.74 32.45 -14.37 32.87 -16.38 36.15 C-16.8 37.45 -17.18 38.76 -17.51 40.09 C-17.71 40.84 -17.91 41.6 -18.12 42.38 C-19.65 48.91 -19.51 54.13 -19.51 61.09 C-6.97 61.42 5.57 61.75 18.49 62.09 C18.43 51.4 18.43 51.4 18.4 48.06 C18.4 47.18 18.4 46.29 18.39 45.39 C18.39 44.49 18.38 43.6 18.38 42.67 C18.49 40.05 18.91 37.64 19.49 35.09 C21.97 35.64 21.97 35.64 24.49 37.09 C24.98 40.34 24.98 40.34 24.8 44.21 C24.76 45.49 24.71 46.77 24.67 48.09 C24.64 48.59 24.64 48.59 24.49 51.09 C23.83 51.09 23.17 51.09 22.49 51.09 C22.49 55.05 22.49 59.01 22.49 63.09 C23.47 63.05 23.47 63.05 28.35 62.89 C30.49 63.09 30.49 63.09 34.49 65.09 C30.2 65.09 25.91 65.09 21.49 65.09 C21.33 65.58 21.33 65.58 20.49 68.09 C19.83 69.08 19.17 70.07 18.49 71.09 C18.16 70.92 18.16 70.92 16.49 70.09 C17.15 68.11 17.81 66.13 18.49 64.09 C5.62 64.09 -7.25 64.09 -20.51 64.09 C-20.18 66.4 -19.85 68.71 -19.51 71.09 C-19.67 71.42 -19.67 71.42 -20.51 73.09 C-21.5 72.76 -22.49 72.43 -23.51 72.09 C-27.61 63.88 -24.97 49.25 -22.51 40.77 C-21.87 38.87 -21.22 36.97 -20.51 35.09 C-23.15 35.09 -25.79 35.09 -28.51 35.09 C-26.89 29.74 -23.43 25.82 -20.01 21.52 C-19.38 20.73 -18.76 19.94 -18.11 19.13 C-16.84 17.53 -15.57 15.94 -14.3 14.34 C-12.69 12.31 -11.11 10.26 -9.54 8.2 C-8.67 7.1 -7.81 6 -6.95 4.9 C-6.2 3.94 -5.46 2.97 -4.69 1.98 C-2.51 0.09 -2.51 0.09 0 0 Z " fill="#081224" transform="translate(55.5078125,17.9140625)"/>
<path d="M0 0 C3.67 1.5 5.69 3.64 8.25 6.62 C8.96 7.44 9.66 8.26 10.39 9.1 C10.92 9.73 11.45 10.35 12 11 C14.6 9.8 16.03 8.96 18 6.81 C18.66 6.21 19.32 5.62 20 5 C24.01 5.43 25.64 7.53 28.16 10.56 C28.65 11.16 29.13 11.76 29.62 12.38 C29.87 12.67 29.87 12.67 31.11 14.16 C33.21 16.71 35.17 19.26 37 22 C37.55 21.89 37.55 21.89 40.31 21.32 C41.53 21.22 42.75 21.11 44 21 C46.17 22.98 47.44 24.43 49 26.81 C49.41 27.37 49.81 27.93 50.23 28.51 C51.38 30.14 51.38 30.14 53 33 C52.84 33.33 52.84 33.33 52 35 C51.44 34.48 50.89 33.97 50.31 33.43 C44 27.98 44 27.98 40.87 28.04 C40.21 28.21 39.55 28.38 38.88 28.56 C38.24 28.63 38.24 28.63 35 29 C32.95 27.24 31.49 25.38 29.93 23.18 C26.58 19.4 23.34 17.29 18.34 16.67 C15.32 16.57 12.33 16.6 9.31 16.69 C8.8 16.69 8.8 16.69 6.19 16.72 C-2.78 16.85 -2.78 16.85 -6 18 C-6.12 18.64 -6.24 19.29 -6.37 19.95 C-6.47 20.29 -6.47 20.29 -7 22 C-9.72 23.05 -9.72 23.05 -13.06 23.75 C-14.17 23.99 -15.27 24.23 -16.41 24.48 C-17.26 24.65 -18.12 24.82 -19 25 C-15.4 19.26 -11.43 13.88 -7.25 8.56 C-6.77 7.95 -6.28 7.33 -5.78 6.7 C-3.93 4.37 -2.11 2.11 0 0 Z " fill="#F0EFE5" transform="translate(54,23)"/>
<path d="M0 0 C0.44 0 0.44 0 2.67 0.01 C3.55 -0.01 4.43 -0.02 5.34 -0.04 C6.18 -0.04 7.02 -0.04 7.89 -0.04 C8.66 -0.04 9.43 -0.05 10.23 -0.05 C10.87 0.07 11.51 0.2 12.17 0.32 C12.83 1.31 13.49 2.3 14.17 3.32 C10.54 3.32 6.91 3.32 3.17 3.32 C3.17 4.31 3.17 5.3 3.17 6.32 C3.51 6.3 3.51 6.3 5.21 6.22 C6.11 6.19 7 6.16 7.92 6.13 C8.8 6.1 9.68 6.07 10.59 6.03 C13.67 6.38 14.76 7.44 17.17 9.32 C17.94 9.47 18.71 9.61 19.51 9.76 C22.37 10.36 24.2 11.31 26.68 12.83 C27.52 13.35 28.36 13.86 29.23 14.38 C30.1 14.92 30.96 15.46 31.86 16.01 C32.7 16.53 33.55 17.04 34.42 17.58 C36.13 18.62 37.84 19.67 39.55 20.73 C41.37 21.83 43.2 22.92 45.04 23.98 C45.96 24.52 46.87 25.05 47.81 25.59 C48.65 26.07 49.48 26.55 50.34 27.04 C50.95 27.46 51.55 27.89 52.17 28.32 C52.17 28.98 52.17 29.64 52.17 30.32 C48.27 29.57 46 28.24 42.17 26.32 C41.84 31.27 41.51 36.22 41.17 41.32 C40.84 41.32 40.51 41.32 40.17 41.32 C40.15 40.72 40.15 40.72 40.05 37.67 C39.99 36.1 39.92 34.52 39.86 32.95 C39.84 32.55 39.84 32.55 39.79 30.54 C39.69 28.46 39.44 26.39 39.17 24.32 C38.18 23.66 37.19 23 36.17 22.32 C36.17 28.26 36.17 34.2 36.17 40.32 C35.84 40.32 35.51 40.32 35.17 40.32 C35.21 39.19 35.25 38.05 35.29 36.88 C35.25 35.71 35.21 34.53 35.17 33.32 C34.84 33.16 34.84 33.16 33.17 32.32 C33.83 32.32 34.49 32.32 35.17 32.32 C35.05 30.68 34.93 29.03 34.79 27.38 C34.76 26.93 34.76 26.93 34.58 24.61 C34.51 24.23 34.51 24.23 34.17 22.32 C33.51 21.99 32.85 21.66 32.17 21.32 C32.17 20.66 32.17 20 32.17 19.32 C31.07 19.05 29.98 18.79 28.86 18.51 C25.28 17.36 24.54 16.9 22.17 14.32 C20.19 13.28 18.19 12.27 16.17 11.32 C16.14 11.66 16.14 11.66 15.98 13.34 C15.38 20 14.77 26.66 14.17 33.32 C13.51 32.66 12.85 32 12.17 31.32 C11.51 31.65 10.85 31.98 10.17 32.32 C9.9 31.54 9.63 30.75 9.36 29.95 C8.17 27.32 8.17 27.32 5.17 25.32 C2.9 25 2.9 25 0.28 24.91 C-0.66 24.87 -1.59 24.83 -2.56 24.79 C-3.54 24.76 -4.51 24.73 -5.52 24.7 C-6.51 24.66 -7.5 24.62 -8.51 24.58 C-10.95 24.49 -13.39 24.4 -15.83 24.32 C-15.83 23.99 -15.83 23.66 -15.83 23.32 C-15.08 23.3 -14.33 23.27 -13.55 23.25 C-10.17 23.13 -6.78 23.01 -3.39 22.88 C-2.21 22.85 -1.03 22.81 0.19 22.77 C1.32 22.72 2.44 22.68 3.6 22.64 C4.64 22.6 5.69 22.57 6.76 22.53 C9.17 22.32 9.17 22.32 10.17 21.32 C10.17 18.02 10.17 14.72 10.17 11.32 C5.88 11.16 5.88 11.16 -15.83 10.32 C-15.5 9.66 -15.17 9 -14.83 8.32 C-11.77 7.7 -11.77 7.7 -8.83 7.32 C-8.87 6.54 -8.91 5.75 -8.96 4.95 C-8.68 -0.79 -4.55 0.04 0 0 Z " fill="#ECEBE4" transform="translate(58.83203125,41.677734375)"/>
<path d="M0 0 C1.11 0.01 2.23 0.01 3.38 0.02 C4.54 0.04 5.7 0.06 6.9 0.08 C7.48 0.08 7.48 0.08 10.45 0.09 C19.12 0.17 19.12 0.17 20.27 1.33 C20.37 2.99 20.4 4.66 20.4 6.33 C20.4 6.78 20.4 6.78 20.41 9.08 C20.27 11.33 20.27 11.33 19.27 12.33 C17.13 12.42 14.98 12.44 12.83 12.43 C11.53 12.42 10.22 12.42 8.88 12.42 C7.49 12.41 6.1 12.4 4.71 12.39 C3.32 12.39 1.93 12.38 0.53 12.38 C-2.89 12.37 -6.31 12.35 -9.73 12.33 C-9.64 10.89 -9.53 9.45 -9.41 8.02 C-9.36 7.22 -9.3 6.41 -9.24 5.59 C-8.04 0.28 -4.99 -0.05 0 0 Z " fill="#0A1C30" transform="translate(49.7265625,51.671875)"/>
<path d="M0 0 C1.32 0.66 2.64 1.32 4 2 C4 2.66 4 3.32 4 4 C4.39 4.07 4.39 4.07 6.38 4.44 C9 5 9 5 11 6 C11 6.66 11 7.32 11 8 C11.99 8.33 12.98 8.66 14 9 C14 14.94 14 20.88 14 27 C8.72 26.67 3.44 26.34 -2 26 C-2 22.04 -2 18.08 -2 14 C-1.34 14 -0.68 14 0 14 C0 9.38 0 4.76 0 0 Z " fill="#A3A3A0" transform="translate(80,55)"/>
<path d="M0 0 C-0.99 0.66 -1.98 1.32 -3 2 C-3.33 2.99 -3.66 3.98 -4 5 C-6.31 5 -8.62 5 -11 5 C-11.33 6.32 -11.66 7.64 -12 9 C-14.64 9 -17.28 9 -20 9 C-20.33 10.32 -20.66 11.64 -21 13 C-33.37 13.12 -45.7 12.99 -58.06 12.36 C-64.04 12.05 -70 11.94 -76 12 C-75 10 -75 10 -72.5 9.12 C-71.34 8.75 -70.19 8.38 -69 8 C-66.63 6.97 -64.29 5.89 -61.95 4.8 C-60 4 -60 4 -58 4 C-58 5.32 -58 6.64 -58 8 C-50.41 8 -42.82 8 -35 8 C-35 7.01 -35 6.02 -35 5 C-32.03 5 -29.06 5 -26 5 C-29.12 7.52 -32.38 9.27 -36 11 C-31.2 10.39 -27.47 8.35 -23.25 6.12 C-7.26 -2.05 -7.26 -2.05 0 0 Z " fill="#0A1426" transform="translate(91,97)"/>
<path d="M0 0 C12.87 0 25.74 0 39 0 C39 1.65 39 3.3 39 5 C36.48 7.52 34.92 7.25 31.49 7.28 C31.11 7.28 31.11 7.28 29.22 7.27 C28.45 7.27 27.68 7.27 26.89 7.27 C25.26 7.27 23.63 7.27 22.01 7.26 C19.51 7.25 17.02 7.26 14.52 7.27 C12.94 7.27 11.36 7.27 9.78 7.27 C9.03 7.27 8.28 7.27 7.51 7.28 C2.23 7.23 2.23 7.23 0 5 C0 3.35 0 1.7 0 0 Z " fill="#E4E3D8" transform="translate(35,82)"/>
<path d="M0 0 C0.3 0.11 0.3 0.11 1.81 0.69 C1.15 1.35 0.49 2.01 -0.19 2.69 C-2.19 5.69 -2.19 5.69 -4.19 14.69 C5.05 14.69 14.29 14.69 23.81 14.69 C23.81 15.02 23.81 15.35 23.81 15.69 C16.22 16.02 8.63 16.35 0.81 16.69 C1.14 17.35 1.47 18.01 1.81 18.69 C2.17 25.16 2.17 25.16 -0.19 28.69 C4.76 28.85 4.76 28.85 29.81 29.69 C29.81 30.02 29.81 30.35 29.81 30.69 C24.42 30.71 19.03 30.73 13.63 30.74 C11.8 30.75 9.96 30.75 8.12 30.76 C5.49 30.78 2.86 30.78 0.22 30.79 C-0.19 30.79 -0.19 30.79 -2.28 30.8 C-4.25 30.8 -6.22 30.75 -8.19 30.69 C-9.81 29.07 -9.44 27.37 -9.5 25.12 C-9.46 19.94 -8.6 15.2 -7.38 10.19 C-7.21 9.49 -7.04 8.8 -6.87 8.08 C-4.6 -0.66 -4.6 -0.66 0 0 Z " fill="#CBCCC9" transform="translate(44.1875,49.3125)"/>
<path d="M0 0 C3.63 1.65 7.26 3.3 11 5 C10.67 4.01 10.34 3.02 10 2 C10.66 2 11.32 2 12 2 C12.22 4.6 12.43 7.21 12.62 9.81 C12.69 10.55 12.75 11.29 12.82 12.05 C13.23 17.66 13.23 17.66 11 21 C8.18 21.29 8.18 21.29 4.88 21.19 C3.78 21.16 2.68 21.13 1.55 21.11 C1.13 21.09 1.13 21.09 -1 21 C-1 20.01 -1 19.02 -1 18 C0.65 17.67 2.3 17.34 4 17 C2.68 16.67 1.36 16.34 0 16 C0 10.72 0 5.44 0 0 Z " fill="#6E7174" transform="translate(100,67)"/>
<path d="M0 0 C2.51 3.77 2.03 6.39 1.62 10.69 C1.57 11.39 1.51 12.09 1.45 12.81 C1.31 14.54 1.16 16.27 1 18 C0.34 17.34 -0.32 16.68 -1 16 C-1.66 16.33 -2.32 16.66 -3 17 C-3.27 16.22 -3.54 15.43 -3.81 14.62 C-5 12 -5 12 -8 10 C-10.27 9.68 -10.27 9.68 -12.89 9.59 C-13.82 9.55 -14.76 9.51 -15.73 9.47 C-16.7 9.44 -17.68 9.41 -18.69 9.38 C-19.68 9.34 -20.66 9.3 -21.68 9.26 C-24.12 9.16 -26.56 9.08 -29 9 C-29 8.67 -29 8.34 -29 8 C-28.63 8 -28.63 8 -26.75 8 C-23.4 7.99 -20.04 7.93 -16.69 7.88 C-15.52 7.88 -14.35 7.88 -13.15 7.88 C-9.99 7.81 -7.09 7.7 -4 7 C-1.77 4.01 -1.77 4.01 -1 1 C-0.67 0.67 -0.34 0.34 0 0 Z " fill="#F9F8ED" transform="translate(72,57)"/>
<path d="M0 0 C0.49 0 0.49 0 2.97 0.02 C3.98 0.04 5 0.05 6.05 0.07 C7.08 0.08 8.11 0.09 9.17 0.1 C11.71 0.12 14.26 0.15 16.8 0.2 C16.08 2.17 16.08 2.17 14.8 4.2 C12.73 4.65 12.73 4.65 10.23 4.59 C9.33 4.57 8.43 4.56 7.51 4.55 C6.57 4.51 5.64 4.48 4.67 4.45 C3.73 4.43 2.78 4.41 1.81 4.39 C-0.53 4.34 -2.87 4.28 -5.2 4.2 C-5.86 6.18 -6.52 8.16 -7.2 10.2 C-10.56 9.6 -12.58 8.35 -15.2 6.2 C-13.55 6.2 -11.9 6.2 -10.2 6.2 C-10.12 5.58 -10.04 4.96 -9.95 4.32 C-9.2 2.2 -9.2 2.2 -7.48 1.07 C-4.83 0.05 -2.84 -0.03 0 0 Z " fill="#192130" transform="translate(57.203125,38.8046875)"/>
<path d="M0 0 C3.4 1.13 4.05 2.13 6 5 C1.93 6.53 -2.14 8.05 -6.21 9.57 C-6.9 9.83 -7.59 10.08 -8.29 10.35 C-9.7 10.87 -11.12 11.4 -12.53 11.93 C-17.77 13.89 -17.77 13.89 -20 15 C-20.66 14.67 -21.32 14.34 -22 14 C-21 11 -21 11 -19.07 9.83 C-18.29 9.5 -17.5 9.16 -16.69 8.81 C-15.91 8.47 -15.13 8.12 -14.32 7.77 C-12 7 -12 7 -8 7 C-8 6.34 -8 5.68 -8 5 C-6.87 4.73 -5.73 4.46 -4.56 4.19 C-3.39 3.8 -2.21 3.4 -1 3 C-0.67 2.01 -0.34 1.02 0 0 Z " fill="#091326" transform="translate(34,92)"/>
<path d="M0 0 C2.48 0.55 2.48 0.55 5 2 C5.49 5.26 5.49 5.26 5.31 9.12 C5.27 10.41 5.22 11.69 5.18 13.01 C5.12 14 5.06 14.98 5 16 C4.34 16 3.68 16 3 16 C3 19.63 3 23.26 3 27 C2.67 27 2.34 27 2 27 C2 23.04 2 19.08 2 15 C1.34 15 0.68 15 0 15 C-0.33 16.32 -0.66 17.64 -1 19 C-1.03 16.77 -1.05 14.54 -1.06 12.31 C-1.07 11.69 -1.07 11.69 -1.1 8.55 C-1.01 5.54 -0.71 2.92 0 0 Z " fill="#1A2533" transform="translate(75,53)"/>
<path d="M0 0 C0.44 0 0.44 0 2.67 0.01 C3.55 -0.01 4.43 -0.02 5.34 -0.04 C6.18 -0.04 7.02 -0.04 7.89 -0.04 C8.66 -0.04 9.43 -0.05 10.23 -0.05 C10.87 0.07 11.51 0.2 12.17 0.32 C12.83 1.31 13.49 2.3 14.17 3.32 C10.54 3.32 6.91 3.32 3.17 3.32 C2.84 4.31 2.51 5.3 2.17 6.32 C1.84 5 1.51 3.68 1.17 2.32 C-0.28 3.77 -0.39 5.36 -0.83 7.32 C-3.47 7.32 -6.11 7.32 -8.83 7.32 C-8.96 4.95 -8.96 4.95 -8.83 2.32 C-6 -0.51 -3.86 0.03 0 0 Z " fill="#A4A6A6" transform="translate(58.83203125,41.677734375)"/>
<path d="M0 0 C2.07 -0.2 2.07 -0.2 4.56 -0.12 C4.98 -0.12 4.98 -0.12 7.07 -0.07 C7.7 -0.05 8.34 -0.02 9 0 C8.34 0.33 8.34 0.33 5 2 C6.15 2.6 7.29 3.2 8.47 3.82 C10.92 5.57 11.86 6.43 12.58 9.38 C12.69 12.22 12.61 14.98 12.44 17.81 C12.42 18.3 12.42 18.3 12.34 20.78 C12.26 23.19 12.14 25.59 12 28 C11.67 28 11.34 28 11 28 C9.28 20.91 8.75 14.29 9 7 C8.09 6.92 7.19 6.83 6.25 6.75 C2.6 5.91 1.37 4.82 -1 2 C-0.67 1.34 -0.34 0.68 0 0 Z " fill="#051020" transform="translate(103,62)"/>
<path d="M0 0 C2.12 1.13 4.23 2.3 6.31 3.5 C7.38 4.11 8.45 4.72 9.55 5.34 C9.95 5.62 9.95 5.62 12 7 C12 7.66 12 8.32 12 9 C8.1 8.25 5.83 6.92 2 5 C1.67 9.95 1.34 14.9 1 20 C0.67 20 0.34 20 0 20 C-0.02 19.4 -0.02 19.4 -0.11 16.35 C-0.18 14.78 -0.25 13.2 -0.31 11.62 C-0.34 10.83 -0.36 10.04 -0.38 9.22 C-0.48 7.14 -0.73 5.07 -1 3 C-1.99 2.34 -2.98 1.68 -4 1 C-4 6.94 -4 12.88 -4 19 C-4.33 19 -4.66 19 -5 19 C-4.96 17.87 -4.92 16.73 -4.88 15.56 C-4.92 14.39 -4.96 13.21 -5 12 C-5.66 11.67 -6.32 11.34 -7 11 C-6.34 11 -5.68 11 -5 11 C-5.11 9.37 -5.24 7.75 -5.38 6.12 C-5.44 5.22 -5.51 4.32 -5.59 3.38 C-6 1 -6 1 -8 -1 C-4.26 -2.25 -3.49 -1.65 0 0 Z " fill="#D2D0CD" transform="translate(99,63)"/>
<path d="M0 0 C5 1 5 1 6 2 C6.07 3.85 6.08 5.71 6.06 7.56 C6.05 8.57 6.04 9.59 6.04 10.63 C6.02 11.41 6.01 12.19 6 13 C5.01 12.84 5.01 12.84 0 12 C0 8.04 0 4.08 0 0 Z " fill="#172436" transform="translate(81,58)"/>
<path d="M0 0 C0 0.99 0 1.98 0 3 C-0.66 3 -1.32 3 -2 3 C-2 3.66 -2 4.32 -2 5 C-1.01 5 -0.02 5 1 5 C1 5.66 1 6.32 1 7 C-5.38 7.82 -11.57 8.12 -18 8 C-17 6 -17 6 -14.5 5.12 C-13.34 4.75 -12.19 4.38 -11 4 C-8.63 2.97 -6.29 1.89 -3.95 0.8 C-2 0 -2 0 0 0 Z " fill="#0E192E" transform="translate(33,101)"/>
<path d="M0 0 C5.94 0.66 11.88 1.32 18 2 C18 2.99 18 3.98 18 5 C12.06 5 6.12 5 0 5 C0 3.35 0 1.7 0 0 Z " fill="#8E9293" transform="translate(78,83)"/>
<path d="M0 0 C0.64 0.15 1.29 0.31 1.95 0.46 C5.9 1.16 9.81 1.36 13.81 1.56 C14.21 1.58 14.21 1.58 16.2 1.69 C18.13 1.8 20.07 1.9 22 2 C21.01 2.33 20.02 2.66 19 3 C19 3.66 19 4.32 19 5 C19.99 5.33 20.98 5.66 22 6 C15.07 5.67 8.14 5.34 1 5 C1.66 4.67 2.32 4.34 3 4 C3 3.34 3 2.68 3 2 C2.01 2 1.02 2 0 2 C0 1.34 0 0.68 0 0 Z " fill="#010915" transform="translate(31,104)"/>
<path d="M0 0 C0.66 0 1.32 0 2 0 C2.22 2.6 2.43 5.21 2.62 7.81 C2.69 8.55 2.75 9.29 2.82 10.05 C3.23 15.66 3.23 15.66 1 19 C-1.82 19.29 -1.82 19.29 -5.12 19.19 C-6.22 19.16 -7.32 19.13 -8.45 19.11 C-8.87 19.09 -8.87 19.09 -11 19 C-11 18.01 -11 17.02 -11 16 C-9.02 15.84 -9.02 15.84 1 15 C0.67 10.05 0.34 5.1 0 0 Z " fill="#54595F" transform="translate(110,69)"/>
<path d="M0 0 C4.56 0.56 4.56 0.56 6 2 C6.19 4.44 6.19 4.44 6 7 C5.34 7.66 4.68 8.32 4 9 C-0.56 8.44 -0.56 8.44 -2 7 C-2.19 4.56 -2.19 4.56 -2 2 C-1.34 1.34 -0.68 0.68 0 0 Z " fill="#3F424D" transform="translate(40,68)"/>
<path d="M0 0 C0.83 0.33 0.83 0.33 5 2 C5.49 4.38 5.49 4.38 5.31 7.12 C5.27 8.04 5.22 8.95 5.18 9.88 C5.12 10.58 5.06 11.28 5 12 C3.35 11.67 1.7 11.34 0 11 C0 7.37 0 3.74 0 0 Z " fill="#111D2D" transform="translate(89,62)"/>
<path d="M0 0 C-1.12 0.55 -2.24 1.11 -3.39 1.68 C-4.87 2.41 -6.34 3.14 -7.81 3.88 C-8.55 4.24 -9.29 4.6 -10.05 4.98 C-10.76 5.33 -11.47 5.69 -12.21 6.05 C-12.86 6.38 -13.52 6.7 -14.19 7.04 C-16 8 -16 8 -19 10 C-21.69 10.12 -21.69 10.12 -24 10 C-21.23 6.59 -17.41 5.13 -13.5 3.38 C-12.82 3.06 -12.15 2.75 -11.45 2.43 C-3.55 -1.18 -3.55 -1.18 0 0 Z " fill="#D2D1CD" transform="translate(78,99)"/>
<path d="M0 0 C1.73 0.94 3.46 1.87 5.19 2.81 C6.15 3.33 7.11 3.86 8.11 4.39 C9.06 4.92 10.02 5.45 11 6 C11.94 6.52 12.89 7.04 13.86 7.57 C14.57 8.04 15.27 8.52 16 9 C16 9.66 16 10.32 16 11 C10.73 10.1 6.68 8.99 3 5 C1.68 3.98 0.35 2.98 -1 2 C-0.67 1.34 -0.34 0.68 0 0 Z " fill="#E0DFDE" transform="translate(78,51)"/>
<path d="M0 0 C1.67 -0.04 3.33 -0.04 5 0 C6 1 6 1 6.19 3.44 C6 6 6 6 4 8 C1.5 8.25 1.5 8.25 -1 8 C-3 6 -3 6 -3.12 3.38 C-3.08 2.59 -3.04 1.81 -3 1 C-2.34 1 -1.68 1 -1 1 C-1 2.32 -1 3.64 -1 5 C0.32 5 1.64 5 3 5 C3 3.68 3 2.36 3 1 C2.01 0.67 1.02 0.34 0 0 Z " fill="#1F2333" transform="translate(63,69)"/>
<path d="M0 0 C-3.25 1.34 -6.5 2.67 -9.75 4 C-10.67 4.38 -11.59 4.76 -12.54 5.16 C-13.43 5.52 -14.32 5.88 -15.23 6.25 C-15.64 6.42 -15.64 6.42 -17.71 7.27 C-20 8 -20 8 -24 8 C-22.16 4.33 -17.38 3.66 -13.69 2.31 C-12.82 1.98 -11.95 1.65 -11.06 1.3 C-10.22 0.99 -9.38 0.68 -8.51 0.36 C-7.74 0.08 -6.97 -0.21 -6.18 -0.5 C-3.74 -1.06 -2.34 -0.8 0 0 Z " fill="#CBCDC6" transform="translate(39,99)"/>
<path d="M0 0 C0.99 0 1.98 0 3 0 C3 0.66 3 1.32 3 2 C5.64 2 8.28 2 11 2 C11 3.32 11 4.64 11 6 C8.29 7.35 5.99 7.07 3 7 C3 6.34 3 5.68 3 5 C2.34 5 1.68 5 1 5 C0.67 3.35 0.34 1.7 0 0 Z " fill="#606B77" transform="translate(34,88)"/>
</svg>
