<svg xmlns="http://www.w3.org/2000/svg" width="128" height="128" viewBox="0 0 128 128"><path fill="#070f23" d="M109 38c4.37 3.84 6.61 8.15 7 14l-2 2c-.21 2.26-.21 2.26-.17 5.05l-.02 3.06q0 3.18.06 6.37c-.1 7.65-.1 7.65-2.45 10.29-1.91 1.34-1.91 1.34-5.42 3.23l-1 2 2 1v2c-3.69 3.08-7.11 4.88-11.88 5.5L92 93c-1.31 2.44-1.31 2.44-2 5l-2 2c-8.75-.56-8.75-.56-12-3v-3l3-2c.14-3.02.09-5.76-.12-8.75l-.11-2.42c-.4-6.28-1.57-10.89-6.46-15.21C67.99 63.5 65.79 63.47 61 64c-2.88 1.5-2.88 1.5-5 3h-2c-2.97 8.5-4.16 17.04-3 26l3 2-1 3c-7.26 2.81-14.19 2.93-21.4-.02C30 97 30 97 29.06 94.56 28 92 28 92 25.93 90.89a147 147 0 0 0-4.93-1.9L19 88l-1-3h2c-.25-1.88-.25-1.88-1-4q-1.98-1.02-4-2c-1.31-1.94-1.31-1.94-2-4l1-3c.22-3.02.19-6.04.19-9.06l.03-2.51.01-2.4.01-2.2C14 54 14 54 12 52c.38-3.12.38-3.12 1-6h2l.57-2.74c1.85-4.21 4.41-5.52 8.37-7.45l2.03-1.03C50.09 22.89 86.06 24.06 109 38m-51-6 6 11c4.5-4.5 4.5-4.5 5.75-7.75L71 32zm20 0a42 42 0 0 0 5 11c3.36-3.02 4.22-4.55 6-9zm-37 2c1.17 3.95 2.45 6.78 5 10l3-4.94 1.69-2.77C52 34 52 34 52 33c-7.43-.14-7.43-.14-11 1m14 0a170 170 0 0 0-6 11h12a915 915 0 0 0-3.81-8.59L56 34zm19 0a346 346 0 0 0-4.72 6.84C68 43 68 43 68 45h12a915 915 0 0 0-3.81-8.59L75 34zm-37 3-2 3.44-1.12 1.93C33 44 33 44 33 45h9c-1.19-3.38-2.28-5.65-5-8m54 0-4 8h9c-1.28-3.65-2.17-5.17-5-8m5 0 4 8 4-4c-2.4-2.9-4.31-3.5-8-4m10 5-1 3 4-1-1-2zm-8 27c-1.48 2.96-1.35 5.84-1.56 9.12l-.26 3.89L96 85c3.84-.8 3.84-.8 5.25-2.56 1.12-3.64.99-6.63.75-10.44l-2-3zm-70 1c-2.35 3.53-2.21 5.03-2.12 9.19l.05 3.29L26 85l6 2a908 908 0 0 0 .09-9.49c.02-5.28.02-5.28-1.09-7.51z"/><path fill="#05162b" d="M61 52h12l-4 1c.19 1.84.19 1.84 1 4a26 26 0 0 0 5 2.56A38 38 0 0 1 80 62l1 3h2c2.41 5.29 3.36 9.22 3 15l4 1h-4v11h2v-2l2.5-.69L93 88c.44-3.56.44-3.56 0-7l-2-1h2l.04-2.23c.23-4.73.41-7.92 3.02-11.96 4.05-2.49 6.24-2.35 10.94-1.81l2 2-.06-3.69c-.01-3.23.27-6.16 1.06-9.31h-5v5h-2v-5h-7v-1h16q.24 6.38.38 12.75l.15 3.66c.14 8.75.14 8.75-1.86 11.24-1.63 1.05-1.63 1.05-4.67 2.35l-1 2 2 1v2c-3.69 3.08-7.11 4.88-11.88 5.5L92 93c-1.31 2.44-1.31 2.44-2 5l-2 2c-8.75-.56-8.75-.56-12-3v-3l3-2c.14-3.02.09-5.76-.12-8.75l-.11-2.42c-.4-6.28-1.57-10.89-6.46-15.21C67.99 63.5 65.79 63.47 61 64c-2.88 1.5-2.88 1.5-5 3h-2c-2.97 8.5-4.16 17.04-3 26l3 2-1 3c-5.14 1.99-9.52 2.19-15 2l2-1v-2h2l-.06-2.08q-.12-4.71-.19-9.42l-.1-3.27c-.1-8.38 1.32-13.64 6.73-20.04C52.02 59.15 55.18 57 60 57l1-2v2h7v-4h-7zm37 17c-1.48 2.96-1.35 5.84-1.56 9.12l-.26 3.89L96 85c3.84-.8 3.84-.8 5.25-2.56 1.12-3.64.99-6.63.75-10.44l-2-3z"/><path fill="#08182c" d="M53.04 51.87c5.1.02 9.94.26 14.96 1.13v4l-3.44-.25c-4.48-.03-7.71 1.39-11.68 3.38C51 61 51 61 49 61c-1 1.79-1 1.79-2 4l-1.04 1.7c-3.56 6.08-3.62 11.9-3.71 18.8l-.1 3.36A742 742 0 0 0 42 97h-2v2c-3.1-.01-6.01-.16-9-1a129 129 0 0 1-3-6 45 45 0 0 0-7.04-3.04L19 88l-1-3h2c-.25-1.87-.25-1.87-1-4q-1.98-1.02-4-2c-1.25-2.12-1.25-2.12-2-4l1-1c.29-3 .45-6 .62-9.02.37-2.88 1.1-4.43 2.38-6.98v-5h14v5l2-1v-4h7v5h2v-5l3.94.07q2.02.03 4.06-.07c1-1 1-1 3.04-1.13M28 70c-2.35 3.53-2.21 5.03-2.12 9.19q.01 1.62.05 3.29L26 85l6 2a905 905 0 0 0 .09-9.5c.02-5.27.02-5.27-1.1-7.5z"/><path fill="#030c1e" d="m64.94 27.75 3.88-.02c7.92.01 15.42.68 23.18 2.27l-4 2 6 5 1-2 4 2-2 1 1.94 2.75c1.73 2.73 2.44 4.22 3.06 7.25a8983 8983 0 0 1-28.45.1l-13.21.05-12.74.04-4.87.02-6.8.02-3.92.01C29 48 29 48 27 46h2l.88-2.19A22 22 0 0 1 35 36h4l1-3 3-1-4-2c8.69-1.98 17.06-2.3 25.94-2.25M58 32l6 11c4.5-4.5 4.5-4.5 5.75-7.75L71 32zm20 0a42 42 0 0 0 5 11c3.36-3.02 4.22-4.55 6-9zm-37 2c1.17 3.95 2.45 6.78 5 10l3-4.94 1.69-2.77c1.3-2.29 1.3-2.29 1.3-3.29-7.42-.14-7.42-.14-11 1m14 0a175 175 0 0 0-6 11h12a915 915 0 0 0-3.81-8.59q-.58-1.19-1.2-2.41zm19 0a110 110 0 0 0-3.06 4.37l-1.66 2.47C68 43 68 43 68 45h12l-2.44-5.5-1.37-3.09-1.2-2.41zm-37 3-2 3.44-1.12 1.93C33 44 33 44 33 45h9c-1.18-3.38-2.27-5.65-5-8m54 0-4 8h9c-1.28-3.65-2.16-5.17-5-8"/><path fill="#e6e4d8" d="m80.88 51.88 2.1-.02c4.13.02 7.97.41 12.02 1.13q2.18.11 4.38.07c.6 0 .6 0 3.62-.07v5h2v-5h5v14c-1-.64-1.97-1.3-3-2-1.94-.22-1.94-.22-4-.17l-2.06.02C99 65 99 65 96 66a59 59 0 0 0-1.69 7.13l-.4 1.98a47 47 0 0 0-.83 9.8L93 88c-2.5 1.31-2.5 1.31-5 2v2h-2l.08-2.23A90 90 0 0 0 83 65h-2l-1.62-1.74c-2.72-2.59-5.33-3.73-8.77-5.13L69 56.99v-4c3.9-1.27 7.83-1.14 11.88-1.12"/><path fill="#c9ccca" d="M34 36a123 123 0 0 1-5 11l84 1v3H15v-3l3-1 1-2.06L20 43h3a262 262 0 0 0 5-5c2.25-1.35 3.39-2 6-2"/><path fill="#c1c2bb" d="M17 53h14v5l2-1v-4h7v4h-2v2h4l-1 4-2.94-.06C35 63 35 63 34 64h3v5h-4l-1.75-2c-2.87-2.55-4.54-2.44-8.25-2.43C21 65 21 65 17 68z"/><path fill="#c1c1b6" d="M39 64c2.44.31 2.44.31 5 1 1.24 3.72.44 4.48-1 8-.32 2.68-.32 2.68-.41 5.52l-.12 3.1-.09 3.19-.12 3.26Q42.11 92.04 42 96c-2.5-.88-2.5-.88-5-2v-2h-2V71l4-1z"/><path fill="#babbb7" d="M53.04 51.87c5.1.02 9.94.26 14.96 1.13v4l-3.44-.25c-4.48-.03-7.71 1.39-11.68 3.38C51 61 51 61 49 61c-1.12 2-1.12 2-2 4l-4-2 1-4h3v-2h-5v-4l3.94.07q2.02.03 4.06-.07c1-1 1-1 3.04-1.13"/><path fill="#acaca6" d="M93 53h10v5h2v-5h5v14l-3-2-3.56-.38L100 64l-.93-1.99L98 60c-2.16-.61-2.16-.61-4.62-.75l-2.48-.17L89 59v-2h4z"/><path fill="#ebeadf" d="M33 53h7v4h-2v2h4l-1 4-2.94-.06C35 63 35 63 34 64h3v5c-4 0-4 0-6.88-2.75C28 63 28 63 28.25 60.62 30 59 30 59 33.62 58.75L37 59v-2h-4z"/><path fill="#d6d5cc" d="M87 76h6q.2 2.94.31 5.88l.18 3.3L93 88c-2.52 1.26-2.52 1.26-5 2v2h-2l-.06-5.19-.04-2.92c.1-2.75.48-5.21 1.1-7.89"/><path fill="#545a63" d="M34 36a124 124 0 0 1-5 11v1l-4.38.06-2.46.04C20 48 20 48 18 47c.81-2 .81-2 2-4h3a262 262 0 0 0 5-5c2.25-1.35 3.39-2 6-2"/><path fill="#8d908e" d="M81.25 51.94h2.26L89 52l-2 1c-.13 3.06-.13 3.06 0 6h-6v-2h5v-4h-8l-.37 2.38C77 58 77 58 75 60c-3-1.25-3-1.25-6-3v-4c4.09-1.15 8.03-1.11 12.25-1.06"/><path fill="#040a16" d="m15 44 3 1v2l2 1h-5v3h2c.85 5.38 1 9.65 0 15h-1l-1 6h-1l.07-3.87.05-5.01.06-2.55.02-2.44.03-2.25C14 54 14 54 12 52c.38-3.12.38-3.12 1-6h2z"/><path fill="#efede0" d="M42 53h7v3l3 1-1 4h-2c-1.12 2-1.12 2-2 4l-4-2 1-4h3v-2h-5z"/><path fill="#9c9c97" d="M85 61h2v2l3.25-1.31L94 61c2.44 2.38 2.44 2.38 4 5l-8-2 1 6-2.44.38L86 71l-1 2q-.58-2.15-1.12-4.31l-.64-2.43C83 64 83 64 85 61"/><path fill="#eeede2" d="M35 82h6v13l-4-1v-2h-2z"/><path fill="#e7e6da" d="M39 64c2.44.31 2.44.31 5 1 1 3 1 3 0 6.19L42 74c-3.69.38-3.69.38-7 0v-3l4-1z"/><path fill="#6f6f6f" d="M38 57h9v2h-3l.5 2.31C45 64 45 64 45 67l-2-2c-2.12-.62-2.12-.62-4-1v6l-1.94.38L35 71l-1 2v-3l2-1c.62-2.56.62-2.56 1-5h-3l1-2c3.06-.12 3.06-.12 6 0l1-3h-4z"/><path fill="#eceae0" d="M105 53h5v14l-4-3c.25-3.69.25-3.69 1-7h-2z"/><path fill="#e3e3e1" d="M34 36a29 29 0 0 1-5 9l-3-1c-.69-2.06-.69-2.06-1-4 6.75-4 6.75-4 9-4"/></svg>