<svg xmlns="http://www.w3.org/2000/svg" width="128" height="128" viewBox="0 0 128 128">
  <path fill="#070f23" d="M14 47C22 35 42 29 64 29s42 6 50 18l-3 42c-6 2-10 7-18 8-8 2-16-4-24-4-11 0-19 7-30 5-9-2-15-8-25-4l-2-8c5-5 6-13 3-20-2-7-4-13-1-19Z"/>
  <path fill="#fcf9e4" d="M17 45c13-8 29-12 47-12s34 4 47 12v5H17Z"/>
  <path fill="#070f23" d="M17 40c13-8 29-12 47-12s34 4 47 12l-2 4c-13-7-28-10-45-10s-32 3-45 10Z"/>
  <path fill="#8d908e" d="M22 41c11-5 25-8 42-8s31 3 42 8l-1 3c-12-4-25-6-41-6s-29 2-41 6Z"/>
  <path fill="#070f23" d="M24 45l8-9h4l-8 9Zm16 0l8-11h4l-8 11Zm16 0l7-12h4l-7 12Zm15 0l7-12h4l-7 12Zm15 0l8-11h4l-8 11Zm-57-9h4l9 9h-4Zm18-3h4l10 12h-4Zm18 0h4l10 12h-4Zm18 1h4l10 11h-4Zm18 4h4l6 7h-4Z"/>
  <path fill="#fcf9e4" d="M16 49h97v6H16Z"/>
  <path fill="#c9ccca" d="M18 55h93v4H18Z"/>
  <path fill="#fcf9e4" d="M18 59h92v31H18Z"/>
  <path fill="#c9ccca" d="M20 62h8v3h-8Zm11 0h7v3h-7Zm11 0h8v3h-8Zm41 0h8v3h-8Zm11 0h7v3h-7Zm-75 8h7v3h-7Zm11 0h7v3h-7Zm12 0h7v3h-7Zm51 0h7v3h-7Zm10 0h6v3h-6Zm-81 10h7v3h-7Zm72 0h7v3h-7Z"/>
  <path fill="#070f23" d="M50 98V76c0-13 9-23 20-23s20 10 20 23v22c-7-2-13-5-20-5s-14 3-20 5Z"/>
  <path fill="#070f23" d="M19 91V77c0-9 7-17 16-17s16 8 16 17v20c-5 2-10 2-16-1V78c0-4-3-8-7-8s-7 4-7 8v13Z"/>
  <path fill="#070f23" d="M77 98V77c0-9 7-17 16-17s16 8 16 17v12c-6 2-10 7-18 8V78c0-4-3-8-7-8s-7 4-7 8v20Z"/>
  <path fill="#fcf9e4" d="M33 64h10v34h-10ZM86 64h10v34h-10Z"/>
  <path fill="#070f23" d="M14 96h100v4H14Z"/>
</svg>