<?xml version="1.0" encoding="UTF-8"?>
<!-- Generator: visioncortex VTracer 0.6.12 -->
<svg version="1.1" xmlns="http://www.w3.org/2000/svg" width="128" height="128" viewBox="0 0 128 128" preserveAspectRatio="xMidYMid meet">
<path d="M0 0 C4.37 3.84 6.61 8.15 7 14 C6.34 14.66 5.68 15.32 5 16 C4.79 18.26 4.79 18.26 4.83 21.05 C4.82 22.06 4.82 23.07 4.81 24.11 C4.81 26.23 4.83 28.36 4.87 30.48 C4.77 38.13 4.77 38.13 2.42 40.77 C0.51 42.11 0.51 42.11 -3 44 C-3.16 44.33 -3.16 44.33 -4 46 C-3.34 46.33 -2.68 46.66 -2 47 C-2 47.66 -2 48.32 -2 49 C-5.69 52.08 -9.11 53.88 -13.88 54.5 C-14.91 54.67 -15.94 54.83 -17 55 C-18.31 57.44 -18.31 57.44 -19 60 C-19.66 60.66 -20.32 61.32 -21 62 C-29.75 61.44 -29.75 61.44 -33 59 C-33 58.01 -33 57.02 -33 56 C-32.01 55.34 -31.02 54.68 -30 54 C-29.86 50.98 -29.91 48.24 -30.12 45.25 C-30.16 44.45 -30.2 43.65 -30.23 42.83 C-30.63 36.55 -31.8 31.94 -36.69 27.62 C-41.01 25.5 -43.21 25.47 -48 26 C-50.88 27.5 -50.88 27.5 -53 29 C-53.66 29 -54.32 29 -55 29 C-57.97 37.5 -59.16 46.04 -58 55 C-57.01 55.66 -56.02 56.32 -55 57 C-55.16 57.5 -55.16 57.5 -56 60 C-63.26 62.81 -70.19 62.93 -77.4 59.98 C-79 59 -79 59 -79.94 56.56 C-81 54 -81 54 -83.07 52.89 C-84.7 52.23 -86.35 51.59 -88 50.99 C-88.66 50.66 -89.32 50.34 -90 50 C-90.16 49.5 -90.16 49.5 -91 47 C-90.34 47 -89.68 47 -89 47 C-89.25 45.12 -89.25 45.12 -90 43 C-91.32 42.32 -92.66 41.65 -94 41 C-95.31 39.06 -95.31 39.06 -96 37 C-95.67 36.01 -95.34 35.02 -95 34 C-94.78 30.98 -94.81 27.96 -94.81 24.94 C-94.81 24.52 -94.81 24.52 -94.78 22.43 C-94.77 21.64 -94.77 20.84 -94.77 20.03 C-94.77 19.67 -94.77 19.67 -94.76 17.83 C-95 16 -95 16 -97 14 C-96.62 10.88 -96.62 10.88 -96 8 C-95.34 8 -94.68 8 -94 8 C-93.81 7.1 -93.63 6.19 -93.43 5.26 C-91.58 1.05 -89.02 -0.26 -85.06 -2.19 C-84.39 -2.53 -83.72 -2.87 -83.03 -3.22 C-58.91 -15.11 -22.94 -13.94 0 0 Z M-51 -6 C-49.02 -2.37 -47.04 1.26 -45 5 C-40.5 0.5 -40.5 0.5 -39.25 -2.75 C-38.84 -3.82 -38.42 -4.89 -38 -6 C-42.29 -6 -46.58 -6 -51 -6 Z M-31 -6 C-29.77 -1.95 -28.3 1.44 -26 5 C-22.64 1.98 -21.78 0.45 -20 -4 C-23.63 -4.66 -27.26 -5.32 -31 -6 Z M-68 -4 C-66.83 -0.05 -65.55 2.78 -63 6 C-62 4.36 -61 2.71 -60 1.06 C-59.44 0.15 -58.89 -0.77 -58.31 -1.71 C-57 -4 -57 -4 -57 -5 C-64.43 -5.14 -64.43 -5.14 -68 -4 Z M-54 -4 C-56.16 -0.38 -58.11 3.23 -60 7 C-56.04 7 -52.08 7 -48 7 C-48.81 5.16 -49.62 3.33 -50.44 1.5 C-50.89 0.48 -51.34 -0.54 -51.81 -1.59 C-52.2 -2.39 -52.59 -3.18 -53 -4 C-53.33 -4 -53.66 -4 -54 -4 Z M-35 -4 C-36.06 -2.57 -37.07 -1.11 -38.06 0.38 C-38.61 1.19 -39.16 2 -39.72 2.84 C-41 5 -41 5 -41 7 C-37.04 7 -33.08 7 -29 7 C-29.81 5.16 -30.62 3.33 -31.44 1.5 C-31.89 0.48 -32.34 -0.54 -32.81 -1.59 C-33.2 -2.39 -33.59 -3.18 -34 -4 C-34.33 -4 -34.66 -4 -35 -4 Z M-72 -1 C-72.66 0.13 -73.32 1.27 -74 2.44 C-74.37 3.08 -74.74 3.71 -75.12 4.37 C-76 6 -76 6 -76 7 C-73.03 7 -70.06 7 -67 7 C-68.19 3.62 -69.28 1.35 -72 -1 Z M-18 -1 C-19.32 1.64 -20.64 4.28 -22 7 C-19.03 7 -16.06 7 -13 7 C-14.28 3.35 -15.17 1.83 -18 -1 Z M-13 -1 C-11.68 1.64 -10.36 4.28 -9 7 C-7.68 5.68 -6.36 4.36 -5 3 C-7.4 0.1 -9.31 -0.5 -13 -1 Z M-3 4 C-3.33 4.99 -3.66 5.98 -4 7 C-2.68 6.67 -1.36 6.34 0 6 C-0.33 5.34 -0.66 4.68 -1 4 C-1.66 4 -2.32 4 -3 4 Z M-11 31 C-12.48 33.96 -12.35 36.84 -12.56 40.12 C-12.65 41.41 -12.73 42.69 -12.82 44.01 C-12.88 45 -12.94 45.98 -13 47 C-9.16 46.2 -9.16 46.2 -7.75 44.44 C-6.63 40.8 -6.76 37.81 -7 34 C-7.66 33.01 -8.32 32.02 -9 31 C-9.66 31 -10.32 31 -11 31 Z M-81 32 C-83.35 35.53 -83.21 37.03 -83.12 41.19 C-83.11 42.27 -83.09 43.36 -83.07 44.48 C-83.05 45.31 -83.02 46.14 -83 47 C-81.02 47.66 -79.04 48.32 -77 49 C-76.97 46.54 -76.95 44.08 -76.94 41.62 C-76.93 40.93 -76.92 40.23 -76.91 39.51 C-76.89 34.23 -76.89 34.23 -78 32 C-78.99 32 -79.98 32 -81 32 Z " fill="#070F23" transform="translate(109,38)"/>
<path d="M0 0 C3.96 0 7.92 0 12 0 C10.68 0.33 9.36 0.66 8 1 C8.19 2.84 8.19 2.84 9 5 C11.25 6.38 11.25 6.38 14 7.56 C16.75 8.75 16.75 8.75 19 10 C19.16 10.5 19.16 10.5 20 13 C20.66 13 21.32 13 22 13 C24.41 18.29 25.36 22.22 25 28 C26.32 28.33 27.64 28.66 29 29 C27.68 29 26.36 29 25 29 C25 32.63 25 36.26 25 40 C25.66 40 26.32 40 27 40 C27 39.34 27 38.68 27 38 C27.83 37.77 28.65 37.55 29.5 37.31 C30.33 36.88 31.15 36.45 32 36 C32.44 32.44 32.44 32.44 32 29 C31.34 28.67 30.68 28.34 30 28 C30.66 28 31.32 28 32 28 C32.01 27.26 32.03 26.53 32.04 25.77 C32.27 21.04 32.45 17.85 35.06 13.81 C39.11 11.32 41.3 11.46 46 12 C46.33 12.33 46.33 12.33 48 14 C47.98 12.78 47.96 11.57 47.94 10.31 C47.93 7.08 48.21 4.15 49 1 C47.35 1 45.7 1 44 1 C44 2.65 44 4.3 44 6 C43.34 6 42.68 6 42 6 C42 4.35 42 2.7 42 1 C39.69 1 37.38 1 35 1 C35 0.67 35 0.34 35 0 C40.28 0 45.56 0 51 0 C51.16 4.25 51.28 8.5 51.38 12.75 C51.43 13.96 51.48 15.16 51.53 16.41 C51.67 25.16 51.67 25.16 49.67 27.65 C48.04 28.7 48.04 28.7 45 30 C44.67 30.66 44.34 31.32 44 32 C44.66 32.33 45.32 32.66 46 33 C46 33.66 46 34.32 46 35 C42.31 38.08 38.89 39.88 34.12 40.5 C33.61 40.58 33.61 40.58 31 41 C29.69 43.44 29.69 43.44 29 46 C28.34 46.66 27.68 47.32 27 48 C18.25 47.44 18.25 47.44 15 45 C15 44.01 15 43.02 15 42 C15.99 41.34 16.98 40.68 18 40 C18.14 36.98 18.09 34.24 17.88 31.25 C17.86 30.85 17.86 30.85 17.77 28.83 C17.37 22.55 16.2 17.94 11.31 13.62 C6.99 11.5 4.79 11.47 0 12 C-2.88 13.5 -2.88 13.5 -5 15 C-5.66 15 -6.32 15 -7 15 C-9.97 23.5 -11.16 32.04 -10 41 C-9.01 41.66 -8.02 42.32 -7 43 C-7.33 43.99 -7.66 44.98 -8 46 C-13.14 47.99 -17.52 48.19 -23 48 C-22.67 47.84 -22.67 47.84 -21 47 C-21 46.34 -21 45.68 -21 45 C-20.34 45 -19.68 45 -19 45 C-19.01 44.66 -19.01 44.66 -19.06 42.92 C-19.15 39.78 -19.2 36.64 -19.25 33.5 C-19.28 32.42 -19.32 31.34 -19.35 30.23 C-19.45 21.85 -18.03 16.59 -12.62 10.19 C-8.98 7.15 -5.82 5 -1 5 C-0.67 4.34 -0.34 3.68 0 3 C0 3.66 0 4.32 0 5 C2.31 5 4.62 5 7 5 C7 3.68 7 2.36 7 1 C4.69 1 2.38 1 0 1 C0 0.67 0 0.34 0 0 Z M37 17 C35.52 19.96 35.65 22.84 35.44 26.12 C35.35 27.41 35.27 28.69 35.18 30.01 C35.12 31 35.06 31.98 35 33 C38.84 32.2 38.84 32.2 40.25 30.44 C41.37 26.8 41.24 23.81 41 20 C40.34 19.01 39.68 18.02 39 17 C38.34 17 37.68 17 37 17 Z " fill="#05162B" transform="translate(61,52)"/>
<path d="M0 0 C5.1 0.02 9.94 0.26 14.96 1.13 C14.96 2.45 14.96 3.77 14.96 5.13 C13.83 5.05 12.69 4.97 11.52 4.88 C7.04 4.85 3.81 6.27 -0.16 8.26 C-2.04 9.13 -2.04 9.13 -4.04 9.13 C-5.03 10.92 -5.03 10.92 -6.04 13.13 C-6.38 13.69 -6.73 14.26 -7.08 14.83 C-10.64 20.91 -10.7 26.73 -10.79 33.63 C-10.8 34.19 -10.8 34.19 -10.88 36.99 C-10.95 39.71 -11 42.42 -11.04 45.13 C-11.7 45.13 -12.36 45.13 -13.04 45.13 C-13.04 45.79 -13.04 46.45 -13.04 47.13 C-16.14 47.12 -19.05 46.97 -22.04 46.13 C-23.09 44.16 -24.09 42.16 -25.04 40.13 C-27.33 38.86 -29.61 37.96 -32.08 37.09 C-32.4 36.93 -32.4 36.93 -34.04 36.13 C-34.2 35.64 -34.2 35.64 -35.04 33.13 C-34.38 33.13 -33.72 33.13 -33.04 33.13 C-33.29 31.26 -33.29 31.26 -34.04 29.13 C-35.36 28.45 -36.7 27.78 -38.04 27.13 C-39.29 25.01 -39.29 25.01 -40.04 23.13 C-39.71 22.8 -39.38 22.47 -39.04 22.13 C-38.75 19.13 -38.59 16.13 -38.42 13.11 C-38.05 10.23 -37.31 8.68 -36.04 6.13 C-36.04 4.48 -36.04 2.83 -36.04 1.13 C-31.42 1.13 -26.8 1.13 -22.04 1.13 C-22.04 2.78 -22.04 4.43 -22.04 6.13 C-21.38 5.8 -20.72 5.47 -20.04 5.13 C-20.04 3.81 -20.04 2.49 -20.04 1.13 C-17.73 1.13 -15.42 1.13 -13.04 1.13 C-13.04 2.78 -13.04 4.43 -13.04 6.13 C-12.38 6.13 -11.72 6.13 -11.04 6.13 C-11.04 4.48 -11.04 2.83 -11.04 1.13 C-9.74 1.15 -8.44 1.17 -7.1 1.2 C-5.75 1.22 -4.39 1.2 -3.04 1.13 C-2.04 0.13 -2.04 0.13 0 0 Z M-25.04 18.13 C-27.39 21.66 -27.25 23.16 -27.16 27.32 C-27.15 28.41 -27.13 29.49 -27.11 30.61 C-27.09 31.44 -27.06 32.28 -27.04 33.13 C-25.06 33.79 -23.08 34.45 -21.04 35.13 C-21.01 32.67 -20.99 30.22 -20.98 27.76 C-20.97 27.06 -20.96 26.36 -20.95 25.64 C-20.93 20.36 -20.93 20.36 -22.04 18.13 C-23.03 18.13 -24.02 18.13 -25.04 18.13 Z " fill="#08182C" transform="translate(53.0390625,51.8671875)"/>
<path d="M0 0 C0.64 -0 0.64 -0 3.88 -0.02 C11.8 -0.01 19.3 0.66 27.06 2.25 C26.4 2.58 26.4 2.58 23.06 4.25 C24.05 5.08 24.05 5.08 29.06 9.25 C29.39 8.59 29.72 7.93 30.06 7.25 C31.38 7.91 32.7 8.57 34.06 9.25 C33.4 9.58 32.74 9.91 32.06 10.25 C32.38 10.7 32.38 10.7 34 13 C35.73 15.73 36.44 17.22 37.06 20.25 C27.58 20.3 18.1 20.33 8.61 20.35 C4.21 20.36 -0.19 20.38 -4.6 20.4 C-8.84 20.42 -13.09 20.43 -17.34 20.44 C-18.96 20.44 -20.58 20.45 -22.21 20.46 C-24.47 20.48 -26.74 20.48 -29.01 20.48 C-30.3 20.48 -31.59 20.49 -32.93 20.49 C-35.94 20.25 -35.94 20.25 -37.94 18.25 C-37.28 18.25 -36.62 18.25 -35.94 18.25 C-35.65 17.53 -35.36 16.81 -35.06 16.06 C-33.78 12.86 -32.34 10.72 -29.94 8.25 C-28.62 8.25 -27.3 8.25 -25.94 8.25 C-25.61 7.26 -25.28 6.27 -24.94 5.25 C-23.95 4.92 -22.96 4.59 -21.94 4.25 C-23.26 3.59 -24.58 2.93 -25.94 2.25 C-17.25 0.27 -8.88 -0.05 0 0 Z M-6.94 4.25 C-4.96 7.88 -2.98 11.51 -0.94 15.25 C3.56 10.75 3.56 10.75 4.81 7.5 C5.22 6.43 5.64 5.36 6.06 4.25 C1.77 4.25 -2.52 4.25 -6.94 4.25 Z M13.06 4.25 C14.29 8.3 15.76 11.69 18.06 15.25 C21.42 12.23 22.28 10.7 24.06 6.25 C20.43 5.59 16.8 4.93 13.06 4.25 Z M-23.94 6.25 C-22.77 10.2 -21.49 13.03 -18.94 16.25 C-17.93 14.61 -16.94 12.96 -15.94 11.31 C-15.38 10.4 -14.82 9.48 -14.25 8.54 C-12.94 6.25 -12.94 6.25 -12.94 5.25 C-20.37 5.11 -20.37 5.11 -23.94 6.25 Z M-9.94 6.25 C-12.09 9.87 -14.05 13.48 -15.94 17.25 C-11.98 17.25 -8.02 17.25 -3.94 17.25 C-4.75 15.41 -5.56 13.58 -6.38 11.75 C-6.83 10.73 -7.28 9.71 -7.75 8.66 C-8.14 7.86 -8.53 7.07 -8.94 6.25 C-9.27 6.25 -9.6 6.25 -9.94 6.25 Z M9.06 6.25 C8 7.68 6.99 9.14 6 10.62 C5.45 11.44 4.9 12.25 4.34 13.09 C3.06 15.25 3.06 15.25 3.06 17.25 C7.02 17.25 10.98 17.25 15.06 17.25 C14.25 15.41 13.44 13.58 12.62 11.75 C12.17 10.73 11.72 9.71 11.25 8.66 C10.86 7.86 10.47 7.07 10.06 6.25 C9.73 6.25 9.4 6.25 9.06 6.25 Z M-27.94 9.25 C-28.6 10.38 -29.26 11.52 -29.94 12.69 C-30.31 13.33 -30.68 13.96 -31.06 14.62 C-31.94 16.25 -31.94 16.25 -31.94 17.25 C-28.97 17.25 -26 17.25 -22.94 17.25 C-24.12 13.87 -25.21 11.6 -27.94 9.25 Z M26.06 9.25 C24.74 11.89 23.42 14.53 22.06 17.25 C25.03 17.25 28 17.25 31.06 17.25 C29.78 13.6 28.9 12.08 26.06 9.25 Z " fill="#030C1E" transform="translate(64.9375,27.75)"/>
<path d="M0 0 C0.35 -0 0.35 -0 2.11 -0.01 C6.23 -0 10.08 0.4 14.12 1.12 C15.58 1.19 17.04 1.21 18.5 1.19 C19.1 1.18 19.1 1.18 22.12 1.12 C22.12 2.77 22.12 4.42 22.12 6.12 C22.78 6.12 23.44 6.12 24.12 6.12 C24.12 4.48 24.12 2.83 24.12 1.12 C25.78 1.12 27.42 1.12 29.12 1.12 C29.12 5.74 29.12 10.37 29.12 15.12 C28.13 14.47 27.15 13.81 26.12 13.12 C24.19 12.89 24.19 12.89 22.12 12.94 C21.78 12.94 21.78 12.94 20.06 12.96 C18.12 13.12 18.12 13.12 15.12 14.12 C14.39 16.54 13.87 18.77 13.44 21.25 C13.37 21.58 13.37 21.58 13.04 23.23 C12.42 26.58 12.13 29.62 12.2 33.04 C12.17 34.05 12.15 35.07 12.12 36.12 C9.62 37.44 9.62 37.44 7.12 38.12 C7.12 38.78 7.12 39.44 7.12 40.12 C6.47 40.12 5.81 40.12 5.12 40.12 C5.15 39.39 5.17 38.65 5.2 37.89 C5.35 29.29 4.26 21.43 2.12 13.12 C1.47 13.12 0.81 13.12 0.12 13.12 C-0.41 12.55 -0.95 11.97 -1.5 11.38 C-4.22 8.8 -6.83 7.65 -10.27 6.25 C-10.8 5.88 -11.33 5.51 -11.88 5.12 C-11.88 3.8 -11.88 2.48 -11.88 1.12 C-7.97 -0.15 -4.05 -0.02 0 0 Z " fill="#E6E4D8" transform="translate(80.875,51.875)"/>
<path d="M0 0 C-1.47 3.83 -3.15 7.29 -5 11 C22.72 11.33 50.44 11.66 79 12 C79 12.99 79 13.98 79 15 C46.66 15 14.32 15 -19 15 C-19 14.01 -19 13.02 -19 12 C-18.01 11.67 -17.02 11.34 -16 11 C-15.67 10.32 -15.34 9.64 -15 8.94 C-14.84 8.62 -14.84 8.62 -14 7 C-13.01 7 -12.02 7 -11 7 C-9.31 5.36 -7.65 3.69 -6 2 C-3.75 0.65 -2.61 0 0 0 Z " fill="#C9CCCA" transform="translate(34,36)"/>
<path d="M0 0 C4.62 0 9.24 0 14 0 C14 1.65 14 3.3 14 5 C14.66 4.67 15.32 4.34 16 4 C16 2.68 16 1.36 16 0 C18.31 0 20.62 0 23 0 C23 1.32 23 2.64 23 4 C22.34 4 21.68 4 21 4 C21 4.66 21 5.32 21 6 C22.32 6 23.64 6 25 6 C24.67 7.32 24.34 8.64 24 10 C23.03 9.98 22.06 9.96 21.06 9.94 C18 10 18 10 17 11 C17.99 11 18.98 11 20 11 C20 12.65 20 14.3 20 16 C18.68 16 17.36 16 16 16 C15.42 15.34 14.84 14.68 14.25 14 C11.38 11.45 9.71 11.56 6 11.57 C4 12 4 12 0 15 C0 10.05 0 5.1 0 0 Z " fill="#C1C2BB" transform="translate(17,53)"/>
<path d="M0 0 C2.44 0.31 2.44 0.31 5 1 C6.24 4.72 5.44 5.48 4 9 C3.68 11.68 3.68 11.68 3.59 14.52 C3.55 15.54 3.51 16.56 3.47 17.62 C3.44 18.67 3.41 19.73 3.38 20.81 C3.34 21.89 3.3 22.96 3.26 24.07 C3.16 26.71 3.08 29.36 3 32 C0.5 31.12 0.5 31.12 -2 30 C-2 29.34 -2 28.68 -2 28 C-2.66 28 -3.32 28 -4 28 C-4 21.07 -4 14.14 -4 7 C-2.68 6.67 -1.36 6.34 0 6 C0 4.02 0 2.04 0 0 Z " fill="#C1C1B6" transform="translate(39,64)"/>
<path d="M0 0 C5.1 0.02 9.94 0.26 14.96 1.13 C14.96 2.45 14.96 3.77 14.96 5.13 C13.83 5.05 12.69 4.97 11.52 4.88 C7.04 4.85 3.81 6.27 -0.16 8.26 C-2.04 9.13 -2.04 9.13 -4.04 9.13 C-5.16 11.13 -5.16 11.13 -6.04 13.13 C-7.36 12.47 -8.68 11.81 -10.04 11.13 C-9.71 9.81 -9.38 8.49 -9.04 7.13 C-8.05 7.13 -7.06 7.13 -6.04 7.13 C-6.04 6.47 -6.04 5.81 -6.04 5.13 C-7.69 5.13 -9.34 5.13 -11.04 5.13 C-11.04 3.81 -11.04 2.49 -11.04 1.13 C-9.74 1.15 -8.44 1.17 -7.1 1.2 C-5.75 1.22 -4.39 1.2 -3.04 1.13 C-2.04 0.13 -2.04 0.13 0 0 Z " fill="#BABBB7" transform="translate(53.0390625,51.8671875)"/>
<path d="M0 0 C3.3 0 6.6 0 10 0 C10 1.65 10 3.3 10 5 C10.66 5 11.32 5 12 5 C12 3.35 12 1.7 12 0 C13.65 0 15.3 0 17 0 C17 4.62 17 9.24 17 14 C16.01 13.34 15.02 12.68 14 12 C12.82 11.88 11.65 11.75 10.44 11.62 C9.87 11.52 9.87 11.52 7 11 C6.85 10.67 6.85 10.67 6.07 9.01 C5.72 8.35 5.37 7.68 5 7 C2.84 6.39 2.84 6.39 0.38 6.25 C-0.03 6.22 -0.03 6.22 -2.1 6.08 C-2.73 6.05 -3.35 6.03 -4 6 C-4 5.34 -4 4.68 -4 4 C-2.68 4 -1.36 4 0 4 C0 2.68 0 1.36 0 0 Z " fill="#ACACA6" transform="translate(93,53)"/>
<path d="M0 0 C2.31 0 4.62 0 7 0 C7 1.32 7 2.64 7 4 C6.34 4 5.68 4 5 4 C5 4.66 5 5.32 5 6 C6.32 6 7.64 6 9 6 C8.67 7.32 8.34 8.64 8 10 C7.03 9.98 6.06 9.96 5.06 9.94 C2 10 2 10 1 11 C1.99 11 2.98 11 4 11 C4 12.65 4 14.3 4 16 C0 16 0 16 -2.88 13.25 C-5 10 -5 10 -4.75 7.62 C-3 6 -3 6 0.62 5.75 C1.74 5.83 2.85 5.91 4 6 C4 5.34 4 4.68 4 4 C2.68 4 1.36 4 0 4 C0 2.68 0 1.36 0 0 Z " fill="#EBEADF" transform="translate(33,53)"/>
<path d="M0 0 C1.98 0 3.96 0 6 0 C6.13 1.96 6.23 3.92 6.31 5.88 C6.37 6.97 6.43 8.06 6.49 9.18 C6.33 10.11 6.17 11.04 6 12 C3.48 13.26 3.48 13.26 1 14 C1 14.66 1 15.32 1 16 C0.34 16 -0.32 16 -1 16 C-1.03 14.27 -1.05 12.54 -1.06 10.81 C-1.07 9.85 -1.09 8.89 -1.1 7.89 C-1 5.14 -0.62 2.68 0 0 Z " fill="#D6D5CC" transform="translate(87,76)"/>
<path d="M0 0 C-1.45 3.79 -3.19 7.37 -5 11 C-5 11.33 -5 11.66 -5 12 C-6.46 12.03 -7.92 12.05 -9.38 12.06 C-10.19 12.07 -11 12.09 -11.84 12.1 C-14 12 -14 12 -16 11 C-15.19 9 -15.19 9 -14 7 C-13.01 7 -12.02 7 -11 7 C-9.31 5.36 -7.65 3.69 -6 2 C-3.75 0.65 -2.61 0 0 0 Z " fill="#545A63" transform="translate(34,36)"/>
<path d="M0 0 C0.75 0 1.49 0.01 2.26 0.01 C4.09 0.03 5.92 0.04 7.75 0.06 C7.42 0.23 7.42 0.23 5.75 1.06 C5.62 4.12 5.62 4.12 5.75 7.06 C3.77 7.06 1.79 7.06 -0.25 7.06 C-0.25 6.4 -0.25 5.74 -0.25 5.06 C1.4 5.06 3.05 5.06 4.75 5.06 C4.75 3.74 4.75 2.42 4.75 1.06 C2.11 1.06 -0.53 1.06 -3.25 1.06 C-3.37 1.85 -3.5 2.63 -3.62 3.44 C-4.25 6.06 -4.25 6.06 -6.25 8.06 C-9.25 6.81 -9.25 6.81 -12.25 5.06 C-12.25 3.74 -12.25 2.42 -12.25 1.06 C-8.16 -0.09 -4.22 -0.05 0 0 Z " fill="#8D908E" transform="translate(81.25,51.9375)"/>
<path d="M0 0 C0.99 0.33 1.98 0.66 3 1 C3 1.66 3 2.32 3 3 C3.66 3.33 4.32 3.66 5 4 C3.35 4 1.7 4 0 4 C0 4.99 0 5.98 0 7 C0.66 7 1.32 7 2 7 C2.85 12.38 3 16.65 2 22 C1.67 22 1.34 22 1 22 C0.67 23.98 0.34 25.96 0 28 C-0.33 28 -0.66 28 -1 28 C-0.98 26.72 -0.95 25.45 -0.93 24.13 C-0.91 22.46 -0.89 20.79 -0.88 19.12 C-0.86 18.28 -0.84 17.44 -0.82 16.57 C-0.82 15.77 -0.81 14.96 -0.8 14.13 C-0.79 13.39 -0.78 12.65 -0.77 11.88 C-1 10 -1 10 -3 8 C-2.62 4.88 -2.62 4.88 -2 2 C-1.34 2 -0.68 2 0 2 C0 1.34 0 0.68 0 0 Z " fill="#040A16" transform="translate(15,44)"/>
<path d="M0 0 C2.31 0 4.62 0 7 0 C7 0.99 7 1.98 7 3 C7.99 3.33 8.98 3.66 10 4 C9.67 5.32 9.34 6.64 9 8 C8.34 8 7.68 8 7 8 C5.88 10 5.88 10 5 12 C3.68 11.34 2.36 10.68 1 10 C1.33 8.68 1.66 7.36 2 6 C2.99 6 3.98 6 5 6 C5 5.34 5 4.68 5 4 C3.35 4 1.7 4 0 4 C0 2.68 0 1.36 0 0 Z " fill="#EFEDE0" transform="translate(42,53)"/>
<path d="M0 0 C0.66 0 1.32 0 2 0 C2 0.66 2 1.32 2 2 C3.07 1.57 4.14 1.13 5.25 0.69 C6.49 0.46 7.72 0.23 9 0 C11.44 2.38 11.44 2.38 13 5 C10.33 4.33 7.67 3.67 5 3 C5.33 4.98 5.66 6.96 6 9 C5.2 9.12 4.39 9.25 3.56 9.38 C2.72 9.58 1.87 9.79 1 10 C0.67 10.66 0.34 11.32 0 12 C-0.39 10.57 -0.76 9.13 -1.12 7.69 C-1.33 6.89 -1.54 6.09 -1.76 5.26 C-2 3 -2 3 0 0 Z " fill="#9C9C97" transform="translate(85,61)"/>
<path d="M0 0 C1.98 0 3.96 0 6 0 C6 4.29 6 8.58 6 13 C4.68 12.67 3.36 12.34 2 12 C2 11.34 2 10.68 2 10 C1.34 10 0.68 10 0 10 C0 6.7 0 3.4 0 0 Z " fill="#EEEDE2" transform="translate(35,82)"/>
<path d="M0 0 C2.44 0.31 2.44 0.31 5 1 C6 4 6 4 5 7.19 C4.34 8.12 3.68 9.04 3 10 C-0.69 10.38 -0.69 10.38 -4 10 C-4 9.01 -4 8.02 -4 7 C-2.68 6.67 -1.36 6.34 0 6 C0 4.02 0 2.04 0 0 Z " fill="#E7E6DA" transform="translate(39,64)"/>
<path d="M0 0 C2.97 0 5.94 0 9 0 C9 0.66 9 1.32 9 2 C8.01 2 7.02 2 6 2 C6.16 2.76 6.33 3.53 6.5 4.31 C7 7 7 7 7 10 C6.34 9.34 5.68 8.68 5 8 C2.88 7.38 2.88 7.38 1 7 C1 8.98 1 10.96 1 13 C0.36 13.12 -0.28 13.25 -0.94 13.38 C-1.62 13.58 -2.3 13.79 -3 14 C-3.33 14.66 -3.66 15.32 -4 16 C-4 15.01 -4 14.02 -4 13 C-3.34 12.67 -2.68 12.34 -2 12 C-1.38 9.44 -1.38 9.44 -1 7 C-1.99 7 -2.98 7 -4 7 C-3.67 6.34 -3.34 5.68 -3 5 C0.06 4.88 0.06 4.88 3 5 C3.33 4.01 3.66 3.02 4 2 C2.68 2 1.36 2 0 2 C0 1.34 0 0.68 0 0 Z " fill="#6F6F6F" transform="translate(38,57)"/>
<path d="M0 0 C1.65 0 3.3 0 5 0 C5 4.62 5 9.24 5 14 C3.68 13.01 2.36 12.02 1 11 C1.25 7.31 1.25 7.31 2 4 C1.34 4 0.68 4 0 4 C0 2.68 0 1.36 0 0 Z " fill="#ECEAE0" transform="translate(105,53)"/>
<path d="M0 0 C-1.25 3.46 -2.68 6.15 -5 9 C-5.99 8.67 -6.98 8.34 -8 8 C-8.69 5.94 -8.69 5.94 -9 4 C-2.25 0 -2.25 0 0 0 Z " fill="#E3E3E1" transform="translate(34,36)"/>
</svg>
