<?xml version="1.0" encoding="UTF-8"?>
<!-- Generator: visioncortex VTracer 0.6.12 -->
<svg version="1.1" xmlns="http://www.w3.org/2000/svg" width="128" height="128" viewBox="0 0 128 128" preserveAspectRatio="xMidYMid meet">
<path d="M0 0 C3 1 3 1 3.97 2.61 C4.24 3.29 4.51 3.97 4.79 4.68 C5.09 5.42 5.39 6.17 5.7 6.94 C6.01 7.72 6.31 8.5 6.62 9.31 C6.94 10.09 7.25 10.86 7.57 11.65 C10.2 18.25 11.11 23.09 10.56 30.25 C10.51 31 10.46 31.74 10.4 32.51 C10.28 34.34 10.14 36.17 10 38 C10.43 37.95 10.43 37.95 12.6 37.68 C21.77 37.03 21.77 37.03 25.42 39.9 C30 45.74 30 45.74 30 50 C29.34 50 28.68 50 28 50 C28.65 55.46 29.29 59.59 33.12 63.69 C37.74 69.09 36.47 76.33 36 83 C32.7 83 29.4 83 26 83 C26.66 84.32 27.32 85.64 28 87 C25.3 88.35 23.17 88.13 20.14 88.13 C19.55 88.13 19.55 88.13 16.57 88.14 C15.33 88.13 14.09 88.13 12.81 88.12 C11.59 88.13 10.37 88.13 9.12 88.14 C3.31 88.13 -2.29 88.07 -8 87 C-8.33 88.65 -8.66 90.3 -9 92 C-19.78 92.36 -30.66 92.53 -41 89 C-41.33 88.01 -41.66 87.02 -42 86 C-41.34 85.01 -40.68 84.02 -40 83 C-45.02 82.37 -49.93 81.87 -55 82 C-55 81.34 -55 80.68 -55 80 C-56.99 80.03 -58.97 80.07 -60.96 80.1 C-63 80 -63 80 -66 79 C-65.84 78.42 -65.67 77.84 -65.5 77.25 C-65 75 -65 75 -65 71 C-64.5 70.84 -64.5 70.84 -62 70 C-62 67.03 -62 64.06 -62 61 C-62.66 61 -63.32 61 -64 61 C-63.06 55.62 -59.37 52.11 -56 48 C-55.41 47.22 -54.83 46.44 -54.23 45.64 C-49.89 40.11 -49.89 40.11 -45.06 39.5 C-44.05 39.66 -43.04 39.83 -42 40 C-42.47 39.33 -42.93 38.65 -43.41 37.96 C-44 35 -44 35 -42.93 33.26 C-41.19 31.27 -39.35 29.45 -37.44 27.62 C-36.8 26.97 -36.17 26.32 -35.51 25.64 C-33.74 23.91 -32.07 22.37 -30 21 C-27.3 21.09 -27.3 21.09 -25 22 C-24.28 22 -23.56 22 -22.82 22 C-18.83 22 -16.71 22.38 -13.64 25.07 C-11.66 27.31 -9.79 29.59 -8 32 C-8.03 31.61 -8.03 31.61 -8.21 29.61 C-8.61 21.54 -7.25 16.12 -3.51 8.97 C-2.02 6.03 -0.97 3.15 0 0 Z " fill="#1B2839" transform="translate(79,18)"/>
<path d="M0 0 C3 1 3 1 3.97 2.61 C4.24 3.29 4.51 3.97 4.79 4.68 C5.09 5.42 5.39 6.17 5.7 6.94 C6.01 7.72 6.31 8.5 6.62 9.31 C6.94 10.09 7.25 10.86 7.57 11.65 C10.2 18.25 11.11 23.09 10.56 30.25 C10.51 31 10.46 31.74 10.4 32.51 C10.28 34.34 10.14 36.17 10 38 C10.43 37.95 10.43 37.95 12.6 37.68 C21.77 37.03 21.77 37.03 25.42 39.9 C30 45.74 30 45.74 30 50 C29.34 50 28.68 50 28 50 C28.65 55.46 29.29 59.59 33.12 63.69 C37.74 69.09 36.47 76.33 36 83 C32.7 83 29.4 83 26 83 C26.66 84.32 27.32 85.64 28 87 C25.3 88.35 23.17 88.13 20.14 88.13 C19.55 88.13 19.55 88.13 16.57 88.14 C15.33 88.13 14.09 88.13 12.81 88.12 C11.59 88.13 10.37 88.13 9.12 88.14 C3.31 88.13 -2.29 88.07 -8 87 C-8.33 88.65 -8.66 90.3 -9 92 C-19.78 92.36 -30.66 92.53 -41 89 C-41.33 88.01 -41.66 87.02 -42 86 C-41.34 85.01 -40.68 84.02 -40 83 C-45.02 82.37 -49.93 81.87 -55 82 C-55 81.34 -55 80.68 -55 80 C-56.99 80.03 -58.97 80.07 -60.96 80.1 C-63 80 -63 80 -66 79 C-65.84 78.42 -65.67 77.84 -65.5 77.25 C-65 75 -65 75 -65 71 C-64.5 70.84 -64.5 70.84 -62 70 C-62.03 69.37 -62.07 68.75 -62.11 68.1 C-62.12 67.69 -62.12 67.69 -62.19 65.62 C-62.22 64.81 -62.26 64 -62.29 63.16 C-62.2 62.45 -62.1 61.74 -62 61 C-61.01 60.34 -60.02 59.68 -59 59 C-59 64.61 -59 70.22 -59 76 C-57.04 75.81 -55.08 75.63 -53.06 75.44 C-51.05 75.25 -49.02 75.09 -47 75 C-46.84 75.16 -46.84 75.16 -46 76 C-44.65 76.23 -43.3 76.41 -41.94 76.56 C-40.64 76.71 -39.34 76.85 -38 77 C-38 75.35 -38 73.7 -38 72 C-37.34 72 -36.68 72 -36 72 C-36 68.04 -36 64.08 -36 60 C-35.67 60 -35.34 60 -35 60 C-34.93 60.39 -34.93 60.39 -34.6 62.37 C-34.42 63.38 -34.24 64.39 -34.06 65.44 C-33.89 66.45 -33.71 67.46 -33.54 68.5 C-33 71 -33 71 -32 72 C-29.47 72.24 -26.97 72.42 -24.44 72.56 C-23.73 72.61 -23.02 72.65 -22.28 72.69 C-20.52 72.8 -18.76 72.9 -17 73 C-17 73.33 -17 73.66 -17 74 C-22.94 74 -28.88 74 -35 74 C-35 78.29 -35 82.58 -35 87 C-33.02 87 -31.04 87 -29 87 C-29 84.69 -29 82.38 -29 80 C-28.17 79.84 -28.17 79.84 -24 79 C-24 81.97 -24 84.94 -24 88 C-21.36 88 -18.72 88 -16 88 C-16 84.04 -16 80.08 -16 76 C-15.67 76 -15.34 76 -15 76 C-15 79.96 -15 83.92 -15 88 C-14.01 88 -13.02 88 -12 88 C-11.88 87.44 -11.75 86.89 -11.62 86.31 C-10.94 83.78 -10.01 81.42 -9 79 C-7.68 79.33 -6.36 79.66 -5 80 C-5 78.02 -5 76.04 -5 74 C-8.63 73.67 -12.26 73.34 -16 73 C-16 72.67 -16 72.34 -16 72 C-12.37 72 -8.74 72 -5 72 C-4.57 58.16 -4.57 58.16 -8.11 52.82 C-10.63 50.19 -10.63 50.19 -13.16 47.92 C-13.77 47.29 -14.38 46.65 -15 46 C-14.67 45.01 -14.34 44.02 -14 43 C-5.4 49.81 -5.4 49.81 -3 55 C-2.69 59.02 -2.77 62.97 -3 67 C0.42 66.98 3.83 66.9 7.25 66.81 C8.22 66.81 9.19 66.8 10.18 66.79 C17.39 66.57 17.39 66.57 20.61 63.57 C21.43 62.06 22.23 60.54 23 59 C19.04 59 15.08 59 11 59 C11 58.67 11 58.34 11 58 C15.29 58 19.58 58 24 58 C24 55.03 24 52.06 24 49 C18.72 49 13.44 49 8 49 C8 48.34 8 47.68 8 47 C12.95 46.67 17.9 46.34 23 46 C23 45.34 23 44.68 23 44 C20.54 44.11 18.08 44.24 15.62 44.38 C15.28 44.39 15.28 44.39 13.51 44.47 C8.23 44.77 8.23 44.77 6 47 C5.99 46.28 5.98 45.55 5.97 44.8 C5.92 41.45 5.83 38.1 5.75 34.75 C5.74 33.61 5.72 32.47 5.71 31.3 C5.48 23.24 3.97 16.49 1 9 C0.59 10.13 0.17 11.27 -0.25 12.44 C-2 16 -2 16 -4.11 16.72 C-4.73 16.81 -5.36 16.91 -6 17 C-4.13 11.28 -2.15 5.62 0 0 Z " fill="#041123" transform="translate(79,18)"/>
<path d="M0 0 C3.38 1.4 5.15 2.83 7 6 C7.62 9 7.62 9 8 12 C8.32 13.34 8.64 14.67 9 16 C9.66 16 10.32 16 11 16 C11 17.32 11 18.64 11 20 C7.7 20 4.4 20 1 20 C1.66 21.32 2.32 22.64 3 24 C-0.52 24.03 -4.04 24.05 -7.56 24.06 C-8.55 24.07 -9.54 24.08 -10.56 24.09 C-15.8 24.11 -20.87 24.12 -26 23 C-27.53 19.93 -27.1 16.73 -27.06 13.38 C-27.06 12.67 -27.05 11.96 -27.05 11.23 C-27.04 9.49 -27.02 7.74 -27 6 C-23.85 5.97 -20.71 5.95 -17.56 5.94 C-17.11 5.93 -17.11 5.93 -14.84 5.91 C-13.99 5.91 -13.13 5.91 -12.25 5.9 C-11.86 5.9 -11.86 5.9 -9.86 5.89 C-8 6 -8 6 -7 7 C-6.93 9.35 -6.92 11.71 -6.94 14.06 C-6.95 15.35 -6.96 16.64 -6.96 17.97 C-6.98 18.97 -6.99 19.97 -7 21 C-6.34 21 -5.68 21 -5 21 C-5.06 19.99 -5.12 18.97 -5.18 17.93 C-5.66 5.72 -5.66 5.72 -2.5 2.06 C-1.67 1.38 -0.85 0.7 0 0 Z " fill="#122032" transform="translate(104,81)"/>
<path d="M0 0 C2.05 1.62 4.03 3.28 6 5 C6.95 5.78 7.9 6.57 8.88 7.38 C12.85 12.16 11.25 20.31 11 26 C4.07 26 -2.86 26 -10 26 C-11.27 12.2 -11.27 12.2 -7.77 7.55 C-5.38 4.82 -2.76 2.37 0 0 Z " fill="#D8D7CD" transform="translate(63,63)"/>
<path d="M0 0 C0 2.31 0 4.62 0 7 C7.59 7 15.18 7 23 7 C22.01 7.66 21.02 8.32 20 9 C20.99 9.33 21.98 9.66 23 10 C23 11.98 23 13.96 23 16 C21.68 16 20.36 16 19 16 C18.38 17.75 18.38 17.75 18 20 C17.32 22.22 17.32 22.22 16 24 C11.94 24.76 8.09 24.46 4 24 C4 21.03 4 18.06 4 15 C2.68 15.33 1.36 15.66 0 16 C-0.75 19.56 -0.75 19.56 -1 23 C-2.98 23 -4.96 23 -7 23 C-7 18.71 -7 14.42 -7 10 C-6.01 9.67 -5.02 9.34 -4 9 C-4.66 8.34 -5.32 7.68 -6 7 C-6.12 3.88 -6.12 3.88 -6 1 C-3.92 0.45 -2.16 0 0 0 Z " fill="#384551" transform="translate(51,82)"/>
<path d="M0 0 C7.26 0 14.52 0 22 0 C22.13 12.19 22.13 12.19 21 17 C14.85 17.1 14.85 17.1 13 17 C12.67 16.67 12.34 16.34 12 16 C9.98 15.93 7.96 15.92 5.94 15.94 C4.96 15.95 4.96 15.95 0 16 C0 10.72 0 5.44 0 0 Z " fill="#D3D2C9" transform="translate(20,78)"/>
<path d="M0 0 C0.16 0.33 0.16 0.33 1 2 C1.66 2 2.32 2 3 2 C3 8.27 3 14.54 3 21 C4.65 21 6.3 21 8 21 C7.84 21.49 7.84 21.49 7 24 C4 25 4 25 1 24 C1 24.66 1 25.32 1 26 C-0.88 25.69 -0.88 25.69 -3 25 C-3.66 24.01 -4.32 23.02 -5 22 C-3.68 22 -2.36 22 -1 22 C-2.77 17.4 -4.19 14.29 -8 11 C-11.9 12.53 -13.89 14.37 -16 18 C-16.43 21.1 -16.63 24.13 -16.73 27.26 C-17 30 -17 30 -19 33 C-19.33 28.38 -19.66 23.76 -20 19 C-23.63 18.67 -27.26 18.34 -31 18 C-30.67 17.34 -30.34 16.68 -30 16 C-28.27 15.87 -26.54 15.82 -24.81 15.81 C-21.47 15.59 -19.6 15.47 -16.94 13.38 C-15.49 11.65 -14.19 9.92 -13 8 C-17.19 7.39 -20.61 7.07 -24.24 9.49 C-25.59 10.71 -26.9 11.97 -28.18 13.27 C-30.04 15.03 -31.67 15.97 -34 17 C-34.66 17.33 -35.32 17.66 -36 18 C-34.32 13.77 -31.32 10.88 -28.19 7.69 C-27.67 7.12 -27.14 6.56 -26.61 5.98 C-25.04 4.39 -25.04 4.39 -22 2 C-19.38 2.14 -19.38 2.14 -17 3 C-16.28 3 -15.56 3 -14.82 3 C-10.83 3 -8.71 3.38 -5.64 6.07 C-3.67 8.3 -1.82 10.64 0 13 C0 8.71 0 4.42 0 0 Z " fill="#081326" transform="translate(71,37)"/>
<path d="M0 0 C-4.58 7.11 -4.58 7.11 -7 9 C-9.7 9.51 -9.7 9.51 -12.69 9.69 C-13.68 9.75 -14.68 9.82 -15.7 9.89 C-16.46 9.92 -17.22 9.96 -18 10 C-14.7 10.33 -11.4 10.66 -8 11 C-8 15.62 -8 20.24 -8 25 C-8.66 24.67 -9.32 24.34 -10 24 C-11.7 23.77 -13.41 23.59 -15.12 23.44 C-16.04 23.35 -16.95 23.27 -17.88 23.18 C-18.58 23.12 -19.28 23.06 -20 23 C-20.33 21.35 -20.66 19.7 -21 18 C-21.33 19.65 -21.66 21.3 -22 23 C-24.97 23 -27.94 23 -31 23 C-30 21 -29 19 -28 17 C-24.94 16.88 -24.94 16.88 -22 17 C-22.25 15.91 -22.49 14.81 -22.75 13.69 C-22.79 13.08 -22.79 13.08 -23 10 C-21.38 8.25 -21.38 8.25 -19 7 C-14.17 4.22 -14.17 4.22 -12.31 1.81 C-8.61 -1.09 -4.54 -0.31 0 0 Z " fill="#444D56" transform="translate(59,44)"/>
<path d="M0 0 C5.05 7.58 4.24 15.62 4.12 24.44 C4.12 25.74 4.11 27.05 4.1 28.39 C4.07 31.59 4.04 34.8 4 38 C3.28 37.2 2.56 36.39 1.81 35.56 C-1 33 -1 33 -6 32 C-6 25.73 -6 19.46 -6 13 C-6.66 13 -7.32 13 -8 13 C-8 11.68 -8 10.36 -8 9 C-7.22 8.98 -6.43 8.96 -5.62 8.94 C-4.76 8.63 -3.89 8.32 -3 8 C-1.75 4.5 -1.75 4.5 -1 1 C-0.67 0.67 -0.34 0.34 0 0 Z " fill="#151E2E" transform="translate(80,26)"/>
<path d="M0 0 C6.27 0 12.54 0 19 0 C19 4.95 19 9.9 19 15 C16.69 15 14.38 15 12 15 C11.84 12.95 11.67 10.9 11.51 8.85 C11.43 8.54 11.43 8.54 11 7 C10.01 6.67 9.02 6.34 8 6 C7.67 8.97 7.34 11.94 7 15 C4.69 15 2.38 15 0 15 C0 10.05 0 5.1 0 0 Z " fill="#EBEADD" transform="translate(77,87)"/>
<path d="M0 0 C6.29 -0.07 11.78 -0.04 18 1 C18 5.29 18 9.58 18 14 C15.69 14 13.38 14 11 14 C11 11.03 11 8.06 11 5 C9.68 5.33 8.36 5.66 7 6 C6.25 9.56 6.25 9.56 6 13 C4.02 13 2.04 13 0 13 C0 8.71 0 4.42 0 0 Z " fill="#F9F7EA" transform="translate(44,92)"/>
<path d="M0 0 C4.31 1.93 6.22 4.22 9 8 C9 8.99 9 9.98 9 11 C7.8 11 6.61 11 5.38 11 C2.42 11.33 1.3 11.69 -0.8 13.85 C-1.83 15.3 -2.82 16.78 -3.77 18.29 C-3.98 18.57 -3.98 18.57 -5 20 C-5.66 20 -6.32 20 -7 20 C-8.07 9.78 -8.07 9.78 -5.44 5.42 C-3.71 3.49 -1.96 1.7 0 0 Z " fill="#6E7272" transform="translate(61,47)"/>
<path d="M0 0 C0.33 0 0.66 0 1 0 C1.33 3.96 1.66 7.92 2 12 C4.31 12.33 6.62 12.66 9 13 C9 13.33 9 13.66 9 14 C8.38 13.99 7.75 13.99 7.11 13.98 C4.24 13.97 1.37 14.02 -1.5 14.06 C-2.48 14.05 -3.46 14.04 -4.48 14.03 C-11.24 14.19 -14.77 15.58 -19.65 20.31 C-21 22 -21 22 -21 24 C-21.66 24 -22.32 24 -23 24 C-22.06 18.62 -18.37 15.11 -15 11 C-14.71 10.61 -14.71 10.61 -13.23 8.64 C-8.89 3.11 -8.89 3.11 -4.06 2.5 C-3.56 2.58 -3.56 2.58 -1 3 C-1 3.99 -1 4.98 -1 6 C-1.95 5.92 -2.9 5.84 -3.88 5.75 C-4.39 5.79 -4.39 5.79 -7 6 C-8.31 7.88 -8.31 7.88 -9 10 C-9.33 10.66 -9.66 11.32 -10 12 C-7.03 12 -4.06 12 -1 12 C-0.67 8.04 -0.34 4.08 0 0 Z " fill="#030C1F" transform="translate(38,55)"/>
<path d="M0 0 C3.16 1.37 3.99 1.99 6 5 C6.2 7.48 6.2 7.48 6.12 10.19 C6.11 11.09 6.09 11.99 6.07 12.92 C6.06 13.26 6.06 13.26 6 15 C4.68 15 3.36 15 2 15 C2 13.02 2 11.04 2 9 C1.34 9 0.68 9 0 9 C0.03 9.53 0.03 9.53 0.19 12.19 C-0.01 16.16 -0.57 17.91 -3 21 C-3.66 21 -4.32 21 -5 21 C-5.86 5.95 -5.86 5.95 -2.5 2.06 C-1.67 1.38 -0.85 0.7 0 0 Z " fill="#8B8E8D" transform="translate(104,81)"/>
<path d="M0 0 C1.98 0 3.96 0 6 0 C5.67 0.99 5.34 1.98 5 3 C4.67 3.16 4.67 3.16 3 4 C2.38 7.06 2.38 7.06 2 10 C2.99 9.67 3.98 9.34 5 9 C6.19 5.94 6.19 5.94 7 3 C7.33 3 7.66 3 8 3 C8 9.93 8 16.86 8 24 C6.35 22.35 4.7 20.7 3 19 C0.69 18.19 0.69 18.19 -1 18 C-1.03 15.75 -1.05 13.5 -1.06 11.25 C-1.07 10 -1.09 8.74 -1.1 7.45 C-1.02 4.71 -0.83 2.58 0 0 Z " fill="#F7F5EB" transform="translate(76,40)"/>
<path d="M0 0 C2.06 -0.34 2.06 -0.34 4.57 -0.29 C5.47 -0.28 6.36 -0.27 7.29 -0.26 C7.75 -0.25 7.75 -0.25 10.12 -0.19 C11.07 -0.17 12.01 -0.16 12.99 -0.15 C15.33 -0.11 17.66 -0.06 20 0 C18.48 2.63 17.16 4.84 15 7 C13.03 7.23 13.03 7.23 10.65 7.2 C10.22 7.19 10.22 7.19 8.07 7.18 C7.63 7.17 7.63 7.17 5.38 7.12 C4.93 7.12 4.93 7.12 2.66 7.1 C0.44 7.07 -1.78 7.04 -4 7 C-2.8 4.51 -1.55 2.32 0 0 Z " fill="#949695" transform="translate(82,78)"/>
<path d="M0 0 C0.91 0.01 1.82 0.02 2.76 0.03 C3.75 0.04 4.73 0.04 5.75 0.05 C6.27 0.06 6.27 0.06 8.88 0.1 C9.92 0.11 10.96 0.12 12.03 0.13 C14.61 0.15 17.18 0.19 19.75 0.23 C19.25 1.23 19.25 1.23 16.75 6.23 C14.53 6.45 14.53 6.45 11.62 6.42 C10.59 6.42 9.56 6.41 8.49 6.4 C7.4 6.39 6.31 6.37 5.19 6.35 C4.1 6.34 3.01 6.33 1.88 6.32 C-0.83 6.3 -3.54 6.27 -6.25 6.23 C-3.51 0.35 -3.51 0.35 0 0 Z " fill="#888A88" transform="translate(27.24658203125,68.77294921875)"/>
<path d="M0 0 C3.63 0 7.26 0 11 0 C11 4.29 11 8.58 11 13 C10.34 12.67 9.68 12.34 9 12 C7.46 11.78 5.92 11.59 4.38 11.44 C2.93 11.29 1.49 11.15 0 11 C0 7.37 0 3.74 0 0 Z " fill="#CCCBC5" transform="translate(40,56)"/>
<path d="M0 0 C5.28 0 10.56 0 16 0 C16 2.64 16 5.28 16 8 C12.23 8.48 8.75 8.72 5 8 C2.42 5.51 1.51 3.33 0 0 Z " fill="#DDDCD4" transform="translate(87,67)"/>
<path d="M0 0 C0.46 0.01 0.46 0.01 2.78 0.04 C3.7 0.04 4.62 0.05 5.56 0.06 C6.27 0.07 6.98 0.09 7.71 0.1 C3.96 5.85 3.96 5.85 1.71 8.1 C-0.89 8.29 -0.89 8.29 -3.91 8.22 C-4.41 8.21 -4.41 8.21 -6.95 8.17 C-7.72 8.14 -8.49 8.12 -9.29 8.1 C-8.31 6.95 -7.33 5.81 -6.35 4.66 C-5.8 4.02 -5.26 3.38 -4.7 2.73 C-2.42 0.1 -2.42 0.1 0 0 Z " fill="#A8A8A7" transform="translate(51.28515625,43.90234375)"/>
<path d="M0 0 C4.3 1.59 6.35 4.39 9 8 C9 8.99 9 9.98 9 11 C6.36 11 3.72 11 1 11 C1.33 9.02 1.66 7.04 2 5 C-2.75 6.88 -2.75 6.88 -5 8 C-3.81 4.62 -2.72 2.35 0 0 Z " fill="#7E8181" transform="translate(61,47)"/>
<path d="M0 0 C3.96 0 7.92 0 12 0 C12 0.33 12 0.66 12 1 C8.37 1 4.74 1 1 1 C1 4.63 1 8.26 1 12 C2 11 2 11 2.1 8.93 C2.09 8.11 2.07 7.29 2.06 6.44 C2.06 6.02 2.06 6.02 2.04 3.93 C2.02 3.3 2.01 2.66 2 2 C3.65 2 5.3 2 7 2 C7 2.66 7 3.32 7 4 C7.99 4.33 8.98 4.66 10 5 C9.01 5.33 8.02 5.66 7 6 C6.31 9.56 6.31 9.56 6 13 C4.02 13 2.04 13 0 13 C0 8.71 0 4.42 0 0 Z " fill="#D3D2C7" transform="translate(44,92)"/>
<path d="M0 0 C2 0.87 2 0.87 4 2 C4 2.66 4 3.32 4 4 C3.34 4 2.68 4 2 4 C2 6.64 2 9.28 2 12 C1.01 12 0.02 12 -1 12 C-1 9.36 -1 6.72 -1 4 C-6.28 4 -11.56 4 -17 4 C-17 3.34 -17 2.68 -17 2 C-15.86 1.94 -14.71 1.88 -13.54 1.82 C-12.04 1.73 -10.55 1.65 -9.06 1.56 C-8.31 1.52 -7.55 1.48 -6.78 1.44 C-1.11 1.11 -1.11 1.11 0 0 Z " fill="#131E30" transform="translate(104,63)"/>
<path d="M0 0 C0 2.31 0 4.62 0 7 C3.3 7.33 6.6 7.66 10 8 C10 8.33 10 8.66 10 9 C7.71 9.05 5.42 9.09 3.12 9.12 C2.49 9.14 2.49 9.14 -0.74 9.2 C-4 9 -4 9 -6 7 C-6.12 3.88 -6.12 3.88 -6 1 C-3.92 0.45 -2.16 0 0 0 Z " fill="#4B5360" transform="translate(51,82)"/>
<path d="M0 0 C0.33 0 0.66 0 1 0 C1.13 0.78 1.27 1.56 1.4 2.37 C1.58 3.38 1.76 4.39 1.94 5.44 C2.11 6.45 2.29 7.46 2.46 8.5 C3 11 3 11 4 12 C6.53 12.24 9.03 12.42 11.56 12.56 C12.27 12.61 12.98 12.65 13.72 12.69 C15.48 12.8 17.24 12.9 19 13 C19 13.33 19 13.66 19 14 C13.06 14 7.12 14 1 14 C1 18.29 1 22.58 1 27 C0.67 27 0.34 27 0 27 C-0.81 17.82 -1.11 9.18 0 0 Z " fill="#010A1D" transform="translate(43,78)"/>
<path d="M0 0 C8.75 6.93 8.75 6.93 11 12 C11.02 16.06 10.6 19.99 10 24 C9.67 24 9.34 24 9 24 C9.02 23.66 9.02 23.66 9.1 21.95 C9.02 15.48 7.88 12.24 3.38 7.5 C2.54 6.71 1.7 5.91 0.84 5.09 C0.23 4.4 -0.38 3.71 -1 3 C-0.67 2.01 -0.34 1.02 0 0 Z " fill="#161C2E" transform="translate(65,61)"/>
<path d="M0 0 C2.76 0.02 5.39 0.14 8.12 0.38 C8.88 0.43 9.63 0.49 10.41 0.55 C12.27 0.69 14.14 0.84 16 1 C16 1.33 16 1.66 16 2 C12.7 2 9.4 2 6 2 C5.67 3.32 5.34 4.64 5 6 C2.03 6 -0.94 6 -4 6 C-2 2 -2 2 0 0 Z " fill="#939592" transform="translate(25,69)"/>
<path d="M0 0 C0.99 0.33 1.98 0.66 3 1 C3.98 3.25 3.98 3.25 4.75 6 C4.88 6.45 4.88 6.45 5.55 8.75 C5.7 9.49 5.85 10.23 6 11 C5.67 11.33 5.34 11.66 5 12 C4.77 13.68 4.59 15.37 4.44 17.06 C4.4 17.52 4.4 17.52 4.18 19.85 C4.12 20.56 4.06 21.27 4 22 C3.67 22 3.34 22 3 22 C3 18.37 3 14.74 3 11 C2.34 11 1.68 11 1 11 C-1.12 3.38 -1.12 3.38 0 0 Z " fill="#041831" transform="translate(83,28)"/>
<path d="M0 0 C2.97 0 5.94 0 9 0 C8.33 3.81 7.27 7.35 6 11 C5.01 11 4.02 11 3 11 C3 9.02 3 7.04 3 5 C3.99 4.67 4.98 4.34 6 4 C6 3.34 6 2.68 6 2 C4.35 1.67 2.7 1.34 1 1 C0.67 2.32 0.34 3.64 0 5 C0 3.35 0 1.7 0 0 Z " fill="#969796" transform="translate(75,39)"/>
<path d="M0 0 C4.95 0 9.9 0 15 0 C15.33 0.99 15.66 1.98 16 3 C10.72 3 5.44 3 0 3 C0 2.01 0 1.02 0 0 Z " fill="#8A8C8A" transform="translate(87,62)"/>
<path d="M0 0 C3.63 0 7.26 0 11 0 C11 2.97 11 5.94 11 9 C10.67 9 10.34 9 10 9 C10 6.36 10 3.72 10 1 C7.06 1.69 7.06 1.69 4 3 C3.31 5.44 3.31 5.44 3 8 C2.01 8.99 1.02 9.98 0 11 C0 7.37 0 3.74 0 0 Z " fill="#FDFDF6" transform="translate(40,56)"/>
<path d="M0 0 C2.3 3.44 2.54 5.94 3 10 C0.69 10 -1.62 10 -4 10 C-2.68 6.7 -1.36 3.4 0 0 Z " fill="#ABADA6" transform="translate(80,26)"/>
<path d="M0 0 C4.62 0 9.24 0 14 0 C14 0.33 14 0.66 14 1 C12.91 1.12 11.81 1.25 10.69 1.38 C7 2 7 2 4 4 C2.96 6.32 1.96 8.65 1 11 C0.67 11 0.34 11 0 11 C0 7.37 0 3.74 0 0 Z " fill="#FDFCF2" transform="translate(21,78)"/>
<path d="M0 0 C3.96 0 7.92 0 12 0 C12 2.31 12 4.62 12 7 C9.69 6.67 7.38 6.34 5 6 C5.66 5.67 6.32 5.34 7 5 C7 3.68 7 2.36 7 1 C4.69 1 2.38 1 0 1 C0 0.67 0 0.34 0 0 Z " fill="#F9F7ED" transform="translate(91,68)"/>
<path d="M0 0 C1.32 0 2.64 0 4 0 C4 2.97 4 5.94 4 9 C2 9 0 9 -2 9 C-1.12 1.12 -1.12 1.12 0 0 Z " fill="#232B35" transform="translate(51,97)"/>
<path d="M0 0 C1.98 1.65 3.96 3.3 6 5 C5.03 7.02 4.03 9.02 3 11 C2.67 11 2.34 11 2 11 C2 9.35 2 7.7 2 6 C1.01 5.83 1.01 5.83 -4 5 C-2.68 3.35 -1.36 1.7 0 0 Z " fill="#F1EFE6" transform="translate(63,63)"/>
<path d="M0 0 C0.48 0.01 0.48 0.01 2.94 0.06 C2.94 1.71 2.94 3.36 2.94 5.06 C-0.03 5.06 -3 5.06 -6.06 5.06 C-3.57 0.07 -3.57 0.07 0 0 Z " fill="#8C8D8A" transform="translate(34.0625,61.9375)"/>
</svg>
