<svg xmlns="http://www.w3.org/2000/svg" width="128" height="128" viewBox="0 0 128 128"><path fill="#1b2839" d="M79 18c3 1 3 1 3.97 2.61l.82 2.07.91 2.26.92 2.37.95 2.34c2.63 6.6 3.54 11.44 2.99 18.6l-.16 2.26L89 56l2.6-.32c9.17-.65 9.17-.65 12.82 2.22C109 63.74 109 63.74 109 68h-2c.65 5.46 1.29 9.59 5.12 13.69 4.62 5.4 3.35 12.64 2.88 19.31h-10l2 4c-2.7 1.35-4.83 1.13-7.86 1.13l-3.57.01-3.76-.02-3.69.02c-5.81-.01-11.41-.07-17.12-1.14l-1 5c-10.78.36-21.66.53-32-3l-1-3 2-3a99 99 0 0 0-15-1v-2l-5.96.1C16 98 16 98 13 97l.5-1.75C14 93 14 93 14 89l3-1v-9h-2c.94-5.38 4.63-8.89 8-13l1.77-2.36c4.34-5.53 4.34-5.53 9.17-6.14L37 58l-1.41-2.04C35 53 35 53 36.07 51.26a89 89 0 0 1 5.49-5.64l1.93-1.98A37 37 0 0 1 49 39c2.7.09 2.7.09 5 1h2.18c3.99 0 6.11.38 9.18 3.07 1.98 2.24 3.85 4.52 5.64 6.93l-.21-2.39c-.4-8.07.96-13.49 4.7-20.64A55 55 0 0 0 79 18"/><path fill="#041123" d="M79 18c3 1 3 1 3.97 2.61l.82 2.07.91 2.26.92 2.37.95 2.34c2.63 6.6 3.54 11.44 2.99 18.6l-.16 2.26L89 56l2.6-.32c9.17-.65 9.17-.65 12.82 2.22C109 63.74 109 63.74 109 68h-2c.65 5.46 1.29 9.59 5.12 13.69 4.62 5.4 3.35 12.64 2.88 19.31h-10l2 4c-2.7 1.35-4.83 1.13-7.86 1.13l-3.57.01-3.76-.02-3.69.02c-5.81-.01-11.41-.07-17.12-1.14l-1 5c-10.78.36-21.66.53-32-3l-1-3 2-3a99 99 0 0 0-15-1v-2l-5.96.1C16 98 16 98 13 97l.5-1.75C14 93 14 93 14 89l3-1-.11-1.9-.08-2.48-.1-2.46L17 79l3-2v17l5.94-.56q3.02-.3 6.06-.44l1 1q2.02.34 4.06.56L41 95v-5h2V78h1l.4 2.37.54 3.07.52 3.06C46 89 46 89 47 90a192 192 0 0 0 9.72.69L62 91v1H44v13h6v-7l5-1v9h8V94h1v12h3l.38-1.69A58 58 0 0 1 70 97l4 1v-6l-11-1v-1h11c.43-13.84.43-13.84-3.11-19.18-2.52-2.63-2.52-2.63-5.05-4.9L64 64l1-3c8.6 6.81 8.6 6.81 11 12 .31 4.02.23 7.97 0 12q5.13-.04 10.25-.19l2.93-.02c7.21-.22 7.21-.22 10.43-3.22q1.23-2.26 2.39-4.57H90v-1h13v-9H87v-2l15-1v-2q-3.69.17-7.38.38l-2.11.09c-5.28.3-5.28.3-7.51 2.53l-.03-2.2q-.09-5.03-.22-10.05l-.04-3.45A62 62 0 0 0 80 27l-1.25 3.44C77 34 77 34 74.89 34.72L73 35a364 364 0 0 1 6-17"/><path fill="#122032" d="M104 81c3.38 1.4 5.15 2.83 7 6 .62 3 .62 3 1 6q.47 2 1 4h2v4h-10l2 4-10.56.06-3 .03c-5.24.02-10.31.03-15.44-1.09-1.53-3.07-1.1-6.27-1.06-9.62l.01-2.15L77 87q4.72-.05 9.44-.06l2.72-.03 2.59-.01 2.39-.01C96 87 96 87 97 88q.1 3.53.06 7.06l-.02 3.91L97 102h2l-.18-3.07c-.48-12.21-.48-12.21 2.68-15.87z"/><path fill="#d8d7cd" d="M63 63q3.06 2.43 6 5l2.88 2.38C75.85 75.16 74.25 83.31 74 89H53c-1.27-13.8-1.27-13.8 2.23-18.45A76 76 0 0 1 63 63"/><path fill="#384551" d="M51 82v7h23l-3 2 3 1v6h-4c-.62 1.75-.62 1.75-1 4-.68 2.22-.68 2.22-2 4-4.06.76-7.91.46-12 0v-9l-4 1c-.75 3.56-.75 3.56-1 7h-6V92l3-1-2-2c-.12-3.12-.12-3.12 0-6 2.08-.55 3.84-1 6-1"/><path fill="#d3d2c9" d="M20 78h22c.13 12.19.13 12.19-1 17-6.15.1-6.15.1-8 0l-1-1q-3.03-.1-6.06-.06L20 94z"/><path fill="#081326" d="m71 37 1 2h2v19h5l-1 3c-3 1-3 1-6 0v2c-1.88-.31-1.88-.31-4-1l-2-3h4c-1.77-4.6-3.19-7.71-7-11-3.9 1.53-5.89 3.37-8 7-.43 3.1-.63 6.13-.73 9.26C54 67 54 67 52 70l-1-14-11-1 1-2a75 75 0 0 1 5.19-.19c3.34-.22 5.21-.34 7.87-2.43A46 46 0 0 0 58 45c-4.19-.61-7.61-.93-11.24 1.49a94 94 0 0 0-3.94 3.78A19 19 0 0 1 37 54l-2 1c1.68-4.23 4.68-7.12 7.81-10.31l1.58-1.71c1.57-1.59 1.57-1.59 4.61-3.98 2.62.14 2.62.14 5 1h2.18c3.99 0 6.11.38 9.18 3.07C67.33 45.3 69.18 47.64 71 50z"/><path fill="#444d56" d="M59 44c-4.58 7.11-4.58 7.11-7 9-2.7.51-2.7.51-5.69.69l-3.01.2L41 54l10 1v14l-2-1q-2.55-.34-5.12-.56l-2.76-.26L39 67l-1-5-1 5h-9l3-6c3.06-.12 3.06-.12 6 0l-.75-3.31L36 54c1.62-1.75 1.62-1.75 4-3 4.83-2.78 4.83-2.78 6.69-5.19 3.7-2.9 7.77-2.12 12.31-1.81"/><path fill="#151e2e" d="M80 26c5.05 7.58 4.24 15.62 4.12 24.44l-.02 3.95L84 64l-2.19-2.44C79 59 79 59 74 58V39h-2v-4l2.38-.06L77 34c1.25-3.5 1.25-3.5 2-7z"/><path fill="#ebeadd" d="M77 87h19v15h-7l-.49-6.15L88 94l-3-1-1 9h-7z"/><path fill="#f9f7ea" d="M44 92c6.29-.07 11.78-.04 18 1v13h-7v-9l-4 1c-.75 3.56-.75 3.56-1 7h-6z"/><path fill="#6e7272" d="M61 47c4.31 1.93 6.22 4.22 9 8v3h-3.62c-2.96.33-4.08.69-6.18 2.85a95 95 0 0 0-2.97 4.44L56 67h-2c-1.07-10.22-1.07-10.22 1.56-14.58A61 61 0 0 1 61 47"/><path fill="#030c1f" d="M38 55h1l1 12 7 1v1l-1.89-.02q-4.3 0-8.61.08l-2.98-.03c-6.76.16-10.29 1.55-15.17 6.28C17 77 17 77 17 79h-2c.94-5.38 4.63-8.89 8-13l1.77-2.36c4.34-5.53 4.34-5.53 9.17-6.14L37 58v3l-2.88-.25L31 61c-1.31 1.88-1.31 1.88-2 4l-1 2h9z"/><path fill="#8b8e8d" d="M104 81c3.16 1.37 3.99 1.99 6 5 .2 2.48.2 2.48.12 5.19l-.05 2.73L110 96h-4v-6h-2l.19 3.19c-.2 3.97-.76 5.72-3.19 8.81h-2c-.86-15.05-.86-15.05 2.5-18.94z"/><path fill="#f7f5eb" d="M76 40h6l-1 3-2 1c-.62 3.06-.62 3.06-1 6l3-1c1.19-3.06 1.19-3.06 2-6h1v21l-5-5c-2.31-.81-2.31-.81-4-1l-.06-6.75-.04-3.8c.08-2.74.27-4.87 1.1-7.45"/><path fill="#949695" d="M82 78c2.06-.34 2.06-.34 4.57-.29l2.72.03 2.83.07 2.87.04q3.5.06 7.01.15c-1.52 2.63-2.84 4.84-5 7-1.97.23-1.97.23-4.35.2l-2.58-.02-2.69-.06-2.72-.02L78 85a56 56 0 0 1 4-7"/><path fill="#888a88" d="m27.25 68.77 2.76.03 2.99.02 6.28.08q3.87.03 7.72.1l-3 6c-2.22.22-2.22.22-5.13.2l-3.13-.03q-1.63-.01-3.3-.05l-3.31-.03L21 75c2.74-5.88 2.74-5.88 6.25-6.23"/><path fill="#cccbc5" d="M40 56h11v13l-2-1a104 104 0 0 0-4.62-.56L40 67z"/><path fill="#dddcd4" d="M87 67h16v8c-3.77.48-7.25.72-11 0-2.58-2.49-3.49-4.67-5-8"/><path fill="#a8a8a7" d="m51.29 43.9 2.78.04 2.78.02L59 44c-3.75 5.75-3.75 5.75-6 8-2.6.2-2.6.2-5.62.12l-3.04-.05L42 52l2.94-3.44 1.65-1.93c2.28-2.63 2.28-2.63 4.7-2.73"/><path fill="#7e8181" d="M61 47c4.3 1.59 6.35 4.39 9 8v3h-8l1-6c-4.75 1.88-4.75 1.88-7 3 1.19-3.38 2.28-5.65 5-8"/><path fill="#d3d2c7" d="M44 92h12v1H45v11c1-1 1-1 1.1-3.07l-.04-2.49-.02-2.51L46 94h5v2l3 1-3 1c-.69 3.56-.69 3.56-1 7h-6z"/><path fill="#131e30" d="M104 63c2 .87 2 .87 4 2v2h-2v8h-3v-8H87v-2l3.46-.18 4.48-.26 2.28-.12c5.67-.33 5.67-.33 6.78-1.44"/><path fill="#4b5360" d="M51 82v7l10 1v1q-3.43.07-6.88.12l-3.86.08C47 91 47 91 45 89c-.12-3.12-.12-3.12 0-6 2.08-.55 3.84-1 6-1"/><path fill="#010a1d" d="M43 78h1l.4 2.37.54 3.07.52 3.06C46 89 46 89 47 90a192 192 0 0 0 9.72.69L62 91v1H44v13h-1c-.81-9.18-1.11-17.82 0-27"/><path fill="#161c2e" d="M65 61c8.75 6.93 8.75 6.93 11 12 .02 4.06-.4 7.99-1 12h-1l.1-2.05c-.08-6.47-1.22-9.71-5.72-14.45l-2.54-2.41L64 64z"/><path fill="#939592" d="M25 69c2.76.02 5.39.14 8.12.38l2.29.17q2.8.21 5.59.45v1H31l-1 4h-9c2-4 2-4 4-6"/><path fill="#041831" d="m83 28 3 1c.98 2.25.98 2.25 1.75 5l.8 2.75L89 39l-1 1q-.34 2.52-.56 5.06l-.26 2.79L87 50h-1V39h-2c-2.12-7.62-2.12-7.62-1-11"/><path fill="#969796" d="M75 39h9a70 70 0 0 1-3 11h-3v-6l3-1v-2l-5-1-1 4z"/><path fill="#8a8c8a" d="M87 62h15l1 3H87z"/><path fill="#fdfdf6" d="M40 56h11v9h-1v-8c-2.94.69-2.94.69-6 2-.69 2.44-.69 2.44-1 5l-3 3z"/><path fill="#abada6" d="M80 26c2.3 3.44 2.54 5.94 3 10h-7z"/><path fill="#fdfcf2" d="M21 78h14v1l-3.31.38C28 80 28 80 25 82a227 227 0 0 0-3 7h-1z"/><path fill="#f9f7ed" d="M91 68h12v7l-7-1 2-1v-4h-7z"/><path fill="#232b35" d="M51 97h4v9h-6c.88-7.88.88-7.88 2-9"/><path fill="#f1efe6" d="m63 63 6 5q-1.45 3.03-3 6h-1v-5l-6-1z"/><path fill="#8c8d8a" d="M34.06 61.94 37 62v5h-9c2.5-5 2.5-5 6.06-5.06"/></svg>