<?xml version="1.0" encoding="UTF-8"?>
<!-- Generator: visioncortex VTracer 0.6.12 -->
<svg version="1.1" xmlns="http://www.w3.org/2000/svg" width="128" height="128" viewBox="0 0 128 128" preserveAspectRatio="xMidYMid meet">
<path d="M0 0 C3 1 3 1 4.32 3.19 C4.77 4.12 5.22 5.04 5.69 6 C8.35 11.16 11.47 15.03 15.56 19.12 C16.03 19.74 16.51 20.36 17 21 C16 24 16 24 13.94 25.19 C13.3 25.46 12.66 25.72 12 26 C15.28 30.64 18.3 34.69 23 38 C21.9 40.99 21.32 41.85 18.38 43.25 C17.59 43.5 16.81 43.74 16 44 C17.27 46.04 18.61 48.04 20 50 C20.66 50 21.32 50 22 50 C22.49 49.17 22.99 48.35 23.5 47.5 C29.77 37.8 40.77 33.32 51 29 C51.68 28.7 52.37 28.41 53.07 28.1 C64.73 23.04 64.73 23.04 68.29 22.93 C71.68 25.05 71.88 29.13 72.75 32.81 C75.67 46.62 76.38 62.51 69 75 C65.38 80.14 60.93 84.15 56 88 C56.7 88.17 57.4 88.34 58.12 88.52 C58.57 88.64 58.57 88.64 60.88 89.25 C61.78 89.48 62.68 89.71 63.62 89.95 C66 91 66 91 67.32 93.11 C67.54 93.73 67.77 94.36 68 95 C62.01 97.67 55.91 97.99 49.44 98.62 C48.78 98.69 48.12 98.76 47.44 98.82 C23.6 101.12 -4.45 103.45 -27 94 C-26.78 91.64 -26.78 91.64 -26 89 C-20.42 85.24 -13.56 84.42 -7 84 C-7 82.02 -7 80.04 -7 78 C-7.49 78.16 -7.49 78.16 -10 79 C-12.51 79.12 -14.99 79.19 -17.5 79.19 C-18.18 79.2 -18.85 79.21 -19.55 79.22 C-23.26 79.24 -24.83 79.11 -28 77 C-28 73 -28 73 -26.32 71.22 C-25.6 70.65 -24.87 70.08 -24.12 69.5 C-20.92 66.97 -19.91 65.83 -18 62 C-20.97 61.01 -23.94 60.02 -27 59 C-27 57.68 -27 56.36 -27 55 C-25.62 54.06 -24.24 53.13 -22.8 52.28 C-19.3 49.79 -16.71 46.3 -14 43 C-16.31 42.34 -18.62 41.68 -21 41 C-21 37 -21 37 -19.36 35.22 C-18.64 34.65 -17.92 34.08 -17.19 33.5 C-14.32 31.2 -12.1 29.02 -10 26 C-10.68 25.59 -11.36 25.17 -12.06 24.75 C-12.7 24.17 -13.34 23.59 -14 23 C-13.67 19.54 -12.19 17.86 -9.81 15.44 C-5.57 10.8 -2.81 5.6 0 0 Z M6 78 C6 79.65 6 81.3 6 83 C15.41 84.15 15.41 84.15 20 84 C19.38 81.55 19.38 81.55 18 79 C15.18 78.29 15.18 78.29 11.88 78.19 C11.33 78.16 11.33 78.16 8.55 78.04 C7.71 78.03 6.87 78.01 6 78 Z " fill="#07172B" transform="translate(41,14)"/>
<path d="M0 0 C3.97 12.74 4.18 30.02 -2 42 C-6.2 49.35 -11.86 54.44 -20 57 C-23.9 57.44 -27.8 57.55 -31.72 57.42 C-37.26 57.38 -37.26 57.38 -39.54 59.3 C-40.77 60.81 -41.89 62.4 -43 64 C-46 66 -46 66 -48.69 65.62 C-49.45 65.42 -50.21 65.21 -51 65 C-49.86 61.59 -48.96 60.88 -46 59 C-45.34 59 -44.68 59 -44 59 C-42.81 56.38 -42.81 56.38 -42 53 C-42.47 52.11 -42.93 51.22 -43.41 50.3 C-46.74 43.38 -46.26 33.99 -43.97 26.73 C-36.29 11.49 -20.66 5.67 -5.64 -0.25 C-3 -1 -3 -1 0 0 Z " fill="#F4F3E4" transform="translate(108,44)"/>
<path d="M0 0 C0.66 0 1.32 0 2 0 C3.25 2.12 3.25 2.12 4.56 4.88 C5 5.78 5.43 6.68 5.88 7.62 C6.06 8.01 6.06 8.01 7 10 C7.33 10.66 7.66 11.32 8 12 C6.68 12 5.36 12 4 12 C4.5 12.78 4.99 13.57 5.5 14.38 C7 17 7 17 7 19 C5.02 18.34 3.04 17.68 1 17 C3.68 22.03 6.38 26.58 10 31 C10 31.66 10 32.32 10 33 C6.53 32.54 3.33 32.11 0 31 C2.74 37.44 6.37 41.92 11.17 47 C13 49 13 49 13 50 C9.37 49.67 5.74 49.34 2 49 C2.43 49.84 2.87 50.69 3.31 51.55 C3.87 52.65 4.43 53.75 5 54.88 C5.56 55.97 6.11 57.06 6.69 58.18 C8 61 8 61 8 63 C5.05 62.59 3.3 62.24 0.94 60.38 C-1 59 -1 59 -2.81 59.06 C-6.04 60.45 -8.98 62.21 -12 64 C-14.71 65.35 -17.01 65.07 -20 65 C-19.64 64.55 -19.27 64.1 -18.9 63.64 C-14.57 58.1 -11.23 52.23 -8 46 C-8.38 46.16 -8.38 46.16 -10.29 46.99 C-13.36 48.13 -15.76 48.15 -19 48 C-19 47.34 -19 46.68 -19 46 C-18.63 45.71 -18.63 45.71 -16.73 44.23 C-13.8 41.84 -12.21 39.59 -10.25 36.38 C-9.95 35.89 -9.95 35.89 -8.45 33.46 C-7.59 32 -6.76 30.52 -6 29 C-8.64 29 -11.28 29 -14 29 C-13.11 28.05 -12.23 27.1 -11.31 26.12 C-7.62 21.86 -5.32 17.11 -3 12 C-4.65 12 -6.3 12 -8 12 C-7.59 11.47 -7.18 10.94 -6.76 10.39 C-6.22 9.68 -5.68 8.98 -5.12 8.25 C-4.59 7.55 -4.06 6.86 -3.51 6.14 C-2 4 -2 4 -0.93 1.73 C-0.78 1.45 -0.78 1.45 0 0 Z " fill="#F1EFE2" transform="translate(41,23)"/>
<path d="M0 0 C0.99 0.33 1.98 0.66 3 1 C1.93 3.14 0.68 4.32 -1 6 C-1.33 6.66 -1.66 7.32 -2 8 C-1.34 8 -0.68 8 0 8 C-0.32 13.35 -3.5 16.28 -7 20 C-5.68 20.33 -4.36 20.66 -3 21 C-3.41 27.54 -8.48 32.64 -13 37 C-11.84 37.16 -11.84 37.16 -6 38 C-7.28 42.54 -8.96 45.66 -11.94 49.31 C-12.28 49.74 -12.28 49.74 -14.03 51.93 C-16 54 -16 54 -19 55 C-19 55.66 -19 56.32 -19 57 C-15.37 56.34 -11.74 55.68 -8 55 C-9.31 59.62 -11.14 62.97 -14 66.81 C-14.7 67.77 -15.4 68.72 -16.12 69.71 C-18 72 -18 72 -20 73 C-21.68 72.72 -23.35 72.39 -25 72 C-24.58 71.45 -24.16 70.89 -23.72 70.32 C-23.45 69.96 -23.45 69.96 -22.06 68.12 C-21.79 67.77 -21.79 67.77 -20.41 65.95 C-19 64 -19 64 -18 62 C-20.97 61.01 -23.94 60.02 -27 59 C-27 57.68 -27 56.36 -27 55 C-25.62 54.06 -24.24 53.13 -22.8 52.28 C-19.3 49.79 -16.71 46.3 -14 43 C-16.31 42.34 -18.62 41.68 -21 41 C-21 37 -21 37 -19.36 35.22 C-18.64 34.65 -17.92 34.08 -17.19 33.5 C-14.32 31.2 -12.1 29.02 -10 26 C-10.68 25.59 -11.36 25.17 -12.06 24.75 C-12.7 24.17 -13.34 23.59 -14 23 C-13.67 19.54 -12.19 17.86 -9.81 15.44 C-5.57 10.8 -2.81 5.6 0 0 Z " fill="#091426" transform="translate(41,14)"/>
<path d="M0 0 C0.66 0 1.32 0 2 0 C0.41 4.56 -1.99 8.31 -4.62 12.31 C-5.05 12.96 -5.47 13.6 -5.9 14.27 C-6.93 15.85 -7.96 17.42 -9 19 C-6.2 19 -4.02 18.63 -1.31 18 C-0.5 17.81 0.3 17.63 1.14 17.44 C1.75 17.29 2.37 17.15 3 17 C-0.65 21.18 -4.99 23.09 -9.96 25.27 C-14.06 27.18 -16.07 28.88 -18 33 C-12.99 32.38 -7.99 31.73 -3 31 C-5.47 34.7 -7.19 35.1 -11.31 36.62 C-11.88 36.84 -11.88 36.84 -14.74 37.91 C-18 39 -18 39 -20.82 39.49 C-21.18 39.57 -21.18 39.57 -23 40 C-24.01 41.66 -25.01 43.33 -26 45 C-27.32 45 -28.64 45 -30 45 C-29.47 40.82 -28.23 38.84 -25.5 35.69 C-21.18 29.85 -21.2 24.62 -21.17 17.64 C-21.01 14.21 -20.65 11.99 -19 9 C-18.34 9 -17.68 9 -17 9 C-17 13.29 -17 17.58 -17 22 C-16.36 21.17 -15.72 20.33 -15.06 19.47 C-13.73 17.74 -12.4 16.01 -11.06 14.28 C-8.98 11.58 -6.9 8.87 -4.85 6.13 C-4.24 5.33 -3.63 4.52 -3 3.69 C-2.46 2.97 -1.93 2.25 -1.38 1.51 C-0.92 1.01 -0.47 0.51 0 0 Z " fill="#1B2231" transform="translate(99,54)"/>
<path d="M0 0 C2.48 4.91 3.43 10.54 3 16 C2.34 15.34 1.68 14.68 1 14 C0.84 14.83 0.84 14.83 0 19 C-2 16 -2.49 14.29 -3.12 10.81 C-3.21 10.36 -3.21 10.36 -3.63 8.08 C-3.75 7.39 -3.88 6.71 -4 6 C-16.84 9.24 -28.97 14.26 -39 23 C-39.99 23.66 -40.98 24.32 -42 25 C-42.33 24.34 -42.66 23.68 -43 23 C-44.32 23.99 -45.64 24.98 -47 26 C-45.62 20.29 -41.63 17.23 -37 14 C-28.97 9.27 -20.31 5.59 -11.75 1.94 C-11.04 1.63 -10.32 1.31 -9.58 0.99 C-5.97 -0.5 -3.71 -1.41 0 0 Z " fill="#071326" transform="translate(111,38)"/>
<path d="M0 0 C0.99 0.66 1.98 1.32 3 2 C3.29 4.6 3.29 4.6 3.19 7.62 C3.16 8.63 3.13 9.63 3.11 10.66 C3.07 11.43 3.04 12.21 3 13 C4.98 13 6.96 13 9 13 C9 12.34 9 11.68 9 11 C12.3 11 15.6 11 19 11 C19 11.66 19 12.32 19 13 C16.03 13.66 13.06 14.32 10 15 C10.33 15.5 10.33 15.5 12 18 C2.1 18.23 -7.23 17.87 -17 16 C-16 14 -16 14 -12.94 12.81 C-8.73 11.69 -5.25 12.25 -1 13 C-1.01 12.4 -1.02 11.79 -1.04 11.17 C-1.04 10.37 -1.05 9.57 -1.06 8.75 C-1.07 7.96 -1.09 7.17 -1.1 6.36 C-1 4.09 -0.63 2.17 0 0 Z " fill="#DFDFD7" transform="translate(38,90)"/>
<path d="M0 0 C0 0.66 0 1.32 0 2 C0.99 2.17 0.99 2.17 6 3 C3.75 4.92 2.4 5.94 -0.56 6.38 C-3 7 -3 7 -4.56 9.56 C-5.04 10.37 -5.51 11.17 -6 12 C-7.32 12 -8.64 12 -10 12 C-9.43 5.74 -6.54 0 0 0 Z " fill="#0E1829" transform="translate(79,87)"/>
<path d="M0 0 C0.33 0.66 0.66 1.32 1 2 C3.06 2.62 3.06 2.62 5 3 C4.28 3.56 3.56 4.11 2.81 4.69 C0 7 0 7 -2.5 9.69 C-5.14 12.13 -6.49 12.7 -10 13 C-10 11.68 -10 10.36 -10 9 C-6.79 6 -6.79 6 -4 6 C-3.67 5.34 -3.34 4.68 -3 4 C-2.67 3.34 -2.34 2.68 -2 2 C-1.34 2 -0.68 2 0 2 C0 1.34 0 0.68 0 0 Z " fill="#DADAD5" transform="translate(68,97)"/>
<path d="M0 0 C3.3 0 6.6 0 10 0 C10 0.66 10 1.32 10 2 C0.59 4.3 0.59 4.3 -4 4 C-4 4.66 -4 5.32 -4 6 C-6.64 6 -9.28 6 -12 6 C-8.93 3.02 -7.54 2.04 -3.19 1.75 C-2.66 1.79 -2.66 1.79 0 2 C0 1.34 0 0.68 0 0 Z " fill="#C1C0B7" transform="translate(47,101)"/>
<path d="M0 0 C0.66 0.99 1.32 1.98 2 3 C4.77 2.81 7.29 2.49 10 2 C11.33 1.81 12.67 1.62 14 1.44 C14.5 1.37 14.5 1.37 17 1 C14.48 4.78 12.53 5.25 8.33 6.57 C5.1 7.17 2.91 6.42 0 5 C0 4.34 0 3.68 0 3 C-0.99 3.33 -1.98 3.66 -3 4 C-3.33 3.34 -3.66 2.68 -4 2 C-2.68 1.34 -1.36 0.68 0 0 Z " fill="#222A38" transform="translate(79,84)"/>
</svg>
