<svg xmlns="http://www.w3.org/2000/svg" width="128" height="128" viewBox="0 0 128 128"><path fill="#07172b" d="M41 14c3 1 3 1 4.32 3.19L46.69 20c2.66 5.16 5.78 9.03 9.87 13.12L58 35c-1 3-1 3-3.06 4.19L53 40c3.28 4.64 6.3 8.69 11 12-1.1 2.99-1.68 3.85-4.62 5.25L57 58q1.91 3.06 4 6h2l1.5-2.5C70.77 51.8 81.77 47.32 92 43l2.07-.9c11.66-5.06 11.66-5.06 15.22-5.17 3.39 2.12 3.59 6.2 4.46 9.88 2.92 13.81 3.63 29.7-3.75 42.19-3.62 5.14-8.07 9.15-13 13l2.12.52 2.76.73 2.74.7c2.38 1.05 2.38 1.05 3.7 3.16L109 109c-5.99 2.67-12.09 2.99-18.56 3.62l-2 .2C64.6 115.12 36.55 117.45 14 108c.22-2.36.22-2.36 1-5 5.58-3.76 12.44-4.58 19-5v-6l-3 1q-3.75.19-7.5.19l-2.05.03c-3.71.02-5.28-.11-8.45-2.22 0-4 0-4 1.68-5.78l2.2-1.72c3.2-2.53 4.21-3.67 6.12-7.5l-9-3v-4a77 77 0 0 1 4.2-2.72c3.5-2.49 6.09-5.98 8.8-9.28l-7-2c0-4 0-4 1.64-5.78l2.17-1.72A34 34 0 0 0 31 40l-2.06-1.25L27 37c.33-3.46 1.81-5.14 4.19-7.56 4.24-4.64 7-9.84 9.81-15.44m6 78v5c9.41 1.15 9.41 1.15 14 1-.62-2.45-.62-2.45-2-5-2.82-.71-2.82-.71-6.12-.81l-3.33-.15z"/><path fill="#f4f3e4" d="M108 44c3.97 12.74 4.18 30.02-2 42-4.2 7.35-9.86 12.44-18 15-3.9.44-7.8.55-11.72.42-5.54-.04-5.54-.04-7.82 1.88A76 76 0 0 0 65 108c-3 2-3 2-5.69 1.62L57 109c1.14-3.41 2.04-4.12 5-6h2c1.19-2.62 1.19-2.62 2-6l-1.41-2.7c-3.33-6.92-2.85-16.31-.56-23.57 7.68-15.24 23.31-21.06 38.33-26.98C105 43 105 43 108 44"/><path fill="#f1efe2" d="M41 23h2a41 41 0 0 1 2.56 4.88l1.32 2.74L48 33l1 2h-4l1.5 2.38C48 40 48 40 48 42l-6-2c2.68 5.03 5.38 9.58 9 14v2c-3.47-.46-6.67-.89-10-2 2.74 6.44 6.37 10.92 11.17 16C54 72 54 72 54 73l-11-1 1.31 2.55L46 77.88l1.69 3.3C49 84 49 84 49 86c-2.95-.41-4.7-.76-7.06-2.62C40 82 40 82 38.19 82.06 34.96 83.45 32.02 85.21 29 87c-2.71 1.35-5.01 1.07-8 1l1.1-1.36C26.43 81.1 29.77 75.23 33 69l-2.29.99C27.64 71.13 25.24 71.15 22 71v-2l2.27-1.77c2.93-2.39 4.52-4.64 6.48-7.85l1.8-2.92A74 74 0 0 0 35 52h-8l2.69-2.88C33.38 44.86 35.68 40.11 38 35h-5l1.24-1.61 1.64-2.14 1.61-2.11C39 27 39 27 40.07 24.73z"/><path fill="#091426" d="m41 14 3 1c-1.07 2.14-2.32 3.32-4 5l-1 2h2c-.32 5.35-3.5 8.28-7 12l4 1c-.41 6.54-5.48 11.64-10 16l7 1a29 29 0 0 1-5.94 11.31l-2.09 2.62C25 68 25 68 22 69v2l11-2c-1.31 4.62-3.14 7.97-6 11.81l-2.12 2.9C23 86 23 86 21 87a76 76 0 0 1-5-1l1.28-1.68 1.66-2.2 1.65-2.17C22 78 22 78 23 76l-9-3v-4a77 77 0 0 1 4.2-2.72c3.5-2.49 6.09-5.98 8.8-9.28l-7-2c0-4 0-4 1.64-5.78l2.17-1.72A34 34 0 0 0 31 40l-2.06-1.25L27 37c.33-3.46 1.81-5.14 4.19-7.56 4.24-4.64 7-9.84 9.81-15.44"/><path fill="#1b2231" d="M99 54h2c-1.59 4.56-3.99 8.31-6.62 12.31l-1.28 1.96L90 73c2.8 0 4.98-.37 7.69-1l2.45-.56L102 71c-3.65 4.18-7.99 6.09-12.96 8.27-4.1 1.91-6.11 3.61-8.04 7.73q7.52-.92 15-2c-2.47 3.7-4.19 4.1-8.31 5.62l-3.43 1.29C81 93 81 93 78.18 93.49L76 94l-3 5h-4c.53-4.18 1.77-6.16 4.5-9.31 4.32-5.84 4.3-11.07 4.33-18.05.16-3.43.52-5.65 2.17-8.64h2v13l1.94-2.53 4-5.19q3.13-4.04 6.21-8.15L96 57.69l1.62-2.18z"/><path fill="#071326" d="M111 38a30.4 30.4 0 0 1 3 16l-2-2-1 5c-2-3-2.49-4.71-3.12-8.19l-.51-2.73L107 44c-12.84 3.24-24.97 8.26-35 17l-3 2-1-2-4 3c1.38-5.71 5.37-8.77 10-12 8.03-4.73 16.69-8.41 25.25-12.06l2.17-.95c3.61-1.49 5.87-2.4 9.58-.99"/><path fill="#dfdfd7" d="m38 90 3 2c.29 2.6.29 2.6.19 5.62l-.08 3.04L41 103h6v-2h10v2l-9 2 2 3c-9.9.23-19.23-.13-29-2 1-2 1-2 4.06-3.19 4.21-1.12 7.69-.56 11.94.19l-.04-1.83-.02-2.42-.04-2.39c.1-2.27.47-4.19 1.1-6.36"/><path fill="#0e1829" d="M79 87v2l6 1c-2.25 1.92-3.6 2.94-6.56 3.38-2.44.62-2.44.62-4 3.18L73 99h-4c.57-6.26 3.46-12 10-12"/><path fill="#dadad5" d="m68 97 1 2c2.06.62 2.06.62 4 1l-2.19 1.69C68 104 68 104 65.5 106.69c-2.64 2.44-3.99 3.01-7.5 3.31v-4c3.21-3 3.21-3 6-3l1-2 1-2h2z"/><path fill="#c1c0b7" d="M47 101h10v2c-9.41 2.3-9.41 2.3-14 2v2h-8c3.07-2.98 4.46-3.96 8.81-4.25L47 103z"/><path fill="#222a38" d="m79 84 2 3c2.77-.19 5.29-.51 8-1l4-.56 3-.44c-2.52 3.78-4.47 4.25-8.67 5.57-3.23.6-5.42-.15-8.33-1.57v-2l-3 1-1-2z"/></svg>