<svg xmlns="http://www.w3.org/2000/svg" width="128" height="128" viewBox="0 0 128 128"><path fill="#0e1530" d="M42 14 L40 16 L35 26 L27 34 L27 36 L28 37 L31 37 L32 38 L31 41 L21 51 L19 52 L21 54 L23 55 L26 55 L28 57 L21 65 L20 65 L14 70 L14 71 L16 73 L18 73 L19 74 L23 74 L24 75 L24 77 L13 88 L13 90 L14 91 L18 91 L19 92 L27 92 L28 91 L32 91 L33 90 L34 91 L34 97 L31 99 L27 99 L23 101 L20 101 L14 104 L14 106 L16 108 L18 108 L19 109 L24 109 L25 110 L33 110 L34 111 L38 111 L39 112 L55 112 L56 113 L64 113 L65 112 L80 112 L81 111 L88 111 L89 110 L100 110 L101 109 L106 109 L107 108 L107 106 L105 105 L102 105 L101 104 L98 104 L94 102 L99 98 L100 98 L106 92 L112 81 L112 78 L113 77 L113 71 L114 70 L114 60 L113 59 L113 51 L112 50 L112 46 L110 42 L110 39 L108 37 L96 43 L93 43 L88 46 L86 46 L76 51 L74 53 L73 53 L64 62 L62 66 L56 60 L55 57 L63 53 L53 43 L53 42 L51 40 L51 39 L53 37 L55 37 L56 35 L51 30 L49 26 L46 23 L44 19 L44 17 Z"/><path fill="#fcf9e4" d="M106 43 L81 53 L75 57 L69 63 L63 75 L63 89 L67 98 L57 108 L59 109 L62 108 L71 99 L78 101 L86 100 L95 96 L101 91 L106 83 L109 73 L109 54 Z M42 23 L41 23 L40 26 L34 33 L34 34 L38 34 L39 35 L36 41 L27 51 L34 51 L35 53 L27 65 L22 69 L22 70 L25 70 L32 68 L33 70 L28 79 L21 87 L29 86 L37 80 L39 80 L42 83 L48 85 L41 71 L44 70 L48 72 L53 72 L47 66 L40 56 L41 52 L44 54 L49 54 L50 55 L41 41 L42 39 L47 41 L44 35 L48 34 L44 29 Z M55 102 L47 101 L46 103 L41 103 L40 102 L40 93 L38 90 L37 102 L36 103 L30 102 L21 105 L32 106 L33 107 L49 107 L44 106 L43 105 L44 104 Z"/><path fill="#0e1530" d="M99 53 L67 100 L70 100 L102 55 Z"/></svg>
