<svg xmlns="http://www.w3.org/2000/svg" width="128" height="128" viewBox="0 0 128 128"><path fill="#071326" d="M70 23c-1.88 5.75-1.88 5.75-3 8-.42 4.24-.25 6.99 2 10.56 2.16 3.71 2.71 5.26 2 9.44-2.37 4.39-5.1 6.98-9 10q5.94.3 11.88.56l3.41.17 3.26.15 3.02.14C86 62 86 62 88 61c3.06-.42 5.95-.48 9 0 3.47 2.65 5.09 5.19 7 9l2.56 2.25c2.55 2.87 2.74 3.37 3 6.94L110 83c1.94 1.31 1.94 1.31 4 2 2 3 2 3 1.94 5.94-1.2 3.91-2.47 4.95-5.94 7.06a559 559 0 0 1-7 2c-1.62 1.5-1.62 1.5-3 3-4.08 2.05-7.53 2.27-12.06 2.25l-3.66.02C81 105 81 105 79.13 104c-2.61-1.23-4.53-1.26-7.41-1.27h-3.05l-3.17.02-3.17-.02h-3.05l-2.78.01c-2.63.27-4.2 1.01-6.5 2.26-2.62.27-2.62.27-5.44.25l-2.81.02c-2.92-.29-5.04-1.18-7.75-2.27-2.36-.09-2.36-.09-4.75.06-6.11.12-11.71-.88-16.44-4.94C12 96 12 96 12.69 93.44 14 91 14 91 16 88l-1-3c-.85-5.36-.3-9.19 2.62-13.81C20.43 67.48 22.61 64.8 27 63c3.55-.21 7.01-.19 10.56-.04 3.31.04 6.2-.38 9.44-.96q2.43-.1 4.88-.06l2.36.02L56 62c2.83-7.94 2.83-7.94 3-12q-1.49-2.56-3.05-5.08C54.16 41.31 53.98 37.88 55 34c2.92-4.26 9.54-11 15-11"/><path fill="#20293b" d="m45 64 12.43.37 4.22.13 6.1.18 3.7.11c3.56.21 7.03.65 10.55 1.21l-1 4H68l18 3v-2h-2c2.36-5.27 2.36-5.27 5-7 3.54.13 6.04.34 9 2.38L99 68l-1 3 2.38 1.38C103 74 103 74 105 76c.38 3.57.07 6.04-2 9-5.14 3.56-9.64 4.22-15.72 4.72C85 90 85 90 83 91c-2.67.13-5.32.04-8 0v4l-2.34-.04-3.04-.02-3.02-.04C64 95 64 95 62 96c-6.12.56-9.74.16-15-3a72 72 0 0 0-7.89.09L37 93l-1-2c-5.05-2.91-9.17-4.14-15-4-2.09-3.14-2.54-5.06-2.45-8.8.85-4.14 3.47-7.29 6.45-10.2 2.62-1.6 3.52-2.06 6.62-1.69C34 67 34 67 36 68l2-3c3.62.31 3.62.31 7 1z"/><path fill="#132134" d="m28 87 10 3-1 2 2.01-.11c5.55-.17 8.22.25 12.99 3.11 4.26.43 8.44.34 12.62-.56 3.59-.66 6.78.01 10.38.56v-4a148 148 0 0 1 20-3l-3 1v3q2.5 1.02 5 2l1 3c-4.42 3.51-7.51 4.48-13.14 4.73L83 102l-1 2-2.16-.49c-4.78-.86-9.56-.69-14.4-.7l-3.16-.03-3.03-.01-2.76-.01c-2.64.25-4.19.99-6.49 2.24-2.62.27-2.62.27-5.44.25l-2.81.02C39 105 39 105 36.48 103.99c-2.79-1.11-4.81-1.19-7.79-1.11l-2.68.05L24 103l-.31-1.89C23 99 23 99 19.94 97.25L17 96c.31-1.88.31-1.88 1-4 3.64-2.43 5.71-2.16 10-2z"/><path fill="#f2f1eb" d="m34 67 1 2-2.38 1.81C30 73 30 73 28 76c-.19 2.44-.19 2.44 1 5 9.27 6.25 21.62 6.35 32.38 6.25l3.32-.02C89.22 86.9 89.22 86.9 96 80c.06-3.81.06-3.81-1-7 6.41-.36 6.41-.36 8.94 1.19 1.44 2.46 1.4 3.99 1.06 6.81-1.26 3.9-3.43 5.17-7 7-3.59 1.2-6.97 1.41-10.72 1.72C85 90 85 90 83 91c-2.67.13-5.32.04-8 0v4l-2.34-.04-3.04-.02-3.02-.04C64 95 64 95 62 96c-6.12.56-9.74.16-15-3a72 72 0 0 0-7.89.09L37 93l-1-2c-5.05-2.91-9.17-4.14-15-4-2.09-3.14-2.54-5.06-2.45-8.8.85-4.14 3.47-7.29 6.45-10.2 3.38-2.06 5.19-2.24 9-1"/><path fill="#e6eae0" d="m54.64 73.9 3.94.01 4.1.03 4.16.01L77 74v2l1.83.15 2.42.22 2.39.21c2.48.44 4.24 1.07 6.36 2.42v2c-9.58 3.58-18.06 4.57-28.25 4.37h-3.93C39.44 85.2 39.44 85.2 34 80c2.4-2.4 3.34-2.35 6.63-2.63l2.47-.22L45 77v-2c3.42-1.14 6.04-1.12 9.64-1.1"/><path fill="#0a182c" d="M105 78h5l-.25 2.38L110 83a21 21 0 0 0 4 2c2 3 2 3 1.94 5.94-1.2 3.91-2.47 4.95-5.94 7.06a559 559 0 0 1-7 2c-1.62 1.5-1.62 1.5-3 3-4.17 2.13-7.68 2.21-12.31 2.12l-3.8-.05L81 105l1-4 2.05-.11 2.7-.2 2.67-.18c2.92-.58 4.3-1.66 6.58-3.51h2c-3.75-3.88-3.75-3.88-6-5v-3l2.88-.88C98 87 98 87 100 85h3l.44-1.81q.69-2.62 1.56-5.19"/><path fill="#d3d3c8" d="m49 22 1 3-2 2.75C46 31 46 31 46 34.56c1 3.44 1 3.44 3 5.82 2.39 3.14 3.07 5.36 3.36 9.27-.7 4.63-3.77 7.56-7.36 10.35a24 24 0 0 1-7 2l1-3.19c.87-3.31 1.33-5.46 1-8.81-1.31-2.03-1.31-2.03-3-3.94-2.08-2.63-2.95-3.83-3.62-7.18C35.24 30.32 42.14 26.66 49 22"/><path fill="#cdcdc5" d="m87 28-.8 2.2A51 51 0 0 0 84 39a29 29 0 0 0 4 6c.65 3.55.71 5.75-1.11 8.93C83.44 58.39 80.51 60.01 75 61l.44-1.62L76 57l.75-2.88c.25-3.12.25-3.12-1.19-6C73.65 44.29 72.64 41.11 74 37c3.17-3.68 7.81-9 13-9"/><path fill="#081327" d="m32 64-3 1v2l-2.25 1.25c-3.46 2.2-4.89 4.1-6.75 7.75-.47 3.49-.61 6.78 1 10 3.06.12 3.06.12 6 0l1 4-3.31.38C21 91 21 91 18 93l-1 3c4.71 1.77 9.03 2.49 14 3v1l-7 1v1c-4.27-.25-6.58-.69-10.06-3.25L12 96c.7-3.28 2.13-5.2 4-8l-1-3c-1.05-6.63.46-10.65 4.3-16.05 4.03-4.61 6.56-5.3 12.7-4.95"/><path fill="#d0d0c6" d="M70 23c-1.88 5.75-1.88 5.75-3 8-.42 4.24-.25 6.99 2 10.56 2.16 3.71 2.71 5.26 2 9.44a26.6 26.6 0 0 1-9 10h-2c2-4 2-4 3.19-5.88 1.18-3.1.68-4.93-.19-8.12l-2.12-3.38c-2.05-3.39-2.29-5.76-1.56-9.63C60.89 29.4 64.59 23 70 23"/><path fill="#7c9aaa" d="M60.75 70.81q1.69 0 3.42-.04c8.68 0 17.03.52 24.96 4.35l2.25 1.07L93 77l-2 4-1-2a92 92 0 0 0-6.56-1.63l-3.63-.79L77 76v-2l-32 1v2l-1.86.36-2.45.51-2.43.5C36 79 36 79 33 81l-1-4q2.3-1.24 4.63-2.44l2.6-1.37c6.81-2.93 14.24-2.38 21.52-2.38"/><path fill="#e3e1d5" d="m34 67 1 2-2.38 1.81C30 73 30 73 28 76c0 2.5 0 2.5 1 5a30 30 0 0 0 6 3c-1.38 2.06-1.38 2.06-4 4-3.43.21-6.69-.04-10-1-2.09-3.14-2.54-5.06-2.45-8.8.85-4.14 3.47-7.29 6.45-10.2 3.38-2.06 5.19-2.24 9-1"/><path fill="#232c3a" d="M92.5 64.13c4.86 1.22 4.86 1.22 6.5 3.88l-1 3q1.48.95 3 2h-6l2 3c.06 2.42.06 2.42-1 5-4.07 2.88-6.89 4.6-12 4l1-3q3.48-1.55 7-3v-2c-1.75-.87-1.75-.87-4-1.64l-2.25-.78L84 74l2-1v-2h-2c3.17-7.06 3.17-7.06 8.5-6.87"/><path fill="#e6e6e2" d="M63.25 64.81h3.14c5.3.03 10.38.26 15.61 1.2l-1 4H41l-1-3a100 100 0 0 1 23.25-2.2"/><path fill="#091424" d="m39 29 2 1-1 1.62c-1.37 3.26-1.6 4.85-1 8.38a95 95 0 0 0 3.56 4.44c3.41 4.12 3.41 4.12 3.69 8.25-1.53 4.06-3.18 6.24-6.25 9.31h-2l1-3.19c.87-3.31 1.33-5.46 1-8.81-1.31-2.03-1.31-2.03-3-3.94-2.08-2.63-2.95-3.83-3.62-7.18.85-3.96 2.75-7.01 5.62-9.88"/><path fill="#0b1528" d="m80 31 2 1-1.56 2c-2.02 4.22-1.4 6.44-.44 11l2 3c.33 3.87.25 6.75-2 10h-2l-1 3h-2l.44-1.62L76 57l.75-2.88c.25-3.12.25-3.12-1.19-6C73.64 44.28 72.92 41.21 74 37c1.79-2.45 3.64-4.04 6-6"/><path fill="#ebeae0" d="M94 92c2.44 1.38 2.44 1.38 4 3v2c-4.47 4-7.92 4.44-13.83 4.43L82 101l-2-3c4.91-5.04 6.84-6.49 14-6"/><path fill="#bac8cb" d="M48 74c2.03-.17 2.03-.17 4.66-.05l2.84.13 3 .17 3 .12c5.47.28 5.47.28 7.5.63l1 2c-3.42 1.14-6.09 1.1-9.69 1.06l-3.57-.02L54 78v2h5v2q-2.37.04-4.75.06l-2.67.04A25 25 0 0 1 45 81c1.88-4.75 1.88-4.75 3-7"/><path fill="#ecede4" d="m45 75 3 1-3 5 13 1-1 3c-7.42.28-15.1.47-21.56-3.62L34 80c2.4-2.4 3.33-2.34 6.62-2.62l2.48-.23L45 77z"/><path fill="#0f1930" d="m86 63 2 1a56 56 0 0 1-4 7h2v2l-5.62-.44-3.17-.24C74 72 74 72 71.12 71.5c-3.83-.61-7.63-.85-11.5-1.06l-2.23-.13L52 70v-1l12.25-.06 3.51-.03 3.38-.01 3.11-.01c2.43.1 4.44.41 6.75 1.11l1-4h-7c2-2 2-2 3.91-2.16l2.15.1L85 64z"/><path fill="#f0f0e5" d="M27 90c2.81 1.31 2.81 1.31 5 3l1 3c-2 2-2 2-4.24 2.27l-2.64-.02-2.61.02A14.6 14.6 0 0 1 17 96c.31-1.88.31-1.88 1-4 3.51-2.34 4.87-2.41 9-2"/><path fill="#eaeae2" d="m38.31 85.31 2.4.33c5.63.88 5.63.88 8.3 1.36l-3 1v4q-2.23.33-4.45.62l-2.5.35L37 93l-1-2-2.57-1L31 89v-2c3.27-2.18 3.66-2.2 7.31-1.69"/><path fill="#e6e6db" d="M92.5 64.06c3.5.94 3.5.94 5.44 3L99 69c-5.32 3.41-9.06 3.1-15 2 3.45-7.03 3.45-7.03 8.5-6.94"/><path fill="#171a29" d="M31 80c2.64.54 5.21 1.14 7.81 1.81l2.2.54c6.97 1.77 6.97 1.77 9.99 3.65v1c-6.41.36-12.06-.44-18-3-1.79-1.61-1.79-1.61-3-3z"/><path fill="#e9e9e4" d="M46 96c2.31 2.5 2.31 2.5 4 5-2.62 1.31-4.23.9-7.12.56l-2.76-.31L38 101v-3c3.24-2.16 4.24-2.64 8-2"/><path fill="#7491a3" d="M85.44 73.81c.39.1.39.1 2.37.52C90 75 90 75 93 77l-2 4-1-2c-2.5-.85-2.5-.85-5.56-1.63l-3.07-.79L79 76v-2c2.58-1.29 3.66-.82 6.44-.19"/><path fill="#e5e3d8" d="M106.56 86.94 109 87c1 3 1 3 0 6-2.38.82-2.38.82-5 1l-3-2c2.41-4.98 2.41-4.98 5.56-5.06"/><path fill="#384350" d="m45 64 6 1v1l-2.27.23c-7.94 1.06-7.94 1.06-10.35 3.24-1.07 1.65-1.07 1.65-2.38 4.53l-5-2 4-4 1.31-1.81C38 65 38 65 41.69 65.31L45 66z"/><path fill="#afb2b3" d="m82 66-1 4-27-1v-1l1.8-.08a1116 1116 0 0 0 10.91-.48l2.72-.12 2.51-.11c3.54-.36 6.29-1.29 10.06-1.21"/><path fill="#01070f" d="m57 58 .74 1.98C59 62 59 62 60.88 62.45l2.25-.06 2.44-.04 2.55-.1 2.58-.05q3.15-.08 6.3-.2v1q-4.72.3-9.44.56l-2.72.17-2.59.15-2.39.14C58 64 58 64 57 63a95 95 0 0 0-5.06-.06l-2.79.02L47 63v-1h9z"/><path fill="#060c1a" d="m62 27 2 1-1.94 3.12A23 23 0 0 0 59 41h-1l-1-5-1 7h-1c-.6-4.19-1.01-7.61 1.56-11.16A69 69 0 0 1 62 27"/><path fill="#182134" d="m94 76 2 4c-2.13 2.35-4.03 3.86-7 5-2.75.12-2.75.12-5 0l1-3a614 614 0 0 1 7-3z"/></svg>