<?xml version="1.0" encoding="UTF-8"?>
<!-- Generator: visioncortex VTracer 0.6.12 -->
<svg version="1.1" xmlns="http://www.w3.org/2000/svg" width="128" height="128" viewBox="0 0 128 128" preserveAspectRatio="xMidYMid meet">
<path d="M0 0 C-1.88 5.75 -1.88 5.75 -3 8 C-3.42 12.24 -3.25 14.99 -1 18.56 C1.16 22.27 1.71 23.82 1 28 C-1.37 32.39 -4.1 34.98 -8 38 C-4.04 38.2 -0.08 38.38 3.88 38.56 C5 38.62 6.13 38.67 7.29 38.73 C8.37 38.78 9.45 38.83 10.55 38.88 C11.55 38.93 12.54 38.97 13.57 39.02 C16 39 16 39 18 38 C21.06 37.58 23.95 37.52 27 38 C30.47 40.65 32.09 43.19 34 47 C34.42 47.37 34.42 47.37 36.56 49.25 C39.11 52.12 39.3 52.62 39.56 56.19 C39.63 56.82 39.63 56.82 40 60 C41.94 61.31 41.94 61.31 44 62 C46 65 46 65 45.94 67.94 C44.74 71.85 43.47 72.89 40 75 C37.67 75.68 35.34 76.35 33 77 C31.38 78.5 31.38 78.5 30 80 C25.92 82.05 22.47 82.27 17.94 82.25 C17.33 82.25 17.33 82.25 14.28 82.27 C11 82 11 82 9.13 81 C6.52 79.77 4.6 79.74 1.72 79.73 C1.22 79.73 1.22 79.73 -1.33 79.73 C-1.85 79.73 -1.85 79.73 -4.5 79.75 C-5.55 79.74 -6.59 79.73 -7.67 79.73 C-8.67 79.73 -9.68 79.73 -10.72 79.73 C-11.18 79.74 -11.18 79.74 -13.5 79.74 C-16.13 80.01 -17.7 80.75 -20 82 C-22.62 82.27 -22.62 82.27 -25.44 82.25 C-26.36 82.26 -27.29 82.26 -28.25 82.27 C-31.17 81.98 -33.29 81.09 -36 80 C-38.36 79.91 -38.36 79.91 -40.75 80.06 C-46.86 80.18 -52.46 79.18 -57.19 75.12 C-58 73 -58 73 -57.31 70.44 C-56 68 -56 68 -54 65 C-54.33 64.01 -54.66 63.02 -55 62 C-55.85 56.64 -55.3 52.81 -52.38 48.19 C-49.57 44.48 -47.39 41.8 -43 40 C-39.45 39.79 -35.99 39.81 -32.44 39.96 C-29.13 40 -26.24 39.58 -23 39 C-21.38 38.94 -19.75 38.91 -18.12 38.94 C-17.34 38.95 -16.56 38.96 -15.76 38.96 C-15.18 38.98 -14.6 38.99 -14 39 C-11.17 31.06 -11.17 31.06 -11 27 C-12 25.3 -13 23.59 -14.05 21.92 C-15.84 18.31 -16.02 14.88 -15 11 C-12.08 6.74 -5.46 0 0 0 Z " fill="#071326" transform="translate(70,23)"/>
<path d="M0 0 C4.14 0.12 8.29 0.24 12.43 0.37 C13.84 0.42 15.25 0.46 16.65 0.5 C18.69 0.56 20.72 0.62 22.75 0.68 C23.97 0.72 25.19 0.76 26.45 0.79 C30.01 1 33.48 1.44 37 2 C36.67 3.32 36.34 4.64 36 6 C31.71 6 27.42 6 23 6 C25.97 6.5 25.97 6.5 41 9 C41 8.34 41 7.68 41 7 C40.34 7 39.68 7 39 7 C41.36 1.73 41.36 1.73 44 0 C47.54 0.13 50.04 0.34 53 2.38 C53.16 2.64 53.16 2.64 54 4 C53.67 4.99 53.34 5.98 53 7 C53.39 7.23 53.39 7.23 55.38 8.38 C58 10 58 10 60 12 C60.38 15.57 60.07 18.04 58 21 C52.86 24.56 48.36 25.22 42.28 25.72 C40 26 40 26 38 27 C35.33 27.13 32.68 27.04 30 27 C30 28.32 30 29.64 30 31 C29.23 30.99 28.46 30.98 27.66 30.96 C26.66 30.96 25.66 30.95 24.62 30.94 C24.13 30.93 24.13 30.93 21.6 30.9 C19 31 19 31 17 32 C10.88 32.56 7.26 32.16 2 29 C-0.66 28.86 -3.24 28.94 -5.89 29.09 C-6.59 29.06 -7.28 29.03 -8 29 C-8.33 28.34 -8.66 27.68 -9 27 C-14.05 24.09 -18.17 22.86 -24 23 C-26.09 19.86 -26.54 17.94 -26.45 14.2 C-25.6 10.06 -22.98 6.91 -20 4 C-17.38 2.4 -16.48 1.94 -13.38 2.31 C-11 3 -11 3 -9 4 C-8.34 3.01 -7.68 2.02 -7 1 C-3.38 1.31 -3.38 1.31 0 2 C0 1.34 0 0.68 0 0 Z " fill="#20293B" transform="translate(45,64)"/>
<path d="M0 0 C3.3 0.99 6.6 1.98 10 3 C9.67 3.66 9.34 4.32 9 5 C9.66 4.97 10.33 4.93 11.01 4.89 C16.56 4.72 19.23 5.14 24 8 C28.26 8.43 32.44 8.34 36.62 7.44 C40.21 6.78 43.4 7.45 47 8 C47 6.68 47 5.36 47 4 C53.65 2.54 60.21 1.55 67 1 C66.01 1.33 65.02 1.66 64 2 C64 2.99 64 3.98 64 5 C65.66 5.68 67.33 6.35 69 7 C69.16 7.5 69.16 7.5 70 10 C65.58 13.51 62.49 14.48 56.86 14.73 C56.24 14.82 55.63 14.91 55 15 C54.67 15.66 54.34 16.32 54 17 C53.29 16.84 52.57 16.68 51.84 16.51 C47.06 15.65 42.28 15.82 37.44 15.81 C36.92 15.81 36.92 15.81 34.28 15.78 C33.28 15.77 32.28 15.77 31.25 15.77 C30.34 15.77 29.42 15.76 28.49 15.76 C25.85 16.01 24.3 16.75 22 18 C19.38 18.27 19.38 18.27 16.56 18.25 C15.64 18.26 14.71 18.26 13.75 18.27 C11 18 11 18 8.48 16.99 C5.69 15.88 3.67 15.8 0.69 15.88 C-0.2 15.89 -1.08 15.91 -1.99 15.93 C-2.32 15.94 -2.32 15.94 -4 16 C-4.05 15.69 -4.05 15.69 -4.31 14.11 C-5 12 -5 12 -8.06 10.25 C-9.03 9.84 -10 9.42 -11 9 C-10.69 7.12 -10.69 7.12 -10 5 C-6.36 2.57 -4.29 2.84 0 3 C0 2.01 0 1.02 0 0 Z " fill="#132134" transform="translate(28,87)"/>
<path d="M0 0 C0.33 0.66 0.66 1.32 1 2 C0.22 2.6 -0.57 3.2 -1.38 3.81 C-4 6 -4 6 -6 9 C-6.19 11.44 -6.19 11.44 -5 14 C4.27 20.25 16.62 20.35 27.38 20.25 C28.47 20.24 29.57 20.24 30.7 20.23 C55.22 19.9 55.22 19.9 62 13 C62.06 9.19 62.06 9.19 61 6 C67.41 5.64 67.41 5.64 69.94 7.19 C71.38 9.65 71.34 11.18 71 14 C69.74 17.9 67.57 19.17 64 21 C60.41 22.2 57.03 22.41 53.28 22.72 C51 23 51 23 49 24 C46.33 24.13 43.68 24.04 41 24 C41 25.32 41 26.64 41 28 C40.23 27.99 39.46 27.98 38.66 27.96 C37.66 27.96 36.66 27.95 35.62 27.94 C35.13 27.93 35.13 27.93 32.6 27.9 C30 28 30 28 28 29 C21.88 29.56 18.26 29.16 13 26 C10.34 25.86 7.76 25.94 5.11 26.09 C4.41 26.06 3.72 26.03 3 26 C2.67 25.34 2.34 24.68 2 24 C-3.05 21.09 -7.17 19.86 -13 20 C-15.09 16.86 -15.54 14.94 -15.45 11.2 C-14.6 7.06 -11.98 3.91 -9 1 C-5.62 -1.06 -3.81 -1.24 0 0 Z " fill="#F2F1EB" transform="translate(34,67)"/>
<path d="M0 0 C1.3 0 2.6 0.01 3.94 0.01 C5.31 0.02 6.68 0.03 8.05 0.04 C9.43 0.04 10.82 0.04 12.2 0.05 C15.59 0.06 18.98 0.08 22.36 0.1 C22.36 0.76 22.36 1.42 22.36 2.1 C22.97 2.15 23.57 2.2 24.19 2.25 C24.99 2.32 25.79 2.4 26.61 2.47 C27.4 2.54 28.19 2.61 29 2.68 C31.48 3.12 33.24 3.75 35.36 5.1 C35.36 5.76 35.36 6.42 35.36 7.1 C25.78 10.68 17.3 11.67 7.11 11.47 C6.46 11.47 6.46 11.47 3.18 11.47 C-15.2 11.3 -15.2 11.3 -20.64 6.1 C-18.24 3.7 -17.3 3.75 -14.01 3.47 C-13.19 3.4 -12.38 3.32 -11.54 3.25 C-10.91 3.2 -10.28 3.15 -9.64 3.1 C-9.64 2.44 -9.64 1.78 -9.64 1.1 C-6.22 -0.04 -3.6 -0.02 0 0 Z " fill="#E6EAE0" transform="translate(54.63671875,73.90234375)"/>
<path d="M0 0 C1.65 0 3.3 0 5 0 C4.92 0.78 4.84 1.57 4.75 2.38 C4.79 2.81 4.79 2.81 5 5 C6.88 6.12 6.88 6.12 9 7 C11 10 11 10 10.94 12.94 C9.74 16.85 8.47 17.89 5 20 C2.67 20.68 0.34 21.35 -2 22 C-3.62 23.5 -3.62 23.5 -5 25 C-9.17 27.13 -12.68 27.21 -17.31 27.12 C-18.57 27.11 -19.82 27.09 -21.11 27.07 C-22.07 27.05 -23.02 27.02 -24 27 C-23.67 25.68 -23.34 24.36 -23 23 C-22.32 22.96 -21.65 22.93 -20.95 22.89 C-20.06 22.82 -19.17 22.76 -18.25 22.69 C-17.37 22.63 -16.49 22.57 -15.58 22.51 C-12.66 21.93 -11.28 20.85 -9 19 C-8.34 19 -7.68 19 -7 19 C-10.75 15.12 -10.75 15.12 -13 14 C-13 13.01 -13 12.02 -13 11 C-12.05 10.71 -11.1 10.42 -10.12 10.12 C-7 9 -7 9 -5 7 C-4.01 7 -3.02 7 -2 7 C-1.86 6.4 -1.71 5.8 -1.56 5.19 C-1.11 3.44 -0.57 1.71 0 0 Z " fill="#0A182C" transform="translate(105,78)"/>
<path d="M0 0 C0.33 0.99 0.66 1.98 1 3 C0.34 3.91 -0.32 4.82 -1 5.75 C-3 9 -3 9 -3 12.56 C-2 16 -2 16 0 18.38 C2.39 21.52 3.07 23.74 3.36 27.65 C2.66 32.28 -0.41 35.21 -4 38 C-6.43 39.13 -8.33 39.56 -11 40 C-10.67 38.95 -10.34 37.9 -10 36.81 C-9.13 33.5 -8.67 31.35 -9 28 C-10.31 25.97 -10.31 25.97 -12 24.06 C-14.08 21.43 -14.95 20.23 -15.62 16.88 C-13.76 8.32 -6.86 4.66 0 0 Z " fill="#D3D3C8" transform="translate(49,22)"/>
<path d="M0 0 C-0.26 0.72 -0.53 1.45 -0.8 2.2 C-1.76 5.15 -2.56 7.92 -3 11 C-1.19 14.25 -1.19 14.25 1 17 C1.65 20.55 1.71 22.75 -0.11 25.93 C-3.56 30.39 -6.49 32.01 -12 33 C-11.86 32.46 -11.71 31.93 -11.56 31.38 C-11.38 30.59 -11.19 29.81 -11 29 C-10.88 28.53 -10.88 28.53 -10.25 26.12 C-10 23 -10 23 -11.44 20.12 C-13.35 16.29 -14.36 13.11 -13 9 C-9.83 5.32 -5.19 0 0 0 Z " fill="#CDCDC5" transform="translate(87,28)"/>
<path d="M0 0 C-0.99 0.33 -1.98 0.66 -3 1 C-3 1.66 -3 2.32 -3 3 C-3.74 3.41 -4.48 3.83 -5.25 4.25 C-8.71 6.45 -10.14 8.35 -12 12 C-12.47 15.49 -12.61 18.78 -11 22 C-7.94 22.12 -7.94 22.12 -5 22 C-4.67 23.32 -4.34 24.64 -4 26 C-5.09 26.12 -6.19 26.25 -7.31 26.38 C-11 27 -11 27 -14 29 C-14.33 29.99 -14.66 30.98 -15 32 C-10.29 33.77 -5.97 34.49 -1 35 C-1 35.33 -1 35.66 -1 36 C-2.16 36.16 -2.16 36.16 -8 37 C-8 37.33 -8 37.66 -8 38 C-12.27 37.75 -14.58 37.31 -18.06 34.75 C-18.7 33.84 -19.34 32.94 -20 32 C-19.3 28.72 -17.87 26.8 -16 24 C-16.33 23.01 -16.66 22.02 -17 21 C-18.05 14.37 -16.54 10.35 -12.7 4.95 C-8.67 0.34 -6.14 -0.35 0 0 Z " fill="#081327" transform="translate(32,64)"/>
<path d="M0 0 C-1.88 5.75 -1.88 5.75 -3 8 C-3.42 12.24 -3.25 14.99 -1 18.56 C1.16 22.27 1.71 23.82 1 28 C-1.33 32.31 -3.96 35.24 -8 38 C-8.66 38 -9.32 38 -10 38 C-8 34 -8 34 -6.81 32.12 C-5.63 29.02 -6.13 27.19 -7 24 C-7.7 22.89 -8.4 21.77 -9.12 20.62 C-11.17 17.23 -11.41 14.86 -10.68 10.99 C-9.11 6.4 -5.41 0 0 0 Z " fill="#D0D0C6" transform="translate(70,23)"/>
<path d="M0 0 C1.13 -0.01 2.26 -0.02 3.42 -0.04 C12.1 -0.05 20.45 0.48 28.38 4.31 C29.12 4.67 29.87 5.02 30.63 5.38 C31.17 5.65 31.7 5.91 32.25 6.19 C31.59 7.51 30.93 8.83 30.25 10.19 C30.09 9.86 30.09 9.86 29.25 8.19 C27.09 7.56 24.89 7.03 22.69 6.56 C22.09 6.43 22.09 6.43 19.06 5.77 C18.13 5.58 17.2 5.39 16.25 5.19 C16.25 4.53 16.25 3.87 16.25 3.19 C10.97 3.35 10.97 3.35 -15.75 4.19 C-15.75 4.85 -15.75 5.51 -15.75 6.19 C-16.36 6.31 -16.98 6.43 -17.61 6.55 C-18.42 6.72 -19.23 6.89 -20.06 7.06 C-20.86 7.22 -21.66 7.39 -22.49 7.55 C-24.75 8.19 -24.75 8.19 -27.75 10.19 C-28.08 8.87 -28.41 7.55 -28.75 6.19 C-27.21 5.36 -25.67 4.55 -24.12 3.75 C-23.27 3.3 -22.41 2.85 -21.52 2.38 C-14.71 -0.55 -7.28 0 0 0 Z " fill="#7C9AAA" transform="translate(60.75,70.8125)"/>
<path d="M0 0 C0.33 0.66 0.66 1.32 1 2 C0.22 2.6 -0.57 3.2 -1.38 3.81 C-4 6 -4 6 -6 9 C-6 11.5 -6 11.5 -5 14 C-1.94 15.81 -1.94 15.81 1 17 C-0.38 19.06 -0.38 19.06 -3 21 C-6.43 21.21 -9.69 20.96 -13 20 C-15.09 16.86 -15.54 14.94 -15.45 11.2 C-14.6 7.06 -11.98 3.91 -9 1 C-5.62 -1.06 -3.81 -1.24 0 0 Z " fill="#E3E1D5" transform="translate(34,67)"/>
<path d="M0 0 C4.86 1.22 4.86 1.22 6.5 3.88 C6.17 4.86 5.84 5.86 5.5 6.88 C6.49 7.53 7.48 8.19 8.5 8.88 C6.52 8.88 4.54 8.88 2.5 8.88 C2.83 9.37 2.83 9.37 4.5 11.88 C4.56 14.31 4.56 14.31 3.5 16.88 C-0.57 19.77 -3.39 21.49 -8.5 20.88 C-8.17 19.89 -7.84 18.89 -7.5 17.88 C-5.18 16.86 -2.84 15.85 -0.5 14.88 C-0.5 14.22 -0.5 13.56 -0.5 12.88 C-2.25 12.02 -2.25 12.02 -4.5 11.25 C-5.24 10.99 -5.98 10.73 -6.75 10.46 C-7.33 10.27 -7.91 10.07 -8.5 9.88 C-7.84 9.55 -7.18 9.22 -6.5 8.88 C-6.5 8.22 -6.5 7.56 -6.5 6.88 C-7.16 6.88 -7.82 6.88 -8.5 6.88 C-5.33 -0.19 -5.33 -0.19 0 0 Z " fill="#232C3A" transform="translate(92.5,64.125)"/>
<path d="M0 0 C0.52 0 0.52 0 3.14 0 C8.44 0.03 13.52 0.26 18.75 1.19 C18.42 2.51 18.09 3.83 17.75 5.19 C4.55 5.19 -8.65 5.19 -22.25 5.19 C-22.58 4.2 -22.91 3.21 -23.25 2.19 C-15.42 0.48 -8 -0.1 0 0 Z " fill="#E6E6E2" transform="translate(63.25,64.8125)"/>
<path d="M0 0 C0.66 0.33 1.32 0.66 2 1 C1.84 1.27 1.84 1.27 1 2.62 C-0.37 5.88 -0.6 7.47 0 11 C1.14 12.52 2.33 13.99 3.56 15.44 C6.97 19.56 6.97 19.56 7.25 23.69 C5.72 27.75 4.07 29.93 1 33 C0.34 33 -0.32 33 -1 33 C-0.84 32.47 -0.84 32.47 0 29.81 C0.87 26.5 1.33 24.35 1 21 C-0.31 18.97 -0.31 18.97 -2 17.06 C-4.08 14.43 -4.95 13.23 -5.62 9.88 C-4.77 5.92 -2.87 2.87 0 0 Z " fill="#091424" transform="translate(39,29)"/>
<path d="M0 0 C0.66 0.33 1.32 0.66 2 1 C1.48 1.66 0.97 2.32 0.44 3 C-1.58 7.22 -0.96 9.44 0 14 C0.33 14.5 0.33 14.5 2 17 C2.33 20.87 2.25 23.75 0 27 C-0.66 27 -1.32 27 -2 27 C-2.33 27.99 -2.66 28.98 -3 30 C-3.66 30 -4.32 30 -5 30 C-4.93 29.73 -4.93 29.73 -4.56 28.38 C-4.38 27.59 -4.19 26.81 -4 26 C-3.88 25.53 -3.88 25.53 -3.25 23.12 C-3 20 -3 20 -4.44 17.12 C-6.36 13.28 -7.08 10.21 -6 6 C-4.21 3.55 -2.36 1.96 0 0 Z " fill="#0B1528" transform="translate(80,31)"/>
<path d="M0 0 C2.44 1.38 2.44 1.38 4 3 C4 3.66 4 4.32 4 5 C-0.47 9 -3.92 9.44 -9.83 9.43 C-10.54 9.29 -11.26 9.15 -12 9 C-12.66 8.01 -13.32 7.02 -14 6 C-9.09 0.96 -7.16 -0.49 0 0 Z " fill="#EBEAE0" transform="translate(94,92)"/>
<path d="M0 0 C2.03 -0.17 2.03 -0.17 4.66 -0.05 C5.6 -0 6.54 0.04 7.5 0.08 C8 0.11 8 0.11 10.5 0.25 C11.49 0.29 12.48 0.33 13.5 0.37 C18.97 0.65 18.97 0.65 21 1 C21.33 1.66 21.66 2.32 22 3 C18.58 4.14 15.91 4.1 12.31 4.06 C11.72 4.06 11.72 4.06 8.74 4.04 C7.83 4.02 6.93 4.01 6 4 C6 4.66 6 5.32 6 6 C7.65 6 9.3 6 11 6 C11 6.66 11 7.32 11 8 C9.42 8.03 7.83 8.05 6.25 8.06 C5.81 8.07 5.81 8.07 3.58 8.1 C1.22 8.01 -0.74 7.67 -3 7 C-1.12 2.25 -1.12 2.25 0 0 Z " fill="#BAC8CB" transform="translate(48,74)"/>
<path d="M0 0 C0.99 0.33 1.98 0.66 3 1 C2.01 2.65 1.02 4.3 0 6 C4.29 6.33 8.58 6.66 13 7 C12.67 7.99 12.34 8.98 12 10 C4.58 10.28 -3.1 10.47 -9.56 6.38 C-10.04 5.92 -10.51 5.47 -11 5 C-8.6 2.6 -7.67 2.66 -4.38 2.38 C-3.56 2.3 -2.74 2.23 -1.9 2.15 C-1.27 2.1 -0.65 2.05 0 2 C0 1.34 0 0.68 0 0 Z " fill="#ECEDE4" transform="translate(45,75)"/>
<path d="M0 0 C0.66 0.33 1.32 0.66 2 1 C0.8 3.49 -0.45 5.68 -2 8 C-1.34 8 -0.68 8 0 8 C0 8.66 0 9.32 0 10 C-1.88 9.86 -3.75 9.71 -5.62 9.56 C-6.67 9.48 -7.71 9.4 -8.79 9.32 C-12 9 -12 9 -14.88 8.5 C-18.71 7.89 -22.51 7.65 -26.38 7.44 C-26.74 7.42 -26.74 7.42 -28.61 7.31 C-30.4 7.2 -32.2 7.1 -34 7 C-34 6.67 -34 6.34 -34 6 C-29.92 5.97 -25.83 5.95 -21.75 5.94 C-21.17 5.93 -21.17 5.93 -18.24 5.91 C-17.12 5.91 -16.01 5.91 -14.86 5.9 C-14.35 5.9 -14.35 5.9 -11.75 5.89 C-9.32 5.99 -7.31 6.3 -5 7 C-4.67 5.68 -4.34 4.36 -4 3 C-6.31 3 -8.62 3 -11 3 C-9 1 -9 1 -7.09 0.84 C-6.38 0.87 -5.67 0.9 -4.94 0.94 C-3.64 0.96 -2.34 0.98 -1 1 C-0.67 0.67 -0.34 0.34 0 0 Z " fill="#0F1930" transform="translate(86,63)"/>
<path d="M0 0 C2.81 1.31 2.81 1.31 5 3 C5.33 3.99 5.66 4.98 6 6 C4 8 4 8 1.76 8.27 C0.89 8.26 0.02 8.26 -0.88 8.25 C-1.74 8.26 -2.6 8.26 -3.49 8.27 C-6.1 7.99 -7.75 7.32 -10 6 C-9.69 4.12 -9.69 4.12 -9 2 C-5.49 -0.34 -4.13 -0.41 0 0 Z " fill="#F0F0E5" transform="translate(27,90)"/>
<path d="M0 0 C0.79 0.11 1.58 0.22 2.39 0.33 C8.03 1.21 8.03 1.21 10.69 1.69 C9.7 2.02 8.71 2.35 7.69 2.69 C7.69 4.01 7.69 5.33 7.69 6.69 C6.21 6.91 4.73 7.11 3.25 7.31 C2.43 7.43 1.6 7.54 0.75 7.66 C0.07 7.67 -0.61 7.68 -1.31 7.69 C-1.64 7.03 -1.97 6.37 -2.31 5.69 C-3.16 5.36 -4 5.03 -4.88 4.69 C-5.68 4.36 -6.48 4.03 -7.31 3.69 C-7.31 3.03 -7.31 2.37 -7.31 1.69 C-4.04 -0.49 -3.65 -0.52 0 0 Z " fill="#EAEAE2" transform="translate(38.3125,85.3125)"/>
<path d="M0 0 C3.5 0.94 3.5 0.94 5.44 3 C5.79 3.64 6.14 4.28 6.5 4.94 C1.18 8.35 -2.56 8.03 -8.5 6.94 C-5.05 -0.09 -5.05 -0.09 0 0 Z " fill="#E6E6DB" transform="translate(92.5,64.0625)"/>
<path d="M0 0 C2.64 0.54 5.21 1.14 7.81 1.81 C8.54 1.99 9.26 2.17 10.01 2.35 C16.98 4.12 16.98 4.12 20 6 C20 6.33 20 6.66 20 7 C13.59 7.36 7.94 6.56 2 4 C0.21 2.39 0.21 2.39 -1 1 C-0.67 0.67 -0.34 0.34 0 0 Z " fill="#171A29" transform="translate(31,80)"/>
<path d="M0 0 C2.31 2.5 2.31 2.5 4 5 C1.38 6.31 -0.23 5.9 -3.12 5.56 C-4.04 5.46 -4.95 5.36 -5.88 5.25 C-6.58 5.17 -7.28 5.09 -8 5 C-8 4.01 -8 3.02 -8 2 C-4.76 -0.16 -3.76 -0.64 0 0 Z " fill="#E9E9E4" transform="translate(46,96)"/>
<path d="M0 0 C0.39 0.09 0.39 0.09 2.37 0.52 C4.56 1.19 4.56 1.19 7.56 3.19 C6.9 4.51 6.24 5.83 5.56 7.19 C5.23 6.53 4.9 5.87 4.56 5.19 C2.06 4.34 2.06 4.34 -1 3.56 C-2.01 3.3 -3.02 3.04 -4.07 2.77 C-4.85 2.58 -5.63 2.39 -6.44 2.19 C-6.44 1.53 -6.44 0.87 -6.44 0.19 C-3.86 -1.1 -2.78 -0.63 0 0 Z " fill="#7491A3" transform="translate(85.4375,73.8125)"/>
<path d="M0 0 C0.4 0.01 0.4 0.01 2.44 0.06 C3.44 3.06 3.44 3.06 2.44 6.06 C0.06 6.88 0.06 6.88 -2.56 7.06 C-3.55 6.4 -4.54 5.74 -5.56 5.06 C-3.15 0.08 -3.15 0.08 0 0 Z " fill="#E5E3D8" transform="translate(106.5625,86.9375)"/>
<path d="M0 0 C0.99 0.17 0.99 0.17 6 1 C6 1.33 6 1.66 6 2 C5.63 2.04 5.63 2.04 3.73 2.23 C-4.21 3.29 -4.21 3.29 -6.62 5.47 C-7.69 7.12 -7.69 7.12 -9 10 C-9.83 9.67 -9.83 9.67 -14 8 C-12.67 6.67 -11.33 5.33 -10 4 C-9.57 3.4 -9.13 2.8 -8.69 2.19 C-7 1 -7 1 -3.31 1.31 C-2.22 1.54 -1.13 1.77 0 2 C0 1.34 0 0.68 0 0 Z " fill="#384350" transform="translate(45,64)"/>
<path d="M0 0 C-0.33 1.32 -0.66 2.64 -1 4 C-9.91 3.67 -18.82 3.34 -28 3 C-28 2.67 -28 2.34 -28 2 C-27.4 1.97 -26.81 1.95 -26.2 1.92 C-23.51 1.81 -20.82 1.69 -18.12 1.56 C-17.19 1.52 -16.25 1.48 -15.29 1.44 C-14.39 1.4 -13.49 1.36 -12.57 1.32 C-12.16 1.3 -12.16 1.3 -10.06 1.21 C-6.52 0.85 -3.77 -0.08 0 0 Z " fill="#AFB2B3" transform="translate(82,66)"/>
<path d="M0 0 C0.24 0.65 0.49 1.3 0.74 1.98 C2 4 2 4 3.88 4.45 C4.62 4.43 5.37 4.41 6.13 4.39 C6.94 4.38 7.74 4.36 8.57 4.35 C9 4.33 9 4.33 11.12 4.25 C11.97 4.23 12.82 4.21 13.7 4.2 C15.8 4.15 17.9 4.08 20 4 C20 4.33 20 4.66 20 5 C16.85 5.2 13.71 5.38 10.56 5.56 C9.66 5.62 8.77 5.67 7.84 5.73 C6.99 5.78 6.13 5.83 5.25 5.88 C4.46 5.93 3.67 5.97 2.86 6.02 C1 6 1 6 0 5 C-1.69 4.93 -3.38 4.92 -5.06 4.94 C-5.98 4.95 -6.9 4.96 -7.85 4.96 C-8.56 4.98 -9.27 4.99 -10 5 C-10 4.67 -10 4.34 -10 4 C-7.03 4 -4.06 4 -1 4 C-0.67 2.68 -0.34 1.36 0 0 Z " fill="#01070F" transform="translate(57,58)"/>
<path d="M0 0 C0.66 0.33 1.32 0.66 2 1 C1.36 2.03 0.72 3.06 0.06 4.12 C-1.82 7.39 -2.63 10.22 -3 14 C-3.33 14 -3.66 14 -4 14 C-4.33 12.35 -4.66 10.7 -5 9 C-5.33 11.31 -5.66 13.62 -6 16 C-6.33 16 -6.66 16 -7 16 C-7.6 11.81 -8.01 8.39 -5.44 4.84 C-3.69 3.13 -1.92 1.52 0 0 Z " fill="#060C1A" transform="translate(62,27)"/>
<path d="M0 0 C0.66 1.32 1.32 2.64 2 4 C-0.13 6.35 -2.03 7.86 -5 9 C-7.75 9.12 -7.75 9.12 -10 9 C-9.67 8.01 -9.34 7.02 -9 6 C-6.67 4.98 -4.34 3.99 -2 3 C-1.34 2.01 -0.68 1.02 0 0 Z " fill="#182134" transform="translate(94,76)"/>
</svg>
