<svg xmlns="http://www.w3.org/2000/svg" width="128" height="128" viewBox="0 0 128 128"><path fill="#07182d" d="M96.97 68.94c7.16 3.74 13.8 13.2 18.03 20.06v2c-3.26.7-5.7 1.06-9 .44-3.56-.52-5.7.23-9 1.56l3 2v2q-3.9.72-7.77 1.4l-6.27 1.17c-13.67 2.55-25.96 4.06-39.72 1.78-2.37-.37-4.73-.63-7.11-.87l-2.4-.24-4.48-.45c-5.02-.56-5.02-.56-7.25-2.8l2-2-2.52-.17-3.3-.26-3.26-.24C15 94 15 94 12 93c.85-4.68 3.75-6.9 7.19-9.94l1.7-1.55a247 247 0 0 1 3.43-3.03Q26 77 27.62 75.47c3.77-3.43 3.77-3.43 6.39-3.6 3.59 2.04 6.5 4.96 9.48 7.8 1.54 1.38 1.54 1.38 4.5 3.33 2.58-.63 2.58-.63 5-2 2.54-.84 2.54-.84 5-1a34 34 0 0 1 4.57 3.5c2.62 1.73 2.62 1.73 5.44 2.5 3.69-1.9 6.1-4 9.14-6.82 3.4-2.6 4.73-2.25 8.86-2.18 2.42-1.78 2.42-1.78 4.63-4.06 3.82-3.92 3.82-3.92 6.34-4"/><path fill="#f3f2e5" d="M84.82 44.94C89.06 48.2 93.1 51.44 96 56c-1.42 6.2-9.5 11.4-14.56 14.63-10.12 5.32-19.83 6.83-30.87 3.75-9.11-3-16.95-8.41-23.57-15.38l-1-3c13.79-18.87 39.46-24.38 58.82-11.06"/><path fill="#081629" d="m95 69 3 1-2 1v3c-2.01 2.04-2.01 2.04-4.69 4.19l-2.63 2.17c-3 1.84-4.27 1.71-7.68 1.64-2.17 1.31-2.17 1.31-4.19 3-3.63 3-3.63 3-5.81 3l3 4c-6.41.55-9.33-1.98-14.32-5.66C57 85 57 85 54.47 85.73L52 87c-2.4.97-2.4.97-5 1a84 84 0 0 1-8.27-7.22C37.06 79.25 37.06 79.25 34 77c-3.04 1.02-5.02 2.78-7.23 5.04l-1.74 1.76-1.78 1.82-1.82 1.86L17 92l2.3-1.28 3.01-1.66 2.99-1.65C28 86 28 86 31 85c1.69 1.44 1.69 1.44 3 3l2-3a53 53 0 0 1 10 5l-2 4 1.79-.62 2.4-.82 2.35-.81L53 91l2.36-.77c3.79-.33 6.21 1.01 9.64 2.58l3.62 1.65L72 96l2.94 1.01L77 98v3c-11.88 2.44-23.06 1.78-35 .25l-2.2-.27C27.39 99.39 27.39 99.39 25 97l2-2-2.52-.18-3.29-.26-3.27-.24C15 94 15 94 12 93c.85-4.68 3.75-6.9 7.19-9.94l1.71-1.55a247 247 0 0 1 3.42-3.03 135 135 0 0 0 3.3-3.01c3.77-3.43 3.77-3.43 6.38-3.61 3.59 2.05 6.52 4.97 9.49 7.81 1.54 1.37 1.54 1.37 4.51 3.33 2.57-.64 2.57-.64 5-2 2.53-.84 2.53-.84 5-1 2.25 1.53 2.25 1.53 4.56 3.5 2.62 1.73 2.62 1.73 5.44 2.5 3.68-1.9 6.1-3.99 9.14-6.82 3.4-2.59 4.73-2.25 8.86-2.18 2.45-1.79 2.45-1.79 4.69-4.06 2.26-2.29 2.26-2.29 4.31-3.94"/><path fill="#0b1729" d="M84.82 44.94C89.06 48.2 93.1 51.44 96 56c-1.42 6.2-9.5 11.4-14.56 14.63-10.12 5.32-19.83 6.83-30.87 3.75-9.11-3-16.95-8.41-23.57-15.38l-1-3c13.79-18.87 39.46-24.38 58.82-11.06M32 56c2.79 7.09 11.29 11.48 17.94 14.5 8.39 2.98 16.63 2.43 24.68-1.22C80.02 66.38 86.32 63 90 58c-.23-2.75-.82-3.82-2.78-5.78C68.49 38.09 48.45 38.19 32 56"/><path fill="#17283c" d="M66 45c4.2 1.7 6.2 3.84 8 8 .54 4.22.29 6.43-1.62 10.25-3.55 4.1-6.52 5.52-11.88 6.19-4.18-.53-6.25-1.8-9.5-4.44-2.83-4.24-2.78-8.02-2-13 3.96-7.35 9.38-7.66 17-7"/><path fill="#eae9e2" d="M32 76c4.81 2.4 8.26 5.63 12.25 9.2C47 87 47 87 49.54 86.89 52 86 52 86 54.25 84.62c4.02-.9 6 .8 9.39 2.92l2.42 1.58 2.43 1.52c3.9 2.47 7.43 4.87 10.51 8.36a90 90 0 0 1-18.46-7.11c-4.34-1.52-7.08-.09-11.16 1.73C46 95 46 95 43 94l2-4-3.38-2-1.89-1.12C38 86 38 86 36 86c-1.62 1.5-1.62 1.5-3 3l-3-3-2.55 1.57-3.33 1.99-3.3 2.01L18 93l-2-1z"/><path fill="#ebeae2" d="M96 73c3.6 3.49 6.83 7.11 10 11l-2 1-2.88-1.5C98 82 98 82 96.03 82.21c-2.38.93-3.79 2.12-5.65 3.85C87.21 89 87.21 89 85 89v-3l-1.79.88C75.36 90.56 75.36 90.56 71 90v-2c4.12-3.59 8.16-6.75 13.62-7.5 5.08-.75 7.83-3.97 11.38-7.5"/><path fill="#afb0ac" d="M95 25c-.88 4.75-.88 4.75-2 7h-2l-.81 1.75C88.66 36.64 86.61 38.08 84 40c-.77-1.64-.77-1.64-1-4 1.77-2.8 1.77-2.8 4.25-5.75l2.45-2.98C92 25 92 25 95 25"/><path fill="#a4a5a0" d="M20 35c3.36.62 5.52 1.84 8.25 3.88l2.14 1.55L32 42v3c-5.44-.34-8.94-3.7-13-7z"/><path fill="#a1a29d" d="M107 39v3c-2.05 1.39-2.05 1.39-4.75 2.69l-2.67 1.32C97 47 97 47 93 47c.36-2.55.58-3.68 2.67-5.27 6.93-3.28 6.93-3.28 11.33-2.73"/><path fill="#e4e5df" d="m32 76 3 1-3 1c-1 1.81-1 1.81-2 4l-1.62 2.12C27 86 27 86 27 88c-1.9 1.32-1.9 1.32-4.38 2.69l-2.46 1.38L18 93l-2-1q3.89-4.05 7.81-8.06l2.24-2.34 2.16-2.2 1.98-2.04z"/><path fill="#081323" d="M51.36 39.32c.27.1.27.1 1.64.68h-2l-.21 1.86c-.8 2.14-.8 2.14-2.86 3.4l-2.5.99-2.5 1.02L41 48l-1-2-2-1q2.61-1.55 5.25-3.06l2.95-1.72C49 39 49 39 51.36 39.32"/><path fill="#deddd6" d="m70 68-1 2 2 1c-3.46 1.07-6.64 1.1-10.25 1.06l-3.27-.02L55 72v-2q2.9-.8 5.81-1.56l3.27-.88C67 67 67 67 70 68"/><path fill="#010b1b" d="m53 38 8.31-.12 2.38-.06 2.3-.02 2.11-.03C70 38 70 38 73 40c-2.94 1.47-5.6 1.21-8.88 1.25l-3.74.08c-3.53-.34-4.86-.92-7.38-3.33"/></svg>