<svg xmlns="http://www.w3.org/2000/svg" width="128" height="128" viewBox="0 0 128 128">
  <path fill="#fcf9e4" d="M21 35 33 42 30 46 18 39z"/>
  <path fill="#fcf9e4" d="M78 35 91 24 94 27 81 40z"/>
  <path fill="#fcf9e4" d="M96 47 110 40 112 44 98 51z"/>
  <path fill="#0e1530" d="M26 57c11-14 24-21 38-21 13 0 26 7 38 21-11 13-24 20-39 20s-27-7-37-20z"/>
  <path fill="#fcf9e4" d="M35 57c9-9 18-14 29-14 10 0 20 5 29 14-9 8-18 13-30 13-11 0-20-5-28-13z"/>
  <path fill="#0e1530" d="M64 45c7 0 12 5 12 12s-5 13-12 13-12-6-12-13 5-12 12-12z"/>
  <path fill="#fcf9e4" d="M59 49c2 0 4 2 4 4s-2 4-4 4-4-2-4-4 2-4 4-4z"/>
  <path fill="#0e1530" d="M14 104 42 74l18 20 10-8 16 14 18-18 20 22z"/>
  <path fill="#fcf9e4" d="M36 80 42 74l8 8-4 3-5-2z"/>
  <path fill="#fcf9e4" d="M82 90 88 84l7 7-5 3-4-2z"/>
</svg>