<?xml version="1.0" encoding="UTF-8"?>
<!-- Generator: visioncortex VTracer 0.6.12 -->
<svg version="1.1" xmlns="http://www.w3.org/2000/svg" width="128" height="128" viewBox="0 0 128 128" preserveAspectRatio="xMidYMid meet">
<path d="M0 0 C7.16 3.74 13.8 13.2 18.03 20.06 C18.03 20.72 18.03 21.38 18.03 22.06 C14.77 22.76 12.34 23.12 9.03 22.5 C5.47 21.98 3.33 22.73 0.03 24.06 C1.02 24.72 2.01 25.38 3.03 26.06 C3.03 26.72 3.03 27.38 3.03 28.06 C0.44 28.53 -2.15 29.01 -4.74 29.47 C-6.83 29.86 -8.92 30.24 -11.01 30.63 C-24.68 33.18 -36.97 34.69 -50.73 32.41 C-53.1 32.04 -55.46 31.78 -57.84 31.54 C-58.63 31.46 -59.42 31.38 -60.23 31.3 C-61.73 31.14 -63.22 31 -64.72 30.85 C-69.74 30.29 -69.74 30.29 -71.97 28.06 C-71.31 27.4 -70.65 26.74 -69.97 26.06 C-70.38 26.03 -70.38 26.03 -72.49 25.88 C-73.57 25.8 -74.66 25.71 -75.78 25.62 C-76.86 25.54 -77.94 25.46 -79.05 25.38 C-81.97 25.06 -81.97 25.06 -84.97 24.06 C-84.12 19.38 -81.22 17.16 -77.78 14.12 C-77.22 13.61 -76.65 13.1 -76.07 12.57 C-74.94 11.55 -73.8 10.54 -72.65 9.54 C-71.53 8.56 -70.43 7.56 -69.35 6.53 C-65.58 3.1 -65.58 3.1 -62.96 2.93 C-59.37 4.97 -56.45 7.89 -53.48 10.73 C-51.94 12.11 -51.94 12.11 -48.97 14.06 C-46.4 13.43 -46.4 13.43 -43.97 12.06 C-41.44 11.22 -41.44 11.22 -38.97 11.06 C-36.71 12.59 -36.71 12.59 -34.41 14.56 C-31.79 16.29 -31.79 16.29 -28.97 17.06 C-25.28 15.16 -22.86 13.07 -19.83 10.24 C-16.43 7.65 -15.1 7.99 -10.97 8.06 C-8.55 6.28 -8.55 6.28 -6.34 4 C-2.52 0.08 -2.52 0.08 0 0 Z " fill="#07182D" transform="translate(96.96875,68.9375)"/>
<path d="M0 0 C4.24 3.26 8.28 6.51 11.18 11.06 C9.76 17.26 1.69 22.47 -3.38 25.69 C-13.5 31.01 -23.21 32.52 -34.25 29.44 C-43.36 26.44 -51.2 21.03 -57.82 14.06 C-58.15 13.07 -58.48 12.08 -58.82 11.06 C-45.03 -7.81 -19.36 -13.32 0 0 Z " fill="#F3F2E5" transform="translate(84.81640625,44.9375)"/>
<path d="M0 0 C0.99 0.33 1.98 0.66 3 1 C2.34 1.33 1.68 1.66 1 2 C1 2.99 1 3.98 1 5 C-1.01 7.04 -1.01 7.04 -3.69 9.19 C-4.56 9.9 -5.43 10.62 -6.32 11.36 C-9.32 13.2 -10.59 13.07 -14 13 C-16.17 14.31 -16.17 14.31 -18.19 16 C-21.82 19 -21.82 19 -24 19 C-23.01 20.32 -22.02 21.64 -21 23 C-27.41 23.55 -30.33 21.02 -35.32 17.34 C-38 16 -38 16 -40.53 16.73 C-41.34 17.15 -42.16 17.57 -43 18 C-45.4 18.97 -45.4 18.97 -48 19 C-51 16.76 -53.59 14.38 -56.27 11.78 C-57.94 10.25 -57.94 10.25 -61 8 C-64.04 9.02 -66.02 10.78 -68.23 13.04 C-68.81 13.62 -69.38 14.2 -69.97 14.8 C-70.27 15.1 -70.27 15.1 -71.75 16.62 C-72.05 16.93 -72.05 16.93 -73.57 18.48 C-75.05 19.98 -76.53 21.49 -78 23 C-77.24 22.58 -76.48 22.16 -75.7 21.72 C-74.71 21.17 -73.71 20.63 -72.69 20.06 C-71.7 19.52 -70.72 18.97 -69.7 18.41 C-67 17 -67 17 -64 16 C-62.31 17.44 -62.31 17.44 -61 19 C-60.34 18.01 -59.68 17.02 -59 16 C-55.41 17.33 -52.25 18.96 -49 21 C-49.66 22.32 -50.32 23.64 -51 25 C-50.41 24.8 -49.82 24.59 -49.21 24.38 C-48.81 24.24 -48.81 24.24 -46.81 23.56 C-46.04 23.3 -45.26 23.03 -44.46 22.75 C-43.65 22.51 -42.84 22.26 -42 22 C-41.22 21.74 -40.44 21.49 -39.64 21.23 C-35.85 20.9 -33.43 22.24 -30 23.81 C-28.8 24.36 -27.61 24.9 -26.38 25.46 C-25.82 25.71 -25.82 25.71 -23 27 C-22.03 27.33 -21.06 27.67 -20.06 28.01 C-19.38 28.34 -18.7 28.66 -18 29 C-18 29.99 -18 30.98 -18 32 C-29.88 34.44 -41.06 33.78 -53 32.25 C-53.72 32.16 -54.45 32.07 -55.2 31.98 C-67.61 30.39 -67.61 30.39 -70 28 C-69.34 27.34 -68.68 26.68 -68 26 C-68.42 25.97 -68.42 25.97 -70.52 25.82 C-71.61 25.73 -72.69 25.65 -73.81 25.56 C-74.89 25.48 -75.97 25.4 -77.08 25.32 C-80 25 -80 25 -83 24 C-82.15 19.32 -79.25 17.1 -75.81 14.06 C-75.25 13.55 -74.68 13.04 -74.1 12.51 C-72.97 11.49 -71.83 10.48 -70.68 9.48 C-69.56 8.49 -68.46 7.49 -67.38 6.47 C-63.61 3.04 -63.61 3.04 -61 2.86 C-57.41 4.91 -54.48 7.83 -51.51 10.67 C-49.97 12.04 -49.97 12.04 -47 14 C-44.43 13.36 -44.43 13.36 -42 12 C-39.47 11.16 -39.47 11.16 -37 11 C-34.75 12.53 -34.75 12.53 -32.44 14.5 C-29.82 16.23 -29.82 16.23 -27 17 C-23.32 15.1 -20.9 13.01 -17.86 10.18 C-14.46 7.59 -13.13 7.93 -9 8 C-6.55 6.21 -6.55 6.21 -4.31 3.94 C-2.05 1.65 -2.05 1.65 0 0 Z " fill="#081629" transform="translate(95,69)"/>
<path d="M0 0 C4.24 3.26 8.28 6.51 11.18 11.06 C9.76 17.26 1.69 22.47 -3.38 25.69 C-13.5 31.01 -23.21 32.52 -34.25 29.44 C-43.36 26.44 -51.2 21.03 -57.82 14.06 C-58.15 13.07 -58.48 12.08 -58.82 11.06 C-45.03 -7.81 -19.36 -13.32 0 0 Z M-52.82 11.06 C-50.03 18.15 -41.53 22.54 -34.88 25.56 C-26.49 28.54 -18.25 27.99 -10.2 24.34 C-4.8 21.45 1.51 18.07 5.18 13.06 C4.95 10.31 4.36 9.24 2.4 7.28 C-16.33 -6.85 -36.37 -6.75 -52.82 11.06 Z " fill="#0B1729" transform="translate(84.81640625,44.9375)"/>
<path d="M0 0 C4.2 1.7 6.2 3.84 8 8 C8.54 12.22 8.29 14.43 6.38 18.25 C2.83 22.35 -0.14 23.77 -5.5 24.44 C-9.68 23.91 -11.75 22.64 -15 20 C-17.83 15.76 -17.78 11.98 -17 7 C-13.04 -0.35 -7.62 -0.66 0 0 Z " fill="#17283C" transform="translate(66,45)"/>
<path d="M0 0 C4.81 2.4 8.26 5.63 12.25 9.2 C15 11 15 11 17.54 10.89 C20 10 20 10 22.25 8.62 C26.27 7.72 28.25 9.42 31.64 11.54 C32.44 12.06 33.24 12.59 34.06 13.12 C34.86 13.63 35.67 14.13 36.49 14.64 C40.39 17.11 43.92 19.51 47 23 C40.46 21.26 34.57 18.99 28.54 15.89 C24.2 14.37 21.46 15.8 17.38 17.62 C14 19 14 19 11 18 C11.66 16.68 12.32 15.36 13 14 C11.89 13.34 10.77 12.68 9.62 12 C9 11.63 8.37 11.26 7.73 10.88 C6 10 6 10 4 10 C2.38 11.5 2.38 11.5 1 13 C0.01 12.01 -0.98 11.02 -2 10 C-2.84 10.52 -3.69 11.03 -4.55 11.57 C-5.65 12.23 -6.75 12.88 -7.88 13.56 C-8.97 14.22 -10.06 14.89 -11.18 15.57 C-12.11 16.04 -13.04 16.51 -14 17 C-14.66 16.67 -15.32 16.34 -16 16 C-10.72 10.72 -5.44 5.44 0 0 Z " fill="#EAE9E2" transform="translate(32,76)"/>
<path d="M0 0 C3.6 3.49 6.83 7.11 10 11 C9.34 11.33 8.68 11.66 8 12 C7.05 11.5 6.1 11.01 5.12 10.5 C2 9 2 9 0.03 9.21 C-2.35 10.14 -3.76 11.33 -5.62 13.06 C-8.79 16 -8.79 16 -11 16 C-11 15.01 -11 14.02 -11 13 C-11.59 13.29 -12.18 13.58 -12.79 13.88 C-20.64 17.56 -20.64 17.56 -25 17 C-25 16.34 -25 15.68 -25 15 C-20.88 11.41 -16.84 8.25 -11.38 7.5 C-6.3 6.75 -3.55 3.53 0 0 Z " fill="#EBEAE2" transform="translate(96,73)"/>
<path d="M0 0 C-0.88 4.75 -0.88 4.75 -2 7 C-2.66 7 -3.32 7 -4 7 C-4.27 7.58 -4.54 8.16 -4.81 8.75 C-6.34 11.64 -8.39 13.08 -11 15 C-11.77 13.36 -11.77 13.36 -12 11 C-10.23 8.2 -10.23 8.2 -7.75 5.25 C-7.35 4.76 -7.35 4.76 -5.3 2.27 C-3 0 -3 0 0 0 Z " fill="#AFB0AC" transform="translate(95,25)"/>
<path d="M0 0 C3.36 0.62 5.52 1.84 8.25 3.88 C8.96 4.39 9.66 4.9 10.39 5.43 C10.92 5.95 11.45 6.47 12 7 C12 7.99 12 8.98 12 10 C6.56 9.66 3.06 6.3 -1 3 C-0.67 2.01 -0.34 1.02 0 0 Z " fill="#A4A5A0" transform="translate(20,35)"/>
<path d="M0 0 C0 0.99 0 1.98 0 3 C-2.05 4.39 -2.05 4.39 -4.75 5.69 C-5.19 5.91 -5.19 5.91 -7.42 7.01 C-10 8 -10 8 -14 8 C-13.64 5.45 -13.42 4.32 -11.33 2.73 C-4.4 -0.55 -4.4 -0.55 0 0 Z " fill="#A1A29D" transform="translate(107,39)"/>
<path d="M0 0 C0.99 0.33 1.98 0.66 3 1 C2.01 1.33 1.02 1.66 0 2 C-1 3.81 -1 3.81 -2 6 C-2.54 6.7 -3.07 7.4 -3.62 8.12 C-5 10 -5 10 -5 12 C-6.9 13.32 -6.9 13.32 -9.38 14.69 C-10.19 15.15 -11 15.6 -11.84 16.07 C-12.55 16.38 -13.26 16.69 -14 17 C-14.66 16.67 -15.32 16.34 -16 16 C-13.41 13.3 -10.8 10.62 -8.19 7.94 C-7.45 7.17 -6.71 6.39 -5.95 5.6 C-5.24 4.87 -4.53 4.15 -3.79 3.4 C-3.47 3.06 -3.47 3.06 -1.81 1.36 C-1.21 0.91 -0.62 0.46 0 0 Z " fill="#E4E5DF" transform="translate(32,76)"/>
<path d="M0 0 C0.27 0.11 0.27 0.11 1.64 0.68 C0.98 0.68 0.32 0.68 -0.36 0.68 C-0.39 0.99 -0.39 0.99 -0.57 2.54 C-1.36 4.68 -1.36 4.68 -3.43 5.95 C-4.25 6.27 -5.07 6.6 -5.92 6.93 C-6.75 7.27 -7.57 7.6 -8.43 7.95 C-9.06 8.19 -9.7 8.43 -10.36 8.68 C-10.69 8.02 -11.02 7.36 -11.36 6.68 C-12.02 6.35 -12.68 6.02 -13.36 5.68 C-11.62 4.65 -9.87 3.63 -8.11 2.62 C-7.62 2.34 -7.62 2.34 -5.16 0.9 C-2.36 -0.32 -2.36 -0.32 0 0 Z " fill="#081323" transform="translate(51.359375,39.31640625)"/>
<path d="M0 0 C-0.33 0.66 -0.66 1.32 -1 2 C-0.34 2.33 0.32 2.66 1 3 C-2.46 4.07 -5.64 4.1 -9.25 4.06 C-10.33 4.05 -11.41 4.04 -12.52 4.04 C-13.34 4.02 -14.16 4.01 -15 4 C-15 3.34 -15 2.68 -15 2 C-13.07 1.47 -11.13 0.95 -9.19 0.44 C-8.11 0.15 -7.03 -0.14 -5.92 -0.44 C-3 -1 -3 -1 0 0 Z " fill="#DEDDD6" transform="translate(70,68)"/>
<path d="M0 0 C2.77 -0.05 5.54 -0.09 8.31 -0.12 C9.1 -0.14 9.88 -0.16 10.69 -0.18 C11.45 -0.18 12.21 -0.19 12.99 -0.2 C13.68 -0.21 14.38 -0.22 15.1 -0.23 C17 0 17 0 20 2 C17.06 3.47 14.4 3.21 11.12 3.25 C9.89 3.28 8.66 3.3 7.38 3.33 C3.85 2.99 2.52 2.41 0 0 Z " fill="#010B1B" transform="translate(53,38)"/>
</svg>
