<?xml version="1.0" encoding="UTF-8"?>
<!-- Generator: visioncortex VTracer 0.6.12 -->
<svg version="1.1" xmlns="http://www.w3.org/2000/svg" width="128" height="128" viewBox="0 0 128 128" preserveAspectRatio="xMidYMid meet">
<path d="M0 0 C0.37 -0.01 0.37 -0.01 2.23 -0.05 C20.12 -0.21 33.88 7.4 48.38 17.25 C50.27 19.14 49.56 21.82 49.61 24.34 C49.38 26.25 49.38 26.25 47.38 28.25 C46.39 28.25 45.39 28.25 44.38 28.25 C44.35 28.59 44.35 28.59 44.23 30.33 C44.15 31.23 44.08 32.13 44 33.06 C43.93 33.96 43.86 34.85 43.79 35.77 C43.38 38.25 43.38 38.25 41.38 41.25 C41.12 43.62 41.12 43.62 41.11 46.4 C41.11 47.4 41.1 48.41 41.1 49.45 C41.11 49.97 41.11 49.97 41.12 52.62 C41.12 53.67 41.11 54.71 41.1 55.78 C41.1 56.29 41.1 56.29 41.11 58.84 C41.11 59.3 41.11 59.3 41.12 61.62 C41.4 64.49 42.24 66.62 43.38 69.25 C43.45 69.7 43.45 69.7 43.81 72 C43.91 72.37 43.91 72.37 44.38 74.25 C44.87 74.41 44.87 74.41 47.38 75.25 C47.38 76.57 47.38 77.89 47.38 79.25 C49.03 79.58 50.67 79.91 52.38 80.25 C52.4 81.9 52.42 83.54 52.44 85.19 C52.45 86.1 52.46 87.02 52.47 87.96 C52.38 90.25 52.38 90.25 51.38 91.25 C48.28 91.35 45.2 91.39 42.1 91.38 C41.61 91.38 41.61 91.38 39.15 91.38 C35.91 91.39 32.67 91.39 29.44 91.38 C27.2 91.38 24.96 91.38 22.72 91.39 C18.03 91.39 13.33 91.39 8.63 91.38 C2.59 91.37 -3.44 91.38 -9.48 91.38 C-14.1 91.39 -18.73 91.39 -23.35 91.38 C-25.58 91.38 -27.8 91.38 -30.03 91.39 C-33.14 91.39 -36.24 91.38 -39.35 91.38 C-40.28 91.38 -41.21 91.38 -42.17 91.39 C-48.51 91.36 -48.51 91.36 -49.62 90.25 C-50.04 87.2 -50.15 84.28 -49.62 81.25 C-47.19 80 -47.19 80 -44.62 79.25 C-43.94 76.69 -43.94 76.69 -43.62 74.25 C-43.3 74.09 -43.3 74.09 -41.62 73.25 C-41.3 72.4 -40.97 71.56 -40.62 70.69 C-40.3 69.88 -39.97 69.08 -39.62 68.25 C-38.97 68.25 -38.3 68.25 -37.62 68.25 C-37.62 59.01 -37.62 49.77 -37.62 40.25 C-38.62 39.92 -39.61 39.59 -40.62 39.25 C-41.14 36.75 -41.14 36.75 -41.31 33.69 C-41.38 32.68 -41.44 31.66 -41.51 30.62 C-41.55 29.84 -41.59 29.06 -41.62 28.25 C-43.27 27.92 -44.92 27.59 -46.62 27.25 C-47.34 24.04 -47.52 21.44 -46.62 18.25 C-43.38 15.21 -39.58 13.4 -35.62 11.44 C-34.6 10.89 -33.57 10.35 -32.5 9.78 C-30.48 8.71 -28.43 7.67 -26.38 6.65 C-23.62 5.25 -23.62 5.25 -21.64 4.02 C-15.05 0.05 -7.49 0.12 0 0 Z " fill="#07172A" transform="translate(62.625,16.75)"/>
<path d="M0 0 C11.22 0 22.44 0 34 0 C34 0.33 34 0.66 34 1 C30.04 1 26.08 1 22 1 C22.16 1.66 22.16 1.66 23 5 C26.3 5.33 29.6 5.66 33 6 C33 6.33 33 6.66 33 7 C30.03 7 27.06 7 24 7 C24 16.9 24 26.8 24 37 C26.64 37 29.28 37 32 37 C32 27.43 32 17.86 32 8 C32.33 8 32.66 8 33 8 C33.33 18.23 33.66 28.46 34 39 C32.02 39.16 32.02 39.16 22 40 C21.67 41.32 21.34 42.64 21 44 C32.22 44 43.44 44 55 44 C55 42.35 55 40.7 55 39 C50.71 39 46.42 39 42 39 C42 38.67 42 38.34 42 38 C45.63 37.67 49.26 37.34 53 37 C53 27.43 53 17.86 53 8 C54.32 8.33 55.64 8.66 57 9 C56.99 9.67 56.98 10.34 56.97 11.03 C56.93 14.08 56.9 17.14 56.88 20.19 C56.87 20.72 56.87 20.72 56.82 23.38 C56.82 24.41 56.81 25.43 56.8 26.48 C56.79 27.42 56.78 28.36 56.77 29.32 C57.02 32.23 57.84 34.34 59 37 C59.07 37.45 59.07 37.45 59.44 39.75 C59.62 40.49 59.81 41.23 60 42 C60.5 42.16 60.5 42.16 63 43 C63 44.32 63 45.64 63 47 C64.65 47.33 66.3 47.66 68 48 C68.03 49.65 68.05 51.29 68.06 52.94 C68.07 53.85 68.09 54.77 68.1 55.71 C68 58 68 58 67 59 C63.9 59.1 60.82 59.14 57.72 59.13 C56.75 59.13 55.77 59.13 54.77 59.13 C51.54 59.14 48.3 59.14 45.06 59.13 C42.82 59.13 40.59 59.13 38.35 59.14 C33.65 59.14 28.95 59.14 24.25 59.13 C18.22 59.12 12.18 59.13 6.15 59.13 C1.52 59.14 -3.1 59.14 -7.73 59.13 C-9.95 59.13 -12.18 59.13 -14.41 59.14 C-17.51 59.14 -20.62 59.13 -23.72 59.13 C-24.65 59.13 -25.58 59.13 -26.54 59.14 C-32.89 59.11 -32.89 59.11 -34 58 C-34.42 54.95 -34.53 52.03 -34 49 C-31.56 47.75 -31.56 47.75 -29 47 C-28.31 44.44 -28.31 44.44 -28 42 C-27.67 41.84 -27.67 41.84 -26 41 C-25.67 40.15 -25.34 39.31 -25 38.44 C-24.67 37.63 -24.34 36.83 -24 36 C-23.34 36 -22.68 36 -22 36 C-22 26.76 -22 17.52 -22 8 C-21.67 8 -21.34 8 -21 8 C-20.67 10.97 -20.34 13.94 -20 17 C-19.67 17 -19.34 17 -19 17 C-18.67 23.6 -18.34 30.2 -18 37 C-14.7 37.33 -11.4 37.66 -8 38 C-8 38.33 -8 38.66 -8 39 C-12.29 39 -16.58 39 -21 39 C-21 40.65 -21 42.3 -21 44 C-20.43 43.97 -19.86 43.94 -19.28 43.91 C-8.51 43.34 2.21 42.82 13 43 C13 41.68 13 40.36 13 39 C9.37 38.67 5.74 38.34 2 38 C1.98 33.75 1.96 29.49 1.95 25.24 C1.94 23.79 1.93 22.34 1.92 20.89 C1.91 18.82 1.91 16.74 1.9 14.66 C1.9 13.41 1.89 12.16 1.89 10.87 C2 8 2 8 3 7 C5.67 7 8.33 7 11 7 C11.33 6.67 11.66 6.34 12 6 C8.37 6 4.74 6 1 6 C1 5.67 1 5.34 1 5 C4.96 5 8.92 5 13 5 C13 3.68 13 2.36 13 1 C8.71 1 4.42 1 0 1 C0 0.67 0 0.34 0 0 Z " fill="#010618" transform="translate(47,49)"/>
<path d="M0 0 C25.74 0 51.48 0 78 0 C78.16 0.66 78.16 0.66 79 4 C79.66 4 80.32 4 81 4 C81.25 7.37 81.25 7.37 81 11 C79.06 12.31 79.06 12.31 77 13 C75.63 15.74 75.84 18 75.79 21.07 C75.76 22.27 75.73 23.48 75.7 24.72 C75.65 27.29 75.61 29.85 75.57 32.41 C75.54 33.62 75.51 34.82 75.48 36.07 C75.46 37.18 75.44 38.29 75.42 39.44 C75.28 40.28 75.14 41.13 75 42 C74.5 42.16 74.5 42.16 72 43 C73.65 43.33 75.3 43.66 77 44 C77 45.65 77 47.3 77 49 C65.78 49 54.56 49 43 49 C43.33 47.35 43.66 45.7 44 44 C47.63 43.67 51.26 43.34 55 43 C54 42 54 42 52.15 41.9 C50.1 41.93 48.05 41.97 46 42 C46.01 41.1 46.02 40.2 46.03 39.28 C46.07 35.95 46.09 32.62 46.11 29.29 C46.12 27.85 46.13 26.41 46.15 24.97 C46.18 22.9 46.19 20.83 46.2 18.76 C46.21 17.51 46.22 16.27 46.23 14.98 C46 12 46 12 44 10 C44 8.68 44 7.36 44 6 C41.03 6 38.06 6 35 6 C35 7.32 35 8.64 35 10 C30.71 10 26.42 10 22 10 C21.67 8.35 21.34 6.7 21 5 C14.07 4.67 7.14 4.34 0 4 C0 2.68 0 1.36 0 0 Z M64 5 C64 5.33 64 5.66 64 6 C68.62 6 73.24 6 78 6 C78 5.67 78 5.34 78 5 C73.38 5 68.76 5 64 5 Z " fill="#1D2E41" transform="translate(25,44)"/>
<path d="M0 0 C7.47 3.13 14.41 7.24 21.33 11.41 C23.6 12.76 25.88 14.06 28.2 15.32 C34.14 18.58 34.14 18.58 36 20 C36 20.99 36 21.98 36 23 C6.96 23 -22.08 23 -52 23 C-51 19 -51 19 -49.18 17.66 C-48.4 17.27 -47.61 16.89 -46.8 16.48 C-46.36 16.26 -46.36 16.26 -44.16 15.14 C-43.22 14.68 -42.28 14.22 -41.31 13.75 C-35.48 10.84 -29.78 7.96 -24.33 4.37 C-16.61 -0.59 -8.87 -2.61 0 0 Z " fill="#111729" transform="translate(72,18)"/>
<path d="M0 0 C11.22 0 22.44 0 34 0 C34 0.33 34 0.66 34 1 C30.04 1 26.08 1 22 1 C22.33 2.32 22.66 3.64 23 5 C26.3 5.33 29.6 5.66 33 6 C33 6.33 33 6.66 33 7 C30.03 7 27.06 7 24 7 C24 16.9 24 26.8 24 37 C26.64 37 29.28 37 32 37 C32 27.43 32 17.86 32 8 C32.33 8 32.66 8 33 8 C33.33 18.23 33.66 28.46 34 39 C32.02 39.16 32.02 39.16 22 40 C21.67 41.32 21.34 42.64 21 44 C14.07 44 7.14 44 0 44 C0 43.67 0 43.34 0 43 C4.29 43 8.58 43 13 43 C13 41.68 13 40.36 13 39 C9.37 38.67 5.74 38.34 2 38 C1.98 33.75 1.96 29.49 1.95 25.24 C1.94 23.79 1.93 22.34 1.92 20.89 C1.91 18.82 1.91 16.74 1.9 14.66 C1.9 13.41 1.89 12.16 1.89 10.87 C2 8 2 8 3 7 C5.67 7 8.33 7 11 7 C11.33 6.67 11.66 6.34 12 6 C8.37 6 4.74 6 1 6 C1 5.67 1 5.34 1 5 C4.96 5 8.92 5 13 5 C13 3.68 13 2.36 13 1 C8.71 1 4.42 1 0 1 C0 0.67 0 0.34 0 0 Z " fill="#0D1D30" transform="translate(47,49)"/>
<path d="M0 0 C0.76 0.04 1.53 0.07 2.31 0.11 C2.87 0.16 3.43 0.2 4 0.25 C0.36 3.34 -3.33 5.65 -7.54 7.89 C-8.15 8.21 -8.76 8.54 -9.39 8.87 C-11.32 9.9 -13.25 10.92 -15.19 11.94 C-16.5 12.63 -17.81 13.33 -19.12 14.03 C-28.1 18.8 -28.1 18.8 -31 20.25 C-31.33 21.24 -31.66 22.23 -32 23.25 C-2.96 23.25 26.08 23.25 56 23.25 C56 22.26 56 21.27 56 20.25 C53.87 19.26 53.87 19.26 51 18.25 C47.23 16.35 43.51 14.34 39.79 12.34 C38.01 11.38 36.22 10.43 34.44 9.48 C33.3 8.87 32.17 8.26 31 7.63 C29.97 7.08 28.94 6.53 27.88 5.96 C25.02 4.26 22.54 2.38 20 0.25 C29.52 -1.09 36.5 3.69 44.5 8.19 C45.89 8.95 47.29 9.71 48.69 10.47 C58.71 15.96 58.71 15.96 60 17.25 C60.27 22.99 60.27 22.99 60 25.25 C59.34 25.91 58.68 26.57 58 27.25 C57.01 27.25 56.02 27.25 55 27.25 C55 29.23 55 31.21 55 33.25 C54.67 32.26 54.34 31.27 54 30.25 C53.5 30.41 53.5 30.41 51 31.25 C51 29.6 51 27.95 51 26.25 C25.26 26.25 -0.48 26.25 -27 26.25 C-26.67 27.57 -26.34 28.89 -26 30.25 C-21.71 30.58 -17.42 30.91 -13 31.25 C-13 31.58 -13 31.91 -13 32.25 C-13.84 32.26 -14.69 32.28 -15.55 32.29 C-16.1 32.32 -16.1 32.32 -18.88 32.44 C-19.42 32.45 -19.42 32.45 -22.18 32.54 C-22.65 32.66 -22.65 32.66 -25 33.25 C-26.2 35.8 -26.2 35.8 -27 38.25 C-27.99 38.25 -28.98 38.25 -30 38.25 C-30.33 34.62 -30.66 30.99 -31 27.25 C-32.65 26.92 -34.3 26.59 -36 26.25 C-36.72 23.04 -36.9 20.44 -36 17.25 C-32.76 14.21 -28.96 12.4 -25 10.44 C-23.97 9.89 -22.94 9.35 -21.88 8.78 C-18.94 7.23 -15.97 5.74 -13 4.25 C-12.22 3.83 -11.44 3.41 -10.64 2.98 C-6.99 1.04 -4.17 -0.26 0 0 Z M37 31.25 C41.62 31.25 46.24 31.25 51 31.25 C51 31.58 51 31.91 51 32.25 C46.38 32.25 41.76 32.25 37 32.25 C37 31.92 37 31.59 37 31.25 Z " fill="#00091B" transform="translate(52,17.75)"/>
<path d="M0 0 C7.47 3.13 14.41 7.24 21.33 11.41 C23.6 12.76 25.88 14.06 28.2 15.32 C34.14 18.58 34.14 18.58 36 20 C36 20.99 36 21.98 36 23 C6.96 23 -22.08 23 -52 23 C-51 19 -51 19 -49.18 17.66 C-48.4 17.27 -47.61 16.89 -46.8 16.48 C-46.36 16.26 -46.36 16.26 -44.16 15.14 C-43.22 14.68 -42.28 14.22 -41.31 13.75 C-35.48 10.84 -29.78 7.96 -24.33 4.37 C-16.61 -0.59 -8.87 -2.61 0 0 Z M-14.22 3.94 C-15 4.36 -15.78 4.77 -16.59 5.2 C-17.41 5.65 -18.22 6.1 -19.06 6.56 C-19.9 7.01 -20.74 7.47 -21.6 7.93 C-36.02 15.75 -36.02 15.75 -41 19 C-41 19.33 -41 19.66 -41 20 C-19.22 20 2.56 20 25 20 C22.06 17.06 19.7 15.61 16.05 13.68 C14.9 13.06 13.74 12.44 12.54 11.81 C11.32 11.16 10.1 10.52 8.88 9.88 C6.48 8.6 4.08 7.33 1.68 6.05 C0.61 5.49 -0.45 4.93 -1.55 4.35 C-4 3 -4 3 -5 2 C-8.68 1.71 -10.99 2.2 -14.22 3.94 Z " fill="#F4F4EB" transform="translate(72,18)"/>
<path d="M0 0 C1.65 0 3.3 0 5 0 C4.67 1.98 4.34 3.96 4 6 C35.35 6 66.7 6 99 6 C99.33 4.68 99.66 3.36 100 2 C100.33 2 100.66 2 101 2 C101 4.64 101 7.28 101 10 C87.98 10.02 74.96 10.04 61.94 10.05 C55.89 10.06 49.85 10.06 43.8 10.08 C37.97 10.09 32.14 10.09 26.31 10.09 C24.08 10.1 21.85 10.1 19.63 10.11 C16.51 10.11 13.4 10.11 10.29 10.11 C9.36 10.12 8.43 10.12 7.47 10.12 C1.11 10.11 1.11 10.11 0 9 C-0.07 7.48 -0.08 5.96 -0.06 4.44 C-0.05 3.61 -0.04 2.78 -0.04 1.93 C-0.02 1.3 -0.01 0.66 0 0 Z " fill="#041227" transform="translate(13,98)"/>
<path d="M0 0 C31.02 0 62.04 0 94 0 C94 1.32 94 2.64 94 4 C62.98 4 31.96 4 0 4 C0 2.68 0 1.36 0 0 Z " fill="#CDCECB" transform="translate(17,100)"/>
<path d="M0 0 C27.72 0 55.44 0 84 0 C84 1.32 84 2.64 84 4 C56.28 4 28.56 4 0 4 C0 2.68 0 1.36 0 0 Z " fill="#D2D3CC" transform="translate(22,94)"/>
<path d="M0 0 C9.52 -1.34 16.5 3.44 24.5 7.94 C25.89 8.7 27.29 9.46 28.69 10.22 C38.71 15.71 38.71 15.71 40 17 C40.27 22.74 40.27 22.74 40 25 C39.34 25.66 38.68 26.32 38 27 C37.01 27 36.02 27 35 27 C35 28.98 35 30.96 35 33 C34.67 32.01 34.34 31.02 34 30 C33.5 30.16 33.5 30.16 31 31 C31 29.02 31 27.04 31 25 C5.26 25 -20.48 25 -47 25 C-47 24.67 -47 24.34 -47 24 C-19.61 23.67 7.78 23.34 36 23 C36.16 22.51 36.16 22.51 37 20 C36.74 19.95 36.74 19.95 35.4 19.7 C32.24 18.78 29.56 17.31 26.66 15.76 C26.06 15.44 25.45 15.12 24.83 14.79 C23.56 14.1 22.28 13.42 21.01 12.74 C19.08 11.69 17.14 10.66 15.2 9.63 C13.96 8.97 12.71 8.3 11.47 7.64 C10.35 7.04 9.23 6.43 8.07 5.82 C5.14 4.08 2.6 2.2 0 0 Z M17 31 C21.62 31 26.24 31 31 31 C31 31.33 31 31.66 31 32 C26.38 32 21.76 32 17 32 C17 31.67 17 31.34 17 31 Z " fill="#0A172C" transform="translate(72,18)"/>
<path d="M0 0 C1.32 0.33 2.64 0.66 4 1 C3.99 1.67 3.98 2.34 3.97 3.03 C3.93 6.08 3.9 9.14 3.88 12.19 C3.87 12.72 3.87 12.72 3.82 15.38 C3.82 16.41 3.81 17.43 3.8 18.48 C3.79 19.42 3.78 20.36 3.77 21.32 C4.02 24.23 4.83 26.34 6 29 C6.37 30.66 6.71 32.32 7 34 C7.66 34 8.32 34 9 34 C9.16 35.32 9.16 35.32 10 42 C-19.04 42 -48.08 42 -78 42 C-78 41.67 -78 41.34 -78 41 C-50.28 41 -22.56 41 6 41 C6 39.35 6 37.7 6 36 C4.68 36 3.36 36 2 36 C2 34.35 2 32.7 2 31 C-2.29 31 -6.58 31 -11 31 C-11 30.67 -11 30.34 -11 30 C-7.37 29.67 -3.74 29.34 0 29 C0 19.43 0 9.86 0 0 Z " fill="#0B1525" transform="translate(100,57)"/>
<path d="M0 0 C3.07 1.56 3.07 1.56 6.12 3.44 C11.85 6.93 11.85 6.93 14.37 8.16 C14.91 8.44 15.44 8.71 16 9 C16 9.33 16 9.66 16 10 C2.8 10 -10.4 10 -24 10 C-20.47 7.35 -16.91 5 -13.12 2.75 C-12.53 2.37 -11.93 2 -11.31 1.61 C-7.1 -0.87 -4.66 -1.51 0 0 Z " fill="#EBEADD" transform="translate(68,25)"/>
<path d="M0 0 C2.64 0 5.28 0 8 0 C8 9.9 8 19.8 8 30 C5.36 30 2.72 30 0 30 C0 20.1 0 10.2 0 0 Z " fill="#F9F7E9" transform="translate(71,56)"/>
<path d="M0 0 C2.64 0 5.28 0 8 0 C8 9.9 8 19.8 8 30 C5.36 30 2.72 30 0 30 C0 20.1 0 10.2 0 0 Z " fill="#F8F7EB" transform="translate(29,56)"/>
<path d="M0 0 C25.08 0 50.16 0 76 0 C76 0.99 76 1.98 76 3 C50.92 3 25.84 3 0 3 C0 2.01 0 1.02 0 0 Z " fill="#F1F1EF" transform="translate(26,45)"/>
<path d="M0 0 C0.66 0.33 1.32 0.66 2 1 C2.66 1 3.32 1 4 1 C4.66 1.33 5.32 1.66 6 2 C5.01 2.55 4.03 3.11 3.01 3.68 C1.71 4.41 0.42 5.14 -0.88 5.88 C-1.53 6.24 -2.18 6.6 -2.85 6.98 C-5.5 8.49 -7.83 9.83 -10 12 C-10 12.33 -10 12.66 -10 13 C-0.24 13.18 9.52 13.34 19.28 13.49 C23.82 13.57 28.35 13.64 32.88 13.72 C37.25 13.8 41.62 13.87 45.99 13.94 C47.66 13.96 49.33 13.99 51 14.03 C53.34 14.07 55.67 14.11 58 14.14 C58.7 14.15 59.4 14.17 60.12 14.19 C61.75 14.2 63.37 14.11 65 14 C65.33 13.34 65.66 12.68 66 12 C66 12.99 66 13.98 66 15 C36.96 15 7.92 15 -22 15 C-21 11 -21 11 -18.99 9.52 C-18.13 9.07 -17.27 8.63 -16.38 8.17 C-15.44 7.68 -14.51 7.19 -13.54 6.69 C-12.56 6.19 -11.58 5.7 -10.56 5.19 C-9.58 4.67 -8.6 4.16 -7.59 3.63 C-2.21 0.86 -2.21 0.86 0 0 Z " fill="#CFD1CA" transform="translate(42,26)"/>
<path d="M0 0 C25.74 0 51.48 0 78 0 C78 1.65 78 3.3 78 5 C63.81 5.33 49.62 5.66 35 6 C35 7.32 35 8.64 35 10 C30.71 10 26.42 10 22 10 C21.67 8.35 21.34 6.7 21 5 C20.01 4.67 19.02 4.34 18 4 C37.47 4 56.94 4 77 4 C77 3.01 77 2.02 77 1 C51.92 1 26.84 1 1 1 C0.67 1.99 0.34 2.98 0 4 C0 2.68 0 1.36 0 0 Z " fill="#7D8181" transform="translate(25,44)"/>
<path d="M0 0 C0.83 0.16 0.83 0.16 5 1 C7.3 4.45 7.24 5.71 7.2 9.76 C7.19 10.88 7.18 12 7.18 13.15 C7.16 14.32 7.14 15.48 7.12 16.69 C7.12 17.87 7.11 19.05 7.1 20.26 C7.07 23.17 7.04 26.09 7 29 C4.69 29 2.38 29 0 29 C0 19.43 0 9.86 0 0 Z " fill="#F9F7EA" transform="translate(50,57)"/>
<path d="M0 0 C4 0 4 0 5.73 1.63 C7.31 4.58 7.34 6.53 7.29 9.86 C7.28 10.97 7.27 12.09 7.26 13.24 C7.24 14.4 7.21 15.56 7.19 16.75 C7.17 17.92 7.16 19.1 7.15 20.31 C7.11 23.21 7.06 26.1 7 29 C4.69 29 2.38 29 0 29 C0 19.43 0 9.86 0 0 Z " fill="#FAF9EB" transform="translate(92,57)"/>
<path d="M0 0 C-3.63 3.08 -7.31 5.4 -11.51 7.64 C-12.12 7.96 -12.72 8.29 -13.35 8.62 C-14.62 9.3 -15.9 9.98 -17.18 10.66 C-19.13 11.69 -21.08 12.73 -23.03 13.78 C-32.55 18.85 -32.55 18.85 -36 20 C-35.84 17.23 -35.84 17.23 -35 14 C-32.64 12.03 -32.64 12.03 -29.53 10.35 C-28.4 9.74 -27.27 9.13 -26.11 8.5 C-25.52 8.19 -24.92 7.88 -24.31 7.57 C-22.52 6.63 -20.75 5.66 -18.98 4.68 C-12.32 1.15 -7.56 -0.86 0 0 Z " fill="#091525" transform="translate(56,18)"/>
<path d="M0 0 C-0.36 2.7 -0.66 3.74 -2.85 5.45 C-3.58 5.86 -4.31 6.27 -5.06 6.69 C-6.39 7.44 -7.7 8.2 -9 9 C-9 9.33 -9 9.66 -9 10 C-8.36 10 -7.73 9.99 -7.07 9.99 C-0.47 9.94 6.13 9.91 12.73 9.89 C15.2 9.88 17.67 9.87 20.14 9.85 C23.67 9.82 27.21 9.81 30.75 9.8 C31.3 9.8 31.3 9.8 34.11 9.77 C35.13 9.77 36.15 9.77 37.2 9.77 C38.11 9.77 39.01 9.76 39.94 9.76 C40.62 9.84 41.3 9.92 42 10 C42.16 10.33 42.16 10.33 43 12 C21.22 12 -0.56 12 -23 12 C-19.47 8.47 -15.88 6.6 -11.5 4.31 C-11.11 4.1 -11.11 4.1 -9.16 3.05 C-8.42 2.66 -7.67 2.27 -6.91 1.86 C-6.23 1.51 -5.55 1.15 -4.85 0.78 C-3 0 -3 0 0 0 Z " fill="#323944" transform="translate(54,26)"/>
<path d="M0 0 C0.66 0 1.32 0 2 0 C2.25 3.38 2.25 3.38 2 7 C0.06 8.31 0.06 8.31 -2 9 C-3.37 11.74 -3.22 14.04 -3.32 17.1 C-3.36 18.31 -3.4 19.53 -3.44 20.77 C-3.48 22.04 -3.52 23.32 -3.56 24.62 C-3.61 25.9 -3.65 27.18 -3.69 28.5 C-3.8 31.67 -3.9 34.83 -4 38 C-4.33 38 -4.66 38 -5 38 C-5.02 37.26 -5.04 36.53 -5.06 35.77 C-5.16 32.43 -5.27 29.09 -5.38 25.75 C-5.41 24.59 -5.44 23.43 -5.47 22.24 C-5.51 21.12 -5.55 20.01 -5.59 18.86 C-5.6 18.35 -5.6 18.35 -5.68 15.75 C-6 13.01 -6.49 11.3 -8 9 C-9.94 8.38 -9.94 8.38 -12 8 C-12.99 7.34 -13.98 6.68 -15 6 C-15 4.68 -15 3.36 -15 2 C-14 1.94 -13 1.88 -11.97 1.82 C-10.68 1.73 -9.39 1.65 -8.06 1.56 C-6.77 1.48 -5.49 1.4 -4.16 1.32 C-1 1 -1 1 0 0 Z " fill="#646B72" transform="translate(104,48)"/>
<path d="M0 0 C0.67 0.48 1.34 0.96 2.03 1.46 C1.37 2.78 0.71 4.1 0.03 5.46 C-0.22 5.31 -0.22 5.31 -1.47 4.55 C-4.85 2.66 -7.3 1.49 -11.22 1.34 C-15.84 2.72 -19.87 4.8 -24.1 7.09 C-26.79 8.37 -29.04 9.03 -31.97 9.46 C-31.97 8.14 -31.97 6.82 -31.97 5.46 C-23.56 -1.62 -10.22 -5.3 0 0 Z " fill="#EBEBE2" transform="translate(74.96875,19.5390625)"/>
<path d="M0 0 C1.19 0.01 2.38 0.02 3.6 0.03 C4.52 0.04 5.43 0.05 6.38 0.06 C6.05 1.38 5.72 2.7 5.38 4.06 C1.74 4.06 -1.89 4.06 -5.62 4.06 C-5.62 13.96 -5.62 23.86 -5.62 34.06 C-5.95 34.06 -6.29 34.06 -6.62 34.06 C-6.65 33.24 -6.68 32.42 -6.7 31.57 C-6.82 27.84 -6.94 24.11 -7.06 20.38 C-7.1 19.08 -7.14 17.79 -7.18 16.46 C-7.22 15.21 -7.27 13.96 -7.31 12.68 C-7.35 11.53 -7.38 10.38 -7.42 9.2 C-7.6 6.39 -7.99 3.8 -8.62 1.06 C-5.74 -0.38 -3.21 -0.03 0 0 Z " fill="#747F8D" transform="translate(32.625,50.9375)"/>
<path d="M0 0 C2.56 -0.08 5.12 -0.14 7.69 -0.19 C8.41 -0.21 9.13 -0.24 9.87 -0.26 C14.48 -0.33 17.3 0.22 21 3 C20.34 4.32 19.68 5.64 19 7 C17.91 6.38 16.81 5.76 15.69 5.12 C10.67 2.58 5.53 1.77 0 1 C0 0.67 0 0.34 0 0 Z " fill="#D0D0C7" transform="translate(56,18)"/>
<path d="M0 0 C4.29 0 8.58 0 13 0 C13 1.32 13 2.64 13 4 C8.71 4 4.42 4 0 4 C0 2.68 0 1.36 0 0 Z " fill="#DADBD6" transform="translate(89,88)"/>
<path d="M0 0 C4.29 0 8.58 0 13 0 C13 1.32 13 2.64 13 4 C8.71 4 4.42 4 0 4 C0 2.68 0 1.36 0 0 Z " fill="#DADBD6" transform="translate(47,88)"/>
<path d="M0 0 C4.29 0 8.58 0 13 0 C13 1.32 13 2.64 13 4 C8.71 4 4.42 4 0 4 C0 2.68 0 1.36 0 0 Z " fill="#D9DAD7" transform="translate(26,88)"/>
<path d="M0 0 C3.96 0 7.92 0 12 0 C12 1.32 12 2.64 12 4 C7.71 4 3.42 4 -1 4 C-0.67 2.68 -0.34 1.36 0 0 Z " fill="#DADAD3" transform="translate(69,88)"/>
<path d="M0 0 C2.64 0 5.28 0 8 0 C8 9.9 8 19.8 8 30 C7.67 30 7.34 30 7 30 C6.98 29.26 6.96 28.52 6.94 27.75 C6.84 24.4 6.74 21.04 6.62 17.69 C6.59 16.52 6.56 15.35 6.53 14.15 C6.49 13.03 6.45 11.91 6.41 10.76 C6.38 9.73 6.35 8.7 6.32 7.64 C6 5 6 5 4 2 C1.88 0.81 1.88 0.81 0 0 Z " fill="#8A8B8D" transform="translate(29,56)"/>
<path d="M0 0 C2.64 0 5.28 0 8 0 C8 9.9 8 19.8 8 30 C7.67 30 7.34 30 7 30 C6.98 29.26 6.96 28.52 6.94 27.75 C6.84 24.4 6.74 21.04 6.62 17.69 C6.59 16.52 6.56 15.35 6.53 14.15 C6.49 13.03 6.45 11.91 6.41 10.76 C6.38 9.73 6.35 8.7 6.32 7.64 C6 5 6 5 4 2 C1.88 0.81 1.88 0.81 0 0 Z " fill="#7F7F81" transform="translate(50,56)"/>
<path d="M0 0 C2.64 0 5.28 0 8 0 C8 9.9 8 19.8 8 30 C7.67 30 7.34 30 7 30 C6.97 29.23 6.95 28.46 6.92 27.66 C6.81 24.17 6.69 20.68 6.56 17.19 C6.52 15.97 6.48 14.76 6.44 13.51 C6.4 12.34 6.36 11.18 6.32 9.98 C6.28 8.91 6.24 7.83 6.21 6.73 C6 4 6 4 5 1 C3.35 1 1.7 1 0 1 C0 0.67 0 0.34 0 0 Z " fill="#939494" transform="translate(71,56)"/>
<path d="M0 0 C0.66 0 1.32 0 2 0 C2 0.66 2 1.32 2 2 C3.32 2 4.64 2 6 2 C6.33 4.64 6.66 7.28 7 10 C5.68 10 4.36 10 3 10 C3 8.02 3 6.04 3 4 C1.68 3.67 0.36 3.34 -1 3 C-0.67 2.01 -0.34 1.02 0 0 Z " fill="#041837" transform="translate(103,89)"/>
<path d="M0 0 C5.63 -0.55 8.43 0.98 13 4 C13 4.33 13 4.66 13 5 C11.21 4.94 9.42 4.85 7.62 4.75 C6.63 4.7 5.63 4.66 4.6 4.61 C2 4 2 4 0.65 1.95 C0.43 1.31 0.22 0.66 0 0 Z " fill="#0C1628" transform="translate(82,32)"/>
</svg>
