<svg xmlns="http://www.w3.org/2000/svg" width="128" height="128" viewBox="0 0 128 128"><path fill="#07172a" d="m62.63 16.75 2.23-.05C82.75 16.54 96.5 24.15 111 34c1.89 1.89 1.17 4.57 1.22 7.09C112 43 112 43 110 45h-3l-.15 2.08-.22 2.73-.22 2.71c-.4 2.48-.4 2.48-2.4 5.48-.27 2.37-.27 2.37-.28 5.15v3.05l.02 3.17-.03 3.16.03 5.84c.28 2.87 1.12 5 2.25 7.63l.44 2.75L107 91l3 1v4l5 1q.05 2.47.06 4.94.03 1.36.03 2.77C115 107 115 107 114 108q-4.63.15-9.28.13H92.07l-6.72.01-14.09-.01H39.28l-6.69.01-9.32-.01-2.82.01c-6.33-.03-6.33-.03-7.44-1.14a29 29 0 0 1 0-9c2.43-1.25 2.43-1.25 5-2 .68-2.56.68-2.56 1-5l2-1a122 122 0 0 1 2-5h2V57l-3-1c-.53-2.5-.53-2.5-.7-5.56l-.2-3.07q-.06-1.16-.1-2.37l-5-1c-.73-3.21-.9-5.81 0-9 3.23-3.04 7.04-4.85 11-6.81l3.11-1.66q3.04-1.6 6.13-3.13C39 22 39 22 40.98 20.77c6.6-3.97 14.16-3.9 21.65-4.02"/><path fill="#010618" d="M47 49h34v1H69l1 4 10 1v1h-9v30h8V57h1l1 31-12 1-1 4h34v-5H89v-1l11-1V57l4 1-.03 2.03q-.06 4.58-.09 9.16l-.06 3.19-.02 3.1-.03 2.84c.25 2.91 1.07 5.02 2.23 7.68l.44 2.75L107 91l3 1v4l5 1q.05 2.47.06 4.94l.04 2.77C115 107 115 107 114 108q-4.64.15-9.28.13H92.06l-6.71.01-14.1-.01H39.27l-6.68.01-9.31-.01-2.82.01c-6.35-.03-6.35-.03-7.46-1.14a29 29 0 0 1 0-9c2.44-1.25 2.44-1.25 5-2 .69-2.56.69-2.56 1-5l2-1 1-2.56L23 85h2V57h1l1 9h1l1 20 10 1v1H26v5l1.72-.09C38.49 92.34 49.21 91.82 60 92v-4l-11-1-.08-17.11-.02-6.23-.01-3.79C49 57 49 57 50 56h8l1-1H48v-1h12v-4H47z"/><path fill="#1d2e41" d="M25 44h78l1 4h2c.25 3.37.25 3.37 0 7-1.94 1.31-1.94 1.31-4 2-1.37 2.74-1.16 5-1.21 8.07l-.09 3.65-.13 7.69-.09 3.66-.06 3.37L100 86l-3 1 5 1v5H68l1-5 11-1c-1-1-1-1-2.85-1.1L71 86l.03-2.72q.06-5 .08-9.99l.04-4.32q.04-3.1.05-6.21l.03-3.78C71 56 71 56 69 54v-4h-9v4H47l-1-5-21-1zm64 5v1h14v-1z"/><path fill="#111729" d="M72 18c7.47 3.13 14.41 7.24 21.33 11.41q3.4 2.02 6.87 3.91c5.94 3.26 5.94 3.26 7.8 4.68v3H20c1-4 1-4 2.82-5.34l2.38-1.18 2.64-1.34 2.85-1.39c5.83-2.91 11.53-5.79 16.98-9.38C55.39 17.41 63.13 15.39 72 18"/><path fill="#0d1d30" d="M47 49h34v1H69l1 4 10 1v1h-9v30h8V57h1l1 31-12 1-1 4H47v-1h13v-4l-11-1-.08-17.11-.02-6.23-.01-3.79C49 57 49 57 50 56h8l1-1H48v-1h12v-4H47z"/><path fill="#00091b" d="m52 17.75 2.31.11L56 18a63 63 0 0 1-11.54 7.64l-1.85.98-5.8 3.07-3.93 2.09C23.9 36.55 23.9 36.55 21 38l-1 3h88v-3c-2.13-.99-2.13-.99-5-2-3.77-1.9-7.49-3.91-11.21-5.91l-5.35-2.86L83 25.38l-3.12-1.67A59 59 0 0 1 72 18c9.52-1.34 16.5 3.44 24.5 7.94l4.19 2.28c10.02 5.49 10.02 5.49 11.31 6.78.27 5.74.27 5.74 0 8l-2 2h-3v6l-1-3-3 1v-5H25l1 4 13 1v1l-2.55.04-3.33.15-3.3.1L27 51c-1.2 2.55-1.2 2.55-2 5h-3l-1-11-5-1c-.72-3.21-.9-5.81 0-9 3.24-3.04 7.04-4.85 11-6.81l3.12-1.66Q34.54 24.22 39 22l2.36-1.27c3.65-1.94 6.47-3.24 10.64-2.98M89 49h14v1H89z"/><path fill="#f4f4eb" d="M72 18c7.47 3.13 14.41 7.24 21.33 11.41q3.4 2.02 6.87 3.91c5.94 3.26 5.94 3.26 7.8 4.68v3H20c1-4 1-4 2.82-5.34l2.38-1.18 2.64-1.34 2.85-1.39c5.83-2.91 11.53-5.79 16.98-9.38C55.39 17.41 63.13 15.39 72 18m-14.22 3.94-2.37 1.26-2.47 1.36-2.54 1.37C35.98 33.75 35.98 33.75 31 37v1h66c-2.94-2.94-5.3-4.39-8.95-6.32l-3.51-1.87-3.66-1.93-7.2-3.83-3.23-1.7C68 21 68 21 67 20c-3.68-.29-5.99.2-9.22 1.94"/><path fill="#041227" d="M13 98h5l-1 6h95l1-4h1v8l-39.06.05-18.14.03-17.49.01-6.68.02h-9.34l-2.82.01c-6.36-.01-6.36-.01-7.47-1.12a77 77 0 0 1-.06-4.56l.02-2.51z"/><path fill="#cdcecb" d="M17 100h94v4H17z"/><path fill="#d2d3cc" d="M22 94h84v4H22z"/><path fill="#0a172c" d="M72 18c9.52-1.34 16.5 3.44 24.5 7.94l4.19 2.28c10.02 5.49 10.02 5.49 11.31 6.78.27 5.74.27 5.74 0 8l-2 2h-3v6l-1-3-3 1v-6H25v-1l83-1 1-3-1.6-.3c-3.16-.92-5.84-2.39-8.74-3.94l-1.83-.97-3.82-2.05q-2.9-1.57-5.81-3.11l-3.73-1.99-3.4-1.82A58 58 0 0 1 72 18m17 31h14v1H89z"/><path fill="#0b1525" d="m100 57 4 1-.03 2.03q-.06 4.58-.09 9.16l-.06 3.19-.02 3.1-.03 2.84c.25 2.91 1.06 5.02 2.23 7.68q.56 2.48 1 5h2l1 8H22v-1h84v-5h-4v-5H89v-1l11-1z"/><path fill="#ebeadd" d="M68 25a57 57 0 0 1 6.12 3.44c5.73 3.49 5.73 3.49 8.25 4.72L84 34v1H44c3.53-2.65 7.09-5 10.88-7.25l1.81-1.14C60.9 24.13 63.34 23.49 68 25"/><path fill="#f9f7e9" d="M71 56h8v30h-8z"/><path fill="#f8f7eb" d="M29 56h8v30h-8z"/><path fill="#f1f1ef" d="M26 45h76v3H26z"/><path fill="#cfd1ca" d="m42 26 2 1h2l2 1-2.99 1.68-3.89 2.2-1.97 1.1C36.5 34.49 34.17 35.83 32 38v1q14.64.27 29.28.49l13.6.23 18.12.31 7 .11 2.12.05q2.44 0 4.88-.19l1-2v3H20c1-4 1-4 3.01-5.48l2.61-1.35 2.84-1.48 2.98-1.5 2.97-1.56c5.38-2.77 5.38-2.77 7.59-3.63"/><path fill="#7d8181" d="M25 44h78v5l-43 1v4H47l-1-5-3-1h59v-3H26l-1 3z"/><path fill="#f9f7ea" d="m50 57 5 1c2.3 3.45 2.24 4.71 2.2 8.76l-.02 3.39-.06 3.54-.02 3.57L57 86h-7z"/><path fill="#faf9eb" d="M92 57c4 0 4 0 5.73 1.63 1.58 2.95 1.61 4.9 1.56 8.23l-.03 3.38-.07 3.51-.04 3.56Q99.09 81.65 99 86h-7z"/><path fill="#091525" d="M56 18a63 63 0 0 1-11.51 7.64l-1.84.98-3.83 2.04-5.85 3.12C23.45 36.85 23.45 36.85 20 38c.16-2.77.16-2.77 1-6 2.36-1.97 2.36-1.97 5.47-3.65l3.42-1.85 1.8-.93q2.68-1.41 5.33-2.89C43.68 19.15 48.44 17.14 56 18"/><path fill="#323944" d="M54 26c-.36 2.7-.66 3.74-2.85 5.45l-2.21 1.24q-2 1.12-3.94 2.31v1l1.93-.01q9.9-.07 19.8-.1l7.41-.04q5.3-.04 10.61-.05l3.36-.03h3.09l2.74-.01L96 36l1 2H31c3.53-3.53 7.12-5.4 11.5-7.69l2.34-1.26 2.25-1.19 2.06-1.08C51 26 51 26 54 26"/><path fill="#646b72" d="M104 48h2c.25 3.38.25 3.38 0 7-1.94 1.31-1.94 1.31-4 2-1.37 2.74-1.22 5.04-1.32 8.1l-.37 11.4L100 86h-1l-.06-2.23-.32-10.02-.09-3.51-.12-3.38-.09-3.11C98 61.01 97.51 59.3 96 57c-1.94-.62-1.94-.62-4-1l-3-2v-4l3.03-.18 3.91-.26 3.9-.24C103 49 103 49 104 48"/><path fill="#ebebe2" d="M74.97 19.54 77 21l-2 4-1.5-.91c-3.38-1.9-5.83-3.06-9.75-3.21-4.62 1.38-8.65 3.46-12.88 5.75A26 26 0 0 1 43 29v-4c8.4-7.08 21.75-10.76 31.97-5.46"/><path fill="#747f8d" d="m32.63 50.94 3.6.03L39 51l-1 4H27v30h-1q-.06-1.22-.09-2.5l-.36-11.18-.11-3.92-.13-3.78-.12-3.48c-.18-2.81-.57-5.4-1.2-8.14 2.88-1.44 5.41-1.1 8.63-1.06"/><path fill="#d0d0c7" d="M56 18q3.84-.12 7.69-.19l2.18-.07c4.61-.07 7.43.48 11.13 3.26l-2 4-3.31-1.88C66.67 20.58 61.53 19.77 56 19z"/><path fill="#dadbd6" d="M89 88h13v4H89zm-42 0h13v4H47z"/><path fill="#d9dad7" d="M26 88h13v4H26z"/><path fill="#dadad3" d="M69 88h12v4H68z"/><path fill="#8a8b8d" d="M29 56h8v30h-1l-.06-2.25-.32-10.06-.09-3.54-.12-3.39-.09-3.12C35 61 35 61 33 58c-2.12-1.19-2.12-1.19-4-2"/><path fill="#7f7f81" d="M50 56h8v30h-1l-.06-2.25-.32-10.06-.09-3.54-.12-3.39-.09-3.12C56 61 56 61 54 58c-2.12-1.19-2.12-1.19-4-2"/><path fill="#939494" d="M71 56h8v30h-1l-.08-2.34-.36-10.47-.12-3.68-.12-3.53-.11-3.25C77 60 77 60 76 57h-5z"/><path fill="#041837" d="M103 89h2v2h4l1 8h-4v-6l-4-1z"/><path fill="#0c1628" d="M82 32c5.63-.55 8.43.98 13 4v1q-2.68-.1-5.38-.25l-3.02-.14C84 36 84 36 82.65 33.95z"/></svg>