<?xml version="1.0" encoding="UTF-8"?>
<!-- Generator: visioncortex VTracer 0.6.12 -->
<svg version="1.1" xmlns="http://www.w3.org/2000/svg" width="128" height="128" viewBox="0 0 128 128" preserveAspectRatio="xMidYMid meet">
<path d="M0 0 C0.74 -0.02 1.48 -0.03 2.24 -0.05 C3.8 -0.08 5.36 -0.1 6.93 -0.11 C9.31 -0.15 11.68 -0.24 14.06 -0.32 C25.26 -0.55 25.26 -0.55 28.83 2.23 C30.37 4.39 30.37 4.39 31.56 6.6 C32.58 8.48 32.58 8.48 34.99 9.82 C35.36 9.92 35.36 9.92 37.2 10.41 C40.09 11.48 41.28 11.99 42.9 14.64 C43.89 17.1 43.89 17.1 44.63 19.45 C45.84 22.04 47.05 22.31 49.58 23.48 C53.7 28.58 53.91 34.25 54.23 40.56 C54.75 44.93 56.39 49.29 59.58 52.48 C59.58 54.54 59.57 56.59 59.53 58.65 C59.6 63.05 60.2 67.39 60.75 71.75 C60.72 72.2 60.72 72.2 60.58 74.48 C57.79 76.69 56.23 76.48 52.58 76.48 C52.58 77.14 52.58 77.8 52.58 78.48 C42.06 81.06 32.25 81.6 21.45 81.16 C20.52 81.13 19.59 81.09 18.63 81.06 C12.73 80.77 7.31 79.91 1.58 78.48 C1.58 74.48 1.58 74.48 2.58 72.48 C-0.39 72.48 -3.36 72.48 -6.42 72.48 C-6.09 73.47 -5.76 74.46 -5.42 75.48 C-12.75 76.43 -19.93 76.52 -27.3 76.16 C-28.1 76.13 -28.91 76.09 -29.75 76.06 C-34.26 75.8 -38.22 75.3 -42.42 73.48 C-42.75 72.82 -43.08 72.16 -43.42 71.48 C-42.96 70.46 -42.49 69.44 -42.02 68.4 C-39.78 63.5 -39.96 58.73 -39.89 53.44 C-39.73 47.9 -39.73 47.9 -38.14 45.71 C-37.57 45.3 -37.01 44.9 -36.42 44.48 C-33.47 42.06 -32.52 41.03 -31.84 37.2 C-31.76 35.99 -31.69 34.78 -31.61 33.54 C-30.87 27.05 -30.87 27.05 -28.82 24.45 C-26.45 22.76 -24.39 21.48 -21.42 21.48 C-21.38 20.9 -21.35 20.32 -21.31 19.72 C-20.89 14.73 -20.42 10.64 -17.42 6.48 C-15.42 5.23 -13.43 4.26 -11.26 3.34 C-4.31 0.09 -4.31 0.09 0 0 Z " fill="#07172C" transform="translate(55.421875,22.5234375)"/>
<path d="M0 0 C2.29 -0.2 2.29 -0.2 5.06 -0.12 C5.98 -0.11 6.9 -0.09 7.85 -0.07 C8.56 -0.05 9.27 -0.02 10 0 C10 0.99 10 1.98 10 3 C10.47 2.5 10.95 2.01 11.44 1.5 C14.64 -0.37 16.98 -0.91 20.68 -0.82 C24.93 0.68 26.54 4.45 28.69 8.2 C29.77 10.51 30.53 12.51 31 15 C31.33 14.34 31.66 13.68 32 13 C35.06 12.88 35.06 12.88 38 13 C38.16 13.99 38.16 13.99 39 19 C38.34 19 37.68 19 37 19 C37 19.66 37 20.32 37 21 C37.89 21.23 38.77 21.45 39.69 21.69 C43.63 23.25 45.35 24.69 48 28 C48.74 30.78 48.87 33.51 49 36.38 C49.7 45.53 49.7 45.53 52.62 48.81 C56.19 53.59 55.43 58.23 55 64 C54.34 63.67 53.68 63.34 53 63 C52.37 60.44 52.37 60.44 52 58 C49.69 58 47.38 58 45 58 C45.14 57.36 45.29 56.72 45.44 56.06 C45.62 55.05 45.81 54.04 46 53 C46.17 52.37 46.33 51.74 46.5 51.09 C47.85 44.44 45.59 40.29 42.35 34.5 C41 32 41 32 41 30 C36.81 32.24 33.98 34.91 30.81 38.44 C29.95 39.38 29.09 40.33 28.21 41.31 C26.39 43.53 25.11 45.38 24 48 C23.96 46.33 23.96 44.67 24 43 C24.33 42.67 24.66 42.34 25 42 C25.2 39.82 25.2 39.82 25.25 37.12 C25.26 36.68 25.26 36.68 25.33 34.45 C24.94 31.54 24.18 30.86 22 29 C20.35 25.62 20 23.86 20 20 C10.75 17.45 10.75 17.45 6 18 C5.78 18.24 5.78 18.24 4.65 19.46 C2.47 21.49 0.86 21.52 -2.06 21.88 C-4.77 22.35 -4.77 22.35 -7 23 C-8.25 25.31 -8.25 25.31 -9 28 C-10.86 29.97 -12.79 31.39 -15 33 C-15.66 33 -16.32 33 -17 33 C-17.03 33.57 -17.05 34.14 -17.08 34.72 C-17.45 39.73 -18.28 42.63 -21.08 46.89 C-23.12 51.55 -22.85 56.98 -23 62 C-24.65 61.67 -26.3 61.34 -28 61 C-28 61.66 -28 62.32 -28 63 C-27.22 63.27 -26.43 63.54 -25.62 63.81 C-23 65 -23 65 -21.62 67.56 C-21.42 68.37 -21.21 69.17 -21 70 C-22.55 71.55 -24.04 71.17 -26.19 71.19 C-30.14 71.16 -33.32 70.51 -37 69 C-37.06 65.33 -37.05 61.67 -37 58 C-37 57 -36.99 55.99 -36.99 54.96 C-36.95 54 -36.91 53.05 -36.88 52.06 C-36.85 51.19 -36.83 50.31 -36.8 49.41 C-36 47 -36 47 -33.03 45.18 C-30 43 -30 43 -29.04 39.29 C-28.89 37.88 -28.75 36.47 -28.62 35.06 C-27.65 27.6 -27.65 27.6 -25.15 25.3 C-23.72 24.64 -22.28 24.01 -20.83 23.39 C-18.03 21.26 -18.22 18.96 -17.75 15.56 C-17.03 11.28 -16.73 9.57 -13.27 6.86 C-9.26 4.88 -5.23 3.41 -1 2 C-0.67 1.34 -0.34 0.68 0 0 Z " fill="#F0EEDD" transform="translate(56,24)"/>
<path d="M0 0 C0 4.95 0 9.9 0 15 C-1.32 15.33 -2.64 15.66 -4 16 C-4.79 18.29 -4.79 18.29 -5.19 21.19 C-5.33 22.13 -5.46 23.07 -5.61 24.04 C-5.74 25.02 -5.87 25.99 -6 27 C-6.33 29 -6.66 31 -7 33 C-6.71 31.95 -6.42 30.9 -6.12 29.82 C-5.7 28.44 -5.29 27.07 -4.88 25.69 C-4.69 25 -4.5 24.31 -4.3 23.6 C-3.13 19.8 -2.28 18.19 1.05 15.96 C4 15 4 15 6 16 C-1.3 30.78 -1.3 30.78 -5 37 C-2.78 34.86 -0.94 32.91 0.75 30.31 C3.99 26.98 6.43 27.23 11 27 C11.16 27.83 11.16 27.83 12 32 C11.52 32.11 11.52 32.11 9.06 32.69 C8.05 33.12 7.04 33.55 6 34 C5.38 36.44 5.38 36.44 5 39 C2.94 40.69 2.94 40.69 1 42 C1 42.66 1 43.32 1 44 C-6.74 44.98 -13.94 44.9 -21.69 44.06 C-22.69 43.96 -23.69 43.86 -24.72 43.76 C-27.15 43.52 -29.57 43.26 -32 43 C-32.82 39.01 -33.45 35.03 -34 31 C-31.69 31 -29.38 31 -27 31 C-27.96 24.17 -27.96 24.17 -28.75 21.06 C-29.1 16.73 -27.71 13.97 -26 10 C-24.64 10.6 -23.31 11.29 -22 12 C-21.4 12.28 -20.8 12.57 -20.18 12.86 C-18 14.08 -16.56 15.04 -15 17 C-14.4 20.73 -14.59 24.25 -15 28 C-14.34 28 -13.68 28 -13 28 C-13.02 27.36 -13.05 26.72 -13.07 26.06 C-13.26 17.02 -11.97 11.51 -5.75 4.8 C-5.18 4.2 -4.6 3.61 -4 3 C-3.45 2.43 -2.9 1.86 -2.34 1.27 C-1 0 -1 0 0 0 Z " fill="#1E2B3D" transform="translate(95,58)"/>
<path d="M0 0 C0.66 0 1.32 0 2 0 C3.69 2.27 3.69 2.27 5.56 5.25 C5.87 5.74 5.87 5.74 7.44 8.2 C8.76 10.57 9.54 12.36 10 15 C10.33 14.34 10.66 13.68 11 13 C14.06 12.88 14.06 12.88 17 13 C17.33 14.98 17.66 16.96 18 19 C17.34 19 16.68 19 16 19 C16 19.66 16 20.32 16 21 C16.89 21.23 17.77 21.45 18.69 21.69 C22.63 23.25 24.35 24.69 27 28 C27.74 30.78 27.87 33.51 28 36.38 C28.7 45.53 28.7 45.53 31.62 48.81 C35.19 53.59 34.43 58.23 34 64 C33.67 63.84 33.67 63.84 32 63 C31.38 60.44 31.38 60.44 31 58 C28.69 58 26.38 58 24 58 C24.14 57.36 24.29 56.72 24.44 56.06 C24.62 55.05 24.81 54.04 25 53 C25.16 52.37 25.33 51.74 25.5 51.09 C26.85 44.44 24.59 40.29 21.35 34.5 C20 32 20 32 20 30 C19.34 29.67 18.68 29.34 18 29 C17.32 27.34 16.65 25.67 16 24 C15.34 23.34 14.68 22.68 14 22 C13.01 22 12.02 22 11 22 C10.67 23.98 10.34 25.96 10 28 C9.34 27.67 8.68 27.34 8 27 C7.93 25.63 7.92 24.25 7.94 22.88 C7.76 20.39 7.76 20.39 7 18 C4.87 16.23 4.87 16.23 2.31 14.62 C-0.16 12.97 -0.16 12.97 -2 11 C-2.2 7.05 -1.29 3.71 0 0 Z " fill="#959796" transform="translate(77,24)"/>
<path d="M0 0 C3.27 0.28 6.14 1.39 9 3 C10.06 5.69 10.06 5.69 10 8 C9.39 7.83 8.77 7.66 8.14 7.49 C7.33 7.29 6.52 7.08 5.69 6.88 C4.89 6.67 4.09 6.46 3.26 6.24 C1 6 1 6 -2 8 C-2.85 7.96 -3.69 7.92 -4.56 7.88 C-5.37 7.92 -6.17 7.96 -7 8 C-7.69 9.32 -8.35 10.66 -9 12 C-10.13 12.66 -11.27 13.32 -12.44 14 C-16.11 16.44 -16.78 18.76 -17.75 23 C-17.93 24.01 -18.11 25.02 -18.3 26.06 C-19.04 29.19 -20.32 31.29 -22 34 C-21.69 36.19 -21.69 36.19 -21 39 C-20.9 42.33 -20.94 45.66 -21 49 C-23.38 49.19 -23.38 49.19 -26 49 C-29.49 43.76 -28.55 37.1 -28 31 C-26.97 28.3 -25.64 26.43 -24 24 C-23.79 22.02 -23.79 22.02 -23.75 19.94 C-23.55 17.17 -23.28 16.28 -21.27 14.3 C-19.88 13.3 -18.46 12.33 -17.01 11.42 C-15 10 -15 10 -13.52 7.93 C-11.66 5.57 -10.37 5.2 -7.5 4.44 C-3.27 3.3 -3.27 3.3 -1.51 1.35 C-1.01 0.9 -0.51 0.46 0 0 Z " fill="#6E777A" transform="translate(64,43)"/>
<path d="M0 0 C0 4.95 0 9.9 0 15 C-1.32 15.33 -2.64 15.66 -4 16 C-4.72 18.19 -4.72 18.19 -5.06 21 C-5.83 26.27 -7.15 31.02 -9 36 C-9.66 36 -10.32 36 -11 36 C-10.67 37.65 -10.34 39.3 -10 41 C-13.3 41 -16.6 41 -20 41 C-19.34 39.68 -18.68 38.36 -18 37 C-15.38 36.25 -15.38 36.25 -13 36 C-13.02 34.78 -13.05 33.56 -13.07 32.31 C-13.09 30.68 -13.11 29.06 -13.12 27.44 C-13.14 26.64 -13.16 25.84 -13.18 25.01 C-13.23 17.99 -12.58 12.06 -7.56 6.75 C-6.97 6.11 -6.37 5.46 -5.75 4.8 C-5.18 4.2 -4.6 3.61 -4 3 C-3.45 2.43 -2.9 1.86 -2.34 1.27 C-1 0 -1 0 0 0 Z " fill="#EAE9DC" transform="translate(95,58)"/>
<path d="M0 0 C0.93 0.06 1.86 0.12 2.81 0.19 C1.15 1.53 -0.52 2.86 -2.19 4.19 C-2.79 4.7 -3.38 5.22 -4 5.75 C-6.1 7.13 -7.76 7.74 -10.12 8.5 C-14.64 10.07 -16.32 12.44 -19.19 16.19 C-19.87 16.47 -20.56 16.75 -21.26 17.04 C-23.19 18.19 -23.19 18.19 -23.91 20.65 C-24.02 21.61 -24.13 22.57 -24.25 23.56 C-24.88 28.83 -24.88 28.83 -26.73 30.99 C-29.02 34.44 -28.51 37.9 -28.38 41.94 C-28.36 42.73 -28.35 43.52 -28.33 44.34 C-28.3 46.29 -28.24 48.24 -28.19 50.19 C-28.68 50.35 -28.68 50.35 -31.19 51.19 C-31.35 50.69 -31.35 50.69 -32.19 48.19 C-33.85 47.5 -35.51 46.83 -37.19 46.19 C-37.19 45.53 -37.19 44.87 -37.19 44.19 C-35.54 44.52 -33.89 44.85 -32.19 45.19 C-32.23 44.33 -32.28 43.47 -32.33 42.59 C-32.56 35.22 -32.18 31.3 -28.19 25.19 C-27.87 23.65 -27.6 22.11 -27.38 20.56 C-26.88 17.89 -26.59 16.58 -24.62 14.68 C-23.38 13.86 -22.12 13.06 -20.84 12.3 C-19.19 11.19 -19.19 11.19 -17.88 8.56 C-15.44 5.14 -12.55 4.87 -8.56 3.96 C-4.72 2.71 -4.23 0.25 0 0 Z " fill="#161E2D" transform="translate(65.1875,40.8125)"/>
<path d="M0 0 C0.66 0 1.32 0 2 0 C3.69 2.27 3.69 2.27 5.56 5.25 C5.87 5.74 5.87 5.74 7.44 8.2 C8.76 10.57 9.54 12.36 10 15 C10.33 14.34 10.66 13.68 11 13 C14.06 12.88 14.06 12.88 17 13 C17.33 14.98 17.66 16.96 18 19 C17.34 19 16.68 19 16 19 C16 19.66 16 20.32 16 21 C16.66 21.33 17.32 21.66 18 22 C15.69 22 13.38 22 11 22 C10.67 23.98 10.34 25.96 10 28 C9.34 27.67 8.68 27.34 8 27 C7.93 25.63 7.92 24.25 7.94 22.88 C7.76 20.39 7.76 20.39 7 18 C4.87 16.23 4.87 16.23 2.31 14.62 C-0.16 12.97 -0.16 12.97 -2 11 C-2.2 7.05 -1.29 3.71 0 0 Z " fill="#919392" transform="translate(77,24)"/>
<path d="M0 0 C3.45 1.53 6.29 3.37 9 6 C8.92 8.46 8.18 9.72 6.86 11.77 C5.67 14.86 6.41 16.62 7.38 19.75 C7.67 20.73 7.97 21.72 8.27 22.73 C8.51 23.48 8.75 24.23 9 25 C8.01 25.33 7.02 25.66 6 26 C1.52 22.46 -1.37 17.37 -3 12 C-2.77 7.6 -1.82 4 0 0 Z " fill="#E9E8DC" transform="translate(69,68)"/>
<path d="M0 0 C0.66 0.33 1.32 0.66 2 1 C1.48 1.41 0.97 1.83 0.44 2.25 C-0.04 2.83 -0.51 3.41 -1 4 C-0.71 5.34 -0.37 6.68 0 8 C0.08 9.44 0.11 10.89 0.1 12.33 C0.09 13.13 0.09 13.93 0.09 14.75 C0.08 15.58 0.07 16.4 0.06 17.25 C0.06 18.09 0.05 18.93 0.05 19.8 C0.04 21.86 0.02 23.93 0 26 C1.65 26.33 3.3 26.66 5 27 C5 27.99 5 28.98 5 30 C13.58 29.67 22.16 29.34 31 29 C31 29.66 31 30.32 31 31 C23.67 31.95 16.49 32.05 9.12 31.69 C8.32 31.65 7.51 31.62 6.68 31.58 C2.16 31.33 -1.8 30.82 -6 29 C-6.33 28.34 -6.66 27.68 -7 27 C-6.54 25.98 -6.07 24.97 -5.59 23.92 C-3.36 19.03 -3.54 14.26 -3.47 8.96 C-3.3 3.4 -3.3 3.4 -1.47 0.98 C-0.98 0.66 -0.5 0.33 0 0 Z " fill="#030D1E" transform="translate(19,67)"/>
<path d="M0 0 C0.33 1.65 0.66 3.3 1 5 C0.03 5.23 -0.94 5.45 -1.94 5.69 C-2.44 5.9 -2.44 5.9 -5 7 C-5.36 8.66 -5.7 10.33 -6 12 C-8.56 12.81 -8.56 12.81 -11 13 C-9.62 10.5 -9.62 10.5 -8 8 C-7.34 8 -6.68 8 -6 8 C-6 7.01 -6 6.02 -6 5 C-6.66 5 -7.32 5 -8 5 C-9 6.75 -9 6.75 -10 9 C-10.67 10.33 -11.33 11.67 -12 13 C-13.32 12.67 -14.64 12.34 -16 12 C-14.93 10.37 -13.84 8.74 -12.75 7.12 C-12.15 6.22 -11.54 5.32 -10.92 4.38 C-7.69 0.38 -5.03 -0.28 0 0 Z " fill="#E6E4D8" transform="translate(106,85)"/>
<path d="M0 0 C0.33 0.66 0.66 1.32 1 2 C1.8 2.27 2.61 2.54 3.44 2.81 C6 4 6 4 7.38 6.56 C7.58 7.37 7.79 8.17 8 9 C6.45 10.55 4.96 10.17 2.81 10.19 C-1.14 10.16 -4.32 9.51 -8 8 C-6.71 5.12 -5.43 3.04 -3 1 C-2.01 0.67 -1.02 0.34 0 0 Z " fill="#BEBDB7" transform="translate(27,85)"/>
<path d="M0 0 C1.81 0.19 1.81 0.19 4 1 C6.89 4.83 7.34 7.57 7.19 12.31 C7.16 13.38 7.13 14.45 7.11 15.55 C7.07 16.36 7.04 17.17 7 18 C6.34 17.67 5.68 17.34 5 17 C4.38 14.44 4.38 14.44 4 12 C1.69 12 -0.62 12 -3 12 C-2.26 7.92 -1.17 3.98 0 0 Z " fill="#828684" transform="translate(104,70)"/>
<path d="M0 0 C0.66 1.32 1.32 2.64 2 4 C2.33 3.34 2.66 2.68 3 2 C6.06 1.88 6.06 1.88 9 2 C9.33 3.98 9.66 5.96 10 8 C9.34 8 8.68 8 8 8 C8 8.66 8 9.32 8 10 C8.66 10.33 9.32 10.66 10 11 C7.69 11 5.38 11 3 11 C2.67 12.98 2.34 14.96 2 17 C1.34 16.67 0.68 16.34 0 16 C-1.09 10.35 -0.91 5.66 0 0 Z " fill="#737778" transform="translate(85,35)"/>
<path d="M0 0 C0.66 0.99 1.32 1.98 2 3 C1.19 5.44 1.19 5.44 0 8 C-0.35 9.33 -0.69 10.66 -1 12 C-6.45 12.1 -11.64 12.13 -17 11 C-17 10.67 -17 10.34 -17 10 C-15.91 9.86 -14.81 9.71 -13.69 9.56 C-10 9 -10 9 -7 8 C-6.9 7.22 -6.79 6.43 -6.69 5.62 C-6 3 -6 3 -2.94 1.19 C-1.97 0.8 -1 0.4 0 0 Z " fill="#152638" transform="translate(107,89)"/>
<path d="M0 0 C-1.05 2.24 -2.11 4.46 -3.19 6.69 C-3.48 7.31 -3.77 7.94 -4.07 8.58 C-6.16 12.88 -8.45 15.8 -12 19 C-11.37 13.21 -10.49 7.31 -8 2 C-3.06 -1.53 -3.06 -1.53 0 0 Z " fill="#5F6F78" transform="translate(101,74)"/>
<path d="M0 0 C3.22 0.43 6.14 1.47 9 3 C10.06 5.69 10.06 5.69 10 8 C9.39 7.83 8.77 7.66 8.14 7.49 C7.33 7.29 6.52 7.08 5.69 6.88 C4.89 6.67 4.09 6.46 3.26 6.24 C1 6 1 6 -2 8 C-3.67 8 -5.33 8 -7 8 C-7.33 8.66 -7.66 9.32 -8 10 C-8.33 9.01 -8.66 8.02 -9 7 C-7.5 4 -4.95 3.44 -2 2 C-1.34 1.34 -0.68 0.68 0 0 Z " fill="#56656D" transform="translate(64,43)"/>
<path d="M0 0 C0.99 0 1.98 0 3 0 C2.81 8.15 2.81 8.15 -0.44 11.56 C-3 13 -3 13 -5 13 C-5 16.63 -5 20.26 -5 24 C-5.99 24 -6.98 24 -8 24 C-8.42 20.25 -8.61 16.74 -8 13 C-6.37 11.06 -4.7 9.85 -2.62 8.41 C-1 7 -1 7 -0.06 3.12 C-0.04 2.09 -0.02 1.06 0 0 Z " fill="#142234" transform="translate(25,58)"/>
<path d="M0 0 C5.37 0.26 5.37 0.26 8 1 C10 3.56 10 3.56 11 6 C10.01 6.33 9.02 6.66 8 7 C8 7.66 8 8.32 8 9 C5.12 9.31 5.12 9.31 2 9 C0.03 5.78 0 3.82 0 0 Z " fill="#D7D5CE" transform="translate(61,89)"/>
<path d="M0 0 C2.75 -0.12 2.75 -0.12 6 1 C8.09 4.61 10 8.77 10 13 C10.66 13.33 11.32 13.66 12 14 C11.01 14.33 10.02 14.66 9 15 C4.03 11.18 1.83 5.79 0 0 Z " fill="#989794" transform="translate(66,79)"/>
<path d="M0 0 C2.69 1 2.69 1 5 3 C6.19 5.94 7.05 8.82 7 12 C6.01 12.66 5.02 13.32 4 14 C3.81 12.93 3.63 11.86 3.44 10.75 C2.78 8.36 2.32 7.26 0.38 5.68 C-1.37 4.7 -3.18 3.84 -5 3 C-5.66 2.67 -6.32 2.34 -7 2 C-7 1.34 -7 0.68 -7 0 C-4.25 -1.38 -2.94 -0.82 0 0 Z " fill="#0F1B31" transform="translate(100,43)"/>
<path d="M0 0 C0 5.61 0 11.22 0 17 C-2 16 -2 16 -2.99 13.67 C-3.87 10.76 -4.63 8.02 -5 5 C-2.25 0 -2.25 0 0 0 Z " fill="#787E83" transform="translate(79,75)"/>
<path d="M0 0 C0.33 0 0.66 0 1 0 C1.02 0.31 1.02 0.31 1.15 1.91 C1.63 7.47 2.51 12.62 4 18 C3.01 18.33 2.02 18.66 1 19 C0.67 18.01 0.34 17.02 0 16 C-1.66 15.31 -3.32 14.64 -5 14 C-5 13.34 -5 12.68 -5 12 C-4.18 12.16 -4.18 12.16 0 13 C0 8.71 0 4.42 0 0 Z " fill="#1C2331" transform="translate(33,73)"/>
<path d="M0 0 C0.66 0.33 1.32 0.66 2 1 C1.67 1.49 1.67 1.49 0 4 C0.33 4.33 0.66 4.66 1 5 C1.04 7 1.04 9 1 11 C0.01 11 -0.98 11 -2 11 C-1.92 12.11 -1.84 13.23 -1.75 14.38 C-1.83 15.57 -1.91 16.77 -2 18 C-4 19.44 -4 19.44 -6 20 C-5.69 19.31 -5.38 18.63 -5.06 17.92 C-3.51 13.66 -3.13 9.34 -2.56 4.86 C-2 2 -2 2 0 0 Z " fill="#010C1B" transform="translate(27,47)"/>
<path d="M0 0 C2.95 1.08 3.85 1.71 5.31 4.56 C5.43 4.96 5.43 4.96 6 7 C5 8 5 8 2.93 8.1 C2.11 8.09 1.29 8.07 0.44 8.06 C-0.39 8.05 -1.22 8.04 -2.07 8.04 C-2.7 8.02 -3.34 8.01 -4 8 C-3.52 7.56 -3.04 7.12 -2.54 6.67 C-0.58 4.55 -0.38 2.82 0 0 Z " fill="#7F8180" transform="translate(29,87)"/>
<path d="M0 0 C0.99 0.33 1.98 0.66 3 1 C2.67 1.66 2.34 2.32 2 3 C1.81 5.56 1.81 5.56 2 8 C2.66 8.33 3.32 8.66 4 9 C3.01 9.33 2.02 9.66 1 10 C0.67 8.35 0.34 6.7 0 5 C-1.65 6.32 -3.3 7.64 -5 9 C-5.66 8.34 -6.32 7.68 -7 7 C-5.91 5.8 -4.8 4.62 -3.69 3.44 C-3.07 2.78 -2.46 2.11 -1.82 1.43 C-1.22 0.96 -0.62 0.49 0 0 Z " fill="#1E232E" transform="translate(94,54)"/>
</svg>
