<svg xmlns="http://www.w3.org/2000/svg" width="128" height="128" viewBox="0 0 128 128"><path fill="#111e31" d="M39.31 17.63c5.3.03 5.3.03 8.31 2.75Q48.83 22.68 50 25c2-2.02 2-2.02 2.87-4.64L54 18h4v4l3.75.38c3.12.38 5.54.93 8.25 2.63l1-7h32v4l2.62 1.3c4.07 2.04 7.15 4.67 9.38 8.7-.34 2.02-.34 2.02-1 4v3c-.19 2.5-.19 2.5-1 5-2.57 1.8-2.57 1.8-5 3l1 2.18c1 2.83 1.17 4.84 1 7.82h-2l-.3 2.04c-.66 3.93-1.29 7.22-3.27 10.7-3.44 1.77-5.69.88-9.3-.17C93 69 93 69 90 69c-2.63-1.31-2.63-1.31-5-3l-1-3-1.46 1.31-1.92 1.7-1.9 1.67C77 69 77 69 75 69l-.19 3.19c-.97 4.58-2.08 6.05-5.8 8.81-3.82.81-3.82.81-7 1q.32 1.53.68 3.13c.4 4.98-.93 7.68-4.02 11.52-2.16 1.74-3.49 1.67-6.24 1.72-2.42.2-2.42.2-4.43.63-1.3 2.38-1.3 2.38-2 5-2.82 3.03-5.89 3.7-9.98 4.06-3.3-.1-5.34-1.19-8.02-3.06-2.99-3.28-3.12-5.8-3-10.06q.08-1.24.2-2.53c-.25-3-1.33-4.12-3.2-6.4-1.3-5.42-1.3-5.42 0-8-.29-.05-.29-.05-1.75-.2-3.42-1.23-4.45-2.65-6.25-5.8-.6-4.54-.6-8.6 1.2-12.83q.38-1.07.8-2.17l-3-5c-.52-4.7-.48-6.98 1.5-11.26A21.7 21.7 0 0 1 25 34c3.1.19 5.55.86 8.5 1.75 3.5.34 5.52-1.02 8.5-2.74l-3.25-1.13c-4.02-1.73-5.9-3.84-7.75-7.87 1.36-5.6 2.83-6.2 8.31-6.39M37.01 21l-1 4c4.42 3.06 4.42 3.06 7.3 2.68l1.7-.68c-1.89-4.89-1.89-4.89-3-6a83 83 0 0 0-5 0m11 11c.35 4.24 2.9 6.27 6 9h2q.2-.91.43-1.84c2.06-7.34 2.06-7.34 5.75-9.66q1.37-.75 2.81-1.5v-1c-7.3-.68-11.63-.27-17 5"/><path fill="#061225" d="M39.31 17.63c5.3.03 5.3.03 8.31 2.75Q48.83 22.68 50 25c2-2 2-2 2.87-4.64L54 18h4v4l3.75.38c3.12.38 5.54.93 8.25 2.63l1-7h32v4l2.62 1.3c4.07 2.04 7.15 4.67 9.38 8.7-.34 2.02-.34 2.02-1 4v3c-.19 2.5-.19 2.5-1 5-2.56 1.8-2.56 1.8-5 3l1 2.18c1 2.83 1.17 4.84 1 7.82h-2l-.3 2.04c-.66 3.93-1.29 7.22-3.27 10.7-3.44 1.77-5.69.88-9.3-.17C93 69 93 69 90 69c-2.63-1.31-2.63-1.31-5-3l-1-3-1.46 1.31-1.92 1.7-1.9 1.67C77 69 77 69 75 69l-.19 3.19c-.97 4.58-2.08 6.05-5.8 8.81-3.82.81-3.82.81-7 1q.32 1.53.68 3.13c.4 4.98-.93 7.68-4.02 11.52-2.16 1.74-3.49 1.67-6.24 1.72-2.42.2-2.42.2-4.43.63-1.3 2.38-1.3 2.38-2 5-2.82 3.03-5.89 3.7-9.98 4.06-3.3-.1-5.34-1.19-8.02-3.06-3.8-4.06-3.25-8.51-3.1-13.76L25 89h2c1.74 2.55 2.07 4.5 2.5 7.61C30 100 30 100 32 102c1.87.27 1.87.27 4 .25l2.12.02C40 102 40 102 42 100c.63-2.39.63-2.39 1.12-5.12l.51-2.77.37-2.1c.5.31.5.31 3 2v2c1.48-.18 1.48-.18 9-1l2-9-2.25 1C53 86 53 86 49 86c.2-1.83.2-1.83 1-4q1.2-.67 2.43-1.33c3.53-2.31 3.73-4.66 4.57-8.68l1 4h2v2c8.47-2.28 8.47-2.28 11-4v-3h2l1-6h2c2.05-3.42 3.44-7.33 5-11 3 1 3 1 4.81 4.44 1.52 2.8 1.93 3.44 4.94 4.88l3.25.68 4.37 1.13L102 66l1-12h2c-3.15-8.59-3.15-8.59-5-12l8-1q-.3-1.4-.63-2.82C107 35 107 35 109 32l-2.5-1.32L104 29v-3H94c1.87-4.89 1.87-4.89 3-6l-7.07.05-3.97.04A77 77 0 0 1 75 19v11l4 1c2-2.26 2-2.26 4-5 2.12-1.87 2.12-1.87 4-3l2 1-1.5 1.68-1.94 2.2-1.93 2.18C82 31.99 82 31.99 81 34h17v1l-14 1c6.14 8.86 6.14 8.86 11 10l-2 1 2 7c-4.18-3.91-7.58-8.23-11.04-12.8C82 39 82 39 78 37l-3 14h-1q-.09-2.85-.13-5.69l-.07-3.2c.2-3.13.87-5.28 2.2-8.1-4.07-2.72-6.17-2.31-11-2l-2 2v2l-5-1-1 2c.3-3.68.76-4.8 3.56-7.32L63 28c-4.7-.34-7.17-.43-11.44 1.68C48.7 32.26 48.5 33.3 48 37c-3 1-3 1-6.19-.44L39.01 35q1.46-1 3-2l-3.26-1.12c-4.02-1.73-5.9-3.84-7.75-7.87 1.36-5.6 2.83-6.2 8.31-6.39M37.01 21l-1 4c4.42 3.06 4.42 3.06 7.3 2.68l1.7-.68c-1.89-4.89-1.89-4.89-3-6a83 83 0 0 0-5 0"/><path fill="#f0efe0" d="M75 19c2.22-.23 2.22-.23 5.13-.2l3.13.02 3.3.06 3.31.02L98 19l-4 7h10v3l2.5 1 2.5 1c0 3 0 3-1 5l1 5c-1 1-1 1-2.85 1.1L100 42l1.09 1.61 1.41 2.14 1.41 2.11C105 50 105 50 105 54h-2l.04 1.86.02 2.45.04 2.43C103 63 103 63 102 66c-5.62.25-5.62.25-9-2l-2.94-.69C85.74 61.46 85.11 59.14 83 55l-2-1-.25 2.75C79.91 60.4 78.82 61.63 76 64a56 56 0 0 1-7-4h-2l-1-7h-2c-.29-8.57-.29-8.57 2-12h-6c1.51-6.16 1.51-6.16 3.12-8.94 3.13-1.77 6.43-1.6 9.88-1.06 2.5 1.5 2.5 1.5 4 3l-1 2.19A18 18 0 0 0 75 44l3-7c4.87 1.39 7.3 4.27 10.31 8.12l1.38 1.71L93 51c0-4 0-4-2.25-6.5L88 42a89 89 0 0 1-4-4v-2l5-1-8-1c1.37-4 3.26-6.8 6-10-6.43 5.29-6.43 5.29-9 8-2-1.56-2-1.56-4-4-.51-5.97-.51-5.97 1-9"/><path fill="#131e30" d="M21 60h4c1.01 1.61 1.01 1.61 1.69 3.75l.7 2.11C28 68 28 68 28.38 70.24L29 72l3.25.38c3.93.65 4.35.81 6.69 3.68L41 79l.69-3.25c1.47-4.22 2.39-5.66 6.31-7.75 3.69.06 3.69.06 7 1 2 3 2 3 1.88 6.5C56 79 56 79 54.06 80.94 52 82 52 82 50 82l-1 4 9-2c.32 3.5.4 5.4-1.56 8.38-3.33 2.21-5.53 2.13-9.44 1.62l-2-3c-1 1-1 1-1.38 4.88-.29 2.41-.54 3.96-1.68 6.12-3.21 1.66-6.42 1.53-9.94 1-1.94-1.12-1.94-1.12-3-3-.69-3.19-.69-3.19-1-6h-1v-5l-1.88-.19C23 88 23 88 21.69 85.75c-.76-3.01-.53-4.79.31-7.75l-1.81-.19C18 77 18 77 16 75.06c-1.41-4.33.05-6.79 1.82-10.85C19 62 19 62 21 60"/><path fill="#0d1628" d="M31 35q2.48.56 5 1l1-1c2.94-.25 2.94-.25 6 0l2 3-3.38.75C38 40 38 40 36.56 41.75c-.7 2.81-.69 5.37-.56 8.25h6c-.62 2-.62 2-2 4h-6c-2.38 1.56-2.38 1.56-4 4-.56 3.5-.56 3.5 0 7 2.12 2.5 2.12 2.5 5 4 4.29-.09 6.81-1.18 10-4v7l-2 1q-1.1 3.47-2 7l-1.94-2.44C37 75 37 75 36 74l-3.44-.25L29 73c-1.31-2.31-1.31-2.31-2-5l-1.12-2.06C25 64 25 64 25 60c-2.36.68-2.36.68-5 2-1.29 2.38-1.29 2.38-2.19 5.12-.92 2.76-.92 2.76-1.81 4.88h-2c-.32-9.24-.32-9.24 1.19-12.81L16 57q-1.48-2.5-3-5c-.52-4.69-.47-6.98 1.5-11.25 4.71-5.18 9.52-7.77 16.5-5.75"/><path fill="#0c192d" d="M61 45h3v8l3-1v8l3-1c2.26 1.4 4.02 3.2 6 5q-1.4 3.55-3 7h-2v3c-2.98 2.43-5 3.91-8.88 4.25L60 78v-2h-2v-4h-2l-1-2-3-1v-2l-4-1 3-1-2-2c-.94-3.31-.94-3.31-1-7 2.47-3.4 4.93-5.09 8.75-6.62L60 48z"/><path fill="#e5e4d7" d="M37 52.38c4.07.84 5.54 2.3 8 5.61.72 3.84.33 5.45-1.62 8.82-2.95 2.72-4.37 3.35-8.38 3.19-3.38-2-3.38-2-6-5-.69-3.5-.69-3.5 0-7 2.45-3.38 3.89-4.77 8-5.62"/><path fill="#e9e8da" d="m30 39 2 1c.85 5.3.88 9.68-2.12 14.19-3.39 2.13-4.95 2.56-8.88 1.81-2.44-1.44-2.44-1.44-4-4-.33-4.34.3-7.85 2.56-11.56C23.2 38.29 25.8 38.66 30 39"/><path fill="#232630" d="M73 22h1l.25 3.94c.28 2.19.28 2.19.75 4.06 1.81 1.31 1.81 1.31 4 1 2-2.25 2-2.25 4-5 2.12-1.88 2.12-1.88 4-3l2 1-1.5 1.68-1.94 2.2-1.93 2.17C82 32 82 32 81 34h17v1l-14 1c6.14 8.86 6.14 8.86 11 10l-2 1 2 7c-4.17-3.91-7.58-8.23-11.04-12.79C82 39 82 39 78 37l-3 14h-1q-.07-2.84-.12-5.69l-.08-3.2c.2-3.13.87-5.29 2.2-8.11-3.19-2.13-5.27-2.5-9-3v-1h5z"/><path fill="#e6e4d7" d="M33.06 72.38C36 73 36 73 38.37 75.13 40.28 78.5 40.65 80.19 40 84c-1.56 2.38-1.56 2.38-4 4-3.5.56-3.5.56-7 0-2.66-2.39-3.78-4.02-4.56-7.5 1.06-4.75 3.93-7.17 8.62-8.12"/><path fill="#e8e6d9" d="M47 38c1.94 1.06 1.94 1.06 3 3 .49 3.84.47 6.13-1.38 9.56-3.74 2.05-6.4 1.42-10.46.4C36 50 36 50 34.69 47.19c.35-3.57 1.13-5.37 3.31-8.19 3.05-1.52 5.64-1.24 9-1"/><path fill="#e4e3d4" d="M51.69 68.06c3.3.94 3.3.94 5.3 3.94-.21 6.1-.21 6.1-2.68 8.94-3.08 1.41-4.95 1.62-8.31 1.06-2.43-2.19-2.43-2.19-4-5-.08-3.56.75-4.72 3.13-7.38C48 68 48 68 51.69 68.06"/><path fill="#e1e0d5" d="M56.38 49.63c2.61.38 2.61.38 4.5 2.43 1.45 3.78 1.13 6.05.11 9.95-1.18 1.93-1.18 1.93-3 3-4.07.41-5.52.3-9-2-1-3.32-1-3.32-1-7 2.38-2.88 2.38-2.88 5-5 1-1 1-1 3.38-1.38"/><path fill="#e5e3d5" d="M42 92c1 1 1 1 1.25 4.38C43 100 43 100 42 101.94c-3.24 1.72-6.42 1.59-10 1.06-2-1.06-2-1.06-3-3-.25-3.62-.25-3.62 0-7 2.72-2.72 9.57-2.37 13-1"/><path fill="#eeeee6" d="M58 84c.32 3.5.4 5.4-1.56 8.38-3.38 2.25-5.46 2.27-9.44 1.62-2.77-3.22-3-4.69-3-9l1.86.04 2.45.02 2.43.04c2.58-.11 4.68-1.1 7.26-1.1"/><path fill="#eeede0" d="M25 60a11 11 0 0 1 1.69 3.81l.7 2.15L28 68l1 3c-4.37 3.04-4.37 3.04-7.19 2.88C20 73 20 73 18 70c-.55-6.15-.55-6.15 1.25-8.94C21 60 21 60 25 60"/><path fill="#9c9f9a" d="M66 64c2 1.12 2 1.12 4 3 .56 2.88.56 2.88 0 6-2.25 2.88-2.25 2.88-5 5h-4c-.73-3.04-1.24-5.87-1-9 1.76-2.37 3.45-3.39 6-5"/><path fill="#131e30" d="M107 47c2.3 3.44 2.54 5.94 3 10h-2v3h-2l-1 5h-3l1-11h2l-.12-2.38C105 49 105 49 107 47"/><path fill="#2e3037" d="M84 40c1.88.31 1.88.31 4 1l2 3a37 37 0 0 0 5 2l-2 1 2 7c-3.88-3.77-7.8-7.63-11-12z"/><path fill="#030c1a" d="M25 89h2c2.54 3.59 2.57 7.75 3 12h-2l-1 2c-2.28-3.42-2.22-4.68-2.12-8.69l.05-3.01z"/><path fill="#141f37" d="M113.25 31.25 115 32l-1 4h-2c-1.13 2.5-1.13 2.5-2 5-2-3-2-3-3-6 3.08-4.1 3.08-4.1 6.25-3.75"/><path fill="#999991" d="M58 84c.33 3.64.42 5.41-1.75 8.44C54 94 54 94 51.75 93.75L50 93l3-2c.19-3.12.19-3.12 0-6 3-1 3-1 5-1"/><path fill="#020b1d" d="M106 60h1c-.29 3.71-.58 6.35-2.62 9.5C102 71 102 71 98.25 70.75L95 70c2.05-2.53 3.49-3.2 6.62-4.44C105 64 105 64 105.94 61.81z"/></svg>