<svg xmlns="http://www.w3.org/2000/svg" width="128" height="128" viewBox="0 0 128 128"><path fill="#0e1530" d="M30 28C27 19 14 15 8 21C2 27 7 36 17 35C22 35 26 32 27 28C28 34 33 39 40 37C44 36 45 42 40 46C30 47 22 40 21 33C16 36 9 34 6 29C3 23 10 18 18 20C24 21 27 25 30 31ZM49 39C56 34 64 35 70 42L66 49C60 43 55 41 48 44ZM12.5 47a12.5 12.5 0 1 0 25 0a12.5 12.5 0 1 0 -25 0ZM30.8 43a12.2 12.2 0 1 0 24.4 0a12.2 12.2 0 1 0 -24.4 0ZM5.4 62a11.6 11.6 0 1 0 23.2 0a11.6 11.6 0 1 0 -23.2 0ZM22.9 60a12.1 12.1 0 1 0 24.2 0a12.1 12.1 0 1 0 -24.2 0ZM41.4 57a11.6 11.6 0 1 0 23.2 0a11.6 11.6 0 1 0 -23.2 0ZM11.3 78a11.7 11.7 0 1 0 23.4 0a11.7 11.7 0 1 0 -23.4 0ZM28 78a12 12 0 1 0 24 0a12 12 0 1 0 -24 0ZM46.6 72a10.4 10.4 0 1 0 20.8 0a10.4 10.4 0 1 0 -20.8 0ZM19 94a12 12 0 1 0 24 0a12 12 0 1 0 -24 0ZM36.2 91a10.8 10.8 0 1 0 21.6 0a10.8 10.8 0 1 0 -21.6 0ZM21.5 110a11.5 11.5 0 1 0 23 0a11.5 11.5 0 1 0 -23 0Z"/><path fill="#fcf9e4" d="M16.5 47a8.5 8.5 0 1 0 17 0a8.5 8.5 0 1 0 -17 0ZM34.8 43a8.2 8.2 0 1 0 16.4 0a8.2 8.2 0 1 0 -16.4 0ZM9.2 62a7.8 7.8 0 1 0 15.6 0a7.8 7.8 0 1 0 -15.6 0ZM26.8 60a8.2 8.2 0 1 0 16.4 0a8.2 8.2 0 1 0 -16.4 0ZM45.4 57a7.6 7.6 0 1 0 15.2 0a7.6 7.6 0 1 0 -15.2 0ZM15.2 78a7.8 7.8 0 1 0 15.6 0a7.8 7.8 0 1 0 -15.6 0ZM32 78a8 8 0 1 0 16 0a8 8 0 1 0 -16 0ZM50.3 72a6.7 6.7 0 1 0 13.4 0a6.7 6.7 0 1 0 -13.4 0ZM23 94a8 8 0 1 0 16 0a8 8 0 1 0 -16 0ZM40 91a7 7 0 1 0 14 0a7 7 0 1 0 -14 0ZM25.4 110a7.6 7.6 0 1 0 15.2 0a7.6 7.6 0 1 0 -15.2 0Z"/><path fill="#0e1530" d="M72 62C60 62 50 54 58 44C48 36 56 22 70 26C72 12 90 12 92 26C106 22 116 34 104 44C116 52 106 66 94 60C90 66 78 66 72 62Z"/><path fill="#fcf9e4" d="M73 58C63 58 56 50 62 43C54 36 62 26 73 30C75 18 87 18 89 30C100 26 108 36 99 43C108 50 100 60 92 56C88 60 78 60 73 58Z"/><path fill="#0e1530" d="M79 32L82 32L81 62L78 62Z M80 40L68 32L70 30L81 38Z M80 41L94 33L95 36L81 44Z M80 47L70 53L69 51L80 45Z M80 48L92 54L91 57L80 51Z"/></svg>
