<svg xmlns="http://www.w3.org/2000/svg" width="128" height="128" viewBox="0 0 128 128"><path fill="#0e1530" d="M30 28C27 19 14 15 8 21C2 27 7 36 17 35C22 35 26 32 27 28C28 34 33 39 40 37C44 36 45 42 40 46C30 47 22 40 21 33C16 36 9 34 6 29C3 23 10 18 18 20C24 21 27 25 30 31ZM49 39C56 34 64 35 70 42L66 49C60 43 55 41 48 44ZM12.5 47a12.5 12.5 0 1 0 25 0a12.5 12.5 0 1 0 -25 0ZM30.8 43a12.2 12.2 0 1 0 24.4 0a12.2 12.2 0 1 0 -24.4 0ZM5.4 62a11.6 11.6 0 1 0 23.2 0a11.6 11.6 0 1 0 -23.2 0ZM22.9 60a12.1 12.1 0 1 0 24.2 0a12.1 12.1 0 1 0 -24.2 0ZM41.4 57a11.6 11.6 0 1 0 23.2 0a11.6 11.6 0 1 0 -23.2 0ZM11.3 78a11.7 11.7 0 1 0 23.4 0a11.7 11.7 0 1 0 -23.4 0ZM28 78a12 12 0 1 0 24 0a12 12 0 1 0 -24 0ZM46.6 72a10.4 10.4 0 1 0 20.8 0a10.4 10.4 0 1 0 -20.8 0ZM19 94a12 12 0 1 0 24 0a12 12 0 1 0 -24 0ZM36.2 91a10.8 10.8 0 1 0 21.6 0a10.8 10.8 0 1 0 -21.6 0ZM21.5 110a11.5 11.5 0 1 0 23 0a11.5 11.5 0 1 0 -23 0Z"/><path fill="#fcf9e4" d="M16.5 47a8.5 8.5 0 1 0 17 0a8.5 8.5 0 1 0 -17 0ZM34.8 43a8.2 8.2 0 1 0 16.4 0a8.2 8.2 0 1 0 -16.4 0ZM9.2 62a7.8 7.8 0 1 0 15.6 0a7.8 7.8 0 1 0 -15.6 0ZM26.8 60a8.2 8.2 0 1 0 16.4 0a8.2 8.2 0 1 0 -16.4 0ZM45.4 57a7.6 7.6 0 1 0 15.2 0a7.6 7.6 0 1 0 -15.2 0ZM15.2 78a7.8 7.8 0 1 0 15.6 0a7.8 7.8 0 1 0 -15.6 0ZM32 78a8 8 0 1 0 16 0a8 8 0 1 0 -16 0ZM50.3 72a6.7 6.7 0 1 0 13.4 0a6.7 6.7 0 1 0 -13.4 0ZM23 94a8 8 0 1 0 16 0a8 8 0 1 0 -16 0ZM40 91a7 7 0 1 0 14 0a7 7 0 1 0 -14 0ZM25.4 110a7.6 7.6 0 1 0 15.2 0a7.6 7.6 0 1 0 -15.2 0Z"/><path fill="#0e1530" d="M69 17C76 10 86 14 85 25C92 18 104 20 104 30C115 30 120 40 111 46C119 53 113 63 103 61C106 72 94 77 87 68C82 79 70 75 70 64C62 70 53 61 58 51C48 47 49 37 59 33C56 25 62 19 69 17Z"/><path fill="#fcf9e4" d="M70 24C76 20 80 24 79 35C87 24 96 25 95 35C105 34 109 40 99 44C109 49 105 56 95 53C101 63 92 68 85 59C82 71 75 69 76 56C68 64 62 58 68 49C58 48 58 41 69 42C62 34 63 27 70 24Z"/><path fill="#0e1530" d="M78 37L82 37L81 67L78 67Z M80 42L96 31L98 34L84 47Z M82 46L106 44L106 48L83 49Z M80 49L96 60L93 63L79 52Z M77 42L66 27L69 25L81 40Z M75 45L62 52L60 49L75 41Z"/></svg>
