<?xml version="1.0" encoding="UTF-8"?>
<!-- Generator: visioncortex VTracer 0.6.12 -->
<svg version="1.1" xmlns="http://www.w3.org/2000/svg" width="128" height="128" viewBox="0 0 128 128" preserveAspectRatio="xMidYMid meet">
<path d="M0 0 C5.3 0.03 5.3 0.03 8.31 2.75 C9.12 4.29 9.91 5.82 10.69 7.38 C12.69 5.37 12.69 5.37 13.56 2.75 C13.93 1.97 14.3 1.18 14.69 0.38 C16.01 0.38 17.33 0.38 18.69 0.38 C18.69 1.7 18.69 3.02 18.69 4.38 C19.92 4.5 21.16 4.62 22.44 4.75 C25.56 5.13 27.98 5.68 30.69 7.38 C31.02 5.06 31.35 2.75 31.69 0.38 C42.25 0.38 52.81 0.38 63.69 0.38 C63.69 1.7 63.69 3.02 63.69 4.38 C64.55 4.81 65.42 5.24 66.31 5.69 C70.38 7.72 73.46 10.35 75.69 14.38 C75.35 16.41 75.35 16.41 74.69 18.38 C74.69 19.36 74.69 20.36 74.69 21.38 C74.5 23.88 74.5 23.88 73.69 26.38 C71.12 28.19 71.12 28.19 68.69 29.38 C68.85 29.74 68.85 29.74 69.69 31.56 C70.69 34.39 70.86 36.4 70.69 39.38 C70.03 39.38 69.37 39.38 68.69 39.38 C68.59 40.05 68.49 40.73 68.39 41.42 C67.73 45.35 67.1 48.64 65.12 52.12 C61.68 53.89 59.43 53 55.81 51.95 C53.69 51.38 53.69 51.38 50.69 51.38 C48.06 50.06 48.06 50.06 45.69 48.38 C45.36 47.38 45.03 46.4 44.69 45.38 C44.21 45.81 43.72 46.24 43.23 46.69 C42.59 47.24 41.96 47.8 41.31 48.38 C40.69 48.93 40.06 49.49 39.41 50.06 C37.69 51.38 37.69 51.38 35.69 51.38 C35.66 51.9 35.66 51.9 35.5 54.56 C34.53 59.14 33.42 60.61 29.69 63.38 C25.88 64.19 25.88 64.19 22.69 64.38 C22.91 65.41 23.14 66.44 23.38 67.5 C23.78 72.49 22.45 75.18 19.36 79.02 C17.2 80.77 15.87 80.7 13.12 80.75 C10.7 80.94 10.7 80.94 8.69 81.38 C7.38 83.75 7.38 83.75 6.69 86.38 C3.87 89.41 0.8 90.07 -3.29 90.44 C-6.59 90.34 -8.63 89.25 -11.31 87.38 C-14.3 84.09 -14.43 81.57 -14.31 77.31 C-14.25 76.48 -14.19 75.64 -14.12 74.78 C-14.36 71.79 -15.44 70.66 -17.31 68.38 C-18.61 62.97 -18.61 62.97 -17.31 60.38 C-17.6 60.34 -17.6 60.34 -19.06 60.19 C-22.48 58.95 -23.51 57.54 -25.31 54.38 C-25.92 49.85 -25.91 45.79 -24.12 41.56 C-23.86 40.84 -23.59 40.12 -23.31 39.38 C-24.31 37.7 -25.31 36.04 -26.31 34.38 C-26.83 29.69 -26.79 27.4 -24.81 23.12 C-21.71 19.71 -18.73 17.73 -14.31 16.38 C-11.22 16.56 -8.76 17.24 -5.81 18.12 C-2.31 18.47 -0.29 17.11 2.69 15.38 C1.61 15 0.54 14.63 -0.56 14.25 C-4.58 12.52 -6.46 10.41 -8.31 6.38 C-6.95 0.78 -5.48 0.19 0 0 Z M-2.31 3.38 C-2.64 4.7 -2.97 6.02 -3.31 7.38 C1.12 10.45 1.12 10.45 4 10.06 C4.28 9.95 4.28 9.95 5.69 9.38 C3.81 4.5 3.81 4.5 2.69 3.38 C1.02 3.33 -0.65 3.33 -2.31 3.38 Z M8.69 14.38 C9.05 18.62 11.59 20.65 14.69 23.38 C15.35 23.38 16.01 23.38 16.69 23.38 C16.83 22.77 16.98 22.17 17.13 21.55 C19.19 14.21 19.19 14.21 22.88 11.88 C23.8 11.38 24.73 10.88 25.69 10.38 C25.69 10.05 25.69 9.71 25.69 9.38 C18.38 8.71 14.06 9.12 8.69 14.38 Z " fill="#111E31" transform="translate(39.3125,17.625)"/>
<path d="M0 0 C5.3 0.03 5.3 0.03 8.31 2.75 C9.12 4.29 9.91 5.82 10.69 7.38 C12.69 5.38 12.69 5.38 13.56 2.75 C13.93 1.97 14.3 1.18 14.69 0.38 C16.01 0.38 17.33 0.38 18.69 0.38 C18.69 1.7 18.69 3.02 18.69 4.38 C19.92 4.5 21.16 4.62 22.44 4.75 C25.56 5.13 27.98 5.68 30.69 7.38 C31.02 5.06 31.35 2.75 31.69 0.38 C42.25 0.38 52.81 0.38 63.69 0.38 C63.69 1.7 63.69 3.02 63.69 4.38 C64.55 4.81 65.42 5.24 66.31 5.69 C70.38 7.72 73.46 10.35 75.69 14.38 C75.35 16.41 75.35 16.41 74.69 18.38 C74.69 19.36 74.69 20.36 74.69 21.38 C74.5 23.88 74.5 23.88 73.69 26.38 C71.13 28.19 71.13 28.19 68.69 29.38 C68.85 29.74 68.85 29.74 69.69 31.56 C70.69 34.39 70.86 36.4 70.69 39.38 C70.03 39.38 69.37 39.38 68.69 39.38 C68.59 40.05 68.49 40.73 68.39 41.42 C67.73 45.35 67.1 48.64 65.12 52.12 C61.68 53.89 59.43 53 55.81 51.95 C53.69 51.38 53.69 51.38 50.69 51.38 C48.06 50.06 48.06 50.06 45.69 48.38 C45.36 47.38 45.03 46.4 44.69 45.38 C44.21 45.81 43.72 46.24 43.23 46.69 C42.59 47.24 41.96 47.8 41.31 48.38 C40.69 48.93 40.06 49.49 39.41 50.06 C37.69 51.38 37.69 51.38 35.69 51.38 C35.66 51.9 35.66 51.9 35.5 54.56 C34.53 59.14 33.42 60.61 29.69 63.38 C25.88 64.19 25.88 64.19 22.69 64.38 C22.91 65.41 23.14 66.44 23.38 67.5 C23.78 72.49 22.45 75.18 19.36 79.02 C17.2 80.77 15.87 80.7 13.12 80.75 C10.7 80.94 10.7 80.94 8.69 81.38 C7.38 83.75 7.38 83.75 6.69 86.38 C3.87 89.41 0.8 90.07 -3.29 90.44 C-6.59 90.34 -8.63 89.25 -11.31 87.38 C-15.11 83.32 -14.56 78.86 -14.42 73.61 C-14.38 72.87 -14.35 72.13 -14.31 71.38 C-13.65 71.38 -12.99 71.38 -12.31 71.38 C-10.57 73.94 -10.24 75.89 -9.81 79 C-9.31 82.38 -9.31 82.38 -7.31 84.38 C-5.44 84.64 -5.44 84.64 -3.31 84.62 C-2.61 84.63 -1.91 84.64 -1.19 84.64 C0.69 84.38 0.69 84.38 2.69 82.38 C3.32 79.99 3.32 79.99 3.81 77.25 C3.98 76.34 4.15 75.43 4.32 74.49 C4.44 73.79 4.56 73.09 4.69 72.38 C5.18 72.7 5.18 72.7 7.69 74.38 C7.69 75.03 7.69 75.69 7.69 76.38 C9.17 76.21 9.17 76.21 16.69 75.38 C17.35 72.41 18.01 69.44 18.69 66.38 C18.32 66.54 18.32 66.54 16.44 67.38 C13.69 68.38 13.69 68.38 9.69 68.38 C9.88 66.56 9.88 66.56 10.69 64.38 C11.49 63.94 12.3 63.51 13.12 63.06 C16.65 60.74 16.85 58.4 17.69 54.38 C17.85 55.03 17.85 55.03 18.69 58.38 C19.35 58.38 20.01 58.38 20.69 58.38 C20.69 59.03 20.69 59.69 20.69 60.38 C29.16 58.09 29.16 58.09 31.69 56.38 C31.69 55.38 31.69 54.4 31.69 53.38 C32.35 53.38 33.01 53.38 33.69 53.38 C34.02 51.4 34.35 49.41 34.69 47.38 C35.35 47.38 36.01 47.38 36.69 47.38 C38.74 43.95 40.13 40.05 41.69 36.38 C44.69 37.38 44.69 37.38 46.5 40.81 C48.02 43.62 48.43 44.25 51.44 45.69 C52.51 45.91 53.58 46.14 54.69 46.38 C56.15 46.75 57.61 47.12 59.06 47.5 C60.26 47.79 61.45 48.08 62.69 48.38 C63.02 44.41 63.35 40.45 63.69 36.38 C64.35 36.38 65.01 36.38 65.69 36.38 C62.54 27.8 62.54 27.8 60.69 24.38 C62.01 24.21 62.01 24.21 68.69 23.38 C68.48 22.45 68.28 21.52 68.06 20.56 C67.69 17.38 67.69 17.38 69.69 14.38 C68.86 13.94 68.04 13.51 67.19 13.06 C66.36 12.51 65.54 11.95 64.69 11.38 C64.69 10.38 64.69 9.39 64.69 8.38 C61.39 8.38 58.09 8.38 54.69 8.38 C56.56 3.5 56.56 3.5 57.69 2.38 C56.69 2.39 55.68 2.4 54.65 2.41 C53.31 2.42 51.97 2.43 50.62 2.44 C49.97 2.44 49.97 2.44 46.65 2.47 C42.87 2.38 39.41 1.99 35.69 1.38 C35.69 5.01 35.69 8.64 35.69 12.38 C37.01 12.7 38.33 13.04 39.69 13.38 C41.69 11.12 41.69 11.12 43.69 8.38 C45.81 6.5 45.81 6.5 47.69 5.38 C48.35 5.7 49.01 6.04 49.69 6.38 C49.19 6.93 48.7 7.48 48.19 8.05 C47.87 8.42 47.87 8.42 46.25 10.25 C45.93 10.61 45.93 10.61 44.32 12.43 C42.69 14.37 42.69 14.37 41.69 16.38 C47.3 16.38 52.91 16.38 58.69 16.38 C58.69 16.7 58.69 17.03 58.69 17.38 C54.07 17.7 49.45 18.03 44.69 18.38 C50.83 27.23 50.83 27.23 55.69 28.38 C55.03 28.7 54.37 29.03 53.69 29.38 C54.02 30.53 54.02 30.53 55.69 36.38 C51.51 32.46 48.11 28.14 44.65 23.58 C42.69 21.38 42.69 21.38 38.69 19.38 C37.7 24 36.71 28.62 35.69 33.38 C35.36 33.38 35.03 33.38 34.69 33.38 C34.63 31.48 34.59 29.58 34.56 27.69 C34.54 26.63 34.52 25.58 34.49 24.49 C34.69 21.35 35.36 19.2 36.69 16.38 C32.62 13.66 30.52 14.07 25.69 14.38 C25.03 15.03 24.37 15.7 23.69 16.38 C23.69 17.03 23.69 17.7 23.69 18.38 C22.04 18.05 20.39 17.72 18.69 17.38 C18.36 18.03 18.03 18.7 17.69 19.38 C17.99 15.7 18.45 14.59 21.25 12.06 C22.05 11.51 22.86 10.95 23.69 10.38 C18.99 10.05 16.52 9.96 12.25 12.06 C9.39 14.64 9.19 15.69 8.69 19.38 C5.69 20.38 5.69 20.38 2.5 18.94 C1.57 18.42 0.64 17.91 -0.31 17.38 C0.68 16.72 1.67 16.05 2.69 15.38 C1.62 15 0.54 14.63 -0.56 14.25 C-4.58 12.52 -6.46 10.41 -8.31 6.38 C-6.95 0.78 -5.48 0.19 0 0 Z M-2.31 3.38 C-2.64 4.7 -2.97 6.02 -3.31 7.38 C1.12 10.45 1.12 10.45 4 10.06 C4.28 9.95 4.28 9.95 5.69 9.38 C3.81 4.5 3.81 4.5 2.69 3.38 C1.02 3.33 -0.65 3.33 -2.31 3.38 Z " fill="#061225" transform="translate(39.3125,17.625)"/>
<path d="M0 0 C2.22 -0.23 2.22 -0.23 5.13 -0.2 C6.16 -0.19 7.2 -0.18 8.26 -0.18 C8.81 -0.17 8.81 -0.17 11.56 -0.12 C12.65 -0.12 13.75 -0.11 14.87 -0.1 C17.58 -0.07 20.29 -0.04 23 0 C21.68 2.31 20.36 4.62 19 7 C22.3 7 25.6 7 29 7 C29 7.99 29 8.98 29 10 C29.83 10.33 30.65 10.66 31.5 11 C32.33 11.33 33.15 11.66 34 12 C34 15 34 15 33 17 C33.33 18.67 33.66 20.33 34 22 C33 23 33 23 31.15 23.1 C29.1 23.07 27.05 23.03 25 23 C25.18 23.27 25.18 23.27 26.09 24.61 C26.56 25.32 27.02 26.02 27.5 26.75 C27.96 27.45 28.43 28.14 28.91 28.86 C30 31 30 31 30 35 C29.34 35 28.68 35 28 35 C28.01 35.61 28.02 36.23 28.04 36.86 C28.04 37.67 28.05 38.48 28.06 39.31 C28.07 40.11 28.09 40.91 28.1 41.74 C28 44 28 44 27 47 C21.38 47.25 21.38 47.25 18 45 C17.03 44.77 16.06 44.55 15.06 44.31 C10.74 42.46 10.11 40.14 8 36 C7.34 35.67 6.68 35.34 6 35 C5.92 35.91 5.84 36.81 5.75 37.75 C4.91 41.4 3.82 42.63 1 45 C-1.49 43.8 -3.68 42.55 -6 41 C-6.66 41 -7.32 41 -8 41 C-8.33 38.69 -8.66 36.38 -9 34 C-9.66 34 -10.32 34 -11 34 C-11.29 25.43 -11.29 25.43 -9 22 C-10.98 22 -12.96 22 -15 22 C-13.49 15.84 -13.49 15.84 -11.88 13.06 C-8.75 11.29 -5.45 11.46 -2 12 C0.5 13.5 0.5 13.5 2 15 C1.67 15.72 1.34 16.44 1 17.19 C-0.01 20.02 -0.17 22.03 0 25 C0.99 22.69 1.98 20.38 3 18 C7.87 19.39 10.3 22.27 13.31 26.12 C13.54 26.41 13.54 26.41 14.69 27.83 C15.8 29.21 16.9 30.61 18 32 C18 28 18 28 15.75 25.5 C15.3 25.09 15.3 25.09 13 23 C11.63 21.7 10.28 20.38 9 19 C9 18.34 9 17.68 9 17 C10.65 16.67 12.3 16.34 14 16 C11.36 15.67 8.72 15.34 6 15 C7.37 11 9.26 8.2 12 5 C5.57 10.29 5.57 10.29 3 13 C1 11.44 1 11.44 -1 9 C-1.51 3.03 -1.51 3.03 0 0 Z " fill="#F0EFE0" transform="translate(75,19)"/>
<path d="M0 0 C1.32 0 2.64 0 4 0 C5.01 1.61 5.01 1.61 5.69 3.75 C5.92 4.45 6.15 5.14 6.39 5.86 C7 8 7 8 7.38 10.24 C7.58 10.82 7.79 11.4 8 12 C9.07 12.12 10.14 12.25 11.25 12.38 C15.18 13.03 15.6 13.19 17.94 16.06 C18.62 17.03 19.3 18 20 19 C20.23 17.93 20.45 16.86 20.69 15.75 C22.16 11.53 23.08 10.09 27 8 C30.69 8.06 30.69 8.06 34 9 C36 12 36 12 35.88 15.5 C35 19 35 19 33.06 20.94 C31 22 31 22 29 22 C28.67 23.32 28.34 24.64 28 26 C30.97 25.34 33.94 24.68 37 24 C37.32 27.5 37.4 29.4 35.44 32.38 C32.11 34.59 29.91 34.51 26 34 C25.34 33.01 24.68 32.02 24 31 C23 32 23 32 22.62 35.88 C22.33 38.29 22.08 39.84 20.94 42 C17.73 43.66 14.52 43.53 11 43 C9.06 41.88 9.06 41.88 8 40 C7.31 36.81 7.31 36.81 7 34 C6.67 34 6.34 34 6 34 C6 32.35 6 30.7 6 29 C5.69 28.97 5.69 28.97 4.12 28.81 C2 28 2 28 0.69 25.75 C-0.07 22.74 0.16 20.96 1 18 C0.7 17.97 0.7 17.97 -0.81 17.81 C-3 17 -3 17 -5 15.06 C-6.41 10.73 -4.95 8.27 -3.18 4.21 C-2 2 -2 2 0 0 Z " fill="#131E30" transform="translate(21,60)"/>
<path d="M0 0 C1.66 0.37 3.32 0.71 5 1 C5.33 0.67 5.66 0.34 6 0 C8.94 -0.25 8.94 -0.25 12 0 C12.66 0.99 13.32 1.98 14 3 C12.89 3.25 11.77 3.49 10.62 3.75 C7 5 7 5 5.56 6.75 C4.86 9.56 4.87 12.12 5 15 C6.98 15 8.96 15 11 15 C10.38 17 10.38 17 9 19 C7 19 5 19 3 19 C0.62 20.56 0.62 20.56 -1 23 C-1.56 26.5 -1.56 26.5 -1 30 C1.12 32.5 1.12 32.5 4 34 C8.29 33.91 10.81 32.82 14 30 C14 32.33 14 34.67 14 37 C13.67 37.16 13.67 37.16 12 38 C11.27 40.31 10.6 42.65 10 45 C9.36 44.2 8.72 43.39 8.06 42.56 C6 40 6 40 5 39 C3.87 38.92 2.73 38.84 1.56 38.75 C0.39 38.5 -0.79 38.25 -2 38 C-3.31 35.69 -3.31 35.69 -4 33 C-4.37 32.32 -4.74 31.64 -5.12 30.94 C-6 29 -6 29 -6 25 C-8.36 25.68 -8.36 25.68 -11 27 C-12.29 29.38 -12.29 29.38 -13.19 32.12 C-14.11 34.88 -14.11 34.88 -15 37 C-15.66 37 -16.32 37 -17 37 C-17.32 27.76 -17.32 27.76 -15.81 24.19 C-15.54 23.47 -15.28 22.74 -15 22 C-15.99 20.33 -16.99 18.66 -18 17 C-18.52 12.31 -18.47 10.02 -16.5 5.75 C-11.79 0.57 -6.98 -2.02 0 0 Z " fill="#0D1628" transform="translate(31,35)"/>
<path d="M0 0 C0.99 0 1.98 0 3 0 C3 2.64 3 5.28 3 8 C3.99 7.67 4.98 7.34 6 7 C6 9.64 6 12.28 6 15 C6.99 14.67 7.98 14.34 9 14 C11.26 15.4 13.02 17.2 15 19 C14.07 21.36 13.07 23.7 12 26 C11.34 26 10.68 26 10 26 C10 26.99 10 27.98 10 29 C7.02 31.43 5 32.91 1.12 33.25 C0.42 33.17 -0.28 33.09 -1 33 C-1 32.34 -1 31.68 -1 31 C-1.66 31 -2.32 31 -3 31 C-3 29.68 -3 28.36 -3 27 C-3.66 27 -4.32 27 -5 27 C-5.33 26.34 -5.66 25.68 -6 25 C-6.99 24.67 -7.98 24.34 -9 24 C-9 23.34 -9 22.68 -9 22 C-10.32 21.67 -11.64 21.34 -13 21 C-12.01 20.67 -11.02 20.34 -10 20 C-10.66 19.34 -11.32 18.68 -12 18 C-12.94 14.69 -12.94 14.69 -13 11 C-10.53 7.6 -8.07 5.91 -4.25 4.38 C-3.71 4.15 -3.71 4.15 -1 3 C-0.67 2.01 -0.34 1.02 0 0 Z " fill="#0C192D" transform="translate(61,45)"/>
<path d="M0 0 C4.07 0.85 5.54 2.3 8 5.62 C8.72 9.46 8.33 11.06 6.38 14.44 C3.43 17.15 2.01 17.79 -2 17.62 C-5.38 15.62 -5.38 15.62 -8 12.62 C-8.69 9.12 -8.69 9.12 -8 5.62 C-5.55 2.24 -4.11 0.86 0 0 Z " fill="#E5E4D7" transform="translate(37,52.375)"/>
<path d="M0 0 C0.66 0.33 1.32 0.66 2 1 C2.85 6.3 2.88 10.68 -0.12 15.19 C-3.51 17.32 -5.07 17.75 -9 17 C-11.44 15.56 -11.44 15.56 -13 13 C-13.33 8.66 -12.7 5.15 -10.44 1.44 C-6.8 -0.71 -4.2 -0.34 0 0 Z " fill="#E9E8DA" transform="translate(30,39)"/>
<path d="M0 0 C0.33 0 0.66 0 1 0 C1.04 0.65 1.04 0.65 1.25 3.94 C1.53 6.13 1.53 6.13 2 8 C3.81 9.31 3.81 9.31 6 9 C8 6.75 8 6.75 10 4 C12.12 2.12 12.12 2.12 14 1 C14.66 1.33 15.32 1.66 16 2 C15.51 2.55 15.01 3.11 14.5 3.68 C14.18 4.04 14.18 4.04 12.56 5.88 C11.92 6.59 11.29 7.31 10.63 8.05 C9 10 9 10 8 12 C13.61 12 19.22 12 25 12 C25 12.33 25 12.66 25 13 C20.38 13.33 15.76 13.66 11 14 C17.14 22.86 17.14 22.86 22 24 C21.34 24.33 20.68 24.66 20 25 C20.66 27.31 21.32 29.62 22 32 C17.83 28.09 14.42 23.77 10.96 19.21 C9 17 9 17 5 15 C4.01 19.62 3.02 24.24 2 29 C1.67 29 1.34 29 1 29 C0.95 27.1 0.91 25.21 0.88 23.31 C0.86 22.78 0.86 22.78 0.8 20.11 C1 16.98 1.67 14.82 3 12 C-0.19 9.87 -2.27 9.5 -6 9 C-6 8.67 -6 8.34 -6 8 C-4.35 8 -2.7 8 -1 8 C-0.67 5.36 -0.34 2.72 0 0 Z " fill="#232630" transform="translate(73,22)"/>
<path d="M0 0 C2.94 0.62 2.94 0.62 5.31 2.75 C7.22 6.12 7.59 7.82 6.94 11.62 C5.38 14 5.38 14 2.94 15.62 C-0.56 16.19 -0.56 16.19 -4.06 15.62 C-6.72 13.24 -7.84 11.61 -8.62 8.12 C-7.56 3.37 -4.69 0.96 0 0 Z " fill="#E6E4D7" transform="translate(33.0625,72.375)"/>
<path d="M0 0 C1.94 1.06 1.94 1.06 3 3 C3.49 6.84 3.47 9.13 1.62 12.56 C-2.12 14.61 -4.78 13.98 -8.84 12.96 C-11 12 -11 12 -12.31 9.19 C-11.96 5.62 -11.18 3.82 -9 1 C-5.95 -0.52 -3.36 -0.24 0 0 Z " fill="#E8E6D9" transform="translate(47,38)"/>
<path d="M0 0 C3.31 0.94 3.31 0.94 5.31 3.94 C5.09 10.04 5.09 10.04 2.62 12.88 C-0.46 14.29 -2.33 14.5 -5.69 13.94 C-8.12 11.75 -8.12 11.75 -9.69 8.94 C-9.77 5.38 -8.94 4.22 -6.56 1.56 C-3.69 -0.06 -3.69 -0.06 0 0 Z " fill="#E4E3D4" transform="translate(51.6875,68.0625)"/>
<path d="M0 0 C2.62 0.38 2.62 0.38 4.5 2.44 C5.95 6.22 5.63 8.48 4.62 12.38 C3.44 14.31 3.44 14.31 1.62 15.38 C-2.45 15.8 -3.91 15.69 -7.38 13.38 C-8.38 10.06 -8.38 10.06 -8.38 6.38 C-6 3.5 -6 3.5 -3.38 1.38 C-2.38 0.38 -2.38 0.38 0 0 Z " fill="#E1E0D5" transform="translate(56.375,49.625)"/>
<path d="M0 0 C1 1 1 1 1.25 4.38 C1 8 1 8 0 9.94 C-3.24 11.66 -6.42 11.53 -10 11 C-12 9.94 -12 9.94 -13 8 C-13.25 4.38 -13.25 4.38 -13 1 C-10.28 -1.72 -3.43 -1.37 0 0 Z " fill="#E5E3D5" transform="translate(42,92)"/>
<path d="M0 0 C0.32 3.5 0.4 5.4 -1.56 8.38 C-4.94 10.63 -7.02 10.65 -11 10 C-13.77 6.78 -14 5.31 -14 1 C-13.69 1.01 -13.69 1.01 -12.14 1.04 C-11.73 1.04 -11.73 1.04 -9.69 1.06 C-8.89 1.07 -8.09 1.09 -7.26 1.1 C-4.68 0.99 -2.58 0 0 0 Z " fill="#EEEEE6" transform="translate(58,84)"/>
<path d="M0 0 C1.01 1.64 1.01 1.64 1.69 3.81 C1.92 4.52 2.15 5.23 2.39 5.96 C2.59 6.63 2.79 7.31 3 8 C3.33 8.99 3.66 9.98 4 11 C-0.37 14.04 -0.37 14.04 -3.19 13.88 C-5 13 -5 13 -7 10 C-7.55 3.85 -7.55 3.85 -5.75 1.06 C-4 0 -4 0 0 0 Z " fill="#EEEDE0" transform="translate(25,60)"/>
<path d="M0 0 C2 1.12 2 1.12 4 3 C4.56 5.88 4.56 5.88 4 9 C1.75 11.88 1.75 11.88 -1 14 C-2.32 14 -3.64 14 -5 14 C-5.73 10.96 -6.24 8.13 -6 5 C-4.24 2.63 -2.55 1.61 0 0 Z " fill="#9C9F9A" transform="translate(66,64)"/>
<path d="M0 0 C2.3 3.44 2.54 5.94 3 10 C2.34 10 1.68 10 1 10 C1 10.99 1 11.98 1 13 C0.34 13 -0.32 13 -1 13 C-1.33 14.65 -1.66 16.3 -2 18 C-2.99 18 -3.98 18 -5 18 C-4.67 14.37 -4.34 10.74 -4 7 C-3.34 7 -2.68 7 -2 7 C-2.02 6.61 -2.02 6.61 -2.12 4.62 C-2 2 -2 2 0 0 Z " fill="#131E30" transform="translate(107,47)"/>
<path d="M0 0 C1.88 0.31 1.88 0.31 4 1 C4.66 1.99 5.32 2.98 6 4 C8.62 5.19 8.62 5.19 11 6 C10.67 6.16 10.67 6.16 9 7 C9.66 9.31 10.32 11.62 11 14 C7.12 10.23 3.2 6.37 0 2 C0 1.34 0 0.68 0 0 Z " fill="#2E3037" transform="translate(84,40)"/>
<path d="M0 0 C0.66 0 1.32 0 2 0 C4.54 3.59 4.57 7.75 5 12 C4.34 12 3.68 12 3 12 C2.67 12.66 2.34 13.32 2 14 C-0.28 10.58 -0.22 9.32 -0.12 5.31 C-0.11 4.32 -0.09 3.32 -0.07 2.3 C-0.05 1.54 -0.02 0.78 0 0 Z " fill="#030C1A" transform="translate(25,89)"/>
<path d="M0 0 C0.29 0.12 0.29 0.12 1.75 0.75 C1.42 2.07 1.09 3.39 0.75 4.75 C0.09 4.75 -0.57 4.75 -1.25 4.75 C-2.38 7.25 -2.38 7.25 -3.25 9.75 C-5.25 6.75 -5.25 6.75 -6.25 3.75 C-3.17 -0.35 -3.17 -0.35 0 0 Z " fill="#141F37" transform="translate(113.25,31.25)"/>
<path d="M0 0 C0.33 3.64 0.42 5.41 -1.75 8.44 C-4 10 -4 10 -6.25 9.75 C-6.54 9.63 -6.54 9.63 -8 9 C-7.01 8.34 -6.02 7.68 -5 7 C-4.81 3.88 -4.81 3.88 -5 1 C-2 0 -2 0 0 0 Z " fill="#999991" transform="translate(58,84)"/>
<path d="M0 0 C0.33 0 0.66 0 1 0 C0.71 3.71 0.42 6.35 -1.62 9.5 C-4 11 -4 11 -7.75 10.75 C-8.29 10.63 -8.29 10.63 -11 10 C-8.95 7.47 -7.51 6.8 -4.38 5.56 C-1 4 -1 4 -0.06 1.81 C-0.04 1.21 -0.02 0.62 0 0 Z " fill="#020B1D" transform="translate(106,60)"/>
</svg>
