<svg xmlns="http://www.w3.org/2000/svg" width="128" height="128" viewBox="0 0 128 128"><path fill="#0f1d2f" d="M57 18h8l1 7 3.38.12c7.74.99 14.56 5.81 19.3 11.89C92.24 42.4 95.4 47.39 95 54l2.55.4 3.33.54 3.3.52C107 56 107 56 109 57v3l-2.74.49c-3.71.85-6.87 1.76-10.26 3.51-1.46 2.73-1.85 5.05-2.34 8.1-1.1 4.84-4.15 8.47-7.66 11.9l-3 1v2c-2.45 1.51-2.45 1.51-5.69 3.12l-3.2 1.64A15.4 15.4 0 0 1 66 93l-.37 2.01C63.76 104.9 63.76 104.9 62 108h-3l-1.5-5.25-.84-2.95C56 97 56 97 56 93l-3.44-.12c-5.52-.69-9.22-3.6-13.56-6.88l-3.19-2.12C31.43 80.12 28.99 74.3 27 69c-.16-2.88-.16-2.88 0-5l-2.77-.62-3.61-.82-3.58-.81C14 61 14 61 12 60l1-3a90 90 0 0 1 6.31-1.5c6.23-1.77 6.23-1.77 8.19-4.89q.89-2.83 1.64-5.73c2.24-7.48 8.07-12.64 14.51-16.68a37 37 0 0 1 7.29-2.7c2.24-.64 2.24-.64 4.06-1.5 1.56-3.19 1.56-3.19 2-6"/><path fill="#0e1d30" d="M60 19h4l1 6 1.72.08c5.75.42 9.66 1.38 14.28 4.92l-.02 2.39c.03 3.37 1.01 4.19 3.33 6.55A33 33 0 0 1 91 49l1.25 2.19C93 53 93 53 92 56l2.5.88L97 58v2q-5.03 1.27-10.06 2.5l-2.86.72c-12.54 3.06-12.54 3.06-17.04.79C64.57 61.7 63.09 60.26 62 57q-1.98-1.02-4-2c-2.31-1.56-2.31-1.56-4-4 0-6.57 1.86-12.84 3.54-19.15A97 97 0 0 0 60 19"/><path fill="#0e1d32" d="M54.74 54.2q2.79 2.43 5.5 4.93l1.98 1.69c3.03 2.76 4.62 4.29 5.35 8.4a193 193 0 0 1-2.94 15.1l-.68 3.03c-1.7 7.4-1.7 7.4-3.95 9.65l-2-8-3.31.69-3.7.3c-1.45-1.3-1.45-1.3-3-3q-2.12-1.36-4.3-2.67c-4.71-3.06-7.66-6.64-10.7-11.32l-2 2-2-1c-.44-2.68-.44-2.68-.68-6l-.26-3.31-.05-2.7 1-1-4-1v-2l11.75-3.05 3.37-.9 3.24-.82 2.98-.78c3.52-.58 5.46-.26 8.4 1.76"/><path fill="#09182c" d="M57 18h8l1 7-2-2v-4h-4l.18 2.77c0 5.51-1.63 10.69-3.06 15.98l-.81 3.15C54.27 48.6 54.27 48.6 52 52c-2.38.89-2.38.89-5.34 1.61l-3.22.79-3.38.79-3.36.82C28.48 58 28.48 58 25 58v2l6 1-3 1 1 10c-2.15-3.23-2.2-4.28-2-8l-2.77-.62-3.61-.82-3.58-.81C14 61 14 61 12 60l1-3a90 90 0 0 1 6.31-1.5c6.23-1.77 6.23-1.77 8.19-4.89q.89-2.83 1.64-5.73c2.24-7.48 8.07-12.64 14.51-16.68a37 37 0 0 1 7.29-2.7c2.24-.64 2.24-.64 4.06-1.5 1.56-3.19 1.56-3.19 2-6"/><path fill="#091426" d="M32 72c2.45 2.38 4.74 4.62 6.69 7.44C42.88 84.08 48.81 87.8 55 89l1-2c3.61 2.4 3.85 3.95 5 8l1-6h2v3h6v-2l-3-1 2.75-1.25c7.09-3.33 12.94-6.66 18.58-12.25C90 74 90 74 92 74l1-2c-.62 3.35-1.83 5.48-3.88 8.19l-1.55 2.1C86 84 86 84 83 85v2c-2.45 1.51-2.45 1.51-5.69 3.12l-3.2 1.64A15.4 15.4 0 0 1 66 93l-.37 2.01C63.76 104.9 63.76 104.9 62 108h-3l-1.5-5.25-.84-2.95C56 97 56 97 56 93l-3.44-.12C47.05 92.19 43.32 89.3 39 86l-1.8-1.33C34 82.17 31.55 79.78 30 76c.81-2.31.81-2.31 2-4"/><path fill="#0c1427" d="M100 18h4c1.55 2.87 2 4.73 2 8l9 3v3l-1.93.45A35 35 0 0 0 106 35c-.88 2.81-.88 2.81-1 6q-1.4 3.05-3 6c-2.28-2.28-2.37-3.31-3.06-6.38-.93-3.05-1.4-4.28-4.14-6-2.49-1-2.49-1-4.94-1.77L88 32v-3l2.15-.41c2.8-.66 5.27-1.32 7.85-2.59 1.06-3.62 1.06-3.62 1-7z"/><path fill="#081324" d="m46 27 2 1c-.36 2.75-.76 3.79-2.89 5.64l-2.36 1.61C36.39 39.97 33.1 45.37 31 53l3 1-1 3c-1.85.51-1.85.51-4.06.69L25 58v2l6 1-3 1 1 10c-2.15-3.23-2.2-4.28-2-8l-2.77-.62-3.61-.82-3.58-.81C14 61 14 61 12 60l1-3a90 90 0 0 1 6.31-1.5c6.23-1.77 6.23-1.77 8.19-4.89q.89-2.83 1.64-5.73c2.32-7.75 8.38-12.71 14.94-16.98z"/><path fill="#f0f1ef" d="M60 20c2.77 4.15 3.49 8.43 4.62 13.25l.7 2.82c2.98 12.55 2.98 12.55.59 16.93L62 57c-3.42-1.46-5.87-2.92-8-6 .42-7.03 1.95-13.73 3.56-20.56l.71-3.06z"/><path fill="#f3f3ef" d="M60 61c2.87 1.29 5.19 2.38 7 5 .49 6.34-.94 12.16-2.38 18.31l-.67 3.04c-1.7 7.4-1.7 7.4-3.95 9.65q-1.55-6.62-3.06-13.25l-.9-3.8-.83-3.65-.77-3.37c-.42-2.82-.52-4.32.56-6.93 2.56-2.75 2.56-2.75 5-5"/><path fill="#f2f2f1" d="m71.45 51.9 2.8.6 3.15.65A889 889 0 0 1 97 58v2q-5.02 1.27-10.07 2.5l-2.85.73C71.4 66.32 71.4 66.32 67 63.9L63 60c1.71-3.98 3.75-7.91 8.45-8.1"/><path fill="#f1f0e7" d="M53 53a62 62 0 0 1 5 5c-1.5 3.83-3.56 5.79-7 8-2.95-.1-2.95-.1-6.18-.92l-3.5-.86-3.63-.97-3.69-.92q-4.52-1.14-9-2.33v-2q5.87-1.55 11.75-3.06l3.37-.9 3.24-.83 2.98-.77c2.71-.45 4.14-.46 6.66.56"/><path fill="#081327" d="M81 31c3.97 2.09 6.18 4.17 8.69 7.88l1.76 2.55C94.03 45.71 95.29 48.96 95 54l2.55.4 3.33.54 3.3.52C107 56 107 56 109 57v3c-8.04 3.26-8.04 3.26-12.06 2.19L95 61l2-1v-2l-5-1v-4a71 71 0 0 0-11-17.34L80 34z"/><path fill="#eaeae2" d="M91 65c-2.39 9.06-5.99 15.39-14.06 20.44A27 27 0 0 1 67 89c.21-2.32.21-2.32 1-5 2.07-1.52 2.07-1.52 4.69-2.81 5.88-3.26 9.47-7.3 12.34-13.37C86.58 64.91 87.75 65 91 65"/><path fill="#eaeae5" d="M68 30c6.85.35 12.29 4.05 16.84 9C88.21 43.35 91 47.35 91 53c-2.32-.21-2.32-.21-5-1-1.52-2.07-1.52-2.07-2.81-4.69-3.21-5.78-7.25-9.72-13.43-12.22L68 34z"/><path fill="#ebeae4" d="M31 65c2.75.5 2.75.5 6 2 1.04 1.7 1.04 1.7 1.94 3.75 2.58 5.91 6.74 9.15 12.5 11.87L54 84v4c-6.85-.35-12.29-4.05-16.84-9C33.79 74.65 31 70.65 31 65"/><path fill="#e7e8e1" d="M54 30c-.64 2.79-1.37 4.55-3.74 6.23l-4.23 2.46c-4.13 2.67-6.5 6.15-8.53 10.62C36 52 36 52 33.31 52.88L31 53c.31-6.13 3.16-10.42 7-15 9.08-8.18 9.08-8.18 16-8"/><path fill="#e7e7de" d="m101 23 2 1 .38 2.44c.62 2.56.62 2.56 2.68 3.87L108 31l-1.88.69c-2.73 1.69-3.17 3.3-4.12 6.31l-2-3q-1.47-1.53-3-3l-2-2 1.88-.69c2.73-1.69 3.17-3.3 4.12-6.31"/><path fill="#020c1e" d="M55 87c2 .69 2 .69 4 2 .44 2.44.44 2.44 0 5-1.5 1.81-1.5 1.81-3 3v-4l-3.88-.38c-3.87-.37-3.87-.37-6.12-2.62 4.43-2.09 4.43-2.09 7.31-1.62L55 89z"/><path fill="#050d1d" d="M22 60c3.38-.12 3.38-.12 7 0l2 2h-3l1 10c-2.15-3.23-2.2-4.28-2-8l-6-1z"/></svg>