<?xml version="1.0" encoding="UTF-8"?>
<!-- Generator: visioncortex VTracer 0.6.12 -->
<svg version="1.1" xmlns="http://www.w3.org/2000/svg" width="128" height="128" viewBox="0 0 128 128" preserveAspectRatio="xMidYMid meet">
<path d="M0 0 C2.64 0 5.28 0 8 0 C8.16 1.16 8.16 1.16 9 7 C9.56 7.02 9.56 7.02 12.38 7.12 C20.12 8.11 26.94 12.93 31.68 19.01 C35.24 24.4 38.4 29.39 38 36 C38.84 36.13 39.69 36.27 40.55 36.4 C41.65 36.58 42.75 36.76 43.88 36.94 C44.97 37.11 46.06 37.29 47.18 37.46 C50 38 50 38 52 39 C52 39.99 52 40.98 52 42 C51.1 42.16 50.19 42.32 49.26 42.49 C45.55 43.34 42.39 44.25 39 46 C37.54 48.73 37.15 51.05 36.66 54.1 C35.56 58.94 32.51 62.57 29 66 C28.5 66.16 28.5 66.16 26 67 C26 67.66 26 68.32 26 69 C23.55 70.51 23.55 70.51 20.31 72.12 C19.26 72.66 18.2 73.2 17.11 73.76 C14.1 74.96 12.2 75.27 9 75 C8.94 75.33 8.94 75.33 8.63 77.01 C6.76 86.9 6.76 86.9 5 90 C4.01 90 3.02 90 2 90 C1.49 88.25 1 86.5 0.5 84.75 C0.22 83.78 -0.06 82.8 -0.34 81.8 C-1 79 -1 79 -1 75 C-2.13 74.96 -3.27 74.92 -4.44 74.88 C-9.96 74.19 -13.66 71.28 -18 68 C-19.05 67.3 -20.1 66.6 -21.19 65.88 C-25.57 62.12 -28.01 56.3 -30 51 C-30.16 48.12 -30.16 48.12 -30 46 C-30.92 45.8 -31.83 45.59 -32.77 45.38 C-33.96 45.11 -35.15 44.84 -36.38 44.56 C-37.56 44.3 -38.74 44.03 -39.96 43.75 C-43 43 -43 43 -45 42 C-44.67 41.01 -44.34 40.02 -44 39 C-41.92 38.42 -39.81 37.93 -37.69 37.5 C-31.46 35.73 -31.46 35.73 -29.5 32.61 C-28.91 30.72 -28.36 28.81 -27.86 26.88 C-25.62 19.4 -19.79 14.24 -13.35 10.2 C-10.94 8.97 -8.66 8.22 -6.06 7.5 C-3.82 6.86 -3.82 6.86 -2 6 C-0.44 2.81 -0.44 2.81 0 0 Z " fill="#0F1D2F" transform="translate(57,18)"/>
<path d="M0 0 C1.32 0 2.64 0 4 0 C4.33 1.98 4.66 3.96 5 6 C5.57 6.03 6.14 6.05 6.72 6.08 C12.47 6.5 16.38 7.46 21 11 C20.99 11.79 20.98 12.58 20.98 13.39 C21.01 16.76 21.99 17.58 24.31 19.94 C27.27 23.11 29.26 25.98 31 30 C31.41 30.72 31.83 31.44 32.25 32.19 C33 34 33 34 32 37 C32.83 37.29 33.65 37.58 34.5 37.88 C35.33 38.25 36.15 38.62 37 39 C37 39.66 37 40.32 37 41 C33.65 41.85 30.29 42.67 26.94 43.5 C25.99 43.74 25.05 43.98 24.08 44.22 C11.54 47.28 11.54 47.28 7.04 45.01 C4.57 42.7 3.09 41.26 2 38 C0.68 37.32 -0.66 36.65 -2 36 C-4.31 34.44 -4.31 34.44 -6 32 C-6 25.43 -4.14 19.16 -2.46 12.85 C-1.33 8.56 -0.55 4.39 0 0 Z " fill="#0E1D30" transform="translate(60,19)"/>
<path d="M0 0 C1.86 1.62 3.69 3.27 5.51 4.93 C5.84 5.21 5.84 5.21 7.48 6.62 C10.51 9.38 12.1 10.91 12.83 15.03 C12.06 20.12 11.06 25.11 9.89 30.12 C9.66 31.12 9.44 32.12 9.21 33.15 C7.52 40.55 7.52 40.55 5.26 42.8 C4.6 40.16 3.94 37.52 3.26 34.8 C2.17 35.03 1.07 35.26 -0.05 35.49 C-0.66 35.54 -0.66 35.54 -3.74 35.8 C-5.2 34.49 -5.2 34.49 -6.74 32.8 C-8.16 31.89 -9.6 30.99 -11.05 30.12 C-15.76 27.06 -18.71 23.48 -21.74 18.8 C-22.4 19.46 -23.06 20.12 -23.74 20.8 C-24.4 20.47 -25.06 20.14 -25.74 19.8 C-26.19 17.12 -26.19 17.12 -26.43 13.8 C-26.51 12.71 -26.6 11.62 -26.69 10.49 C-26.7 10.05 -26.7 10.05 -26.74 7.8 C-26.41 7.47 -26.08 7.14 -25.74 6.8 C-27.06 6.47 -28.38 6.14 -29.74 5.8 C-29.74 5.14 -29.74 4.48 -29.74 3.8 C-25.83 2.77 -21.91 1.75 -17.99 0.74 C-16.88 0.45 -15.77 0.15 -14.62 -0.15 C-13.55 -0.42 -12.48 -0.7 -11.38 -0.98 C-10.4 -1.24 -9.41 -1.49 -8.4 -1.76 C-4.88 -2.34 -2.94 -2.02 0 0 Z " fill="#0E1D32" transform="translate(54.7392578125,54.19580078125)"/>
<path d="M0 0 C2.64 0 5.28 0 8 0 C8.16 1.16 8.16 1.16 9 7 C8.34 6.34 7.68 5.68 7 5 C7 3.68 7 2.36 7 1 C5.68 1 4.36 1 3 1 C3.06 1.91 3.12 2.83 3.18 3.77 C3.18 9.28 1.55 14.46 0.12 19.75 C-0.14 20.79 -0.41 21.83 -0.69 22.9 C-2.73 30.6 -2.73 30.6 -5 34 C-7.38 34.89 -7.38 34.89 -10.34 35.61 C-11.4 35.87 -12.47 36.13 -13.56 36.4 C-14.67 36.66 -15.79 36.92 -16.94 37.19 C-18.05 37.46 -19.16 37.73 -20.3 38.01 C-28.52 40 -28.52 40 -32 40 C-32 40.66 -32 41.32 -32 42 C-30.02 42.33 -28.04 42.66 -26 43 C-26.49 43.16 -26.49 43.16 -29 44 C-28.67 47.3 -28.34 50.6 -28 54 C-30.15 50.77 -30.2 49.72 -30 46 C-30.92 45.8 -31.83 45.59 -32.77 45.38 C-33.96 45.11 -35.15 44.84 -36.38 44.56 C-37.56 44.3 -38.74 44.03 -39.96 43.75 C-43 43 -43 43 -45 42 C-44.67 41.01 -44.34 40.02 -44 39 C-41.92 38.42 -39.81 37.93 -37.69 37.5 C-31.46 35.73 -31.46 35.73 -29.5 32.61 C-28.91 30.72 -28.36 28.81 -27.86 26.88 C-25.62 19.4 -19.79 14.24 -13.35 10.2 C-10.94 8.97 -8.66 8.22 -6.06 7.5 C-3.82 6.86 -3.82 6.86 -2 6 C-0.44 2.81 -0.44 2.81 0 0 Z " fill="#09182C" transform="translate(57,18)"/>
<path d="M0 0 C2.45 2.38 4.74 4.62 6.69 7.44 C10.88 12.08 16.81 15.8 23 17 C23.33 16.34 23.66 15.68 24 15 C27.61 17.4 27.85 18.95 29 23 C29.33 21.02 29.66 19.04 30 17 C30.66 17 31.32 17 32 17 C32 17.99 32 18.98 32 20 C33.98 20 35.96 20 38 20 C38 19.34 38 18.68 38 18 C37.01 17.67 36.02 17.34 35 17 C35.91 16.59 36.81 16.17 37.75 15.75 C44.84 12.42 50.69 9.09 56.33 3.5 C58 2 58 2 60 2 C60.33 1.34 60.66 0.68 61 0 C60.38 3.35 59.17 5.48 57.12 8.19 C56.87 8.53 56.87 8.53 55.57 10.29 C54 12 54 12 51 13 C51 13.66 51 14.32 51 15 C48.55 16.51 48.55 16.51 45.31 18.12 C44.26 18.66 43.2 19.2 42.11 19.76 C39.1 20.96 37.2 21.27 34 21 C33.94 21.33 33.94 21.33 33.63 23.01 C31.76 32.9 31.76 32.9 30 36 C29.01 36 28.02 36 27 36 C26.49 34.25 26 32.5 25.5 30.75 C25.22 29.78 24.94 28.8 24.66 27.8 C24 25 24 25 24 21 C22.87 20.96 21.73 20.92 20.56 20.88 C15.05 20.19 11.32 17.3 7 14 C6.41 13.56 5.81 13.12 5.2 12.67 C2 10.17 -0.45 7.78 -2 4 C-1.19 1.69 -1.19 1.69 0 0 Z " fill="#091426" transform="translate(32,72)"/>
<path d="M0 0 C1.32 0 2.64 0 4 0 C5.55 2.87 6 4.73 6 8 C8.97 8.99 11.94 9.98 15 11 C15 11.99 15 12.98 15 14 C14.36 14.15 13.72 14.29 13.07 14.45 C10.56 15.12 8.31 15.83 6 17 C5.12 19.81 5.12 19.81 5 23 C4.06 25.03 3.07 27.04 2 29 C-0.28 26.72 -0.37 25.69 -1.06 22.62 C-1.99 19.57 -2.46 18.34 -5.2 16.62 C-7.69 15.62 -7.69 15.62 -10.14 14.85 C-10.44 14.71 -10.44 14.71 -12 14 C-12 13.01 -12 12.02 -12 11 C-11.29 10.86 -10.58 10.73 -9.85 10.59 C-7.05 9.93 -4.58 9.27 -2 8 C-0.94 4.38 -0.94 4.38 -1 1 C-0.67 0.67 -0.34 0.34 0 0 Z " fill="#0C1427" transform="translate(100,18)"/>
<path d="M0 0 C0.66 0.33 1.32 0.66 2 1 C1.64 3.75 1.24 4.79 -0.89 6.64 C-1.67 7.17 -2.45 7.7 -3.25 8.25 C-9.61 12.97 -12.9 18.37 -15 26 C-14.01 26.33 -13.02 26.66 -12 27 C-12.33 27.99 -12.66 28.98 -13 30 C-14.85 30.51 -14.85 30.51 -17.06 30.69 C-18.36 30.79 -19.66 30.89 -21 31 C-21 31.66 -21 32.32 -21 33 C-19.02 33.33 -17.04 33.66 -15 34 C-15.49 34.16 -15.49 34.16 -18 35 C-17.67 38.3 -17.34 41.6 -17 45 C-19.15 41.77 -19.2 40.72 -19 37 C-19.92 36.8 -20.83 36.59 -21.77 36.38 C-22.96 36.11 -24.15 35.84 -25.38 35.56 C-26.56 35.3 -27.74 35.03 -28.96 34.75 C-32 34 -32 34 -34 33 C-33.67 32.01 -33.34 31.02 -33 30 C-30.92 29.42 -28.81 28.93 -26.69 28.5 C-20.46 26.73 -20.46 26.73 -18.5 23.61 C-17.91 21.72 -17.36 19.81 -16.86 17.88 C-14.54 10.13 -8.48 5.17 -1.92 0.9 C-1.29 0.6 -0.65 0.31 0 0 Z " fill="#081324" transform="translate(46,27)"/>
<path d="M0 0 C2.77 4.15 3.49 8.43 4.62 13.25 C4.85 14.18 5.08 15.11 5.32 16.07 C8.3 28.62 8.3 28.62 5.91 33 C4.6 34.33 3.3 35.67 2 37 C-1.42 35.54 -3.87 34.08 -6 31 C-5.58 23.97 -4.05 17.27 -2.44 10.44 C-2.2 9.43 -1.97 8.42 -1.73 7.38 C-1.16 4.92 -0.58 2.46 0 0 Z " fill="#F0F1EF" transform="translate(60,20)"/>
<path d="M0 0 C2.87 1.29 5.19 2.38 7 5 C7.49 11.34 6.06 17.16 4.62 23.31 C4.4 24.31 4.18 25.31 3.95 26.35 C2.25 33.75 2.25 33.75 0 36 C-1.04 31.59 -2.05 27.17 -3.06 22.75 C-3.36 21.5 -3.65 20.24 -3.96 18.95 C-4.23 17.74 -4.5 16.54 -4.79 15.3 C-5.04 14.19 -5.3 13.08 -5.56 11.93 C-5.98 9.11 -6.08 7.61 -5 5 C-2.44 2.25 -2.44 2.25 0 0 Z " fill="#F3F3EF" transform="translate(60,61)"/>
<path d="M0 0 C0.92 0.2 1.85 0.39 2.8 0.59 C3.84 0.81 4.88 1.02 5.95 1.24 C12.5 2.79 19.03 4.39 25.55 6.09 C25.55 6.75 25.55 7.41 25.55 8.09 C22.2 8.94 18.84 9.77 15.48 10.59 C14.54 10.83 13.6 11.07 12.63 11.32 C-0.05 14.41 -0.05 14.41 -4.45 12 C-5.78 10.7 -7.12 9.4 -8.45 8.09 C-6.74 4.11 -4.7 0.18 0 0 Z " fill="#F2F2F1" transform="translate(71.453125,51.90625)"/>
<path d="M0 0 C2.75 2.56 2.75 2.56 5 5 C3.5 8.83 1.44 10.79 -2 13 C-4.95 12.9 -4.95 12.9 -8.18 12.08 C-9.33 11.79 -10.49 11.51 -11.68 11.22 C-12.88 10.9 -14.08 10.58 -15.31 10.25 C-16.53 9.95 -17.75 9.64 -19 9.33 C-22.01 8.57 -25.01 7.8 -28 7 C-28 6.34 -28 5.68 -28 5 C-24.09 3.96 -20.17 2.95 -16.25 1.94 C-15.14 1.64 -14.03 1.35 -12.88 1.04 C-11.81 0.77 -10.74 0.5 -9.64 0.21 C-8.66 -0.04 -7.67 -0.3 -6.66 -0.56 C-3.95 -1.01 -2.52 -1.02 0 0 Z " fill="#F1F0E7" transform="translate(53,53)"/>
<path d="M0 0 C3.97 2.09 6.18 4.17 8.69 7.88 C9.27 8.72 9.85 9.56 10.45 10.43 C13.03 14.71 14.29 17.96 14 23 C14.84 23.13 15.69 23.27 16.55 23.4 C17.65 23.58 18.75 23.76 19.88 23.94 C20.97 24.11 22.06 24.29 23.18 24.46 C26 25 26 25 28 26 C28 26.99 28 27.98 28 29 C19.96 32.26 19.96 32.26 15.94 31.19 C15.3 30.8 14.66 30.4 14 30 C14.66 29.67 15.32 29.34 16 29 C16 28.34 16 27.68 16 27 C14.35 26.67 12.7 26.34 11 26 C11 24.68 11 23.36 11 22 C8.22 15.64 4.47 9.95 0 4.66 C-0.33 4.11 -0.66 3.56 -1 3 C-0.67 2.01 -0.34 1.02 0 0 Z " fill="#081327" transform="translate(81,31)"/>
<path d="M0 0 C-2.39 9.06 -5.99 15.39 -14.06 20.44 C-17.37 22.36 -20.21 23.41 -24 24 C-23.79 21.68 -23.79 21.68 -23 19 C-20.93 17.48 -20.93 17.48 -18.31 16.19 C-12.43 12.93 -8.84 8.89 -5.97 2.82 C-4.42 -0.09 -3.25 0 0 0 Z " fill="#EAEAE2" transform="translate(91,65)"/>
<path d="M0 0 C6.85 0.35 12.29 4.05 16.84 9 C20.21 13.35 23 17.35 23 23 C20.68 22.79 20.68 22.79 18 22 C16.48 19.93 16.48 19.93 15.19 17.31 C11.98 11.53 7.94 7.59 1.76 5.09 C1.47 4.91 1.47 4.91 0 4 C0 2.68 0 1.36 0 0 Z " fill="#EAEAE5" transform="translate(68,30)"/>
<path d="M0 0 C2.75 0.5 2.75 0.5 6 2 C7.04 3.7 7.04 3.7 7.94 5.75 C10.52 11.66 14.68 14.9 20.44 17.62 C21.28 18.08 22.13 18.53 23 19 C23 20.32 23 21.64 23 23 C16.15 22.65 10.71 18.95 6.16 14 C2.79 9.65 0 5.65 0 0 Z " fill="#EBEAE4" transform="translate(31,65)"/>
<path d="M0 0 C-0.64 2.79 -1.37 4.55 -3.74 6.23 C-5.15 7.05 -6.56 7.87 -7.97 8.69 C-12.1 11.36 -14.47 14.84 -16.5 19.31 C-18 22 -18 22 -20.69 22.88 C-21.45 22.92 -22.21 22.96 -23 23 C-22.69 16.87 -19.84 12.58 -16 8 C-6.92 -0.18 -6.92 -0.18 0 0 Z " fill="#E7E8E1" transform="translate(54,30)"/>
<path d="M0 0 C0.66 0.33 1.32 0.66 2 1 C2.12 1.8 2.25 2.61 2.38 3.44 C3 6 3 6 5.06 7.31 C5.7 7.54 6.34 7.77 7 8 C6.69 8.11 6.69 8.11 5.12 8.69 C2.39 10.38 1.95 11.99 1 15 C0.34 14.01 -0.32 13.02 -1 12 C-1.98 10.98 -2.98 9.98 -4 9 C-4.66 8.34 -5.32 7.68 -6 7 C-5.69 6.89 -5.69 6.89 -4.12 6.31 C-1.39 4.62 -0.95 3.01 0 0 Z " fill="#E7E7DE" transform="translate(101,23)"/>
<path d="M0 0 C2 0.69 2 0.69 4 2 C4.44 4.44 4.44 4.44 4 7 C2.5 8.81 2.5 8.81 1 10 C1 8.68 1 7.36 1 6 C0.36 5.94 0.36 5.94 -2.88 5.62 C-6.75 5.25 -6.75 5.25 -9 3 C-4.57 0.91 -4.57 0.91 -1.69 1.38 C-1.13 1.58 -0.57 1.79 0 2 C0 1.34 0 0.68 0 0 Z " fill="#020C1E" transform="translate(55,87)"/>
<path d="M0 0 C3.38 -0.12 3.38 -0.12 7 0 C7.66 0.66 8.32 1.32 9 2 C8.01 2 7.02 2 6 2 C6.33 5.3 6.66 8.6 7 12 C4.85 8.77 4.8 7.72 5 4 C4.01 3.84 4.01 3.84 -1 3 C-0.67 2.01 -0.34 1.02 0 0 Z " fill="#050D1D" transform="translate(22,60)"/>
</svg>
