<svg xmlns="http://www.w3.org/2000/svg" width="128" height="128" viewBox="0 0 128 128">
  <path fill="#0e1530" d="M12 73 31 40l8 8 24-25-4 22 15-13 12 20 7-10 28 31-29-15c-13-3-32-5-47-2-14 3-19 8-15 14 4 5 20 8 34 12-16 9-37 18-51 26h88c-1-13-10-23-27-30-10-4-21-6-31-9 7-3 20-5 34-5l-4-12-17-1-21 10-8-5z"/>
  <path fill="#fcf9e4" d="M19 64 34 39l7 7 20-20-5 19 15-11 10 20 10-10 23 23-22-11-8-9-5 8-8-11-6 8-11-3 5-10-17 14-3-8-12 13-5-6z"/>
  <path fill="#fcf9e4" d="M16 102c14-8 35-17 50-26-14-4-31-7-34-13-2-5 9-9 35-9 11 0 17 1 21 3-32 1-50 5-50 9 0 4 15 6 28 10 16 4 26 13 27 23l-2 4z"/>
  <path fill="#0e1530" d="M42 61c9-3 25-5 46-4-17 2-36 5-45 8zM70 75c14 5 22 13 23 23-4-8-13-15-27-20zM75 84l5 2-12 8-5-1zM65 94l-14 9h-8l17-11z"/>
  <path fill="#939392" d="M38 64c6 2 14 3 23 6l-6 2c-10-3-20-5-22-9 0-2 5-4 13-5zM72 56c8 0 16 1 23 4l4 4c-9-3-18-5-28-6zM84 48l8 6-6 1-4-5-4 5-5 1z"/>
  <path fill="#0e1530" d="M56 64c-5-1-10-1-14 0 3 2 9 3 16 5zM67 70l-9-3-4 2 10 3z"/>
  <path fill="#939392" d="M63 25 59 43l6-7 7-4z"/>
</svg>