<?xml version="1.0" encoding="UTF-8"?>
<!-- Generator: visioncortex VTracer 0.6.12 -->
<svg version="1.1" xmlns="http://www.w3.org/2000/svg" width="128" height="128" viewBox="0 0 128 128" preserveAspectRatio="xMidYMid meet">
<path d="M0 0 C0.49 0 0.49 0 2.96 0 C5.64 0.12 8.03 0.31 10.62 1 C12.91 3.56 12.91 3.56 14.62 6 C16.62 6.03 18.63 6.03 20.62 6 C22.71 7.8 22.71 7.8 24.56 10.31 C25.24 11.22 25.91 12.14 26.61 13.07 C31.11 19.59 35.36 26.11 38.78 33.27 C39.92 35.6 41.25 37.8 42.62 40 C39.1 40 38.58 39.41 35.94 37.25 C32.03 34.19 28.12 32.09 23.62 30 C23.62 30.66 23.62 31.32 23.62 32 C23.04 32.1 22.45 32.2 21.85 32.31 C15.04 33.57 8.57 35.47 2 37.62 C1.5 37.79 1.5 37.79 -1.04 38.61 C-3.49 39.4 -5.93 40.2 -8.38 41 C-7.19 41.33 -6 41.66 -4.78 42 C11.64 46.74 25.25 52.9 36.62 66 C33.63 67 33.63 67 31.8 66.22 C30.08 65.15 28.35 64.07 26.62 63 C27 63.55 27.37 64.11 27.75 64.68 C28.23 65.4 28.7 66.13 29.19 66.88 C29.66 67.59 30.14 68.31 30.63 69.05 C30.96 69.7 31.29 70.34 31.62 71 C31.3 71.66 30.97 72.32 30.62 73 C28.31 72.01 26 71.02 23.62 70 C23.79 71.32 23.79 71.32 24.62 78 C22.31 77.67 20 77.34 17.62 77 C17.62 78.65 17.62 80.3 17.62 82 C12.8 82.78 8.19 83.12 3.31 83.11 C2.62 83.11 1.93 83.11 1.21 83.11 C-1.06 83.11 -3.32 83.11 -5.59 83.1 C-7.17 83.1 -8.75 83.09 -10.34 83.09 C-14.48 83.09 -18.62 83.08 -22.77 83.07 C-27.01 83.06 -31.24 83.05 -35.48 83.05 C-43.78 83.04 -52.08 83.02 -60.38 83 C-60.47 80.6 -60.47 80.6 -60.38 78 C-53.97 71.13 -42.75 68.25 -34.27 64.88 C-33.14 64.42 -32.01 63.96 -30.84 63.49 C-29.82 63.08 -28.79 62.67 -27.73 62.26 C-25.38 61 -25.38 61 -24.38 58 C-24.78 57.84 -24.78 57.84 -26.82 57.05 C-27.89 56.62 -28.96 56.19 -30.06 55.75 C-31.12 55.33 -32.17 54.91 -33.26 54.48 C-36.44 52.97 -38.82 51.41 -41.38 49 C-42.19 45.75 -42.19 45.75 -42.38 43 C-43.36 43.66 -44.36 44.32 -45.38 45 C-46.45 45.27 -47.52 45.54 -48.62 45.81 C-53.06 47.22 -55.67 49.24 -59.38 52 C-60.03 52 -60.7 52 -61.38 52 C-60.84 46.99 -58.48 43.51 -55.81 39.38 C-55.36 38.67 -54.91 37.96 -54.45 37.23 C-50.65 31.31 -46.62 25.61 -42.38 20 C-41.76 19.13 -41.14 18.26 -40.5 17.36 C-39.9 16.54 -39.3 15.72 -38.69 14.88 C-38.17 14.15 -37.65 13.43 -37.11 12.68 C-34.9 10.54 -33.42 10.16 -30.38 10 C-29.95 10.34 -29.95 10.34 -27.81 12.06 C-27.01 12.7 -26.2 13.34 -25.38 14 C-21.22 12.85 -19.83 9.78 -17.5 6.38 C-12.3 0.4 -7.75 -0.03 0 0 Z " fill="#E7E5D7" transform="translate(73.375,21)"/>
<path d="M0 0 C0.49 0 0.49 0 2.96 0 C5.64 0.12 8.03 0.31 10.62 1 C12.91 3.56 12.91 3.56 14.62 6 C16.62 6.03 18.63 6.03 20.62 6 C22.71 7.8 22.71 7.8 24.56 10.31 C25.24 11.22 25.91 12.14 26.61 13.07 C31.11 19.59 35.36 26.11 38.78 33.27 C39.92 35.6 41.25 37.8 42.62 40 C39.1 40 38.58 39.41 35.94 37.25 C32.03 34.19 28.12 32.09 23.62 30 C23.62 30.66 23.62 31.32 23.62 32 C23.04 32.1 22.45 32.2 21.85 32.31 C15.04 33.57 8.57 35.47 2 37.62 C1.5 37.79 1.5 37.79 -1.04 38.61 C-3.49 39.4 -5.93 40.2 -8.38 41 C-7.19 41.33 -6 41.66 -4.78 42 C11.64 46.74 25.25 52.9 36.62 66 C33.63 67 33.63 67 31.8 66.22 C30.08 65.15 28.35 64.07 26.62 63 C27 63.55 27.37 64.11 27.75 64.68 C28.23 65.4 28.7 66.13 29.19 66.88 C29.66 67.59 30.14 68.31 30.63 69.05 C30.96 69.7 31.29 70.34 31.62 71 C31.3 71.66 30.97 72.32 30.62 73 C28.31 72.01 26 71.02 23.62 70 C23.79 71.32 23.79 71.32 24.62 78 C22.31 77.67 20 77.34 17.62 77 C17.62 78.65 17.62 80.3 17.62 82 C11.6 83.07 5.74 83.1 -0.38 83 C2.54 79.9 5.6 77.57 9.12 75.19 C13.81 71.81 16.64 69.46 18.62 64 C18.88 60.37 18.88 60.37 17.62 57 C10.48 49.65 -3.92 47.2 -13.52 44.87 C-15.95 43.73 -16.43 42.45 -17.38 40 C-13.67 36.6 -9.49 35.7 -4.75 34.44 C3.36 32.26 3.36 32.26 5.62 30 C1 28.68 -3.62 27.36 -8.38 26 C-8.38 24.68 -8.38 23.36 -8.38 22 C-6.88 20.65 -6.88 20.65 -4.94 19.38 C-2.45 17.43 -1.5 16.48 -0.69 13.39 C-0.46 10.91 -0.34 8.49 -0.38 6 C3.4 6.57 5.25 8.17 7.94 10.81 C8.66 11.5 9.37 12.19 10.11 12.89 C11.62 15 11.62 15 11.45 17.15 C10.51 19.27 9.36 20.49 7.62 22 C10.27 21.34 12.91 20.68 15.62 20 C15.3 21.98 14.97 23.96 14.62 26 C15.07 25.6 15.52 25.21 15.98 24.8 C17.82 23.31 19.5 22.04 21.62 21 C24.38 22.06 24.38 22.06 26.62 24 C27.61 24.66 28.61 25.32 29.62 26 C29.26 25.51 29.26 25.51 27.44 23.01 C26.5 21.71 25.56 20.42 24.62 19.12 C24.15 18.47 23.67 17.82 23.18 17.15 C19.62 12.23 19.62 12.23 19.62 10 C19.03 10.52 18.43 11.03 17.81 11.56 C17.09 12.04 16.37 12.51 15.62 13 C12.62 12 12.62 12 11.51 9.93 C11.12 9.11 10.72 8.29 10.31 7.44 C8.25 4.25 7.16 3.17 3.51 1.98 C-1.03 1.61 -5.12 1.43 -9.01 4.14 C-12.6 7.38 -15.43 11.18 -18.38 15 C-19.99 16.73 -21.67 18.36 -23.38 20 C-25.63 18.95 -27.52 17.89 -29.5 16.38 C-31.38 15 -31.38 15 -33.38 15 C-34.76 16.68 -34.76 16.68 -36.34 19.02 C-36.91 19.85 -37.49 20.69 -38.07 21.56 C-38.37 22 -38.37 22 -39.88 24.25 C-40.17 24.69 -40.17 24.69 -41.68 26.89 C-44.13 30.52 -46.5 34.04 -48.38 38 C-42.51 34.56 -38.32 31.25 -34.57 25.54 C-34.17 25.03 -33.78 24.52 -33.38 24 C-32.72 24 -32.05 24 -31.38 24 C-31.05 25.65 -30.72 27.3 -30.38 29 C-25.29 25.71 -20.58 22.08 -15.88 18.27 C-14.42 17.12 -12.9 16.05 -11.38 15 C-10.72 15.33 -10.05 15.66 -9.38 16 C-9.87 16.91 -10.37 17.81 -10.88 18.75 C-12.38 22 -12.38 22 -12.38 26 C-10.19 27.27 -10.19 27.27 -7.38 28.25 C-6.45 28.59 -5.52 28.92 -4.56 29.27 C-3.84 29.51 -3.12 29.75 -2.38 30 C-5.23 32.86 -8.47 32.81 -12.31 33.38 C-30.66 36.35 -30.66 36.35 -36.38 42 C-36.91 44.53 -36.91 44.53 -36.38 47 C-34.47 48.44 -34.47 48.44 -31.88 49.56 C-31.42 49.77 -31.42 49.77 -29.13 50.82 C-27.41 51.56 -25.69 52.29 -23.96 53.03 C-20.81 54.45 -18.72 55.44 -16.88 58.44 C-17.38 61 -17.38 61 -20.52 63.24 C-26.63 66.89 -33.15 69.74 -39.62 72.69 C-41.53 73.56 -43.43 74.43 -45.33 75.31 C-47.05 76.09 -48.76 76.88 -50.48 77.66 C-51.43 78.1 -52.39 78.54 -53.38 79 C-53.76 79.17 -53.76 79.17 -55.7 80.05 C-57.38 81 -57.38 81 -58.38 83 C-59.03 83 -59.7 83 -60.38 83 C-60.6 80.68 -60.6 80.68 -60.38 78 C-53.97 71.13 -42.75 68.25 -34.27 64.88 C-33.14 64.42 -32.01 63.96 -30.84 63.49 C-29.82 63.08 -28.79 62.67 -27.73 62.26 C-25.38 61 -25.38 61 -24.38 58 C-24.78 57.84 -24.78 57.84 -26.82 57.05 C-27.89 56.62 -28.96 56.19 -30.06 55.75 C-31.12 55.33 -32.17 54.91 -33.26 54.48 C-36.44 52.97 -38.82 51.41 -41.38 49 C-42.19 45.75 -42.19 45.75 -42.38 43 C-43.36 43.66 -44.36 44.32 -45.38 45 C-46.45 45.27 -47.52 45.54 -48.62 45.81 C-53.06 47.22 -55.67 49.24 -59.38 52 C-60.03 52 -60.7 52 -61.38 52 C-60.84 46.99 -58.48 43.51 -55.81 39.38 C-55.36 38.67 -54.91 37.96 -54.45 37.23 C-50.65 31.31 -46.62 25.61 -42.38 20 C-41.76 19.13 -41.14 18.26 -40.5 17.36 C-39.9 16.54 -39.3 15.72 -38.69 14.88 C-38.17 14.15 -37.65 13.43 -37.11 12.68 C-34.9 10.54 -33.42 10.16 -30.38 10 C-29.95 10.34 -29.95 10.34 -27.81 12.06 C-27.01 12.7 -26.2 13.34 -25.38 14 C-21.22 12.85 -19.83 9.78 -17.5 6.38 C-12.3 0.4 -7.75 -0.03 0 0 Z " fill="#09172A" transform="translate(73.375,21)"/>
<path d="M0 0 C9.58 -0.26 9.58 -0.26 13.27 3.09 C15.01 5.6 16.48 8.08 17.79 10.84 C19.77 10.18 21.75 9.52 23.79 8.84 C27.42 14.12 31.05 19.4 34.79 24.84 C31.79 24.84 31.79 24.84 29.42 22.65 C28.55 22.05 27.69 21.46 26.79 20.84 C24.23 21.96 24.23 21.96 21.79 23.84 C20.47 24.52 19.14 25.19 17.79 25.84 C18.67 21.09 18.67 21.09 19.79 18.84 C16.82 19.83 13.85 20.82 10.79 21.84 C12.79 17.84 12.79 17.84 14.79 16.84 C14.22 13.3 12.97 11.63 10.42 9.15 C10.12 8.85 10.12 8.85 8.58 7.33 C6.79 5.84 6.79 5.84 3.79 4.84 C3.85 5.15 3.85 5.15 4.11 6.75 C4.39 9.67 4.41 11.96 3.79 14.84 C1.69 17.38 -0.52 19.25 -3.14 21.25 C-5.21 22.84 -5.21 22.84 -6.21 24.84 C-7.2 24.84 -8.19 24.84 -9.21 24.84 C-8.67 21.46 -8.06 18.15 -7.21 14.84 C-8.16 15.61 -9.11 16.38 -10.09 17.18 C-11.36 18.19 -12.63 19.2 -13.89 20.21 C-14.52 20.72 -15.15 21.23 -15.79 21.75 C-19.13 24.41 -22.08 26.53 -26.21 27.84 C-26.37 27.01 -26.37 27.01 -27.21 22.84 C-27.93 23.56 -28.65 24.28 -29.39 25.03 C-30.32 25.96 -31.25 26.88 -32.21 27.84 C-32.6 28.25 -32.6 28.25 -34.58 30.34 C-37.64 33.25 -40.65 35.56 -44.21 37.84 C-44.87 37.51 -45.53 37.18 -46.21 36.84 C-45.57 35.95 -44.93 35.05 -44.27 34.13 C-39.21 27.06 -34.17 19.98 -29.21 12.84 C-26.9 13.94 -25.14 14.89 -23.21 16.59 C-22.55 17 -21.89 17.41 -21.21 17.84 C-17.4 16.53 -14.98 13.85 -12.21 11.03 C-11.36 10.18 -10.52 9.32 -9.64 8.45 C-7.21 5.84 -7.21 5.84 -5.32 3.07 C-3.21 0.84 -3.21 0.84 0 0 Z " fill="#EFEEE6" transform="translate(69.20703125,22.16015625)"/>
<path d="M0 0 C-0.33 0.16 -0.33 0.16 -2 1 C-1.34 1 -0.68 1 0 1 C-0.33 1.99 -0.66 2.98 -1 4 C-1.85 4.31 -2.69 4.62 -3.56 4.94 C-3.96 5.11 -3.96 5.11 -6 6 C-6 7.32 -6 8.64 -6 10 C-6.99 10 -7.98 10 -9 10 C-8.96 8.89 -8.92 7.77 -8.88 6.62 C-9 3 -9 3 -11 1 C-3.57 -1.43 -3.57 -1.43 0 0 Z " fill="#939392" transform="translate(56,56)"/>
<path d="M0 0 C2.5 0.81 2.5 0.81 5 2 C5 2.99 5 3.98 5 5 C5.99 5 6.98 5 8 5 C8.33 5.99 8.66 6.98 9 8 C8.34 8.33 8.34 8.33 5 10 C4.16 8.9 3.33 7.8 2.5 6.69 C2.04 6.07 1.57 5.46 1.09 4.82 C0 3 0 3 0 0 Z " fill="#152037" transform="translate(82,24)"/>
</svg>
