<svg xmlns="http://www.w3.org/2000/svg" width="128" height="128" viewBox="0 0 128 128">
  <path fill="#0e1530" d="M4 112 36 24l16 30 12-12 28-28 32 98z"/>
  <path fill="#fcf9e4" d="M36 38 26 66l6-4 6 4 6-6 6 4 6-8z"/>
  <path fill="#fcf9e4" d="M92 22 80 56l6-4 8 6 6-6 8 4 4-6z"/>
  <path fill="#939392" d="M36 38 30 54l4-2 6 4 4-4 4 2 6-6z"/>
  <path fill="#939392" d="M92 22 84 44l4-2 6 4 4-4 6 2 4-4z"/>
  <path fill="#0e1530" d="M58 50c8 4 8 14 0 22s-8 18 0 24-8 14-12 18h28c-8-6 0-14 6-22s-2-16-10-22 0-14 6-20z"/>
  <path fill="#fcf9e4" d="M60 54c6 4 4 14-2 20s-2 18 4 24-4 12-8 16h20c-4-6 4-12 8-20s-2-14-8-20 4-14 6-20z"/>
</svg>