<svg xmlns="http://www.w3.org/2000/svg" width="128" height="128" viewBox="0 0 128 128"><path fill="#e7e5d7" d="M73.38 21h2.95c2.69.12 5.08.31 7.67 1a36 36 0 0 1 4 5q3 .05 6 0c2.09 1.8 2.09 1.8 3.94 4.31l2.05 2.76c4.5 6.52 8.75 13.04 12.17 20.2A76 76 0 0 0 116 61c-3.53 0-4.05-.59-6.69-2.75-3.9-3.06-7.81-5.16-12.31-7.25v2l-1.78.31a153 153 0 0 0-19.84 5.31l-3.05.99L65 62l3.6 1c16.42 4.74 30.03 10.9 41.4 24-3 1-3 1-4.83.22L100 84l1.13 1.68 1.44 2.2 1.44 2.17.98 1.95q-.46.98-1 2l-7-3 1 8-7-1v5a87 87 0 0 1-14.3 1.11h-2.1l-6.8-.01-4.76-.01-12.42-.02-12.71-.02L13 104c-.1-2.4-.1-2.4 0-5 6.4-6.87 17.63-9.75 26.1-13.12l3.43-1.39 3.11-1.23C48 82 48 82 49 79l-2.45-.95-3.23-1.3-3.2-1.27A30 30 0 0 1 32 70c-.81-3.25-.81-3.25-1-6l-3 2-3.24.81C20.3 68.22 17.7 70.24 13.99 73h-2c.54-5.01 2.9-8.49 5.57-12.62l1.36-2.15A279 279 0 0 1 31 41l1.89-2.64 1.8-2.48 1.59-2.2c2.2-2.14 3.68-2.52 6.73-2.68l2.56 2.06L48 35c4.16-1.15 5.55-4.22 7.88-7.62 5.2-5.98 9.74-6.41 17.5-6.38"/><path fill="#09172a" d="M73.38 21h2.95c2.69.12 5.08.31 7.67 1a36 36 0 0 1 4 5q3 .05 6 0c2.09 1.8 2.09 1.8 3.94 4.31l2.05 2.76c4.5 6.52 8.75 13.04 12.17 20.2A76 76 0 0 0 116 61c-3.53 0-4.05-.59-6.69-2.75-3.9-3.06-7.81-5.16-12.31-7.25v2l-1.78.31a153 153 0 0 0-19.84 5.31l-3.05.99L65 62l3.6 1c16.42 4.74 30.03 10.9 41.4 24-3 1-3 1-4.83.22L100 84l1.13 1.68 1.44 2.2 1.44 2.17.98 1.95q-.46.98-1 2l-7-3 1 8-7-1v5c-6.01 1.07-11.87 1.1-18 1a54 54 0 0 1 9.5-7.81c4.7-3.38 7.53-5.73 9.5-11.19.27-3.63.27-3.63-1-7-7.13-7.35-21.53-9.8-31.13-12.13-2.44-1.14-2.91-2.42-3.86-4.87 3.7-3.4 7.88-4.3 12.63-5.56 8.1-2.18 8.1-2.18 10.37-4.44l-14-4v-4c1.5-1.35 1.5-1.35 3.44-2.62 2.48-1.95 3.44-2.9 4.25-5.99.23-2.48.34-4.9.3-7.39 3.79.57 5.64 2.17 8.33 4.81l2.17 2.08c1.5 2.11 1.5 2.11 1.34 4.26-.94 2.12-2.1 3.34-3.83 4.85l8-2-1 6 1.36-1.2A29 29 0 0 1 95 42c2.75 1.06 2.75 1.06 5 3l3 2-2.19-2.99L98 40.12l-1.44-1.97C93 33.23 93 33.23 93 31l-1.81 1.56-2.2 1.44c-3-1-3-1-4.1-3.07l-1.2-2.49c-2.06-3.19-3.16-4.27-6.8-5.46-4.55-.37-8.64-.55-12.53 2.16-3.59 3.24-6.4 7.04-9.36 10.86a124 124 0 0 1-5 5 32 32 0 0 1-6.12-3.62C42 36 42 36 39.99 36c-1.37 1.68-1.37 1.68-2.96 4.02l-1.73 2.54-1.8 2.69-1.8 2.64C29.24 51.52 26.88 55.04 25 59c5.87-3.44 10.06-6.75 13.8-12.46L40 45h2l1 5c5.09-3.29 9.8-6.92 14.5-10.73A89 89 0 0 1 62 36l2 1q-.75 1.35-1.5 2.75C61 43 61 43 61 47a19 19 0 0 0 5 2.25l2.81 1.02L71 51c-2.86 2.86-6.1 2.81-9.94 3.38C42.72 57.35 42.72 57.35 37 63c-.52 2.53-.52 2.53 0 5 1.91 1.44 1.91 1.44 4.5 2.56l2.76 1.26 5.16 2.21c3.16 1.42 5.25 2.41 7.09 5.41C56 82 56 82 52.86 84.24c-6.11 3.65-12.63 6.5-19.1 9.45l-5.71 2.62-5.15 2.35L20 100l-2.33 1.05C16 102 16 102 15 104h-2c-.22-2.32-.22-2.32 0-5 6.42-6.87 17.63-9.75 26.11-13.12l3.43-1.39 3.11-1.23C48 82 48 82 49 79l-2.45-.95-3.23-1.3-3.2-1.27A30 30 0 0 1 32 70c-.81-3.25-.81-3.25-1-6l-3 2-3.24.81C20.3 68.22 17.7 70.24 13.99 73h-2c.54-5.01 2.9-8.49 5.57-12.62l1.36-2.15A279 279 0 0 1 31 41l1.89-2.64 1.8-2.48 1.59-2.2c2.2-2.14 3.68-2.52 6.73-2.68l2.56 2.06L48 35c4.16-1.15 5.55-4.22 7.88-7.62 5.2-5.98 9.74-6.41 17.5-6.38"/><path fill="#efeee6" d="M69.2 22.16c9.59-.26 9.59-.26 13.28 3.09A54 54 0 0 1 87 33l6-2 11 16c-3 0-3 0-5.37-2.19L96 43c-2.56 1.12-2.56 1.12-5 3q-1.98 1.02-4 2c.88-4.75.88-4.75 2-7l-9 3c2-4 2-4 4-5-.57-3.54-1.82-5.21-4.37-7.69l-1.84-1.82C75.99 28 75.99 28 72.99 27c.07.31.07.31.33 1.91.28 2.92.3 5.21-.32 8.09a40 40 0 0 1-6.93 6.41C64 45 64 45 63 47h-3c.54-3.38 1.15-6.69 2-10l-2.88 2.34-5.7 4.57C50.08 46.57 47.12 48.69 43 50l-1-5-2.18 2.19L37 50l-2.37 2.5A62 62 0 0 1 25 60l-2-1 1.94-2.71Q32.54 45.69 40 35a24 24 0 0 1 6 3.75L48 40c3.8-1.31 6.23-3.99 9-6.81l2.57-2.58C62 28 62 28 63.89 25.23c2.1-2.23 2.1-2.23 5.32-3.07"/><path fill="#939392" d="m56 56-2 1h2l-1 3-2.56.94L50 62v4h-3l.12-3.38C47 59 47 59 45 57c7.43-2.43 7.43-2.43 11-1"/><path fill="#152037" d="M82 24c2.5.81 2.5.81 5 2v3h3l1 3-4 2-2.5-3.31-1.41-1.87C82 27 82 27 82 24"/></svg>