<svg xmlns="http://www.w3.org/2000/svg" width="128" height="128" viewBox="0 0 128 128"><path fill="#01162f" d="M16 80Q16 102 30 110L98 110Q112 102 112 80L112 76L16 76Z"/><path fill="#01162f" d="M32 70Q26 62 32 54Q38 46 32 38Q26 30 32 22L36 22Q42 30 36 38Q30 46 36 54Q42 62 36 70Z"/><path fill="#01162f" d="M60 70Q54 62 60 54Q66 46 60 38Q54 30 60 22L64 22Q70 30 64 38Q58 46 64 54Q70 62 64 70Z"/><path fill="#01162f" d="M88 70Q82 62 88 54Q94 46 88 38Q82 30 88 22L92 22Q98 30 92 38Q86 46 92 54Q98 62 92 70Z"/><path fill="#fcfae6" d="M22 82L106 82L106 84L22 84ZM28 90L100 90Q98 92 28 92Z"/></svg>