<svg xmlns="http://www.w3.org/2000/svg" width="128" height="128" viewBox="0 0 128 128"><path fill="#01162f" d="M30 36Q26 22 40 18Q46 10 60 14Q72 6 84 16Q98 14 100 28Q108 32 102 44L98 44Q102 38 96 32Q92 28 86 30Q80 22 70 26Q60 18 52 26Q42 22 38 30Q26 32 30 42Z"/><path fill="#01162f" d="M18 56Q14 44 28 42Q34 36 46 40Q56 34 66 42Q76 38 86 46Q98 44 98 58Q102 62 92 68L90 66Q96 62 90 56Q86 50 78 54Q72 46 62 50Q54 44 48 52Q40 46 32 52Q22 50 22 60Z"/><path fill="#01162f" d="M58 64L66 64L70 80L62 80L66 96L58 96Z"/><path fill="#01162f" d="M16 100Q40 92 64 96Q92 92 112 100L112 116L16 116Z"/><path fill="#fcfae6" d="M40 26L88 24 M28 48L96 50"/><path fill="#fcfae6" d="M80 102L96 102Q92 108 80 108Z"/></svg>